<?xml version="1.0" encoding="utf-8"?>
<!-- Generator: Adobe Illustrator 27.9.0, SVG Export Plug-In . SVG Version: 6.00 Build 0)  -->
<svg version="1.1" xmlns="http://www.w3.org/2000/svg" xmlns:xlink="http://www.w3.org/1999/xlink" x="0px" y="0px"
	 viewBox="0 0 999 663" style="enable-background:new 0 0 999 663;" xml:space="preserve">
<style type="text/css">
	
		.st0{fill:none;stroke:#0000FF;stroke-width:3;stroke-linecap:round;stroke-linejoin:round;stroke-miterlimit:8;stroke-opacity:0.9;}
	.st1{fill:#C1272D;}
	.st2{fill:#006837;}
	.st3{fill:#F7931E;}
	.st4{fill:#754C24;}
	.st5{fill:#0071BC;}
	.st6{fill:#FFFF00;stroke:#F15A24;stroke-miterlimit:10;}
	.st7{fill:#8CC63F;stroke:#009245;stroke-miterlimit:10;}
	.st8{fill:url(#SVGID_1_);}
	.st9{fill:#C7B299;}
	.st10{fill:#29ABE2;}
	.st11{fill:#662D91;}
	.st12{fill:#8CC63F;}
	.st13{fill:#8C6239;}
	.st14{fill:#ED1E79;}
</style>
<g id="bird1">
	<path class="st0" d="M483.6,632.4c19.8-1.4,37.8-17.8,36.3-36.9c-1.1-13.5-21.6-13.1-28.5-6.6c-5.2,4.9-4.2,14.9-9.8,14.2
		c-9.4-9.5-23-21.1-45.7-13.2c-7.4,2.6-15.8,10.4-5.3,14.9c7.9,3.4,16.2,2.6,24.6,1.9c2.5-0.2,5.4,1.1,7.9,0.5
		c0.6-0.2,1.5-1.2,1.7-0.6c0.5,1.2-26.9,2.5-24.5,11c1.7,6.1,18.8,0.5,22.4-0.8c0.2-0.1,1.7-0.8,1.7-0.6c0.4,1-12.9,5.8-12.5,11.3
		c0.6,7.4,11.1,2.1,14-0.1c2.5-1.8,5.1-3.4,7.4-5.3c0.1-0.1,3.9-2.8-3.1,3.2c-6.2,5.3-22.2,19-21.1,22c1.1,3,3.9,2.4,6.7,4.2
		c2.8,1.7,4,1.7,6.1,2.2c2.1,0.5,3.6-17.1,14.6-19.3 M512.1,585.2c9.6-1.4,9.1-5.4,4.5,3 M504,594c-0.2-0.1-0.4-0.3-0.5-0.4"/>
</g>
<g id="bird2">
	<g id="Group_995" transform="translate(-959.269 -741.234)">
		<path id="Path_698" class="st1" d="M1629.1,1232.2c0.8,0.2,1.5-0.3,1.7-1.1c0.2-0.8-0.3-1.5-1.1-1.7c-0.8-0.2-1.5,0.3-1.7,1.1
			C1627.9,1231.2,1628.3,1232,1629.1,1232.2C1629.1,1232.2,1629.1,1232.2,1629.1,1232.2z"/>
		<path id="Path_699" class="st1" d="M1664.4,1269.3c0-0.7-0.4-1.3-1.1-1.5c-5.4-1.6-14.5-6.4-26.5-13.9c-3-1.9-6.2-3.9-9.4-6.1
			c-0.9-0.6-1.6-1.1-2.3-1.6c2-2.3,3.8-4.9,5.3-7.6c0.3-0.6,0.8-1.2,1.4-1.7l0,0c4.7-4,15.4-0.1,18.6,1.3l0,0
			c0.6,0.2,1.1,0.5,1.6,0.7c0.1,0,0.2,0.1,0.3,0.1c0.8,0.2,1.6-0.3,1.8-1.1c0.2-0.7-0.2-1.4-0.8-1.7c0,0-0.7-0.3-1.7-0.8l0,0
			c-6.1-2.6-13.2-4.8-15.8-5.6l-0.5-0.1c-0.7-1.5-2.8-4.2-8.7-5.6l0,0c-6.2-1.4-9.5,3.8-12,7.6c-0.7,1.3-1.6,2.4-2.6,3.5
			c-0.1,0.1-0.3,0.2-0.5,0.3c-4.6,1.1-8.8,3.3-12.5,6.3l0,0c-4.9,4.2-8.7,9.5-11,15.5l-12.7,17.3c-0.5,0.7-0.3,1.6,0.3,2.1
			c0.2,0.1,0.4,0.2,0.5,0.3l5.6,1.3c0.6,0.1,1.2-0.1,1.6-0.6l8.4-12c2.8-0.2,5.6-0.7,8.3-1.6c1.5,1.8,4.3,2.1,6.1,0.5
			c0.7-0.6,1.2-1.4,1.4-2.4c0.1-0.5,0.1-0.9,0.1-1.4c0.7-0.4,1.3-0.7,2-1.1c3.9,3.3,8.8,5,13.9,4.8c0.1,0,0.2,0,0.3-0.1l0.2,2.1
			c0,0.5,0.4,1,0.8,1.2c3.2,1.6,6.5,2.9,10,3.7c9.4,2,19.2,1.7,28.5-0.7C1664,1270.6,1664.4,1270,1664.4,1269.3z M1603.3,1254.3
			c-0.9,0.4-1.7,0.7-2.6,1l0,0c-0.9,0.3-1.7,0.6-2.6,0.8l-0.4,0.1c-0.9,0.2-1.7,0.4-2.6,0.5l0,0c-1.2,0.2-2.4,0.2-3.6,0.1
			c2.1-4.7,5.1-8.8,8.9-12.2l4.9,1.2l-1,4.1c0,0.2,0,0.4,0,0.6l0,0c0.2,0.9,0.5,1.8,0.8,2.7c0,0,0,0.1,0,0.1
			c-0.4,0.2-0.7,0.4-1.1,0.5C1603.9,1254.1,1603.6,1254.2,1603.3,1254.3z M1622.8,1244.5L1622.8,1244.5c-0.3-0.2-0.5-0.4-0.6-0.6
			l-0.2-0.2c-0.1-0.2-0.3-0.3-0.4-0.5l-0.1-0.2c-0.1-0.1-0.2-0.3-0.3-0.4c-0.2-0.3-0.4-0.5-0.6-0.8c-0.4-0.5-0.7-1-1.2-1.6
			c0,0,0.1-0.1,0.1-0.1c0.1-0.1,0.2-0.2,0.2-0.3c0.2-0.2,0.4-0.5,0.6-0.7c0.1-0.1,0.2-0.2,0.3-0.3c0.2-0.2,0.4-0.4,0.7-0.6
			c0.1,0,0.1-0.1,0.2-0.2c0.3-0.2,0.6-0.4,0.8-0.6c0.1,0,0.1-0.1,0.2-0.1c0.2-0.1,0.4-0.3,0.6-0.4c0.1,0,0.2-0.1,0.2-0.1
			c0.2-0.1,0.4-0.2,0.6-0.3l0.2-0.1c0.5-0.2,1-0.3,1.5-0.4l0.1,0c0.2,0,0.4,0,0.6-0.1l0.1,0c0.2,0,0.4,0,0.6,0l0,0
			c0.2,0,0.4,0,0.6,0l0,0c0.2,0,0.3,0,0.4,0.1l0.1,0l0.4,0.1c-0.2,0.3-0.4,0.6-0.6,1C1626.4,1239.9,1624.7,1242.3,1622.8,1244.5z
			 M1617.1,1233.4c2.7-4.2,4.9-7.1,8.7-6.3l0,0c5.9,1.4,6.8,4.2,6.8,4.3c0.2,0.7,0.5,0.9,1.7,1.3c-1.3,0.3-2.5,0.7-3.6,1.4l-0.2-0.1
			l-0.1-0.1l-0.1,0l-0.1,0l-0.2-0.1l-0.2-0.1l-0.3-0.1l-0.3-0.1c-0.1,0-0.2-0.1-0.3-0.1l-0.1,0c-0.2,0-0.3-0.1-0.5-0.1l0,0
			c-0.2,0-0.4-0.1-0.7-0.1l-0.2,0c-0.3,0-0.5,0-0.8,0l0,0c-0.3,0-0.6,0-0.9,0l-0.2,0c-0.3,0-0.6,0.1-0.9,0.1l0,0
			c-0.3,0.1-0.7,0.1-1,0.2l-0.3,0.1c-0.3,0.1-0.6,0.2-0.9,0.3c0,0-0.1,0-0.1,0c-0.4,0.2-0.7,0.3-1.1,0.5c-0.1,0.1-0.2,0.1-0.3,0.2
			c-0.3,0.2-0.6,0.4-1,0.6c-0.1,0-0.1,0.1-0.2,0.1c-0.4,0.3-0.7,0.6-1.1,0.9c-0.1,0.1-0.2,0.2-0.3,0.3c-0.3,0.3-0.6,0.6-0.9,1
			c-0.1,0.1-0.2,0.2-0.2,0.2l-0.1,0.1c0,0-0.1-0.1-0.1-0.1c-0.4-0.4-0.9-0.9-1.4-1.4c-0.1-0.1-0.3-0.2-0.4-0.4
			C1615.9,1235.3,1616.5,1234.4,1617.1,1233.4L1617.1,1233.4z M1612.2,1238.4c0.2-0.1,0.5-0.1,0.7-0.3l0,0c0.2,0.2,0.5,0.3,0.7,0.5
			c0.5,0.4,0.9,0.8,1.3,1.2l0.2,0.1c0.4,0.4,0.8,0.8,1.1,1.2l0,0c0.7,0.7,1.3,1.5,1.9,2.3c1.1,1.6,2.4,3,3.9,4.1
			c1,0.8,2.2,1.7,3.7,2.7c1.1,0.7,2.2,1.4,3.2,2.1l-19.5-3.3l-1.9-0.3l0.9-4c0.2-0.8-0.3-1.6-1.1-1.8l-4-0.9
			C1606.2,1240.5,1609.1,1239.2,1612.2,1238.4L1612.2,1238.4z M1581.4,1275.2l-2.3-0.5l11-14.9c0.7,0.1,1.4,0.2,2.2,0.2l-2.6,3.5
			L1581.4,1275.2z M1595.4,1260.7l0.8-1c0.8-0.1,1.6-0.3,2.5-0.5l0.2,0c0.8-0.2,1.5-0.4,2.4-0.7l0.4-0.1c0.7-0.2,1.4-0.5,2.1-0.8
			c0.1,0,0.2-0.1,0.4-0.1c0.8-0.3,1.5-0.7,2.3-1.1c0.1,0,0.1-0.1,0.2-0.1c0.1,0.2,0.3,0.4,0.4,0.6c0.1,0.2,0.2,0.4,0.4,0.6
			c0,0.1,0.1,0.1,0.1,0.2c-0.8,0.4-1.5,0.9-2.3,1.3l0,0c-1.6,0.8-3.3,1.6-5,2.2c-2,0.7-4,1.2-6,1.5L1595.4,1260.7z M1626.9,1265.5
			l-0.8-8.1c-0.1-0.8-0.8-1.4-1.6-1.4c-0.6,0.1-1.2,0.5-1.3,1.2l-1,4.4c-4.2-0.1-8.2-1.7-11.3-4.7c-0.4-0.5-0.8-0.9-1.2-1.5
			c-0.1-0.1-0.1-0.2-0.2-0.3c-0.4-0.5-0.7-1.1-1-1.7c-0.2-0.4-0.4-0.9-0.6-1.3l24.8,4.2l2.7,0.5c7.1,4.6,14.4,8.6,22,12.2
			C1650.7,1270,1638,1271,1626.9,1265.5L1626.9,1265.5z"/>
	</g>
</g>
<g id="bird2_00000050622314781058859340000017031925441012736394_">
	<g id="Group_733" transform="translate(-229.376 -608.249)">
		<path id="Path_568" class="st2" d="M709.2,945.7c-0.1-0.1-2.2-1.9-6.6-1.9c-3.1,0.1-6.2,0.7-9.2,1.8l0,0h0l-5.6,2.3v-9
			c0-0.3-0.2-0.5-0.5-0.5c-0.1,0-0.1,0-0.2,0c-4.9,1.6-8.5,5.8-9.2,10.9c-1-1.2-2.6-1.9-4.1-1.9c-3.1,0-5.6,2.7-5.7,2.9c0,0,0,0,0,0
			c-2.9-0.3-5.8-0.3-8.7,0c-0.3,0-0.4,0.3-0.4,0.5c0,0.2,0.2,0.4,0.5,0.4c0,0,0,0,0.1,0c2.9-0.3,5.9-0.3,8.8,0
			c1.2,1.7,3.1,2.9,5.2,3.3c0.4,1.2,1,2.4,1.8,3.5c1.6,2.4,3.9,4.3,6.5,5.6c0.1,0.1,0.3,0.1,0.4,0.2c-4.2,9.3-7.4,19-9.6,29
			c-0.1,0.2,0.1,0.5,0.3,0.6c0,0,0.1,0,0.1,0c0.2,0,0.4-0.1,0.4-0.3c2-5.2,8.1-18.6,12.1-18.6s10.1,13.4,12.1,18.6
			c0.1,0.2,0.4,0.4,0.6,0.3c0.2-0.1,0.3-0.3,0.3-0.5c-3.4-16.3-10.3-30.4-11.5-33c1.4-0.8,6.7-3.8,13.1-6.9c7.6-3.7,9.1-6.4,9.2-6.5
			C709.4,946.1,709.4,945.9,709.2,945.7z M686.8,939.6v8.7l-6.8,2.7c-0.4-0.3-0.8-0.5-1.3-0.7C679.1,945.4,682.3,941.2,686.8,939.6z
			 M673.9,953.7c-2-0.3-3.7-1.4-4.9-3.1c0.7-0.6,2.6-2.3,4.8-2.3c2.6,0,4.1,2.4,4.1,2.5v0l0,0c0,0.1,0.1,0.1,0.2,0.2c0,0,0,0,0,0
			l1.5,0.8c0,0.1,0,0.2,0,0.3c0,0.1,0,0.2,0,0.2c0,0.2-0.1,0.4-0.1,0.6c0,0,0,0,0,0.1c0,0.2-0.1,0.4-0.2,0.6c0,0.1,0,0.1-0.1,0.2
			c0,0.1-0.1,0.3-0.2,0.4c0,0.1-0.1,0.1-0.1,0.2c-0.1,0.1-0.1,0.2-0.2,0.3c0,0.1-0.1,0.1-0.1,0.2c-0.1,0.1-0.1,0.2-0.2,0.3
			c0,0.1-0.1,0.1-0.1,0.1c-0.1,0.1-0.2,0.2-0.2,0.3c0,0-0.1,0.1-0.1,0.1c-0.1,0.1-0.2,0.2-0.3,0.3c0,0-0.1,0-0.1,0.1
			c-0.1,0.1-0.2,0.1-0.3,0.2c0,0-0.1,0.1-0.1,0.1c-0.1,0.1-0.1,0.1-0.2,0.2c0,0-0.1,0.1-0.1,0.1c-0.1,0-0.1,0.1-0.2,0.1
			c0,0-0.1,0-0.1,0.1c-0.1,0-0.1,0.1-0.2,0.1l-0.1,0c-0.2,0.1-0.3,0.2-0.5,0.2c-0.7-1-1.2-2-1.5-3.1
			C674.2,953.9,674.1,953.7,673.9,953.7z M676.4,958c0.1,0,0.1-0.1,0.2-0.1c0,0,0,0,0.1,0c0.1-0.1,0.2-0.1,0.3-0.2l0.1-0.1
			c0.1-0.1,0.2-0.1,0.3-0.2c0,0,0.1-0.1,0.1-0.1c0.1-0.1,0.2-0.1,0.3-0.2c0,0,0.1-0.1,0.1-0.1c0.1-0.1,0.3-0.2,0.4-0.3l0,0
			c0.1-0.1,0.2-0.2,0.4-0.3c0,0,0.1-0.1,0.1-0.1c0.1-0.1,0.2-0.2,0.3-0.3c0,0,0.1-0.1,0.1-0.1c0.1-0.1,0.2-0.3,0.3-0.4
			c0,0,0-0.1,0.1-0.1c0.1-0.2,0.2-0.4,0.3-0.6c0,0,0-0.1,0.1-0.1c0.1-0.2,0.1-0.3,0.2-0.5c0-0.1,0.1-0.1,0.1-0.2
			c0.1-0.2,0.1-0.3,0.2-0.5c0-0.1,0-0.1,0.1-0.2c0.1-0.3,0.1-0.5,0.1-0.8c0,0,0,0,0-0.1c0-0.2,0-0.4,0.1-0.6l6.9-2.8c0,0,0,0,0,0
			l5-2c-1.1,1.7-2.4,3.3-4,4.5l0,0c-0.4,0.3-0.8,0.6-1.3,0.9c0,0,0,0-0.1,0c-0.4,0.3-0.9,0.5-1.4,0.7l-0.1,0c-0.5,0.2-1,0.3-1.5,0.4
			c-0.1,0-0.1,0-0.2,0c-0.3,0-0.5,0.1-0.8,0.1c-0.3,0-0.5,0.2-0.5,0.5c0,0.1,0,0.2,0.1,0.3c0.4,0.5,0.8,0.9,1.2,1.4
			c0.2,0.2,0.3,0.5,0.5,0.7c0.6,1,1.1,2,1.5,3.1l0,0c0.2,0.7,0.6,2.8-0.3,3.5c-0.6,0.6-1.9,0.2-2.8-0.1c-0.3-0.1-0.5-0.2-0.8-0.3
			C679.9,961.6,677.9,960,676.4,958L676.4,958z M694.2,983.2c-3.4-6.4-6.3-9.7-8.7-9.7s-5.3,3.3-8.7,9.7c-0.8,1.5-1.5,3-2.2,4.4
			c2.1-8,4.9-15.9,8.3-23.5c0,0,0.1,0,0.1,0c0.1,0,0.2,0.1,0.2,0.1c0.1,0,0.2,0.1,0.3,0.1c0.1,0,0.2,0,0.2,0.1c0.1,0,0.2,0,0.3,0.1
			c0.1,0,0.1,0,0.2,0c0.1,0,0.2,0,0.3,0c0,0,0.1,0,0.1,0s0.1,0,0.1,0c0.1,0,0.2,0,0.3,0c0.1,0,0.1,0,0.2,0c0.1,0,0.2,0,0.2-0.1
			c0.1,0,0.1,0,0.2,0c0.1,0,0.2-0.1,0.2-0.1c0,0,0.1,0,0.1-0.1c0.1-0.1,0.2-0.1,0.3-0.2c0.1-0.1,0.2-0.2,0.3-0.3c0,0,0-0.1,0.1-0.1
			c0.1-0.1,0.1-0.2,0.2-0.3c0,0,0,0,0-0.1c0.1-0.1,0.1-0.3,0.1-0.4c0,0,0-0.1,0-0.1c0-0.1,0-0.2,0.1-0.4c0,0,0,0,0-0.1
			c3.8,8.2,6.9,16.7,9.2,25.5C695.8,986.2,695,984.7,694.2,983.2z M699.7,951.9c-6.2,3-11.4,6-13,6.9l0,0c0-0.1-0.1-0.2-0.1-0.3l0,0
			c0-0.1-0.1-0.2-0.2-0.4c0,0,0-0.1,0-0.1c-0.1-0.1-0.1-0.2-0.2-0.4c0,0,0-0.1,0-0.1c-0.1-0.2-0.2-0.3-0.2-0.5l-0.1-0.1
			c-0.1-0.1-0.2-0.3-0.2-0.4c0,0-0.1-0.1-0.1-0.1c-0.1-0.2-0.2-0.4-0.3-0.5c0,0,0-0.1-0.1-0.1c-0.1-0.2-0.2-0.3-0.3-0.5
			c0-0.1-0.1-0.1-0.1-0.2c-0.1-0.2-0.3-0.4-0.5-0.6c2.5-0.4,4.9-1.8,7-4.2c0.2-0.2,0.3-0.4,0.5-0.6l0.1-0.1c0.1-0.2,0.3-0.4,0.4-0.5
			l0.1-0.1c0.1-0.2,0.3-0.3,0.4-0.5l0,0c0.1-0.2,0.2-0.3,0.3-0.5c0,0,0-0.1,0.1-0.1c0.1-0.1,0.2-0.3,0.3-0.4l0.1-0.1
			c0.1-0.1,0.2-0.3,0.2-0.4l0,0c0.1-0.1,0.1-0.2,0.2-0.3l0,0c0-0.1,0.1-0.2,0.1-0.2l0,0c2.8-1,5.7-1.6,8.7-1.7
			c2-0.1,3.9,0.4,5.6,1.4C707.6,947,705.4,949.2,699.7,951.9z"/>
		<circle id="Ellipse_115" class="st2" cx="672" cy="950.6" r="0.9"/>
	</g>
</g>
<g id="bird4">
	<g>
		<g>
			<g>
				<path class="st3" d="M689,292c-2.8,0-5.2,2.3-5.2,5.2s2.3,5.2,5.2,5.2c2.8,0,5.2-2.3,5.2-5.2S691.9,292,689,292z M689,298.9
					c-0.9,0-1.7-0.8-1.7-1.7s0.8-1.7,1.7-1.7c0.9,0,1.7,0.8,1.7,1.7C690.7,298.1,690,298.9,689,298.9z"/>
			</g>
		</g>
		<g>
			<g>
				<path class="st3" d="M721.4,295.5l-17.4-4.6c-0.8-1.9-2-3.7-3.5-5.2c-0.1-0.1-0.3-0.3-0.4-0.4c-3.4-3.2-8-4.7-12.7-4.1
					c-4.8,0.6-9,3.2-11.6,7.3c-0.1,0.2-0.3,0.5-0.4,0.8c-0.5,0.9-2.2,4.3-4.3,7.4c-3.5,5.1-5.1,5.3-5.3,5.3c0,0,0,0,0,0
					c-8.6,0-29.3-15.5-36.6-21.5c-0.4-0.3-1-0.5-1.5-0.3c-0.5,0.1-1,0.5-1.2,1c-1.8,4.3-2,14.5,1.2,24.9c1.8,5.9,5.1,13,10.9,19.1
					l-0.1,0.1c0.1,0,0.2,0.1,0.3,0.2c2.7,2.8,6,5.3,9.9,7.4l-20.5,33.4c-0.3,0.6-0.3,1.2,0,1.8c0.3,0.5,0.9,0.8,1.5,0.8
					c0,0,0.1,0,0.1,0c8.7-0.5,16.4-5.2,20.8-12.6c4.3-0.1,8.6-0.5,12.8-1.3c0,0,0,0,0,0c0.1,0,0.3,0,0.4-0.1
					c0.2-0.1,0.4-0.1,0.6-0.2c6.8-1.5,13.4-3.9,19.5-7.3c14-7.8,21.1-23.8,17.4-39.3c1.2-1.3,2.1-2.9,2.8-4.5l17.4-4.6
					c0.8-0.2,1.3-0.9,1.3-1.7S722.2,295.7,721.4,295.5z M682.1,344.2c-0.8,0.4-1.6,0.8-2.4,1.2c6.4-6.4,10.3-15.1,10.4-24.6l8.5-5.5
					C698.9,327.1,692.7,338.3,682.1,344.2z M698.1,306.2c-0.4,0.4-0.6,1.1-0.5,1.7c0.3,1.2,0.5,2.4,0.7,3.6l-10.8,7
					c-0.5,0.3-0.8,0.9-0.8,1.5c0.2,14.5-9.4,27.3-23.3,31.3c-4.3,0.9-8.7,1.4-13,1.5l-1,0c-0.6,0-1.2,0.3-1.5,0.9l-0.2,0.3
					c-3.2,5.7-8.6,9.6-14.9,11l19.6-31.9c0.3-0.4,0.3-0.9,0.2-1.4s-0.5-0.9-0.9-1.1c-2.7-1.2-5-2.7-7.1-4.4c2.1-0.1,4.9-0.5,8.5-1.5
					c0.9-0.2,1.5-1.2,1.2-2.1c-0.2-0.9-1.2-1.5-2.1-1.2c-7.2,1.9-10.6,1.4-11.7,1.1c-2.1-2.2-3.8-4.5-5.2-6.9c0.3,0,0.7,0,1.1,0
					c2.3,0,5.5-0.4,9.9-1.5c0.9-0.2,1.5-1.2,1.2-2.1c-0.2-0.9-1.2-1.5-2.1-1.2c-9.2,2.4-12.1,1-12.1,1c0.1,0,0.1,0,0.1,0l-0.1,0.1
					c-1.1-2.4-2-4.7-2.6-6.8c-0.1-0.2-0.1-0.5-0.2-0.7c0.5,0,1,0.1,1.5,0.1c2.3,0,5.5-0.4,9.9-1.5c0.9-0.2,1.5-1.2,1.2-2.1
					c-0.2-0.9-1.2-1.5-2.1-1.2c-6.9,1.8-10.3,1.5-11.5,1.2c-1.4-6.6-1.4-12.4-0.8-15.9c2.6,2.1,7.4,5.7,12.8,9.4
					c11,7.4,19,11.2,24,11.2c0,0,0,0,0.1,0c2.4,0,5-2.2,8.1-6.8c2.2-3.2,4-6.7,4.5-7.7c0.1-0.2,0.2-0.3,0.2-0.4
					c2.1-3.2,5.4-5.3,9.2-5.7c3.6-0.4,7.3,0.7,9.9,3.2c0.1,0.1,0.2,0.2,0.3,0.3C703.1,293.1,703.1,301.2,698.1,306.2z M705.1,299.6
					c0.1-0.8,0.2-1.6,0.2-2.4c0-0.8-0.1-1.6-0.2-2.4l9.1,2.4L705.1,299.6z"/>
			</g>
		</g>
	</g>
</g>
<g id="bird5">
	<g>
		<g>
			<g>
				<circle class="st4" cx="214.5" cy="468.9" r="2.8"/>
			</g>
		</g>
		<g>
			<g>
				<path class="st4" d="M198.5,469.8l-3.8,5.6l5.1-1c1.3,6.7,6.3,12.2,12.8,14.2c0,0.3,0,0.6,0,0.9c0,6.1,2.4,11.8,6.7,16
					c4.2,4.2,9.8,6.5,15.8,6.5c0.1,0,0.2,0,0.3,0c2,0,4-0.3,5.8-0.9c2.1,2.8,5.5,4.6,9.3,4.6h4.2c1.2,3.3,4.3,5.6,8,5.6v-5.6
					c-1.6,0-2.8-1.3-2.8-2.8c0-1.6,1.3-2.8,2.8-2.8v-5.6c-3.7,0-6.8,2.4-8,5.6h-4.2c-1.4,0-2.8-0.5-3.8-1.4c1.5-0.9,2.8-2,4.1-3.2
					c2-2,3.6-4.2,4.8-6.7c1.2-0.4,2.3-0.9,3.4-1.5c5-2.9,7.9-7.5,8.4-13.2c0.2-2.5-0.1-4.7-0.4-6.1c2.5-3.2,8.4-12.3,5.1-22.2
					l-1.1-3.5l-34.4,22.6c0.3-1.3,0.5-2.7,0.5-4.2c0-10.3-8.4-18.8-18.8-18.8c-8.4,0-15.6,5.6-17.9,13.3l-5.5-1.1L198.5,469.8z
					 M239.7,487.4c-1.3-1.9-2.2-4-2.5-6.2l30.2-19.9c0.1,2.6-0.5,5.4-1.9,8.3c-1.6,3.4-3.7,5.7-3.7,5.8l-1.1,1.2l0.5,1.6
					c0,0,0.8,2.5,0.6,5.6c-0.3,3.8-2.2,6.7-5.6,8.6C250.5,495.8,244.1,493.9,239.7,487.4z M218.2,489.5c5.4,0,10.2-2.3,13.7-5.9
					c0.6,2.5,1.7,4.9,3.2,7.1c3.1,4.4,7,7.4,11.4,8.5c0.7,0.2,1.5,0.3,2.2,0.4c-0.5,0.7-1.1,1.4-1.7,2c-3.1,3.1-7.2,4.8-11.5,4.8
					c-4.6,0.1-8.8-1.7-12.1-4.9C220,498.3,218.2,494.1,218.2,489.5z M205.1,470.8c0-7.2,5.9-13.1,13.1-13.1
					c7.2,0,13.1,5.9,13.1,13.1c0,7.2-5.9,13.1-13.1,13.1C211,483.9,205.1,478,205.1,470.8z"/>
			</g>
		</g>
	</g>
</g>
<g id="bird6">
	<g>
		<g>
			<path class="st5" d="M745.1,159.1c0.2-1,0.4-2,0.4-3c6.8-1.7,11.8-7.8,11.8-15c0-2.1-0.4-4.1-1.2-5.9l5.5-2.4l-6.5-2.6l-0.1-7
				l-4.7,4.9c-2.4-1.6-5.3-2.5-8.4-2.5c-8.5,0-15.5,6.9-15.5,15.5c0,0,0,0.1,0,0.1l-20-25.8l-2.3,3c-5.7,7.5-3.4,16.8-2.2,20.4
				c-0.7,1.1-1.5,2.8-2.1,5c-1.3,5-0.2,9.8,3.2,13.8c-0.1,0-0.1,0.1-0.2,0.1c-5.6,2.2-12.3,3.2-12.4,3.2l-11.6,1.7l19,6.8l-9.7,16.4
				l8.7-4.3c0.1-0.1,11.6-5.6,24.5-6.3c0.9,1.7,2.1,3.2,3.6,4.5c2.9,2.6,6.3,3.9,9.9,3.9c1.3,0,2.7-0.2,4.1-0.5
				c2.1-0.6,3.8-1.4,5-2.1c3.6,1.2,13,3.4,20.4-2.2l3-2.3L745.1,159.1z M741.9,131.4c5.3,0,9.7,4.3,9.7,9.7c0,5.3-4.3,9.7-9.7,9.7
				s-9.7-4.3-9.7-9.7C732.2,135.7,736.5,131.4,741.9,131.4z M739.7,156.4c-0.4,3.3-1.8,6.2-4,8.4c-1.3,1.3-2.8,2.3-4.5,3
				c2.4-2.4,4-4.8,5-6.9c0.9-1.8,1.4-3.4,1.8-4.8C738.5,156.2,739.1,156.3,739.7,156.4z M705.4,145.4c0.6-2.6,2-4.4,2-4.4l1.1-1.3
				l-0.7-1.6c0-0.1-2.7-6.6-0.9-12.6l15.2,19.6c-3.9,3.1-9,6.8-13.8,9.6c-0.3-0.3-0.6-0.6-0.8-0.9
				C705.3,151.4,704.6,148.6,705.4,145.4z M718,169.5c-6,0.6-11.5,2.1-15.7,3.5l4-6.8l-5.1-1.8c1.2-0.4,2.5-0.8,3.7-1.3l0.1,0
				c7.6-3.2,17.4-10.6,23-15.1c1.1,2.2,2.7,4.1,4.6,5.5C732,156.8,729.5,164.8,718,169.5z M744.6,174.8l-1.6-0.7l-1.4,1.1
				c0,0-1.8,1.3-4.3,2c-3.3,0.8-6.1,0.2-8.7-2.1c-0.2-0.2-0.3-0.3-0.5-0.5c4.6-0.7,8.5-2.7,11.6-5.7c1.3-1.2,2.3-2.7,3.2-4.2
				l14.2,11C751.1,177.6,744.6,174.9,744.6,174.8z"/>
		</g>
	</g>
	<g>
		<g>
			<circle class="st5" cx="745.2" cy="139.6" r="2.9"/>
		</g>
	</g>
</g>
<g id="bird7">
	<g>
		<g>
			<path class="st6" d="M8.4,307.6c0,0.5-0.3,1.3,0.8,1.1c1.6-0.6,2.3-1.8,2.7-3.4c0.4,0.1,0.2,1.8,1,0.2c0.1,0.3,0.1,0.6,0.1,0.5
				c1.8-1.4,3.6-2.9,5.4-4.3c0.5-0.4,0.8-1,1.3-1.5c0.5-0.5,0.9-1.3,1.6-1.4c1.6-0.5,2.4-1.6,3-2.9c0.1-0.3,0.6-0.4,0.8-0.6
				c0.8-0.7,1.5-1.5,2.2-2.2c0.5-0.5,1.1-1,1.6-1.5c0.5-0.5,1.1-1.1,1.4-1.7c1.2-2.2,2.3-4.5,3.4-6.7c1.2-2.3,2.3-4.6,3.6-6.7
				c0.6-1,1.5-1.9,2.5-2.4c2.5-1.3,5.1-2.1,7.8-2.7c1.1-0.2,2.1-0.9,3.2-1.3c0.7-0.3,1.5-0.3,2.3-0.6c2.5-0.8,5.1-1.8,7.6-2.6
				c2.1-0.7,4.2-1.2,6.3-1.9c3.7-1.2,7.4-2.6,11.1-3.7c1.1-0.3,2.3-0.5,3.5,0.5c2.3,2,5.1,3,8.1,3.8c2.4,0.6,4.8,1.5,7.2,2.3
				c2.2,0.7,3.6,2.3,4.5,4.4c0.6,1.5,1.8,1.8,3.2,1.9c0.9,0.1,1.8,0.1,2.7,0.4c0.6,0.3,1.1,0.6,1.7,0.9c0.1,0.1,0.2,0.2,0.4,0.3
				c0.9,0.8,2,1.2,3,1.8c0.8-0.8,1.4-1.5,2.2-2.2c1.5,0.7,1.5,0.7,3-2.3c-1.3-0.8-2.7-1.6-4.1-2.4c0.3-1.2,0.6-2.5,0.8-3.7
				c0-0.3-0.3-0.9-0.6-1.1c-6-2.4-9.2-7.3-11.7-13c-0.9-2.1-2.3-4-3.6-6c-0.5-0.7-0.8-3.5-0.4-4.3c0.3-0.7,0.4-1.4,0.7-2.1
				c0.4-0.8,0.9-1.6,1.3-2.4c0.2-0.4,0.5-0.7,0.6-1.1c0.3-0.3,0.8-0.6,0.9-0.9c0.4-0.8,0.5-2.2,1.1-2.5c2.1-1.1,1.9-3.6,3.5-4.9
				c0.9-0.7,1.1-2.1,1.7-3.2c0.2-0.4,0.4-0.7,0.6-1.1c0.8-0.9,1.5-2,1.8-3.2c0.1-0.2,0.2-0.5,0.4-0.7c0.9-1.8,1.7-3.7,2.6-5.5
				c0.4-0.7,1-1.2,1.4-1.9c0.3-0.6,0.5-1.2,0.8-1.9c0.1-0.4,0.3-0.7,0.5-1c0.4-0.9,0.7-1.7,1.1-2.6c0.4-1,0.9-1.9,2-2.4
				c1.4-0.7,2.6-1.9,4-2.8c0.5-0.4,1-0.8,1.5-1c1.7-0.6,3.4-1.5,5.1-1.6c2.6-0.2,4.6-1.8,6.8-2.7c0.7-0.3,2.2-0.1,2.5-1.6
				c0-0.3,1.1-0.3,1.7-0.6c1.5-0.8,3.1-1.6,4.6-2.6c0.6-0.4,1-1.1,1.5-1.6c1.2-1.2,2.5-2.5,3.7-3.7c0.2-0.2,0.3-0.6,0.5-0.7
				c2.1-1.3,3.3-3.3,4.5-5.3c0.2-0.3,0.6-0.6,0.8-0.9c0.3-0.6,0.6-1.3,1-1.9c0.5-0.9,1.1-1.7,1.7-2.5c0.2-0.3,0.3-0.7,0.5-1h-1.1
				c-3.7,1.7-7.4,3.5-11.2,5c-2.9,1.1-6,1.5-8.9,2.5c-4.7,1.5-9.4,2.7-13.8,5.2c-3.9,2.2-8.2,3.7-12.2,5.8c-2.8,1.5-5.4,3.3-8.1,5.1
				c-0.5,0.4-0.9,1.1-1.2,1.7c-2.8,5.3-5.3,10.8-8.4,16c-1.8,3.2-4.2,6.2-6.6,9c-1.5,1.8-3.5,3.2-5.3,4.6c-2.2,1.7-4.9,1.3-7.4-0.9
				c-1.4-1.2-2.7-2.5-4.2-3.4c-3-1.8-6.2-1.7-9.3-0.5c-0.6,0.2-1.2,0.9-1.5,1.4c-0.5,1-1.2,1.6-2,1.9c-0.2,0-0.3,0.1-0.5,0.2
				c-0.1,0-0.1,0-0.2,0c-0.2,0-0.5,0-0.7,0.1l-0.4,0.1c-0.2,0-0.5,0.1-0.7,0.1c-0.3,0-0.7,0.1-1,0.3c-0.4,0.1-0.8,0.2-1.2,0.6
				l-0.7,0.7c-0.4,0.4-0.6,1-0.6,1.6c0,0.1,0,0.1,0,0.2c0,1.2,0.3,2.3,1.4,2.8c0.3,0.1,0.9-0.2,1.2-0.5c1.6-1.3,2.4-1.4,4.2-0.6
				c1.1,0.5,2.3,0.9,3.4,1.4c0.4,0.2,1,0.7,1.1,1.2c0.3,1.1,0.4,2.3,0.5,3.4c0.1,1,0,2,0.3,2.9c0.4,1.3,0,2.1-0.9,2.9
				c-2.3,1.7-4.5,3.6-6.8,5.2c-3.7,2.6-7.7,4.4-12,6c-0.8,0.3-1.6,0.6-2.4,0.9c-1.1,0.3-2.1,0.7-3.1,1.1c-2.1,0.8-4.2,1.5-6.3,2.3
				c-2.4,0.9-3.4,3-4.5,5c-2,3.8-3.6,7.8-6,11.3c-3.2,4.7-5.3,9.9-7.9,14.9c-2.7,5.2-3.9,9.7-5.7,15.3
				C8.5,307.3,8.4,307.4,8.4,307.6z"/>
		</g>
	</g>
</g>
<g id="bird8">
	<g>
		<g>
			<path class="st7" d="M985.6,371.2c-3.5-2.5-6.5-5.5-9.4-8.7c-2.2-2.5-4-5.2-5.8-8c-1.2-1.8-2.5-3.4-3.7-5.1
				c-1.1-1.4-2.2-2.8-3.4-4.1c-1.6-1.9-3.1-3.8-4.7-5.6c-1-1.2-2.1-2.4-3.1-3.5c-0.9-0.9-1.7-1.8-2.7-2.6c-0.7-0.6-1.6-1-2.4-1.5
				c-0.9-0.5-1.9-0.9-2.8-1.3c-1.1-0.6-2.2-1.1-3.3-1.7c-1.2-0.6-2.5-1.3-3.7-2c-1.1-0.6-2.3-1.2-3.4-1.8c-1.5-0.8-3-1.7-4.5-2.5
				c-1.3-0.7-2.6-1.5-3.9-2.2c-0.6-0.3-1.1-0.7-1.6-1.1c-0.5-0.3-1-0.6-1.5-1c0.4-0.4,0.7-0.8,0.9-1.2c0.4-0.6,0.5-1.3,0.1-2
				c0-0.1-0.1-0.2-0.2-0.2c-1.2-2-2.9-3.4-5.1-4.4c-1.2-0.6-2.5-1-3.8-1.3c-0.5-0.3-1.1-0.6-1.6-0.9c-0.9-0.5-1.8-1.1-2.5-2
				c-0.3-0.4-0.7-0.6-1.1-0.9c0,0,0-0.2-0.1-0.2c-0.4-0.3-0.8-0.5-1.2-0.8c-0.1-0.2-0.3-0.3-0.5-0.5c-0.1-0.1-0.2-0.1-0.3-0.2
				c-0.1-0.1-0.1-0.1-0.2-0.2c-0.5-0.4-0.9-0.9-1.3-1.4c-0.9-1.1-1.8-2.1-2.6-3.2c-1.1-1.5-2.2-3.1-3.3-4.7
				c-1.6-2.4-3.1-4.8-4.6-7.3c-1.5-2.7-2.9-5.4-4.4-8.1c-0.4-0.7-0.9-1.2-1.4-1.8c-0.5-0.6-1.1-1.2-1.7-1.8
				c-0.9-0.9-1.9-1.8-2.9-2.5c-2.3-1.8-4.3-3.8-6.6-5.6c-1.4-1.1-2.8-2.4-4.2-3.4c-2.5-1.7-5-3.4-7.6-5c-2.3-1.5-4.4-3.1-6.4-4.9
				c-1.5-1.3-3-2.7-4.4-4c-1.1-1-2.1-2.1-3.1-3.1c-1.4-1.4-2.7-2.9-4.1-4.3c-0.1-0.1-0.3-0.3-0.5-0.4c0,0-0.1,0-0.1,0.1
				c0,0.2,0,0.5,0.1,0.7c0.6,1.6,1.2,3.2,2.3,4.5c0.9,1.1,1.8,2.2,2.8,3.1c1.5,1.4,3.2,2.7,4.8,4c0.1,0.1,0.2,0.2,0.2,0.3
				c-0.1,0-0.2-0.1-0.4-0.1c-2.2-1.4-4.4-2.7-6.6-4.1c-1.8-1.2-3.5-2.4-5.3-3.6c-1.2-0.8-2.2-1.7-3.4-2.5c-1.4-0.9-2.8-1.8-4.2-2.6
				c-0.2-0.1-0.5-0.2-0.8-0.3c0.1,0.3,0.1,0.4,0.1,0.5c0.8,1.4,1.7,2.7,2.9,3.8c1.2,1.1,2.5,2,3.9,3c1.2,0.8,2.4,1.7,3.6,2.5
				c0.6,0.4,1.3,0.8,1.9,1.2c1,0.6,2,1.2,3.1,1.8c0.3,0.2,0.6,0.3,0.9,0.4c-0.7-0.3-1.4-0.5-2.1-0.8c-1.2-0.5-2.4-1.1-3.6-1.7
				c-1.9-0.9-3.8-1.8-5.7-2.6c-2.7-1.1-5.4-2.2-8.1-3.2c-0.3-0.1-0.7-0.2-1-0.2c-0.1,0-0.3,0.1-0.4,0.1c0,0.1,0,0.3,0.1,0.4
				c0.2,0.2,0.4,0.5,0.7,0.7c1.7,1.5,3.7,2.6,5.8,3.6c1.7,0.8,3.4,1.7,5.1,2.6c0.6,0.3,1.2,0.5,1.8,0.7c0,0,0,0.1,0,0.1
				c-0.1,0-0.2,0-0.4-0.1c-2.9-0.9-5.7-1.8-8.6-2.6c-1.2-0.4-2.5-0.5-3.8-0.7c-0.2,0-0.5,0.1-0.8,0.2c0.1,0.2,0.2,0.5,0.4,0.6
				c0.2,0.2,0.5,0.4,0.8,0.5c2.8,1.7,5.9,2.8,8.9,3.9c0.7,0.3,1.3,0.5,2,0.8c0,0.1,0,0.1,0,0.2c-0.3,0-0.5-0.1-0.8-0.1
				c-1.6-0.3-3.3-0.6-4.9-0.9c-0.4-0.1-0.7,0-1.1,0.1c-0.1,0-0.3,0.1-0.5,0.3c0.4,0.3,0.7,0.7,1.1,0.9c1.8,0.9,3.5,1.7,5.3,2.5
				c0.1,0,0.1,0.1,0.2,0.1c-0.4,0.1-0.8,0.2-1.3,0.3c1.1,1.4,2.5,2.2,3.9,3.1c0.3,0.2,0.8,0.2,1.1,0.4c0.2,0.1,0.4,0.3,0.7,0.5
				c-0.4,0.5-0.3,0.9,0.2,1.3c1,0.9,2.2,1.5,3.4,2.2c0.4,0.2,0.6,0.7,1,1.1c0.3,0.3,0.6,0.6,0.9,0.9c0.3,0.2,0.6,0.5,0.9,0.7
				c-0.7,0.8-0.4,1.3,0.2,1.8c0.4,0.3,0.8,0.7,1.2,1c0.6,0.4,1.3,0.6,2,0.5c0.1,0,0.1,0,0.2,0c0.4,0.9,1.1,1.5,2,1.8
				c0.5,0.5,1,1,1.3,1.7c0.1,0.3,0.2,0.6,0.1,1c-0.1,0.4,0.2,0.8,0.1,1.2c-0.1,0.7,0.5,0.7,0.9,0.9c0.1,0.1,0.2,0.1,0.3,0.2
				c0.5,0.2,0.7,0.5,0.5,1c-0.1,0.3-0.1,0.5,0.2,0.7c0.4,0.3,0.8,0.6,1.2,0.8c0.3,0.2,0.5,0.4,0.8,0.5c0.2,0.1,0.4,0.2,0.6,0.2
				c0.3,0,0.5,0.2,0.4,0.5c-0.1,0.4,0.1,0.7,0.3,1c0.2,0.2,0.2,0.6,0.2,0.8c0,1,0.2,1.3,1.1,1.6c0.4,0.1,0.8,0.3,1,0.8
				c0.2,0.5,0.4,0.9,1,1c0.5,0.1,0.8,0.5,0.8,1.1c0,0.6,0.4,0.9,0.7,1.3c0.3,0.3,0.4,0.6,0.3,1c-0.2,0.6,0.1,1.2,0.3,1.8
				c0,0.1,0.3,0.1,0.4,0.1c-0.2,0.4-0.1,0.7,0.4,0.8c0.5,0.2,0.8,0.5,1,1.1c0.2,0.8,0.7,1.3,1.5,1.3c0.1,0,0.3,0.1,0.5,0.2
				c-0.2,0.1-0.4,0.2-0.6,0.2c0,0,0,0.1,0,0.1c0.2,0,0.4,0,0.6,0c0.2,0,0.4,0.1,0.6,0.2c-0.1,0.2-0.2,0.3-0.3,0.4
				c-0.1,0.1-0.2,0.2-0.3,0.3c-0.2,0.3,0,0.8,0.3,0.9c0.1,0,0.2,0,0.2,0c1,0,1,0,0.9,1.1c-0.1,1.1,0.3,2.1,0.9,3
				c0.1,0.2,0.4,0.2,0.6,0.3c0.2,0.1,0.3,0.2,0.4,0.4c0.2,0.3,0.3,0.6,0.4,0.9c0.1,0.4,0.2,0.7,0.8,0.8c0.2,0,0.4,0.5,0.5,0.9
				c0.3,0.6,0.5,1.1,0.8,1.7c0.1,0.2,0.2,0.3,0.2,0.5c0.1,0.6,0.4,0.9,1,1c0.4,0,0.6,0.1,0.9,0.4c0.4,0.4,0.9,0.5,1.4,0.7
				c0.3,0.1,0.5,0.3,0.8,0.4c0.6,0.3,1.1,0.7,1.7,1c0.4,0.2,0.6,0.6,0.5,1.1c-0.1,0.4-0.3,0.8-0.2,1.3c0.1,0.2-0.4,0.6-0.6,1
				c-0.1-0.6-0.4-0.8-0.8-0.7c-0.7,0.3-1.5,0.2-2.2,0.4c-0.6,0.2-1.3,0.4-1.9,0.5c0,0-0.1,0-0.1,0c-1.1-0.2-2.2,0.2-3.3,0.3
				c-1.3,0.1-2.6,0.3-3.9,0.5c-1.6,0.2-3.1,0.3-4.7,0.5c-0.7-0.3-1.5,0.1-1.8,0.8c-0.3,0.7,0.1,1.5,0.8,1.8c0.2,0.1,0.5,0.2,0.7,0.3
				c0.2,1.2,1.2,2.1,2.4,2.3c-0.2,0.1-0.3,0.2-0.5,0.3c-0.2,0.2-0.6,0.5-0.3,0.8c0.2,0.3,0.5,0.7,1,0.5c0.2,0.2,0,0.9,0.5,0.6
				c0.7,0.4,1.4,0.7,2,1c0.1,0.6,0.3,0.8,1.3,1c0.4,0.1,0.7,0.1,1.1,0.1c0.4,0,0.7,0,1.1,0c-0.1,0.1-0.2,0.3-0.3,0.4
				c-0.6,0.5-0.6,1,0,1.5c0.1,0.1,0.3,0.3,0.4,0.4c0.4,0.5,0.4,0.5,0.9,0.5c0.1,0.2,0.1,0.4,0.2,0.4c0.4,0.2,0.8,0.6,1.4,0.3
				c0.1,0,0.2,0,0.2,0.1c0.2,0.2,0.3,0.6,0.5,0.7c0.2,0.2,0.5,0.2,0.8,0.3c0.1,0,0.3,0,0.4,0c0.6-0.3,1.2,0,1.8-0.2c0,0,0.1,0,0.2,0
				c-0.1,0.1-0.2,0.2-0.4,0.4c0.8,0.1,1.4,0.4,2.1,0.1c0.1,0,0.3-0.1,0.4-0.1c0.4,0.1,0.9,0.3,1.3,0.4c-0.1,0-0.2,0.1-0.4,0.2
				c0.5,0.4,1.1,0.5,1.7,0.6c0.2,0,0.4,0,0.6,0.1c0.5,0.1,1.1,0,1.4-0.5c1.2-1.7,2.5-3.4,3.6-5.1c0.5-0.7,1.1-1.1,1.9-1.2
				c1.3-0.2,2.5-0.6,3.7-1.2c0.2-0.1,0.5-0.2,0.8,0c0.4,0.2,0.8,0.2,1.3,0.2c-0.1,0.5,0.2,0.8,0.4,1.1c0.1,0.1,0.2,0.3,0.1,0.3
				c-0.3,0.5,0.1,1,0.2,1.5c0,0.1,0.2,0.2,0.3,0.3c0.3,0.2,0.5,0.3,0.8,0.5c0.4,0.2,0.6,0.6,0.6,1c0,0.2,0.2,0.4,0.4,0.5
				c0.5,0.2,0.7,0.5,0.8,0.9c0.1,0.2,0.2,0.4,0.4,0.4c1.2,0.5,2.4,0.9,3.6,1.3c0.4,0.1,0.8,0.2,1.1,0.3c0.1,0,0.3,0.1,0.4,0.2
				c0.1,0.5,0.6,0.5,0.9,0.7c0.5,0.2,0.9,0.3,1,0.9c0,0.1,0.2,0.2,0.4,0.3c0.5,0.2,0.9,0.3,1.4,0.5c0.1,0.1,0.2,0.2,0.3,0.3
				c0.2,0.2,0.3,0.5,0.5,0.7c1,0.6,2,1.1,3.1,1c0.2,0,0.3-0.1,0.5-0.1c0,0.2,0,0.3,0,0.5c0.1,0,0.3,0,0.4,0.1c0,0.1-0.1,0.3-0.1,0.4
				c0.2,0.3,0.7,0.3,1.4-0.1c-0.1,0.3-0.1,0.5,0.3,0.5c0.5,0,0.7,0.1,0.7,0.6c0,0.5,0.4,0.7,0.7,0.9c0.2,0.1,0.6-0.1,0.8-0.2
				c0.2-0.1,0.4-0.4,0.7-0.6c0.1,0.6-0.3,0.9-0.6,1.3c0.2,0.1,0.3,0.3,0.5,0.3c0.4,0.1,0.8,0.1,0.8,0.7c0,0,0.4,0.1,0.5,0
				c0.5-0.2,1-0.2,1.2,0.4c0.3,0.8,1.1,1.1,1.5,1.8c0.1,0.1,0.3,0.2,0.5,0.3c-0.1,0-0.1,0.1-0.2,0.1c-0.3,0.2-0.2,0.3,0.1,0.4
				c0.7,0.2,1.4,0.6,2.3,0.4c0.1,0,0.3,0.1,0.4,0.2c0.3,0.7,0.8,1.2,1.6,1.5c0.1,0,0.2,0.2,0.3,0.4c0.2,0.5,0.2,1,0.4,1.5
				c0.1,0.3,0.4,0.5,0.5,0.8c0.1,0.2,0.3,0.4,0.5,0.6c0.5,0.4,1.1,0.3,1.7,0.2c0.2,0,0.5-0.2,0.7-0.2c0.2,0,0.4,0,0.5,0.1
				c0.4,0.3,0.8,0.7,1.2,1c0,0,0.1,0.1,0.1,0.1c0.2,1,1.2,1.2,1.8,1.8c0.2,0.3,0.4,0.6,0.6,0.9c0.1,0.1,0.3,0.2,0.4,0.3
				c0.1,0.1,0.3,0.2,0.4,0.4c0.4,1.1,1,2.2,2,3c0.5,0.4,0.9,0.8,1.6,1c0.3,0.1,0.6,0.6,0.8,0.9c0.6,0.7,1.1,1.5,1.7,2.1
				c0.4,0.5,1,0.9,1.7,0.7c0.1,0,0.2,0,0.3,0.1c0.1,0.1,0.2,0.3,0.3,0.4c0.3,1.3,1.3,2,2.1,3c0,0,0.1,0.1,0.1,0.1
				c0.4,0,0.8,0.2,1.1,0.5c0.1,0.1,0.3,0.1,0.3,0c0.4-0.3,0.6,0.1,0.7,0.4c0.1,0.1,0.1,0.2,0.1,0.4c0.2,1.1,0.9,1.9,1.4,2.7
				c0.5,0.7,1.1,1.4,1.6,2c0.2,0.2,0.4,0.4,0.8,0.7c0.2-0.4,0.4-0.8,0.6-1.3c0.2,0.4,0.4,0.8,0.6,1.2c0.7,1.1,1.3,2.3,2,3.3
				c0.3,0.4,0.7,0.8,1.1,1.1c0.1,0.1,0.5-0.1,0.5-0.2c0.1-0.3,0.2-0.7,0.2-1c-0.1-1.4-0.3-2.7-0.4-4.1c0-0.1,0-0.2,0-0.4
				c0.3,0.7,0.6,1.3,0.9,2c0.4,0.9,0.7,1.8,1,2.7c0.8,2.1,1.9,4.1,3,6.1c0.1,0.3,0.4,0.5,0.6,0.7c0,0,0.3,0,0.3-0.1
				c0.1-0.2,0.1-0.5,0.1-0.8c0.1-1.7-0.2-3.4-0.6-5c-0.5-2.2-1.2-4.5-1.8-6.7c-0.1-0.3-0.1-0.5-0.1-0.8c0.3,0.7,0.6,1.5,1,2.2
				c1.1,2.3,2.1,4.7,3.2,6.9c0.6,1.3,1.4,2.6,2.4,3.7c0.5,0.5,1,1,1.5,1.6c0.3-0.3,0.4-0.6,0.3-1c-0.2-0.8-0.3-1.7-0.6-2.5
				c-0.9-2.5-1.8-5-2.8-7.4c-0.8-1.9-1.6-3.9-2.4-5.8c0-0.1,0-0.1,0-0.2c0.2,0.3,0.3,0.7,0.5,1c1.6,3.2,3.3,6.3,5.3,9.2
				c0.9,1.3,2,2.5,3.4,3.3c0.4,0.2,0.8,0.5,1.2,0.8c0,0,0.1,0,0.1-0.1c-0.1-0.2-0.1-0.5-0.2-0.7c-1.1-2-2.2-4-3.3-6
				c-1.6-2.7-3.2-5.4-4.7-8.1c-1.1-1.9-2.2-3.8-3.3-5.6c-0.1-0.1-0.1-0.2-0.1-0.3c0.3,0.5,0.6,0.9,1,1.4c0.6,0.8,1.2,1.7,1.9,2.4
				c1,1.1,2,2.1,3,3.2c0.4,0.5,1,0.8,1.5,1.2c1.3,1,2.7,1.7,4.3,2c0.4,0.1,0.9,0.2,1.3,0.3c0.1,0,0.3,0,0.4,0
				c-0.1-0.1-0.1-0.3-0.2-0.4C986.4,371.8,986,371.5,985.6,371.2z M925.3,318.2c-0.2-0.3-0.4-0.4-0.5-0.6c0-0.3,0.4-0.5,0.9-0.4
				C925.6,317.5,925.5,317.8,925.3,318.2z"/>
		</g>
	</g>
</g>
<g id="bird9">
	<g>
		
			<linearGradient id="SVGID_1_" gradientUnits="userSpaceOnUse" x1="-47.5565" y1="839.9898" x2="-45.8655" y2="839.9898" gradientTransform="matrix(0.5177 1.6901 1.6901 -0.5177 -961.9932 553.4787)">
			<stop  offset="0" style="stop-color:#FCA221"/>
			<stop  offset="0.2433" style="stop-color:#F9A021"/>
			<stop  offset="0.3962" style="stop-color:#F19822"/>
			<stop  offset="0.5241" style="stop-color:#E28A23"/>
			<stop  offset="0.6383" style="stop-color:#CD7824"/>
			<stop  offset="0.7433" style="stop-color:#B35F26"/>
			<stop  offset="0.8416" style="stop-color:#924128"/>
			<stop  offset="0.9329" style="stop-color:#6B1E2B"/>
			<stop  offset="1" style="stop-color:#4A002D"/>
		</linearGradient>
		<path class="st8" d="M434.8,39.6c-0.7,0.5-1.4,1.1-1.9,1.8c-0.2-1-0.5-2.1-0.7-2.9L434.8,39.6z"/>
		<path class="st9" d="M458.9,54.5c-2,2.3-4.2,3.4-6.6,3.4c2.2-1,4.1-2.6,5.4-4.8l3.6-6c1.4-2.4,3.6-4,6.3-4.7
			c2.7-0.7,5.4-0.3,7.8,1.1c1.7,1,3.7,2.1,5.8,3.2c-1.9,0.7-4.3,1-7.2-0.2c-1.8-0.8-3.7-0.9-5.6-0.4C466.4,46.7,464.6,48,458.9,54.5
			z"/>
		<path class="st10" d="M438.8,42.6c0.7-0.2,1.4-0.1,2,0.2c0.1,0.1,0.2,0.1,0.4,0.2l-0.2,0.6c-0.1-0.1-0.3-0.2-0.4-0.3
			c-0.4-0.2-1-0.1-1.3,0.3c-0.2,0.4,0,1,0.4,1.2c0.3,0.2,0.6,0.6,0.4,1.2c-0.2,0.5-0.6,0.9-1.1,1c-0.9,0.2-1.8-0.4-2.1-1.3
			c-0.4-1.3,0.3-2.8,1.7-3.2C438.7,42.6,438.7,42.6,438.8,42.6z"/>
		<path class="st3" d="M488.4,94.8L479,85c-5.3-5.6-12.1-9.5-19.6-11.3c-3.2-0.8-5.8-1.5-8.3-2.3l-0.5-0.2
			c-7.7-2.5-13.7-8.1-16-14.8c-1.7-5-2.4-8.1-2.1-10.1c0.3-2.5,1.9-4.7,4-5.8l1.1,0.7c-2,0.8-3.1,3.1-2.5,5.2c0.5,1.7,2.3,2.8,4,2.5
			c1.2-0.2,2.1-1,2.4-2.2c0.3-1.1,0-2.3-0.8-2.9l0.2-0.6c1.2,0.8,1.9,2,1.9,3.5c0,1.5-0.7,2.9-2,3.8L440,51
			c-0.2,0.1-0.3,0.3-0.4,0.6c0,0,0,0.3-0.1,0.6c-0.1,2.9,1.7,5.4,4.5,6.2l0.1,0c1.5,0.4,2.9,0.6,4.4,0.4c4.4,1.6,8.5,0.5,11.8-3.3
			c5.4-6.2,7-7.5,8.6-7.9c1.4-0.4,3-0.3,4.4,0.3c4.2,1.8,7.6,0.9,9.9-0.4c4.1,2,8.9,3.9,14,5.1c-8.8,2.4-16,3.1-22.5,3.6
			c-5.2,0.4-7,3-9.2,6.1c-0.5,0.7-1,1.4-1.6,2.2c-3.8,4.9-11,5.8-16,2c-0.4-0.3-0.9-0.2-1.2,0.2c-0.3,0.4-0.2,0.9,0.2,1.2
			c5.7,4.4,14,3.4,18.4-2.3c0.6-0.8,1.1-1.5,1.6-2.2c0.3-0.4,0.5-0.7,0.8-1.1c8.3,5.2,17.8,5.3,29.6,5c-6.6,1.8-13.2,2.2-15.9,2.3
			c-0.8,0-1.6,0-2.3-0.1l-2.7-0.3c-0.5-0.1-0.9,0.3-1,0.7c0,0.1,0,0.3,0,0.4c0.1,0.3,0.4,0.6,0.7,0.6l2.5,0.3
			c-0.2,0.4-0.5,0.9-0.8,1.4l-4.3-1.9c-0.4-0.2-0.9,0-1.1,0.4c-0.1,0.2-0.1,0.4,0,0.6c0.1,0.2,0.2,0.4,0.5,0.5l4.2,1.8
			c-0.2,0.5-0.4,0.9-0.6,1.3l-1.9-1.4c-0.4-0.3-0.9-0.2-1.2,0.1c-0.2,0.2-0.3,0.6-0.2,0.8c0.1,0.2,0.2,0.3,0.3,0.4l1.9,1.4
			c0.7,0.5,1.3,1,1.9,1.6C484.1,85.6,487.1,91.4,488.4,94.8z"/>
		<path class="st11" d="M453.8,55c-2.5,2-6,2.8-9.2,1.8l-0.1,0c-2-0.6-3.4-2.4-3.3-4.5c0,0,0,0,0-0.1l0.7-0.5
			c1.8-1.1,2.9-3.1,2.9-5.2c0-2.2-1.2-4.2-3.1-5.2l-2.9-1.6c3.4-0.6,6.9,1.4,8.1,4.7c1.1,2.9,0.3,6.3-2.1,8.3
			c-0.4,0.3-0.4,0.9-0.1,1.2c0.3,0.4,0.9,0.4,1.2,0.1c1-0.9,1.8-2,2.4-3.2C449.6,52,451.6,53.8,453.8,55z"/>
		<path class="st12" d="M456.2,52.3c-0.3,0.5-0.7,1-1,1.5c-2.7-1.2-5.2-3.8-6.1-4.7c0.4-1.7,0.2-3.5-0.4-5.2c-1.2-3.1-4-5.3-7.1-5.8
			c-0.9-3.6,0.3-7.5,3.1-10c4.5-4.1,10.6-10.4,15.2-18.1c-0.4,7.8-2.1,13.8-3.6,19.2c-0.3,1-0.5,1.9-0.8,2.8
			c-0.1,0.2-0.2,0.5-0.2,0.9c-1,3.5-3.4,11.6,3.1,16L456.2,52.3z"/>
		<path class="st13" d="M490.5,98.7c-0.3,0.2-0.7,0.1-1-0.2l-11.7-12.3c-5.1-5.3-11.6-9.1-18.7-10.8c-3.3-0.8-5.9-1.5-8.4-2.4
			l-0.5-0.2c-8.2-2.7-14.6-8.6-17.1-15.9c-0.3-1-0.6-1.9-0.9-2.8c-1.1-3.7-1.5-6.2-1.3-8.1c0.1-0.8,0.3-1.7,0.6-2.4
			c-0.4-1.8-1.4-6.3-1.4-6.4c-0.1-0.4,0.1-0.8,0.5-1c0.2-0.1,0.5-0.1,0.7,0l5.4,2.3c0.4-0.2,0.8-0.3,1.3-0.4
			c0.6-0.1,1.2-0.2,1.7-0.2c-0.8-4.1,0.6-8.4,3.7-11.2c5-4.6,12-11.9,16.5-20.7c0.2-0.4,0.6-0.5,1-0.4c0.4,0.1,0.7,0.4,0.7,0.8
			c0,9.8-2,16.9-3.8,23.1c-0.3,1-0.5,1.9-0.8,2.8c-0.1,0.3-0.2,0.6-0.3,0.9c-1,3.4-3.1,10.3,2.3,14l0.6-1.1c1.6-2.8,4.2-4.7,7.3-5.5
			c3.1-0.8,6.3-0.3,9.1,1.3c5.8,3.5,14.8,8,24.6,9.8c0.5,0.1,0.8,0.5,0.7,1c-0.1,0.3-0.3,0.6-0.6,0.7c-10.5,3.2-18.7,4-26.1,4.6
			c-3,0.2-4.6,1.3-6,2.9c8.4,5.2,18.3,4.9,30.8,4.5c1.1,0,2.3-0.1,3.5-0.1c0.4,0,0.8,0.3,0.9,0.7c0.1,0.4-0.1,0.8-0.5,1
			c-9.4,3.9-20.5,4.2-22.9,4.2c-1,1.6-2.3,4-2.7,5.2C490,88.8,491,97.4,491,97.8C491,98.2,490.8,98.5,490.5,98.7z M479,85l9.4,9.8
			c-1.3-3.4-4.2-9.2-11.3-16.4c-0.6-0.6-1.2-1.1-1.9-1.6l-1.9-1.4c-0.2-0.1-0.3-0.3-0.3-0.4c-0.1-0.3,0-0.6,0.2-0.8
			c0.3-0.3,0.8-0.4,1.2-0.1l1.9,1.4c0.2-0.4,0.4-0.9,0.6-1.3l-4.2-1.8c-0.2-0.1-0.4-0.3-0.5-0.5c-0.1-0.2-0.1-0.4,0-0.6
			c0.2-0.4,0.7-0.6,1.1-0.4l4.3,1.9c0.3-0.5,0.6-1,0.8-1.4l-2.5-0.3c-0.4,0-0.6-0.3-0.7-0.6c0-0.1,0-0.2,0-0.4
			c0.1-0.5,0.5-0.8,1-0.7l2.7,0.3c0.8,0.1,1.6,0.1,2.3,0.1c2.7-0.1,9.3-0.5,15.9-2.3c-11.8,0.3-21.3,0.2-29.6-5
			c-0.2,0.3-0.5,0.7-0.8,1.1c-0.5,0.7-1,1.5-1.6,2.2c-4.4,5.7-12.7,6.7-18.4,2.3c-0.4-0.3-0.4-0.8-0.2-1.2c0.3-0.4,0.8-0.4,1.2-0.2
			c5,3.8,12.1,2.9,16-2c0.6-0.7,1.1-1.5,1.6-2.2c2.1-3,4-5.7,9.2-6.1c6.6-0.5,13.7-1.2,22.5-3.6c-5.1-1.3-9.8-3.1-14-5.1
			c-2.3,1.2-5.7,2.1-9.9,0.4c-1.4-0.6-3-0.7-4.4-0.3c-1.6,0.5-3.2,1.7-8.6,7.9c-3.3,3.8-7.3,4.9-11.8,3.3c-1.4,0.1-2.9,0-4.4-0.4
			l-0.1,0c-2.8-0.8-4.6-3.4-4.5-6.2c0-0.4,0.1-0.6,0.1-0.6c0-0.2,0.2-0.4,0.4-0.6l1.1-0.7c1.3-0.8,2-2.2,2-3.8
			c0-1.4-0.7-2.7-1.9-3.5c-0.1-0.1-0.2-0.2-0.4-0.2c-0.6-0.3-1.3-0.4-2-0.2c-0.1,0-0.1,0-0.2,0c-1.3,0.4-2.1,1.8-1.7,3.2
			c0.3,0.9,1.2,1.4,2.1,1.3c0.5-0.1,0.9-0.5,1.1-1c0.2-0.7-0.1-1.1-0.4-1.2c-0.4-0.2-0.6-0.7-0.4-1.2c0.2-0.5,0.8-0.6,1.3-0.3
			c0.2,0.1,0.3,0.2,0.4,0.3c0.8,0.7,1.2,1.8,0.8,2.9c-0.3,1.2-1.3,2-2.4,2.2c-1.8,0.3-3.5-0.8-4-2.5c-0.7-2.1,0.5-4.4,2.5-5.2
			l-1.1-0.7c-2.2,1.1-3.7,3.3-4,5.8c-0.2,2,0.4,5.2,2.1,10.1c2.3,6.8,8.3,12.3,16,14.8l0.5,0.2c2.4,0.8,5,1.5,8.3,2.3
			C466.9,75.5,473.7,79.4,479,85z M452.3,57.9c2.4,0,4.7-1.1,6.6-3.4c5.7-6.6,7.4-7.9,9.4-8.5c1.8-0.5,3.8-0.4,5.6,0.4
			c2.9,1.2,5.4,0.9,7.2,0.2c-2.2-1.1-4.1-2.2-5.8-3.2c-2.4-1.4-5.1-1.8-7.8-1.1c-2.7,0.7-4.9,2.4-6.3,4.7l-3.6,6
			C456.4,55.3,454.5,57,452.3,57.9z M444.6,56.8c3.3,1,6.7,0.2,9.2-1.8c-2.2-1.2-4.2-3-5.4-4.1c-0.5,1.2-1.3,2.3-2.4,3.2
			c-0.4,0.3-0.9,0.3-1.2-0.1c-0.3-0.4-0.3-0.9,0.1-1.2c2.4-2.1,3.2-5.4,2.1-8.3c-1.3-3.3-4.7-5.2-8.1-4.7l2.9,1.6
			c1.9,1.1,3,3,3.1,5.2c0,2.1-1.1,4-2.9,5.2l-0.7,0.5c0,0,0,0,0,0.1C441.1,54.4,442.5,56.2,444.6,56.8L444.6,56.8z M455.1,53.7
			c0.4-0.5,0.7-0.9,1-1.5l2-3.5c-6.6-4.4-4.2-12.5-3.1-16c0.1-0.3,0.2-0.6,0.2-0.9c0.3-0.9,0.5-1.8,0.8-2.8
			c1.5-5.4,3.2-11.4,3.6-19.2c-4.6,7.7-10.7,14-15.2,18.1c-2.8,2.5-3.9,6.4-3.1,10c3.1,0.5,5.9,2.7,7.1,5.8c0.7,1.7,0.8,3.5,0.4,5.2
			C449.9,49.9,452.5,52.5,455.1,53.7z M432.8,41.4c0.5-0.7,1.2-1.3,1.9-1.8l-2.6-1.1C432.4,39.4,432.6,40.4,432.8,41.4z"/>
	</g>
</g>
<g id="bird10">
	<g>
		<path class="st14" d="M298.9,207.2c4.6,2.2,8.9,5.8,11.2,5.3c1.4-20.4,14.8-47.1,17.9-50.3c3.1-3.2-0.8,32.4,0.5,34.8
			c14.1-16.2,23.9-17.1,25-14.7c1.1,2.4-18.3,31.4-17.5,35.1c10.7,2,22.3,7.7,27.7,10.2c5.5,2.5,4.8,3.7,3.3,3.7
			c-1.5,0-5.6-0.3-5.6-0.3s13.1,8.4,8.6,8.1c-4.5-0.3-12.7-3.7-12.7-3.7s19,14.3,13.9,13c-5.1-1.4-12.8-6.6-12.8-6.6
			s15.8,12.4,10.7,10.8c-5.2-1.7-23.3-15.6-25.1-18.3c-18,4.9-29.5,2-35.8-6.4c-4-5.3-16.3-2.5-20.5-13.7
			c-2.2-0.7-20.4-2.9-20.4-2.9l19.7-0.9C286.9,210.3,290.6,203.3,298.9,207.2z"/>
	</g>
</g>
</svg>
