<?xml version="1.0" encoding="utf-8"?>
<!-- Generator: Adobe Illustrator 27.9.0, SVG Export Plug-In . SVG Version: 6.00 Build 0)  -->
<svg version="1.1" xmlns="http://www.w3.org/2000/svg" xmlns:xlink="http://www.w3.org/1999/xlink" x="0px" y="0px"
	 viewBox="0 0 209 453" style="enable-background:new 0 0 209 453;" xml:space="preserve">
<style type="text/css">
	.st0{fill:#FFFFFF;stroke:#12172A;stroke-width:2;stroke-miterlimit:10;}
	.st1{fill:#12172A;stroke:#FFFFFF;stroke-width:2;stroke-miterlimit:10;}
	.st2{fill:#FFFFFF;stroke:#12172A;stroke-miterlimit:10;}
</style>
<g id="Слой_1">
</g>
<g id="Слой_2">
	<g>
		<path class="st0" d="M141.4,448.1v-0.3c-3.1,0-6.3-0.5-8.9-2.4l-41.1-30.1l-41.1,30.1c-2.6,1.9-5.7,2.4-8.9,2.4L16,448
			c-6.4-0.1-12-3.6-12-9.1V22.1c0-10.1,11.2-18.3,25-18.3h150c13.8,0,25,8.2,25,18.3h-25v416.8c0,5.5-5.5,8.5-11.9,8.6l-25.6,0.3"/>
		<path class="st1" d="M132,445l-53.6-39.2L24.7,445c-7.9,5.8-21.4,1.7-21.4-6.5V22.1c0-10.1,11.2-18.3,25-18.3h150
			c-13.8,0-25,8.2-25,18.3v416.5C153.4,446.7,139.9,450.8,132,445z"/>
		<g>
			<path class="st2" d="M142.4,353c-14.2-3.5-17.4-22.5-31.9-27.5c-7.9-2.7-16.5-2.1-23.7,1.7c-4.4-11.9-8.1-24-11-36.1
				c7.7,8.1,16.7,15.4,28.5,15.5c12.1,0.1,22.4-7.7,34.4-8.6c4.2-0.3,3.1-6-0.3-6.7c-9.3-1.9-17.9-20-28.6-21.1
				c4.3-9.8,5.1-21.3,6.1-31.9c0.3-2.9-3.7-4.3-5.3-1.9c-9.5,13.7-41.4,21.4-37.3,42.3c-3.6-18.9-5.4-37.9-5.2-57.1
				c8.7,5.8,20.2,4.6,29.1-1.6c14-9.9,16.3-28.7,17.9-44.4c0.3-2.6-2.9-4-4.8-2.5c-10.1,8-23.6,9.3-33.2,18.3
				c-3.4,3.2-6.1,6.8-8.2,10.7c1.4-17.2,4.2-34.4,8.7-51.7c0.1,0,0.1,0,0.2,0c3.8,9.9,16.4,14.1,26.6,10.6
				c16.4-5.6,22.7-23.7,27.3-38.7c0.7-2.5-2.5-5.5-4.6-3.2c-9.2,10.1-33,6.7-44.6,14.8c0.7-2.3,1.6-4.6,2.4-6.9c1.4,0,2.8-1.1,2-2.8
				c-0.2-0.4-0.4-0.8-0.6-1.2c0.4-1.2,0.8-2.4,1.2-3.5c0.1,0,0.1,0,0.2,0c0.4-0.1,0.7-0.2,1.1-0.3c0.9,1,2.6,0.8,3.1-0.5
				c0.1-0.2,0.1-0.3,0.1-0.5c23.2-8.3,30.4-35.1,17-55.8c-0.7-1.1-2.5-1.3-3.6-0.8c-10,4.7-21.1,14.7-26,25.8
				c-4-7.2-11-12.7-18-16.8c-2.8-1.7-5.8,0.4-5.6,3.6c1,14.1-3.9,29.8,3.5,42.8c4,7,11.5,12.8,19.6,12c-3.3,8.3-6.2,16.8-8.6,25.4
				c-4.4-12.8-16.2-24.2-27.5-28.6c-2.3-0.9-5.4,1.4-4.6,3.9c2.7,8.8,1.4,18.6,2,28c-6.3,2.9-13,4.1-20.1,4.1c-2.2,0-4,1.7-3.6,4
				c3.2,21.2,28.2,36.5,46.6,23.8c-1.5,11-2.4,22.1-2.7,33.2c-5-12.2-13.6-22.5-27-26.9c-2.8-0.9-5.5,1.4-5,4.3
				c2.3,14.6-1.5,28.4,8.3,41c6.2,7.9,15.1,12.6,24.8,13.3c1,10.6,2.5,21.1,4.7,31.4c-10.8-14.3-26.3-23.3-44.6-25.9
				c-2.6-0.4-4.5,2.2-4.1,4.6c3.7,26.4,27.1,45,53,38.8c3,10.9,6.7,21.6,11.2,32c-14.8-10-37.2,10.6-48.4,18.8
				c-2.6,1.9-1.4,5.7,1.2,6.8c11.2,4.8,24.2,10,36.3,5.7c9-3.2,16.3-11.2,15.6-20.9c6.5,13.5,14.2,26.3,23.1,38.1
				c1.4,1.9,4.7-0.2,3.5-2.2c-7.6-13.1-14.3-26.4-20-39.8c13.9,12.7,31.6,26.2,50,16.2C144.5,357.1,144.9,353.6,142.4,353z M63,80.1
				c5.4,3.8,9.5,8.5,14.3,13.2c-1.6,7.4,0.1,15,7.3,21.6c-0.3,0.4-0.4,0.9-0.5,1.3c-0.3,0.6-0.6,1.3-0.8,1.9
				c-1.4-2.1-2.9-4.3-4.1-6.5c-2.4-4.3-4.5-8.7-6.5-13.2c-0.7-1.7-3.6-0.8-3.1,1c2.2,8,5.5,17.7,11.1,24.3c-0.2,0.4-0.4,0.9-0.6,1.3
				C60.2,121.1,63.1,97.4,63,80.1z M94.8,102.7c1.4-4.8,3.6-9.1,4.4-14.1c0.1-0.8-0.8-1.1-1.4-0.7c-6.1,4-10.8,14.4-11,23.2
				c-6.4-18.1,4.4-32.1,18.8-42.5c9.8,15.5,3,34.1-12.2,42.1C93.8,108,94.1,105.2,94.8,102.7z M112.7,133.4
				c3.9-0.6,7.5-1.7,10.7-3.5c-2.6,7.9-6.1,15.6-12.8,20.7c-10.2,7.8-24,5.4-28.3-7.3c-0.1-0.2-0.1-0.3-0.2-0.4
				c9,2.7,19.9,2.2,27.2-4.2c2.1-1.8,0-5-2.5-4c-6.8,2.6-13.3,4.3-20.4,3.7C93.8,134.1,104.9,134.7,112.7,133.4z M23.7,168.4
				c6.2-0.7,11.6-2.8,16.7-6.3c0.7,4.6,2,8.9,4.9,12.9c1.3,1.8,3,3.4,4.9,4.6c-0.3-0.1-0.6-0.2-0.8-0.3c-4.3-1.7-8.3-4-12-6.8
				c-2-1.5-4,1.6-2.2,3.1c5.3,4.6,12.4,9.1,19.7,10.5C41.1,188.9,27.7,183.5,23.7,168.4z M64.6,176.6c-1.2-2.8-3.3-5.5-4.4-8.3
				c-1.9-4.7-2.8-9.5-2.9-14.5c0-1.4-2.1-1.6-2.2-0.2c-0.4,5.1-0.2,10.3,1.2,15.2c0.7,2.4,1.5,5.3,2.8,7.8
				c-11.2-3-11.6-27.5-13.2-41.6c6.6,3.7,11.9,9.2,15.2,16.2c3.8,7.8,3.5,15,4.1,23.2c-0.1,0.7-0.3,1.3-0.4,2
				C64.8,176.5,64.7,176.5,64.6,176.6z M91.8,190.2c5.8-2.9,11.5-4.9,16.7-8.2c-1,9-2.6,18.1-7.6,25.6c-5.7,8.6-17.3,13.6-26.6,9.4
				c8.7-3.2,17.7-9.1,21.8-17c1-1.9-1-4.1-2.9-2.7c-3.8,3-7,6.8-11,9.7c-3.7,2.7-7.7,4.9-11.8,6.9C74.4,203.6,81.3,195.4,91.8,190.2
				z M39.3,230.5c-3.4-7.7-2.6-16.4-3-24.8c13.8,7.1,19.1,21.7,24.1,36.1c0,0.4,0,0.9,0.1,1.3c-2.3-2.4-5-4.5-7-7.3
				c-3.5-4.9-5.7-10.3-6.8-16.2c-0.3-1.4-2.6-1.4-2.6,0.1c0.3,9.8,5.7,25.8,16.6,28.4c0,0,0,0.1,0,0.1
				C51.5,245.5,43.3,239.6,39.3,230.5z M101.1,282.7c2.1-1.9,3.8-4,5.3-6.2c9.7,1.8,14.3,10.4,21.2,16.4c-4.6,1.2-9,2.9-13.8,4.3
				c-10.9,3.3-19.5,0-27.6-5.4c3.6,0,7.3-0.1,10.9-0.2c4.2-0.1,8.6,0.1,12.6-0.9c2.4-0.6,2.3-4-0.2-4.3c-4.2-0.6-8.5,0.1-12.7,0.5
				c-0.6,0-1.2,0.1-1.8,0.1C97.1,285.9,99.2,284.4,101.1,282.7z M26.1,268.8c14.3,3.1,26.5,10.9,35.4,22.4
				c-6-3.4-12.1-6.4-17.7-10.6c-1.9-1.4-3.8,1.5-2.1,3c6.1,5.5,13.3,11.5,21.2,14.3C45.6,296.2,31.2,286,26.1,268.8z M79,283.6
				c0.2-0.2,0.3-0.5,0.4-0.8c6-2.4,15.9-6.8,17.8-13.3c0.3-1.1-0.7-2.1-1.8-1.7c-3,1.3-5,4.3-7.4,6.4c-2.7,2.4-5.7,4.4-8.9,6.2
				c-3-13.6,12.5-20.3,21.8-26.1c3.1-1.9,5.8-3.9,8.2-6.2C106.6,266.2,98.8,286.8,79,283.6z M61.8,360.5c-6.4,0.3-12.6-1.7-18.5-4.1
				c10-7.8,23.1-18.7,34.9-16c-2.1,1.2-4,2.6-6,3.8c-3.3,1.9-6.8,3.7-10.2,5.3c-1.4,0.6-0.7,3.1,0.8,2.6c3.8-1.1,7.5-2.4,11.1-4.2
				c1.9-0.9,3.9-2,5.7-3.2C78.8,353.9,70.9,360.1,61.8,360.5z M92.7,336.2c5.9,0.2,11.7,1.5,17.3,3.4c1.6,0.5,2.9-1.8,1.4-2.7
				c-6.9-4.2-14.6-5.2-22.5-3.9c-0.1-0.2-0.1-0.4-0.2-0.6c12.4-4.6,24.4-2,33,9.3c3.7,4.8,6.7,9.6,11.2,12.9
				C117.8,355.8,104.9,345.1,92.7,336.2z"/>
		</g>
	</g>
</g>
</svg>
