<?xml version="1.0" encoding="utf-8"?>
<!-- Generator: Adobe Illustrator 27.9.0, SVG Export Plug-In . SVG Version: 6.00 Build 0)  -->
<svg version="1.1" id="Слой_1" xmlns="http://www.w3.org/2000/svg" xmlns:xlink="http://www.w3.org/1999/xlink" x="0px" y="0px"
	 viewBox="0 0 377 516" style="enable-background:new 0 0 377 516;" xml:space="preserve">
<style type="text/css">
	.st0{fill:#FFFFFF;}
	.st1{fill:#E6E6E6;}
	.st2{fill:#FF0000;}
	.st3{fill:#C1272D;}
	.st4{fill:#0071BC;}
	.st5{fill:#0000FF;}
	.st6{fill:#009245;}
	.st7{fill:#006837;}
	.st8{fill:#FCEE21;}
	.st9{fill:#FBB03B;}
</style>
<g>
	<g>
		<path class="st0" d="M166,367.7c-2.4,0-4.7-0.6-6.7-1.8l-9.5-5.5c-3.1-1.8-5.4-4.7-6.3-8.2c-0.9-3.5-0.5-7.1,1.3-10.2L335.3,12
			c2.4-4.2,6.9-6.8,11.7-6.8c2.4,0,4.7,0.6,6.7,1.8l9.5,5.5c6.4,3.7,8.7,12,4.9,18.4L177.7,361C175.3,365.1,170.8,367.7,166,367.7z"
			/>
		<path class="st1" d="M347,6.8L347,6.8c2.1,0,4.2,0.6,6,1.6l9.5,5.5c2.8,1.6,4.8,4.2,5.6,7.3c0.8,3.1,0.4,6.3-1.2,9.1l-190.5,330
			c-2.1,3.7-6.1,6-10.4,6c-2.1,0-4.2-0.6-6-1.6l-9.5-5.5c-2.8-1.6-4.8-4.2-5.6-7.3c-0.8-3.1-0.4-6.3,1.2-9.1l190.5-330
			C338.7,9.1,342.7,6.8,347,6.8 M347,3.8c-5.2,0-10.2,2.7-13,7.5l-190.5,330c-4.1,7.2-1.7,16.3,5.5,20.5l9.5,5.5
			c2.4,1.4,4.9,2,7.5,2c5.2,0,10.2-2.7,13-7.5l190.5-330c4.1-7.2,1.7-16.3-5.5-20.5l-9.5-5.5C352.1,4.4,349.5,3.8,347,3.8L347,3.8z"
			/>
	</g>
	<g>
		<path class="st2" d="M31.1,449.3c-0.4,0-0.8,0-1.2-0.1l-11-0.9c-3.6-0.3-6.8-2-9.2-4.8c-2.3-2.8-3.4-6.3-3.1-9.9L39.5,54.1
			c0.6-6.9,6.5-12.3,13.4-12.3c0.4,0,0.8,0,1.2,0.1l11,0.9c3.6,0.3,6.8,2,9.2,4.8s3.4,6.3,3.1,9.9L44.5,436.9
			C43.9,443.8,38,449.3,31.1,449.3z"/>
		<path class="st3" d="M52.9,43.2L52.9,43.2c0.3,0,0.7,0,1.1,0l11,0.9c3.2,0.3,6.1,1.8,8.2,4.2c2.1,2.5,3,5.6,2.8,8.8L43,436.8
			c-0.5,6.1-5.8,11-11.9,11c-0.3,0-0.7,0-1.1,0l-11-0.9c-3.2-0.3-6.1-1.8-8.2-4.2c-2.1-2.5-3-5.6-2.8-8.8L41,54.2
			C41.5,48.1,46.8,43.2,52.9,43.2 M52.9,40.2c-7.7,0-14.3,5.9-14.9,13.7L5.1,433.5c-0.7,8.3,5.4,15.5,13.7,16.2l11,0.9
			c0.4,0,0.9,0.1,1.3,0.1c7.7,0,14.3-5.9,14.9-13.7L78.9,57.5c0.7-8.3-5.4-15.5-13.7-16.2l-11-0.9C53.8,40.3,53.4,40.2,52.9,40.2
			L52.9,40.2z"/>
	</g>
	<g>
		<path class="st4" d="M151.5,475.6c-6.8,0-12.5-5.1-13.4-11.8L91.3,98.8c-0.5-3.6,0.5-7.1,2.7-10c2.2-2.9,5.4-4.7,9-5.1l10.9-1.4
			c0.6-0.1,1.2-0.1,1.7-0.1c6.8,0,12.5,5.1,13.4,11.8L175.8,459c0.9,7.4-4.3,14.2-11.7,15.1l-10.9,1.4
			C152.7,475.6,152.1,475.6,151.5,475.6z"/>
		<path class="st5" d="M115.7,83.7c6,0,11.1,4.5,11.9,10.5l46.8,365.1c0.4,3.2-0.4,6.3-2.4,8.9c-2,2.5-4.8,4.2-8,4.6l-10.9,1.4
			c-0.5,0.1-1,0.1-1.5,0.1c-6,0-11.1-4.5-11.9-10.5L92.8,98.6c-0.4-3.2,0.4-6.3,2.4-8.9c2-2.5,4.8-4.2,8-4.6l10.9-1.4
			C114.6,83.7,115.2,83.7,115.7,83.7 M115.7,80.7c-0.6,0-1.3,0-1.9,0.1l-10.9,1.4c-8.2,1.1-14,8.6-13,16.8L136.7,464
			c1,7.6,7.4,13.1,14.9,13.1c0.6,0,1.3,0,1.9-0.1l10.9-1.4c8.2-1.1,14-8.6,13-16.8L130.5,93.8C129.6,86.2,123.1,80.7,115.7,80.7
			L115.7,80.7z"/>
	</g>
	<g>
		<path class="st6" d="M217,510.5c-7.4,0-13.5-6.1-13.5-13.5V116c0-7.4,6.1-13.5,13.5-13.5h11c7.4,0,13.5,6.1,13.5,13.5v381
			c0,7.4-6.1,13.5-13.5,13.5H217z"/>
		<path class="st7" d="M228,104c6.6,0,12,5.4,12,12v381c0,6.6-5.4,12-12,12h-11c-6.6,0-12-5.4-12-12V116c0-6.6,5.4-12,12-12H228
			 M228,101h-11c-8.3,0-15,6.7-15,15v381c0,8.3,6.7,15,15,15h11c8.3,0,15-6.7,15-15V116C243,107.7,236.3,101,228,101L228,101z"/>
	</g>
	<g>
		<path class="st8" d="M298.4,465.7c-0.5,0-1.1,0-1.6-0.1l-10.9-1.3c-7.4-0.9-12.7-7.6-11.8-15l35.5-302c0.8-6.8,6.6-11.9,13.4-11.9
			c0.5,0,1.1,0,1.6,0.1l10.9,1.3c7.4,0.9,12.7,7.6,11.8,15l-35.5,302C311,460.5,305.3,465.7,298.4,465.7z"/>
		<path class="st9" d="M323,133.9v3c0.5,0,0.9,0,1.4,0.1l10.9,1.3c6.6,0.8,11.3,6.7,10.5,13.3l-35.5,302c-0.7,6-5.8,10.6-11.9,10.6
			c-0.5,0-0.9,0-1.4-0.1l-10.9-1.3c-6.6-0.8-11.3-6.7-10.5-13.3l35.5-302c0.7-6,5.8-10.6,11.9-10.6V133.9 M323,133.9
			c-7.5,0-14,5.6-14.9,13.3l-35.5,302c-1,8.2,4.9,15.7,13.1,16.6l10.9,1.3c0.6,0.1,1.2,0.1,1.8,0.1c7.5,0,14-5.6,14.9-13.3l35.5-302
			c1-8.2-4.9-15.7-13.1-16.6l-10.9-1.3C324.1,133.9,323.6,133.9,323,133.9L323,133.9z"/>
	</g>
</g>
</svg>
