<?xml version="1.0" encoding="utf-8"?>
<!-- Generator: Adobe Illustrator 27.9.0, SVG Export Plug-In . SVG Version: 6.00 Build 0)  -->
<svg version="1.1" id="Слой_1" xmlns="http://www.w3.org/2000/svg" xmlns:xlink="http://www.w3.org/1999/xlink" x="0px" y="0px"
	 viewBox="0 0 1920 1280" style="enable-background:new 0 0 1920 1280;" xml:space="preserve">
<style type="text/css">
	.st0{fill:#6B90B0;}
	.st1{fill:#3A587C;}
	.st2{fill:#253856;}
	.st3{fill:#17243F;}
	.st4{fill:#617D9B;}
	.st5{fill:#171B33;}
</style>
<path class="st0" d="M669.3,582.1c15.2,0.3,28.4-6.6,31.2-16.5c4,1.3,8.4,2,12.9,2.1c18.1,0.4,32.9-9.6,33.2-22.3
	c0-0.3,0-0.6-0.1-0.8c12.4-0.8,21.9-8.5,22.1-17.9c0.2-8.9-8.1-16.7-19.6-18.6c0-0.3,0.1-0.7,0.1-1c0.1-6.3-7.7-11.6-17.5-11.8
	c-4.3-0.1-8.4,0.8-11.6,2.5c-6.5-7.5-17.4-12.1-29.3-12.4c-7.2-0.1-14.3,1.4-20.3,4.3c-5.1-3.5-11.9-5.5-19-5.7
	c-9.4-0.2-18.2,2.9-23.5,8.3c-3.1-0.9-6.4-1.3-9.7-1.4c-16.3-0.3-29.7,8.8-30,20.4c0,1.5,0.2,3.1,0.6,4.6
	c-10.7,2.5-17.6,8.3-17.8,14.8c-0.2,9.3,13.3,17.1,30.1,17.4c0.1,0,0.1,0,0.2,0c0,0.1,0,0.2,0,0.3c-0.2,10,12,18.3,27.2,18.6
	c3.7,0.1,7.4-0.3,10.8-1.2C642.6,575.1,655,581.8,669.3,582.1L669.3,582.1z"/>
<path class="st1" d="M557.7,431.6c-18.7,1.8-33.6,14.6-35.3,30.2c-5.2-1.4-10.7-1.9-16.1-1.4c-22.3,2.2-38.7,19.9-36.8,39.5
	c0.1,0.5,0.1,0.9,0.2,1.3c-15,3.1-25.4,16.4-24,31c1.3,13.9,12.8,24.7,27.3,25.8c0,0.5,0,1,0.1,1.6c0.9,9.8,11.5,16.7,23.6,15.6
	c5.2-0.5,10.1-2.5,13.8-5.6c9.3,10.6,23.5,16.1,38.1,14.7c8.9-0.9,17.3-4.3,24.1-9.7c6.9,4.6,15.6,6.7,24.3,5.9
	c11.5-1.1,21.8-7.3,27.4-16.5c3.9,0.9,8.1,1.1,12.1,0.7c20.1-2,34.9-18.1,33.2-36.1c-0.3-2.4-0.8-4.7-1.6-7
	c12.7-5.5,20.1-15.5,19.2-25.6c-1.4-14.4-19.3-24.4-39.9-22.4c-0.1,0-0.2,0-0.2,0c0-0.1,0-0.3,0-0.4c-1.5-15.5-17.9-26.5-36.6-24.7
	c-4.6,0.4-9,1.6-13,3.5C591.7,438.4,575.3,429.9,557.7,431.6L557.7,431.6z"/>
<path class="st2" d="M487.7,444.5c-14.9-6.8-31.6-3.6-39.7,7.4c-3.3-3.3-7.2-6.1-11.6-8c-17.7-8-37.8-1.9-44.9,13.8
	c-0.1,0.4-0.3,0.7-0.4,1.1c-12.7-4.2-26.3,1.3-31.5,13c-5,11-1.1,24.2,9.4,31.3c-0.2,0.4-0.4,0.8-0.6,1.2c-3.5,7.8,1.4,17.6,11,22
	c4.2,1.9,8.7,2.5,12.8,1.8c2.4,12,10.7,22.4,22.3,27.6c7.1,3.2,14.9,4.3,22.4,3.2c3.2,6.5,8.8,11.8,15.7,15c9.2,4.2,19.6,4,27.8-0.5
	c2.6,2.4,5.6,4.3,8.8,5.8c15.9,7.2,34.2,1.5,40.7-12.8c0.8-1.9,1.5-3.9,1.8-6c11.9,1.3,21.9-3,25.6-10.9
	c5.2-11.4-3.9-26.8-20.3-34.2c-0.1,0-0.1-0.1-0.2-0.1c0-0.1,0.1-0.2,0.2-0.3c5.6-12.3-2-27.7-16.8-34.5c-3.6-1.7-7.5-2.7-11.3-3
	C510.4,464.3,501.7,450.9,487.7,444.5L487.7,444.5z"/>
<path class="st3" d="M287.3,567c18.8,7.6,39,4,47.8-8.5c4.3,3.7,9.4,6.8,14.9,9.1c22.4,9,46.3,2,53.4-15.7c0.1-0.4,0.3-0.8,0.4-1.2
	c15.9,4.7,31.9-1.6,37.2-14.8c5-12.5-1-27.3-14.5-35.4c0.2-0.4,0.5-0.9,0.7-1.4c3.5-8.8-3.4-19.9-15.5-24.8
	c-5.3-2.1-10.9-2.8-15.8-2c-4.1-13.6-15.2-25.2-29.9-31.2c-8.9-3.6-18.6-4.8-27.6-3.5c-4.5-7.3-11.9-13.4-20.7-16.9
	c-11.6-4.7-24.3-4.5-33.9,0.6c-3.4-2.7-7.3-4.9-11.3-6.5c-20.2-8.1-41.8-1.6-48.4,14.6c-0.8,2.1-1.4,4.4-1.7,6.8
	c-14.7-1.5-26.4,3.4-30.1,12.4c-5.2,12.9,7.4,30.2,28.1,38.6c0.1,0,0.2,0.1,0.3,0.1c0,0.1-0.1,0.2-0.2,0.4
	c-5.6,13.9,5.1,31.4,23.9,39c4.6,1.9,9.4,3,14.1,3.4C257.8,544.6,269.6,559.8,287.3,567L287.3,567z"/>
<path class="st2" d="M98.7,581.2c25.6,4.9,50.5-6.9,59.1-28c6.3,4,13.4,6.9,20.9,8.3c30.4,5.9,59.4-12.2,64.8-40.4
	c0.1-0.7,0.2-1.3,0.2-1.9c21.2,1.7,40.3-12.8,44.4-33.7c3.8-19.9-7-39.5-25.8-46.9c0.2-0.7,0.4-1.5,0.5-2.2
	c2.7-14-8.5-27.9-24.9-31.1c-7.1-1.4-14.4-0.6-20.6,2.3c-8-18.4-24.7-31.8-44.6-35.7c-12.1-2.3-24.6-0.9-35.9,3.9
	c-7.3-9.2-17.9-15.6-29.8-17.9c-15.8-3-31.9,1.4-43,12c-4.9-2.8-10.3-4.8-15.8-5.8c-27.4-5.3-53.6,11.3-58.6,37.1
	c-0.6,3.4-0.9,6.9-0.7,10.4c-19,2.7-33,13.6-35.8,28c-4,20.6,15.7,41.7,43.9,47.1c0.1,0,0.2,0,0.3,0.1c0,0.2-0.1,0.4-0.2,0.6
	c-4.3,22.2,13,44.1,38.5,49c6.2,1.2,12.6,1.3,18.7,0.3C56.5,558.3,74.7,576.6,98.7,581.2L98.7,581.2z"/>
<path class="st0" d="M473.6,365.7c-18,0-33.4,10.8-36.5,25.5c-4.8-1.8-10-2.8-15.3-2.8c-21.4,0-38.7,15.3-38.7,34.3
	c0,0.4,0,0.8,0.1,1.2c-14.6,1.5-25.7,13.3-25.7,27.4c0,13.3,9.9,24.7,23.6,27.1c0,0.5-0.1,1-0.1,1.5c0,9.4,9.4,17,21,17
	c5,0,9.9-1.4,13.7-4.1c7.9,10.9,20.9,17.5,35,17.5c8.5,0,16.9-2.5,23.9-7c6.2,5,14.2,7.9,22.6,7.9c11.1,0,21.5-4.9,27.6-13.1
	c3.7,1.2,7.6,1.8,11.5,1.8c19.3,0,35-14,35-31.4c0-2.3-0.3-4.6-0.9-6.8c12.6-4.1,20.6-12.9,20.7-22.6c0-13.8-16.1-25-36-25
	c-0.1,0-0.2,0-0.2,0c0-0.1,0-0.3,0-0.4c0-14.9-14.6-26.9-32.6-26.9c-4.4,0-8.7,0.7-12.7,2.2C505.3,375.2,490.5,365.7,473.6,365.7
	L473.6,365.7z"/>
<path class="st4" d="M379,275.8c-20.1,0-37.3,12-40.7,28.5c-5.4-2.1-11.2-3.1-17-3.1c-23.9,0-43.3,17.1-43.3,38.3
	c0,0.5,0,0.9,0.1,1.4c-16.3,1.7-28.7,14.9-28.7,30.6c0,14.9,11.1,27.6,26.4,30.3c0,0.5-0.1,1.1-0.1,1.7c0,10.5,10.5,19,23.5,19
	c5.6,0,11-1.6,15.3-4.6c8.8,12.2,23.4,19.6,39,19.6c9.5,0,18.8-2.8,26.7-7.9c6.9,5.6,15.9,8.8,25.3,8.8c12.4,0,24-5.5,30.9-14.7
	c4.1,1.3,8.5,2,12.8,2c21.6,0,39-15.7,39-35c0-2.5-0.4-5.1-1-7.6c14.1-4.6,23-14.5,23.1-25.3c0-15.4-18-28-40.2-28
	c-0.1,0-0.2,0-0.3,0c0-0.1,0-0.3,0-0.4c0-16.6-16.3-30.1-36.4-30.1c-4.9,0-9.7,0.8-14.2,2.4C414.5,286.6,398,275.8,379,275.8
	L379,275.8z"/>
<path class="st1" d="M251.8,509.6c24.3,6.9,49.2-1.7,59-20.4c5.8,4.3,12.4,7.6,19.5,9.6c28.9,8.2,58.2-5.8,65.4-31.3
	c0.1-0.6,0.3-1.1,0.4-1.7c20.3,3.6,39.8-8,45.2-27c5.1-18-3.9-37.2-21.5-45.7c0.2-0.6,0.5-1.3,0.7-2c3.6-12.7-6.2-26.6-21.8-31
	c-6.8-1.9-13.9-1.9-20,0.2c-6.4-17.8-21.5-31.7-40.4-37.1c-11.5-3.3-23.7-3.1-34.9,0.3c-6.4-9.2-16.1-16.1-27.5-19.3
	c-15-4.3-30.9-1.6-42.3,7.1c-4.5-3-9.5-5.3-14.8-6.8c-26-7.4-52.5,5.5-59.2,28.8c-0.8,3.1-1.3,6.3-1.4,9.6
	c-18.6,0.7-32.8,9.5-36.6,22.5c-5.3,18.6,12.1,40,38.9,47.6c0.1,0,0.2,0.1,0.3,0.1c0,0.2-0.2,0.4-0.2,0.5
	c-5.7,20.1,9.4,41.9,33.6,48.9c5.9,1.7,12,2.4,18,2C212.7,484.5,229,503.1,251.8,509.6L251.8,509.6z"/>
<path class="st2" d="M231.5,243.8c-21.7,0-40.2,13-43.9,30.7c-5.8-2.2-12.1-3.4-18.4-3.4c-25.8,0-46.6,18.5-46.6,41.3
	c0,0.5,0,1,0.1,1.5c-17.6,1.8-31,16-31,32.9c0,16.1,12,29.8,28.5,32.7c0,0.6-0.1,1.2-0.1,1.8c0,11.3,11.3,20.5,25.3,20.5
	c6.1,0,11.9-1.7,16.4-4.9c9.5,13.2,25.2,21.1,42.1,21.1c10.3,0,20.3-3,28.8-8.5c7.4,6.1,17.1,9.5,27.2,9.5
	c13.4,0,25.9-5.9,33.3-15.8c4.4,1.4,9.1,2.2,13.8,2.2c23.2,0,42.1-16.9,42.1-37.8c0-2.7-0.4-5.5-1.1-8.2c15.1-5,24.8-15.6,24.9-27.2
	c0-16.6-19.4-30.2-43.3-30.2c-0.1,0-0.2,0-0.3,0c0-0.1,0-0.3,0-0.5c0-17.9-17.6-32.4-39.2-32.4c-5.3,0-10.5,0.9-15.3,2.6
	C269.7,255.4,251.9,243.8,231.5,243.8L231.5,243.8z"/>
<path class="st5" d="M58.8,199.4c-29.2,0-54.2,17.5-59.2,41.4c-7.8-3-16.3-4.5-24.8-4.5c-34.7,0-62.9,24.9-62.9,55.6
	c0.1,0.7,0.1,1.4,0.1,2c-23.7,2.5-41.7,21.6-41.7,44.4c0,21.7,16.1,40.1,38.4,44c-0.1,0.8-0.1,1.6-0.1,2.5
	c0,15.2,15.3,27.6,34.1,27.6c8.2,0,16-2.3,22.2-6.6c12.8,17.8,34,28.5,56.7,28.5c13.9,0,27.4-4,38.8-11.4
	c10,8.2,23.1,12.8,36.7,12.8c18,0,34.9-8,44.9-21.3c6,1.9,12.3,2.9,18.6,2.9c31.3,0,56.7-22.8,56.7-50.9c-0.1-3.7-0.5-7.5-1.4-11.1
	c20.4-6.7,33.5-21,33.5-36.7c0-22.4-26.2-40.6-58.4-40.6c-0.1,0-0.3,0-0.4,0c0-0.2,0.1-0.5,0.1-0.6c0-24.2-23.7-43.7-52.9-43.7
	c-7.1,0-14.1,1.2-20.7,3.5C110.3,215,86.3,199.4,58.8,199.4L58.8,199.4z"/>
<path class="st3" d="M124.3,232c-26.9-7.5-54.5,2.1-65.2,22.9c-6.4-4.8-13.8-8.4-21.7-10.6c-32-9-64.4,6.7-72.3,35
	c-0.1,0.7-0.3,1.3-0.4,1.9c-22.5-3.9-44.1,9.1-49.9,30.1c-5.6,20,4.5,41.2,24,50.5c-0.3,0.7-0.5,1.5-0.8,2.2
	c-3.9,14,7,29.4,24.3,34.3c7.5,2.1,15.4,2,22.1-0.4c7.2,19.7,24,35,44.9,40.9c12.8,3.6,26.3,3.4,38.7-0.5
	c7.1,10.1,18,17.7,30.5,21.2c16.6,4.7,34.2,1.7,46.9-8.1c5,3.3,10.6,5.9,16.4,7.5c28.9,8.1,58.2-6.3,65.4-32.3
	c0.9-3.4,1.4-7,1.5-10.6c20.5-0.9,36.3-10.7,40.4-25.2c5.8-20.7-13.6-44.2-43.3-52.5c-0.1,0-0.2-0.1-0.4-0.1
	c0.1-0.2,0.2-0.4,0.2-0.6c6.2-22.3-10.6-46.4-37.5-53.9c-6.6-1.8-13.3-2.6-20-2.1C167.8,259.6,149.7,239.1,124.3,232L124.3,232z"/>
<path class="st1" d="M80.6,309.4c-14.7-7.5-31.7-5-40.3,5.7c-3.2-3.5-7-6.4-11.3-8.6c-17.5-8.9-38-3.5-45.8,11.9
	c-0.1,0.4-0.3,0.7-0.4,1c-12.6-4.8-26.5,0.2-32.3,11.7c-5.5,10.9-2.1,24.3,8.1,31.9c-0.2,0.4-0.5,0.8-0.7,1.2
	c-3.9,7.7,0.7,17.8,10.1,22.6c4.1,2.1,8.7,2.9,12.8,2.3c1.9,12.2,9.8,23,21.3,28.8c7,3.5,14.8,5,22.4,4.1
	c2.9,6.7,8.4,12.3,15.2,15.8c9.1,4.6,19.6,4.9,28,0.7c2.5,2.5,5.5,4.6,8.6,6.2c15.8,8,34.3,3,41.5-11.1c0.9-1.9,1.6-3.9,2.1-5.9
	c12,1.8,22.2-2,26.2-9.9c5.7-11.3-2.8-27.1-19-35.4c-0.1,0-0.1-0.1-0.2-0.1c0-0.1,0.1-0.2,0.2-0.3c6.2-12.2-0.8-28-15.5-35.5
	c-3.6-1.8-7.4-3-11.3-3.5C102.5,330.3,94.4,316.4,80.6,309.4L80.6,309.4z"/>
<path class="st4" d="M565.8,467.3c-16,0-29.6,6-32.3,14.3c-4.2-1-8.9-1.6-13.5-1.6c-19,0-34.3,8.6-34.3,19.1c0,0.2,0,0.5,0.1,0.7
	c-13,0.8-22.8,7.4-22.8,15.3c0,7.5,8.8,13.8,20.9,15.1c0,0.3-0.1,0.6-0.1,0.8c0,5.2,8.4,9.5,18.6,9.5c4.5,0,8.7-0.8,12.1-2.3
	c7,6.1,18.5,9.8,31,9.8c7.6,0,14.9-1.4,21.2-3.9c5.4,2.8,12.6,4.4,20,4.4c9.8,0,19-2.7,24.5-7.3c3.3,0.7,6.7,1,10.2,1
	c17.1,0,31-7.8,31-17.5c0-1.3-0.3-2.6-0.8-3.8c11.1-2.3,18.3-7.2,18.3-12.6c0-7.7-14.3-14-31.9-14c-0.1,0-0.1,0-0.2,0
	c0-0.1,0-0.2,0-0.2c0-8.3-13-15-28.9-15c-3.9,0-7.7,0.4-11.3,1.2C593.9,472.7,580.8,467.3,565.8,467.3L565.8,467.3z"/>
</svg>
