<?xml version="1.0" encoding="utf-8"?>
<!-- Generator: Adobe Illustrator 27.9.0, SVG Export Plug-In . SVG Version: 6.00 Build 0)  -->
<svg version="1.1" id="Слой_1" xmlns="http://www.w3.org/2000/svg" xmlns:xlink="http://www.w3.org/1999/xlink" x="0px" y="0px"
	 viewBox="0 0 1920 1280" style="enable-background:new 0 0 1920 1280;" xml:space="preserve">
<style type="text/css">
	.st0{display:none;}
	.st1{display:inline;fill:url(#SVGID_1_);stroke:#000000;stroke-miterlimit:10;}
	.st2{display:inline;fill:#E2F3FA;}
	.st3{display:inline;}
	.st4{fill:#E2F3FA;}
	.st5{fill:#CFCFD1;}
	.st6{fill:url(#SVGID_00000004540372312034007170000017293508280186186133_);}
	.st7{fill:#BAC4CD;}
	.st8{fill:#99A3AD;}
	.st9{fill:#DFDFDB;}
	.st10{fill:#AFB4B8;}
	.st11{fill:#5C7592;}
	.st12{fill:#171B33;}
	.st13{fill:#253856;}
	.st14{fill:#17243F;}
	.st15{fill:#527394;}
	.st16{fill:#617D9B;}
	.st17{fill:#6B90B0;}
	.st18{fill:#2F4A6F;}
	.st19{fill:#3B6188;}
	.st20{fill:#3A587C;}
	.st21{fill:#F8FAF9;}
	.st22{fill:#A4B5C7;}
	.st23{fill:#1B2F4E;}
	.st24{display:inline;fill:#6B90B0;}
	.st25{display:inline;fill:#3A587C;}
	.st26{display:inline;fill:#253856;}
	.st27{display:inline;fill:#17243F;}
	.st28{display:inline;fill:#617D9B;}
	.st29{display:inline;fill:#171B33;}
</style>
<g id="fon" class="st0">
	
		<linearGradient id="SVGID_1_" gradientUnits="userSpaceOnUse" x1="960.7" y1="-9.094947e-13" x2="960.7" y2="1279" gradientTransform="matrix(1 0 0 -1 0 1280)">
		<stop  offset="0" style="stop-color:#407FAE"/>
		<stop  offset="1" style="stop-color:#090E1B"/>
	</linearGradient>
	<rect x="1.4" y="1" class="st1" width="1918.6" height="1279"/>
</g>
<g id="stars" class="st0">
	<polygon class="st2" points="2278.4,442 2188.2,433 2177.6,523.1 2158.3,434.5 2069.4,452.3 2147.6,406.5 2103.3,327.4 2171,387.8 
		2232.5,321.1 2196,404.2 	"/>
	<polygon class="st2" points="2251.9,243.2 2170.5,155.8 2081.7,235.8 2139.6,131.3 2036.1,71.6 2153.4,94.4 2178.3,-22.5 
		2192.8,96.1 2311.6,83.6 2203.3,134.1 	"/>
	<polygon class="st2" points="2197,824.1 2122.9,795.1 2045.9,815.1 2050.7,735.7 2007.8,668.7 2084.8,648.7 2135.3,587.2 
		2178.2,654.2 2252.2,683.3 2201.7,744.7 	"/>
	<polygon class="st2" points="2163.2,1178.5 2113,1116.8 2036.1,1096.4 2079.3,1029.6 2075,950.2 2151.9,970.6 2226.1,941.9 
		2230.4,1021.4 2280.6,1083.1 2206.4,1111.7 	"/>
	<polygon class="st2" points="-146.1,263.5 -240.9,204.5 -322.8,280.4 -296,172 -393.5,117.6 -282.1,109.6 -260.5,0 -218.5,103.5 
		-107.6,90.2 -193,162.2 	"/>
	<polygon class="st2" points="-250.7,707.3 -282.5,600.2 -394.2,602.7 -302.2,539.4 -339.2,433.9 -250.4,501.8 -161.6,434.1 
		-198.7,539.5 -106.9,603 -218.6,600.3 	"/>
	<g class="st3">
		<polygon class="st4" points="127.7,113.2 123.7,110.6 120.1,113.9 121.3,109.2 117.1,106.9 121.9,106.6 122.8,101.9 124.6,106.3 
			129.4,105.7 125.7,108.8 		"/>
		<polygon class="st4" points="358.9,206.9 357.3,201.8 352,201.9 356.4,198.9 354.6,193.9 358.9,197.1 363.1,193.9 361.3,198.9 
			365.7,201.9 360.4,201.8 		"/>
		<polygon class="st4" points="189.4,203.3 187.5,202.7 185.4,203.3 185.6,201.3 184.6,199.7 186.7,199.1 188.1,197.5 189.1,199.1 
			191.1,199.7 189.6,201.3 		"/>
		<polygon class="st4" points="273.2,145.6 268.6,145.1 268.1,149.7 267.1,145.2 262.6,146.1 266.6,143.8 264.3,139.7 267.8,142.8 
			270.9,139.4 269,143.6 		"/>
		<polygon class="st4" points="233.9,101.9 232.9,100.6 231.3,100.1 232.2,98.8 232.1,97.1 233.7,97.5 235.2,96.9 235.3,98.6 
			236.3,99.9 234.8,100.5 		"/>
		<polygon class="st4" points="105.2,263.2 102.4,260.2 99.4,262.9 101.4,259.4 97.9,257.4 101.8,258.2 102.7,254.2 103.2,258.2 
			107.2,257.8 103.5,259.5 		"/>
	</g>
	<g class="st3">
		<polygon class="st4" points="502.4,613.6 505.6,617.1 509.9,615 507.5,619.1 510.9,622.5 506.2,621.5 504,625.8 503.5,621 
			498.8,620.3 503.2,618.3 		"/>
		<polygon class="st4" points="306.2,459.7 306.2,465 311.4,466.3 306.3,468 306.6,473.3 303.5,469.1 298.5,471 301.6,466.7 
			298.2,462.5 303.3,464.1 		"/>
		<polygon class="st4" points="468.1,509.9 469.7,511 471.9,511 471.1,512.9 471.7,514.7 469.5,514.7 467.7,515.9 467.1,514.1 
			465.4,512.9 467.3,511.8 		"/>
		<polygon class="st4" points="371.5,542.3 375.8,544 377.6,539.7 377.3,544.3 381.9,544.7 377.4,545.8 378.5,550.3 376,546.4 
			372.1,548.8 375,545.3 		"/>
		<polygon class="st4" points="397.3,595.1 397.9,596.6 399.3,597.5 398.1,598.6 397.7,600.2 396.3,599.4 394.6,599.5 395,597.9 
			394.4,596.4 396,596.2 		"/>
		<polygon class="st4" points="565.5,475.6 567.4,479.2 571,477.5 568.1,480.3 570.9,483.2 567.3,481.4 565.5,484.9 566.1,481 
			562.1,480.3 566.1,479.6 		"/>
	</g>
	<g class="st3">
		<polygon class="st4" points="598.8,223.8 595.2,226.9 597.2,231.3 593.1,228.8 589.7,232.1 590.7,227.4 586.5,225.1 591.3,224.7 
			592.2,220 594,224.4 		"/>
		<polygon class="st4" points="757,31 751.7,30.9 750.2,36 748.7,31 743.4,31.2 747.7,28.1 745.9,23.1 750.1,26.3 754.3,23 
			752.6,28 		"/>
		<polygon class="st4" points="703.2,191.7 702,193.4 702,195.6 700.2,194.7 698.3,195.2 698.4,193.1 697.2,191.2 699.1,190.7 
			700.2,189.1 701.4,190.9 		"/>
		<polygon class="st4" points="673,94.5 671.2,98.8 675.4,100.6 670.8,100.2 670.3,104.8 669.3,100.3 664.8,101.3 668.7,98.9 
			666.4,94.9 669.9,97.9 		"/>
		<polygon class="st4" points="619.6,119.1 618,119.7 617.2,121.1 616.1,119.8 614.5,119.4 615.4,118 615.3,116.4 616.9,116.8 
			618.4,116.1 618.5,117.8 		"/>
		<polygon class="st4" points="735.3,290 731.7,291.7 733.3,295.4 730.6,292.5 727.6,295.2 729.5,291.6 726,289.7 730,290.4 
			730.8,286.4 731.3,290.4 		"/>
	</g>
	<g class="st3">
		<polygon class="st4" points="1060.1,489.1 1059.1,484.4 1054.3,484.2 1058.4,481.8 1057.1,477.1 1060.7,480.3 1064.7,477.7 
			1062.8,482.1 1066.6,485.1 1061.8,484.6 		"/>
		<polygon class="st4" points="1155.5,719.5 1158.1,714.9 1154.3,711.2 1159.5,712.2 1161.9,707.4 1162.5,712.7 1167.8,713.4 
			1163,715.7 1163.9,720.9 1160.2,717.1 		"/>
		<polygon class="st4" points="1039.2,596.3 1038.3,594.5 1036.4,593.4 1038,592.2 1038.4,590.3 1040.3,591.4 1042.5,591.3 
			1042,593.1 1042.9,594.9 1040.8,595.1 		"/>
		<polygon class="st4" points="1139.2,615.5 1136.3,611.9 1132.6,614.7 1135.1,610.9 1131.3,608.3 1135.8,609.5 1137,605.1 
			1137.3,609.7 1141.9,609.5 1137.6,611.2 		"/>
		<polygon class="st4" points="1142.7,556.8 1142.9,555.2 1142.1,553.7 1143.7,553.4 1144.8,552.2 1145.6,553.6 1147.1,554.3 
			1146,555.5 1145.8,557.2 1144.3,556.5 		"/>
		<polygon class="st4" points="937.4,578.3 937.6,574.3 933.6,574 937.5,572.9 936.4,569 938.7,572.4 942.1,570.2 939.6,573.4 
			942.7,575.9 938.9,574.5 		"/>
	</g>
	<g class="st3">
		<polygon class="st4" points="1083.8,150.5 1079.8,147.9 1076.3,151.2 1077.4,146.5 1073.2,144.2 1078,143.8 1078.9,139.1 
			1080.7,143.6 1085.5,143 1081.8,146.1 		"/>
		<polygon class="st4" points="1315,244.2 1313.5,239.1 1308.1,239.2 1312.5,236.2 1310.8,231.2 1315,234.4 1319.2,231.2 
			1317.4,236.2 1321.8,239.2 1316.5,239.1 		"/>
		<polygon class="st4" points="1145.5,240.6 1143.6,240 1141.5,240.6 1141.7,238.6 1140.7,237 1142.8,236.4 1144.2,234.7 
			1145.3,236.4 1147.2,237 1145.7,238.6 		"/>
		<polygon class="st4" points="1229.4,182.9 1224.8,182.4 1224.2,187 1223.2,182.5 1218.7,183.4 1222.7,181 1220.4,177 
			1223.9,180.1 1227,176.7 1225.2,180.9 		"/>
		<polygon class="st4" points="1190,139.1 1189,137.9 1187.4,137.4 1188.3,136 1188.2,134.4 1189.8,134.8 1191.3,134.2 
			1191.4,135.9 1192.5,137.2 1190.9,137.8 		"/>
		<polygon class="st4" points="1061.3,300.5 1058.5,297.5 1055.5,300.2 1057.5,296.7 1054,294.7 1058,295.4 1058.8,291.5 
			1059.3,295.5 1063.3,295.1 1059.6,296.8 		"/>
	</g>
	<g class="st3">
		<polygon class="st4" points="1533.3,398.6 1530.5,394.7 1526,396.4 1528.9,392.5 1525.9,388.8 1530.4,390.3 1533.1,386.3 
			1533.1,391.1 1537.7,392.4 1533.1,393.8 		"/>
		<polygon class="st4" points="1711,573.6 1711.6,568.3 1706.6,566.4 1711.8,565.3 1712.1,560 1714.8,564.6 1719.9,563.2 
			1716.4,567.2 1719.2,571.6 1714.4,569.5 		"/>
		<polygon class="st4" points="1555.8,505.5 1554.3,504.2 1552.1,504 1553.1,502.2 1552.8,500.3 1554.9,500.6 1556.9,499.6 
			1557.2,501.5 1558.8,502.8 1556.8,503.7 		"/>
		<polygon class="st4" points="1655.4,484.2 1651.3,482 1649,486.1 1649.9,481.5 1645.3,480.6 1649.9,480 1649.4,475.4 
			1651.4,479.6 1655.6,477.6 1652.2,480.8 		"/>
		<polygon class="st4" points="1635.7,428.8 1635.3,427.2 1633.9,426.2 1635.3,425.2 1635.9,423.7 1637.2,424.7 1638.8,424.7 
			1638.3,426.3 1638.8,427.9 1637.1,427.8 		"/>
		<polygon class="st4" points="1455.1,528.6 1453.7,524.8 1449.9,526.2 1453,523.7 1450.6,520.5 1453.9,522.7 1456.2,519.4 
			1455.1,523.3 1459,524.4 1455,524.6 		"/>
	</g>
	<g class="st3">
		<polygon class="st4" points="36.3,775.2 32.2,772.7 28.7,776 29.8,771.3 25.7,769 30.4,768.6 31.4,763.9 33.2,768.4 37.9,767.8 
			34.3,770.9 		"/>
		<polygon class="st4" points="267.4,869 265.9,863.9 260.6,864 265,861 263.2,856 267.4,859.2 271.6,856 269.9,861 274.2,864 
			268.9,863.9 		"/>
		<polygon class="st4" points="97.9,865.4 96,864.8 93.9,865.4 94.2,863.4 93.2,861.8 95.2,861.1 96.7,859.5 97.7,861.1 99.6,861.7 
			98.2,863.4 		"/>
		<polygon class="st4" points="181.8,807.6 177.2,807.2 176.6,811.8 175.7,807.3 171.1,808.2 175.1,805.8 172.9,801.8 176.3,804.9 
			179.4,801.5 177.6,805.7 		"/>
		<polygon class="st4" points="142.4,763.9 141.4,762.6 139.8,762.2 140.7,760.8 140.6,759.2 142.2,759.6 143.8,759 143.8,760.7 
			144.9,761.9 143.3,762.5 		"/>
		<polygon class="st4" points="13.7,925.2 11,922.3 8,925 9.9,921.5 6.4,919.5 10.4,920.2 11.2,916.3 11.7,920.3 15.7,919.9 
			12.1,921.6 		"/>
	</g>
	<g class="st3">
		<polygon class="st4" points="777.6,923.5 780.1,927.6 784.7,926.2 781.7,929.9 784.4,933.8 780,932 777.1,935.9 777.4,931.1 
			772.8,929.5 777.5,928.3 		"/>
		<polygon class="st4" points="610,738.8 609.1,744.1 614,746.3 608.7,747.1 608.1,752.4 605.7,747.6 600.5,748.7 604.3,745 
			601.7,740.3 606.4,742.8 		"/>
		<polygon class="st4" points="761.1,815.6 762.6,817 764.7,817.3 763.6,819 763.9,820.9 761.7,820.6 759.7,821.4 759.5,819.5 
			758,818.1 760,817.3 		"/>
		<polygon class="st4" points="660.5,831.2 664.5,833.6 666.9,829.7 665.9,834.2 670.3,835.4 665.7,835.7 666,840.4 664.3,836.1 
			660,837.8 663.5,834.8 		"/>
		<polygon class="st4" points="677,887.7 677.4,889.3 678.6,890.4 677.2,891.2 676.6,892.8 675.3,891.7 673.7,891.5 674.3,890 
			673.9,888.4 675.6,888.5 		"/>
		<polygon class="st4" points="863,798.2 864.2,802 868,800.9 864.8,803.2 867,806.6 863.8,804.1 861.3,807.3 862.6,803.5 
			858.8,802.2 862.9,802.2 		"/>
	</g>
	<g class="st3">
		<polygon class="st4" points="1319.4,860.9 1318.9,856.1 1314.2,855.4 1318.6,853.4 1317.9,848.7 1321.1,852.3 1325.4,850.1 
			1323,854.3 1326.3,857.7 1321.6,856.7 		"/>
		<polygon class="st4" points="1386.2,1101.2 1389.3,1096.9 1386,1092.8 1391.1,1094.4 1394,1089.9 1394,1095.3 1399.1,1096.6 
			1394.1,1098.3 1394.3,1103.6 1391.2,1099.3 		"/>
		<polygon class="st4" points="1285.6,964.8 1284.9,962.9 1283.2,961.6 1284.9,960.6 1285.6,958.8 1287.3,960 1289.5,960.2 
			1288.8,962 1289.5,963.9 1287.4,963.7 		"/>
		<polygon class="st4" points="1382.5,996 1380.1,992 1376.1,994.4 1379.1,990.9 1375.6,987.8 1379.9,989.6 1381.7,985.3 
			1381.4,989.9 1386,990.3 1381.5,991.5 		"/>
		<polygon class="st4" points="1393.2,938.1 1393.5,936.5 1392.9,935 1394.6,934.8 1395.8,933.8 1396.5,935.3 1397.9,936.1 
			1396.6,937.2 1396.2,938.8 1394.8,938 		"/>
		<polygon class="st4" points="1186.8,934.6 1187.5,930.6 1183.5,929.9 1187.5,929.3 1187,925.3 1188.8,928.9 1192.4,927.1 
			1189.5,930 1192.3,932.9 1188.7,931 		"/>
	</g>
	<g class="st3">
		<polygon class="st4" points="829.2,1088.4 825.1,1085.9 821.6,1089.2 822.7,1084.5 818.5,1082.2 823.3,1081.8 824.3,1077.1 
			826.1,1081.6 830.8,1081 827.1,1084.1 		"/>
		<polygon class="st4" points="1060.3,1182.1 1058.8,1177 1053.5,1177.2 1057.8,1174.2 1056.1,1169.1 1060.3,1172.4 1064.5,1169.2 
			1062.8,1174.2 1067.1,1177.2 1061.8,1177.1 		"/>
		<polygon class="st4" points="890.8,1178.6 888.9,1177.9 886.8,1178.6 887.1,1176.6 886,1175 888.1,1174.3 889.6,1172.7 
			890.6,1174.3 892.5,1174.9 891.1,1176.6 		"/>
		<polygon class="st4" points="974.7,1120.8 970.1,1120.4 969.5,1124.9 968.5,1120.4 964,1121.3 968,1119 965.7,1115 969.2,1118.1 
			972.3,1114.7 970.5,1118.9 		"/>
		<polygon class="st4" points="935.3,1077.1 934.3,1075.8 932.7,1075.4 933.6,1074 933.5,1072.4 935.1,1072.8 936.6,1072.2 
			936.7,1073.8 937.8,1075.1 936.2,1075.7 		"/>
		<polygon class="st4" points="806.6,1238.4 803.8,1235.5 800.9,1238.2 802.8,1234.6 799.3,1232.6 803.3,1233.4 804.1,1229.5 
			804.6,1233.5 808.6,1233 805,1234.7 		"/>
	</g>
	<g class="st3">
		<polygon class="st4" points="1677.6,816.6 1672.9,817.6 1672.6,822.4 1670.2,818.2 1665.6,819.4 1668.8,815.9 1666.2,811.8 
			1670.6,813.8 1673.7,810.1 1673.1,814.9 		"/>
		<polygon class="st4" points="1909.8,725.5 1905.2,722.9 1901.4,726.6 1902.5,721.4 1897.8,719 1903,718.5 1903.9,713.2 
			1906.1,718.1 1911.3,717.2 1907.4,720.8 		"/>
		<polygon class="st4" points="1784.3,839.6 1782.5,840.5 1781.5,842.4 1780.3,840.7 1778.4,840.3 1779.5,838.4 1779.4,836.2 
			1781.3,836.7 1783.1,835.8 1783.2,838 		"/>
		<polygon class="st4" points="1805.4,740 1801.8,742.8 1804.6,746.5 1800.7,743.9 1798.1,747.7 1799.4,743.3 1795,741.9 
			1799.6,741.8 1799.5,737.1 1801.1,741.5 		"/>
		<polygon class="st4" points="1746.8,735.4 1745.2,735.1 1743.7,735.9 1743.4,734.3 1742.2,733.2 1743.7,732.4 1744.4,730.9 
			1745.6,732 1747.2,732.2 1746.5,733.7 		"/>
		<polygon class="st4" points="1764.5,941 1760.4,940.7 1760.1,944.8 1759.1,940.9 1755.2,941.8 1758.6,939.6 1756.5,936.2 
			1759.6,938.8 1762.2,935.7 1760.7,939.4 		"/>
	</g>
	<g class="st3">
		<polygon class="st4" points="1810.8,36 1810.3,31.2 1805.6,30.4 1810,28.5 1809.3,23.7 1812.5,27.3 1816.8,25.2 1814.3,29.3 
			1817.7,32.7 1813,31.7 		"/>
		<polygon class="st4" points="1877.6,276.3 1880.7,271.9 1877.4,267.8 1882.4,269.4 1885.3,265 1885.4,270.3 1890.5,271.7 
			1885.4,273.3 1885.7,278.6 1882.6,274.4 		"/>
		<polygon class="st4" points="1777,139.8 1776.3,137.9 1774.6,136.7 1776.3,135.6 1777,133.8 1778.7,135.1 1780.9,135.2 
			1780.2,137 1780.9,138.9 1778.8,138.8 		"/>
		<polygon class="st4" points="1873.9,171 1871.5,167.1 1867.5,169.5 1870.5,165.9 1867,162.9 1871.3,164.6 1873.1,160.4 
			1872.8,165 1877.4,165.4 1872.9,166.5 		"/>
		<polygon class="st4" points="1884.6,113.2 1884.9,111.6 1884.3,110 1885.9,109.9 1887.2,108.8 1887.8,110.3 1889.3,111.2 
			1888,112.3 1887.6,113.9 1886.2,113 		"/>
		<polygon class="st4" points="1678.2,109.6 1678.9,105.7 1674.9,104.9 1678.9,104.3 1678.3,100.3 1680.1,103.9 1683.8,102.2 
			1680.9,105 1683.7,107.9 1680.1,106.1 		"/>
	</g>
	<g class="st3">
		<polygon class="st4" points="1740.7,1247.6 1744.8,1250 1748.2,1246.7 1747.2,1251.4 1751.4,1253.7 1746.6,1254.1 1745.7,1258.8 
			1743.9,1254.4 1739.1,1255 1742.7,1251.9 		"/>
		<polygon class="st4" points="1508.3,1157.1 1509.8,1162.1 1515.2,1161.9 1510.8,1165 1512.7,1170 1508.4,1166.8 1504.2,1170.1 
			1505.9,1165.1 1501.5,1162.1 1506.8,1162.2 		"/>
		<polygon class="st4" points="1677.8,1158.3 1679.7,1158.9 1681.8,1158.2 1681.6,1160.2 1682.6,1161.8 1680.5,1162.5 
			1679.1,1164.1 1678.1,1162.5 1676.1,1161.9 1677.6,1160.3 		"/>
		<polygon class="st4" points="1594.7,1217.2 1599.3,1217.6 1599.8,1213 1600.9,1217.5 1605.4,1216.5 1601.4,1218.9 1603.7,1222.9 
			1600.2,1219.9 1597.2,1223.3 1599,1219.1 		"/>
		<polygon class="st4" points="1634.7,1260.4 1635.7,1261.6 1637.3,1262 1636.5,1263.4 1636.6,1265.1 1635,1264.7 1633.4,1265.3 
			1633.3,1263.6 1632.2,1262.4 1633.8,1261.8 		"/>
		<polygon class="st4" points="1761.2,1097.3 1763.9,1100.2 1766.9,1097.4 1765,1101 1768.5,1103 1764.6,1102.2 1763.8,1106.2 
			1763.2,1102.2 1759.2,1102.7 1762.8,1100.9 		"/>
	</g>
	<g class="st3">
		<polygon class="st4" points="402.3,1223.4 406.4,1225.8 409.9,1222.5 408.8,1227.2 413,1229.5 408.3,1229.9 407.4,1234.6 
			405.5,1230.2 400.8,1230.8 404.4,1227.7 		"/>
		<polygon class="st4" points="169.9,1132.8 171.5,1137.9 176.8,1137.7 172.5,1140.8 174.3,1145.8 170,1142.6 165.9,1145.9 
			167.6,1140.9 163.2,1137.9 168.5,1138 		"/>
		<polygon class="st4" points="339.4,1134.1 341.4,1134.7 343.4,1134 343.2,1136 344.3,1137.6 342.2,1138.3 340.8,1139.9 
			339.7,1138.3 337.8,1137.7 339.2,1136.1 		"/>
		<polygon class="st4" points="256.4,1193 261,1193.4 261.5,1188.8 262.5,1193.3 267,1192.3 263.1,1194.7 265.4,1198.7 
			261.9,1195.7 258.8,1199.1 260.6,1194.8 		"/>
		<polygon class="st4" points="296.3,1236.1 297.4,1237.4 299,1237.8 298.1,1239.2 298.2,1240.9 296.6,1240.5 295.1,1241.1 
			295,1239.4 293.9,1238.2 295.4,1237.5 		"/>
		<polygon class="st4" points="422.8,1073.1 425.6,1076 428.6,1073.2 426.7,1076.8 430.2,1078.7 426.2,1078 425.4,1082 424.9,1078 
			420.9,1078.5 424.5,1076.7 		"/>
	</g>
</g>
<g id="moon" class="st0">
	<g class="st3">
		<path class="st5" d="M1501.2,243.7c87,0,157.5,70.5,157.5,157.5s-70.5,157.5-157.5,157.5s-157.5-70.5-157.5-157.5
			S1414.2,243.7,1501.2,243.7z"/>
		<g>
			
				<linearGradient id="SVGID_00000148641960019949899390000006989602085466086281_" gradientUnits="userSpaceOnUse" x1="1402.6626" y1="893.4698" x2="1628.9999" y2="893.4698" gradientTransform="matrix(1 0 0 -1 0 1280)">
				<stop  offset="0" style="stop-color:#C0C7D0"/>
				<stop  offset="1" style="stop-color:#090E1B"/>
			</linearGradient>
			<path style="fill:url(#SVGID_00000148641960019949899390000006989602085466086281_);" d="M1474.5,374.3
				c-9.2,6.4-21.1,9.1-32.8,5.9c-21.1-5.6-33.6-27.2-27.9-48.2c1.2-4.5,3.3-8.5,5.8-12.1c-7.4,5.1-13.1,12.6-15.6,21.9
				c-5.6,21,6.9,42.6,27.9,48.2C1448.5,394.5,1465.3,387.6,1474.5,374.3z M1599.6,361.8c-27.2,0-49.2-22-49.2-49.2
				c0-11.1,3.8-21.2,10-29.4c-12,9-19.8,23.2-19.8,39.3c0,27.2,22,49.2,49.2,49.2c16.1,0,30.3-7.8,39.2-19.8
				C1620.8,358,1610.7,361.8,1599.6,361.8z M1456.7,479.3c-10.5-2.8-16.7-13.6-13.9-24.1l1.1-2.9c-5.2,2.3-9.4,6.8-10.9,12.8
				c-2.8,10.5,3.4,21.3,13.9,24.1c9.5,2.5,19.1-2.3,23-11C1465.9,480,1461.3,480.6,1456.7,479.3z M1552.6,469
				c-15.8-4.2-25.1-20.4-20.9-36.2c0.8-2.9,2-5.4,3.5-7.8c-6.3,3.8-11.3,9.9-13.3,17.6c-4.2,15.8,5.1,32,20.9,36.2
				c12.9,3.5,26-2.3,32.6-13.1C1568.8,469.8,1560.6,471.2,1552.6,469z"/>
		</g>
		<path class="st7" d="M1520.9,539c-87,0-157.5-70.5-157.5-157.5c0-38.5,13.8-73.7,36.8-101c-34.5,28.9-56.4,72.2-56.4,120.7
			c0,87,70.5,157.5,157.5,157.5c48.5,0,91.8-21.9,120.7-56.4C1594.6,525.2,1559.4,539,1520.9,539z"/>
		<g>
			<path class="st8" d="M1638.8,324.6c-11.3-20.2-26.9-37.6-45.5-51.1l-3.5-0.4c-27.2,0-49.2,22-49.2,49.2s22,49.2,49.2,49.2
				C1616.2,371.7,1637.6,350.8,1638.8,324.6z"/>
			<circle class="st9" cx="1550.4" cy="450.3" r="29.5"/>
			<path class="st10" d="M1452.3,314c-21.1-5.6-42.8,6.8-48.4,27.8s6.9,42.6,27.9,48.2c21.1,5.6,42.8-6.8,48.4-27.8
				C1485.9,341.2,1473.4,319.6,1452.3,314z"/>
			<circle class="st11" cx="1452" cy="470.2" r="19.7"/>
		</g>
	</g>
</g>
<g id="cloud1_00000127026955722071991260000001009510960741722787_">
	<path class="st12" d="M1961.7,858.3c21.5-30.7,21.4-69.8,0-92.6c8.8-6,16.7-13.7,23-22.7c25.5-36.5,20-84.3-12.2-106.9
		c-0.8-0.5-1.5-0.9-2.2-1.3c14.8-26.7,8-59.7-16-76.4c-22.7-15.9-54-12.5-74.4,8c-0.8-0.6-1.6-1.3-2.5-1.9
		c-16-11.2-40.2-4.2-54,15.5c-6,8.6-9.3,18.5-9.3,28.1c-28,0.4-54.8,14.8-71.5,38.6c-10.2,14.6-15.9,31.7-16.5,49.1
		c-15.9,4.5-30.4,14.8-40.4,29.1c-13.2,18.9-17.2,42.5-10.6,62.8c-6.4,4.8-12.1,10.8-16.7,17.4c-23,32.9-17.8,76.3,11.8,96.9
		c3.9,2.6,8.2,4.9,12.7,6.6c-8,26.3-2.5,50.5,13.9,62.1c23.5,16.5,61.9,2.4,85.6-31.5c0.1-0.1,0.2-0.3,0.3-0.4
		c0.2,0.1,0.4,0.4,0.6,0.5c25.4,17.8,63.3,7.2,84.7-23.4c5.2-7.5,9.2-15.7,11.5-24.3C1907.6,900.9,1941.5,887.2,1961.7,858.3
		L1961.7,858.3z"/>
	<path class="st13" d="M1817.5,696.8c-14.2,0-26.4,10.9-28.8,25.8c-3.8-1.9-7.9-2.8-12-2.8c-16.9,0-30.6,15.5-30.6,34.7
		c0,0.4,0,0.8,0.1,1.3c-11.5,1.5-20.3,13.5-20.3,27.7c0,13.5,7.9,25,18.7,27.5c0,0.5-0.1,1-0.1,1.5c0,9.5,7.4,17.2,16.6,17.2
		c4,0,7.8-1.5,10.8-4.1c6.2,11.1,16.5,17.8,27.6,17.8c6.8,0,13.3-2.5,18.9-7.1c4.9,5.1,11.2,8,17.9,8c8.8,0,17-5,21.8-13.3
		c2.9,1.2,6,1.8,9.1,1.8c15.2,0,27.6-14.2,27.6-31.7c0-2.3-0.3-4.7-0.7-6.9c9.9-4.2,16.3-13.1,16.3-22.9c0-14-12.7-25.4-28.4-25.4
		c-0.1,0-0.1,0-0.2,0c0-0.1,0-0.3,0-0.4c0-15.1-11.5-27.3-25.7-27.3c-3.5,0-6.9,0.7-10.1,2.2
		C1842.6,706.5,1830.9,696.8,1817.5,696.8L1817.5,696.8z"/>
	<path class="st14" d="M1556.2,1044.8c29.6-12.8,47.3-41.5,41.9-67.9c9.2-0.4,18.5-2.5,27.1-6.2c35.2-15.2,52.9-52.8,39.4-83.9
		c-0.4-0.7-0.7-1.4-1-2c23-12.9,32.9-40.2,22.9-63.3c-9.5-22-33.9-33.6-58.2-27.8c-0.3-0.8-0.6-1.7-0.9-2.6
		c-6.7-15.4-27.6-21.3-46.7-13.1c-8.3,3.6-15.2,9.4-19.6,16.4c-20.7-12.4-46.9-14-70-4c-14.1,6.1-26,16-34.3,28.5
		c-13.7-3.9-29-2.9-42.8,3.1c-18.3,7.9-31.9,23.3-36.2,41.3c-6.9,0.6-13.8,2.4-20.1,5.2c-31.8,13.7-47.6,47.9-35.3,76.4
		c1.7,3.7,3.8,7.3,6.3,10.6c-17.8,15.7-24.7,35.9-17.9,51.9c9.8,22.7,44.3,29.8,77,15.7c0.1-0.1,0.3-0.1,0.4-0.2
		c0.1,0.2,0.1,0.5,0.2,0.7c10.6,24.5,43.2,33.9,72.8,21.2c7.2-3.1,13.8-7.4,19.4-12.6C1497.2,1051.5,1528.3,1056.8,1556.2,1044.8
		L1556.2,1044.8z"/>
	<g>
		<path class="st15" d="M1749,793.2c-1.3-0.6-3-12.4-17.6-16.4s-20.3,4-21.5,4.1s-14.9-20-38.2-17.4c-23.3,2.6-41.1,21.9-39.3,41.8
			c1.7,18.2,9.7,27.8,9.4,28.7c-0.3,0.9-10.6,4.6-12.8,16.3c-2.2,11.8,2.3,16.8,2.3,16.8l42.1-3.1l60-23.6c0,0,47.4-34.7,47-37.4
			s-4.8-10.4-15.4-11.9C1755.9,789.8,1751.2,794.1,1749,793.2z"/>
		<path class="st14" d="M1749.3,837.8c0,0,21.7-3.7,31.1-19.5c5.7-9.5-1.3-18.6-1.3-18.6s-3.5,8.2-14.7,14.4s-24.6,10.9-24.6,10.9
			s-1.1,6.9-12.5,14.4c-14.3,9.4-25.6,4.6-25.6,4.6s-2.3,6.8-17.1,13s-27.4-0.9-28.9-0.6c-0.8,0.2-3.4,5.5-12.1,7.4
			c-8.3,1.8-13.7,0-13.7,0s2.2,8.8,12.1,10.9c7.7,1.6,18.5-2.1,18.5-2.1s4.1,5.6,13.2,7.3c8.5,1.6,20.7-1.6,28.4-7.6
			c9.6-7.5,10.4-13.6,10.4-13.6s10,1.6,22.1-5C1745.8,847.5,1749.3,837.8,1749.3,837.8L1749.3,837.8z"/>
	</g>
	<path class="st16" d="M1016.9,894.8c-30.6,10.2-50.7,37.3-47.6,64.1c-9.2-0.4-18.6,0.9-27.5,3.9c-36.4,12.1-57.2,48-46.5,80.2
		c0.3,0.7,0.5,1.4,0.8,2.1c-24,10.9-36.2,37.2-28.3,61.1c7.6,22.7,30.9,36.4,55.6,32.7c0.2,0.8,0.4,1.7,0.7,2.6
		c5.3,16,25.7,23.6,45.4,17c8.6-2.9,16-8,20.9-14.7c19.6,14.2,45.5,18,69.4,10c14.5-4.8,27.3-13.8,36.6-25.5
		c13.3,5.1,28.6,5.3,42.9,0.6c18.9-6.3,33.8-20.5,39.6-38c6.9,0,13.9-1.2,20.5-3.4c32.8-10.9,51.5-43.6,41.7-73.1
		c-1.4-3.8-3.1-7.6-5.4-11.1c19.1-14.1,27.7-33.7,22.3-50.1c-7.8-23.5-41.6-33.5-75.4-22.2c-0.1,0-0.3,0.1-0.4,0.1
		c-0.1-0.2-0.1-0.5-0.2-0.7c-8.4-25.3-40.1-37.5-70.7-27.3c-7.5,2.5-14.4,6.2-20.4,10.9C1076.3,893.2,1045.7,885.2,1016.9,894.8
		L1016.9,894.8z"/>
	<path class="st17" d="M799.6,1185.3c30,12,62.8,4.2,77.7-18.3c6.8,6.2,14.8,11.3,23.6,14.8c35.7,14.2,74.7,0.2,87.3-31.4
		c0.2-0.8,0.5-1.4,0.7-2.1c25.4,7.2,51.7-5.1,61-28.5c8.9-22.2-0.2-47.8-21.4-60.9c0.4-0.8,0.8-1.6,1.1-2.5
		c6.2-15.6-4.4-34.6-23.7-42.3c-8.4-3.3-17.4-4.2-25.5-2.3c-5.8-23.4-23.2-43.1-46.6-52.4c-14.2-5.7-29.7-7.1-44.4-4.1
		c-6.9-12.5-18.5-22.5-32.4-28.1c-18.5-7.4-39-6.1-54.7,3.5c-5.3-4.4-11.4-8-17.9-10.6c-32.1-12.8-67.5,0.2-79,29
		c-1.4,3.8-2.5,7.9-3.1,12c-23.7-1.5-42.9,7.9-49.4,23.9c-9.2,23,10.3,52.4,43.3,65.6c0.1,0.1,0.3,0.1,0.4,0.2
		c-0.1,0.2-0.3,0.4-0.3,0.6c-9.9,24.8,6.5,54.5,36.4,66.5c7.3,2.9,15,4.6,22.6,4.9C753.2,1148.3,771.4,1174.1,799.6,1185.3
		L799.6,1185.3z"/>
	<path class="st13" d="M1270.3,897.1c30.9-9.4,62.9,1,75.9,24.7c7.3-5.7,15.7-10,24.7-12.8c36.7-11.2,74.5,6,84.4,38.5
		c0.2,0.8,0.4,1.5,0.5,2.2c25.9-5,51.1,9.3,58.4,33.5c7,22.9-4.1,47.6-26.4,58.9c0.3,0.8,0.7,1.7,0.9,2.6
		c4.9,16.1-7.3,34.1-27.1,40.2c-8.6,2.6-17.7,2.7-25.6,0.2c-7.8,22.9-26.7,41-50.8,48.3c-14.7,4.5-30.2,4.6-44.6,0.4
		c-7.9,11.8-20.3,20.9-34.6,25.3c-19,5.8-39.4,2.8-54.3-8.1c-5.7,4-12.1,7.1-18.7,9.1c-33.1,10.1-67.3-5.8-76.3-35.5
		c-1.1-3.9-1.9-8-2.1-12.2c-23.7-0.5-42.1-11.4-47.2-28c-7.2-23.7,14.6-51.4,48.6-61.8c0.1,0,0.3-0.1,0.4-0.1
		c-0.1-0.2-0.2-0.5-0.3-0.7c-7.8-25.5,11-53.8,41.8-63.2c7.5-2.3,15.3-3.3,23-3C1221,930.1,1241.3,905.9,1270.3,897.1L1270.3,897.1z
		"/>
	<g>
		<path class="st18" d="M1674.9,934.3c-1,2.1,9.7,18.8-4.2,39.4c-13.8,20.7-29.6,16.9-31.2,18.1c-1.6,1.2,3,40.9-28.8,62.9
			c-31.9,22-74.9,17.1-94.1-9.7c-17.6-24.5-17.9-45.1-19.3-45.9c-1.3-0.9-18.1,5.7-33.6-6.6c-15.4-12.3-15.4-23.5-15.4-23.5
			l55.8-41.6l100.3-35.5c0,0,96.6-8,99-4.1s5.2,18.1-6.3,31.5C1687.1,930.9,1676.6,930.6,1674.9,934.3z"/>
		<path class="st19" d="M1627.1,878.3c0,0,31-18.8,59.8-9.3c17.4,5.7,18.4,24.6,18.4,24.6s-13.2-6.4-33.9-2.1
			c-20.7,4.3-42.4,13-42.4,13s-8.8-7.5-31.1-4.4c-27.9,3.8-36.9,22-36.9,22s-10.1-6-35.4,2.3s-33.2,30.8-35.4,32
			c-1.1,0.6-10.3-3.2-23.2,3.8c-12.3,6.7-17.2,14.8-17.2,14.8s-6.9-13.4,3.2-26.7c7.9-10.4,25.4-17.4,25.4-17.4s-1-11.4,8.6-23.3
			c8.9-11.1,27.6-20.4,43.7-21.2c20.1-1,27.6,5.7,27.6,5.7s10.8-12.8,32.9-17.6C1612.2,869.9,1627.1,878.3,1627.1,878.3
			L1627.1,878.3z"/>
	</g>
	<path class="st20" d="M45.3,819.8c33.1,15.6,70.6,9.1,89-15.3c7.2,7.5,16,13.8,25.6,18.3c39.3,18.5,84.4,5.4,100.8-29.4
		c0.3-0.8,0.7-1.6,0.9-2.3c28.2,9.9,58.7-2.1,70.9-28c11.6-24.5,3.2-54-19.9-70.3c0.5-0.8,1-1.8,1.5-2.7
		c8.1-17.2-2.6-39.4-23.8-49.4c-9.2-4.4-19.4-5.9-28.6-4.4c-5-26.9-23.2-50.3-49-62.5c-15.7-7.4-33.1-10.1-49.9-7.8
		c-6.9-14.6-19.3-26.8-34.7-34c-20.4-9.6-43.7-9.6-62.1,0.2c-5.7-5.4-12.4-9.9-19.5-13.2c-35.4-16.7-76.3-4.5-91.3,27.3
		c-1.9,4.2-3.4,8.7-4.3,13.3c-26.7-3.3-49,5.9-57.5,23.6c-12,25.4,7.9,59.9,44.4,77.1c0.1,0.1,0.3,0.1,0.4,0.2
		c-0.1,0.2-0.3,0.5-0.4,0.7c-12.9,27.4,3.5,62.1,36.5,77.6c8.1,3.8,16.6,6.2,25.3,7.1C-4.6,774.7,14.2,805.1,45.3,819.8L45.3,819.8z
		"/>
	<path class="st17" d="M454.2,740.7c-25.5-19.8-59.1-21.5-79.7-4c-4.8-7.9-11.1-15-18.5-20.7c-30.3-23.6-71.7-20.9-92.5,5.9
		c-0.4,0.7-0.9,1.2-1.2,1.8c-22.4-13.9-51-9.5-66.5,10.4c-14.7,18.9-13.1,45.9,3.6,64.4c-0.6,0.6-1.2,1.3-1.8,2.1
		c-10.3,13.3-5.4,34.5,11,47.2c7.1,5.5,15.5,8.8,23.8,9.3c-0.9,24.1,10.3,47.8,30.2,63.3c12.1,9.4,26.6,15,41.5,16.3
		c3.2,13.9,11.5,26.8,23.3,36c15.7,12.2,35.8,16.7,53.6,11.8c3.9,5.7,8.8,10.9,14.2,15.2c27.3,21.2,64.9,18.6,84-5.9
		c2.4-3.3,4.6-6.9,6.3-10.6c22.3,8,43.4,4.4,54.1-9.3c15.2-19.6,4.7-53.2-23.4-75c-0.1-0.1-0.2-0.2-0.3-0.3c0.1-0.2,0.4-0.4,0.5-0.5
		c16.4-21.1,8.9-54.2-16.5-74c-6.2-4.8-13.1-8.6-20.4-11C488.5,789.1,478.1,759.3,454.2,740.7L454.2,740.7z"/>
	<path class="st14" d="M521.4,1125.5c27.7,16.6,61.3,14.2,79.6-5.6c5.7,7.2,12.8,13.5,20.9,18.4c32.9,19.7,73.7,12.1,91.2-17
		c0.3-0.7,0.7-1.3,1-2c23.9,11.1,51.8,3.3,64.8-18.4c12.3-20.5,7.5-47.2-11.4-63.5c0.5-0.7,1-1.5,1.5-2.3
		c8.7-14.4,1.2-34.8-16.6-45.5c-7.7-4.6-16.5-6.9-24.8-6.3c-2-24.1-16-46.2-37.6-59.2c-13.1-7.9-28.2-11.7-43.2-11.2
		c-4.8-13.4-14.6-25.2-27.5-32.9c-17.1-10.2-37.6-12.2-54.6-5.3c-4.5-5.2-10-9.8-16-13.3c-29.7-17.8-66.7-10.7-82.6,16
		c-2,3.5-3.7,7.4-4.9,11.3c-23.1-5.3-43.6,0.9-52.6,15.7c-12.7,21.2,1.7,53.4,32.3,71.7c0.1,0.1,0.2,0.1,0.4,0.2
		c-0.1,0.2-0.3,0.4-0.4,0.6c-13.7,22.9-2.3,54.9,25.3,71.4c6.8,4,14.1,6.9,21.6,8.4C481.5,1081.5,495.4,1109.8,521.4,1125.5
		L521.4,1125.5z"/>
	<path class="st17" d="M1244.4,1038.8c-22,5.2-37.7,22.5-37.3,40.8c-6.4-0.8-13-0.4-19.4,1.1c-26.1,6.2-42.9,29.4-37.6,51.7
		c0.2,0.5,0.3,1,0.4,1.4c-17.4,6-27.6,23.2-23.7,39.8c3.8,15.8,19.1,26.3,36.5,25.1c0.1,0.6,0.2,1.2,0.3,1.8
		c2.6,11.1,16.3,17.3,30.4,14c6.1-1.5,11.6-4.6,15.5-8.8c12.7,10.6,30.5,14.6,47.6,10.5c10.4-2.5,19.9-7.8,27.2-15.3
		c8.9,4.2,19.6,5.2,29.8,2.7c13.5-3.2,24.8-12.1,30-23.6c4.8,0.3,9.8-0.1,14.5-1.2c23.5-5.6,38.7-26.7,33.8-47.2
		c-0.7-2.7-1.7-5.3-3-7.8c14.2-8.5,21.5-21.3,18.8-32.7c-3.9-16.3-26.7-24.9-51-19.1c-0.1,0-0.2,0-0.3,0.1c0-0.1,0-0.3-0.1-0.5
		c-4.2-17.6-25.4-27.5-47.3-22.3c-5.4,1.3-10.4,3.4-14.9,6.3C1285.8,1040.9,1265.1,1033.9,1244.4,1038.8L1244.4,1038.8z"/>
	<path class="st13" d="M1340.7,1147.5c5,27.1,25.5,47.2,48.5,47.7c-1.4,7.7-1.4,15.9,0,23.7c6,32.2,33.8,54,62.3,48.7
		c0.6-0.2,1.2-0.3,1.8-0.5c6.4,21.6,27.2,35,48.3,31.1c20.1-3.7,34.4-21.8,34.2-43.1c0.7-0.1,1.5-0.2,2.3-0.3
		c14.1-2.6,23-18.9,19.7-36.3c-1.4-7.6-4.9-14.4-9.9-19.4c14.3-14.9,20.5-36.4,16.6-57.4c-2.4-12.9-8.4-24.7-17.2-34
		c5.9-10.6,7.9-23.6,5.5-36.2c-3.1-16.7-13.4-30.9-27.5-37.9c0.8-5.9,0.6-11.9-0.5-17.7c-5.4-29-30.8-48.7-56.9-43.8
		c-3.4,0.7-6.8,1.8-10,3.2c-9.7-17.8-25.2-27.4-39.7-24.8c-20.8,3.8-33.2,31.2-27.6,61.1c0,0.1,0,0.2,0.1,0.4c-0.2,0-0.4,0-0.6,0.1
		c-22.4,4.1-36.4,29.5-31.4,56.5c1.2,6.6,3.5,12.9,6.8,18.6C1346.3,1097.2,1336,1122.1,1340.7,1147.5L1340.7,1147.5z"/>
	<path class="st20" d="M1003.3,1283c31.7,6.1,62.4-7.7,72.8-32.6c7.8,4.9,16.7,8.3,25.9,10.1c37.7,7.2,73.4-13.9,79.8-47.3
		c0.1-0.8,0.2-1.5,0.3-2.2c26.2,2.3,49.8-14.7,54.5-39.5c4.5-23.5-9.2-46.9-32.5-55.7c0.2-0.8,0.5-1.7,0.7-2.6
		c3.2-16.5-10.9-33.1-31.2-37c-8.9-1.7-17.9-0.8-25.4,2.6c-10.2-21.9-30.9-37.9-55.6-42.7c-15-2.9-30.5-1.3-44.4,4.3
		c-9.1-10.9-22.4-18.7-37.1-21.5c-19.5-3.7-39.5,1.4-53.1,13.8c-6.1-3.3-12.8-5.7-19.6-7c-34-6.5-66.3,12.9-72.1,43.4
		c-0.7,4-1,8.2-0.8,12.3c-23.5,3-40.7,15.8-44,32.8c-4.7,24.3,20,49.5,54.9,56.2c0.1,0,0.3,0.1,0.4,0.1c0,0.2-0.2,0.5-0.2,0.7
		c-5,26.2,16.6,52.3,48.3,58.4c7.7,1.5,15.6,1.7,23.2,0.5C950.7,1255.4,973.5,1277.3,1003.3,1283L1003.3,1283z"/>
	<g>
		<path class="st21" d="M707.8,1087.6c0.7,1.7-8.8,14.2,0.9,31.4c9.7,17.2,22.4,15.1,23.6,16.2c1.2,1.1-4.9,32.1,19,51.5
			s58.2,18,75-2c15.4-18.3,16.9-34.5,18-35.1s14,5.6,26.9-3.2c12.9-8.8,13.6-17.6,13.6-17.6l-41.6-36.2l-77.1-34.1
			c0,0-75.9-12.1-78-9.2s-5.2,14,3.1,25.2C698.3,1084.2,706.6,1084.6,707.8,1087.6z"/>
		<path class="st19" d="M748.9,1046.2c0,0-23.3-16.8-46.7-11c-14.1,3.5-16.1,18.3-16.1,18.3s10.9-4.3,26.9,0.4
			c16.1,4.6,32.7,12.8,32.7,12.8s7.4-5.4,24.9-1.6c21.8,4.7,27.9,19.6,27.9,19.6s8.4-4.1,27.9,3.9c19.5,8.1,24.3,26.3,26,27.4
			c0.8,0.6,8.3-1.9,18.1,4.4c9.3,6,12.7,12.7,12.7,12.7s6.2-10.2-0.9-21.3c-5.6-8.7-19-15.3-19-15.3s1.5-8.9-5.4-18.9
			c-6.3-9.3-20.6-17.8-33.2-19.4c-15.9-2-22.1,2.8-22.1,2.8s-7.7-10.7-25-15.9C761.2,1040.5,748.9,1046.2,748.9,1046.2L748.9,1046.2
			z"/>
	</g>
	<g>
		<path class="st18" d="M529.2,1064.6c-2.5,0.5-10.5,21.2-38.4,22.5s-34.9-15.5-37.1-16.1s-34.9,30-75.9,15.9
			c-41.1-14.1-65.3-56.2-53.9-91.4c10.4-32.2,28.7-46.2,28.6-48s-17.3-12.5-16.4-34.7s10.9-29.5,10.9-29.5l74.7,22.7l98.8,66.9
			c0,0,71.5,81.8,69.6,86.5s-12.9,16.7-32.6,15.2C540.4,1073.4,533.7,1063.7,529.2,1064.6z"/>
		<path class="st19" d="M548,984.2c0,0,37.6,15.4,48.2,47.7c6.4,19.5-9.9,33-9.9,33s-3-16.2-20.7-32c-17.6-15.8-40-29.6-40-29.6
			s0.8-12.9-16.7-31c-22-22.7-44.4-18.7-44.4-18.7s-1.3-13.1-25.6-30.5s-49.8-9.4-52.4-10.6c-1.3-0.6-3.9-11.4-18.9-18.4
			c-14.2-6.6-24.8-5.6-24.8-5.6s7.5-15.1,26.2-14.9c14.6,0.2,32.6,11.3,32.6,11.3s9.6-8.4,26.7-7.7c15.9,0.6,36.8,11.4,48.2,25.3
			c14.3,17.5,13.2,28.7,13.2,28.7s18.7,1.2,37.8,18C545.5,965.2,548,984.2,548,984.2L548,984.2z"/>
	</g>
	<path class="st12" d="M159.7,640.2c-29-14.2-62.3-8.9-78.8,12.4c-6.3-6.7-13.9-12.4-22.4-16.5C24,619.3-16,630.3-30.8,660.8
		c-0.3,0.7-0.6,1.4-0.8,2.1c-24.7-9.1-51.9,1.2-63,23.8c-10.5,21.5-3.4,47.6,16.8,62.3c-0.4,0.7-0.9,1.5-1.3,2.4
		c-7.4,15.1,1.8,34.8,20.5,43.9c8.1,4,17,5.4,25.2,4.2c4.1,23.8,19.9,44.7,42.5,55.7c13.8,6.7,29.1,9.3,44,7.5
		c5.9,12.9,16.7,23.9,30.2,30.5c17.9,8.7,38.5,9,54.9,0.6c5,4.8,10.8,8.9,17.1,11.9c31.1,15.2,67.3,4.9,81-23
		c1.7-3.7,3.1-7.7,4-11.7c23.5,3.3,43.4-4.6,51-20.2c10.9-22.3-6.3-53-38.3-68.6c-0.1-0.1-0.3-0.1-0.4-0.2c0.1-0.2,0.3-0.4,0.4-0.6
		c11.7-24-2.4-54.9-31.3-69c-7.1-3.5-14.6-5.7-22.2-6.5C203.3,680.6,187,653.5,159.7,640.2L159.7,640.2z"/>
	<path class="st16" d="M308.1,740.6c-20.2-12.7-45-11.4-58.8,3c-4.1-5.4-9.3-10.2-15.1-13.9c-24-15-54.2-10-67.5,11.2
		c-0.3,0.5-0.5,1-0.8,1.4c-17.4-8.6-38.2-3.2-48,12.6c-9.4,14.9-6.2,34.7,7.4,47c-0.4,0.5-0.8,1.1-1.2,1.6
		c-6.6,10.5-1.4,25.7,11.6,33.8c5.6,3.5,12.1,5.3,18.2,5c1.1,17.8,11.1,34.3,26.8,44.2c9.6,6,20.6,9.1,31.7,8.9
		c3.4,10,10.4,18.8,19.8,24.7c12.4,7.8,27.5,9.6,40.2,4.7c3.3,3.9,7.2,7.3,11.6,10.1c21.6,13.6,49,8.8,61.2-10.6
		c1.6-2.6,2.9-5.4,3.8-8.3c17,4.2,32.2,0,39-10.8c9.7-15.5-0.5-39.4-22.7-53.3c-0.1-0.1-0.2-0.1-0.3-0.2c0.1-0.1,0.2-0.3,0.3-0.4
		c10.5-16.7,2.5-40.4-17.6-53c-4.9-3.1-10.3-5.3-15.8-6.5C336.9,773.6,327.1,752.5,308.1,740.6L308.1,740.6z"/>
	<g>
		<path class="st21" d="M1712.9,864.5c0.9-0.9-1.6-11.8,9.7-20.2c11.3-8.4,19-3.4,20-3.8c1.1-0.4,6.1-22.4,27.2-28.1
			c21.1-5.7,43.1,5,48.3,22.9c4.7,16.4,1.1,27.4,1.6,28.1c0.5,0.7,10.7,0.4,16.6,9.8c5.9,9.5,3.8,15.4,3.8,15.4l-37.6,11.6h-60.1
			c0,0-53-14-53.5-16.5s0.7-10.6,9.3-15.6C1705.8,863.9,1711.3,866.1,1712.9,864.5z"/>
		<path class="st19" d="M1727.8,903.3c0,0-20.1,4.2-33.6-6.3c-8.2-6.3-5.2-16.6-5.2-16.6s5.8,5.9,17.7,7.5
			c11.8,1.6,25.1,1.1,25.1,1.1s3.3,5.6,15.7,8.2c15.6,3.2,23.8-4.7,23.8-4.7s4.3,5.1,19.3,5.5s23.5-10.1,24.9-10.4
			c0.7-0.1,4.9,3.6,13.1,2.3c7.8-1.3,11.9-4.7,11.9-4.7s1.1,8.4-6.7,13.6c-6.1,4-16.8,4.5-16.8,4.5s-1.6,6.2-9,10.8
			c-6.8,4.2-18.6,5.6-27.2,3.1c-10.9-3.3-13.6-8.2-13.6-8.2s-8.1,4.8-20.8,3.2C1734.2,910.5,1727.8,903.3,1727.8,903.3L1727.8,903.3
			z"/>
	</g>
	<path class="st13" d="M1658.3,897.2c-19.5,7.7-31.5,25.9-28.6,43.1c-6,0.1-12,1.2-17.7,3.5c-23.2,9.1-35.4,33.1-27.3,53.6
		c0.2,0.5,0.4,0.9,0.6,1.3c-15.2,7.9-22.2,25.3-16.2,40.6c5.7,14.4,21.3,22.5,37.1,19.3c0.2,0.5,0.3,1.1,0.6,1.7
		c4,10.2,17.4,14.4,30,9.5c5.4-2.1,10.1-5.8,13-10.2c13.2,8.5,30.1,10.1,45.3,4.1c9.2-3.6,17.2-9.9,22.8-17.8
		c8.8,2.8,18.7,2.5,27.8-1.1c12-4.7,21.2-14.5,24.3-26c4.5-0.3,9-1.3,13.2-2.9c20.9-8.2,31.8-30.1,24.5-48.8c-1-2.4-2.3-4.8-3.9-7
		c11.9-9.8,16.8-22.8,12.7-33.3c-5.9-15-28.1-20.2-49.6-11.8c-0.1,0-0.2,0.1-0.3,0.1c-0.1-0.1-0.1-0.3-0.1-0.4
		c-6.3-16.1-27.3-22.9-46.7-15.2c-4.8,1.9-9.1,4.5-12.9,7.8C1696.7,894,1676.7,890,1658.3,897.2L1658.3,897.2z"/>
	<path class="st17" d="M1623.4,1256.2c28.4-15.4,43.3-45.6,35.6-71.4c9.1-1.2,18.2-4.2,26.4-8.7c33.7-18.3,47.9-57.3,31.6-87.2
		c-0.4-0.7-0.8-1.3-1.2-1.9c21.7-14.9,29.1-43,17.1-65.1c-11.4-21-36.8-30.4-60.5-22.4c-0.3-0.8-0.7-1.6-1.2-2.5
		c-8-14.8-29.4-18.7-47.7-8.8c-7.9,4.3-14.3,10.7-18,18.1c-21.8-10.5-48-9.7-70.1,2.3c-13.5,7.3-24.4,18.3-31.6,31.5
		c-14-2.7-29.1-0.2-42.3,7c-17.5,9.5-29.6,26.1-32.3,44.4c-6.8,1.3-13.5,3.7-19.6,7c-30.4,16.5-43,52-28.2,79.3c2,3.6,4.4,7,7.2,10
		c-16.3,17.3-21.4,38-13.1,53.3c11.8,21.8,46.9,25.6,78.1,8.6c0.1-0.1,0.3-0.1,0.4-0.2c0.1,0.2,0.2,0.5,0.3,0.7
		c12.8,23.5,46.1,29.9,74.4,14.5c6.9-3.8,13.1-8.6,18.2-14.3C1565.2,1268.3,1596.7,1270.7,1623.4,1256.2L1623.4,1256.2z"/>
	<path class="st17" d="M131.9,785.4C115.2,768.6,91,764.2,74.4,775c-2.7-6.2-6.7-11.9-11.5-16.8c-19.8-20-50.1-22-67.8-4.5
		c-0.4,0.4-0.7,0.8-1.1,1.2c-14.9-12.2-36.2-11.7-49.3,1.3c-12.4,12.3-13.9,32.1-3.4,47.1c-0.5,0.4-1,0.8-1.5,1.3
		c-8.8,8.7-7.2,24.5,3.5,35.3c4.7,4.7,10.5,7.9,16.4,9c-2.9,17.5,3,35.7,16,48.8c7.9,8,17.9,13.4,28.6,15.8
		c1,10.4,5.8,20.5,13.6,28.4c10.3,10.4,24.5,15.5,37.8,13.6c2.3,4.5,5.3,8.7,8.9,12.4c17.8,18,45.4,19.7,61.6,3.6
		c2.1-2.1,4-4.5,5.6-7.1c15.5,7.9,31.1,7.3,40.2-1.6c12.9-12.8,8.4-38.2-9.9-56.7c-0.1-0.1-0.1-0.1-0.2-0.2c0.1-0.1,0.3-0.2,0.4-0.3
		c13.9-13.8,11.6-38.5-5-55.3c-4.1-4.1-8.7-7.5-13.8-9.9C152.3,823.9,147.5,801.2,131.9,785.4L131.9,785.4z"/>
	<path class="st13" d="M139.1,1133.8c29.4,24.7,69.3,28.1,94.6,8.2c5.3,9.6,12.6,18.3,21.1,25.5c35,29.3,84.3,28,110.3-3
		c0.5-0.8,1.1-1.4,1.6-2.1c26,17.5,60.3,13.5,79.5-9.5c18.3-21.8,17.6-54-1.5-76.7c0.7-0.7,1.5-1.5,2.2-2.4
		c12.9-15.3,7.9-40.7-11-56.6c-8.2-6.9-18.1-11.2-27.9-12c2.1-28.7-10.2-57.3-33.1-76.5c-14-11.7-30.9-19-48.7-21.2
		c-3.2-16.6-12.5-32.3-26.2-43.8c-18.1-15.2-41.8-21.4-63.2-16.4c-4.4-7-9.9-13.3-16.3-18.6c-31.5-26.4-76.3-24.9-100.1,3.4
		c-3.1,3.8-5.8,7.9-7.9,12.4c-26.2-10.5-51.4-7.1-64.7,8.7c-18.9,22.6-7.9,63,24.5,90.2c0.1,0.1,0.3,0.2,0.4,0.3
		c-0.2,0.2-0.4,0.4-0.6,0.6c-20.4,24.3-13,64,16.4,88.6c7.2,6,15.2,10.7,23.8,13.9C100.4,1074.7,111.4,1110.6,139.1,1133.8
		L139.1,1133.8z"/>
	<path class="st14" d="M665.4,1018.7c-29.7-12.8-62.6-6-78.1,16.1c-6.6-6.4-14.5-11.7-23.1-15.4c-35.2-15.2-74.7-2.3-88.1,28.9
		c-0.2,0.8-0.5,1.4-0.7,2.1c-25.1-7.9-51.8,3.6-61.8,26.8c-9.5,22-1.2,47.8,19.7,61.4c-0.4,0.8-0.8,1.6-1.2,2.4
		c-6.7,15.5,3.4,34.7,22.5,42.9c8.3,3.6,17.3,4.6,25.4,3c5.2,23.6,22,43.7,45.1,53.7c14.1,6.1,29.5,7.9,44.3,5.4
		c6.6,12.7,17.8,23,31.6,29c18.3,7.9,38.9,7.2,54.8-2c5.2,4.6,11.2,8.3,17.6,11.1c31.8,13.7,67.5,1.7,79.8-26.8
		c1.6-3.8,2.7-7.8,3.4-11.9c23.6,2.2,43.1-6.7,50-22.6c9.8-22.7-8.8-52.7-41.5-66.8c-0.1-0.1-0.3-0.1-0.4-0.2
		c0.1-0.2,0.3-0.4,0.3-0.6c10.6-24.5-5-54.7-34.5-67.5c-7.2-3.1-14.8-5-22.5-5.5C710.8,1057,693.3,1030.7,665.4,1018.7L665.4,1018.7
		z"/>
	<path class="st17" d="M245.7,1239.3c24.3,21.3,57.8,24.9,79.3,8.6c4.3,8.1,10.2,15.6,17.3,21.8c28.9,25.3,70.4,25,92.7-0.5
		c0.5-0.6,0.9-1.2,1.4-1.8c21.5,15.2,50.4,12.4,67-6.6c15.7-18,15.8-45.1,0.1-64.5c0.6-0.6,1.3-1.3,1.9-2
		c11.1-12.7,7.4-34.1-8.3-47.8c-6.8-5.9-15-9.7-23.2-10.6c2.3-24.1-7.5-48.4-26.5-64.9c-11.5-10.1-25.7-16.6-40.5-18.7
		c-2.4-14-9.9-27.4-21.2-37.3c-15-13.1-34.8-18.7-52.8-14.9c-3.5-6-8.1-11.4-13.3-16c-26-22.8-63.7-22.3-84.2,1.1
		c-2.6,3.1-5,6.6-6.9,10.3c-21.8-9.3-43.1-6.9-54.5,6.1c-16.3,18.6-7.8,52.8,19,76.3c0.1,0.1,0.2,0.2,0.3,0.3
		c-0.1,0.2-0.4,0.3-0.5,0.5c-17.6,20.1-12,53.6,12.2,74.8c5.9,5.2,12.6,9.3,19.7,12.1C214.3,1188.9,222.9,1219.3,245.7,1239.3
		L245.7,1239.3z"/>
	<path class="st20" d="M1760.4,880.9c-13,29.6-6.4,62.6,15.6,78.2c-6.5,6.5-11.8,14.4-15.6,23c-15.4,35.1-2.8,74.6,28.3,88.3
		c0.7,0.3,1.4,0.5,2.1,0.8c-8,25.1,3.3,51.8,26.4,61.9c21.9,9.6,47.7,1.5,61.6-19.3c0.8,0.4,1.6,0.9,2.4,1.2
		c15.4,6.8,34.7-3.2,43.1-22.2c3.6-8.3,4.8-17.2,3.2-25.4c23.6-5,43.9-21.7,54-44.7c6.2-14,8.1-29.4,5.7-44.3
		c12.7-6.5,23.2-17.7,29.2-31.4c8-18.2,7.4-38.8-1.6-54.8c4.6-5.2,8.4-11.2,11.2-17.5c13.9-31.7,2.2-67.5-26.3-80
		c-3.8-1.6-7.8-2.8-11.8-3.5c2.3-23.6-6.4-43.2-22.2-50.2c-22.7-10-52.7,8.4-67,41c-0.1,0.1-0.1,0.3-0.2,0.4
		c-0.2-0.1-0.4-0.3-0.6-0.4c-24.5-10.7-54.7,4.6-67.7,34.1c-3.2,7.2-5.1,14.8-5.6,22.5C1799,835.8,1772.6,853.1,1760.4,880.9
		L1760.4,880.9z"/>
	<path class="st14" d="M20.8,1184.4c31.2,8.3,62.8-3.3,74.9-27.4c7.5,5.4,16.1,9.5,25.1,11.9c37.1,9.9,74.2-8.7,82.9-41.5
		c0.1-0.8,0.3-1.5,0.4-2.2c26,4.1,50.7-11.2,57.2-35.5c6.2-23.1-5.8-47.4-28.4-57.9c0.3-0.8,0.6-1.7,0.8-2.6
		c4.3-16.3-8.5-33.8-28.5-39.2c-8.7-2.3-17.8-2.1-25.5,0.7c-8.6-22.6-28.2-40-52.4-46.5c-14.8-3.9-30.3-3.5-44.6,1.1
		c-8.3-11.6-21-20.2-35.5-24.1c-19.2-5.1-39.5-1.4-53.9,10c-5.8-3.8-12.3-6.6-19-8.4c-33.4-8.9-67,8.1-75,38.2
		c-1,4-1.6,8.1-1.6,12.2c-23.7,1.3-41.7,12.9-46.2,29.6c-6.4,23.9,16.4,50.8,50.8,60c0.1,0,0.3,0.1,0.4,0.1
		c-0.1,0.2-0.2,0.5-0.3,0.7c-6.9,25.8,12.9,53.4,44,61.7c7.6,2,15.4,2.8,23.1,2.1C-29.7,1153.2-8.5,1176.6,20.8,1184.4L20.8,1184.4z
		"/>
	<g>
		<path class="st18" d="M-65.2,950.2c1.3-1.3-2.3-16.6,13.5-28.4c15.8-11.8,26.6-4.8,28.1-5.3s8.5-31.4,38.1-39.4s60.5,7,67.8,32.1
			c6.6,22.9,1.5,38.4,2.3,39.4c0.7,1,15.1,0.5,23.3,13.8s5.3,21.6,5.3,21.6l-52.7,16.3h-84.3c0,0-74.3-19.6-75-23.1
			s0.9-14.9,13-21.8C-75.2,949.4-67.4,952.4-65.2,950.2z"/>
		<path class="st19" d="M-44.3,1004.6c0,0-28.1,5.9-47.2-8.8c-11.4-8.9-7.3-23.3-7.3-23.3s8.2,8.3,24.8,10.5
			c16.6,2.3,35.1,1.5,35.1,1.5s4.6,7.9,22.1,11.6c21.9,4.5,33.4-6.6,33.4-6.6s6,7.2,27.1,7.7s32.9-14.2,34.9-14.6
			c1-0.2,6.8,5.1,18.3,3.3c11-1.8,16.7-6.5,16.7-6.5s1.6,11.8-9.4,19.1c-8.6,5.7-23.6,6.3-23.6,6.3s-2.3,8.8-12.6,15.1
			c-9.6,5.9-26,7.9-38.2,4.3c-15.3-4.6-19.1-11.5-19.1-11.5s-11.4,6.7-29.2,4.4C-35.3,1014.8-44.3,1004.6-44.3,1004.6L-44.3,1004.6z
			"/>
	</g>
	<path class="st12" d="M1793.5,969.8c-32.3,0-59.9,19.3-65.4,45.8c-8.6-3.3-18-5-27.4-5c-38.4,0-69.5,27.5-69.5,61.4
		c0.1,0.8,0.1,1.5,0.1,2.2c-26.2,2.7-46.1,23.8-46.1,49c0,23.9,17.8,44.3,42.4,48.6c-0.1,0.9-0.1,1.8-0.1,2.7
		c0,16.8,16.9,30.5,37.7,30.5c9,0,17.7-2.6,24.5-7.3c14.1,19.6,37.5,31.4,62.7,31.4c15.3,0,30.2-4.4,42.8-12.6
		c11,9,25.5,14.1,40.5,14.1c19.9,0,38.5-8.8,49.5-23.6c6.6,2.1,13.6,3.2,20.5,3.2c34.6,0,62.7-25.1,62.7-56.2
		c-0.1-4.1-0.6-8.2-1.6-12.2c22.6-7.4,36.9-23.2,37-40.5c0-24.8-28.9-44.9-64.5-44.9c-0.1,0-0.3,0-0.4,0c0-0.2,0.1-0.5,0.1-0.7
		c0-26.7-26.2-48.3-58.4-48.3c-7.9,0-15.6,1.3-22.8,3.9C1850.4,987,1823.9,969.8,1793.5,969.8L1793.5,969.8z"/>
	<path class="st13" d="M1554.1,1112.7c-32.3,0-59.9,19.3-65.4,45.8c-8.6-3.3-18-5-27.4-5c-38.4,0-69.5,27.5-69.5,61.4
		c0.1,0.8,0.1,1.5,0.1,2.2c-26.2,2.7-46.1,23.8-46.1,49c0,23.9,17.8,44.3,42.4,48.6c-0.1,0.9-0.1,1.8-0.1,2.7
		c0,16.8,16.9,30.5,37.7,30.5c9,0,17.7-2.6,24.5-7.3c14.1,19.6,37.5,31.4,62.7,31.4c15.3,0,30.2-4.4,42.8-12.6
		c11,9,25.5,14.1,40.5,14.1c19.9,0,38.5-8.8,49.5-23.6c6.6,2.1,13.6,3.2,20.5,3.2c34.6,0,62.7-25.1,62.7-56.2
		c-0.1-4.1-0.6-8.2-1.6-12.2c22.6-7.4,36.9-23.2,37-40.5c0-24.8-28.9-44.9-64.5-44.9c-0.1,0-0.3,0-0.4,0c0-0.2,0.1-0.5,0.1-0.7
		c0-26.7-26.2-48.3-58.4-48.3c-7.9,0-15.6,1.3-22.8,3.9C1610.9,1129.9,1584.4,1112.7,1554.1,1112.7L1554.1,1112.7z"/>
	<g>
		<path class="st12" d="M958.7,1095.6c-21,0-39,12.6-42.5,29.8c-5.6-2.1-11.7-3.3-17.8-3.3c-25,0-45.2,17.9-45.2,40
			c0,0.5,0,1,0.1,1.4c-17.1,1.8-30,15.5-30,31.9c0,15.6,11.6,28.8,27.6,31.6c0,0.6-0.1,1.2-0.1,1.8c0,10.9,11,19.8,24.5,19.8
			c5.9,0,11.5-1.7,15.9-4.8c9.2,12.8,24.4,20.5,40.8,20.5c10,0,19.7-2.9,27.9-8.2c7.2,5.9,16.6,9.2,26.4,9.2
			c13,0,25.1-5.7,32.2-15.3c4.3,1.4,8.9,2.1,13.4,2.1c22.5,0,40.8-16.4,40.8-36.6c0-2.7-0.4-5.4-1-8c14.7-4.8,24-15.1,24.1-26.4
			c0-16.1-18.8-29.2-42-29.2c-0.1,0-0.2,0-0.3,0c0-0.1,0-0.3,0-0.5c0-17.4-17.1-31.4-38-31.4c-5.1,0-10.2,0.8-14.9,2.5
			C995.7,1106.8,978.4,1095.6,958.7,1095.6L958.7,1095.6z"/>
		<path class="st20" d="M978.9,1127.9c-21,0-39,12.6-42.5,29.8c-5.6-2.1-11.7-3.3-17.8-3.3c-25,0-45.2,17.9-45.2,40
			c0,0.5,0,1,0.1,1.4c-17.1,1.8-30,15.5-30,31.9c0,15.6,11.6,28.8,27.6,31.6c0,0.6-0.1,1.2-0.1,1.8c0,10.9,11,19.8,24.5,19.8
			c5.9,0,11.5-1.7,15.9-4.8c9.2,12.8,24.4,20.5,40.8,20.5c10,0,19.7-2.9,27.9-8.2c7.2,5.9,16.6,9.2,26.4,9.2
			c13,0,25.1-5.7,32.2-15.3c4.3,1.4,8.9,2.1,13.4,2.1c22.5,0,40.8-16.4,40.8-36.6c0-2.7-0.4-5.4-1-8c14.7-4.8,24-15.1,24.1-26.4
			c0-16.1-18.8-29.2-42-29.2c-0.1,0-0.2,0-0.3,0c0-0.1,0-0.3,0-0.5c0-17.4-17.1-31.4-38-31.4c-5.1,0-10.2,0.8-14.9,2.5
			C1015.9,1139.1,998.7,1127.9,978.9,1127.9L978.9,1127.9z"/>
		<path class="st14" d="M871.9,1145.9c-21,0-39,12.6-42.5,29.8c-5.6-2.1-11.7-3.3-17.8-3.3c-25,0-45.2,17.9-45.2,40
			c0,0.5,0,1,0.1,1.4c-17.1,1.8-30,15.5-30,31.9c0,15.6,11.6,28.8,27.6,31.6c0,0.6-0.1,1.2-0.1,1.8c0,10.9,11,19.8,24.5,19.8
			c5.9,0,11.5-1.7,15.9-4.8c9.2,12.8,24.4,20.5,40.8,20.5c10,0,19.7-2.9,27.9-8.2c7.2,5.9,16.6,9.2,26.4,9.2
			c13,0,25.1-5.7,32.2-15.3c4.3,1.4,8.9,2.1,13.4,2.1c22.5,0,40.8-16.4,40.8-36.6c0-2.7-0.4-5.4-1-8c14.7-4.8,24-15.1,24.1-26.4
			c0-16.1-18.8-29.2-42-29.2c-0.1,0-0.2,0-0.3,0c0-0.1,0-0.3,0-0.5c0-17.4-17.1-31.4-38-31.4c-5.1,0-10.2,0.8-14.9,2.5
			C908.9,1157,891.7,1145.9,871.9,1145.9L871.9,1145.9z"/>
		<path class="st16" d="M1014.2,1176.4c-21,0-39,12.6-42.5,29.8c-5.6-2.1-11.7-3.3-17.8-3.3c-25,0-45.2,17.9-45.2,40
			c0,0.5,0,1,0.1,1.4c-17.1,1.8-30,15.5-30,31.9c0,15.6,11.6,28.8,27.6,31.6c0,0.6-0.1,1.2-0.1,1.8c0,10.9,11,19.8,24.5,19.8
			c5.9,0,11.5-1.7,15.9-4.8c9.2,12.8,24.4,20.5,40.8,20.5c10,0,19.7-2.9,27.9-8.2c7.2,5.9,16.6,9.2,26.4,9.2
			c13,0,25.1-5.7,32.2-15.3c4.3,1.4,8.9,2.1,13.4,2.1c22.5,0,40.8-16.4,40.8-36.6c0-2.7-0.4-5.4-1-8c14.7-4.8,24-15.1,24.1-26.4
			c0-16.1-18.8-29.2-42-29.2c-0.1,0-0.2,0-0.3,0c0-0.1,0-0.3,0-0.5c0-17.4-17.1-31.4-38-31.4c-5.1,0-10.2,0.8-14.9,2.5
			C1051.2,1187.6,1034,1176.4,1014.2,1176.4L1014.2,1176.4z"/>
		<path class="st20" d="M789.8,1136.4c-21,0-39,12.6-42.5,29.8c-5.6-2.1-11.7-3.3-17.8-3.3c-25,0-45.2,17.9-45.2,40
			c0,0.5,0,1,0.1,1.4c-17.1,1.8-30,15.5-30,31.9c0,15.6,11.6,28.8,27.6,31.6c0,0.6-0.1,1.2-0.1,1.8c0,11,11,19.8,24.5,19.8
			c5.9,0,11.5-1.7,15.9-4.8c9.2,12.8,24.4,20.5,40.8,20.5c10,0,19.7-2.9,27.9-8.2c7.2,5.9,16.6,9.2,26.4,9.2
			c13,0,25.1-5.7,32.2-15.3c4.3,1.4,8.9,2.1,13.4,2.1c22.5,0,40.8-16.4,40.8-36.6c0-2.7-0.4-5.4-1-8c14.7-4.8,24-15.1,24.1-26.4
			c0-16.1-18.8-29.2-42-29.2c-0.1,0-0.2,0-0.3,0c0-0.1,0-0.3,0-0.5c0-17.4-17.1-31.4-38-31.4c-5.1,0-10.2,0.8-14.9,2.5
			C826.8,1147.6,809.5,1136.4,789.8,1136.4L789.8,1136.4z"/>
		<path class="st13" d="M1128.7,1136.4c-21,0-39,12.6-42.5,29.8c-5.6-2.1-11.7-3.3-17.8-3.3c-25,0-45.2,17.9-45.2,40
			c0,0.5,0,1,0.1,1.4c-17.1,1.8-30,15.5-30,31.9c0,15.6,11.6,28.8,27.6,31.6c0,0.6-0.1,1.2-0.1,1.8c0,11,11,19.8,24.5,19.8
			c5.9,0,11.5-1.7,15.9-4.8c9.2,12.8,24.4,20.5,40.8,20.5c10,0,19.7-2.9,27.9-8.2c7.2,5.9,16.6,9.2,26.4,9.2
			c13,0,25.1-5.7,32.2-15.3c4.3,1.4,8.9,2.1,13.4,2.1c22.5,0,40.8-16.4,40.8-36.6c0-2.7-0.4-5.4-1-8c14.7-4.8,24-15.1,24.1-26.4
			c0-16.1-18.8-29.2-42-29.2c-0.1,0-0.2,0-0.3,0c0-0.1,0-0.3,0-0.5c0-17.4-17.1-31.4-38-31.4c-5.1,0-10.2,0.8-14.9,2.5
			C1165.7,1147.6,1148.5,1136.4,1128.7,1136.4L1128.7,1136.4z"/>
		<path class="st17" d="M898.5,1180.5c-21,0-39,12.6-42.5,29.8c-5.6-2.1-11.7-3.3-17.8-3.3c-25,0-45.2,17.9-45.2,40
			c0,0.5,0,1,0.1,1.4c-17.1,1.8-30,15.5-30,31.9c0,15.6,11.6,28.8,27.6,31.6c0,0.6-0.1,1.2-0.1,1.8c0,10.9,11,19.8,24.5,19.8
			c5.9,0,11.5-1.7,15.9-4.8c9.2,12.8,24.4,20.5,40.8,20.5c10,0,19.7-2.9,27.9-8.2c7.2,5.9,16.6,9.2,26.4,9.2
			c13,0,25.1-5.7,32.2-15.3c4.3,1.4,8.9,2.1,13.4,2.1c22.5,0,40.8-16.4,40.8-36.6c0-2.7-0.4-5.4-1-8c14.7-4.8,24-15.1,24.1-26.4
			c0-16.1-18.8-29.2-42-29.2c-0.1,0-0.2,0-0.3,0c0-0.1,0-0.3,0-0.5c0-17.4-17.1-31.4-38-31.4c-5.1,0-10.2,0.8-14.9,2.5
			C935.5,1191.7,918.3,1180.5,898.5,1180.5L898.5,1180.5z"/>
	</g>
	<g>
		<path class="st15" d="M425.7,1191.6c2.5-1.9-1.3-28.1,29.2-45s48.8-3.2,51.6-3.8c2.8-0.6,20.6-51,75.4-59.1
			c54.7-8.1,107.9,22.6,116.8,66c8.2,39.6-3.7,64.5-2.5,66.3s27.1,3.5,39.8,27.3c12.7,23.7,5.9,37.1,5.9,37.1l-97.8,17.8l-152-15.2
			c0,0-130.7-46.1-131.5-52.1c-0.8-6,4.2-24.8,27.2-34.2C407.8,1188.5,421.3,1195,425.7,1191.6z"/>
		<path class="st14" d="M454.3,1286.5c0,0-51.7,4.8-83.6-23.3c-19.2-16.9-9.2-40.2-9.2-40.2s13.4,15.3,42.9,22.1
			c29.5,6.8,63.1,8.8,63.1,8.8s7,14.1,37.9,23.3c38.7,11.5,61.4-5.1,61.4-5.1s9.6,13.1,47.6,17.7s61.7-17.9,65.4-18.1
			c1.8-0.1,11.4,9.8,32.5,8.8c20.1-1,31.3-7.9,31.3-7.9s0.9,20-20.2,30.2c-16.5,7.9-43.6,6.3-43.6,6.3s-5.6,14.2-25.2,23
			c-18.2,8.2-48.3,8.6-69.7,0.3c-26.9-10.4-32.5-22.7-32.5-22.7s-21.7,9.1-53.5,2.1C468.8,1305.1,454.3,1286.5,454.3,1286.5
			L454.3,1286.5z"/>
	</g>
	<path class="st12" d="M247.8,1082.1c-32.3,0-59.9,19.3-65.4,45.8c-8.6-3.3-18-5-27.4-5c-38.4,0-69.5,27.5-69.5,61.4
		c0.1,0.8,0.1,1.5,0.1,2.2c-26.2,2.7-46.1,23.8-46.1,49c0,23.9,17.8,44.3,42.4,48.6c-0.1,0.9-0.1,1.8-0.1,2.7
		c0,16.8,16.9,30.5,37.7,30.5c9,0,17.7-2.6,24.5-7.3c14.1,19.6,37.5,31.4,62.7,31.4c15.3,0,30.2-4.4,42.8-12.6
		c11,9,25.5,14.1,40.5,14.1c19.9,0,38.5-8.8,49.5-23.6c6.6,2.1,13.6,3.2,20.5,3.2c34.6,0,62.6-25.1,62.6-56.2
		c-0.1-4.1-0.6-8.2-1.6-12.2c22.6-7.4,36.9-23.2,37-40.5c0-24.8-28.9-44.9-64.5-44.9c-0.1,0-0.3,0-0.4,0c0-0.2,0.1-0.5,0.1-0.7
		c0-26.7-26.2-48.3-58.4-48.3c-7.9,0-15.6,1.3-22.8,3.9C304.7,1099.2,278.2,1082.1,247.8,1082.1L247.8,1082.1z"/>
	<g>
		<path class="st22" d="M-46.7,1037.5c1.3-1.3-2.3-16.6,13.5-28.4c15.8-11.8,26.6-4.8,28.1-5.3s8.5-31.4,38.1-39.4s60.5,7,67.8,32.1
			c6.6,22.9,1.5,38.4,2.3,39.4c0.7,1,15.1,0.5,23.3,13.8s5.3,21.6,5.3,21.6L79,1087.7H-5.3c0,0-74.3-19.6-75-23.1s0.9-14.9,13-21.8
			C-56.8,1036.8-49,1039.8-46.7,1037.5z"/>
		<path class="st23" d="M-25.9,1092c0,0-28.1,5.9-47.2-8.8c-11.4-8.9-7.3-23.3-7.3-23.3s8.2,8.3,24.8,10.5
			c16.6,2.3,35.1,1.5,35.1,1.5s4.6,7.9,22.1,11.6c21.9,4.5,33.4-6.6,33.4-6.6s6,7.2,27.1,7.7S95,1070.4,97,1070
			c1-0.2,6.8,5.1,18.3,3.3c11-1.8,16.7-6.5,16.7-6.5s1.6,11.8-9.4,19.1c-8.6,5.7-23.6,6.3-23.6,6.3s-2.3,8.8-12.6,15.1
			c-9.6,5.9-26,7.9-38.2,4.3c-15.3-4.6-19.1-11.5-19.1-11.5s-11.4,6.7-29.2,4.4C-16.9,1102.2-25.9,1092-25.9,1092L-25.9,1092z"/>
	</g>
	<g>
		<path class="st15" d="M1670.4,1203.1c2-2.5-7.8-27,17.9-50.6c25.7-23.5,46.7-14.5,49.3-15.7c2.6-1.2,8.2-54.4,59.6-75
			s110.2-3.1,129,36.9c17.2,36.6,11.4,63.6,13,65.1s27.2-2.9,45,17.3c17.9,20.1,14.4,34.7,14.4,34.7l-90.9,40.1l-151.4,20.7
			c0,0-137.9-14.4-140-20.1s-1.7-25.1,18.5-39.6C1652.2,1204.3,1666.9,1207.4,1670.4,1203.1z"/>
		<path class="st14" d="M1720.3,1288.7c0,0-49.2,16.7-86.7-3.2c-22.6-12-18.4-37-18.4-37s16.6,11.8,46.9,11.5s63.4-6.1,63.4-6.1
			s10.1,12.1,42.3,13.8c40.3,2.2,58.5-19.3,58.5-19.3s12.4,10.5,50.4,6.1s55.9-31.8,59.3-32.8c1.8-0.5,13.4,6.9,33.7,0.9
			c19.3-5.6,28.6-15,28.6-15s5.5,19.3-12.6,34.1c-14.2,11.6-40.9,16.2-40.9,16.2s-2.1,15.1-19.1,28.3
			c-15.8,12.2-44.9,19.6-67.7,16.5c-28.5-3.8-36.9-14.5-36.9-14.5s-19,13.9-51.5,14.5C1738.8,1303.5,1720.3,1288.7,1720.3,1288.7
			L1720.3,1288.7z"/>
	</g>
	<g>
		<path class="st18" d="M268.2,1187.6c27.6,14.2,31.4,37.7,29.7,45c-1.7,7.2-170.9,47.6-170.9,47.6H-65l-120-33.6
			c0,0-6.8-17.1,12-44.5s51.4-26.4,53.2-28.4c1.7-2.1-10-33.9,5.2-81.2c16.6-51.7,86.9-82.7,154.3-66.2
			c67.4,16.5,83.5,80.1,86.9,81.2c3.5,1.1,28-13.4,64,10.9s27.9,55.8,30.9,58.4C226.6,1181.5,244.3,1175.3,268.2,1187.6z"/>
		<path class="st19" d="M173.9,1288.9c0,0-20.5,21-58.8,25.3c-40.6,4.7-66.6-9.1-66.6-9.1s-8.6,14.4-43.5,23.8
			c-27.8,7.5-65.3,3.4-87.1-8.8c-23.4-13.1-28.6-31.1-28.6-31.1s-34.1-1.2-53.7-12.9c-25.1-15-21.5-39.3-21.5-39.3
			s13.2,9.8,38.1,13.4c26.2,3.8,39.5-7.1,41.7-6.7c4.5,0.7,31.4,31,79.5,30s61.7-15.8,61.7-15.8s26.3,23.1,76.1,13.7
			c39.8-7.5,50.3-23.8,50.3-23.8s42.3,1.6,80-3.1c37.7-4.6,56.4-21.7,56.4-21.7s9.5,29.6-16.6,47.9
			C238,1301.1,173.9,1288.9,173.9,1288.9L173.9,1288.9z"/>
	</g>
	<g>
		<path class="st15" d="M286,1242.4c20,15.4,19.6,34.5,17.1,39.9S159.2,1294,159.2,1294L5.4,1265l-91.2-44.6c0,0-2.9-14.5,16.2-33.2
			s45.1-13,46.8-14.4s-3-28.2,16.2-63.1c20.9-38.2,81.9-52,133.4-28.8c51.6,23.2,55,75.7,57.6,77c2.6,1.4,24.4-6.4,49.7,18.2
			s14.1,48.1,16.1,50.7C253.6,1231.2,268.7,1229,286,1242.4z"/>
		<path class="st14" d="M195.4,1307.9c0,0-19.5,13.5-50.9,11.1c-33.2-2.5-52-17.2-52-17.2s-9.1,10-38.4,12.1
			c-23.4,1.7-52.8-7.2-68.4-20.1c-16.8-13.9-18.3-28.8-18.3-28.8s-27.1-6.1-41.1-18.3c-17.9-15.6-11.4-34.2-11.4-34.2
			s9.1,9.7,28.5,16.3c20.4,7,32.7,0.4,34.4,1c3.5,1.2,20.6,29.2,59.2,35.6s51.7-3.1,51.7-3.1s17.6,22.1,58.9,22.3
			c33,0.1,43.8-11.1,43.8-11.1s33.7,7.6,64.6,9.6s48.4-8.6,48.4-8.6s3.2,24.8-20.4,35.2C244.9,1327.1,195.4,1307.9,195.4,1307.9
			L195.4,1307.9z"/>
	</g>
	<g>
		<path class="st21" d="M-7.8,1251.6c0.8-0.8-1.5-10.7,8.9-18.4c10.3-7.7,17.4-3.1,18.4-3.4s5.6-20.4,24.9-25.6s39.5,4.6,44.3,20.8
			c4.3,14.9,1,24.9,1.5,25.6c0.5,0.6,9.8,0.3,15.2,9c5.4,8.6,3.4,14,3.4,14l-34.4,10.6H19.3c0,0-48.5-12.7-49-15s0.6-9.7,8.5-14.2
			C-14.3,1251.1-9.3,1253.1-7.8,1251.6z"/>
		<path class="st19" d="M5.9,1286.9c0,0-18.4,3.8-30.8-5.7c-7.5-5.8-4.8-15.1-4.8-15.1s5.4,5.4,16.2,6.8c10.8,1.5,23,1,23,1
			s3,5.1,14.4,7.5c14.3,2.9,21.8-4.3,21.8-4.3s3.9,4.7,17.7,5s21.5-9.2,22.8-9.5c0.7-0.1,4.5,3.3,12,2.1c7.2-1.1,10.9-4.2,10.9-4.2
			s1,7.7-6.2,12.4c-5.6,3.7-15.4,4.1-15.4,4.1s-1.5,5.7-8.2,9.8c-6.2,3.9-17,5.1-25,2.8c-10-3-12.5-7.5-12.5-7.5s-7.5,4.3-19.1,2.9
			C11.7,1293.5,5.9,1286.9,5.9,1286.9L5.9,1286.9z"/>
	</g>
	<g>
		<path class="st21" d="M626.4,1235.8c12.1,6.9,13.8,18.3,13,21.8c-0.7,3.5-75,23.1-75,23.1h-84.3l-52.7-16.3c0,0-3-8.3,5.3-21.6
			c8.3-13.3,22.6-12.8,23.3-13.8c0.8-1-4.4-16.5,2.3-39.4c7.3-25.1,38.1-40.1,67.8-32.1c29.6,8,36.7,38.9,38.1,39.4
			c1.5,0.5,12.3-6.5,28.1,5.3s12.3,27.1,13.5,28.4C608.1,1232.8,615.9,1229.8,626.4,1235.8z"/>
		<path class="st19" d="M585,1284.9c0,0-9,10.2-25.8,12.3c-17.8,2.3-29.2-4.4-29.2-4.4s-3.8,7-19.1,11.5
			c-12.2,3.6-28.7,1.7-38.2-4.3c-10.3-6.4-12.6-15.1-12.6-15.1s-15-0.6-23.6-6.3c-11-7.3-9.4-19.1-9.4-19.1s5.8,4.8,16.7,6.5
			c11.5,1.9,17.3-3.4,18.3-3.3c2,0.3,13.8,15.1,34.9,14.6s27.1-7.7,27.1-7.7s11.5,11.2,33.4,6.6c17.5-3.6,22.1-11.6,22.1-11.6
			s18.6,0.8,35.1-1.5c16.6-2.2,24.8-10.5,24.8-10.5s4.2,14.4-7.3,23.3C613.1,1290.8,585,1284.9,585,1284.9L585,1284.9z"/>
	</g>
	<g>
		<path class="st22" d="M1235.3,1216.8c1.5-1.5-2.7-19.6,16-33.5s31.4-5.6,33.2-6.2c1.8-0.6,10.1-37.1,45.1-46.5s71.5,8.3,80.1,38
			c7.9,27.1,1.8,45.4,2.7,46.5c0.9,1.2,17.8,0.6,27.6,16.3c9.8,15.7,6.2,25.5,6.2,25.5l-62.3,19.3h-99.6c0,0-87.8-23.1-88.6-27.3
			s1.1-17.6,15.4-25.8C1223.5,1215.9,1232.7,1219.5,1235.3,1216.8z"/>
		<path class="st23" d="M1260,1281.1c0,0-33.2,6.9-55.7-10.4c-13.5-10.5-8.6-27.5-8.6-27.5s9.7,9.8,29.3,12.4
			c19.6,2.7,41.5,1.8,41.5,1.8s5.5,9.4,26.1,13.6c25.8,5.4,39.5-7.9,39.5-7.9s7.1,8.5,32,9.1s38.9-16.8,41.2-17.2
			c1.2-0.2,8,6,21.7,3.9c13-2.1,19.8-7.7,19.8-7.7s1.9,13.9-11.2,22.5c-10.2,6.7-27.9,7.4-27.9,7.4s-2.7,10.3-14.8,17.9
			c-11.3,7-30.7,9.4-45.2,5.1c-18.1-5.4-22.6-13.6-22.6-13.6s-13.5,7.9-34.5,5.2C1270.6,1293.1,1260,1281.1,1260,1281.1L1260,1281.1
			z"/>
	</g>
	<path class="st20" d="M1235.7,1166c-11.6,0-21.5,6.9-23.4,16.4c-3.1-1.2-6.4-1.8-9.8-1.8c-13.8,0-24.9,9.9-24.9,22
		c0,0.3,0,0.5,0.1,0.8c-9.4,1-16.5,8.6-16.5,17.6c0,8.6,6.4,15.9,15.2,17.4c0,0.3-0.1,0.6-0.1,1c0,6,6.1,10.9,13.5,10.9
		c3.2,0,6.3-0.9,8.8-2.6c5.1,7,13.5,11.3,22.5,11.3c5.5,0,10.8-1.6,15.4-4.5c4,3.2,9.1,5.1,14.5,5.1c7.1,0,13.8-3.2,17.8-8.4
		c2.4,0.8,4.9,1.2,7.4,1.2c12.4,0,22.5-9,22.5-20.2c0-1.5-0.2-3-0.6-4.4c8.1-2.6,13.3-8.3,13.3-14.5c0-8.9-10.4-16.1-23.1-16.1
		c-0.1,0-0.1,0-0.2,0c0-0.1,0-0.2,0-0.3c0-9.6-9.4-17.3-21-17.3c-2.8,0-5.6,0.5-8.2,1.4C1256.1,1172.2,1246.6,1166,1235.7,1166
		L1235.7,1166z"/>
	<g>
		<path class="st18" d="M1513.6,1221.1c1.3-1.3-2.3-16.6,13.5-28.4s26.6-4.8,28.1-5.3s8.5-31.4,38.1-39.4s60.5,7,67.8,32.1
			c6.6,22.9,1.5,38.4,2.3,39.4c0.7,1,15.1,0.5,23.3,13.8s5.3,21.6,5.3,21.6l-52.7,16.3H1555c0,0-74.3-19.6-75-23.1s0.9-14.9,13-21.8
			C1503.5,1220.3,1511.3,1223.3,1513.6,1221.1z"/>
		<path class="st19" d="M1534.4,1275.5c0,0-28.1,5.9-47.2-8.8c-11.4-8.9-7.3-23.3-7.3-23.3s8.2,8.3,24.8,10.5
			c16.6,2.3,35.1,1.5,35.1,1.5s4.6,7.9,22.1,11.6c21.9,4.5,33.4-6.6,33.4-6.6s6,7.2,27.1,7.7s32.9-14.2,34.9-14.6
			c1-0.2,6.8,5.1,18.3,3.3c11-1.8,16.7-6.5,16.7-6.5s1.6,11.8-9.4,19.1c-8.6,5.7-23.6,6.3-23.6,6.3s-2.3,8.8-12.6,15.1
			c-9.6,5.9-26,7.9-38.2,4.3c-15.3-4.6-19.1-11.5-19.1-11.5s-11.4,6.7-29.2,4.4C1543.4,1285.7,1534.4,1275.5,1534.4,1275.5
			L1534.4,1275.5z"/>
	</g>
	<g>
		<path class="st15" d="M1572.2,1257.9c12.1,6.9,13.8,18.3,13,21.8c-0.7,3.5-75,23.1-75,23.1h-84.3l-52.7-16.3c0,0-3-8.3,5.3-21.6
			s22.6-12.8,23.3-13.8c0.8-1-4.4-16.5,2.3-39.4c7.3-25.1,38.1-40.1,67.8-32.1c29.6,8,36.7,38.9,38.1,39.4
			c1.5,0.5,12.3-6.5,28.1,5.3s12.3,27.1,13.5,28.4C1553.9,1254.9,1561.7,1251.9,1572.2,1257.9z"/>
		<path class="st14" d="M1530.7,1307c0,0-9,10.2-25.8,12.3c-17.8,2.3-29.2-4.4-29.2-4.4s-3.8,7-19.1,11.5
			c-12.2,3.6-28.7,1.7-38.2-4.3c-10.3-6.4-12.6-15.1-12.6-15.1s-15-0.6-23.6-6.3c-11-7.3-9.4-19.1-9.4-19.1s5.8,4.8,16.7,6.5
			c11.5,1.9,17.3-3.4,18.3-3.3c2,0.3,13.8,15.1,34.9,14.6s27.1-7.7,27.1-7.7s11.5,11.2,33.4,6.6c17.5-3.6,22.1-11.6,22.1-11.6
			s18.6,0.8,35.1-1.5c16.6-2.2,24.8-10.5,24.8-10.5s4.2,14.4-7.3,23.3C1558.9,1312.9,1530.7,1307,1530.7,1307L1530.7,1307z"/>
	</g>
	<g>
		<path class="st22" d="M1828.2,899.3c1.3-1.3-2.7-16.5,12.8-28.7s26.5-5.4,28-6c1.5-0.5,7.8-31.6,37.2-40.3s60.6,5.5,68.5,30.5
			c7.2,22.8,2.4,38.4,3.2,39.3c0.8,1,15.1,0.1,23.7,13.2c8.6,13.1,5.8,21.5,5.8,21.5l-52.3,17.6l-84.3,2.1c0,0-74.7-17.7-75.6-21.2
			c-0.8-3.5,0.6-14.9,12.5-22.2C1818.2,898.8,1826,901.7,1828.2,899.3z"/>
		<path class="st23" d="M1850.5,953.3c0,0-28,6.6-47.4-7.7c-11.7-8.6-7.8-23.1-7.8-23.1s8.4,8.1,25,9.9c16.6,1.9,35.2,0.6,35.2,0.6
			s4.8,7.8,22.4,11c22,4,33.2-7.5,33.2-7.5s6.2,7,27.3,7s32.5-15,34.5-15.4c1-0.2,6.9,4.9,18.4,2.8c10.9-2,16.6-6.9,16.6-6.9
			s1.9,11.8-9,19.3c-8.5,5.9-23.4,6.9-23.4,6.9s-2.1,8.8-12.2,15.4c-9.4,6.2-25.8,8.6-38.1,5.2c-15.4-4.2-19.4-11.1-19.4-11.1
			s-11.2,7-29.1,5.1C1859.7,963.2,1850.5,953.3,1850.5,953.3L1850.5,953.3z"/>
	</g>
	<g>
		<path class="st22" d="M1114.9,1230.6c0.6-0.6-1.1-8.3,6.8-14.2c7.9-5.9,13.3-2.4,14.1-2.6c0.8-0.3,4.3-15.7,19.1-19.7
			c14.8-4,30.3,3.5,34,16.1c3.3,11.5,0.8,19.2,1.1,19.7c0.4,0.5,7.6,0.3,11.7,6.9c4.1,6.7,2.6,10.8,2.6,10.8l-26.4,8.2h-42.3
			c0,0-37.2-9.8-37.6-11.6s0.5-7.5,6.5-10.9C1109.9,1230.3,1113.8,1231.8,1114.9,1230.6z"/>
		<path class="st23" d="M1125.4,1257.9c0,0-14.1,2.9-23.6-4.4c-5.7-4.5-3.6-11.7-3.6-11.7s4.1,4.2,12.4,5.3
			c8.3,1.1,17.6,0.8,17.6,0.8s2.3,4,11.1,5.8c11,2.3,16.7-3.3,16.7-3.3s3,3.6,13.6,3.8c10.6,0.3,16.5-7.1,17.5-7.3
			c0.5-0.1,3.4,2.6,9.2,1.6c5.5-0.9,8.4-3.3,8.4-3.3s0.8,5.9-4.7,9.6c-4.3,2.8-11.8,3.1-11.8,3.1s-1.1,4.4-6.3,7.6
			c-4.8,3-13,4-19.2,2.1c-7.7-2.3-9.6-5.8-9.6-5.8s-5.7,3.4-14.7,2.2C1129.9,1263,1125.4,1257.9,1125.4,1257.9L1125.4,1257.9z"/>
	</g>
</g>
<g id="cloud1" class="st0">
	<path class="st24" d="M660.4,650.6c15.2,0.3,28.4-6.6,31.2-16.5c4,1.3,8.4,2,12.9,2.1c18.1,0.4,32.9-9.6,33.2-22.3
		c0-0.3,0-0.6-0.1-0.8c12.4-0.8,21.9-8.5,22.1-17.9c0.2-8.9-8.1-16.7-19.6-18.6c0-0.3,0.1-0.7,0.1-1c0.1-6.3-7.7-11.6-17.5-11.8
		c-4.3-0.1-8.4,0.8-11.6,2.5c-6.5-7.5-17.4-12.1-29.3-12.4c-7.2-0.1-14.3,1.4-20.3,4.3c-5.1-3.5-11.9-5.5-19-5.7
		c-9.4-0.2-18.2,2.9-23.5,8.3c-3.1-0.9-6.4-1.3-9.7-1.4c-16.3-0.3-29.7,8.8-30,20.4c0,1.5,0.2,3.1,0.6,4.6
		c-10.7,2.5-17.6,8.3-17.8,14.8c-0.2,9.3,13.3,17.1,30.1,17.4c0.1,0,0.1,0,0.2,0c0,0.1,0,0.2,0,0.3c-0.2,10,12,18.3,27.2,18.6
		c3.7,0.1,7.4-0.3,10.8-1.2C633.7,643.6,646.1,650.3,660.4,650.6L660.4,650.6z"/>
	<path class="st25" d="M548.8,500.1c-18.7,1.8-33.6,14.6-35.3,30.2c-5.2-1.4-10.7-1.9-16.1-1.4c-22.3,2.2-38.7,19.9-36.8,39.5
		c0.1,0.5,0.1,0.9,0.2,1.3c-15,3.1-25.4,16.4-24,31c1.3,13.9,12.8,24.7,27.3,25.8c0,0.5,0,1,0.1,1.6c0.9,9.8,11.5,16.7,23.6,15.6
		c5.2-0.5,10.1-2.5,13.8-5.6c9.3,10.6,23.5,16.1,38.1,14.7c8.9-0.9,17.3-4.3,24.1-9.7c6.9,4.6,15.6,6.7,24.3,5.9
		c11.5-1.1,21.8-7.3,27.4-16.5c3.9,0.9,8.1,1.1,12.1,0.7c20.1-2,34.9-18.1,33.2-36.1c-0.3-2.4-0.8-4.7-1.6-7
		c12.7-5.5,20.1-15.5,19.2-25.6c-1.4-14.4-19.3-24.4-39.9-22.4c-0.1,0-0.2,0-0.2,0c0-0.1,0-0.3,0-0.4c-1.5-15.5-17.9-26.5-36.6-24.7
		c-4.6,0.4-9,1.6-13,3.5C582.8,506.9,566.5,498.4,548.8,500.1L548.8,500.1z"/>
	<path class="st26" d="M478.9,513c-14.9-6.8-31.6-3.6-39.7,7.4c-3.3-3.3-7.2-6.1-11.6-8c-17.7-8-37.8-1.9-44.9,13.8
		c-0.1,0.4-0.3,0.7-0.4,1.1c-12.7-4.2-26.3,1.3-31.5,13c-5,11-1.1,24.2,9.4,31.3c-0.2,0.4-0.4,0.8-0.6,1.2c-3.5,7.8,1.4,17.6,11,22
		c4.2,1.9,8.7,2.5,12.8,1.8c2.4,12,10.7,22.4,22.3,27.6c7.1,3.2,14.9,4.3,22.4,3.2c3.2,6.5,8.8,11.8,15.7,15
		c9.2,4.2,19.6,4,27.8-0.5c2.6,2.4,5.6,4.3,8.8,5.8c15.9,7.2,34.2,1.5,40.7-12.8c0.8-1.9,1.5-3.9,1.8-6c11.9,1.3,21.9-3,25.6-10.9
		c5.2-11.4-3.9-26.8-20.3-34.2c-0.1,0-0.1-0.1-0.2-0.1c0-0.1,0.1-0.2,0.2-0.3c5.6-12.3-2-27.7-16.8-34.5c-3.6-1.7-7.5-2.7-11.3-3
		C501.5,532.8,492.9,519.4,478.9,513L478.9,513z"/>
	<path class="st27" d="M278.5,635.5c18.8,7.6,39,4,47.8-8.5c4.3,3.7,9.4,6.8,14.9,9.1c22.4,9,46.3,2,53.4-15.7
		c0.1-0.4,0.3-0.8,0.4-1.2c15.9,4.7,31.9-1.6,37.2-14.8c5-12.5-1-27.3-14.5-35.4c0.2-0.4,0.5-0.9,0.7-1.4
		c3.5-8.8-3.4-19.9-15.5-24.8c-5.3-2.1-10.9-2.8-15.8-2c-4.1-13.6-15.2-25.2-29.9-31.2c-8.9-3.6-18.6-4.8-27.6-3.5
		c-4.5-7.3-11.9-13.4-20.7-16.9c-11.6-4.7-24.3-4.5-33.9,0.6c-3.4-2.7-7.3-4.9-11.3-6.5c-20.2-8.1-41.8-1.6-48.4,14.6
		c-0.8,2.1-1.4,4.4-1.7,6.8c-14.7-1.5-26.4,3.4-30.1,12.4c-5.2,12.9,7.4,30.2,28.1,38.6c0.1,0,0.2,0.1,0.3,0.1
		c0,0.1-0.1,0.2-0.2,0.4c-5.6,13.9,5.1,31.4,23.9,39c4.6,1.9,9.4,3,14.1,3.4C249,613.1,260.8,628.4,278.5,635.5L278.5,635.5z"/>
	<path class="st26" d="M89.9,649.7c25.6,4.9,50.5-6.9,59.1-28c6.3,4,13.4,6.9,20.9,8.3c30.4,5.9,59.4-12.2,64.8-40.4
		c0.1-0.7,0.2-1.3,0.2-1.9c21.2,1.7,40.3-12.8,44.4-33.7c3.8-19.9-7-39.5-25.8-46.9c0.2-0.7,0.4-1.5,0.5-2.2
		c2.7-14-8.5-27.9-24.9-31.1c-7.1-1.4-14.4-0.6-20.6,2.3c-8-18.4-24.7-31.8-44.6-35.7c-12.1-2.3-24.6-0.9-35.9,3.9
		c-7.3-9.2-17.9-15.6-29.8-17.9c-15.8-3-31.9,1.4-43,12c-4.9-2.8-10.3-4.8-15.8-5.8c-27.4-5.3-53.6,11.3-58.6,37.1
		c-0.6,3.4-0.9,6.9-0.7,10.4c-19,2.7-33,13.6-35.8,28c-4,20.6,15.7,41.7,43.9,47.1c0.1,0,0.2,0,0.3,0.1c0,0.2-0.1,0.4-0.2,0.6
		c-4.3,22.2,13,44.1,38.5,49c6.2,1.2,12.6,1.3,18.7,0.3C47.6,626.8,65.8,645.1,89.9,649.7L89.9,649.7z"/>
	<path class="st24" d="M464.7,434.2c-18,0-33.4,10.8-36.5,25.5c-4.8-1.8-10-2.8-15.3-2.8c-21.4,0-38.7,15.3-38.7,34.3
		c0,0.4,0,0.8,0.1,1.2c-14.6,1.5-25.7,13.3-25.7,27.4c0,13.3,9.9,24.7,23.6,27.1c0,0.5-0.1,1-0.1,1.5c0,9.4,9.4,17,21,17
		c5,0,9.9-1.4,13.7-4.1c7.9,10.9,20.9,17.5,35,17.5c8.5,0,16.9-2.5,23.9-7c6.2,5,14.2,7.9,22.6,7.9c11.1,0,21.5-4.9,27.6-13.1
		c3.7,1.2,7.6,1.8,11.5,1.8c19.3,0,35-14,35-31.4c0-2.3-0.3-4.6-0.9-6.8c12.6-4.1,20.6-12.9,20.7-22.6c0-13.8-16.1-25-36-25
		c-0.1,0-0.2,0-0.2,0c0-0.1,0-0.3,0-0.4c0-14.9-14.6-26.9-32.6-26.9c-4.4,0-8.7,0.7-12.7,2.2C496.4,443.7,481.7,434.2,464.7,434.2
		L464.7,434.2z"/>
	<path class="st28" d="M370.2,344.4c-20.1,0-37.3,12-40.7,28.5c-5.4-2.1-11.2-3.1-17-3.1c-23.9,0-43.3,17.1-43.3,38.3
		c0,0.5,0,0.9,0.1,1.4c-16.3,1.7-28.7,14.9-28.7,30.6c0,14.9,11.1,27.6,26.4,30.3c0,0.5-0.1,1.1-0.1,1.7c0,10.5,10.5,19,23.5,19
		c5.6,0,11-1.6,15.3-4.6c8.8,12.2,23.4,19.6,39,19.6c9.5,0,18.8-2.8,26.7-7.9c6.9,5.6,15.9,8.8,25.3,8.8c12.4,0,24-5.5,30.9-14.7
		c4.1,1.3,8.5,2,12.8,2c21.6,0,39-15.7,39-35c0-2.5-0.4-5.1-1-7.6c14.1-4.6,23-14.5,23.1-25.3c0-15.4-18-28-40.2-28
		c-0.1,0-0.2,0-0.3,0c0-0.1,0-0.3,0-0.4c0-16.6-16.3-30.1-36.4-30.1c-4.9,0-9.7,0.8-14.2,2.4C405.6,355.1,389.1,344.4,370.2,344.4
		L370.2,344.4z"/>
	<path class="st25" d="M242.9,578.1c24.3,6.9,49.2-1.7,59-20.4c5.8,4.3,12.4,7.6,19.5,9.6c28.9,8.2,58.2-5.8,65.4-31.3
		c0.1-0.6,0.3-1.1,0.4-1.7c20.3,3.6,39.8-8,45.2-27c5.1-18-3.9-37.2-21.5-45.7c0.2-0.6,0.5-1.3,0.7-2c3.6-12.7-6.2-26.6-21.8-31
		c-6.8-1.9-13.9-1.9-20,0.2c-6.4-17.8-21.5-31.7-40.4-37.1c-11.5-3.3-23.7-3.1-34.9,0.3c-6.4-9.2-16.1-16.1-27.5-19.3
		c-15-4.3-30.9-1.6-42.3,7.1c-4.5-3-9.5-5.3-14.8-6.8c-26-7.4-52.5,5.5-59.2,28.8c-0.8,3.1-1.3,6.3-1.4,9.6
		c-18.6,0.7-32.8,9.5-36.6,22.5c-5.3,18.6,12.1,40,38.9,47.6c0.1,0,0.2,0.1,0.3,0.1c0,0.2-0.2,0.4-0.2,0.5
		c-5.7,20.1,9.4,41.9,33.6,48.9c5.9,1.7,12,2.4,18,2C203.9,553,220.1,571.6,242.9,578.1L242.9,578.1z"/>
	<path class="st26" d="M222.6,312.4c-21.7,0-40.2,13-43.9,30.7c-5.8-2.2-12.1-3.4-18.4-3.4c-25.8,0-46.6,18.5-46.6,41.3
		c0,0.5,0,1,0.1,1.5c-17.6,1.8-31,16-31,32.9c0,16.1,12,29.8,28.5,32.7c0,0.6-0.1,1.2-0.1,1.8c0,11.3,11.3,20.5,25.3,20.5
		c6.1,0,11.9-1.7,16.4-4.9c9.5,13.2,25.2,21.1,42.1,21.1c10.3,0,20.3-3,28.8-8.5c7.4,6.1,17.1,9.5,27.2,9.5
		c13.4,0,25.9-5.9,33.3-15.8c4.4,1.4,9.1,2.2,13.8,2.2c23.2,0,42.1-16.9,42.1-37.8c0-2.7-0.4-5.5-1.1-8.2
		c15.1-5,24.8-15.6,24.9-27.2c0-16.6-19.4-30.2-43.3-30.2c-0.1,0-0.2,0-0.3,0c0-0.1,0-0.3,0-0.5c0-17.9-17.6-32.4-39.2-32.4
		c-5.3,0-10.5,0.9-15.3,2.6C260.8,323.9,243,312.4,222.6,312.4L222.6,312.4z"/>
	<path class="st29" d="M49.9,267.9c-29.2,0-54.2,17.5-59.2,41.4c-7.8-3-16.3-4.5-24.8-4.5c-34.7,0-62.9,24.9-62.9,55.6
		c0.1,0.7,0.1,1.4,0.1,2c-23.7,2.5-41.7,21.6-41.7,44.4c0,21.7,16.1,40.1,38.4,44c-0.1,0.8-0.1,1.6-0.1,2.5
		c0,15.2,15.3,27.6,34.1,27.6c8.2,0,16-2.3,22.2-6.6c12.8,17.8,34,28.5,56.7,28.5c13.9,0,27.4-4,38.8-11.4
		c10,8.2,23.1,12.8,36.7,12.8c18,0,34.9-8,44.9-21.3c6,1.9,12.3,2.9,18.6,2.9c31.3,0,56.7-22.8,56.7-50.9c-0.1-3.7-0.5-7.5-1.4-11.1
		c20.4-6.7,33.5-21,33.5-36.7c0-22.4-26.2-40.6-58.4-40.6c-0.1,0-0.3,0-0.4,0c0-0.2,0.1-0.5,0.1-0.6c0-24.2-23.7-43.7-52.9-43.7
		c-7.1,0-14.1,1.2-20.7,3.5C101.4,283.5,77.4,267.9,49.9,267.9L49.9,267.9z"/>
	<path class="st27" d="M115.5,300.5c-26.9-7.5-54.5,2.1-65.2,22.9c-6.4-4.8-13.8-8.4-21.7-10.6c-32-9-64.4,6.7-72.3,35
		c-0.1,0.7-0.3,1.3-0.4,1.9c-22.5-3.9-44.1,9.1-49.9,30.1c-5.6,20,4.5,41.2,24,50.5c-0.3,0.7-0.5,1.5-0.8,2.2
		c-3.9,14,7,29.4,24.3,34.3c7.5,2.1,15.4,2,22.1-0.4c7.2,19.7,24,35,44.9,40.9c12.8,3.6,26.3,3.4,38.7-0.5
		c7.1,10.1,18,17.7,30.5,21.2c16.6,4.7,34.2,1.7,46.9-8.1c5,3.3,10.6,5.9,16.4,7.5c28.9,8.1,58.2-6.3,65.4-32.3
		c0.9-3.4,1.4-7,1.5-10.6c20.5-0.9,36.3-10.7,40.4-25.2c5.8-20.7-13.6-44.2-43.3-52.5c-0.1,0-0.2-0.1-0.4-0.1
		c0.1-0.2,0.2-0.4,0.2-0.6c6.2-22.3-10.6-46.4-37.5-53.9c-6.6-1.8-13.3-2.6-20-2.1C158.9,328.1,140.8,307.6,115.5,300.5L115.5,300.5
		z"/>
	<path class="st25" d="M71.7,377.9c-14.7-7.5-31.7-5-40.3,5.7c-3.2-3.5-7-6.4-11.3-8.6c-17.5-8.9-38-3.5-45.8,11.9
		c-0.1,0.4-0.3,0.7-0.4,1c-12.6-4.8-26.5,0.2-32.3,11.7c-5.5,10.9-2.1,24.3,8.1,31.9c-0.2,0.4-0.5,0.8-0.7,1.2
		c-3.9,7.7,0.7,17.8,10.1,22.6c4.1,2.1,8.7,2.9,12.8,2.3c1.9,12.2,9.8,23,21.3,28.8c7,3.5,14.8,5,22.4,4.1
		c2.9,6.7,8.4,12.3,15.2,15.8c9.1,4.6,19.6,4.9,28,0.7c2.5,2.5,5.5,4.6,8.6,6.2c15.8,8,34.3,3,41.5-11.1c0.9-1.9,1.6-3.9,2.1-5.9
		c12,1.8,22.2-2,26.2-9.9c5.7-11.3-2.8-27.1-19-35.4c-0.1,0-0.1-0.1-0.2-0.1c0-0.1,0.1-0.2,0.2-0.3c6.2-12.2-0.8-28-15.5-35.5
		c-3.6-1.8-7.4-3-11.3-3.5C93.6,398.8,85.5,384.9,71.7,377.9L71.7,377.9z"/>
	<path class="st28" d="M557,535.8c-16,0-29.6,6-32.3,14.3c-4.2-1-8.9-1.6-13.5-1.6c-19,0-34.3,8.6-34.3,19.1c0,0.2,0,0.5,0.1,0.7
		c-13,0.8-22.8,7.4-22.8,15.3c0,7.5,8.8,13.8,20.9,15.1c0,0.3-0.1,0.6-0.1,0.8c0,5.2,8.4,9.5,18.6,9.5c4.5,0,8.7-0.8,12.1-2.3
		c7,6.1,18.5,9.8,31,9.8c7.6,0,14.9-1.4,21.2-3.9c5.4,2.8,12.6,4.4,20,4.4c9.8,0,19-2.7,24.5-7.3c3.3,0.7,6.7,1,10.2,1
		c17.1,0,31-7.8,31-17.5c0-1.3-0.3-2.6-0.8-3.8c11.1-2.3,18.3-7.2,18.3-12.6c0-7.7-14.3-14-31.9-14c-0.1,0-0.1,0-0.2,0
		c0-0.1,0-0.2,0-0.2c0-8.3-13-15-28.9-15c-3.9,0-7.7,0.4-11.3,1.2C585.1,541.2,572,535.8,557,535.8L557,535.8z"/>
</g>
</svg>
