<svg id="eP3hIBZWnYb1" xmlns="http://www.w3.org/2000/svg" xmlns:xlink="http://www.w3.org/1999/xlink" viewBox="0 0 1689.25 1175.66" shape-rendering="geometricPrecision" text-rendering="geometricPrecision" project-id="1c1ec01b30bc4d69bc973130a4a50e9c" export-id="04d13078e6854fbd92b095c081716ac2" cached="false" style="background-color:transparent">
<style><![CDATA[
#eP3hIBZWnYb10_tr {animation: eP3hIBZWnYb10_tr__tr 9000ms linear infinite normal forwards}@keyframes eP3hIBZWnYb10_tr__tr { 0% {transform: translate(1212.5709px,493.59866px) rotate(0deg)} 50% {transform: translate(1212.5709px,493.59866px) rotate(-4.914452deg)} 100% {transform: translate(1212.5709px,493.59866px) rotate(0deg)}} #eP3hIBZWnYb43 {animation: eP3hIBZWnYb43_c_o 3000ms linear infinite normal forwards}@keyframes eP3hIBZWnYb43_c_o { 0% {opacity: 0} 33.333333% {opacity: 1} 66.666667% {opacity: 0} 100% {opacity: 0}} #eP3hIBZWnYb44 {animation: eP3hIBZWnYb44_c_o 3000ms linear infinite normal forwards}@keyframes eP3hIBZWnYb44_c_o { 0% {opacity: 0} 33.333333% {opacity: 1} 66.666667% {opacity: 0} 100% {opacity: 0}} #eP3hIBZWnYb45 {animation: eP3hIBZWnYb45_c_o 3000ms linear infinite normal forwards}@keyframes eP3hIBZWnYb45_c_o { 0% {opacity: 0} 16.666667% {opacity: 0} 50% {opacity: 1} 83.333333% {opacity: 0} 100% {opacity: 0}} #eP3hIBZWnYb46 {animation: eP3hIBZWnYb46_c_o 3000ms linear infinite normal forwards}@keyframes eP3hIBZWnYb46_c_o { 0% {opacity: 0} 16.666667% {opacity: 0} 50% {opacity: 1} 83.333333% {opacity: 0} 100% {opacity: 0}} #eP3hIBZWnYb47 {animation: eP3hIBZWnYb47_c_o 3000ms linear infinite normal forwards}@keyframes eP3hIBZWnYb47_c_o { 0% {opacity: 0} 33.333333% {opacity: 0} 66.666667% {opacity: 1} 100% {opacity: 0}} #eP3hIBZWnYb48 {animation: eP3hIBZWnYb48_c_o 3000ms linear infinite normal forwards}@keyframes eP3hIBZWnYb48_c_o { 0% {opacity: 0} 23.333333% {opacity: 1} 50% {opacity: 0} 76.666667% {opacity: 1} 100% {opacity: 0}} #eP3hIBZWnYb49 {animation: eP3hIBZWnYb49_c_o 3000ms linear infinite normal forwards}@keyframes eP3hIBZWnYb49_c_o { 0% {opacity: 0} 33.333333% {opacity: 0} 66.666667% {opacity: 1} 100% {opacity: 0}} #eP3hIBZWnYb50 {animation: eP3hIBZWnYb50_c_o 3000ms linear infinite normal forwards}@keyframes eP3hIBZWnYb50_c_o { 0% {opacity: 0} 16.666667% {opacity: 0} 50% {opacity: 1} 83.333333% {opacity: 0} 100% {opacity: 0}} #eP3hIBZWnYb51 {animation: eP3hIBZWnYb51_c_o 3000ms linear infinite normal forwards}@keyframes eP3hIBZWnYb51_c_o { 0% {opacity: 0} 50% {opacity: 1} 100% {opacity: 0}} #eP3hIBZWnYb52 {animation: eP3hIBZWnYb52_c_o 3000ms linear infinite normal forwards}@keyframes eP3hIBZWnYb52_c_o { 0% {opacity: 0} 50% {opacity: 1} 100% {opacity: 0}} #eP3hIBZWnYb53 {animation: eP3hIBZWnYb53_c_o 3000ms linear infinite normal forwards}@keyframes eP3hIBZWnYb53_c_o { 0% {opacity: 0} 33.333333% {opacity: 1} 66.666667% {opacity: 0} 100% {opacity: 0}} #eP3hIBZWnYb54 {animation: eP3hIBZWnYb54_c_o 3000ms linear infinite normal forwards}@keyframes eP3hIBZWnYb54_c_o { 0% {opacity: 0} 33.333333% {opacity: 0} 66.666667% {opacity: 1} 100% {opacity: 0}} #eP3hIBZWnYb55 {animation: eP3hIBZWnYb55_c_o 3000ms linear infinite normal forwards}@keyframes eP3hIBZWnYb55_c_o { 0% {opacity: 0} 33.333333% {opacity: 1} 66.666667% {opacity: 0} 100% {opacity: 0}} #eP3hIBZWnYb56 {animation: eP3hIBZWnYb56_c_o 3000ms linear infinite normal forwards}@keyframes eP3hIBZWnYb56_c_o { 0% {opacity: 0} 33.333333% {opacity: 0} 66.666667% {opacity: 1} 100% {opacity: 0}} #eP3hIBZWnYb57 {animation: eP3hIBZWnYb57_c_o 3000ms linear infinite normal forwards}@keyframes eP3hIBZWnYb57_c_o { 0% {opacity: 0} 23.333333% {opacity: 1} 50% {opacity: 0} 76.666667% {opacity: 1} 100% {opacity: 0}}
]]></style>
<g><path d="M248.11,475.51c238.8-141.33,516.55-124.79,672.06-115.53c323.51,19.26,514.32,122.45,556.01,145.86c85.21,47.86,214.6,120.53,213.05,216.62-.28,17.35-4.97,44.26-157.62,213.73-79.59,88.37-119.39,132.55-145.5,150.19-147.49,99.66-340.17,90.12-381.07,88.09-238.89-11.83-272.1-128.29-479.8-114.09-129.58,8.86-159.79,57.14-266.75,37.55-97.39-17.84-188.81-79.2-232.1-161.74-60.35-115.05-1.94-223.06,24.25-271.5c10.19-18.85,60.5-108.13,197.46-189.18h.01Z" fill="#3686a9" stroke-width="0"/><path d="M347.7,462.8C561.9,336.03,811.03,350.87,950.52,359.17C1240.7,376.45,1411.85,469,1449.24,490c76.43,42.93,192.49,108.11,191.1,194.3-.25,15.56-4.46,39.7-141.38,191.71-71.39,79.26-107.09,118.89-130.51,134.72-132.29,89.39-305.12,80.83-341.8,79.02-214.28-10.61-244.06-115.07-430.36-102.33-116.23,7.95-143.33,51.25-239.26,33.68-87.35-16-169.35-71.04-208.19-145.08-54.13-103.19-1.74-200.08,21.75-243.53c9.14-16.91,54.27-96.99,177.12-169.69h-.01Z" fill="#4998b9" stroke-width="0"/><path d="M467.08,448.14C649.12,340.4,860.85,353.01,979.4,360.07c246.62,14.68,392.08,93.34,423.86,111.19c64.96,36.48,163.59,91.88,162.41,165.13-.21,13.23-3.79,33.74-120.16,162.93-60.68,67.36-91.01,101.04-110.92,114.49-112.43,75.97-259.32,68.7-290.49,67.15-182.11-9.02-207.43-97.79-365.76-86.97-98.78,6.75-121.81,43.56-203.34,28.62-74.24-13.6-143.93-60.37-176.94-123.3-46-87.7-1.48-170.04,18.49-206.97c7.77-14.37,46.12-82.43,150.53-144.22v.02Z" fill="#73b9d0" stroke-width="0"/></g><path d="M1310.99,241.19c12.27,58.18,26.43,86.18,37.49,100.97c2.1,2.82,7.7,9.98,12.5,20.99c1.67,3.83,8.73,20.75,8,50.49c0,0-.89,35.93-15,80.48-.66,2.09-2.49,7.72-3.5,15.5-1.33,10.29-.43,18.32,0,21.99c2.54,21.52,3.81,32.28,9,65.48c2.87,18.36,4.3,27.54,5,36.99.44,5.9,2.26,33.06-3,69.48-2.74,18.95-5.98,30.64-8.5,57.98-1.59,17.19-1.24,22.72.11,26.15.42,1.06.5.95.89,1.84c5.39,12.08.73,34.82-13,38.99-11.38,3.46-22.73-7.77-23.49-8.5-11.5-10.97-8.37-29.48-8-31.49c2.07-11.28,8-15.52,13.5-24.49c7.2-11.75,7.99-22.37,8-58.48.01-42.99.02-64.48-1-69.98-8.85-47.6-33.97-76.79-39.49-82.98-11.63-13.05-28.04-31.46-51.99-32.49-11.95-.51-21.69,3.48-26.49,5.5-16.44,6.93-25.56,18.12-36.99,32.49-16.84,21.18-25.23,40.68-27.99,47.49-9.9,24.34-12.21,44.52-13.5,56.49-.73,6.79-2.61,27.2.5,53.49c2.76,23.31,4.14,34.97,10,45.99c2.88,5.42,9.84,16.95,13.5,32.49.8,3.38,1.73,8.18.5,14-.37,1.76-2.23,10.58-9.5,16-5.98,4.46-12.82,4.3-26.49,4-11.73-.26-13.27-1.85-20.99-1-9.26,1.01-15.84,4.26-19.49,6-24.99,11.9-26.19,7.36-57.98,21.99-8.85,4.07-26.57,12.62-45.99,14-3.71.26-8.94.37-10-2-1.46-3.26,4.45-11.86,9.81-15.56c12.97-8.93,28.26-6.91,28.18-7.44-.07-.44-9.86.06-24.99,2-9.61,1.23-11.48,1.77-15.5,1-6.13-1.18-6.53-3.35-16.5-6.5-6.18-1.95-8.81-2-9.5-4-1.28-3.74,5.99-9.24,7-10c5.48-4.14,11.27-5.31,17.5-6.5c4.61-.88,6.02-1.36,10.62-1.63c7.21-.42,16.43.2,18.84.72c7.06,1.53,29.67,2.2,30.02,2.41c1.62.95-45.86-3.72-54.49-8-1.08-.53-3.04-4.1-2-6.5c1.73-4,11.5-3.08,21.49-2.5c13.64.79,27.33.11,40.99.5c19.19.55,31,.26,37.99,0c11.69-.44,25.08-1.36,37.99-8.5c4.13-2.29,7.87-5.02,10-9.5c3.16-6.65.57-13.48,0-17.5-1.75-12.37-2.03-14.43-5.5-47.99-3.22-31.17-5.42-25.81-6.5-36.49-1.64-16.29-.9-28.41.5-50.99.43-6.93,1.39-20.63,3.5-38.49c2.9-24.54,4.86-30.49,7.5-55.49c2.46-23.34,2-30.02,1.5-34.49-1.73-15.43-6.06-23.14-10-34.99-9.9-29.81-7.55-56.51-6.5-68.48.88-9.97,3.25-34.47,16.5-61.48c8.96-18.28,13.48-18.51,22.49-38.49c8.63-19.14,11.85-35.27,14.5-48.99s5.11-32.09,5-53.99c50.99,14,101.97,27.99,152.96,41.99l-.01.02Z" fill="#00a073" stroke="#447564" stroke-width="2" stroke-miterlimit="10"/><path d="M1197.52,252.69c.28,12.63-.94,18.57-1.5,20.99-3.25,14.08-10.46,23.37-13.5,27.49-16.76,22.72-25.77,49.41-28.49,57.48-4.83,14.31-14.35,42.52-7,75.98c2.93,13.34,6.82,31.05,21.99,43.99c13.27,11.32,27.8,12.7,51.99,15c28.1,2.67,46.9,4.46,65.48-7c20.21-12.46,27.79-32.97,31.49-42.99c10.89-29.48,4.91-55.93,1.5-70.98-2.05-9.04-9.68-42.76-32.49-72.48-4.19-5.46-9.98-12.2-14-23.49-5.47-15.4-4.35-29.97-2.5-39.99-26.16-8.16-52.32-16.33-78.48-24.49c4.16,16.78,5.28,30.72,5.5,40.49h.01Z" fill="#84b772" stroke-width="0"/><path d="M1221.51,278.18c-6.73,3.58-16.49,9.76-25.49,19.99-12.32,14-16.88,30.02-25.49,61.48-7.65,27.94-7.18,36.94-6.5,42.49.92,7.48,2.63,21.42,13.5,32.49c10.44,10.64,23.45,12.62,32.49,14c5.96.91,42.39,6.45,65.48-18c11.38-12.05,14.46-26.02,17-37.49c1.64-7.42,5-23.53,0-42.99-3.77-14.68-10.31-23.52-22.49-39.99-14.77-19.97-24.24-24.92-27.49-26.49-8.19-3.95-15.83-5.13-20.99-5.5l-.02.01Z" fill="#b4c670" stroke-width="0"/><path d="M1077.8,418.31c.54,44.98-3.72,115.32-33.24,192.9-57.15,150.17-156.15,188.64-141.09,241.45c22.36,78.38,283.41,144.13,429.3,14.85c0,0,115.1-101.99,83.98-354.15-.59-4.79-1.71-10.07-5.68-14.4-19.55-21.28-69.33,22.74-137.48,21.2-49.28-1.11-88.64-25.28-131.95-52.8-26.59-16.9-48.13-34.73-63.85-49.05h.01Z" fill="#6fb9d0" stroke-width="0"/><g id="eP3hIBZWnYb10_tr" transform="translate(1212.5709,493.59866) rotate(0)"><g transform="translate(-1212.570896,-493.598651)"><g><path d="M1317.97,522.79c-81.27-12.5-175.13-21.7-279.33-22.67-126.85-1.18-239.36,10.11-333.65,25.5-3.83-8.87-7.66-17.75-11.49-26.62c30.96-7.69,65.3-14.68,102.69-19.98c46.12-6.54,88.66-9.34,126.6-9.95-4.06-3.48-8.12-6.95-12.17-10.43c1.09-1.31,4.76-5.39,11.1-6.74c7.34-1.56,13.03,1.64,14.32,2.41c2.88,2.83,5.77,5.65,8.65,8.48c38.54.52,69.44,2.36,89.06,3.78c56.72,4.1,91.56,9.86,199.07,23.77c32.58,4.21,58.75,7.49,73.95,9.37.8.74,1.91,1.54,3.37,2.02c1.78.59,3.29.44,4.79.3c1.49-.14,2.81-.46,3.94-.83-2.73,2.25-5.47,4.51-8.2,6.76c9.01.45,13.52.99,13.53,1.63.01.54-3.18,1.16-9.57,1.84c2.34,2.3,4.68,4.6,7.02,6.91-1.23,1.48-2.46,2.97-3.69,4.45h.01Z" fill="#b2b2b2" stroke-width="0"/><ellipse rx="9.3" ry="4.5" transform="matrix(.99149-.13018 0.13018 0.99149 923.949009 457.051945)" fill="#ededed" stroke-width="0"/><ellipse rx="1.73" ry="0.84" transform="matrix(.99149-.13018 0.13018 0.99149 923.382887 457.124251)" fill="#575756" stroke-width="0"/><ellipse rx="0.67" ry="3.21" transform="matrix(.958621-.284685 0.284685 0.958621 748.519754 512.337919)" fill="#575756" stroke-width="0"/><ellipse rx="1.87" ry="8.88" transform="matrix(.983854-.178974 0.178974 0.983854 1302.315876 509.285193)" fill="#575756" stroke-width="0"/><ellipse rx="0.95" ry="4.53" transform="matrix(.983854-.178974 0.178974 0.983854 1266.815372 500.992621)" fill="#575756" stroke-width="0"/><ellipse rx="0.95" ry="4.53" transform="matrix(.983854-.178974 0.178974 0.983854 1214.316313 501.126655)" fill="#575756" stroke-width="0"/><ellipse rx="0.95" ry="4.53" transform="matrix(.983854-.178974 0.178974 0.983854 1022.43266 473.6122)" fill="#575756" stroke-width="0"/><ellipse rx="1.17" ry="5.53" transform="matrix(.983854-.178974 0.178974 0.983854 1030.861381 481.181223)" fill="#575756" stroke-width="0"/><ellipse rx="1.12" ry="10.89" transform="matrix(.953507-.301372 0.301372 0.953507 953.631813 476.469339)" fill="#575756" stroke-width="0"/><ellipse rx="1.87" ry="8.88" transform="matrix(.975149-.221549 0.221549 0.975149 881.928593 494.012956)" fill="#575756" stroke-width="0"/><ellipse rx="0.94" ry="4.46" transform="matrix(.931881-.362763 0.362763 0.931881 809.003505 483.441978)" fill="#575756" stroke-width="0"/><path d="M939.42,465.01c-.32,3.81-3.67,7.02-7.58,6.78-1.37-.12-2.73-.83-3.29-2.08c4.28-.98,6.48-3.93,10.87-4.7v0Z" fill="#3c3c3b" stroke-width="0"/></g><path d="M510.99,523.24c-1.36,32.08,14.98,104.09,98.89,107.66c83.91,3.56,106.29-66.81,107.66-98.89.82-19.36-37.74-33.93-101.9-36.66-64.17-2.72-103.82,8.53-104.64,27.89v0h-.01Z" fill="#3aaa35" stroke-width="0"/><path d="M500.11,497.19c-1.41,33.28,45.31,45.61,113.36,48.49c68.05,2.89,115.65-5.44,117.07-38.72.73-17.22-42.41-30.54-114-33.58-71.58-3.04-115.7,6.59-116.43,23.8v.01Z" fill="#008d36" stroke-width="0"/><ellipse rx="30.15" ry="108.11" transform="matrix(.042399-.999101 0.999101 0.042399 615.188521 505.892433)" fill="#36a9e1" stroke-width="0"/><path d="M565.35,608.95c-13.14-4.82-22.47-11.71-28.04-16.52c1.96,3.22,5.21,7.73,10.27,12.02c4.78,4.05,9.46,6.45,12.82,7.86c4.79,2.13,10.55,4.29,17.21,6.03c7.22,1.89,13.77,2.84,19.31,3.29-.03-2.38-.06-4.77-.09-7.15-7.27.03-18.6-.79-31.48-5.52v-.01Zm80.03,2c1.45-.53,4.11-1.66,6.07-3.68c1.66-1.71,2.11-3.33,2.24-4.28-8.56,1.9-24.97,4.78-46.21,3.75-19.69-.96-34.69-4.84-42.92-7.39.26,1.07.85,2.58,2.22,4.25c1.69,2.06,3.87,3.5,5.38,4.36c10.19,1.34,22.2,2.53,35.69,3.11c14.21.61,26.87.41,37.54-.11l-.01-.01Zm-27.61,6.72c-.23,2.37-.47,4.75-.7,7.12c5.55.02,12.17-.38,19.52-1.65c6.78-1.17,12.71-2.84,17.66-4.55c3.48-1.12,8.34-3.11,13.44-6.74c5.4-3.84,9.02-8.06,11.25-11.1-5.95,4.32-15.84,10.4-29.33,14.09-13.23,3.62-24.59,3.48-31.84,2.83Zm-69.67-36.7c-13.14-4.82-22.47-11.71-28.04-16.52c1.96,3.22,5.21,7.73,10.27,12.02c4.78,4.05,9.46,6.45,12.82,7.86c4.79,2.13,10.55,4.29,17.21,6.03c7.22,1.89,13.77,2.84,19.31,3.29-.03-2.38-.06-4.77-.09-7.15-7.27.03-18.6-.79-31.48-5.52v-.01Zm95.27,9.47c-.23,2.37-.47,4.75-.7,7.12c5.55.02,12.17-.38,19.52-1.65c6.78-1.17,12.71-2.84,17.66-4.55c3.48-1.12,8.34-3.11,13.44-6.74c5.4-3.84,9.02-8.06,11.25-11.1-5.95,4.32-15.84,10.4-29.33,14.09-13.23,3.62-24.59,3.48-31.84,2.83Zm-12.41,6.45c.78-.38,2.21-1.19,3.28-2.61.9-1.21,1.15-2.34,1.23-3-5.81,1.02-14.38,2.03-24.8,1.54-9.63-.46-17.51-2.04-23-3.47.13.75.44,1.8,1.16,2.95.89,1.43,2.05,2.41,2.86,3c5.46.87,11.89,1.61,19.12,1.92c7.62.33,14.41.1,20.14-.34l.01.01Zm-94.89-37.65c-9.91-3.94-16.92-9.69-21.08-13.71c1.45,2.72,3.86,6.51,7.65,10.09c3.58,3.39,7.1,5.37,9.64,6.52c3.61,1.75,7.96,3.52,12.99,4.92c5.46,1.52,10.42,2.25,14.62,2.57c0-2.03.01-4.05.02-6.08-5.52.12-14.11-.45-23.83-4.31h-.01Zm134.81,9.8c-.15,1.81-.29,3.63-.44,5.44c3.73.04,8.17-.23,13.1-1.18c4.55-.87,8.52-2.12,11.83-3.4c2.33-.84,5.58-2.34,9-5.1c3.61-2.92,6.02-6.13,7.5-8.45-3.98,3.28-10.59,7.89-19.63,10.65-8.87,2.71-16.49,2.56-21.36,2.03v.01Zm-18.12,6.87c.61-.44,1.71-1.35,2.4-2.75.59-1.18.64-2.2.61-2.8-3.7,1.86-10.87,4.97-20.61,6.08-9.02,1.03-16.19-.11-20.17-.99.22.63.63,1.51,1.41,2.42.96,1.12,2.08,1.82,2.85,2.22c4.75-.02,10.31-.28,16.48-1.03c6.5-.79,12.23-1.95,17.02-3.15h.01Zm-49.3,3.61c.66-.25,1.89-.81,2.94-1.97.89-.99,1.27-1.99,1.44-2.59-3.74.69-10.83,1.52-19.43-.44-7.97-1.82-13.66-5.21-16.73-7.34-.02.7.04,1.7.4,2.85.45,1.42,1.16,2.47,1.68,3.11c4.02,1.48,8.81,2.97,14.28,4.17c5.76,1.26,10.98,1.91,15.43,2.23l-.01-.02Zm-75.27-38.65c-7.27-2.89-12.4-7.1-15.45-10.05c1.06,1.99,2.83,4.77,5.61,7.4c2.62,2.48,5.2,3.94,7.07,4.78c2.64,1.28,5.83,2.58,9.52,3.61c4,1.11,7.64,1.65,10.72,1.88c0-1.49,0-2.97.01-4.46-4.05.09-10.35-.33-17.47-3.16h-.01Zm156.74,7.92c-.1,1.26-.2,2.52-.3,3.78c2.59.03,5.67-.16,9.09-.82c3.16-.6,5.92-1.47,8.22-2.36c1.62-.58,3.88-1.63,6.25-3.54c2.51-2.02,4.18-4.25,5.21-5.87-2.76,2.28-7.35,5.48-13.63,7.4-6.16,1.88-11.45,1.78-14.83,1.41h-.01Zm-10.3,5.46c.62-.36,1.74-1.1,2.47-2.21.62-.94.7-1.74.69-2.2-5.71,1.72-12.65,3.35-20.62,4.31-7.59.92-14.4,1.01-20.15.76.2.49.58,1.16,1.34,1.84.93.85,2.03,1.36,2.78,1.65c4.73-.14,10.28-.5,16.45-1.25c6.5-.79,12.24-1.85,17.05-2.91l-.01.01Zm-87.59,1.99c.7-.13,2-.46,3.06-1.26.9-.68,1.24-1.4,1.38-1.84-5.96-.28-13.04-1.05-20.88-2.79-7.46-1.66-13.92-3.84-19.26-5.99.03.53.17,1.29.65,2.18.59,1.11,1.46,1.96,2.07,2.48c4.51,1.44,9.86,2.95,15.93,4.3c6.4,1.42,12.16,2.33,17.04,2.92h.01Zm38.1,3.8c.47-.2,1.33-.63,1.95-1.36.52-.61.65-1.18.68-1.51-4.23.73-9.32,1.3-15.09,1.29-5.5,0-10.37-.52-14.45-1.2.1.37.32.88.8,1.43.59.68,1.33,1.15,1.84,1.42c3.39.31,7.38.54,11.85.53c4.71,0,8.9-.26,12.42-.61v.01Z" fill="#dedc00" stroke-width="0"/><path d="M564.24,517.43c-12.4.63-22.69,2.49-30.34,4.31c3.32-1.79,7.67-3.83,13.07-5.63c5.28-1.76,10.16-2.85,14.17-3.53c4.95-.68,10.9-1.22,17.65-1.31c7.45-.1,14.03.38,19.42,1.02l-.28,6.65c-8.49-1.2-20.09-2.21-33.7-1.51h.01Zm70.6,8.89c4.73.32,9.04.65,14.03,3.07c3.2,1.55,5.55,3.42,7.08,4.8-13.65-1.41-28.83-2.44-45.38-3.14-15.85-.67-30.48-.94-43.75-.75.79-.9,2.02-2.09,3.78-3.1c2.76-1.58,5.38-1.88,6.81-1.94c3.44-.34,8.61-.76,14.92-.85c5.8-.09,7.11.18,19.05.66c2.39.1,11.63.46,23.45,1.25h.01Zm-84.38-2.23c-4.13.04-8.18.04-12.16-.02c3.25,1.48,7.38,3.02,12.31,4.07c3.38.72,6.48,1.07,9.18,1.22.55-.8,1.14-1.62,1.78-2.45.86-1.13,1.72-2.18,2.56-3.14-4.45.16-9.01.27-13.67.32Zm79.51-3.87l.26-6.04c5.43-.15,12.02-.05,19.44.65c6.72.63,12.61,1.6,17.49,2.62c3.94.94,8.72,2.31,13.84,4.34c5.24,2.07,9.41,4.26,12.57,6.15-7.48-2.27-17.59-4.78-29.89-6.35-13.51-1.73-25.15-1.76-33.71-1.36v-.01Zm26.19,8.96c.76,1.03,1.52,2.15,2.29,3.35.56.88,1.08,1.75,1.56,2.59c2.7.08,5.82,0,9.25-.44c5-.63,9.25-1.81,12.61-3.01-3.96-.28-8-.62-12.11-1.01-4.64-.44-9.17-.94-13.59-1.48h-.01Zm-27.32-27.06c3,.25,5.74.51,8.87,2.85c2.01,1.5,3.47,3.33,4.42,4.69-8.65-1.19-18.28-1.99-28.78-2.44s-19.35-.47-27.78-.07c.52-.92,1.32-2.12,2.45-3.16c1.78-1.62,3.45-1.97,4.35-2.05c2.19-.4,5.48-.89,9.49-1.08c3.69-.18,4.52.07,12.09.36c1.52.06,7.38.28,14.88.89l.01.01Zm-90.08,3.02c-8.23,2.3-14.84,5.52-19.68,8.34c1.94-2.22,4.52-4.81,7.86-7.32c3.26-2.45,6.36-4.18,8.94-5.39c3.22-1.34,7.12-2.68,11.65-3.68c4.99-1.11,9.49-1.52,13.22-1.62.3,2.2.6,4.4.9,6.6-5.9-.04-13.86.54-22.89,3.06v.01ZM597.3,486.3c2-.16,3.84-.26,6.27,1.63c1.56,1.21,2.82,2.82,3.67,4.04-5.86-.03-12.29.47-19.25,1.42-6.66.92-12.75,2.11-18.2,3.62.19-.97.51-2.27,1.09-3.44.9-1.83,1.93-2.4,2.51-2.6c1.37-.68,3.44-1.61,6.04-2.33c2.39-.66,2.97-.53,7.98-1.25c1-.14,4.88-.71,9.89-1.1v.01Zm57.91,5.61c1.95.5,3.71,1,5.4,3.58c1.08,1.65,1.75,3.58,2.16,5.01-5.53-1.93-11.78-3.56-18.66-4.91-6.59-1.3-12.74-2.14-18.39-2.49.49-.86,1.22-1.98,2.15-2.9c1.44-1.44,2.61-1.64,3.22-1.64c1.52-.2,3.78-.4,6.47-.24c2.47.15,2.98.46,7.95,1.41.99.19,4.85.92,9.71,2.17l-.01.01Zm17.03,12.07c.49-2.16.97-4.33,1.46-6.49c3.71.41,8.15,1.21,13.04,2.73c4.42,1.38,8.2,3.05,11.29,4.65c2.47,1.43,5.42,3.41,8.46,6.13c3.11,2.78,5.47,5.58,7.21,7.96-4.59-3.23-10.9-6.99-18.9-9.98-8.79-3.28-16.67-4.53-22.55-4.99l-.01-.01Z" fill="#83d0f5" stroke-width="0"/></g></g><path d="M1336.62,252.72c19.47,19.12,40.09,41.4,60.73,67.11c15.48,19.27,29.03,38.05,40.86,55.86.44,2.88.77,7.15-.13,12.11-2.16,11.88-9.91,19.53-15.62,25.01-17.66,16.96-26.5,25.43-34.49,31.87-30.23,24.34-45.35,36.51-54.74,40.11-2.33.9-7.74,2.73-11.62,7.87-4.22,5.59-2.45,9.54-5.62,12-6.01,4.65-15.2-7.25-26.99-4.87-1.14.71-2.95,1.9-5.05,3.54-13.89,10.87-17.42,23.71-21.29,22.7-2.32-.6-2.9-5.68-3.09-7.31-.2-1.7-.22-4.43,1.97-9.93c1.3-3.25,3.57-7.98,7.59-13.12-2.74,2.85-6.79,7.26-11.25,13.03-10.06,13.01-14.05,22.35-17.62,21.46-2.26-.56-3.06-4.9-3.56-7.59-.91-4.89.36-8.77,1.41-12c.68-2.08,2.17-5.99,5.26-10.05c1.89-2.48,3.74-4.14,7.44-7.44c2.56-2.29,4.78-4.08,6.33-5.29-2.63,1.38-6.55,3.65-10.87,7.03-8.41,6.58-11.93,12.38-14.62,11.34-2.22-.86-2.24-5.73-2.25-7.87-.04-9.61,5.33-16.81,8.25-20.62c3.02-3.94,7.67-10.01,16.21-13.87c1.22-.55,17.58-7.68,31.21-.56c5.15,2.69,7.87,6.36,15.18,7.69c0,0,5.09.92,9.75,0c12.94-2.57,20.16-25.25,23.24-33.37c5.7-15,18.15-35.12,48.36-55.49-9.49-7.08-23.97-18.58-40.11-34.49-17.58-17.33-24.44-27.4-42.36-46.49-9.99-10.64-25.12-25.89-45.36-43.11c25.37-6,50.74-12,76.1-18c2.25,4.25,4.5,8.5,6.75,12.75v-.01Z" fill="#00a073" stroke="#457664" stroke-width="2" stroke-miterlimit="10"/><path d="M1129.05,222.9c-23.69,13.54-49.29,29.85-75.8,49.47-19.87,14.71-37.74,29.42-53.72,43.64-1.16,2.67-2.56,6.72-2.95,11.74-.93,12.04,4.62,21.4,8.75,28.16c12.77,20.9,19.17,31.33,25.26,39.59c23.06,31.23,34.58,46.84,42.74,52.71c2.03,1.46,6.79,4.61,9.24,10.57c2.66,6.48-.06,9.85,2.39,13.03c4.63,6.02,16.54-3.14,27.35,2.15.92.98,2.37,2.59,3.98,4.71c10.67,14.04,10.82,27.36,14.82,27.37c2.39,0,4.25-4.75,4.85-6.28.62-1.6,1.34-4.23.62-10.11-.43-3.48-1.42-8.62-4.01-14.62c1.93,3.45,4.72,8.75,7.57,15.46c6.42,15.14,7.91,25.19,11.59,25.24c2.33.03,4.21-3.96,5.37-6.44c2.12-4.49,1.88-8.57,1.69-11.96-.13-2.18-.58-6.34-2.54-11.06-1.2-2.88-2.57-4.95-5.3-9.09-1.89-2.87-3.58-5.16-4.78-6.72c2.2,2.01,5.41,5.19,8.73,9.56c6.46,8.51,8.39,15.01,11.26,14.68c2.37-.27,3.62-4.97,4.18-7.04c2.48-9.29-.88-17.62-2.74-22.04-1.92-4.57-4.88-11.63-12.16-17.54-1.04-.84-15.05-11.9-30.04-8.48-5.67,1.3-9.23,4.15-16.64,3.57c0,0-5.16-.4-9.43-2.48-11.86-5.77-13.08-29.55-14-38.18-1.7-15.96-8.63-38.58-32.67-65.95c10.98-4.44,27.91-11.88,47.56-23.16c21.41-12.29,30.6-20.29,52.79-34.19c12.37-7.75,30.87-18.66,54.83-30.17-23.01-12.25-46.02-24.5-69.03-36.75-3.26,3.54-6.51,7.08-9.77,10.61h.01Z" fill="#00a073" stroke="#457664" stroke-width="2" stroke-miterlimit="10"/><g><path d="M1259.84,19.88c-5.15-1.44-8.33-3.57-11.2-5.27-13.57-8.05-26.97-10.71-32.52-11.81-8.04-1.59-13.95-2.7-21.46-.81-1.58.4-7.86,2.1-14.36,7.09-5.48,4.21-8.45,8.71-10.2,11.3-3.54,5.23-14.28,21.15-25.62,31.9-4.84,4.59-12.19,11.56-23.78,16.35-9.51,3.93-15.1,3.59-27.59,9.79-5.86,2.9-9.42,4.71-13.37,8.43-8.52,8.05-11.1,17.8-12.14,21.92-3.03,12.03-.7,21.87.47,26.56c3.48,13.96,11.03,22.97,16.58,29.45c6.18,7.21,7.89,7.11,27.32,23.38c12.27,10.27,11.74,10.44,26.01,22.46c13.57,11.42,20.35,17.14,26.19,21.29c9.33,6.64,22.44,15.97,41.67,22.76c19.47,6.88,36.2,7.97,44.82,8.13c23.02.41,40.01-4.99,54.28-9.52c14.89-4.73,38.01-13.92,51.28-22.31c1.49-.95,6.12-3.94,12.89-6.83c7.83-3.34,13.74-4.49,16.6-5.19c20.15-4.97,34.39-23.76,36.14-26.13c4.23-5.71,11.72-16.12,12.43-31.11.21-4.32.57-14.69-5.45-24.55-3.48-5.71-6.68-7.29-18.94-16.85-12.37-9.66-18.56-14.48-22.28-18.55-6.75-7.37-10.74-16.63-18.73-35.16-8.59-19.93-8.43-24.01-15.06-31.62-2.46-2.82-9.38-10.58-20.9-14.99-15.59-5.97-31.98-2.87-39.46-1.45-3.85.73-10.02,2.17-18.96,2.56-7.02.31-11.08-.22-14.68-1.23l.02.01Z" fill="#00a073" stroke="#447564" stroke-width="2" stroke-miterlimit="10"/><ellipse rx="38.87" ry="41.65" transform="matrix(.984959-.172789 0.172789 0.984959 1196.511967 68.896992)" fill="#fff" stroke-width="0"/><ellipse rx="19.86" ry="21.28" transform="matrix(.984959-.172789 0.172789 0.984959 1199.243039 75.505857)" fill="#1c3e1e" stroke-width="0"/><ellipse rx="37.96" ry="40.67" transform="matrix(.984959-.172789 0.172789 0.984959 1317.966469 90.071321)" fill="#fff" stroke-width="0"/><ellipse rx="19.86" ry="21.28" transform="matrix(.984959-.172789 0.172789 0.984959 1316.827602 94.265278)" fill="#1d3e20" stroke-width="0"/><circle r="7.87" transform="translate(1215.77 147.31)" fill="none" stroke="#008d36" stroke-width="3" stroke-miterlimit="10"/><circle r="7.87" transform="translate(1281.26 156.91)" fill="none" stroke="#008d36" stroke-width="3" stroke-miterlimit="10"/><g><path d="M1194.62,200.16c5.76-12.14,37.29-9.12,56.25-4.5c8.24,2.01,42.26,10.29,42.75,24.75.33,9.79-14.86,17.66-19.59,20.11-15.06,7.81-29.72,5.49-35.51,4.5-2.68-.46-15.83-2.87-28.6-12.92-5.9-4.64-12.63-10.09-15.06-19.6-.94-3.69-2.13-8.37-.24-12.35v.01Z" fill="#f7bfd9" stroke="#1d1d1b" stroke-miterlimit="10"/><path d="M1208.19,229.73c3.47,3.73,11.72,11.56,25,15.17c18.95,5.15,34.66-1.95,38.68-3.91-1.35-1.85-4.47-5.59-9.92-8.04-1.76-.79-7.07-2.93-13.91-1.99-2.77.38-4.99,1.16-6.47,1.79-1.57-1.88-3.22-3.19-4.71-4.13-11.45-7.14-26.67.13-28.66,1.12l-.01-.01Z" fill="#f195bf" stroke="#1d1d1b" stroke-miterlimit="10"/></g></g><path id="eP3hIBZWnYb43" d="M1140.95,529.3c-32.94,6.18-68.19,1.46-97.86-14.33-4.21-2.29-8.31-4.76-12.2-7.54c6.48,3.03,12.95,5.9,19.65,8.32c28.76,11.05,59.73,14.38,90.41,13.54v0v.01Z" transform="matrix(.869858-.06089 0.069829 0.997559 118.034676 75.390423)" opacity="0" fill="#3686a8" stroke-width="0"/><path id="eP3hIBZWnYb44" d="M1380.32,550.4c-31.22,12.18-66.74,14.08-98.82,4.07-4.56-1.47-9.05-3.14-13.38-5.15c6.93,1.77,13.82,3.4,20.86,4.53c30.31,5.53,61.36,3.05,91.35-3.45v0h-.01Z" opacity="0" fill="#3686a8" stroke-width="0"/><path id="eP3hIBZWnYb45" d="M1218.05,556.04c-31.99,9.98-67.55,9.41-98.87-2.8-4.45-1.79-8.81-3.76-12.99-6.06c6.79,2.25,13.55,4.35,20.49,5.97c29.86,7.62,61,7.31,91.37,2.9v0-.01Z" opacity="0" fill="#3686a8" stroke-width="0"/><path id="eP3hIBZWnYb46" d="M1343.03,587.43c-31.99,9.98-67.55,9.41-98.87-2.8-4.45-1.79-8.81-3.76-12.99-6.06c6.79,2.25,13.55,4.35,20.49,5.97c29.86,7.62,61,7.31,91.37,2.9v0-.01Z" opacity="0" fill="#3686a8" stroke-width="0"/><path id="eP3hIBZWnYb47" d="M1218.05,594.91c-29.72,9.76-63.98,8.04-91.55-7.26c3.75,1.15,7.45,2.3,11.21,3.27c13.01,3.48,26.39,5.54,39.84,6.1c13.54.52,27-.5,40.5-2.11v0Z" opacity="0" fill="#3686a8" stroke-width="0"/><path id="eP3hIBZWnYb48" d="M545.85,882.11c-29.72,9.76-63.98,8.04-91.55-7.26c3.75,1.15,7.45,2.3,11.21,3.27c13.01,3.48,26.39,5.54,39.84,6.1c13.54.52,27-.5,40.5-2.11v0Z" opacity="0" fill="#3686a8" stroke-width="0"/><path id="eP3hIBZWnYb49" d="M1218.05,594.91c-29.72,9.76-63.98,8.04-91.55-7.26c3.75,1.15,7.45,2.3,11.21,3.27c13.01,3.48,26.39,5.54,39.84,6.1c13.54.52,27-.5,40.5-2.11v0Z" opacity="0" fill="#3686a8" stroke-width="0"/><path id="eP3hIBZWnYb50" d="M1207.03,929.69c-31.94,15.01-68.37,21-103.39,16.1-9.77-1.44-19.47-3.61-28.78-6.9c5.54,1.02,11.06,1.99,16.61,2.7c39.44,5.41,77.78,0,115.56-11.9v0Z" opacity="0" fill="#3686a8" stroke-width="0"/><path id="eP3hIBZWnYb51" d="M279,902.95c-30.67-20.9-55.65-50.58-70.09-84.84-3.96-9.6-7.24-19.52-9.3-29.7c3.02,8.34,6.24,16.54,10.07,24.52c15.9,34.84,40.82,64.72,69.32,90.02v0Z" opacity="0" fill="#3686a8" stroke-width="0"/><path id="eP3hIBZWnYb52" d="M979.84,1030.42c-36.82,4.63-75.19-1.1-108.69-17.23-9.32-4.57-18.35-9.85-26.63-16.11c5.2,2.83,10.41,5.59,15.74,8.1c37.92,18.25,77.74,25.1,119.58,25.25v0-.01Z" opacity="0" fill="#3686a8" stroke-width="0"/><path id="eP3hIBZWnYb53" d="M1575.15,975.2c-19.94,40.71-47.2,77.99-80.27,109.01-27.54,25.49-59.19,46.98-93.75,61.72c9.14-4.84,18.14-9.9,26.89-15.35c62.73-38.75,110.03-92.12,147.13-155.39v0v.01Z" opacity="0" fill="#3686a8" stroke-width="0"/><path id="eP3hIBZWnYb54" d="M1597.43,1032.69c-18.75,39.97-48.46,75.15-85.65,99.12-10.43,6.63-21.37,12.53-32.84,17.13c6.16-3.42,12.25-6.94,18.15-10.72c42.33-26.7,74.47-63.01,100.34-105.53v0Z" opacity="0" fill="#3686a8" stroke-width="0"/><path id="eP3hIBZWnYb55" d="M183.24,1114.87c-44.81-9.91-87.38-30.79-121.94-61.08-13.36-11.93-25.77-25.16-36.12-39.81c7.92,8.92,16.11,17.53,24.93,25.52c15.86,14.77,33.44,27.89,52.01,39.05c25.41,15.41,52.93,27.01,81.12,36.31v0v.01Z" opacity="0" fill="#3686a8" stroke-width="0"/><path id="eP3hIBZWnYb56" d="M144.02,1141.51c-34.67-6.9-67.63-24.15-92.18-49.73-5.68-5.86-10.89-12.19-15.44-18.96c5.55,5.94,11.19,11.71,17.27,17.08c25.83,23.74,57.37,40.12,90.35,51.61v0Z" opacity="0" fill="#3686a8" stroke-width="0"/><path id="eP3hIBZWnYb57" d="M534.03,1101.93c29.99-8.9,64.18-6.18,91.3,9.9-3.71-1.25-7.38-2.51-11.11-3.59-12.9-3.85-26.22-6.3-39.65-7.25-13.52-.91-27-.28-40.54.94v0Z" opacity="0" fill="#3686a8" stroke-width="0"/></svg>
