<svg id="eyZedvWjNC21" xmlns="http://www.w3.org/2000/svg" xmlns:xlink="http://www.w3.org/1999/xlink" viewBox="0 0 1163.6 1170.96" shape-rendering="geometricPrecision" text-rendering="geometricPrecision" project-id="2b3cef2859b14d78bb4cfff9edca821e" export-id="a4042fc8197f495f8b838884051484e5" cached="false" style="background-color:transparent">
<style><![CDATA[
#eyZedvWjNC28 {animation: eyZedvWjNC28_c_o 3000ms linear infinite normal forwards}@keyframes eyZedvWjNC28_c_o { 0% {opacity: 0} 40% {opacity: 0} 66.666667% {opacity: 1} 86.666667% {opacity: 0} 100% {opacity: 0}} #eyZedvWjNC29 {animation: eyZedvWjNC29_c_o 3000ms linear infinite normal forwards}@keyframes eyZedvWjNC29_c_o { 0% {opacity: 0} 10% {opacity: 0} 36.666667% {opacity: 1} 60% {opacity: 0} 100% {opacity: 0}} #eyZedvWjNC210 {animation: eyZedvWjNC210_c_o 3000ms linear infinite normal forwards}@keyframes eyZedvWjNC210_c_o { 0% {opacity: 0} 23.333333% {opacity: 1} 50% {opacity: 0} 73.333333% {opacity: 1} 100% {opacity: 0}} #eyZedvWjNC211 {animation: eyZedvWjNC211_c_o 3000ms linear infinite normal forwards}@keyframes eyZedvWjNC211_c_o { 0% {opacity: 0} 26.666667% {opacity: 0} 60% {opacity: 1} 100% {opacity: 0}} #eyZedvWjNC212 {animation: eyZedvWjNC212_c_o 3000ms linear infinite normal forwards}@keyframes eyZedvWjNC212_c_o { 0% {opacity: 0} 33.333333% {opacity: 0} 66.666667% {opacity: 1} 100% {opacity: 0}} #eyZedvWjNC213 {animation: eyZedvWjNC213_c_o 3000ms linear infinite normal forwards}@keyframes eyZedvWjNC213_c_o { 0% {opacity: 0} 40% {opacity: 1} 90% {opacity: 0} 100% {opacity: 0}} #eyZedvWjNC214 {animation: eyZedvWjNC214_c_o 3000ms linear infinite normal forwards}@keyframes eyZedvWjNC214_c_o { 0% {opacity: 0} 16.666667% {opacity: 0} 50% {opacity: 1} 83.333333% {opacity: 0} 100% {opacity: 0}} #eyZedvWjNC215 {animation: eyZedvWjNC215_c_o 3000ms linear infinite normal forwards}@keyframes eyZedvWjNC215_c_o { 0% {opacity: 0} 33.333333% {opacity: 1} 66.666667% {opacity: 0} 100% {opacity: 0}} #eyZedvWjNC217 {animation: eyZedvWjNC217_c_o 9000ms linear infinite normal forwards}@keyframes eyZedvWjNC217_c_o { 0% {opacity: 0.3} 50% {opacity: 1} 100% {opacity: 0.3}} #eyZedvWjNC218 {animation: eyZedvWjNC218_c_o 5000ms linear infinite normal forwards}@keyframes eyZedvWjNC218_c_o { 0% {opacity: 0.5} 50% {opacity: 1} 100% {opacity: 0.5}}
]]></style>
<defs><linearGradient id="eyZedvWjNC217-fill" x1="421.8" y1="569.6" x2="704.44" y2="569.6" spreadMethod="pad" gradientUnits="userSpaceOnUse" gradientTransform="translate(0 0)"><stop id="eyZedvWjNC217-fill-0" offset="0%" stop-color="rgba(246,246,246,0)"/><stop id="eyZedvWjNC217-fill-1" offset="6%" stop-color="rgba(245,245,245,0.04)"/><stop id="eyZedvWjNC217-fill-2" offset="14%" stop-color="rgba(244,244,244,0.13)"/><stop id="eyZedvWjNC217-fill-3" offset="26%" stop-color="rgba(242,242,242,0.29)"/><stop id="eyZedvWjNC217-fill-4" offset="38%" stop-color="rgba(239,239,239,0.5)"/><stop id="eyZedvWjNC217-fill-5" offset="48%" stop-color="rgba(237,237,237,0.7)"/><stop id="eyZedvWjNC217-fill-6" offset="54%" stop-color="rgba(238,238,238,0.6)"/><stop id="eyZedvWjNC217-fill-7" offset="70%" stop-color="rgba(241,241,241,0.35)"/><stop id="eyZedvWjNC217-fill-8" offset="83%" stop-color="rgba(243,243,243,0.16)"/><stop id="eyZedvWjNC217-fill-9" offset="94%" stop-color="rgba(245,245,245,0.04)"/><stop id="eyZedvWjNC217-fill-10" offset="100%" stop-color="rgba(246,246,246,0)"/></linearGradient><radialGradient id="eyZedvWjNC219-fill" cx="0" cy="0" r="164.83" spreadMethod="pad" gradientUnits="userSpaceOnUse" gradientTransform="matrix(1.62 0 0 0.39 -1.9688 -0.5037)"><stop id="eyZedvWjNC219-fill-0" offset="0%" stop-color="#ededed"/><stop id="eyZedvWjNC219-fill-1" offset="11%" stop-color="rgba(237,237,237,0.98)"/><stop id="eyZedvWjNC219-fill-2" offset="24%" stop-color="rgba(238,238,238,0.92)"/><stop id="eyZedvWjNC219-fill-3" offset="38%" stop-color="rgba(240,240,240,0.81)"/><stop id="eyZedvWjNC219-fill-4" offset="53%" stop-color="rgba(243,243,243,0.66)"/><stop id="eyZedvWjNC219-fill-5" offset="68%" stop-color="rgba(246,246,246,0.48)"/><stop id="eyZedvWjNC219-fill-6" offset="84%" stop-color="rgba(250,250,250,0.25)"/><stop id="eyZedvWjNC219-fill-7" offset="100%" stop-color="rgba(255,255,255,0)"/></radialGradient></defs><g><path d="M160.22,52.7C314.57,-2.13,530.67,2,530.67,2c8.21.16,326.77,6.24,494.27,100c15.75,8.82,55.31,32.48,57.38,69.01c2.65,46.73-58.57,70.18-59.39,129.58-.39,28.27,13.12,48.47,37.25,84.51c53.42,79.81,92.27,73.76,101.67,121.13c7.74,38.99-11.3,79.75-35.23,130.99-33.59,71.91-56.27,71.97-59.39,108.45-5.67,66.21,66.97,90.06,70.47,166.2c2.96,64.35-48.12,132.8-100.67,161.97-47.23,26.22-66.53,7.15-162.16,23.94-95.51,16.78-111.11,41.93-194.37,60.56-49.73,11.13-122.42,19.68-216.9,4.23-45.28-4.8-90.57-9.59-135.85-14.39-101.98-12.45-129.59-37.61-135.32-58.85-8.44-31.26,20.63-66.52,6.04-121.13-14.98-56.07-95.66-17.62-149.99-83.1-46.97-56.61-62.1-176.26-35.24-256.34c35.95-107.18,133.24-102.18,135.9-167.61c3.08-75.86-126.66-109.08-129.86-216.9-1.26-42.56,17.75-77.55,29.19-98.59C82.53,83,132.96,62.38,160.21,52.7h.01Z" fill="#3686a9" stroke-width="0"/></g><g><path d="M218.53,49.04c133-52.96,319.21-48.97,319.21-48.97c7.08.15,281.56,6.02,425.9,96.58c13.57,8.51,47.66,31.37,49.44,66.65c2.28,45.13-50.47,67.78-51.18,125.14-.34,27.31,11.31,46.81,32.09,81.61c46.03,77.08,79.5,71.24,87.61,116.98c6.67,37.65-9.74,77.02-30.36,126.5-28.94,69.44-48.49,69.5-51.18,104.74-4.88,63.94,57.7,86.98,60.72,160.51c2.55,62.15-41.47,128.26-86.74,156.43-40.7,25.32-57.33,6.9-139.72,23.12-82.3,16.2-95.74,40.49-167.48,58.49-42.85,10.75-105.48,19-186.9,4.08-39.02-4.63-78.04-9.26-117.06-13.89-87.87-12.02-111.66-36.32-116.6-56.84-7.27-30.19,17.77-64.24,5.2-116.98-12.91-54.15-82.43-17.01-129.24-80.25-40.47-54.67-53.51-170.22-30.36-247.56c30.98-103.51,114.81-98.68,117.1-161.87c2.66-73.27-109.14-105.34-111.9-209.48-1.09-41.1,15.3-74.89,25.15-95.22c29.35-60.51,72.8-80.43,96.28-89.78l.02.01Z" fill="#4a99b9" stroke-width="0"/></g><g><path d="M268.51,47.63C383.21,-1.73,543.8,1.99,543.8,1.99c6.1.14,242.83,5.61,367.31,90c11.7,7.94,41.1,29.24,42.64,62.12c1.97,42.06-43.52,63.17-44.14,116.63-.29,25.45,9.75,43.62,27.68,76.06c39.7,71.83,68.57,66.39,75.56,109.02c5.75,35.09-8.4,71.78-26.18,117.89-24.96,64.72-41.82,64.77-44.14,97.61-4.21,59.59,49.77,81.06,52.37,149.59c2.2,57.92-35.76,119.53-74.81,145.78-35.1,23.6-49.44,6.43-120.5,21.55-70.98,15.1-82.57,37.74-144.44,54.51-36.96,10.02-90.97,17.71-161.19,3.8-33.65-4.32-67.3-8.63-100.96-12.95-75.78-11.2-96.3-33.85-100.56-52.97-6.27-28.14,15.33-59.87,4.49-109.02-11.13-50.47-71.09-15.86-111.46-74.79-34.9-50.95-46.15-158.63-26.18-230.72c26.72-96.46,99.02-91.97,100.99-150.85c2.29-68.28-94.12-98.17-96.5-195.22-.94-38.3,13.19-69.8,21.69-88.74c25.31-56.4,62.78-74.95,83.04-83.67v.01Z" fill="#71b9d0" stroke-width="0"/><path id="eyZedvWjNC28" d="M140.94,964.07c-33.29,1.38-67.31-8.31-94.24-28.09-3.81-2.86-7.5-5.87-10.92-9.17c5.94,3.9,11.9,7.66,18.15,10.99c26.72,14.98,56.71,22.68,87.01,26.27v0Z" opacity="0" fill="#3686a8" stroke-width="0"/><path id="eyZedvWjNC29" d="M1043.1,1118.55c-29.7,15.1-64.66,20.43-97.38,13.64-4.65-1.02-9.26-2.23-13.74-3.8c7.03,1.08,14.01,2.01,21.08,2.45c30.53,2.52,61.01-2.95,90.05-12.29v0h-.01Z" opacity="0" fill="#3686a8" stroke-width="0"/><path id="eyZedvWjNC210" d="M207.37,1142.69c-14.85.72-30.5-6.37-38.82-18.85c6.19,3.95,12.18,7.65,18.74,10.75c6.53,3.17,13.24,5.47,20.09,8.1v0h-.01Z" opacity="0" fill="#3686a8" stroke-width="0"/><path id="eyZedvWjNC211" d="M220.74,739.04c-19.28-27.18-29.66-60.99-27.71-94.35.33-4.75.85-9.49,1.75-14.15-.04,7.11.05,14.15.65,21.21c1.97,30.57,11.83,59.92,25.31,87.29v0Z" opacity="0" fill="#3686a8" stroke-width="0"/><path id="eyZedvWjNC212" d="M942.65,815.85c-10.52,35.68-31.16,68.64-59.42,92.95-7.94,6.73-16.4,12.91-25.48,18.01c7.03-5.45,13.87-11.04,20.31-17.14c28.36-25.87,49.21-58.84,64.59-93.81v0-.01Z" opacity="0" fill="#3686a8" stroke-width="0"/><path id="eyZedvWjNC213" d="M949.95,462.87c.06,37.2-10.37,74.66-30.56,106-5.7,8.71-12.06,17.04-19.31,24.5c5.19-7.22,10.16-14.53,14.6-22.21c19.83-32.85,30.47-70.41,35.27-108.3v0v.01Z" opacity="0" fill="#3686a8" stroke-width="0"/><path id="eyZedvWjNC214" d="M537.99,1085.75c-36.03,9.24-74.91,8.39-110.26-3.43-9.85-3.37-19.49-7.47-28.52-12.66c8.28,3.25,16.59,6.26,25.13,8.66c36.73,11.1,75.75,12.13,113.65,7.43v0Z" opacity="0" fill="#3686a8" stroke-width="0"/><path id="eyZedvWjNC215" d="M901.73,837.86c-2.97,14.57-13.7,27.98-27.85,32.97c5.35-5.02,10.42-9.91,15.04-15.5c4.68-5.55,8.56-11.48,12.81-17.47v0Z" opacity="0" fill="#3686a8" stroke-width="0"/></g><g><path id="eyZedvWjNC217" d="M704.42,568.25c-1.97.67-3.97,1.33-5.99,1.97-30.8,14.11-63.8,8.54-96.81,12.26-2.99.46-6.24.93-9.24,1.97s-5.75,2.67-7.75,5.46c-2,4.64,3,8.36,7.75,10.45c2.74,1.3,5.67,2.33,8.66,3.24c11.93,3.65,24.59,5.5,30.59,16.03c2,4.64-5,8.36-10,6.5-13-4.64-24-13-38-13.93c7,1.86,15,8.36,10.98,15.93-1.02,1.67-2.45,3.13-4.28,4.22-2.28,1.65-4.83,3.15-7.46,4.57-10.5,5.69-22.25,10.1-33.25,16.13-4,2.79-7,5.57-9.6,9.68-1.51,2.48-2.63,5.02-3.64,7.58-1.01,2.57-1.93,5.17-2.76,7.8c14.17-1.55,29.03-1.16,42.6-4.7c2.71-.71,5.38-1.57,7.97-2.64c21.43-6.59,42.43-17.74,65.25-16.23c3.93.11,7.68.81,11.18,3.13c2,1.39,2.75,3.71,2.38,6.15s-1.88,4.99-4.38,6.85c-1.5,1.39-3.5,2.55-5.63,3.6s-4.38,1.97-6.38,2.9c-20,5.57-42,11.14-53.23,30.13-1.86,2.32-3.77,4.69-5.77,7.01-5.25,6.27-12.19,9.92-19.76,12.65-2.52.91-5.12,1.72-7.76,2.49-8.24,2.18-16.36,4.43-23.67,7.76-2.44,1.11-4.78,2.34-7.01,3.73s-4.35,2.93-6.32,4.67-3.81,3.67-5.47,5.84c2.33,1.24,4.72,1.83,7.15,1.95c7.27.35,14.86-3.6,22.23-7.31c2.46-1.24,4.95-2.44,7.54-3.43c26.08-7.92,51.08-21.85,80.09-21.85c2.99-.46,5.99-.46,8.99-.12s6,1.04,9,1.97c5,1.86,6,7.43,7,12.07-3,0-7,0-9,1.86c0,.93,0,1.86-.09,2.77.77,2.33,2.04,4.07,3.63,5.41c4.77,4.01,12.45,4.34,18.41,5.68c2.4.5,4.84,1.06,7.21,1.8s4.68,1.67,6.84,2.91c5,2.79,3,6.5-2,8.36-6,.93-12,1.86-18,1.86-12.4-.37-27.36-5.5-41.55-9.85-3.55-1.09-7.05-2.13-10.45-3.03-2.75-.49-5.56-1.1-8.38-1.61-7.62-1.29-21.62-4.07-23.62,6.14-.67,3.1-.78,6.06-.43,8.9c1.74,14.2,14.98,25.23,27.71,33.41c3.27,2.11,6.6,4.26,9.82,6.47c6.43,4.43,12.4,9.14,16.9,14.36c2,2.79-2,4.64-2.48,6.97-1.59,1.39-3.78,2.63-6.27,3.71-7.5,3.25-17.75,5.11-24.25,5.11-19,1.86-40-6.5-56,2.79-3,.93,5,7.43,9.31,11.65c2.44,1.21,4.94,2.26,7.5,3.17c18.19,5.61,37.19,6.54,55.19,13.04c1.75.7,3.88,1.45,6.03,2.29c6.47,2.52,13.22,5.83,10.97,10.71-1.25,2.55-2.98,4.92-5.05,7.15-14.95,15.13-46.95,29.99-35.6,54.29c1,2.21,1.61,4.54,1.88,6.96c1.87,16.89-13,37.82-27.88,50.36-4,3.37-16,2.53-15,0c6.88-18.44,3.59-30.95-7.4-40.42-2.2-1.89-4.63-3.7-6.85-5.58-19.1-18.91,16.9-30.98,28.9-42.12c3-3.71,5-9.29,0-11.14-22-10.21-45,4.64-69,.93-7-.93-18-4.64-15-13c3-11.14,23-11.14,22-24.14-1-3.25-2.5-6.5-4.63-9.05s-4.88-4.41-8.38-4.87c-23-4.64-56,.93-60-16.71-1.8-7.24-.72-12.7,2.39-16.91c1.56-2.1,3.62-3.89,6.1-5.43c3.15-1.39,6.34-2.51,9.56-3.41c4.43-1.1,8.94-1.89,13.5-2.45c2.28-.28,4.56-.5,6.85-.67c9.8-.42,19.95-.17,30.09.29c3.38.15,6.76.33,10.12.51s6.71.37,10.03.54s6.61.34,9.87.47c3.5.12,6.94.07,10.27-.29c6.66-.72,12.88-2.68,18.22-7.01c2.25-2.09,2.95-4.96,2.53-7.98s-1.97-6.19-4.25-8.84c-19.29-11.97-41.29-.82-62.29-3.61-9.75-1.39-17.25-7.49-19.55-15.15-.76-2.55-.94-5.28-.41-8.06c1.98-2.79,3.21-6.27,4.7-9.4c1.25-6.39,8.25-9.18,14.25-11.03c2.75-.7,5.56-1.25,8.41-1.71s5.74-.84,8.63-1.19c16.95-2.67,35.95-2.67,47.95-15.67-21,.93-43,3.71-64.3,2.06-3.07-.2-6.14-.5-9.2-.87-13.5-2.12-26.5-5.83-36.44,4.28-1.85,1.16-3.73,2.29-5.67,3.29-1.95,1-3.96,1.87-6.07,2.5-2.94.58-5.57-.11-6.82-3.82-.77-2.28-1.55-5.02-2.6-7.23-.61-1.96-1.22-3.92-1.76-5.9-2.12-7.31-5.12-15.67,1.88-20.31c11-7.43,24-10.21,36-5.57c4,1.39,6.5,4.87,8.88,8.24s4.63,6.62,8.14,7.5c16.87-1.13,26.71-14.62,31.72-28.88c1-2.85,1.81-5.73,2.61-8.55c1.66-6.17,7.66-11.74,10.66-17.32-28-2.79-54,10.21-81.73,8.1-2.7-.42-5.33-1.11-7.88-2.13s-5.02-2.37-7.39-4.11c-2-1.39-1-3.95,1.18-6.27c5.11-5.05,12.02-6.31,18.94-7.41c2.31-.37,4.62-.71,6.87-1.18c19-5.57,45,5.57,59-11.14c1-1.86,0-4.64-2-6.5-5.63-4.18-12.66-6.66-19.67-9.06-2.34-.8-4.67-1.59-6.96-2.43-7.38-1.51-14.38-8.94-10.38-15.44c3.06-4.87,7.03-8.46,11.61-11.24c2.29-1.39,4.73-2.57,7.28-3.61c11.11-7.44,38.11-2.8,34.11-13.94-8-26-44-13.93-67.87-14.44-2.87-.02-5.73-.1-8.6-.27-5.73-.34-11.45-1.02-17.16-2.19-2.71-.84-5.35-1.9-7.92-3.25s-5.06-2.97-7.46-4.92c-3-1.86,3-6.5,4.98-10.05c2.37-2.71,5.15-5.17,8.07-7.39s5.94-4.19,9.07-5.95c3.12-1.76,6.34-3.31,9.67-4.67c2.01-.87,4.03-1.63,6.05-2.29s4.05-1.23,6.08-1.71c8.65-2.6,16.87-2.27,24.88-.83c2.69.48,5.36,1.08,8.04,1.73c21.15,9.81,45.15,4.24,67.38,4.13c2.73-.19,5.46-.41,8.19-.68c10.91-1.08,21.75-2.93,31.91-6.65c2.65-1.11,4.98-2.4,6.89-3.9s3.41-3.22,4.4-5.19s1.48-4.19,1.38-6.69c-2-13-18-13-29-12.07-12,2.32-24.25,4.18-36.38,3.6-3.03-.15-6.05-.44-9.08-.92-13.55-1.75-26.55-9.18-39.55-9.18-17,.93-35,7.43-52.7,2.03-3.01-.7-5.99-1.54-8.92-2.57s-5.81-2.24-8.64-3.69c-2.01-1.69-3.79-3.75-5.27-6.25.13-1.9,1.38-3.58,3.88-4.43c2.8-1.01,5.77-1.75,8.86-2.29c3.02-.45,6.03-.78,9.04-1.04c15.75-.34,33.75,6.16,44.75-2.2c1.83-1.39,3.11-3.28,3.87-5.47c1.13-14.03,1.13-35.39-17.41-36.59-2.95-.36-6.16-.51-9.46-.6-9.91-.27-20.5-.05-28-2.84-4-1.86-12-9.29-6-11.14c5.06-2.09,10.23-3.56,15.47-4.58c2.62-.51,5.26-.91,7.91-1.21c15.62-3.5,30.62,3,46.62,3c2-.23,4.19-.52,6.36-.96s4.33-1.02,6.27-1.83c5.38-.93,9.38-7.43,6.38-9.29-3-3.25-7.5-4.18-12.33-4.61s-10-.36-14.33-1.62c-13.33-2.13-27.33-9.56-32.33-21.63c15,11.14,33,15.79,51.98,16.68c3.46.13,6.92.11,10.38-.07c24.19-1.22,47.85-9.93,64.65-26.83-2.25-1.86-4.82-3.89-7.61-5.79-11.39-9.99-26.39-8.13-35.97,1.07-3.45,1.69-6.81,2.94-10.08,3.78-3.27.85-6.42,1.24-9.38,1.06-21.96-2.9-20.96-27.04-33.96-40.04-9-8.36-26,0-27-6.5-3-13,5.75-23.21,18.11-31.6c3.09-2.1,6.41-4.08,9.81-5.96c8.08-6.08,24.08-7.94,23.08-17.22-6-24.14-38-13.93-59.31-20.05-2.01-.81-3.93-1.83-5.73-3.12-1.79-1.29-3.46-2.83-4.96-4.69-4-5.57-5-11.14-4-16.71.5-2.79,2.5-4.88,5.13-6.38s5.88-2.44,8.91-2.92c15.96-2.77,25.96,10.23,38.96,14.87c12,3.71,26-.93,35-10.21c10-11.14,0-22.28,2-34.36c1-9.29,14-10.21,22.52-10.75c2.49-.21,4.99-.35,7.49-.39c4.98-.09,9.93.17,14.77.85c2.9.41,5.76.96,8.54,1.7c3.34,1.05,7.51,2.27,10.97,4.16s6.21,4.44,6.71,8.15c1,5.57-3,9.29-7,13-2.13,1.51-4.47,2.9-6.94,4.22s-5.07,2.57-7.71,3.8c-13.34,5.9-26.34,12.4-31.34,25.4-3,8.36,5,12.07,12,14.62c2.25.77,4.61,1.52,6.93,2.36c4.63,1.69,9.07,3.75,12.07,7.15c5,5.57,2,15.79,12,17.64c15,1.86,29-2.79,43.47,2.14c3.12,1.08,5.56,2.59,6.85,4.68c1.03,1.67,1.33,3.71.64,6.18-1.64,2.64-3.52,4.86-5.62,6.74-2.19,1.88-4.59,3.41-7.24,4.68-23.17,9.56-49.72,6.05-74.2,9.78-3.5.53-6.95,1.21-10.35,2.1-5.55.84-14.55-.08-16.55,5.49-3,6.5,5,12.07,9.78,15.99c2.47,2.06,5.1,4.03,7.85,5.88c24.76,16.7,59.65,24.46,84.48,7.46c2.61-1.68,5.22-3.41,7.88-5.08c7.99-4.99,16.48-9.39,26.96-10.31c2.28-.47,4.58-.88,6.9-1.21c2.52,0,5.03.25,7.54.89c3.13.84,5.49,2.19,7.17,3.91c1.4,1.43,2.34,3.12,2.88,4.97s.69,3.86.51,5.95c-1.2,6.57-5.44,12-11.28,16.09-1.95,1.36-4.07,2.57-6.32,3.63-2.35.98-4.75,1.85-7.18,2.61-34.17,4.01-65.17,21.65-91.09,41.41-1.95,2.27-3.63,4.62-5.11,7.05-1.49,2.43-2.79,4.95-3.88,7.55-.07,1.55.61,3.25,1.82,4.98c6.04,8.66,24.93,18.08,34.1,12.66c21-12.07,43-29.71,68.63-20.38c3.57.91,6.83,1.94,9.73,3.12c2.65,1.47,8.65,3.33,6.65,7.04-3,5.57-11,6.5-17,9.29-2.9,1.02-5.9,1.87-9.01,2.58-3.17.56-6.45,1.08-9.79,1.59-28.2,4.18-57.2,11.61-81.97,24.25-3.12,1.59-6.19,3.26-9.18,5-2.04.93-3.55,2.79-4.18,4.99s-.38,4.76,1.13,7.08c4,4.64,10,3.71,15.31,3.91c3.11.03,6.6-.11,10.32-.31c14.88-.81,33.38-2.67,45.38,1.04c7,2.79,14,5.57,18.41,11.94c1.86,2.24,3.45,4.68,4.74,7.36c1.28,2.67,2.26,5.58,2.86,8.75-.1,2.89-.54,5.75-1.36,8.51-.82,2.77-2.02,5.45-3.65,8.01-11.25,16.71-34.31,8.36-56.11,6.66-3.63-.28-7.23-.38-10.73-.13-9.16.9-19.16,3.69-26.47,9.66-1.44,1.39-2.69,3.08-3.69,5.16-.5,2.79,1.5,4.87,4.38,6.27s6.63,2.09,9.63,2.09c8-.46,15.5.7,22.75,2.67c2.42.66,4.81,1.41,7.17,2.22c14.45,14.89,30.67,24.19,49.11,25.64c3.07.24,6.21.26,9.43.07c13.54,2.83,33.54-17.6,38.75,1.07c1.76,1.82,2.73,3.55,2.59,5.17l-.02.05Z" opacity="0.3" fill="url(#eyZedvWjNC217-fill)" stroke-width="0"/><g id="eyZedvWjNC218" opacity="0.5"><ellipse rx="267.61" ry="64.82" transform="translate(549.51 66.75)" fill="url(#eyZedvWjNC219-fill)" stroke-width="0"/></g></g></svg>
