<?xml version="1.0" encoding="utf-8"?>
<!-- Generator: Adobe Illustrator 27.9.0, SVG Export Plug-In . SVG Version: 6.00 Build 0)  -->
<svg version="1.1" id="Слой_1" xmlns="http://www.w3.org/2000/svg" xmlns:xlink="http://www.w3.org/1999/xlink" x="0px" y="0px"
	 viewBox="0 0 1366 768" style="enable-background:new 0 0 1366 768;" xml:space="preserve">
<style type="text/css">
	.st0{display:none;}
	.st1{display:inline;fill:#71C679;stroke:#006837;stroke-miterlimit:10;}
	.st2{display:inline;fill:#333E48;}
	.st3{display:inline;fill:#FFB819;}
	.st4{display:inline;fill:#D68231;}
	.st5{display:inline;}
	.st6{fill:#333E48;}
	.st7{fill:#FFB819;}
	.st8{fill:#D68231;}
	.st9{fill:#8C6239;stroke:#42210B;stroke-width:2;stroke-miterlimit:10;}
	.st10{fill:#FCFFDF;}
	.st11{fill:#736357;}
	.st12{fill:#42210B;}
	.st13{fill:#29ABE2;}
	.st14{fill:#EDE6DF;}
	.st15{fill:#AD6357;}
	.st16{fill:#D5FFFF;}
	.st17{fill:#C7A899;}
	.st18{fill:#603852;}
	.st19{fill:#2995E2;}
	.st20{fill:none;stroke:#000000;stroke-width:2;stroke-miterlimit:10;}
	.st21{fill:#C7B299;}
	.st22{fill:#603813;}
	.st23{fill:none;stroke:#000000;stroke-width:3;stroke-miterlimit:10;}
	.st24{fill:#C7B799;}
	.st25{fill:#564C22;}
	.st26{fill:#3FA9C8;}
	.st27{fill:none;stroke:#000000;stroke-miterlimit:10;}
	.st28{fill:#E6B799;}
	.st29{fill:#561522;}
	.st30{fill:#A67C52;stroke:#000000;stroke-miterlimit:10;}
	.st31{fill:#006837;stroke:#333333;stroke-miterlimit:10;}
	.st32{fill:#8C6239;stroke:#000000;stroke-miterlimit:10;}
	.st33{fill:#009245;stroke:#333333;stroke-miterlimit:10;}
	.st34{fill:#8A6357;}
	.st35{fill:#A8FFFF;}
	.st36{fill:#22B573;stroke:#006837;stroke-miterlimit:10;}
	.st37{fill:#009245;stroke:#006837;stroke-miterlimit:10;}
	.st38{fill:#8CC63F;stroke:#006837;stroke-miterlimit:10;}
	.st39{fill:#39B54A;stroke:#006837;stroke-miterlimit:10;}
	.st40{fill:#006837;stroke:#22B573;stroke-miterlimit:10;}
	.st41{fill:#009245;stroke:#39B54A;stroke-miterlimit:10;}
	.st42{fill:#00A99D;stroke:#006837;stroke-miterlimit:10;}
</style>
<g id="Слой_11" class="st0">
	<path class="st1" d="M-0.5,767.5c0-193.7,0-387.3,0-581c90.8-45.4,170.8-73.4,230-91c99.5-29.5,168.9-50.1,262-48
		c105.9,2.4,110.5,31.2,219,31c97.9-0.2,99.8-23.6,217-31c111.2-7,135.8,12.4,240,6c86.9-5.3,155.9-24.2,198-38
		c0,250.7,0,501.3,0,752C910.2,767.5,454.8,767.5-0.5,767.5z"/>
	<path class="st2" d="M709,391.6l-0.8,7.9l-35.6,0.3l0.8-7.9h-3l-1.3,13.3h3l0.4-3.7l35.6-0.3l-0.4,3.7h3l1.3-13.3H709z"/>
	<path class="st3" d="M716.4,392c0.1-0.8-0.5-1.4-1.2-1.4l-47.7,0.4c-0.8,0-1.4,0.6-1.5,1.4l-0.3,2.6c-0.1,0.8,0.5,1.4,1.2,1.4
		l47.7-0.4c0.8,0,1.4-0.6,1.5-1.4L716.4,392z"/>
	<path class="st4" d="M714.6,382.1c0.1-0.8-0.5-1.4-1.2-1.4l-42.4,0.4c-0.8,0-1.4,0.6-1.5,1.4l-0.3,2.6c-0.1,0.8,0.5,1.4,1.2,1.4
		l42.4-0.4c0.8,0,1.4-0.6,1.5-1.4L714.6,382.1L714.6,382.1z"/>
	<path class="st4" d="M715.4,373.9c0.1-0.8-0.5-1.4-1.2-1.4l-42.4,0.4c-0.8,0-1.4,0.6-1.5,1.4L670,377c-0.1,0.8,0.5,1.4,1.2,1.4
		l42.4-0.4c0.8,0,1.4-0.6,1.5-1.4L715.4,373.9L715.4,373.9z"/>
	<g class="st5">
		<path class="st6" d="M985.8,666.1l0.9,9.4l40.4,0.6l-0.9-9.4h3.4l1.5,15.8h-3.4l-0.4-4.4l-40.4-0.6l0.4,4.4h-3.4l-1.5-15.8H985.8z
			"/>
		<path class="st7" d="M977.4,666.5c-0.1-0.9,0.5-1.6,1.4-1.6l54.1,0.8c0.9,0,1.6,0.8,1.7,1.7l0.3,3.1c0.1,0.9-0.5,1.6-1.4,1.6
			l-54.1-0.8c-0.9,0-1.6-0.8-1.7-1.7L977.4,666.5z"/>
		<path class="st8" d="M979.3,654.7c-0.1-0.9,0.5-1.6,1.4-1.6l48,0.7c0.9,0,1.6,0.8,1.7,1.7l0.3,3.1c0.1,0.9-0.5,1.6-1.4,1.6
			l-48-0.7c-0.9,0-1.6-0.8-1.7-1.7L979.3,654.7L979.3,654.7z"/>
		<path class="st8" d="M978.4,645c-0.1-0.9,0.5-1.6,1.4-1.6l48,0.7c0.9,0,1.6,0.8,1.7,1.7l0.3,3.1c0.1,0.9-0.5,1.6-1.4,1.6l-48-0.7
			c-0.9,0-1.6-0.8-1.7-1.7L978.4,645L978.4,645z"/>
	</g>
</g>
<g id="road">
	<path class="st9" d="M140.5,768.5c26.4-58.2,75.8-143.2,167-207c75.5-52.8,150.8-70.8,265-98c191.6-45.7,227-18,299-71
		c67.6-49.8,44.8-80.4,144-172c48-44.3,102.5-93.5,187-114c68.1-16.5,127.4-7.6,163,1c0,11.7,0,23.3,0,35c-26.7-4.5-73.7-8.7-128,7
		c-79.1,22.9-125.8,74.5-143,94c-34.9,39.5-29,52.3-75,120c-27.6,40.7-54.5,80.3-94,115c-56,49.2-115.5,69.4-217,104
		c-88.6,30.2-121.9,31.5-148,67c-27.2,36.9-26.9,84-22,119C405.8,768.5,273.2,768.5,140.5,768.5z"/>
</g>
<g id="Слой_2_00000145744875120606664080000007245483590279098526_">
	<g>
		<g>
			<path class="st10" d="M45.6,398.5c-2.3,0-4.3-1.9-4.3-4.3V134c0-2.3,1.9-4.3,4.3-4.3h253c2.3,0,4.3,1.9,4.3,4.3v260.2
				c0,2.3-1.9,4.3-4.3,4.3H45.6z"/>
			<path d="M298.6,130.3c2.1,0,3.8,1.7,3.8,3.8v260.2c0,2.1-1.7,3.8-3.8,3.8h-253c-2.1,0-3.8-1.7-3.8-3.8V134c0-2.1,1.7-3.8,3.8-3.8
				h253 M298.6,129.3h-253c-2.6,0-4.8,2.1-4.8,4.8v260.2c0,2.6,2.1,4.8,4.8,4.8h253c2.6,0,4.8-2.1,4.8-4.8V134
				C303.4,131.4,301.2,129.3,298.6,129.3L298.6,129.3z"/>
		</g>
		<g>
			<polygon class="st11" points="23,133.3 175.7,17.6 328.5,133.3 			"/>
			<path d="M175.7,18.3l97.7,74l53.6,40.6H24.4L175.7,18.3 M175.7,17C124.3,55.9,72.9,94.8,21.5,133.8c102.8,0,205.7,0,308.5,0
				C278.6,94.8,227.2,55.9,175.7,17L175.7,17z"/>
		</g>
		<g>
			<g>
				<rect x="155.7" y="321.1" class="st12" width="44.2" height="75.8"/>
				<path d="M199.4,321.6v74.8h-43.2v-74.8L199.4,321.6 M200.4,320.6h-45.2v76.8h45.2V320.6L200.4,320.6z"/>
			</g>
			<g>
				<path d="M191,368.3c-2.4,0-4.4-2-4.4-4.4s2-4.4,4.4-4.4s4.4,2,4.4,4.4S193.4,368.3,191,368.3z"/>
				<path d="M191,360c2.1,0,3.9,1.7,3.9,3.9s-1.7,3.9-3.9,3.9c-2.1,0-3.9-1.7-3.9-3.9S188.9,360,191,360 M191,359
					c-2.7,0-4.9,2.2-4.9,4.9s2.2,4.9,4.9,4.9s4.9-2.2,4.9-4.9S193.7,359,191,359L191,359z"/>
			</g>
		</g>
		<g>
			<g>
				<rect x="155.2" y="157.9" class="st13" width="43.7" height="43.7"/>
				<path d="M197.4,159.4v40.7h-40.7v-40.7H197.4 M200.4,156.4h-46.7v46.7h46.7V156.4L200.4,156.4z"/>
			</g>
		</g>
		<g>
			<g>
				<rect x="231.3" y="157.9" class="st13" width="43.7" height="43.7"/>
				<path d="M273.5,159.4v40.7h-40.7v-40.7H273.5 M276.5,156.4h-46.7v46.7h46.7V156.4L276.5,156.4z"/>
			</g>
		</g>
		<g>
			<g>
				<rect x="156" y="227.2" class="st13" width="43.7" height="43.7"/>
				<path d="M198.2,228.7v40.7h-40.7v-40.7H198.2 M201.2,225.7h-46.7v46.7h46.7V225.7L201.2,225.7z"/>
			</g>
		</g>
		<g>
			<g>
				<rect x="232.1" y="227.2" class="st13" width="43.7" height="43.7"/>
				<path d="M274.3,228.7v40.7h-40.7v-40.7H274.3 M277.3,225.7h-46.7v46.7h46.7V225.7L277.3,225.7z"/>
			</g>
		</g>
		<g>
			<g>
				<rect x="70.8" y="157.9" class="st13" width="43.7" height="43.7"/>
				<path d="M113,159.4v40.7H72.3v-40.7H113 M116,156.4H69.3v46.7H116V156.4L116,156.4z"/>
			</g>
			<g>
				<g>
					<rect x="71.6" y="227.2" class="st13" width="43.7" height="43.7"/>
					<path d="M113.8,228.7v40.7H73.1v-40.7H113.8 M116.8,225.7H70.1v46.7h46.7V225.7L116.8,225.7z"/>
				</g>
			</g>
		</g>
		<g>
			<g>
				<rect x="71.6" y="296.5" class="st13" width="43.7" height="43.7"/>
				<path d="M113.8,298v40.7H73.1V298H113.8 M116.8,295H70.1v46.7h46.7V295L116.8,295z"/>
			</g>
		</g>
		<g>
			<g>
				<rect x="232.1" y="294.2" class="st13" width="43.7" height="43.7"/>
				<path d="M274.3,295.7v40.7h-40.7v-40.7H274.3 M277.3,292.7h-46.7v46.7h46.7V292.7L277.3,292.7z"/>
			</g>
		</g>
	</g>
</g>
<g id="Слой_6">
	<g>
		<g>
			<path class="st14" d="M748.3,275.1c-2.3,0-4.3-1.9-4.3-4.3V113.4c0-2.3,1.9-4.3,4.3-4.3h178.9c2.3,0,4.3,1.9,4.3,4.3v157.5
				c0,2.3-1.9,4.3-4.3,4.3L748.3,275.1L748.3,275.1z"/>
			<path d="M927.3,109.6c2.1,0,3.8,1.7,3.8,3.8v157.5c0,2.1-1.7,3.8-3.8,3.8h-179c-2.1,0-3.8-1.7-3.8-3.8V113.4
				c0-2.1,1.7-3.8,3.8-3.8H927.3 M927.3,108.6h-179c-2.6,0-4.8,2.1-4.8,4.8v157.5c0,2.6,2.1,4.8,4.8,4.8h178.9
				c2.6,0,4.8-2.1,4.8-4.8V113.4C932,110.7,929.9,108.6,927.3,108.6L927.3,108.6z"/>
		</g>
		<g>
			<polygon class="st15" points="725.7,115.1 839.1,29.2 952.5,115.1 			"/>
			<path d="M839.1,29.9l56.8,43l55.1,41.7H727.2L839.1,29.9 M839.1,28.6c-38.3,29-76.6,58-114.9,87c76.6,0,153.2,0,229.8,0
				C915.7,86.6,877.4,57.6,839.1,28.6L839.1,28.6z"/>
		</g>
		<g>
			<g>
				<rect x="858.5" y="199.3" class="st12" width="44.2" height="75.8"/>
				<path d="M902.2,199.8v74.8H859v-74.8H902.2 M903.2,198.8H858v76.8h45.2V198.8L903.2,198.8z"/>
			</g>
			<g>
				<path d="M893.7,246.5c-2.4,0-4.4-2-4.4-4.4s2-4.4,4.4-4.4s4.4,2,4.4,4.4C898.1,244.5,896.2,246.5,893.7,246.5z"/>
				<path d="M893.7,238.2c2.1,0,3.9,1.7,3.9,3.9s-1.7,3.9-3.9,3.9c-2.1,0-3.9-1.7-3.9-3.9S891.6,238.2,893.7,238.2 M893.7,237.2
					c-2.7,0-4.9,2.2-4.9,4.9s2.2,4.9,4.9,4.9s4.9-2.2,4.9-4.9C898.6,239.4,896.4,237.2,893.7,237.2L893.7,237.2z"/>
			</g>
		</g>
		<g>
			<g>
				<g>
					<rect x="773.3" y="133.4" class="st16" width="45.7" height="45.7"/>
					<path d="M818.5,133.9v44.7h-44.7v-44.7H818.5 M819.5,132.9h-46.7v46.7h46.7V132.9L819.5,132.9z"/>
				</g>
			</g>
		</g>
		<g>
			<g>
				<rect x="773.3" y="202.7" class="st16" width="45.7" height="45.7"/>
				<path d="M818.5,203.2v44.7h-44.7v-44.7H818.5 M819.5,202.2h-46.7v46.7h46.7V202.2L819.5,202.2z"/>
			</g>
		</g>
		<g>
			<g>
				<g>
					<rect x="856" y="130.9" class="st16" width="45.7" height="45.7"/>
					<path d="M901.2,131.4v44.7h-44.7v-44.7H901.2 M902.2,130.4h-46.7v46.7h46.7V130.4L902.2,130.4z"/>
				</g>
			</g>
		</g>
	</g>
</g>
<g id="Слой_3">
	<g>
		<g>
			<path class="st17" d="M430.5,424.4c-2.3,0-4.3-1.9-4.3-4.3v-176c0-2.3,1.9-4.3,4.3-4.3h211.7c2.3,0,4.3,1.9,4.3,4.3v176.1
				c0,2.3-1.9,4.3-4.3,4.3H430.5V424.4z"/>
			<path d="M642.2,240.3c2.1,0,3.8,1.7,3.8,3.8v176.1c0,2.1-1.7,3.8-3.8,3.8H430.5c-2.1,0-3.8-1.7-3.8-3.8V244.1
				c0-2.1,1.7-3.8,3.8-3.8H642.2 M642.2,239.3H430.5c-2.6,0-4.8,2.1-4.8,4.8v176.1c0,2.6,2.1,4.8,4.8,4.8h211.7
				c2.6,0,4.8-2.1,4.8-4.8V244.1C646.9,241.5,644.8,239.3,642.2,239.3L642.2,239.3z"/>
		</g>
		<g>
			<polygon class="st18" points="413.1,256.2 537.2,121.3 661.3,256.2 			"/>
			<path d="M537.2,122.1l122.9,133.6H414.3l37.9-41.2L537.2,122.1 M537.2,120.6C495.5,166,453.7,211.3,412,256.7
				c83.5,0,167,0,250.4,0C620.7,211.3,579,166,537.2,120.6L537.2,120.6z"/>
		</g>
		<g>
			<g>
				<rect x="450.9" y="332.2" class="st12" width="53.8" height="92.2"/>
				<path d="M504.2,332.7v91.2h-52.8v-91.2H504.2 M505.2,331.7h-54.8v93.2h54.8V331.7L505.2,331.7z"/>
			</g>
			<g>
				<path d="M461.8,389.7c-3,0-5.4-2.4-5.4-5.4s2.4-5.4,5.4-5.4s5.4,2.4,5.4,5.4S464.8,389.7,461.8,389.7z"/>
				<path d="M461.8,379.3c2.7,0,4.9,2.2,4.9,4.9s-2.2,4.9-4.9,4.9s-4.9-2.2-4.9-4.9S459.1,379.3,461.8,379.3 M461.8,378.3
					c-3.3,0-5.9,2.7-5.9,5.9s2.7,5.9,5.9,5.9s5.9-2.7,5.9-5.9S465.1,378.3,461.8,378.3L461.8,378.3z"/>
			</g>
		</g>
		<g>
			<g>
				<rect x="531.8" y="286" class="st19" width="92.2" height="92.2"/>
				<path d="M623,287v90.2h-90.2V287H623 M625,285h-94.2v94.2H625V285L625,285z"/>
			</g>
			<g>
				<line class="st20" x1="577.9" y1="286" x2="577.9" y2="377.8"/>
			</g>
			<g>
				<line class="st20" x1="531.7" y1="332" x2="623.6" y2="332"/>
			</g>
		</g>
	</g>
</g>
<g id="Слой_1_00000011749765254506682270000017023031055885100987_">
	<g>
		<g>
			<path class="st21" d="M657.8,722.5c-2.3,0-4.3-1.9-4.3-4.3V524.8c0-2.3,1.9-4.3,4.3-4.3h232.5c2.3,0,4.3,1.9,4.3,4.3v193.5
				c0,2.3-1.9,4.3-4.3,4.3L657.8,722.5L657.8,722.5z"/>
			<path d="M890.3,521c2.1,0,3.8,1.7,3.8,3.8v193.5c0,2.1-1.7,3.8-3.8,3.8H657.8c-2.1,0-3.8-1.7-3.8-3.8V524.8
				c0-2.1,1.7-3.8,3.8-3.8H890.3 M890.3,520H657.8c-2.6,0-4.8,2.1-4.8,4.8v193.5c0,2.6,2.1,4.8,4.8,4.8h232.5c2.6,0,4.8-2.1,4.8-4.8
				V524.8C895,522.1,892.9,520,890.3,520L890.3,520z"/>
		</g>
		<g>
			<polygon class="st22" points="637,538.5 773,355.1 909,538.5 			"/>
			<path d="M773,356l135,182H638l75.1-101.3L773,356 M773,354.3c-45.7,61.6-91.3,123.1-137,184.7c91.3,0,182.6,0,274,0
				C864.3,477.4,818.7,415.9,773,354.3L773,354.3z"/>
		</g>
		<g>
			<g>
				<rect x="808.5" y="621.5" class="st12" width="59" height="101"/>
				<path d="M867,622v100h-58V622H867 M868,621h-60v102h60V621L868,621z"/>
			</g>
			<g>
				<circle cx="855.5" cy="678.5" r="6"/>
				<path d="M855.5,673c3,0,5.5,2.5,5.5,5.5s-2.5,5.5-5.5,5.5s-5.5-2.5-5.5-5.5S852.5,673,855.5,673 M855.5,672
					c-3.6,0-6.5,2.9-6.5,6.5s2.9,6.5,6.5,6.5s6.5-2.9,6.5-6.5S859.1,672,855.5,672L855.5,672z"/>
			</g>
		</g>
		<g>
			<g>
				<rect x="678.5" y="571.5" class="st13" width="100" height="100"/>
				<path d="M777,573v97h-97v-97H777 M780,570H677v103h103V570L780,570z"/>
			</g>
			<g>
				<line class="st23" x1="728.5" y1="571" x2="728.5" y2="671.5"/>
			</g>
			<g>
				<line class="st23" x1="779" y1="601.3" x2="678.5" y2="601.3"/>
			</g>
		</g>
	</g>
</g>
<g id="Слой_5">
	<g>
		<g>
			<path class="st24" d="M1054,682.2c-2.3,0-4.3-1.9-4.3-4.3V526.4c0-2.3,1.9-4.3,4.3-4.3h219.2c2.3,0,4.3,1.9,4.3,4.3V678
				c0,2.3-1.9,4.3-4.3,4.3L1054,682.2L1054,682.2z"/>
			<path d="M1273.2,522.7c2.1,0,3.8,1.7,3.8,3.8V678c0,2.1-1.7,3.8-3.8,3.8H1054c-2.1,0-3.8-1.7-3.8-3.8V526.4
				c0-2.1,1.7-3.8,3.8-3.8L1273.2,522.7 M1273.2,521.7H1054c-2.6,0-4.8,2.1-4.8,4.8V678c0,2.6,2.1,4.8,4.8,4.8h219.2
				c2.6,0,4.8-2.1,4.8-4.8V526.4C1277.9,523.8,1275.8,521.7,1273.2,521.7L1273.2,521.7z"/>
		</g>
		<g>
			<polygon class="st25" points="1036.9,536.2 1164.4,391 1291.9,536.2 			"/>
			<path d="M1164.4,391.7l50,57l76.4,87H1038l62.9-71.6L1164.4,391.7 M1164.4,390.2c-42.9,48.8-85.7,97.7-128.6,146.5
				c85.7,0,171.5,0,257.2,0C1250.1,487.9,1207.3,439,1164.4,390.2L1164.4,390.2z"/>
		</g>
		<g>
			<g>
				<rect x="1140.4" y="602.4" class="st12" width="46.6" height="79.9"/>
				<path d="M1186.5,602.9v78.9h-45.6v-78.9H1186.5 M1187.5,601.9h-47.6v80.9h47.6V601.9L1187.5,601.9z"/>
			</g>
			<g>
				<path d="M1177.6,652.1c-2.6,0-4.7-2.1-4.7-4.7c0-2.6,2.1-4.7,4.7-4.7s4.7,2.1,4.7,4.7C1182.2,650.1,1180.1,652.1,1177.6,652.1z"
					/>
				<path d="M1177.6,643.3c2.3,0,4.2,1.9,4.2,4.2s-1.9,4.2-4.2,4.2c-2.3,0-4.2-1.9-4.2-4.2S1175.3,643.3,1177.6,643.3 M1177.6,642.3
					c-2.8,0-5.2,2.3-5.2,5.2s2.3,5.2,5.2,5.2c2.8,0,5.2-2.3,5.2-5.2S1180.4,642.3,1177.6,642.3L1177.6,642.3z"/>
			</g>
		</g>
		<g>
			<g>
				<rect x="1068.8" y="585.4" class="st26" width="57.1" height="57.1"/>
				<path d="M1125.4,585.9V642h-56.1v-56.1H1125.4 M1126.4,584.9h-58.1V643h58.1V584.9L1126.4,584.9z"/>
			</g>
			<g>
				<line class="st27" x1="1097.3" y1="585.5" x2="1097.3" y2="642.2"/>
			</g>
			<g>
				<line class="st27" x1="1125.9" y1="602.6" x2="1069.1" y2="602.6"/>
			</g>
		</g>
		<g>
			<g>
				<rect x="1202.7" y="585.1" class="st26" width="57.1" height="57.1"/>
				<path d="M1259.3,585.6v56.1h-56.1v-56.1H1259.3 M1260.3,584.6h-58.1v58.1h58.1V584.6L1260.3,584.6z"/>
			</g>
			<g>
				<line class="st27" x1="1231.2" y1="585.2" x2="1231.2" y2="641.9"/>
			</g>
			<g>
				<line class="st27" x1="1259.7" y1="602.3" x2="1203" y2="602.3"/>
			</g>
		</g>
	</g>
</g>
<g id="Слой_8">
	<g>
		<g>
			<path class="st28" d="M41,588.2c-2.3,0-4.3-1.9-4.3-4.3V470.8c0-2.3,1.9-4.3,4.3-4.3h164.7c2.3,0,4.3,1.9,4.3,4.3V584
				c0,2.3-1.9,4.3-4.3,4.3L41,588.2L41,588.2z"/>
			<path d="M205.8,467c2.1,0,3.8,1.7,3.8,3.8V584c0,2.1-1.7,3.8-3.8,3.8H41c-2.1,0-3.8-1.7-3.8-3.8V470.8c0-2.1,1.7-3.8,3.8-3.8
				H205.8 M205.8,466H41c-2.6,0-4.8,2.1-4.8,4.8V584c0,2.6,2.1,4.8,4.8,4.8h164.7c2.6,0,4.8-2.1,4.8-4.8V470.8
				C210.5,468.1,208.4,466,205.8,466L205.8,466z"/>
		</g>
		<g>
			<polygon class="st29" points="27.1,477 124,366.6 220.9,477 			"/>
			<path d="M124,367.4l58.5,66.7l37.2,42.4H28.2l85.9-97.8L124,367.4 M124,365.9c-32.7,37.2-65.3,74.4-98,111.6
				c65.3,0,130.6,0,196,0C189.3,440.3,156.7,403.1,124,365.9L124,365.9z"/>
		</g>
		<g>
			<g>
				<rect x="105.9" y="527.6" class="st12" width="35.3" height="60.6"/>
				<path d="M140.6,528.1v59.6h-34.3v-59.6H140.6 M141.6,527.1h-36.3v61.6h36.3V527.1L141.6,527.1z"/>
			</g>
			<g>
				<circle cx="134.1" cy="561.9" r="3.4"/>
				<path d="M134.1,558.9c1.6,0,2.9,1.3,2.9,2.9s-1.3,2.9-2.9,2.9c-1.6,0-2.9-1.3-2.9-2.9S132.4,558.9,134.1,558.9 M134.1,557.9
					c-2.2,0-3.9,1.8-3.9,3.9s1.8,3.9,3.9,3.9c2.2,0,3.9-1.8,3.9-3.9S136.2,557.9,134.1,557.9L134.1,557.9z"/>
			</g>
		</g>
		<g>
			<g>
				<rect x="51.3" y="514.7" class="st26" width="43.3" height="43.3"/>
				<path d="M94.1,515.2v42.3H51.8v-42.3H94.1 M95.1,514.2H50.8v44.3h44.3V514.2L95.1,514.2z"/>
			</g>
			<g>
				<line class="st27" x1="72.9" y1="514.6" x2="72.9" y2="557.8"/>
			</g>
			<g>
				<line class="st27" x1="94.7" y1="527.7" x2="51.5" y2="527.7"/>
			</g>
		</g>
		<g>
			<g>
				<rect x="153.3" y="514.5" class="st26" width="43.3" height="43.3"/>
				<path d="M196.1,515v42.3h-42.3V515H196.1 M197.1,514h-44.3v44.3h44.3V514L197.1,514z"/>
			</g>
			<g>
				<line class="st27" x1="174.9" y1="514.4" x2="174.9" y2="557.6"/>
			</g>
			<g>
				<line class="st27" x1="196.7" y1="527.4" x2="153.5" y2="527.4"/>
			</g>
		</g>
	</g>
</g>
<g id="tree">
	<g>
		<path class="st30" d="M352.1,390.5h-8.2c-3,0-5.4-2.4-5.4-5.4v-83.2c0-3,2.4-5.4,5.4-5.4h8.2c3,0,5.4,2.4,5.4,5.4v83.2
			C357.5,388.1,355.1,390.5,352.1,390.5z"/>
		<path class="st31" d="M370.9,256.5c4.5,38.7-6.3,56.8-13.2,61c-5.3,3.2-10.5,3-10.5,3s-5.3-0.2-10.5-4c-18.6-13.6-13.2-60-13.2-60
			c2.3-19.6,10.8-64,23.7-64S368.6,236.7,370.9,256.5z"/>
	</g>
	<g>
		<path class="st32" d="M710.1,272.5h-8.2c-3,0-5.4-2.4-5.4-5.4v-83.2c0-3,2.4-5.4,5.4-5.4h8.2c3,0,5.4,2.4,5.4,5.4v83.2
			C715.5,270.1,713.1,272.5,710.1,272.5z"/>
		<path class="st33" d="M727.5,180.3c0,0-3.8,14.7-11.8,19.3c-5.2,3-10.5,3-10.5,3l0,0c0,0-5.3-0.2-10.5-4
			c-15.3-11.2-13.2-60-13.2-60c0.4-11,1.8-26.3,5.9-44.3c0.3-2.3,1.2-7.3,5-12c1.2-1.4,6-7.4,12.8-7.8c8.6-0.5,14.9,8.5,17.2,11.8
			c5.4,7.6,6.8,15.1,8,37C732.1,151.3,731.3,165.8,727.5,180.3z"/>
	</g>
	<g>
		<path class="st30" d="M1302.1,733.5h-8.2c-3,0-5.4-2.4-5.4-5.4v-83.2c0-3,2.4-5.4,5.4-5.4h8.2c3,0,5.4,2.4,5.4,5.4v83.2
			C1307.5,731.1,1305.1,733.5,1302.1,733.5z"/>
		<path class="st31" d="M1320.9,599.5c4.5,38.7-6.3,56.8-13.2,61c-5.3,3.2-10.5,3-10.5,3s-5.3-0.2-10.5-4
			c-18.6-13.6-13.2-60-13.2-60c2.3-19.6,10.8-64,23.7-64S1318.6,579.7,1320.9,599.5z"/>
	</g>
	<g>
		<path class="st32" d="M376.1,423.5h-8.2c-3,0-5.4-2.4-5.4-5.4v-83.2c0-3,2.4-5.4,5.4-5.4h8.2c3,0,5.4,2.4,5.4,5.4v83.2
			C381.5,421.1,379.1,423.5,376.1,423.5z"/>
		<path class="st33" d="M393.5,331.3c0,0-3.8,14.7-11.8,19.3c-5.2,3-10.5,3-10.5,3l0,0c0,0-5.3-0.2-10.5-4
			c-15.3-11.2-13.2-60-13.2-60c0.4-11,1.8-26.3,5.9-44.3c0.3-2.3,1.2-7.3,5-12c1.2-1.4,6-7.4,12.8-7.8c8.6-0.5,14.9,8.5,17.2,11.8
			c5.4,7.6,6.8,15.1,8,37C398.1,302.3,397.3,316.8,393.5,331.3z"/>
	</g>
	<g>
		<path class="st32" d="M1330.1,312.5h-8.2c-3,0-5.4-2.4-5.4-5.4v-83.2c0-3,2.4-5.4,5.4-5.4h8.2c3,0,5.4,2.4,5.4,5.4v83.2
			C1335.5,310.1,1333.1,312.5,1330.1,312.5z"/>
		<path class="st33" d="M1347.5,220.3c0,0-3.8,14.7-11.8,19.3c-5.2,3-10.5,3-10.5,3l0,0c0,0-5.3-0.2-10.5-4
			c-15.3-11.2-13.2-60-13.2-60c0.4-11,1.8-26.3,5.9-44.3c0.3-2.3,1.2-7.3,5-12c1.2-1.4,6-7.4,12.8-7.8c8.6-0.5,14.9,8.5,17.2,11.8
			c5.4,7.6,6.8,15.1,8,37C1352.1,191.3,1351.3,205.8,1347.5,220.3z"/>
	</g>
</g>
<g id="Слой_4">
	<g>
		<g>
			<path class="st10" d="M1071.3,338.5c-2.3,0-4.3-1.9-4.3-4.3V176.8c0-2.3,1.9-4.3,4.3-4.3h253c2.3,0,4.3,1.9,4.3,4.3v157.5
				c0,2.3-1.9,4.3-4.3,4.3L1071.3,338.5L1071.3,338.5z"/>
			<path d="M1324.3,173c2.1,0,3.8,1.7,3.8,3.8v157.5c0,2.1-1.7,3.8-3.8,3.8h-253c-2.1,0-3.8-1.7-3.8-3.8V176.8
				c0-2.1,1.7-3.8,3.8-3.8H1324.3 M1324.3,172h-253c-2.6,0-4.8,2.1-4.8,4.8v157.5c0,2.6,2.1,4.8,4.8,4.8h253c2.6,0,4.8-2.1,4.8-4.8
				V176.8C1329.1,174.1,1327,172,1324.3,172L1324.3,172z"/>
		</g>
		<g>
			<polygon class="st34" points="1049.1,178.5 1201.5,92.6 1353.8,178.5 			"/>
			<path d="M1201.4,93.1l150.5,84.9H1051L1201.4,93.1 M1201.4,92c-51.4,29-102.8,58-154.3,87c102.8,0,205.7,0,308.5,0
				C1304.3,150,1252.9,121,1201.4,92L1201.4,92z"/>
		</g>
		<g>
			<g>
				<rect x="1181.4" y="262.7" class="st12" width="44.2" height="75.8"/>
				<path d="M1225.1,263.2V338h-43.2v-74.8H1225.1 M1226.1,262.2h-45.2V339h45.2V262.2L1226.1,262.2z"/>
			</g>
			<g>
				<path d="M1216.7,309.9c-2.4,0-4.4-2-4.4-4.4s2-4.4,4.4-4.4s4.4,2,4.4,4.4S1219.1,309.9,1216.7,309.9z"/>
				<path d="M1216.7,301.6c2.1,0,3.9,1.7,3.9,3.9c0,2.1-1.7,3.9-3.9,3.9c-2.1,0-3.9-1.7-3.9-3.9
					C1212.8,303.4,1214.6,301.6,1216.7,301.6 M1216.7,300.6c-2.7,0-4.9,2.2-4.9,4.9c0,2.7,2.2,4.9,4.9,4.9c2.7,0,4.9-2.2,4.9-4.9
					C1221.6,302.8,1219.4,300.6,1216.7,300.6L1216.7,300.6z"/>
			</g>
		</g>
		<g>
			<g>
				<path class="st35" d="M1203.5,242.5c-12.6,0-22.9-10.3-22.9-22.9c0-12.6,10.3-22.9,22.9-22.9s22.9,10.3,22.9,22.9
					S1216.1,242.5,1203.5,242.5z"/>
				<path d="M1203.5,197.3c12.3,0,22.4,10,22.4,22.4c0,12.3-10,22.4-22.4,22.4c-12.3,0-22.4-10-22.4-22.4
					C1181.2,207.3,1191.2,197.3,1203.5,197.3 M1203.5,196.3L1203.5,196.3c-12.9,0-23.4,10.5-23.4,23.4l0,0
					c0,12.9,10.5,23.4,23.4,23.4l0,0c12.9,0,23.4-10.5,23.4-23.4l0,0C1226.9,206.7,1216.4,196.3,1203.5,196.3L1203.5,196.3z"/>
			</g>
		</g>
		<g>
			<g>
				<rect x="1256.8" y="196.8" class="st35" width="45.7" height="45.7"/>
				<path d="M1302,197.3V242h-44.7v-44.7H1302 M1303,196.3h-46.7V243h46.7V196.3L1303,196.3z"/>
			</g>
		</g>
		<g>
			<g>
				<g>
					<rect x="1096.3" y="196.8" class="st35" width="45.7" height="45.7"/>
					<path d="M1141.5,197.3V242h-44.7v-44.7H1141.5 M1142.5,196.3h-46.7V243h46.7V196.3L1142.5,196.3z"/>
				</g>
			</g>
		</g>
		<g>
			<g>
				<rect x="1096.3" y="266.1" class="st35" width="45.7" height="45.7"/>
				<path d="M1141.5,266.6v44.7h-44.7v-44.7H1141.5 M1142.5,265.6h-46.7v46.7h46.7V265.6L1142.5,265.6z"/>
			</g>
		</g>
		<g>
			<g>
				<rect x="1256.8" y="263.8" class="st35" width="45.7" height="45.7"/>
				<path d="M1302,264.3V309h-44.7v-44.7H1302 M1303,263.3h-46.7V310h46.7V263.3L1303,263.3z"/>
			</g>
		</g>
	</g>
</g>
<g id="Слой_10">
	<path class="st36" d="M344.6,133.6c-6.5-12.2-5.3-26.4,3.1-36.9c10.2-12.7,26.3-14,28.7-14.2c-0.8-2.2-4.7-13.7,2.1-24.6
		c6.6-10.6,22.4-19.3,37.3-13.5c12.8,5,20.1,18.8,16.1,32.3c0.3-3,1.5-9.2,6.7-14c8.9-8.4,24.7-8.3,34.2-3.1
		c17.6,9.6,14.2,36.9,13.1,45.7c-1.2,10.1-4.5,18.2-7.3,23.6C434,130.5,389.3,132.1,344.6,133.6z"/>
	<path class="st37" d="M448.4,139.2c4.3-9.7,2.6-20.6-4.5-28.2c-8.6-9.3-21-9.5-22.9-9.5c0.5-1.7,2.8-10.7-3-18.8
		c-5.7-7.8-18.4-13.8-29.5-8.6c-9.6,4.4-14.4,15.4-10.5,25.6c-0.4-2.3-1.7-7-6-10.5c-7.4-6-19.5-5.2-26.5-0.8
		c-13,8.2-8.8,29.1-7.5,35.8c1.5,7.7,4.5,13.8,7,17.8C379.3,141.1,413.9,140.1,448.4,139.2z"/>
	<path class="st38" d="M959.5,128.4c-0.9-3.8-6.3-27.4,8.2-46.6c15.4-20.2,41-19.9,51.5-19.8c22.7,0.3,55.3,10.6,65.9,37.5
		c4.2,10.6,3.7,20.6,2.9,26.8C1045.2,127,1002.4,127.7,959.5,128.4z"/>
	<path class="st39" d="M1110.8,128.2c0.6-2.6,4.3-18.6-5.6-31.6c-10.4-13.7-27.8-13.5-35-13.4c-15.4,0.2-37.5,7.2-44.7,25.4
		c-2.8,7.2-2.5,14-2,18.2C1052.6,127.2,1081.7,127.7,1110.8,128.2z"/>
	<path class="st40" d="M975.6,128.5c-0.6-2.3-3.8-16.5,5-28.1c9.3-12.2,24.8-12,31.1-12c13.7,0.2,33.4,6.4,39.9,22.7
		c2.5,6.4,2.3,12.4,1.7,16.2C1027.4,127.7,1001.5,128.1,975.6,128.5z"/>
	<path class="st38" d="M1109.8,360.9c-0.6-2.4-4.1-17.6,5.3-30c9.9-13,26.4-12.8,33.2-12.7c14.6,0.2,35.6,6.8,42.5,24.2
		c2.7,6.8,2.4,13.3,1.9,17.3C1165.1,360,1137.4,360.5,1109.8,360.9z"/>
	<path class="st40" d="M1120.2,361c-0.4-1.5-2.5-10.7,3.2-18.1c6-7.9,16-7.8,20.1-7.7c8.8,0.1,21.5,4.1,25.7,14.6
		c1.6,4.1,1.5,8,1.1,10.4C1153.6,360.5,1136.9,360.7,1120.2,361z"/>
	<path class="st38" d="M526,428.1c-0.6-2.5-4.1-17.9,5.4-30.5c10.1-13.3,26.9-13,33.8-13c14.9,0.2,36.2,7,43.2,24.6
		c2.8,6.9,2.5,13.5,1.9,17.6C582.2,427.2,554.1,427.7,526,428.1z"/>
	<path class="st39" d="M625.2,428c0.4-1.7,2.8-12.2-3.7-20.7c-6.8-9-18.3-8.9-22.9-8.8c-10.1,0.1-24.6,4.7-29.3,16.7
		c-1.9,4.7-1.7,9.2-1.3,11.9C587.1,427.4,606.2,427.7,625.2,428z"/>
	<path class="st38" d="M771.4,733c0.8-2.6,5.7-19.2-7.4-32.6c-13.9-14.2-37-14-46.5-13.9c-20.5,0.2-49.9,7.4-59.5,26.3
		c-3.8,7.4-3.4,14.4-2.6,18.8C694.1,732,732.8,732.5,771.4,733z"/>
	<path class="st39" d="M634.9,732.8c-0.6-1.8-3.9-13,5-22.1c9.4-9.6,25.1-9.5,31.5-9.4c13.9,0.1,33.8,5.1,40.4,17.8
		c2.6,5,2.3,9.8,1.8,12.7C687.4,732.2,661.2,732.5,634.9,732.8z"/>
	<path class="st40" d="M756.9,733c0.5-1.6,3.5-11.6-4.5-19.7c-8.4-8.6-22.4-8.4-28.1-8.4c-12.4,0.1-30.1,4.5-36,15.9
		c-2.3,4.5-2,8.7-1.6,11.3C710.2,732.5,733.6,732.8,756.9,733z"/>
	<path class="st41" d="M130.5,659.3c4.7-11.6,2.8-24.6-4.9-33.8c-9.4-11.1-23-11.4-25-11.4c0.5-2.1,3.1-12.9-3.3-22.6
		C91,582.1,77.1,575,65,581.2c-10.5,5.3-15.7,18.5-11.5,30.7c-0.5-2.8-1.9-8.4-6.6-12.5c-8-7.2-21.3-6.3-29-0.9
		c-14.2,9.8-9.6,34.9-8.2,42.9c1.7,9.2,4.9,16.5,7.6,21.4C55.1,661.6,92.8,660.5,130.5,659.3z"/>
	<path class="st36" d="M1201,750.3c-5.2-10.7-4.3-23.3,2.5-32.5c8.2-11.2,21.1-12.4,23.1-12.5c-0.6-2-3.8-12.1,1.7-21.7
		c5.3-9.3,18-17,30-11.9c10.3,4.4,16.2,16.6,12.9,28.5c0.3-2.7,1.2-8.1,5.4-12.4c7.2-7.4,19.8-7.4,27.5-2.8
		c14.1,8.4,11.4,32.6,10.6,40.3c-1,8.9-3.6,16-5.8,20.8C1272.9,747.5,1236.9,748.9,1201,750.3z"/>
	<path class="st36" d="M688.7,307.1c-4.5-9.2-3.7-20,2.1-27.9c7-9.6,18.1-10.6,19.8-10.7c-0.6-1.7-3.2-10.4,1.4-18.6
		c4.5-8,15.5-14.6,25.8-10.3c8.8,3.8,13.9,14.2,11.1,24.5c0.2-2.3,1.1-6.9,4.7-10.6c6.2-6.3,17-6.3,23.6-2.4
		c12.1,7.2,9.8,28,9.1,34.6c-0.9,7.6-3.1,13.8-5,17.9C750.4,304.7,719.5,305.9,688.7,307.1z"/>
	<path class="st41" d="M760.3,311.3c2.9-7.3,1.8-15.6-3.1-21.4c-5.9-7-14.5-7.2-15.8-7.2c0.3-1.3,2-8.1-2.1-14.3
		c-3.9-5.9-12.7-10.5-20.4-6.5c-6.6,3.4-9.9,11.7-7.3,19.4c-0.3-1.8-1.2-5.3-4.1-7.9c-5.1-4.6-13.4-4-18.3-0.6
		c-9,6.2-6.1,22.1-5.2,27.1c1.1,5.8,3.1,10.4,4.8,13.5C712.7,312.8,736.5,312,760.3,311.3z"/>
	<path class="st39" d="M356.7,405.6c0.6-1.7,4.4-12.6-5.7-21.4c-10.6-9.3-28.3-9.2-35.5-9.1c-15.7,0.1-38.1,4.9-45.5,17.3
		c-2.9,4.9-2.6,9.5-2,12.3C297.6,404.9,327.1,405.3,356.7,405.6z"/>
	<path class="st36" d="M1328.8,439.7c4.8-9.8,3.9-21.3-2.3-29.8c-7.5-10.3-19.4-11.3-21.2-11.5c0.6-1.8,3.5-11.1-1.5-19.9
		c-4.8-8.6-16.5-15.6-27.5-11c-9.4,4-14.8,15.2-11.8,26.1c-0.3-2.5-1.1-7.4-5-11.3c-6.6-6.8-18.2-6.8-25.2-2.5
		c-13,7.7-10.5,29.9-9.7,37c0.9,8.2,3.3,14.7,5.4,19.1C1262.9,437.2,1295.8,438.5,1328.8,439.7z"/>
	<path class="st41" d="M1252.3,444.3c-3.1-7.8-1.9-16.6,3.3-22.8c6.3-7.5,15.5-7.7,16.9-7.7c-0.4-1.4-2.1-8.7,2.2-15.2
		c4.2-6.3,13.5-11.2,21.8-7c7.1,3.6,10.6,12.5,7.7,20.7c0.3-1.9,1.3-5.6,4.4-8.5c5.4-4.9,14.4-4.2,19.6-0.6c9.6,6.6,6.5,23.5,5.5,29
		c-1.1,6.2-3.3,11.1-5.1,14.4C1303.2,445.8,1277.7,445,1252.3,444.3z"/>
	<path class="st40" d="M251,467.3c-0.4-1.6-2.6-11.3,3.4-19.2c6.3-8.3,16.9-8.2,21.2-8.2c9.4,0.1,22.8,4.4,27.2,15.5
		c1.7,4.4,1.5,8.5,1.2,11C286.3,466.8,268.7,467.1,251,467.3z"/>
	<path class="st39" d="M316.3,485.1c0.4-1.4,2.6-9.9-3.4-16.9c-6.4-7.3-17.1-7.2-21.4-7.2c-9.5,0.1-23,3.9-27.4,13.6
		c-1.7,3.8-1.6,7.5-1.2,9.7C280.6,484.6,298.4,484.8,316.3,485.1z"/>
	<path class="st42" d="M1003.4,517c4.5-8.6,3.7-18.5-2.2-25.9c-7.2-8.9-18.5-9.8-20.2-10c0.6-1.6,3.3-9.6-1.5-17.3
		c-4.6-7.4-15.8-13.6-26.2-9.5c-9,3.5-14.1,13.2-11.3,22.7c-0.2-2.1-1.1-6.4-4.7-9.8c-6.3-5.9-17.3-5.9-24.1-2.2
		c-12.4,6.7-10,25.9-9.2,32.1c0.9,7.1,3.2,12.8,5.1,16.6C940.6,514.8,972,515.9,1003.4,517z"/>
</g>
</svg>
