<svg id="e9tqyCnEDjJ1" xmlns="http://www.w3.org/2000/svg" xmlns:xlink="http://www.w3.org/1999/xlink" viewBox="0 0 1366 895" shape-rendering="geometricPrecision" text-rendering="geometricPrecision">
<style><![CDATA[
#e9tqyCnEDjJ274_tr {animation: e9tqyCnEDjJ274_tr__tr 80000ms linear infinite normal forwards}@keyframes e9tqyCnEDjJ274_tr__tr { 0% {transform: translate(1292.700012px,74.700001px) rotate(0deg)} 100% {transform: translate(1292.700012px,74.700001px) rotate(361.397249deg)}} #e9tqyCnEDjJ313_to {animation: e9tqyCnEDjJ313_to__to 60000ms linear infinite normal forwards}@keyframes e9tqyCnEDjJ313_to__to { 0% {transform: translate(-140.812889px,66.452527px)} 66.666667% {transform: translate(1627.174861px,77.333017px)} 100% {transform: translate(1627.174861px,77.333017px)}} #e9tqyCnEDjJ314_to {animation: e9tqyCnEDjJ314_to__to 60000ms linear infinite normal forwards}@keyframes e9tqyCnEDjJ314_to__to { 0% {transform: translate(-129.280703px,36.401345px)} 33.333333% {transform: translate(-129.280703px,36.401345px)} 100% {transform: translate(1699.687412px,34.633691px)}} #e9tqyCnEDjJ315_to {animation: e9tqyCnEDjJ315_to__to 60000ms linear infinite normal forwards}@keyframes e9tqyCnEDjJ315_to__to { 0% {transform: translate(-89.181003px,89.752532px)} 66.666667% {transform: translate(1678.806746px,100.633022px)} 100% {transform: translate(1678.806746px,100.633022px)}} #e9tqyCnEDjJ316_to {animation: e9tqyCnEDjJ316_to__to 60000ms linear infinite normal forwards}@keyframes e9tqyCnEDjJ316_to__to { 0% {transform: translate(-161.305969px,72.399169px)} 33.333333% {transform: translate(-161.305969px,72.399169px)} 100% {transform: translate(1667.66214px,70.631515px)}}
]]></style>
<g><path d="M709,518.6l-.8,7.9-35.6.3.8-7.9h-3l-1.3,13.3h3l.4-3.7l35.6-.3-.4,3.7h3l1.3-13.3h-3Z" fill="#333e48"/><path d="M716.4,519c.1-.8-.5-1.4-1.2-1.4l-47.7.4c-.8,0-1.4.6-1.5,1.4l-.3,2.6c-.1.8.5,1.4,1.2,1.4l47.7-.4c.8,0,1.4-.6,1.5-1.4l.3-2.6Z" fill="#ffb819"/><path d="M714.6,509.1c.1-.8-.5-1.4-1.2-1.4l-42.4.4c-.8,0-1.4.6-1.5,1.4l-.3,2.6c-.1.8.5,1.4,1.2,1.4l42.4-.4c.8,0,1.4-.6,1.5-1.4l.3-2.6v0Z" fill="#d68231"/><path d="M715.4,500.9c.1-.8-.5-1.4-1.2-1.4l-42.4.4c-.8,0-1.4.6-1.5,1.4L670,504c-.1.8.5,1.4,1.2,1.4l42.4-.4c.8,0,1.4-.6,1.5-1.4l.3-2.7v0Z" fill="#d68231"/><g><path d="M985.8,793.1l.9,9.4l40.4.6-.9-9.4h3.4l1.5,15.8h-3.4l-.4-4.4-40.4-.6.4,4.4h-3.4l-1.5-15.8h3.4Z" fill="#333e48"/><path d="M977.4,793.5c-.1-.9.5-1.6,1.4-1.6l54.1.8c.9,0,1.6.8,1.7,1.7l.3,3.1c.1.9-.5,1.6-1.4,1.6l-54.1-.8c-.9,0-1.6-.8-1.7-1.7l-.3-3.1Z" fill="#ffb819"/><path d="M979.3,781.7c-.1-.9.5-1.6,1.4-1.6l48,.7c.9,0,1.6.8,1.7,1.7l.3,3.1c.1.9-.5,1.6-1.4,1.6l-48-.7c-.9,0-1.6-.8-1.7-1.7l-.3-3.1v0Z" fill="#d68231"/><path d="M978.4,772c-.1-.9.5-1.6,1.4-1.6l48,.7c.9,0,1.6.8,1.7,1.7l.3,3.1c.1.9-.5,1.6-1.4,1.6l-48-.7c-.9,0-1.6-.8-1.7-1.7l-.3-3.1v0Z" fill="#d68231"/></g></g><g><path d="M140.5,895.5c26.4-58.2,75.8-143.2,167-207c75.5-52.8,150.8-70.8,265-98c191.6-45.7,227-18,299-71c67.6-49.8,44.8-80.4,144-172c48-44.3,102.5-93.5,187-114c68.1-16.5,127.4-7.6,163,1c0,11.7,0,23.3,0,35-26.7-4.5-73.7-8.7-128,7-79.1,22.9-125.8,74.5-143,94-34.9,39.5-29,52.3-75,120-27.6,40.7-54.5,80.3-94,115-56,49.2-115.5,69.4-217,104-88.6,30.2-121.9,31.5-148,67-27.2,36.9-26.9,84-22,119-132.7,0-265.3,0-398,0Z" fill="#8c6239" stroke="#42210b" stroke-width="2" stroke-miterlimit="10"/></g><g><g><g><path d="M45.6,525.5c-2.3,0-4.3-1.9-4.3-4.3v-260.2c0-2.3,1.9-4.3,4.3-4.3h253c2.3,0,4.3,1.9,4.3,4.3v260.2c0,2.3-1.9,4.3-4.3,4.3h-253Z" fill="#fcffdf"/><path d="M298.6,257.3c2.1,0,3.8,1.7,3.8,3.8v260.2c0,2.1-1.7,3.8-3.8,3.8h-253c-2.1,0-3.8-1.7-3.8-3.8v-260.3c0-2.1,1.7-3.8,3.8-3.8h253m0-.9h-253c-2.6,0-4.8,2.1-4.8,4.8v260.2c0,2.6,2.1,4.8,4.8,4.8h253c2.6,0,4.8-2.1,4.8-4.8v-260.3c0-2.6-2.2-4.7-4.8-4.7v0Z"/></g><g><polygon points="23,260.3 175.7,144.6 328.5,260.3" fill="#736357"/><path d="M175.7,145.3l97.7,74L327,259.9h-302.6L175.7,145.3m0-1.3C124.3,182.9,72.9,221.8,21.4,260.8c102.8,0,205.7,0,308.5,0-51.3-39-102.7-77.9-154.2-116.8v0Z"/></g><g><g><rect width="44.2" height="75.8" rx="0" ry="0" transform="translate(155.7 448.1)" fill="#42210b"/><path d="M199.4,448.6v74.8h-43.2v-74.8h43.2m1-1h-45.2v76.8h45.2v-76.8v0Z"/></g><g><path d="M191,495.3c-2.4,0-4.4-2-4.4-4.4s2-4.4,4.4-4.4s4.4,2,4.4,4.4-2,4.4-4.4,4.4Z"/><path d="M191,487c2.1,0,3.9,1.7,3.9,3.9s-1.7,3.9-3.9,3.9c-2.1,0-3.9-1.7-3.9-3.9s1.8-3.9,3.9-3.9m0-1c-2.7,0-4.9,2.2-4.9,4.9s2.2,4.9,4.9,4.9s4.9-2.2,4.9-4.9-2.2-4.9-4.9-4.9v0Z"/></g></g><g><g><rect width="43.7" height="43.7" rx="0" ry="0" transform="translate(155.2 284.9)" fill="#29abe2"/><path d="M197.4,286.4v40.7h-40.7v-40.7h40.7m3-3h-46.7v46.7h46.7v-46.7v0Z"/></g></g><g><g><rect width="43.7" height="43.7" rx="0" ry="0" transform="translate(231.3 284.9)" fill="#29abe2"/><path d="M273.5,286.4v40.7h-40.7v-40.7h40.7m3-3h-46.7v46.7h46.7v-46.7v0Z"/></g></g><g><g><rect width="43.7" height="43.7" rx="0" ry="0" transform="translate(156 354.2)" fill="#29abe2"/><path d="M198.2,355.7v40.7h-40.7v-40.7h40.7m3-3h-46.7v46.7h46.7v-46.7v0Z"/></g></g><g><g><rect width="43.7" height="43.7" rx="0" ry="0" transform="translate(232.1 354.2)" fill="#29abe2"/><path d="M274.3,355.7v40.7h-40.7v-40.7h40.7m3-3h-46.7v46.7h46.7v-46.7v0Z"/></g></g><g><g><rect width="43.7" height="43.7" rx="0" ry="0" transform="translate(70.8 284.9)" fill="#29abe2"/><path d="M113,286.4v40.7h-40.7v-40.7h40.7m3-3h-46.7v46.7h46.7v-46.7v0Z"/></g><g><g><rect width="43.7" height="43.7" rx="0" ry="0" transform="translate(71.6 354.2)" fill="#29abe2"/><path d="M113.8,355.7v40.7h-40.7v-40.7h40.7m3-3h-46.7v46.7h46.7v-46.7v0Z"/></g></g></g><g><g><rect width="43.7" height="43.7" rx="0" ry="0" transform="translate(71.6 423.5)" fill="#29abe2"/><path d="M113.8,425v40.7h-40.7v-40.7h40.7m3-3h-46.7v46.7h46.7v-46.7v0Z"/></g></g><g><g><rect width="43.7" height="43.7" rx="0" ry="0" transform="translate(232.1 421.2)" fill="#29abe2"/><path d="M274.3,422.7v40.7h-40.7v-40.7h40.7m3-3h-46.7v46.7h46.7v-46.7v0Z"/></g></g></g></g><g><g><g><path d="M748.3,402.1c-2.3,0-4.3-1.9-4.3-4.3v-157.4c0-2.3,1.9-4.3,4.3-4.3h178.9c2.3,0,4.3,1.9,4.3,4.3v157.5c0,2.3-1.9,4.3-4.3,4.3h-178.9v-.1Z" fill="#ede6df"/><path d="M927.3,236.6c2.1,0,3.8,1.7,3.8,3.8v157.5c0,2.1-1.7,3.8-3.8,3.8h-179c-2.1,0-3.8-1.7-3.8-3.8v-157.5c0-2.1,1.7-3.8,3.8-3.8h179m0-1h-179c-2.6,0-4.8,2.1-4.8,4.8v157.5c0,2.6,2.1,4.8,4.8,4.8h178.9c2.6,0,4.8-2.1,4.8-4.8v-157.5c0-2.7-2.1-4.8-4.7-4.8v0Z"/></g><g><polygon points="725.7,242.1 839.1,156.2 952.5,242.1" fill="#ad6357"/><path d="M839.1,156.9l56.8,43L951,241.6h-223.8l111.9-84.7m0-1.3c-38.3,29-76.6,58-114.9,87c76.6,0,153.2,0,229.8,0-38.3-29-76.6-58-114.9-87v0Z"/></g><g><g><rect width="44.2" height="75.8" rx="0" ry="0" transform="translate(858.5 326.3)" fill="#42210b"/><path d="M902.2,326.8v74.8h-43.2v-74.8h43.2m1-1h-45.2v76.8h45.2v-76.8v0Z"/></g><g><path d="M893.7,373.5c-2.4,0-4.4-2-4.4-4.4s2-4.4,4.4-4.4s4.4,2,4.4,4.4-1.9,4.4-4.4,4.4Z"/><path d="M893.7,365.2c2.1,0,3.9,1.7,3.9,3.9s-1.7,3.9-3.9,3.9c-2.1,0-3.9-1.7-3.9-3.9s1.8-3.9,3.9-3.9m0-1c-2.7,0-4.9,2.2-4.9,4.9s2.2,4.9,4.9,4.9s4.9-2.2,4.9-4.9-2.2-4.9-4.9-4.9v0Z"/></g></g><g><g><g><rect width="45.7" height="45.7" rx="0" ry="0" transform="translate(773.3 260.4)" fill="#d5ffff"/><path d="M818.5,260.9v44.7h-44.7v-44.7h44.7m1-1h-46.7v46.7h46.7v-46.7v0Z"/></g></g></g><g><g><rect width="45.7" height="45.7" rx="0" ry="0" transform="translate(773.3 329.7)" fill="#d5ffff"/><path d="M818.5,330.2v44.7h-44.7v-44.7h44.7m1-1h-46.7v46.7h46.7v-46.7v0Z"/></g></g><g><g><g><rect width="45.7" height="45.7" rx="0" ry="0" transform="translate(856 257.9)" fill="#d5ffff"/><path d="M901.2,258.4v44.7h-44.7v-44.7h44.7m1-1h-46.7v46.7h46.7v-46.7v0Z"/></g></g></g></g></g><g><g><g><path d="M430.5,551.4c-2.3,0-4.3-1.9-4.3-4.3v-176c0-2.3,1.9-4.3,4.3-4.3h211.7c2.3,0,4.3,1.9,4.3,4.3v176.1c0,2.3-1.9,4.3-4.3,4.3h-211.7v-.1Z" fill="#c7a899"/><path d="M642.2,367.3c2.1,0,3.8,1.7,3.8,3.8v176.1c0,2.1-1.7,3.8-3.8,3.8h-211.7c-2.1,0-3.8-1.7-3.8-3.8v-176.1c0-2.1,1.7-3.8,3.8-3.8h211.7m0-1h-211.7c-2.6,0-4.8,2.1-4.8,4.8v176.1c0,2.6,2.1,4.8,4.8,4.8h211.7c2.6,0,4.8-2.1,4.8-4.8v-176.1c-.1-2.6-2.2-4.8-4.8-4.8v0Z"/></g><g><polygon points="413.1,383.2 537.2,248.3 661.3,383.2" fill="#603852"/><path d="M537.2,249.1L660.1,382.7h-245.8l37.9-41.2l85-92.4m0-1.5C495.5,293,453.7,338.3,412,383.7c83.5,0,167,0,250.4,0C620.7,338.3,579,293,537.2,247.6v0Z"/></g><g><g><rect width="53.8" height="92.2" rx="0" ry="0" transform="translate(450.9 459.2)" fill="#42210b"/><path d="M504.2,459.7v91.2h-52.8v-91.2h52.8m1-1h-54.8v93.2h54.8v-93.2v0Z"/></g><g><path d="M461.8,516.7c-3,0-5.4-2.4-5.4-5.4s2.4-5.4,5.4-5.4s5.4,2.4,5.4,5.4-2.4,5.4-5.4,5.4Z"/><path d="M461.8,506.3c2.7,0,4.9,2.2,4.9,4.9s-2.2,4.9-4.9,4.9-4.9-2.2-4.9-4.9s2.2-4.9,4.9-4.9m0-1c-3.3,0-5.9,2.7-5.9,5.9s2.7,5.9,5.9,5.9s5.9-2.7,5.9-5.9-2.6-5.9-5.9-5.9v0Z"/></g></g><g><g><rect width="92.2" height="92.2" rx="0" ry="0" transform="translate(531.8 413)" fill="#2995e2"/><path d="M623,414v90.2h-90.2v-90.2h90.2m2-2h-94.2v94.2h94.2v-94.2v0Z"/></g><g><line x1="577.9" y1="413" x2="577.9" y2="504.8" fill="none" stroke="#000" stroke-width="2" stroke-miterlimit="10"/></g><g><line x1="531.7" y1="459" x2="623.6" y2="459" fill="none" stroke="#000" stroke-width="2" stroke-miterlimit="10"/></g></g></g></g><g><g><g><path d="M657.8,849.5c-2.3,0-4.3-1.9-4.3-4.3v-193.4c0-2.3,1.9-4.3,4.3-4.3h232.5c2.3,0,4.3,1.9,4.3,4.3v193.5c0,2.3-1.9,4.3-4.3,4.3h-232.5v-.1Z" fill="#c7b299"/><path d="M890.3,648c2.1,0,3.8,1.7,3.8,3.8v193.5c0,2.1-1.7,3.8-3.8,3.8h-232.5c-2.1,0-3.8-1.7-3.8-3.8v-193.5c0-2.1,1.7-3.8,3.8-3.8h232.5m0-1h-232.5c-2.6,0-4.8,2.1-4.8,4.8v193.5c0,2.6,2.1,4.8,4.8,4.8h232.5c2.6,0,4.8-2.1,4.8-4.8v-193.5c-.1-2.7-2.2-4.8-4.8-4.8v0Z"/></g><g><polygon points="637,665.5 773,482.1 909,665.5" fill="#603813"/><path d="M773,483L908,665h-270l75.1-101.3L773,483m0-1.7C727.3,542.9,681.7,604.4,636,666c91.3,0,182.6,0,274,0-45.7-61.6-91.3-123.1-137-184.7v0Z"/></g><g><g><rect width="59" height="101" rx="0" ry="0" transform="translate(808.5 748.5)" fill="#42210b"/><path d="M867,749v100h-58v-100h58m1-1h-60v102h60v-102v0Z"/></g><g><circle r="6" transform="translate(855.5 805.5)"/><path d="M855.5,800c3,0,5.5,2.5,5.5,5.5s-2.5,5.5-5.5,5.5-5.5-2.5-5.5-5.5s2.5-5.5,5.5-5.5m0-1c-3.6,0-6.5,2.9-6.5,6.5s2.9,6.5,6.5,6.5s6.5-2.9,6.5-6.5-2.9-6.5-6.5-6.5v0Z"/></g></g><g><g><rect width="100" height="100" rx="0" ry="0" transform="translate(678.5 698.5)" fill="#29abe2"/><path d="M777,700v97h-97v-97h97m3-3h-103v103h103v-103v0Z"/></g><g><line x1="728.5" y1="698" x2="728.5" y2="798.5" fill="none" stroke="#000" stroke-width="3" stroke-miterlimit="10"/></g><g><line x1="779" y1="728.3" x2="678.5" y2="728.3" fill="none" stroke="#000" stroke-width="3" stroke-miterlimit="10"/></g></g></g></g><g><g><g><path d="M1054,809.2c-2.3,0-4.3-1.9-4.3-4.3v-151.5c0-2.3,1.9-4.3,4.3-4.3h219.2c2.3,0,4.3,1.9,4.3,4.3v151.6c0,2.3-1.9,4.3-4.3,4.3h-219.2v-.1Z" fill="#c7b799"/><path d="M1273.2,649.7c2.1,0,3.8,1.7,3.8,3.8v151.5c0,2.1-1.7,3.8-3.8,3.8h-219.2c-2.1,0-3.8-1.7-3.8-3.8v-151.6c0-2.1,1.7-3.8,3.8-3.8h219.2m0-.9h-219.2c-2.6,0-4.8,2.1-4.8,4.8v151.5c0,2.6,2.1,4.8,4.8,4.8h219.2c2.6,0,4.8-2.1,4.8-4.8v-151.6c-.1-2.6-2.2-4.7-4.8-4.7v0Z"/></g><g><polygon points="1036.9,663.2 1164.4,518 1291.9,663.2" fill="#564c22"/><path d="M1164.4,518.7l50,57l76.4,87h-252.8l62.9-71.6l63.5-72.4m0-1.5c-42.9,48.8-85.7,97.7-128.6,146.5c85.7,0,171.5,0,257.2,0-42.9-48.8-85.7-97.7-128.6-146.5v0Z"/></g><g><g><rect width="46.6" height="79.9" rx="0" ry="0" transform="translate(1140.4 729.4)" fill="#42210b"/><path d="M1186.5,729.9v78.9h-45.6v-78.9h45.6m1-1h-47.6v80.9h47.6v-80.9v0Z"/></g><g><path d="M1177.6,779.1c-2.6,0-4.7-2.1-4.7-4.7s2.1-4.7,4.7-4.7s4.7,2.1,4.7,4.7c-.1,2.7-2.2,4.7-4.7,4.7Z"/><path d="M1177.6,770.3c2.3,0,4.2,1.9,4.2,4.2s-1.9,4.2-4.2,4.2-4.2-1.9-4.2-4.2s1.9-4.2,4.2-4.2m0-1c-2.8,0-5.2,2.3-5.2,5.2s2.3,5.2,5.2,5.2c2.8,0,5.2-2.3,5.2-5.2s-2.4-5.2-5.2-5.2v0Z"/></g></g><g><g><rect width="57.1" height="57.1" rx="0" ry="0" transform="translate(1068.8 712.4)" fill="#3fa9c8"/><path d="M1125.4,712.9v56.1h-56.1v-56.1h56.1m1-1h-58.1v58.1h58.1v-58.1v0Z"/></g><g><line x1="1097.3" y1="712.5" x2="1097.3" y2="769.2" fill="none" stroke="#000" stroke-miterlimit="10"/></g><g><line x1="1125.9" y1="729.6" x2="1069.1" y2="729.6" fill="none" stroke="#000" stroke-miterlimit="10"/></g></g><g><g><rect width="57.1" height="57.1" rx="0" ry="0" transform="translate(1202.7 712.1)" fill="#3fa9c8"/><path d="M1259.3,712.6v56.1h-56.1v-56.1h56.1m1-1h-58.1v58.1h58.1v-58.1v0Z"/></g><g><line x1="1231.2" y1="712.2" x2="1231.2" y2="768.9" fill="none" stroke="#000" stroke-miterlimit="10"/></g><g><line x1="1259.7" y1="729.3" x2="1203" y2="729.3" fill="none" stroke="#000" stroke-miterlimit="10"/></g></g></g></g><g><g><g><path d="M41,715.2c-2.3,0-4.3-1.9-4.3-4.3v-113.1c0-2.3,1.9-4.3,4.3-4.3h164.7c2.3,0,4.3,1.9,4.3,4.3v113.2c0,2.3-1.9,4.3-4.3,4.3h-164.7v-.1Z" fill="#e6b799"/><path d="M205.8,594c2.1,0,3.8,1.7,3.8,3.8v113.2c0,2.1-1.7,3.8-3.8,3.8h-164.8c-2.1,0-3.8-1.7-3.8-3.8v-113.2c0-2.1,1.7-3.8,3.8-3.8h164.8m0-1L41,593c-2.6,0-4.8,2.1-4.8,4.8v113.2c0,2.6,2.1,4.8,4.8,4.8h164.7c2.6,0,4.8-2.1,4.8-4.8v-113.2c0-2.7-2.1-4.8-4.7-4.8v0Z"/></g><g><polygon points="27.1,604 124,493.6 220.9,604" fill="#561522"/><path d="M124,494.4l58.5,66.7l37.2,42.4h-191.5l85.9-97.8l9.9-11.3m0-1.5c-32.7,37.2-65.3,74.4-98,111.6c65.3,0,130.6,0,196,0-32.7-37.2-65.3-74.4-98-111.6v0Z"/></g><g><g><rect width="35.3" height="60.6" rx="0" ry="0" transform="translate(105.9 654.6)" fill="#42210b"/><path d="M140.6,655.1v59.6h-34.3v-59.6h34.3m1-1h-36.3v61.6h36.3v-61.6v0Z"/></g><g><circle r="3.4" transform="translate(134.1 688.9)"/><path d="M134.1,685.9c1.6,0,2.9,1.3,2.9,2.9s-1.3,2.9-2.9,2.9-2.9-1.3-2.9-2.9s1.2-2.9,2.9-2.9m0-1c-2.2,0-3.9,1.8-3.9,3.9s1.8,3.9,3.9,3.9c2.2,0,3.9-1.8,3.9-3.9s-1.8-3.9-3.9-3.9v0Z"/></g></g><g><g><rect width="43.3" height="43.3" rx="0" ry="0" transform="translate(51.3 641.7)" fill="#3fa9c8"/><path d="M94.1,642.2v42.3h-42.3v-42.3h42.3m1-1h-44.3v44.3h44.3v-44.3v0Z"/></g><g><line x1="72.9" y1="641.6" x2="72.9" y2="684.8" fill="none" stroke="#000" stroke-miterlimit="10"/></g><g><line x1="94.7" y1="654.7" x2="51.5" y2="654.7" fill="none" stroke="#000" stroke-miterlimit="10"/></g></g><g><g><rect width="43.3" height="43.3" rx="0" ry="0" transform="translate(153.3 641.5)" fill="#3fa9c8"/><path d="M196.1,642v42.3h-42.3v-42.3h42.3m1-1h-44.3v44.3h44.3v-44.3v0Z"/></g><g><line x1="174.9" y1="641.4" x2="174.9" y2="684.6" fill="none" stroke="#000" stroke-miterlimit="10"/></g><g><line x1="196.7" y1="654.4" x2="153.5" y2="654.4" fill="none" stroke="#000" stroke-miterlimit="10"/></g></g></g></g><g><g><path d="M352.1,517.5h-8.2c-3,0-5.4-2.4-5.4-5.4v-83.2c0-3,2.4-5.4,5.4-5.4h8.2c3,0,5.4,2.4,5.4,5.4v83.2c0,3-2.4,5.4-5.4,5.4Z" fill="#a67c52" stroke="#000" stroke-miterlimit="10"/><path d="M370.9,383.5c4.5,38.7-6.3,56.8-13.2,61-5.3,3.2-10.5,3-10.5,3s-5.3-.2-10.5-4c-18.6-13.6-13.2-60-13.2-60c2.3-19.6,10.8-64,23.7-64s21.4,44.2,23.7,64Z" fill="#006837" stroke="#333" stroke-miterlimit="10"/></g><g><path d="M710.1,399.5h-8.2c-3,0-5.4-2.4-5.4-5.4v-83.2c0-3,2.4-5.4,5.4-5.4h8.2c3,0,5.4,2.4,5.4,5.4v83.2c0,3-2.4,5.4-5.4,5.4Z" fill="#8c6239" stroke="#000" stroke-miterlimit="10"/><path d="M727.5,307.3c0,0-3.8,14.7-11.8,19.3-5.2,3-10.5,3-10.5,3s0,0,0,0-5.3-.2-10.5-4c-15.3-11.2-13.2-60-13.2-60c.4-11,1.8-26.3,5.9-44.3.3-2.3,1.2-7.3,5-12c1.2-1.4,6-7.4,12.8-7.8c8.6-.5,14.9,8.5,17.2,11.8c5.4,7.6,6.8,15.1,8,37c1.7,28,.9,42.5-2.9,57Z" fill="#009245" stroke="#333" stroke-miterlimit="10"/></g><g><path d="M1302.1,860.5h-8.2c-3,0-5.4-2.4-5.4-5.4v-83.2c0-3,2.4-5.4,5.4-5.4h8.2c3,0,5.4,2.4,5.4,5.4v83.2c0,3-2.4,5.4-5.4,5.4Z" fill="#a67c52" stroke="#000" stroke-miterlimit="10"/><path d="M1320.9,726.5c4.5,38.7-6.3,56.8-13.2,61-5.3,3.2-10.5,3-10.5,3s-5.3-.2-10.5-4c-18.6-13.6-13.2-60-13.2-60c2.3-19.6,10.8-64,23.7-64s21.4,44.2,23.7,64Z" fill="#006837" stroke="#333" stroke-miterlimit="10"/></g><g><path d="M376.1,550.5h-8.2c-3,0-5.4-2.4-5.4-5.4v-83.2c0-3,2.4-5.4,5.4-5.4h8.2c3,0,5.4,2.4,5.4,5.4v83.2c0,3-2.4,5.4-5.4,5.4Z" fill="#8c6239" stroke="#000" stroke-miterlimit="10"/><path d="M393.5,458.3c0,0-3.8,14.7-11.8,19.3-5.2,3-10.5,3-10.5,3s0,0,0,0-5.3-.2-10.5-4c-15.3-11.2-13.2-60-13.2-60c.4-11,1.8-26.3,5.9-44.3.3-2.3,1.2-7.3,5-12c1.2-1.4,6-7.4,12.8-7.8c8.6-.5,14.9,8.5,17.2,11.8c5.4,7.6,6.8,15.1,8,37c1.7,28,.9,42.5-2.9,57Z" fill="#009245" stroke="#333" stroke-miterlimit="10"/></g><g><path d="M1330.1,439.5h-8.2c-3,0-5.4-2.4-5.4-5.4v-83.2c0-3,2.4-5.4,5.4-5.4h8.2c3,0,5.4,2.4,5.4,5.4v83.2c0,3-2.4,5.4-5.4,5.4Z" fill="#8c6239" stroke="#000" stroke-miterlimit="10"/><path d="M1347.5,347.3c0,0-3.8,14.7-11.8,19.3-5.2,3-10.5,3-10.5,3s0,0,0,0-5.3-.2-10.5-4c-15.3-11.2-13.2-60-13.2-60c.4-11,1.8-26.3,5.9-44.3.3-2.3,1.2-7.3,5-12c1.2-1.4,6-7.4,12.8-7.8c8.6-.5,14.9,8.5,17.2,11.8c5.4,7.6,6.8,15.1,8,37c1.7,28,.9,42.5-2.9,57Z" fill="#009245" stroke="#333" stroke-miterlimit="10"/></g></g><g><g><g><path d="M1071.3,465.5c-2.3,0-4.3-1.9-4.3-4.3v-157.4c0-2.3,1.9-4.3,4.3-4.3h253c2.3,0,4.3,1.9,4.3,4.3v157.5c0,2.3-1.9,4.3-4.3,4.3h-253v-.1Z" fill="#fcffdf"/><path d="M1324.3,300c2.1,0,3.8,1.7,3.8,3.8v157.5c0,2.1-1.7,3.8-3.8,3.8h-253c-2.1,0-3.8-1.7-3.8-3.8v-157.5c0-2.1,1.7-3.8,3.8-3.8h253m0-1h-253c-2.6,0-4.8,2.1-4.8,4.8v157.5c0,2.6,2.1,4.8,4.8,4.8h253c2.6,0,4.8-2.1,4.8-4.8v-157.5c0-2.7-2.1-4.8-4.8-4.8v0Z"/></g><g><polygon points="1049.1,305.5 1201.5,219.6 1353.8,305.5" fill="#8a6357"/><path d="M1201.4,220.1L1351.9,305h-300.9l150.4-84.9m0-1.1c-51.4,29-102.8,58-154.3,87c102.8,0,205.7,0,308.5,0-51.3-29-102.7-58-154.2-87v0Z"/></g><g><g><rect width="44.2" height="75.8" rx="0" ry="0" transform="translate(1181.4 389.7)" fill="#42210b"/><path d="M1225.1,390.2v74.8h-43.2v-74.8h43.2m1-1h-45.2v76.8h45.2v-76.8v0Z"/></g><g><path d="M1216.7,436.9c-2.4,0-4.4-2-4.4-4.4s2-4.4,4.4-4.4s4.4,2,4.4,4.4-2,4.4-4.4,4.4Z"/><path d="M1216.7,428.6c2.1,0,3.9,1.7,3.9,3.9c0,2.1-1.7,3.9-3.9,3.9-2.1,0-3.9-1.7-3.9-3.9c0-2.1,1.8-3.9,3.9-3.9m0-1c-2.7,0-4.9,2.2-4.9,4.9s2.2,4.9,4.9,4.9s4.9-2.2,4.9-4.9-2.2-4.9-4.9-4.9v0Z"/></g></g><g><g><path d="M1203.5,369.5c-12.6,0-22.9-10.3-22.9-22.9s10.3-22.9,22.9-22.9s22.9,10.3,22.9,22.9-10.3,22.9-22.9,22.9Z" fill="#a8ffff"/><path d="M1203.5,324.3c12.3,0,22.4,10,22.4,22.4c0,12.3-10,22.4-22.4,22.4-12.3,0-22.4-10-22.4-22.4.1-12.4,10.1-22.4,22.4-22.4m0-1v0c-12.9,0-23.4,10.5-23.4,23.4v0c0,12.9,10.5,23.4,23.4,23.4v0c12.9,0,23.4-10.5,23.4-23.4v0c0-13-10.5-23.4-23.4-23.4v0Z"/></g></g><g><g><rect width="45.7" height="45.7" rx="0" ry="0" transform="translate(1256.8 323.8)" fill="#a8ffff"/><path d="M1302,324.3v44.7h-44.7v-44.7h44.7m1-1h-46.7v46.7h46.7v-46.7v0Z"/></g></g><g><g><g><rect width="45.7" height="45.7" rx="0" ry="0" transform="translate(1096.3 323.8)" fill="#a8ffff"/><path d="M1141.5,324.3v44.7h-44.7v-44.7h44.7m1-1h-46.7v46.7h46.7v-46.7v0Z"/></g></g></g><g><g><rect width="45.7" height="45.7" rx="0" ry="0" transform="translate(1096.3 393.1)" fill="#a8ffff"/><path d="M1141.5,393.6v44.7h-44.7v-44.7h44.7m1-1h-46.7v46.7h46.7v-46.7v0Z"/></g></g><g><g><rect width="45.7" height="45.7" rx="0" ry="0" transform="translate(1256.8 390.8)" fill="#a8ffff"/><path d="M1302,391.3v44.7h-44.7v-44.7h44.7m1-1h-46.7v46.7h46.7v-46.7v0Z"/></g></g></g></g><g><path d="M344.6,260.6c-6.5-12.2-5.3-26.4,3.1-36.9c10.2-12.7,26.3-14,28.7-14.2-.8-2.2-4.7-13.7,2.1-24.6c6.6-10.6,22.4-19.3,37.3-13.5c12.8,5,20.1,18.8,16.1,32.3.3-3,1.5-9.2,6.7-14c8.9-8.4,24.7-8.3,34.2-3.1c17.6,9.6,14.2,36.9,13.1,45.7-1.2,10.1-4.5,18.2-7.3,23.6-44.6,1.6-89.3,3.2-134,4.7Z" fill="#22b573" stroke="#006837" stroke-miterlimit="10"/><path d="M448.4,266.2c4.3-9.7,2.6-20.6-4.5-28.2-8.6-9.3-21-9.5-22.9-9.5.5-1.7,2.8-10.7-3-18.8-5.7-7.8-18.4-13.8-29.5-8.6-9.6,4.4-14.4,15.4-10.5,25.6-.4-2.3-1.7-7-6-10.5-7.4-6-19.5-5.2-26.5-.8-13,8.2-8.8,29.1-7.5,35.8c1.5,7.7,4.5,13.8,7,17.8c34.3-.9,68.9-1.9,103.4-2.8Z" fill="#009245" stroke="#006837" stroke-miterlimit="10"/><path d="M959.5,255.4c-.9-3.8-6.3-27.4,8.2-46.6c15.4-20.2,41-19.9,51.5-19.8c22.7.3,55.3,10.6,65.9,37.5c4.2,10.6,3.7,20.6,2.9,26.8-42.8.7-85.6,1.4-128.5,2.1Z" fill="#8cc63f" stroke="#006837" stroke-miterlimit="10"/><path d="M1110.8,255.2c.6-2.6,4.3-18.6-5.6-31.6-10.4-13.7-27.8-13.5-35-13.4-15.4.2-37.5,7.2-44.7,25.4-2.8,7.2-2.5,14-2,18.2c29.1.4,58.2.9,87.3,1.4Z" fill="#39b54a" stroke="#006837" stroke-miterlimit="10"/><path d="M975.6,255.5c-.6-2.3-3.8-16.5,5-28.1c9.3-12.2,24.8-12,31.1-12c13.7.2,33.4,6.4,39.9,22.7c2.5,6.4,2.3,12.4,1.7,16.2-25.9.4-51.8.8-77.7,1.2Z" fill="#006837" stroke="#22b573" stroke-miterlimit="10"/><path d="M1109.8,487.9c-.6-2.4-4.1-17.6,5.3-30c9.9-13,26.4-12.8,33.2-12.7c14.6.2,35.6,6.8,42.5,24.2c2.7,6.8,2.4,13.3,1.9,17.3-27.6.3-55.3.8-82.9,1.2Z" fill="#8cc63f" stroke="#006837" stroke-miterlimit="10"/><path d="M1120.2,488c-.4-1.5-2.5-10.7,3.2-18.1c6-7.9,16-7.8,20.1-7.7c8.8.1,21.5,4.1,25.7,14.6c1.6,4.1,1.5,8,1.1,10.4-16.7.3-33.4.5-50.1.8Z" fill="#006837" stroke="#22b573" stroke-miterlimit="10"/><path d="M526,555.1c-.6-2.5-4.1-17.9,5.4-30.5c10.1-13.3,26.9-13,33.8-13c14.9.2,36.2,7,43.2,24.6c2.8,6.9,2.5,13.5,1.9,17.6-28.1.4-56.2.9-84.3,1.3Z" transform="translate(.000001 0)" fill="#8cc63f" stroke="#006837" stroke-miterlimit="10"/><path d="M625.2,555c.4-1.7,2.8-12.2-3.7-20.7-6.8-9-18.3-8.9-22.9-8.8-10.1.1-24.6,4.7-29.3,16.7-1.9,4.7-1.7,9.2-1.3,11.9c19.1.3,38.2.6,57.2.9Z" fill="#39b54a" stroke="#006837" stroke-miterlimit="10"/><path d="M771.4,860c.8-2.6,5.7-19.2-7.4-32.6-13.9-14.2-37-14-46.5-13.9-20.5.2-49.9,7.4-59.5,26.3-3.8,7.4-3.4,14.4-2.6,18.8c38.7.4,77.4.9,116,1.4Z" fill="#8cc63f" stroke="#006837" stroke-miterlimit="10"/><path d="M634.9,859.8c-.6-1.8-3.9-13,5-22.1c9.4-9.6,25.1-9.5,31.5-9.4c13.9.1,33.8,5.1,40.4,17.8c2.6,5,2.3,9.8,1.8,12.7-26.2.4-52.4.7-78.7,1Z" fill="#39b54a" stroke="#006837" stroke-miterlimit="10"/><path d="M756.9,860c.5-1.6,3.5-11.6-4.5-19.7-8.4-8.6-22.4-8.4-28.1-8.4-12.4.1-30.1,4.5-36,15.9-2.3,4.5-2,8.7-1.6,11.3c23.5.4,46.9.7,70.2.9Z" fill="#006837" stroke="#22b573" stroke-miterlimit="10"/><path d="M130.5,786.3c4.7-11.6,2.8-24.6-4.9-33.8-9.4-11.1-23-11.4-25-11.4.5-2.1,3.1-12.9-3.3-22.6C91,709.1,77.1,702,65,708.2c-10.5,5.3-15.7,18.5-11.5,30.7-.5-2.8-1.9-8.4-6.6-12.5-8-7.2-21.3-6.3-29-.9-14.2,9.8-9.6,34.9-8.2,42.9c1.7,9.2,4.9,16.5,7.6,21.4c37.8-1.2,75.5-2.3,113.2-3.5Z" fill="#009245" stroke="#39b54a" stroke-miterlimit="10"/><path d="M1201,877.3c-5.2-10.7-4.3-23.3,2.5-32.5c8.2-11.2,21.1-12.4,23.1-12.5-.6-2-3.8-12.1,1.7-21.7c5.3-9.3,18-17,30-11.9c10.3,4.4,16.2,16.6,12.9,28.5.3-2.7,1.2-8.1,5.4-12.4c7.2-7.4,19.8-7.4,27.5-2.8c14.1,8.4,11.4,32.6,10.6,40.3-1,8.9-3.6,16-5.8,20.8-36,1.4-72,2.8-107.9,4.2Z" fill="#22b573" stroke="#006837" stroke-miterlimit="10"/><path d="M688.7,434.1c-4.5-9.2-3.7-20,2.1-27.9c7-9.6,18.1-10.6,19.8-10.7-.6-1.7-3.2-10.4,1.4-18.6c4.5-8,15.5-14.6,25.8-10.3c8.8,3.8,13.9,14.2,11.1,24.5.2-2.3,1.1-6.9,4.7-10.6c6.2-6.3,17-6.3,23.6-2.4c12.1,7.2,9.8,28,9.1,34.6-.9,7.6-3.1,13.8-5,17.9-30.9,1.1-61.8,2.3-92.6,3.5Z" fill="#22b573" stroke="#006837" stroke-miterlimit="10"/><path d="M760.3,438.3c2.9-7.3,1.8-15.6-3.1-21.4-5.9-7-14.5-7.2-15.8-7.2.3-1.3,2-8.1-2.1-14.3-3.9-5.9-12.7-10.5-20.4-6.5-6.6,3.4-9.9,11.7-7.3,19.4-.3-1.8-1.2-5.3-4.1-7.9-5.1-4.6-13.4-4-18.3-.6-9,6.2-6.1,22.1-5.2,27.1c1.1,5.8,3.1,10.4,4.8,13.5c23.9-.6,47.7-1.4,71.5-2.1Z" fill="#009245" stroke="#39b54a" stroke-miterlimit="10"/><path d="M356.7,532.6c.6-1.7,4.4-12.6-5.7-21.4-10.6-9.3-28.3-9.2-35.5-9.1-15.7.1-38.1,4.9-45.5,17.3-2.9,4.9-2.6,9.5-2,12.3c29.6.2,59.1.6,88.7.9Z" fill="#39b54a" stroke="#006837" stroke-miterlimit="10"/><path d="M1328.8,566.7c4.8-9.8,3.9-21.3-2.3-29.8-7.5-10.3-19.4-11.3-21.2-11.5.6-1.8,3.5-11.1-1.5-19.9-4.8-8.6-16.5-15.6-27.5-11-9.4,4-14.8,15.2-11.8,26.1-.3-2.5-1.1-7.4-5-11.3-6.6-6.8-18.2-6.8-25.2-2.5-13,7.7-10.5,29.9-9.7,37c.9,8.2,3.3,14.7,5.4,19.1c32.9,1.3,65.8,2.6,98.8,3.8Z" fill="#22b573" stroke="#006837" stroke-miterlimit="10"/><path d="M1252.3,571.3c-3.1-7.8-1.9-16.6,3.3-22.8c6.3-7.5,15.5-7.7,16.9-7.7-.4-1.4-2.1-8.7,2.2-15.2c4.2-6.3,13.5-11.2,21.8-7c7.1,3.6,10.6,12.5,7.7,20.7.3-1.9,1.3-5.6,4.4-8.5c5.4-4.9,14.4-4.2,19.6-.6c9.6,6.6,6.5,23.5,5.5,29-1.1,6.2-3.3,11.1-5.1,14.4-25.4-.8-50.9-1.6-76.3-2.3Z" fill="#009245" stroke="#39b54a" stroke-miterlimit="10"/><path d="M251,594.3c-.4-1.6-2.6-11.3,3.4-19.2c6.3-8.3,16.9-8.2,21.2-8.2c9.4.1,22.8,4.4,27.2,15.5c1.7,4.4,1.5,8.5,1.2,11-17.7.4-35.3.7-53,.9Z" fill="#006837" stroke="#22b573" stroke-miterlimit="10"/><path d="M316.3,612.1c.4-1.4,2.6-9.9-3.4-16.9-6.4-7.3-17.1-7.2-21.4-7.2-9.5.1-23,3.9-27.4,13.6-1.7,3.8-1.6,7.5-1.2,9.7c17.7.3,35.5.5,53.4.8Z" fill="#39b54a" stroke="#006837" stroke-miterlimit="10"/><path d="M1003.4,644c4.5-8.6,3.7-18.5-2.2-25.9-7.2-8.9-18.5-9.8-20.2-10c.6-1.6,3.3-9.6-1.5-17.3-4.6-7.4-15.8-13.6-26.2-9.5-9,3.5-14.1,13.2-11.3,22.7-.2-2.1-1.1-6.4-4.7-9.8-6.3-5.9-17.3-5.9-24.1-2.2-12.4,6.7-10,25.9-9.2,32.1.9,7.1,3.2,12.8,5.1,16.6c31.5,1.1,62.9,2.2,94.3,3.3Z" fill="#00a99d" stroke="#006837" stroke-miterlimit="10"/></g><g><g id="e9tqyCnEDjJ274_tr" transform="translate(1292.700012,74.700001) rotate(0)"><g transform="translate(-1292.700012,-74.700001)"><g><path d="M1394,74.7c0,1.1-.9,2.1-2.1,2.1h-47.4c-1.1,0-2-.9-2-2.1v0c0-1.1.9-2,2-2h47.4c1.2-.1,2.1.8,2.1,2v0Z" fill="#ffa300"/><path d="M1242.9,74.7c0,1.1-.9,2.1-2.1,2.1h-47.4c-1.1,0-2-.9-2-2.1v0c0-1.1.9-2,2-2h47.4c1.2-.1,2.1.8,2.1,2v0Z" fill="#ffa300"/><path d="M1292.7,176c-1.1,0-2.1-.9-2.1-2.1v-47.4c0-1.1.9-2,2.1-2v0c1.1,0,2,.9,2,2v47.4c.1,1.2-.9,2.1-2,2.1v0Z" fill="#ffa300"/><path d="M1292.7,24.9c-1.1,0-2.1-.9-2.1-2.1v-47.4c0-1.1.9-2,2-2v0c1.1,0,2,.9,2,2v47.4c.2,1.2-.8,2.1-1.9,2.1v0Z" fill="#ffa300"/><path d="M1221.1,146.3c-.8-.8-.8-2.1,0-2.9l33.5-33.5c.8-.8,2.1-.8,2.9,0v0c.8.8.8,2.1,0,2.9L1224,146.3c-.8.8-2.1.8-2.9,0v0Z" fill="#ffa300"/><path d="M1327.9,39.5c-.8-.8-.8-2.1,0-2.9L1361.5,3c.8-.8,2.1-.8,2.9,0v0c.8.8.8,2.1,0,2.9l-33.5,33.5c-.9.9-2.2.9-3,.1v0Z" fill="#ffa300"/><path d="M1221.1,3c.8-.8,2.1-.8,2.9,0l33.5,33.5c.8.8.8,2.1,0,2.9v0c-.8.8-2.1.8-2.9,0L1221.1,5.9c-.8-.8-.8-2.1,0-2.9v0Z" fill="#ffa300"/><path d="M1327.9,109.9c.8-.8,2.1-.8,2.9,0l33.5,33.5c.8.8.8,2.1,0,2.9v0c-.8.8-2.1.8-2.9,0l-33.5-33.5c-.8-.8-.8-2.1,0-2.9v0Z" fill="#ffa300"/><path d="M1364.5,120c-.5.8-1.6,1-2.4.5l-33.6-21.2c-.8-.5-1-1.6-.5-2.4v0c.5-.8,1.6-1,2.4-.5l33.6,21.2c.7.6,1,1.6.5,2.4v0Z" fill="#ffa300"/><path d="M1257.4,52.4c-.5.8-1.6,1-2.4.5l-33.6-21.2c-.8-.5-1-1.6-.5-2.4v0c.5-.8,1.6-1,2.4-.5L1256.9,50c.8.5,1,1.6.5,2.4v0Z" fill="#ffa300"/><path d="M1247.4,146.4c-.8-.5-1-1.6-.5-2.4l21.2-33.6c.5-.8,1.6-1,2.4-.5v0c.8.5,1,1.6.5,2.4l-21.2,33.6c-.6.8-1.6,1.1-2.4.5v0Z" fill="#ffa300"/><path d="M1315,39.4c-.8-.5-1-1.6-.5-2.4l21.2-33.6c.5-.8,1.6-1,2.4-.5v0c.8.5,1,1.6.5,2.4l-21.2,33.6c-.6.8-1.6,1-2.4.5v0Z" fill="#ffa300"/><path d="M1209.9,93.4c-.2-.9.4-1.8,1.3-2.1l38.8-8.8c.9-.2,1.8.4,2.1,1.3v0c.2.9-.4,1.8-1.3,2.1L1212,94.7c-1,.2-1.9-.4-2.1-1.3v0Z" fill="#ffa300"/><path d="M1333.4,65.5c-.2-.9.4-1.8,1.3-2.1l38.8-8.8c.9-.2,1.8.4,2.1,1.3v0c.2.9-.4,1.8-1.3,2.1l-38.8,8.8c-1,.2-1.9-.4-2.1-1.3v0Z" fill="#ffa300"/><path d="M1274,-8.1c.9-.2,1.8.4,2.1,1.3l8.7,38.8c.2.9-.4,1.8-1.3,2.1v0c-.9.2-1.8-.4-2.1-1.3L1272.7,-6c-.2-1,.4-1.9,1.3-2.1v0Z" fill="#ffa300"/><path d="M1301.9,115.4c.9-.2,1.8.4,2.1,1.3l8.8,38.8c.2.9-.4,1.8-1.3,2.1v0c-.9.2-1.8-.4-2.1-1.3l-8.8-38.8c-.2-1,.4-1.9,1.3-2.1v0Z" fill="#ffa300"/><path d="M1376.1,90.5c-.2.9-1.1,1.5-2,1.4L1335,84.5c-.9-.2-1.5-1.1-1.4-2v0c.2-.9,1.1-1.5,2-1.4l39.1,7.4c1,.2,1.6,1.1,1.4,2v0Z" fill="#ffa300"/><path d="M1251.7,66.9c-.2.9-1.1,1.5-2,1.4l-39.1-7.4c-.9-.2-1.5-1.1-1.4-2v0c.2-.9,1.1-1.5,2-1.4l39.1,7.4c1,.2,1.6,1.1,1.4,2v0Z" fill="#ffa300"/><path d="M1276.9,158.1c-.9-.2-1.5-1.1-1.4-2l7.4-39.1c.2-.9,1.1-1.5,2-1.4v0c.9.2,1.5,1.1,1.4,2l-7.4,39.1c-.2.9-1.1,1.6-2,1.4v0Z" fill="#ffa300"/><path d="M1300.5,33.7c-.9-.2-1.5-1.1-1.4-2l7.4-39.1c.2-.9,1.1-1.5,2-1.4v0c.9.2,1.5,1.1,1.4,2l-7.4,39.1c-.2,1-1.1,1.6-2,1.4v0Z" fill="#ffa300"/><path d="M1222.5,122.5c-.5-.8-.3-1.9.5-2.4l32.8-22.4c.8-.5,1.9-.3,2.4.5v0c.5.8.3,1.9-.5,2.4L1224.9,123c-.8.5-1.8.3-2.4-.5v0Z" fill="#ffa300"/><path d="M1327.2,51.2c-.5-.8-.3-1.9.5-2.4l32.8-22.4c.8-.5,1.9-.3,2.4.5v0c.5.8.3,1.9-.5,2.4l-32.8,22.4c-.8.5-1.9.3-2.4-.5v0Z" fill="#ffa300"/><path d="M1244.9,4.5c.8-.5,1.9-.3,2.4.5l22.4,32.8c.5.8.3,1.9-.5,2.4v0c-.8.5-1.9.3-2.4-.5L1244.4,6.9c-.5-.8-.3-1.9.5-2.4v0Z" fill="#ffa300"/><path d="M1316.2,109.1c.8-.5,1.9-.3,2.4.5l22.4,32.8c.5.8.3,1.9-.5,2.4v0c-.8.5-1.9.3-2.4-.4l-22.4-32.8c-.5-.9-.3-1.9.5-2.5v0Z" fill="#ffa300"/><path d="M1353.9,99.5c-.3.7-1.1,1-1.7.7l-28.6-11.6c-.7-.3-1-1.1-.7-1.7v0c.3-.7,1.1-1,1.7-.7l28.6,11.6c.6.2.9,1,.7,1.7v0Z" fill="#ffa300"/><path d="M1262.7,62.5c-.3.7-1.1,1-1.7.7l-28.6-11.6c-.7-.3-1-1.1-.7-1.7v0c.3-.7,1.1-1,1.7-.7L1262,60.8c.6.2.9,1,.7,1.7v0Z" fill="#ffa300"/><path d="M1267.9,135.8c-.7-.3-1-1.1-.7-1.7l11.6-28.6c.3-.7,1.1-1,1.7-.7v0c.7.3,1,1.1.7,1.7l-11.6,28.6c-.2.7-1,1-1.7.7v0Z" fill="#ffa300"/><path d="M1304.9,44.6c-.7-.3-1-1.1-.7-1.7l11.6-28.6c.3-.7,1.1-1,1.7-.7v0c.7.3,1,1.1.7,1.7l-11.6,28.6c-.2.7-1,1-1.7.7v0Z" fill="#ffa300"/><path d="M1231.9,100.4c-.3-.7,0-1.5.7-1.8l28.5-12c.7-.3,1.5,0,1.8.7v0c.3.7,0,1.5-.7,1.8l-28.5,12c-.7.3-1.5-.1-1.8-.7v0Z" fill="#ffa300"/><path d="M1322.6,62c-.3-.7,0-1.5.7-1.7l28.5-12c.7-.3,1.5,0,1.7.7v0c.3.7,0,1.5-.7,1.8l-28.5,12c-.7.2-1.4-.1-1.7-.8v0Z" fill="#ffa300"/><path d="M1267,13.9c.7-.3,1.5,0,1.8.7l12,28.5c.3.7,0,1.5-.7,1.7v0c-.7.3-1.5,0-1.7-.7l-12-28.5c-.4-.6-.1-1.4.6-1.7v0Z" fill="#ffa300"/><path d="M1305.3,104.5c.7-.3,1.5,0,1.8.7l12,28.5c.3.7,0,1.5-.7,1.7v0c-.7.3-1.5,0-1.7-.7l-12-28.5c-.4-.6,0-1.4.6-1.7v0Z" fill="#ffa300"/><circle r="42.8" transform="translate(1291.6 74.1)" fill="#ffa300"/></g><circle r="36.3" transform="translate(1291.6 74.1)" fill="#ffce00"/><circle r="20.5" transform="translate(1291.6 74.1)" fill="#ffa300"/><circle r="6.1" transform="translate(1291.6 74.1)" fill="#ffce00"/></g></g></g><g transform="translate(-65.815182 18.049998)"><g id="e9tqyCnEDjJ313_to" transform="translate(-140.812889,66.452527)"><path d="M73.1,7c-10.6,0-19.7,4-21.5,9.5-2.8-.7-5.9-1.1-9-1.1-12.6,0-22.8,5.7-22.8,12.7c0,.1,0,.3.1.5-8.6.5-15.2,4.9-15.2,10.2c0,5,5.9,9.2,13.9,10c0,.2-.1.4-.1.5c0,3.5,5.6,6.3,12.4,6.3c3,0,5.8-.5,8-1.5c4.7,4.1,12.3,6.5,20.6,6.5c5.1,0,9.9-.9,14.1-2.6c3.7,2,8.5,3,13.4,3c6.5,0,12.6-1.8,16.3-4.9c2.2.5,4.5.7,6.8.7c11.4,0,20.6-5.2,20.6-11.6c0-.9-.2-1.7-.5-2.5c7.4-1.5,12.2-4.8,12.2-8.4c0-5.1-9.5-9.3-21.2-9.3-.1,0-.1,0-.1,0c0-.1,0-.1,0-.1c0-5.5-8.6-10-19.2-10-2.6,0-5.1.3-7.5.8C91.8,10.6,83.1,7,73.1,7v0Z" transform="translate(-73.550006,-34)" fill="#617d9b" stroke="#2e3192" stroke-miterlimit="10"/></g><g id="e9tqyCnEDjJ314_to" transform="translate(-129.280703,36.401345)"><path d="M932.8,100c14.7,0,27.2-6.8,29.7-15.9c3.9,1.1,8.2,1.7,12.5,1.7c17.5-.1,31.6-9.6,31.5-21.3c0-.3,0-.5-.1-.8c11.9-1,21-8.3,20.9-17-.1-8.2-8.2-15.2-19.4-16.7c0-.3.1-.6.1-.9c0-5.8-7.8-10.5-17.2-10.4-4.1,0-8.1.9-11.1,2.6-6.5-6.7-17.1-10.8-28.6-10.7-7,0-13.7,1.6-19.5,4.4-5-3.1-11.6-4.8-18.5-4.8-9,0-17.5,3.1-22.5,8.2-3-.7-6.2-1.1-9.4-1.1-15.8.1-28.5,8.8-28.4,19.5c0,1.4.3,2.8.7,4.2-10.2,2.6-16.8,8-16.8,14c0,8.5,13.3,15.4,29.5,15.4c0,0,.1,0,.2,0c0,.1,0,.2,0,.2.1,9.2,12,16.6,26.7,16.5c3.6,0,7.1-.5,10.4-1.4c3.4,8.5,15.5,14.4,29.3,14.3v0Z" transform="translate(-932.000458,-55.100625)" fill="#3a587c" stroke="#2e3192" stroke-miterlimit="10"/></g><g id="e9tqyCnEDjJ315_to" transform="translate(-89.181003,89.752532)"><path d="M142.1,24c-10.6,0-21.5,9.5-21.5,9.5s-5.9-1.1-9-1.1c-12.6,0-22.8,5.7-22.8,12.7c0,.1,0,.3.1.5-8.6.5-15.2,4.9-15.2,10.2c0,5,5.9,9.2,13.9,10c0,.2-.1.4-.1.5c0,3.5,5.6,6.3,12.4,6.3c3,0,5.8-.5,8-1.5c4.7,4.1,12.3,6.5,20.6,6.5c5.1,0,9.9-.9,14.1-2.6c3.6,1.9,8.4,2.9,13.3,2.9c6.5,0,12.6-1.8,16.3-4.9c2.2.5,4.5.7,6.8.7c11.4,0,20.6-5.2,20.6-11.6c0-.9-.2-1.7-.5-2.5c7.4-1.5,12.2-4.8,12.2-8.4c0-5.1-9.5-9.3-21.2-9.3-.1,0-.1,0-.1,0c0-.1,0-.1,0-.1c0-5.5-8.6-10-19.2-10-2.6,0-5.1.3-7.5.8-2.5-5-11.2-8.6-21.2-8.6v0Z" transform="translate(-142.500023,-50.950005)" fill="#617d9b" stroke="#2e3192" stroke-miterlimit="10"/></g><g id="e9tqyCnEDjJ316_to" transform="translate(-161.305969,72.399169)"><path d="M854.8,29c-10.9,0-20.2,4.9-22.1,11.7-2.9-.8-6.1-1.3-9.2-1.3-13,0-23.4,7-23.4,15.7c0,.2,0,.4.1.6-8.8.7-15.6,6.1-15.6,12.5c0,6.1,6,11.3,14.3,12.4c0,.2-.1.5-.1.7c0,4.3,5.7,7.8,12.7,7.8c3.1,0,6-.6,8.2-1.9c4.8,5,12.7,8,21.2,8c5.2,0,10.2-1.1,14.5-3.2c3.7,2.3,8.6,3.6,13.7,3.6c6.7,0,13-2.2,16.7-6c2.2.5,4.6.8,6.9.8c11.7,0,21.2-6.4,21.2-14.4c0-1-.2-2.1-.6-3.1c7.6-1.9,12.5-5.9,12.5-10.4C925.8,56.2,916,51,904,51c-.1,0-.1,0-.2,0c0,0,0-.1,0-.2c0-6.8-8.8-12.3-19.7-12.3-2.7,0-5.3.3-7.7,1-2.4-6-11.3-10.5-21.6-10.5v0Z" transform="translate(-855.200043,-62.299999)" fill="#253856" stroke="#2e3192" stroke-miterlimit="10"/></g></g></svg>
