<svg id="eOWxTYmMtRw1" xmlns="http://www.w3.org/2000/svg" xmlns:xlink="http://www.w3.org/1999/xlink" viewBox="0 0 1800.92 1378.12" shape-rendering="geometricPrecision" text-rendering="geometricPrecision" project-id="04d1c96df2ad49e7817b3a5ca05836be" export-id="716d36f27ae446fcbd17990340b0371d" cached="false" style="background-color:transparent">
<style><![CDATA[
#eOWxTYmMtRw3 {animation: eOWxTYmMtRw3_c_o 3000ms linear infinite normal forwards}@keyframes eOWxTYmMtRw3_c_o { 0% {opacity: 0} 33.333333% {opacity: 1} 56.666667% {opacity: 0} 83.333333% {opacity: 1} 100% {opacity: 0}} #eOWxTYmMtRw4 {animation: eOWxTYmMtRw4_c_o 3000ms linear infinite normal forwards}@keyframes eOWxTYmMtRw4_c_o { 0% {opacity: 0} 43.333333% {opacity: 1} 90% {opacity: 0} 100% {opacity: 0}} #eOWxTYmMtRw5 {animation: eOWxTYmMtRw5_c_o 3000ms linear infinite normal forwards}@keyframes eOWxTYmMtRw5_c_o { 0% {opacity: 0} 33.333333% {opacity: 1} 66.666667% {opacity: 0} 100% {opacity: 0}} #eOWxTYmMtRw6 {animation: eOWxTYmMtRw6_c_o 3000ms linear infinite normal forwards}@keyframes eOWxTYmMtRw6_c_o { 0% {opacity: 0} 50% {opacity: 1} 100% {opacity: 0}} #eOWxTYmMtRw7 {animation: eOWxTYmMtRw7_c_o 3000ms linear infinite normal forwards}@keyframes eOWxTYmMtRw7_c_o { 0% {opacity: 0} 13.333333% {opacity: 0} 53.333333% {opacity: 1} 100% {opacity: 0}} #eOWxTYmMtRw8 {animation: eOWxTYmMtRw8_c_o 3000ms linear infinite normal forwards}@keyframes eOWxTYmMtRw8_c_o { 0% {opacity: 0} 16.666667% {opacity: 0} 50% {opacity: 1} 83.333333% {opacity: 0} 100% {opacity: 0}} #eOWxTYmMtRw9 {animation: eOWxTYmMtRw9_c_o 3000ms linear infinite normal forwards}@keyframes eOWxTYmMtRw9_c_o { 0% {opacity: 0} 33.333333% {opacity: 0} 66.666667% {opacity: 1} 100% {opacity: 0}} #eOWxTYmMtRw70_to {animation: eOWxTYmMtRw70_to__to 3000ms linear infinite normal forwards}@keyframes eOWxTYmMtRw70_to__to { 0% {transform: translate(862.429138px,941.239288px)} 50% {transform: translate(867.429138px,930.239288px)} 100% {transform: translate(862.43px,941.24px)}} #eOWxTYmMtRw86 {animation: eOWxTYmMtRw86_c_o 3000ms linear infinite normal forwards}@keyframes eOWxTYmMtRw86_c_o { 0% {opacity: 0} 33.333333% {opacity: 0} 50% {opacity: 1} 66.666667% {opacity: 0} 100% {opacity: 0}} #eOWxTYmMtRw87 {animation: eOWxTYmMtRw87_c_o 3000ms linear infinite normal forwards}@keyframes eOWxTYmMtRw87_c_o { 0% {opacity: 0} 16.666667% {opacity: 0} 33.333333% {opacity: 1} 50% {opacity: 0} 100% {opacity: 0}} #eOWxTYmMtRw88 {animation: eOWxTYmMtRw88_c_o 3000ms linear infinite normal forwards}@keyframes eOWxTYmMtRw88_c_o { 0% {opacity: 0} 50% {opacity: 0} 66.666667% {opacity: 1} 83.333333% {opacity: 0} 100% {opacity: 0}} #eOWxTYmMtRw107 {animation: eOWxTYmMtRw107_c_o 3000ms linear infinite normal forwards}@keyframes eOWxTYmMtRw107_c_o { 0% {opacity: 0} 16.666667% {opacity: 1} 33.333333% {opacity: 0} 66.666667% {opacity: 0} 83.333333% {opacity: 1} 100% {opacity: 0}} #eOWxTYmMtRw108 {animation: eOWxTYmMtRw108_c_o 3000ms linear infinite normal forwards}@keyframes eOWxTYmMtRw108_c_o { 0% {opacity: 0} 16.666667% {opacity: 0} 50% {opacity: 1} 83.333333% {opacity: 0} 100% {opacity: 0}} #eOWxTYmMtRw109 {animation: eOWxTYmMtRw109_c_o 3000ms linear infinite normal forwards}@keyframes eOWxTYmMtRw109_c_o { 0% {opacity: 0} 3.333333% {opacity: 0} 20% {opacity: 1} 36.666667% {opacity: 0} 63.333333% {opacity: 0} 80% {opacity: 1} 96.666667% {opacity: 0} 100% {opacity: 0}} #eOWxTYmMtRw110 {animation: eOWxTYmMtRw110_c_o 3000ms linear infinite normal forwards}@keyframes eOWxTYmMtRw110_c_o { 0% {opacity: 0} 26.666667% {opacity: 0} 50% {opacity: 1} 73.333333% {opacity: 0} 100% {opacity: 0}} #eOWxTYmMtRw121 {animation: eOWxTYmMtRw121_c_o 3000ms linear infinite normal forwards}@keyframes eOWxTYmMtRw121_c_o { 0% {opacity: 0.01} 16.666667% {opacity: 1} 33.333333% {opacity: 0} 66.666667% {opacity: 0} 83.333333% {opacity: 1} 100% {opacity: 0}} #eOWxTYmMtRw122 {animation: eOWxTYmMtRw122_c_o 3000ms linear infinite normal forwards}@keyframes eOWxTYmMtRw122_c_o { 0% {opacity: 0} 13.333333% {opacity: 0} 33.333333% {opacity: 1} 50% {opacity: 0} 60% {opacity: 0} 76.666667% {opacity: 1} 90% {opacity: 0} 100% {opacity: 0}} #eOWxTYmMtRw123 {animation: eOWxTYmMtRw123_c_o 3000ms linear infinite normal forwards}@keyframes eOWxTYmMtRw123_c_o { 0% {opacity: 0} 20% {opacity: 0} 50% {opacity: 0.96} 80% {opacity: 0} 100% {opacity: 0}} #eOWxTYmMtRw124_to {animation: eOWxTYmMtRw124_to__to 25000ms linear infinite normal forwards}@keyframes eOWxTYmMtRw124_to__to { 0% {transform: translate(539.096085px,225.375px)} 3.333333% {transform: translate(624.096085px,194.375px)} 4.666667% {transform: translate(662.096085px,194.375px)} 6% {transform: translate(691.096085px,207.375px)} 16% {transform: translate(879.096085px,463.043153px)} 22.333333% {transform: translate(879.096085px,463.375px)} 28.333333% {transform: translate(1031.096085px,346.375px)} 35.666667% {transform: translate(1179.639575px,312.258238px)} 42% {transform: translate(1339.89px,334.315704px)} 49.333333% {transform: translate(1416.096085px,513.373405px)} 55% {transform: translate(1416.096085px,513.375px)} 63% {transform: translate(1568.806152px,460.557932px)} 69.333333% {transform: translate(1612.096085px,304.375px)} 77.333333% {transform: translate(1347.096085px,160.375px)} 100% {transform: translate(532.096085px,224.375px)}} #eOWxTYmMtRw124_tr {animation: eOWxTYmMtRw124_tr__tr 25000ms linear infinite normal forwards}@keyframes eOWxTYmMtRw124_tr__tr { 0% {transform: rotate(-13.100982deg)} 3.333333% {transform: rotate(-8.859469deg)} 4.666667% {transform: rotate(15.403664deg)} 6% {transform: rotate(42.779886deg)} 20.333333% {transform: rotate(40.791073deg)} 22.333333% {transform: rotate(-40.958242deg)} 28.333333% {transform: rotate(-23.993256deg)} 40% {transform: rotate(0.345187deg)} 42% {transform: rotate(53.195654deg)} 52.666667% {transform: rotate(53.2deg)} 55% {transform: rotate(-12.506574deg)} 67% {transform: rotate(-77.839162deg)} 69.333333% {transform: rotate(-152.993601deg)} 77.333333% {transform: rotate(-190.427035deg)} 100% {transform: rotate(-191.268578deg)}}
]]></style>
<g><path id="eOWxTYmMtRw3" d="M21.94,977C4.43,953.34,-4,922.09,1.84,893c.09,3.69.15,7.34.39,10.97.71,12.63,2.78,25.19,6.17,37.38c3.46,12.27,8.25,24,13.54,35.65v0Z" opacity="0" fill="#3686a8" stroke-width="0"/><path id="eOWxTYmMtRw4" d="M480.45,1332.23c-34.83-21.09-64.08-51.93-82.21-88.48-4.99-10.24-9.27-20.88-12.25-31.88c2.54,5.98,5.16,11.9,8.05,17.69c20.21,41.37,50.27,74.56,86.42,102.68v0l-.01-.01Z" opacity="0" fill="#3686a8" stroke-width="0"/><path id="eOWxTYmMtRw5" d="M1583.85,1184.74c-35.55,19.84-76.82,30.01-117.56,27.69-11.37-.73-22.73-2.28-33.77-5.12c6.46.75,12.9,1.4,19.35,1.75c45.93,2.9,89.69-6.82,131.98-24.33v0v.01Z" opacity="0" fill="#3686a8" stroke-width="0"/><path id="eOWxTYmMtRw6" d="M1800.92,878.03c-18.59,27.95-46.61,49.94-78.68,60.2-4.59,1.42-9.22,2.64-13.93,3.48c6.7-2.53,13.29-5.16,19.71-8.28c28.03-12.91,52.07-32.81,72.9-55.4v0Z" opacity="0" fill="#3686a8" stroke-width="0"/><path id="eOWxTYmMtRw7" d="M419.74,1332.23c-25.85-14.24-46.6-39.17-53.46-68.12c1.62,3.32,3.21,6.62,4.94,9.84c5.94,11.21,13.07,21.79,21.26,31.48c8.29,9.73,17.56,18.41,27.26,26.8v0Z" opacity="0" fill="#3686a8" stroke-width="0"/><path id="eOWxTYmMtRw8" d="M1574.36,1240.93c-29.92,17.42-65.81,25.11-100.18,20.15-4.89-.76-9.74-1.71-14.5-3.05c7.35.7,14.65,1.26,22.02,1.28c31.83.76,63.14-6.81,92.66-18.39v0v.01Z" opacity="0" fill="#3686a8" stroke-width="0"/><path id="eOWxTYmMtRw9" d="M1570.98,1290.72c-25.1,15.4-56.99,21.1-85.48,12.75c3.68.23,7.33.49,10.97.57c12.66.38,25.35-.58,37.8-2.91c12.53-2.39,24.64-6.14,36.71-10.41v0Z" opacity="0" fill="#3686a8" stroke-width="0"/></g><g><path d="M1344.61,585.49c-.62-.08-1.23-.14-1.85-.18-24.52-1.47-529.78-30.67-1101.73,23.31-30.37,2.87-99.28,10.06-140.44,47.72-36.89,33.76-48.33,89.1-14.04,118.31c47.23,40.24,165,26.76,170.46,26.76c47.24,0-135.02-4.42-188.51,45.07-37.56,34.75-10.91,123.32,34.35,154.93c88.72,61.97,247.94,26.17,267.05,19.16c21.74-7.98-35.71,12.08-36.06,51.26-.23,25.85,7.59,64.02,54.93,63.38c68.14-.92,141.92-24.27,134.72-21.34-38.04,15.46-103.68,8.08-77.95,94.58c24.37,81.96,158.75,129.41,267.71,151.2c89.37,17.87,275.16,33.05,420.16-6.13c32.95-8.9,173.13-46.77,182.5-111.27c9.56-65.8-91.17-126.37-108.29-135.21-27.29-14.08,140.98,75.76,263.39,63.87c102.76-9.98,168.59-81.36,157.21-130.07-15.49-66.35-198.03-117.88-216.04-119.72-27.62-2.82,245.37,38.68,326.89-29.58c43.94-36.79,31.23-100.9,2.01-142.25-45.45-64.31-94.6-124.18-396.44-163.81l-.03.01Z" fill="#3686a8" stroke-width="0"/></g><g><path d="M1243.04,603.35c0,0-396.71-28.76-847.28,20.84-23.33,2.57-76.29,9.02-107.91,42.77-28.35,30.26-37.14,79.86-10.79,106.04c36.29,36.07,126.79,23.99,130.98,23.99c36.3,0-103.75-3.96-144.85,40.4-28.86,31.15-8.38,110.53,26.39,138.87c68.17,55.54,190.52,23.46,205.2,17.17c16.71-7.15-27.44,10.83-27.71,45.95-.18,23.17,5.83,57.38,42.21,56.81c52.36-.82,109.05-21.75,103.52-19.13-29.23,13.85-79.66,7.24-59.9,84.78c18.73,73.46,121.98,115.99,205.71,135.52c68.67,16.02,211.43,29.62,322.85-5.49c25.32-7.98,133.03-41.92,140.23-99.73c7.34-58.98-70.05-113.27-83.21-121.19-20.97-12.62,108.33,67.9,202.38,57.25c78.96-8.94,129.54-72.93,120.8-116.58-11.91-59.47-152.16-105.66-166-107.31-21.22-2.52,188.54,34.67,251.18-26.51c33.77-32.98,24-90.44,1.54-127.51-34.96-57.7-72.77-111.42-305.33-146.94h-.01Z" fill="#4c9bb9" stroke-width="0"/></g><g><path d="M1201.25,618.99c0,0-325.51-26.43-695.23,19.16-19.15,2.36-62.6,8.29-88.55,39.31-23.26,27.81-30.47,73.4-8.85,97.46c29.78,33.15,104.03,22.05,107.48,22.05c29.79,0-85.13-3.64-118.86,37.13-23.68,28.63-6.88,101.59,21.66,127.63c55.94,51.05,156.33,21.56,168.37,15.78c13.71-6.57-22.52,9.95-22.74,42.23-.14,21.29,4.79,52.74,34.63,52.21c42.96-.76,89.48-19.99,84.94-17.58-23.99,12.73-65.37,6.65-49.15,77.92c15.37,67.52,100.09,106.61,168.79,124.55c56.35,14.72,173.49,27.22,264.91-5.05c20.78-7.33,109.16-38.53,115.06-91.66c6.03-54.2-57.48-104.11-68.28-111.39-17.21-11.6,88.89,62.41,166.07,52.62c64.79-8.22,106.29-67.03,99.12-107.15-9.77-54.66-124.86-97.11-136.21-98.62-17.42-2.32,154.71,31.86,206.1-24.37c27.71-30.31,19.69-83.12,1.26-117.19-28.69-53.03-59.71-102.4-250.54-135.05l.02.01Z" fill="#6fb9d0" stroke-width="0"/></g><g><g><g><path d="M446.72,621.22c114.87-12.87,461.81-1.8,518.4,0c146.21,4.66,295.1-18.18,438.75,9.45c7.43,1.43,36.54,7.28,64.8-6.75c34.31-17.03,61.86-60.62,56.7-106.65-5.63-50.2-49.23-94.94-79.65-90.45-24.9,3.68-17.63-39.94-6.75-76.95c8.88-30.21-11.06-64.22-27-81-55.95-58.87-191.71-41.26-240.3,24.3-26.04,35.13-157.31,9.15-178.2-29.7-20.06-37.3-95.97-31.76-124.2-29.7-26.97,1.97-108.52,7.92-147.15,64.8-23.49,34.59-240-36.94-288.9-45.9-37.02-6.78-82.84,2.71-109.35,31.05-18.28,19.54-10.64,30.15-32.4,86.4-25.72,66.47-43.28,69.46-43.2,102.6.11,44.16,31.38,77.61,45.9,93.15c9.37,10.02,37.02,37.3,81,49.95c34.27,9.86,62.92,6.37,71.55,5.4Z" fill="#3c4c1e" stroke-width="0"/><path d="M505.56,619c107.65-9.42,432.79-1.32,485.83,0c137.02,3.41,276.56-13.31,411.18,6.92c6.97,1.05,34.24,5.33,60.73-4.94c32.15-12.46,57.98-44.37,53.14-78.06-5.28-36.74-46.14-69.49-74.65-66.2-23.34,2.69-33.41,28.97-48.08,25.69-8.9-1.99-14.49-13.74-13.92-23.71c1.51-26.32,45.47-31.21,55.67-58.29c8.32-22.11-10.36-47-25.3-59.28-52.43-43.09-179.67-30.2-225.2,17.78-24.4,25.71-9.31,44.6-36.69,65.21-41.75,31.42-130.24,27.69-149.29.99-18.5-25.94,38.56-59.51,18.98-87.94-18.8-27.3-89.94-23.25-116.4-21.74-25.28,1.44-101.7,5.8-137.9,47.43-22.02,25.31-10.47,42.92-31.63,53.35-32.78,16.17-91.08-10.96-122.72-25.69-67.49-31.41-70.57-54.7-116.4-61.26-34.69-4.97-77.64,1.98-102.48,22.73-17.13,14.3-9.97,22.07-30.36,63.23-24.1,48.65-40.56,50.83-40.49,75.09.1,32.32,29.41,56.81,43.02,68.18c8.78,7.33,34.69,27.3,75.91,36.56c32.12,7.21,58.97,4.66,67.05,3.95Z" fill="#596925" stroke="#819c2d" stroke-miterlimit="10"/></g><path d="M1232.13,627.94c-104.74-6.84-421.08-.96-472.69,0-133.32,2.48-269.08-9.67-400.06,5.02-6.78.76-33.32,3.87-59.09-3.59-31.28-9.06-56.41-32.23-51.7-56.71c5.13-26.69,44.89-50.48,72.63-48.09c22.71,1.96,32.51,21.04,46.78,18.66c8.66-1.44,14.1-9.98,13.54-17.23-1.47-19.13-44.24-22.67-54.16-42.35-8.1-16.06,10.08-34.15,24.62-43.07c51.01-31.3,174.81-21.94,219.11,12.92c23.74,18.68,9.06,32.41,35.7,47.38c40.62,22.83,126.72,20.12,145.25.72c18-18.85-37.51-43.23-18.46-63.89c18.29-19.83,87.5-16.89,113.25-15.79c24.6,1.05,98.95,4.21,134.17,34.46c21.42,18.39,10.18,31.18,30.77,38.76c31.89,11.74,88.62-7.97,119.4-18.66c65.67-22.82,68.66-39.74,113.25-44.51c33.75-3.61,75.54,1.44,99.71,16.51c16.67,10.39,9.7,16.03,29.54,45.94c23.45,35.35,39.46,36.93,39.39,54.55-.1,23.48-28.61,41.27-41.85,49.53-8.54,5.33-33.75,19.83-73.86,26.56-31.25,5.24-57.37,3.39-65.24,2.87v.01Z" fill="#819c2f" stroke="#bfd45b" stroke-miterlimit="10"/></g></g><g><g><path d="M62.13,537.89c0,0-3.26-158.52,189.07-83.98s81.1,189.72,2.96,176.7c-78.15-13.02-76.62,34.51-137.63,3.71-61-30.8-54.4-96.44-54.4-96.44v.01Z" fill="#d8d6d9" stroke="#acaab1" stroke-miterlimit="10"/><path style="isolation:isolate" d="M350.04,524.62c7.26,50.69-54.37,92.48-103.14,84.36-78.15-13.02-76.63,34.51-137.63,3.71-23.51-11.87-36.97-28.91-44.64-45.37c4.76,21.47,17.7,49.74,51.95,67.03c61,30.8,59.48-16.73,137.63-3.71c55.58,9.26,127.89-46.32,95.83-106.02Z" opacity="0.27" fill="#acaab1" stroke-width="0"/><path d="M389.52,573.95c0,0,31.01,66.51-64.36,70.9s-69.8-65.17-34.28-74.26c35.52-9.1,25.99-28.93,57.58-27.3c31.59,1.64,41.06,30.66,41.06,30.66Z" fill="#d8d6d9" stroke="#acaab1" stroke-miterlimit="10"/><path style="isolation:isolate" d="M270.1,633.38c-12.55-20.1,5.74-49.32,27.9-54.99c35.52-9.1,25.99-28.94,57.58-27.3c12.17.63,21.06,5.33,27.38,10.87-6.03-8.2-16.79-17.75-34.52-18.67-31.59-1.64-22.06,18.2-57.58,27.3-25.26,6.47-45.49,43.52-20.76,62.8v-.01Z" opacity="0.27" fill="#acaab1" stroke-width="0"/><path d="M242.39,656.41c0,0-72.31,12.49-51.55-80.69s81.19-50.28,80.65-13.62c-.53,36.66,21.11,32.67,11.25,62.72s-40.35,31.59-40.35,31.59Z" fill="#d8d6d9" stroke="#acaab1" stroke-miterlimit="10"/><path style="isolation:isolate" d="M216.34,525.59c22.69-6.84,46.09,18.46,45.76,41.34-.53,36.66,21.11,32.67,11.25,62.72-3.8,11.58-10.66,18.92-17.66,23.58c9.5-3.67,21.53-11.55,27.07-28.42c9.86-30.05-11.78-26.06-11.25-62.72.38-26.07-30.07-55.31-55.16-36.5h-.01Z" opacity="0.27" fill="#acaab1" stroke-width="0"/><path d="M121.49,624.82c0,0,14.88,31.91-30.88,34.01-45.75,2.11-33.49-31.26-16.45-35.63s12.47-13.88,27.62-13.1c15.15.79,19.7,14.71,19.7,14.71l.01.01Z" fill="#d8d6d9" stroke="#acaab1" stroke-miterlimit="10"/><path style="isolation:isolate" d="M64.2,653.33c-6.02-9.64,2.75-23.66,13.39-26.38c17.04-4.36,12.47-13.88,27.62-13.1c5.84.3,10.1,2.56,13.14,5.21-2.89-3.93-8.06-8.52-16.56-8.96-15.15-.79-10.58,8.73-27.62,13.1-12.12,3.1-21.82,20.88-9.96,30.13h-.01Z" opacity="0.27" fill="#acaab1" stroke-width="0"/></g></g><g><g><path d="M922.68,623.09c-4.82-41.21-13.62-83.15-26.17-123.93-.52-1.68-2.29-2.62-3.97-2.1s-2.62,2.29-2.1,3.97c12.44,40.41,21.12,81.24,25.89,122.06h6.35Z" fill="#22554b" stroke-width="0"/><path d="M875.94,453.49c-1.26,0-2.45-.75-2.95-1.99-4.24-10.53-7.03-16.4-7.06-16.46-.76-1.58-.08-3.48,1.5-4.24c1.58-.75,3.48-.08,4.24,1.5.12.24,2.89,6.09,7.22,16.82.66,1.63-.13,3.48-1.76,4.13-.39.16-.79.23-1.19.23v.01Z" fill="#22554b" stroke-width="0"/><path d="M916.57,623.09c2.02-44.26,8.26-89.35,18.55-133.75.4-1.71,2.11-2.77,3.81-2.38c1.71.4,2.77,2.1,2.38,3.81-10.21,44.02-16.39,88.44-18.39,132.32h-6.36.01Z" fill="#22554b" stroke-width="0"/><path d="M953.14,438.86c-.32,0-.65-.05-.98-.15-1.67-.54-2.59-2.33-2.05-4c3.8-11.76,6.31-18.19,6.42-18.46.64-1.63,2.48-2.44,4.12-1.8c1.63.64,2.44,2.49,1.8,4.12-.03.06-2.56,6.54-6.29,18.09-.43,1.35-1.68,2.2-3.02,2.2Z" fill="#22554b" stroke-width="0"/></g><path d="M900.98,497.52l-16.7,5.38c-3.6,1.16-7.45-.82-8.61-4.42L863.7,461.29c-1.16-3.6.82-7.45,4.42-8.61l16.7-5.38c3.6-1.16,7.45.82,8.61,4.42l11.97,37.19c1.16,3.6-.82,7.45-4.42,8.61Z" fill="#fed387" stroke-width="0"/><path style="isolation:isolate" d="M905.39,488.9l-11.97-37.19c-1.12-3.49-4.79-5.45-8.3-4.5l11.67,36.25c1.16,3.6-.82,7.45-4.42,8.61l-16.7,5.38c-.1.03-.21.06-.32.08l.3.94c1.16,3.6,5.01,5.58,8.61,4.42l16.7-5.38c3.6-1.16,5.58-5.02,4.42-8.61h.01Z" opacity="0.13" fill="#653c0e" stroke-width="0"/><path d="M929.04,487.8l19.11,4.69c3.67.9,7.38-1.34,8.28-5.02l10.17-41.44c.9-3.67-1.34-7.38-5.02-8.28l-19.11-4.69c-3.67-.9-7.38,1.34-8.28,5.02l-10.17,41.44c-.9,3.67,1.34,7.38,5.02,8.28Z" fill="#fcd7b5" stroke-width="0"/><path style="isolation:isolate" d="M961.59,437.6l-1.08-.27-9.98,40.64c-.9,3.67-4.61,5.92-8.28,5.02l-18.03-4.43-.2.81c-.9,3.67,1.34,7.38,5.02,8.28l19.11,4.69c3.67.9,7.38-1.34,8.28-5.02l10.17-41.44c.9-3.67-1.34-7.38-5.02-8.28h.01Z" opacity="0.13" fill="#653c0e" stroke-width="0"/><path d="M919.74,623.09c0,0,7.8-51.23,41.68-97.78c0,0-12.98,50.98-23.73,97.78h-17.95Z" fill="#3dad93" stroke-width="0"/><path style="isolation:isolate" d="M955.06,534.57c-4.22,16.8-21.98,53.81-29.95,88.52h12.59c10.75-46.79,23.73-97.78,23.73-97.78-2.24,3.07-4.35,6.16-6.37,9.26Z" opacity="0.19" fill="#28675a" stroke-width="0"/><path d="M917.62,623.09c0,0-7.8-51.23-41.68-97.78c0,0,12.98,50.98,23.73,97.78h17.95Z" fill="#3dad93" stroke-width="0"/><path style="isolation:isolate" d="M876.08,525.32c0,0,12.98,50.98,23.73,97.78h12.65c-7.71-33.58-24.52-69.31-28.91-86.82-2.34-3.66-4.82-7.33-7.47-10.96Z" opacity="0.19" fill="#28675a" stroke-width="0"/><g><path d="M881.36,486.56c-1.34,0-2.58-.85-3.02-2.19l-6.13-18.81c-.54-1.67.37-3.46,2.04-4.01s3.46.37,4.01,2.04l6.13,18.81c.54,1.67-.37,3.46-2.04,4.01-.33.11-.66.16-.98.16l-.01-.01Z" fill="#ffeb9a" stroke-width="0"/><path d="M939.43,465.85c-.27,0-.55-.03-.82-.11-1.7-.45-2.7-2.19-2.25-3.89l5.09-19.11c.45-1.7,2.19-2.71,3.89-2.25c1.7.45,2.7,2.19,2.25,3.89l-5.09,19.11c-.38,1.42-1.66,2.36-3.07,2.36Z" fill="#ffeb9a" stroke-width="0"/></g><g><path d="M965.91,623.06c3.38-28.96,9.54-57.92,18.37-86.59.37-1.19-.3-2.45-1.49-2.82s-2.45.3-2.82,1.49c-8.9,28.93-15.15,58.68-18.57,87.92h4.51Z" fill="#22554b" stroke-width="0"/><path d="M993.72,502.59c-1.15-.47-1.71-1.78-1.25-2.93c3.07-7.62,5.04-11.76,5.12-11.93.54-1.12,1.88-1.6,3-1.06s1.6,1.88,1.06,3c-.02.04-2,4.21-5.01,11.68-.35.88-1.2,1.41-2.09,1.41-.28,0-.57-.05-.84-.16l.01-.01Z" fill="#22554b" stroke-width="0"/><path d="M961.23,623.06c-1.42-31.13-5.8-62.63-13.04-93.86-.28-1.21.47-2.42,1.69-2.7c1.21-.28,2.42.47,2.7,1.69c7.3,31.5,11.73,63.48,13.16,94.88h-4.51v-.01Z" fill="#22554b" stroke-width="0"/><path d="M937.65,490.81c-2.64-8.19-4.44-12.79-4.46-12.83-.45-1.16.12-2.47,1.27-2.92c1.16-.46,2.47.12,2.92,1.27.07.19,1.86,4.75,4.55,13.09.38,1.18-.27,2.46-1.45,2.84-.23.07-.46.11-.69.11-.95,0-1.84-.61-2.14-1.56Z" fill="#22554b" stroke-width="0"/></g><path d="M973.67,527.87l8.49-26.38c.82-2.55,3.56-3.96,6.11-3.13l11.85,3.81c2.55.82,3.96,3.56,3.13,6.11l-8.49,26.38c-.82,2.55-3.56,3.96-6.11,3.13l-11.85-3.81c-2.55-.82-3.96-3.56-3.13-6.11Z" fill="#fed387" stroke-width="0"/><path style="isolation:isolate" d="M976.81,533.98l11.85,3.81c2.55.82,5.29-.58,6.11-3.13l.21-.66c-.07-.02-.15-.04-.22-.06l-11.85-3.81c-2.55-.82-3.96-3.56-3.13-6.11l8.28-25.72c-2.49-.67-5.09.72-5.89,3.19l-8.49,26.38c-.82,2.55.58,5.29,3.13,6.11Z" opacity="0.13" fill="#653c0e" stroke-width="0"/><path d="M960.46,521.22l-7.22-29.4c-.64-2.6-3.27-4.2-5.87-3.56l-13.56,3.33c-2.6.64-4.2,3.27-3.56,5.87l7.22,29.4c.64,2.6,3.27,4.2,5.87,3.56l13.56-3.33c2.6-.64,4.2-3.27,3.56-5.87Z" fill="#fcd7b5" stroke-width="0"/><path style="isolation:isolate" d="M930.25,497.35l7.22,29.4c.64,2.6,3.27,4.2,5.87,3.56l13.56-3.33c2.6-.64,4.2-3.27,3.56-5.87l-.14-.57-12.79,3.14c-2.6.64-5.23-.95-5.87-3.56l-7.08-28.83-.77.19c-2.6.64-4.2,3.27-3.56,5.87Z" opacity="0.13" fill="#653c0e" stroke-width="0"/><path d="M963.49,623.06h-12.73c-7.62-33.19-16.83-69.36-16.83-69.36c24.04,33.02,29.57,69.36,29.57,69.36v0h-.01Z" fill="#3dad93" stroke-width="0"/><path style="isolation:isolate" d="M933.92,553.7c0,0,9.21,36.17,16.83,69.36h8.93c-5.65-24.62-18.25-50.88-21.25-62.79-1.43-2.2-2.93-4.39-4.52-6.57h.01Z" opacity="0.19" fill="#28675a" stroke-width="0"/><path d="M965,623.06h12.73c7.62-33.19,16.83-69.36,16.83-69.36-24.04,33.02-29.57,69.36-29.57,69.36v0h.01Z" fill="#3dad93" stroke-width="0"/><path style="isolation:isolate" d="M989.17,561.48c-3.11,12.42-15.04,37.77-20.51,61.59h8.97c7.62-33.19,16.83-69.36,16.83-69.36-1.88,2.58-3.64,5.17-5.3,7.77h.01Z" opacity="0.19" fill="#28675a" stroke-width="0"/><g><path d="M990.02,526.1c-1.18-.39-1.83-1.66-1.44-2.84l4.35-13.34c.39-1.18,1.66-1.83,2.84-1.44s1.83,1.66,1.44,2.84l-4.35,13.34c-.31.95-1.19,1.56-2.14,1.56-.23,0-.47-.04-.7-.11v-.01Z" fill="#ffeb9a" stroke-width="0"/><path d="M947.35,509.84l-3.61-13.56c-.32-1.2.4-2.44,1.6-2.76s2.44.4,2.76,1.6l3.61,13.56c.32,1.2-.4,2.44-1.6,2.76-.19.05-.39.08-.58.08-1,0-1.91-.67-2.18-1.67v-.01Z" fill="#ffeb9a" stroke-width="0"/></g></g><g><path d="M717.26,581.31c.06.27.22.58.16.81-.49,2-1.03,3.98-1.59,6.12c2.07-1.97,4.04-3.85,6.05-5.76.7-4.14,1.15-8.41,2.48-12.29-2.21,16.19-4.44,32.46-6.68,48.85h2.37c1.76-10.17,4.14-20.17,8.01-29.54-2.87,9.67-5.52,19.41-6.86,29.79c1.01.16,1.93.29,2.95.45c1.4-5.22,2.4-10.62,4.6-15.75-1.31,5.42-2.56,10.58-3.81,15.78c3.33.92,6.52,1.81,9.72,2.69c0,.07-.01.14-.02.22-.81-.08-1.63-.13-2.44-.23-5.21-.67-10.44-1.03-15.68-.76-3.65.19-7.31.58-10.93,1.17-6.39,1.04-12.75,2.37-19.13,3.46-4.98.86-9.96,1.67-14.96,2.26-5.93.69-11.87,1.03-17.82.35-4.3-.49-8.61-.8-12.89-1.38-3.94-.54-7.85-1.34-11.78-2.02-4.29-.74-8.58-1.5-12.88-2.2-3.25-.52-6.51-1.15-9.78-1.37-3.88-.27-7.78-.31-11.66-.17-3.53.13-7.06.63-10.61.89c3.06-.9,6.11-1.8,9.41-2.78-1.84-7.45-3.69-14.93-5.54-22.42c2.77,7.11,4.42,14.69,6.11,22.22h1.54c.03-.4.07-.77.09-1.14.13-3.46.28-6.92.36-10.38.02-.67-.19-1.38-.38-2.03-1.17-4.13-2.36-8.24-3.53-12.37-.09-.32-.12-.66-.05-1.04c1.84,4.18,2.91,8.72,4.3,13.3.78-13.12.74-26.07.58-39.02.09,0,.17-.01.26-.02.06.52.14,1.04.18,1.56.04.56.09,1.13.06,1.7-.12,2.71.47,5.17,1.67,7.41.17.32.43.65.72.78c1.79.85,3.44,1.86,4.75,3.73.86,1.23,2.02,2.13,3.01,3.23.35.39.59.93,1.06,1.32-.66-2.4-1.31-4.8-1.97-7.2-.11.04-.22.08-.33.12.19.98.37,1.96.56,2.94-.04.01-.08.02-.12.04-.97-3.59-1.94-7.18-2.9-10.77c1.4,2.16,1.79,5.23,3.99,6.65-.09-1.3-.19-2.65-.29-4c.05,0,.11-.02.16-.02.09.84.2,1.67.25,2.51.07,1.15.25,2.12,1.12,2.89c1.16,1.03,2.18,2.33,3.26,3.5.2.22.44.4.66.6.09-.06.19-.12.28-.18-1.97-6.63-3.94-13.26-5.88-19.78.37.74.84,1.61,1.24,2.51.41.91.81,1.84,1.14,2.81c1.49,4.38,3.02,8.76,4.42,13.19.68,2.16,1.65,4.06,2.76,5.88c1.89,3.09,3.43,6.43,4.66,9.99.09.24.19.48.42.66-2.84-14.84-6.41-29.37-11.47-43.32.06-.04.13-.07.19-.11.29.58.6,1.16.88,1.76.3.64.56,1.3.85,1.94c2.83,6.2,5.65,12.39,8.48,18.58c3.52,7.68,6.09,15.85,8.04,24.32.17.74.38,1.46.62,2.18-.97-9.77-3.11-19.21-5.31-28.64c3.19,8.38,5.1,17.27,6.91,26.22-.06-.54-.09-1.09-.17-1.62-.08-.59-.2-1.17-.29-1.76-1.02-6.59-2.68-12.96-4.27-19.36-1.26-5.08-2.55-10.15-3.83-15.22-.02-.09,0-.2,0-.63c4.03,10.54,7.16,21.16,9.68,32.09-1.48-8.81-2.95-17.63-4.42-26.45.02-.01.03-.02.05-.04.46,1.54.93,3.08,1.38,4.63c1.77,6.02,3.07,12.2,3.95,18.51.63,4.45,1.29,8.9,1.85,13.37.52,4.11.94,8.24,1.41,12.35.01.1.05.2.13.29-.7-18.51-3.06-36.76-5.33-55.06.18.68.37,1.36.54,2.05.18.74.38,1.47.51,2.23.99,5.98,2.06,11.94,2.91,17.95.72,5.09,1.17,10.23,1.77,15.35.34,2.85.75,5.68,1.27,8.51-.54-6.75-1.12-13.51-1.62-20.27-.5-6.82-.92-13.64-1.38-20.56.41,2.22.92,4.36,1.17,6.54.44,3.77.7,7.56,1.07,11.34.48,4.96,1.01,9.92,1.5,14.89.31,3.15.6,6.31.9,9.46.04.4.14.8.21,1.2.07,0,.14-.02.21-.03-.69-10.88-1.39-21.76-2.08-32.64c1.22,5.87,1.8,11.87,2.31,17.87.5,6,.75,12.04,1.14,18.07.56-12.54-.79-24.95-1.64-37.41c1.82,12.35,2.91,24.81,3.43,37.35.08,0,.16,0,.24,0c.11-3.67.31-7.34.3-11-.01-3.68-.18-7.36-.39-11.03-.21-3.68-.56-7.36-.85-11.04.1-.02.19-.04.29-.06.76,5.17,1.52,10.33,2.32,15.79.13-1.12.2-2,.33-2.86.6-4.05.41-8.11.1-12.17-.33-4.37-.65-8.74-.93-13.11-.09-1.44-.29-2.54-1.63-3.12-1.4-.61-2.31-2.12-3.16-3.61-1.69-2.95-2.46-6.39-3.45-9.72-.49-1.64-.95-3.29-1.35-4.99c2.95,2.58,5.41,5.77,7.83,9.42-.66-2.75-1.14-5.2-1.86-7.54-.28-.91-1.03-1.65-1.67-2.32-4.89-5.1-9.77-10.22-14.72-15.23-2.05-2.07-4.25-3.89-6.39-5.83-.16-.14-.3-.3-.62-.62c3.65,1.33,6.82,3.29,9.75,5.79c3.93,3.36,7.77,6.9,11.63,10.38.66.6,1.25,1.32,2.02,2.14-.15-1.69-.24-3.21-.43-4.71-1.04-8.25-3.21-16.07-5.97-23.64-2.28-6.26-4.71-12.44-7.08-18.66-.03-.09-.05-.18.03-.36.56.89,1.13,1.76,1.67,2.67.56.94,1.1,1.88,1.61,2.86c4.57,8.94,8.3,18.36,10.69,28.55.36,1.55.64,3.14.81,4.73.09.84-.01,1.77-.23,2.58-.39,1.43-.05,2.65.43,4.11.57-3.34,1.1-6.46,1.64-9.58.11,0,.21,0,.32.01c1.42,5.79,2.26,11.68,1.86,18.02c5.91,6.15,10.45,13.84,14.13,22.38.36-2.01-1.61-19.13-2.92-26.8-1.51-8.82-3.31-17.53-5.71-26.05-2.4-8.53-5.42-16.71-8.79-24.72s-7.37-15.54-11.61-22.89c.06-.08.11-.16.17-.25.2.11.44.18.61.35c2.31,2.27,4.47,4.74,6.2,7.71c2.03,3.47,4.12,6.92,5.94,10.56c2.98,5.99,5.53,12.27,7.68,18.78.14.42.22.87.31,1.31s.15.89.27,1.61c.7-4.22,1.37-8.2,2.03-12.18l.28.02c.15,1.17.33,2.34.44,3.51.32,3.51.62,7.03.91,10.55.38,4.58.28,9.12-.87,13.35c1.91,8.63,3.6,17.11,4.64,25.77.7,5.86,1.27,11.75,1.9,17.62.27,2.47.38,5,.89,7.4.48,2.28,1.39,4.42,2.1,6.61c1.96-8.65,4-17.3,6.55-25.75.28-.91.18-2.11,0-3.1-.98-5.58-1.95-11.16-3.1-16.69-1.66-8.01-4.18-15.68-6.48-23.43-.37-1.25-.78-2.47-1.18-3.7.07-.04.14-.09.2-.13c1.05,2.51,2.15,4.99,3.13,7.54c1.01,2.63,1.95,5.3,2.83,7.99.86,2.66,1.65,5.36,2.38,8.08.75,2.76,1.45,5.54,2.07,8.34.61,2.76,1.09,5.56,1.72,8.33.29-3.62.53-7.24.89-10.85.5-4.9,1.07-9.79,1.65-14.68.32-2.76.74-5.5,1.04-8.26.06-.53-.16-1.17-.36-1.69-2.04-5.17-2.48-10.73-2.7-16.36-.18-4.69-.45-9.37-.68-14.06.7,1.48,1.43,3.01,2.16,4.56-.54-12.34-2.02-24.52-4.36-36.54c5.59,15.51,8.01,31.73,7.21,48.83.81-1.95,1.51-3.84,2.35-5.63.84-1.78,1.82-3.47,2.93-5.11-.06.92-.07,1.85-.18,2.75-.6,4.96-1.19,9.92-1.87,14.85-.29,2.08-.87,4.07-1.94,5.79-.92,1.49-.92,3.3-1.13,5.02-.53,4.36-1.02,8.73-1.48,13.1-.35,3.28-.64,6.57-.94,9.87-.16,1.71-.28,3.42-.41,5.12.08.03.16.06.24.08.34-.9.7-1.79,1.03-2.69c3.38-9.32,6.6-18.74,10.17-27.95c4.06-10.48,9.19-20.17,14.87-29.43c5.51-8.99,11.47-17.45,18.21-25.06c3.37-3.81,6.92-7.34,11.02-9.93.24-.16.5-.29.8-.33-1.6,2.08-3.21,4.15-4.8,6.23-3.13,4.08-6.41,8.01-9.34,12.3-3.6,5.27-6.92,10.85-10.35,16.3-3.85,6.09-7.03,12.73-10.36,19.24-2.77,5.43-5.01,11.19-7.15,17.03-3.23,8.78-6.12,17.73-8.78,26.81-2.5,8.53-4.71,17.15-6.39,25.98-.32,1.68-.63,3.37-.76,5.09-.1,1.29.05,2.61.14,3.91.32,4.79.67,9.59,1,14.38.18,2.67.34,5.35.61,8.02.31-2.47.56-4.96.93-7.42.84-5.51,1.6-11.04,2.63-16.49c1.67-8.83,3.87-17.48,6.48-25.96.16-.52.32-1.05.54-1.54.2-.46.48-.86.76-1.35-.48-5.3.49-10.48,1.69-15.57c1.18-4.98,2.58-9.88,3.89-14.81.06-.23.14-.45.31-.94.42,3.82.78,7.36.16,10.92c2.52-5.96,5.66-11.34,8.86-16.7c3.33-5.56,7.17-10.54,11.2-15.3c2.4-2.83,5.05-5.26,8-7.16.19-.12.41-.2.85-.42-1.33,1.8-2.47,3.39-3.65,4.94-4.23,5.51-8.18,11.3-11.83,17.42-3.16,5.29-6.23,10.67-8.75,16.45-1.97,4.53-3.54,9.33-5.28,14.02-.19.5-.34,1.03-.55,1.7c2.9-2.64,6.15-3.81,9.71-4.71-.86,1.42-1.58,2.69-2.36,3.91-1.73,2.72-3.39,5.51-5.27,8.06-.82,1.12-2.05,1.84-3.18,2.54-.69.43-1.18.93-1.43,1.8-.87,3.05-1.76,6.08-2.59,9.14-1.79,6.6-3.12,13.35-4.13,20.19-.61,4.11-1.24,8.23-1.66,12.38-.33,3.33-.36,6.7-.5,10.06-.04,1.13,0,2.26.04,3.41.87-6.09,1.67-12.2,2.62-18.27.96-6.1,2.1-12.15,3.71-18.04-1.14,8.9-3.11,17.61-3.71,26.62c2.07-12.11,4.7-24.03,7.65-35.85-2.12,13.42-5.09,26.63-6.67,40.18c2.76-14.73,5.07-29.61,10.3-43.45-.84,3.95-1.72,7.88-2.5,11.84-.78,4.01-1.45,8.05-2.05,12.11c1.44-4.99,2.79-10.02,4.33-14.95c1.56-4.99,3.32-9.88,5.15-14.73-2.14,8.6-4.42,17.15-6.39,25.81-1.97,8.7-3.7,17.5-4.22,26.58.25-1.28.51-2.56.75-3.85.24-1.3.48-2.59.68-3.9.94-6.1,2.38-12.01,4.24-17.78c2.35-7.26,5.93-13.64,9.28-20.19c2.26-4.43,4.63-8.79,6.95-13.17.2-.38.45-.72.8-.97-1.64,4.41-3.27,8.82-4.98,13.43c1.85-2.04,3.66-3.76,6.12-4.66-1.24,1.32-2.3,2.46-3.38,3.59-2.41,2.51-3.98,5.74-5.1,9.32-1.8,5.74-3.55,11.5-5.33,17.25-.19.61-.36,1.22-.54,1.83.07.04.14.09.2.14.36-.67.75-1.31,1.07-2.01c1.97-4.33,4.57-8.05,7.29-11.66.57-.76.89-1.85,1.23-2.84c1.74-5.09,3.4-10.23,5.2-15.29.64-1.82,1.58-3.47,2.54-5.11-2.85,6.59-4.47,13.75-6.43,20.85c2.54-3.39,5.78-5.42,8.97-7.5-1.53,2.53-1.9,5.57-2.64,8.5c1.63-3.07,3.9-5.08,6.82-6.46-.84.76-1.49,1.4-2.19,1.96-1.19.96-2.35,1.94-2.89,3.68-.02.06-.15.07-.3.19-1.44,2.05-1.81,4.48-2.12,6.93.48-1.34.9-2.72,1.3-4.1.26-.96.51-1.94.78-2.9l-.01-.05ZM691.95,606.4c-.25,1.37-.5,2.74-.74,4.11.05.01.1.02.14.04.3-1.33.61-2.67,1.02-4.09.86-3.26,1.72-6.51,2.57-9.78.11-.42.15-.87.22-1.3-.09-.02-.17-.03-.25-.05-.37,1.34-.76,2.67-1.11,4.03-.59,2.32-1.16,4.64-1.85,7.05v-.01Zm-75.61-.32c.41.83.82,1.66,1.23,2.5.08-.05.16-.1.23-.15-.37-.99-.73-1.99-1.11-3.14-1.3-3.46-2.6-6.93-3.9-10.39-.07.04-.15.09-.23.13.1,4.23,1.9,7.59,3.77,11.06l.01-.01Zm-17.23-8.66c1.59,5.45,3.18,10.89,4.77,16.34.04-.61.01-1.2-.07-1.78-.37-2.62-.6-5.29-1.16-7.85-1.2-5.52-2.58-10.98-3.88-16.46.12-.04.24-.09.35-.14c1.31,5.12,2.62,10.23,3.99,15.59c0-.38.02-.53,0-.66-.92-4.51-1.81-9.02-2.8-13.51-.34-1.55-1.47-2.15-2.71-2.68.11,2.54.17,4.91.34,7.27.06.85.35,1.68.43,2.62.21,1.95.47,3.89.63,5.84.32,3.9.53,7.81.89,11.7.17,1.86.56,3.69.86,5.52h1.85c0-.22.02-.36,0-.5-.89-5.28-1.78-10.56-2.67-15.84-.31-1.84-.61-3.69-.81-5.47l-.01.01Zm54.99-9.89c-.05-.13-.11-.25-.14-.38-1.15-4.41-2.23-8.86-4.04-12.96-.57-1.29-1.09-2.62-1.73-4.16c1.52,1.28,2.38,2.9,3.19,4.55c2.77,5.63,4.62,11.75,6.16,18.02.63,2.54,1.1,5.14,1.59,7.44.15-1.84.33-3.93.48-6.03.23-3.45.35-6.93.68-10.37.28-2.82-.02-5.32-1.18-7.85-2.57-5.59-5.39-10.95-8.84-15.77-.91-1.27-1.92-2.44-2.84-3.62-.4,2.44-.91,4.77-1.12,7.13-.17,1.87-.01,3.8.1,5.69.16,2.67.39,5.33.63,8c.22,2.38.48,4.75.74,7.13.16,1.51.34,3.02.51,4.53.52-1.94.84-3.88,1.25-5.81.41-1.97.45-3.86-.34-5.73-.4-.95-.62-2.02-.94-3.03-.16-.5-.37-.97-.55-1.45.09-.07.18-.13.27-.2.39.65.83,1.25,1.16,1.94c2.46,5.14,3.81,10.81,4.98,16.54c1.06,5.21,1.68,10.53,1.92,15.9.16,3.5.24,7,.29,10.5.02,1.38-.1,2.77-.16,4.16.17-.07.22-.16.24-.25c1.12-5.25,1.76-10.5,1.04-15.98-.79-6.02-1.78-11.97-3.33-17.94h-.02Zm-3.62.12c-.08.41-.17.81-.23,1.23-.32,2.32-.9,4.65-.86,6.95.04,2.57.72,5.11,1.02,7.68.59,4.95,1.11,9.92,1.66,14.87.12,1.08.23,2.17.35,3.25.12,1.07.25,2.13.38,3.2.39-6.58.76-13.15.77-19.73.01-6.56-1.41-12.88-2.71-19.24-.12.53-.23,1.07-.38,1.78v.01Zm67.66,8.48c.78-3.83,1.55-7.66,2.34-11.57-.22.16-.44.25-.59.43-1.35,1.58-2.7,3.16-4.03,4.76-.21.26-.38.63-.46.99-.76,3.56-1.65,7.08-2.16,10.7-.27,1.93.11,4,.2,6c.02.35.05.7.07,1.05.36-1.35.61-2.69.9-4.03.3-1.38.63-2.76.98-4.12.33-1.28.71-2.55,1.06-3.83.02.02.05.03.08.05-1.17,6.32-2.35,12.64-3.52,18.96.29-.41.41-.87.52-1.34.61-2.58,1.2-5.18,1.85-7.75.87-3.4,1.8-6.78,2.77-10.32l-.01.02ZM670.1,606.85c.57,3.11,1.14,6.23,1.76,9.59c1.54-10.22,1.16-20.22.74-30.42-1.14,5.32-2.25,10.45-3.34,15.58-.07.33-.13.7-.07,1.01.27,1.36.59,2.71.91,4.24Zm-63.37,4.22c-.14-1.94-.24-3.87-.42-5.8-.24-2.59-.52-5.18-.79-7.77-.15-1.48-.14-3.01-1.11-4.19-.66-.82-1.2-1.79-1.84-2.65-.36-.49-.81-.9-1.21-1.34.25,2.03.63,3.92.99,5.82.61,3.2,1.37,6.37,1.76,9.61.55,4.66,1.4,9.22,2.45,13.73.07.31.29.58.43.86.07-.05.14-.11.22-.16-.16-2.63-.32-5.27-.48-8.1v-.01Zm55.02,3.74c-.15,2.65-.17,5.29.36,7.98.29.09.57.17,1,.31-.16-4.11-.32-8.02-.48-11.93.04,0,.09-.02.14-.02.25,2.56.5,5.13.75,7.66.07-.3.16-.65.23-1.01.78-4.17,1.27-8.44,2.65-12.42.07-.22.11-.5.07-.72-.45-2.44-.91-4.87-1.41-7.51-1.76,5.79-2.79,11.56-3.3,17.68l-.01-.02Zm9.93-43.87c-.13.43-.28.84-.38,1.28-1.26,5.12-2.41,10.29-3.83,15.34-.6,2.13-.19,4.34-.79,6.41-.07.24,0,.56.06.83.22,1.05.45,2.1.69,3.18.04-.08.06-.11.07-.14c1.35-6.74,2.77-13.44,4.75-19.95.11-.36.07-.84,0-1.24-.47-2.51-.79-4.99.37-7.37.15-.31.16-.73.24-1.09-.06-.02-.11-.04-.17-.06-.31.89-.62,1.78-1,2.82l-.01-.01ZM610.5,610.26c-.4-2.36-.76-4.74-1.22-7.09-.46-2.36-1.42-4.43-2.6-6.35-.07.02-.14.05-.22.08c1.04,7.41,2.09,14.82,3.14,22.32.59.13,1.04.22,1.7.36-.28-3.19-.55-6.16-.81-9.32h.01Zm97.1,3.27c.53-2.17,1.04-4.36,1.61-6.52.76-2.9,1.55-5.79,1.13-9.09-3.54,6.6-4.26,14.14-5.6,21.63.64-.12,1.14-.22,1.68-.32.38-1.88.75-3.71,1.18-5.7Zm-45.94-26.75c-.11.91-.22,1.81-.32,2.72-.32,2.97-.6,5.95-.98,8.91-.28,2.2-.21,4.33.35,6.48.87-3.91,1.66-7.8,2.64-11.6.56-2.17.67-4.17-.14-6.26-.48-1.24-.81-2.57-1.27-4.07-.1,1.38-.18,2.51-.28,3.82Zm54.93-9.56c.16-.55.33-1.09.5-1.65-4.52,2.44-5.9,7.43-6.79,12.04.76-.81,1.81-2.15,3.03-3.18c1.57-1.33,2.3-3.21,2.77-5.35.12-.58.28-1.14.5-1.85l-.01-.01Zm-99.13,19.74c-.49-1.14-1-2.26-1.46-3.42-1.4-3.57-3-6.95-5.32-9.73-.45-.54-.93-1.05-1.49-1.68.15,3.2.65,4.68,2.18,6.46-.16-.73-.29-1.37-.46-2.14.92,1.64,1.76,3.16,2.63,4.65c2.42,4.2,4.63,8.55,6.26,13.31.08.22.22.42.33.62.08-.05.16-.1.24-.15-.58-2.79-1.86-5.22-2.91-7.93v.01ZM602.18,585.9c.75,2.23,1.63,4.37,3.12,6.35-.1-1.4-.15-2.52-.27-3.63-.13-1.15-.35-2.27-.5-3.42-.33-2.63-2.52-5.33-5.02-6.35.92,2.44,1.76,4.68,2.67,7.05Zm6.95,11.21c-.06-1.3-.07-2.61-.19-3.91-.12-1.29-.08-2.75-.58-3.8-.84-1.76-2.06-3.25-3.11-4.86.24,2.6.6,5.04.99,7.47.14.85.21,1.78.56,2.49.67,1.36,1.51,2.59,2.34,3.95c0-.44,0-.81,0-1.35l-.01.01Zm101.35,13.82c-.57,2.75-1.2,5.48-1.37,8.32.07.02.15.04.23.07l.67-2.86c0,0,.08.02.12.03-.12.91-.23,1.82-.35,2.76h.88c1.4-5.57,1.91-11.26,2-17.06-.71,2.86-1.42,5.72-2.18,8.74Zm1.44-22.5c-1.61,2.06-2.51,4.47-2.66,7.49c1.67-2.15,3.18-4.11,4.69-6.07.13-.17.22-.41.28-.64.43-1.83.84-3.67,1.33-5.82-1.28,1.79-2.41,3.36-3.63,5.03l-.01.01Zm-41.31,34.02c.16-5.97-.27-11.86-1.66-17.64-.22,1.25-.53,2.54-.41,3.77.39,3.97.93,7.92,1.41,11.88.12.99.22,1.98.32,2.97.05,0,.1,0,.15,0c.06-.27.12-.53.19-.98Zm31.63-26.84c-1.06,2.61-1.85,5.34-2.48,8.16c2.24-5.18,5.52-9.68,6.68-15.77-1.73,2.34-2.97,4.88-4.2,7.62v-.01Zm15.97,11.04c.1-.58.21-1.17.3-1.76.79-5.2,1.58-10.41,2.38-15.61.28-1.81.6-3.61.92-5.5-1.35,1.13-4.18,19.13-3.89,24.59.11-.68.18-1.12.29-1.72ZM597.62,580.88v4.59c.84.53,1.61,1,2.29,1.42-.18-1.94-.22-4.01-.58-5.98-.35-1.9-1.05-3.7-1.59-5.54-.04.04-.07.07-.11.11c0,1.73,0,3.46,0,5.4h-.01Zm118.32,32.54c.6-3.79,1.21-7.57,1.81-11.36-.08-.02-.16-.04-.24-.06-1.76,5.54-2.92,11.26-3.45,17.32.4-.11.69-.2.89-.25.34-1.9.65-3.68.98-5.64l.01-.01Zm-2.75-17.67c.32-1.26.63-2.51.95-3.77-.09-.06-.18-.13-.27-.19-.99,1.65-2,3.28-2.95,4.97-.19.33-.25.87-.22,1.3.16,1.9.38,3.8.55,5.32.57-2.24,1.24-4.85,1.94-7.62v-.01Zm-2.87-11.81c.23-.66.45-1.32.76-2.23-2.95,3.16-3.76,7.38-4.9,11.38.74-.95,1.46-1.91,2.12-2.92.36-.55.73-1.13.92-1.78.41-1.41.71-2.86,1.09-4.45h.01Zm-4.89,22.81c.5-2.45.56-3.55.25-4.99-1.69,3.06-2.69,6.43-2.37,10.24.48-.07.89-1.07,2.12-5.25Zm-108.15-5.01c0,.56.02,1.13,0,1.7-.17,3.37.07,6.64,1.51,9.69-.41-5.66-.82-11.31-1.23-16.97h-.27c0,1.79,0,3.58,0,5.58h-.01Zm-.74,15.31v2.45c.71-.06,1.24-.11,1.99-.17-.6-3.38-1.17-6.6-1.73-9.82-.09.02-.17.03-.26.05c0,2.43,0,4.86,0,7.49Zm30.01-7.68c.05.19.11.37.16.56-.68-7.25-3.4-13.67-5.3-20.43.19,1.31.49,2.58.83,3.83c1.41,5.3,2.83,10.6,4.31,16.04Zm71.31-14.72c.27-1.13.54-2.26.81-3.39-.08-.03-.16-.07-.23-.1-.06.06-.14.11-.16.18-1.36,4.5-2.73,9-4.07,13.51-.08.28-.01.63-.01.94.09.02.17.04.26.06c1.11-3.68,2.22-7.37,3.41-11.2h-.01Zm-88.05-3.16c.38,2.11.94,4.13,1.85,5.98.09-2.88.13-5.73-2.03-7.78.07.58.12,1.1.18,1.79v.01Zm58.38,24.77v7.24c.44.14.87.28,1.36.44-.43-3.03-.83-5.85-1.23-8.68-.03,0-.06,0-.09,0-.01.27-.02.54-.04.99v.01Zm-52.57.61c.12.5.28,1,.36,1.51.14,1,.63,1.21,1.4,1.02-.72-2.39-1.42-4.74-2.12-7.08-.1.02-.2.05-.3.07.2,1.45.39,2.89.66,4.49v-.01Zm8.44-24.69c1.39,5.13,2.78,10.26,4.22,15.54.07-1.74-3.83-15.82-4.79-17.29.21.63.37,1.11.57,1.75Zm76.76,26.5c.64-3.22,1.28-6.43,1.93-9.65-1.26,3.31-2.06,6.78-2.63,10.33.11.1.22.2.33.3.12-.27.24-.54.37-.98Zm6.46-17.28c.68-1.76,1.02-3.83.78-5.09-.9,1.87-2.26,3.47-1.23,5.96.14-.29.26-.51.45-.87ZM601.66,588.41c.34.27.69.53,1.16.89-.93-2.47-1.79-4.77-2.65-7.06-.02.79.02,1.54.2,2.23.34,1.3.22,2.84,1.28,3.94h.01Zm8.68,11.78c.08.47.17.94.26,1.47.23.04.44.07.69.11.43-2.21-.51-3.87-1.32-5.6.12,1.28.24,2.56.37,4.02Zm92.9,1.54c-1.37,2.83-1.6,3.56-1.37,4.31c1.64-3.12,2.24-4.73,1.98-5.53-.19.41-.36.76-.61,1.22ZM618.9,613.71c.18.65.36,1.3.55,1.95.18.65.37,1.29.55,1.94.09-.04.17-.07.25-.11-.66-2.44-1.31-4.89-1.97-7.33-.1.04-.2.08-.31.12.29,1.1.57,2.2.92,3.44l.01-.01Zm-5.23-6.23c-.6,1.79.47,3.18.63,4.96.53-1.89.1-3.4-.63-4.96Zm-1.97-.89c.04.57.08,1.14.14,1.98.78-2.05.3-3.81.07-5.59-.07,1.14-.13,2.28-.2,3.61h-.01Zm1.02,5.63c-.08-.33-.17-.65-.25-.98-.08.02-.16.04-.23.07.26,1.67.53,3.34.79,5.01.08-.02.16-.04.25-.06-.19-1.29-.37-2.58-.56-4.05v.01Zm89.29-33.03c.45-1.07.89-2.13,1.33-3.2-.13-.08-.26-.16-.38-.23-.42,1.09-.84,2.18-1.25,3.27-.01.04.12.16.3.16Zm-81.92,29.59c-.3-1-.61-2-.91-2.99-.05,1.55.42,2.89,1.14,4.14-.07-.33-.14-.66-.23-1.15Zm87.46-13.57c.42-.99.84-1.98,1.26-2.97-.09-.06-.17-.12-.26-.18-.42.86-.86,1.71-1.25,2.59-.07.15.13.47.25.55v.01ZM619.3,578.52c.24.78.48,1.56.72,2.33.07-.03.13-.06.2-.09-.55-1.8-1.1-3.6-1.64-5.41-.07.03-.14.06-.2.09.3.97.59,1.94.92,3.08Zm-5.15,26.34c-.19-.49-.38-.98-.58-1.47-.09.05-.17.11-.25.16.43,1.07.85,2.13,1.28,3.19.1-.06.19-.11.29-.17-.22-.53-.44-1.06-.74-1.71Zm82.41-14.6c-.12.42-.25.84-.37,1.26.08.03.16.07.23.1.38-1.15.77-2.3,1.15-3.45-.05-.03-.1-.06-.15-.09-.27.68-.54,1.35-.86,2.18Z" fill="#0c612d" stroke-width="0"/><path d="M337.13,620.32c.38.75.76,1.49,1.19,2.2-.44-1.37-.92-2.71-1.96-3.73-.1-.05-.18-.04-.19-.07-.5-.94-1.27-1.37-2.05-1.79-.46-.25-.9-.54-1.47-.88c1.82.47,3.33,1.37,4.6,2.95-.73-1.59-1.28-3.29-2.43-4.57c2.05.84,4.12,1.65,5.94,3.31-1.89-3.85-3.59-7.77-5.93-11.23.73.83,1.44,1.68,2.01,2.65c1.57,2.7,3.08,5.46,4.63,8.18.3.53.6,1.12,1.01,1.49c1.95,1.77,3.84,3.61,5.43,5.88.26.36.55.69.83,1.03.03-.03.07-.07.1-.1-.17-.33-.33-.66-.51-.99-1.64-3.1-3.26-6.2-4.91-9.29-1.03-1.93-2.28-3.6-3.93-4.78-.74-.53-1.47-1.07-2.32-1.69c1.5.25,2.72,1.04,4,2-1.48-2.45-2.89-4.79-4.3-7.14.23.11.41.28.56.47c1.8,2.25,3.63,4.49,5.4,6.78c2.62,3.38,5.36,6.64,7.49,10.54c1.69,3.09,3.15,6.32,4.35,9.7.26.73.53,1.44.81,2.15s.56,1.41.84,2.12c-1.28-5.14-3.22-9.98-5.29-14.74-2.06-4.74-4.29-9.38-6.45-14.06c1.57,2.57,3.11,5.18,4.54,7.86c1.42,2.65,2.73,5.38,4.1,8.08-.78-2.25-1.6-4.49-2.49-6.7-.87-2.18-1.8-4.33-2.71-6.5c4.48,7.35,7.42,15.6,10.59,23.72-2.37-7.58-5.5-14.8-8.17-22.25c2.97,6.44,5.76,12.97,8.25,19.67-1.32-5.08-3.38-9.85-5-14.82c1.56,3.2,2.87,6.53,4.08,9.91c1.2,3.37,2.32,6.77,3.48,10.16-.1-.66-.2-1.31-.35-1.96-.44-1.9-.82-3.83-1.37-5.7-.68-2.33-1.49-4.61-2.29-6.9-1.32-3.8-2.81-7.51-4.55-11.09-.81-1.66-1.64-3.3-2.47-4.95-.23-.47-.57-.7-1.01-.87-.72-.27-1.5-.55-2.09-1.11-1.35-1.26-2.6-2.67-3.88-4.04-.57-.61-1.13-1.26-1.77-1.98c2.13.13,4.12.45,6.06,1.64-.2-.36-.34-.65-.5-.91-1.5-2.49-2.92-5.07-4.53-7.44-2.06-3.03-4.4-5.77-6.78-8.46-2.75-3.1-5.64-5.98-8.65-8.68-.84-.75-1.67-1.54-2.62-2.43.28.08.41.1.53.15c1.89.77,3.67,1.87,5.35,3.23c2.82,2.29,5.55,4.71,8.06,7.53c2.41,2.71,4.79,5.45,6.87,8.58-.74-1.97-.92-4.03-1.09-6.26.15.27.22.38.28.5c1.28,2.68,2.61,5.32,3.83,8.04c1.24,2.78,2.35,5.64,2.65,8.72.21.25.41.45.58.69.18.26.33.54.47.82c2.41,4.57,4.61,9.27,6.52,14.14c1.18,3,2.22,6.08,3.29,9.14.48,1.36.89,2.76,1.34,4.14-.14-1.56-.33-3.1-.52-4.65-.33-2.78-.65-5.55-.99-8.33-.09-.75-.14-1.53-.34-2.25-.26-.96-.62-1.9-.98-2.82-1.92-4.86-4.12-9.56-6.47-14.16-2.5-4.9-5.13-9.7-7.92-14.37-1.85-3.1-3.76-6.16-5.93-8.96-2.61-3.36-5.15-6.81-8-9.88-2.56-2.74-5.05-5.57-7.68-8.2-2.14-2.14-4.44-4.02-6.67-6.02-1.14-1.02-2.28-2.03-3.42-3.04.18,0,.34.04.49.1c2.62,1.03,5.03,2.67,7.37,4.48c4.67,3.62,9,7.82,13.12,12.36c4.25,4.68,8.23,9.66,11.69,15.21c3.04,4.88,5.9,9.91,8.84,14.88.28.48.59.95.88,1.43.04-.02.08-.05.13-.07-.26-.96-.52-1.93-.79-2.88-.53-1.85-1.05-3.7-1.6-5.54-.74-2.45-1.49-4.89-2.27-7.33-.31-.96-.5-2-1.19-2.75-.79-.86-1.34-1.94-1.73-3.1-.92-2.75-1.8-5.52-2.68-8.29-.16-.51-.27-1.04-.4-1.56.81.82,1.55,1.68,2.23,2.61s1.28,1.94,1.95,2.97c-2.31-9.69-2.68-19.22-1.17-28.69-.04,7.13.44,14.25,1.47,21.36.25-.96.5-1.92.74-2.84.38,2.7.73,5.41,1.13,8.11.49,3.24.83,6.47.23,9.64-.06.32-.12.71-.02,1c.47,1.55,1.01,3.07,1.49,4.61.86,2.73,1.72,5.46,2.53,8.21.6,2.02,1.13,4.07,1.69,6.1.06-1.65.03-3.3.08-4.95.05-1.67.15-3.33.28-4.99.13-1.63.28-3.26.49-4.87.21-1.64.46-3.27.75-4.88.28-1.56.64-3.1.97-4.65.04.02.09.03.13.05-.09.75-.19,1.49-.27,2.24-.48,4.68-1.09,9.33-1.17,14.09-.05,3.28,0,6.58.04,9.87c0,.59.08,1.28.34,1.77c2.37,4.55,4.47,9.28,6.53,14.01.17-1.33.46-2.65.49-4c.03-1.43-.18-2.88-.29-4.33-.27-3.43-.59-6.85-.82-10.28-.35-5.06-.3-10.1-.14-15.24-1.12-2.3-1.67-4.88-1.94-7.54-.21-2.04-.42-4.09-.62-6.13-.07-.68-.09-1.37-.13-2.06l.16-.04c.81,2.2,1.62,4.41,2.48,6.74c0-.43-.02-.69-.02-.95s0-.53.04-.78c.52-3.96,1.3-7.82,2.36-11.57.64-2.28,1.47-4.48,2.25-6.68.67-1.88,1.64-3.53,2.71-5.08.08-.11.21-.18.31-.26.04.04.08.08.12.12-1.63,4.66-3.1,9.4-4.16,14.34s-1.9,9.95-2.35,15.08-.54,10.3-.45,15.51c.08,4.52.81,14.53,1.23,15.64c1.18-5.28,2.94-10.17,5.65-14.32-.91-3.58-1.08-7.04-.89-10.5.06-.01.12-.03.18-.04.64,1.73,1.29,3.46,1.97,5.3.12-.88.18-1.62-.2-2.4-.21-.44-.37-.96-.41-1.45-.07-.93-.09-1.87-.05-2.79.26-6.08,1.37-11.88,3.02-17.48.18-.61.39-1.21.61-1.81.21-.58.44-1.14.67-1.71.06.09.06.15.06.2-.68,3.81-1.4,7.61-2.03,11.43-.76,4.63-1.15,9.33-.85,14.16.05.88.17,1.75.26,2.74.35-.55.61-1.03.92-1.44c1.83-2.41,3.64-4.85,5.52-7.2c1.4-1.75,3-3.21,4.95-4.37-.15.22-.22.32-.29.42-1.01,1.34-2.07,2.62-3.02,4.02-2.29,3.4-4.52,6.85-6.76,10.3-.29.45-.64.96-.7,1.51-.16,1.42-.17,2.87-.25,4.51.99-2.35,2.05-4.44,3.46-6.23-.04,1.02-.13,2.01-.23,3-.21,2.01-.27,4.06-.92,5.93-.33.94-.68,1.91-1.42,2.4-.7.48-.69,1.13-.59,1.96.31,2.53.6,5.06.89,7.6.27,2.36.6,4.7,1.38,6.95.16.48.3.97.5,1.6-.13-3.21-.26-6.24-.39-9.28.06,0,.11,0,.17,0c.23,2.13.43,4.27.71,6.4.28,2.12.58,4.25.97,6.35s.9,4.17,1.36,6.26c.04,0,.09-.02.13-.02-1.06-7.23-1.79-14.47-2.08-21.72.87,7.21,1.43,14.46,3.12,21.56-.43-3.49-.94-6.97-1.3-10.45-.36-3.49-.68-6.98-.62-10.47.78,6.3,1.56,12.59,2.34,18.89.04,0,.08,0,.12,0c0-.24.01-.47,0-.71-.17-1.84-.35-3.67-.51-5.5-.26-2.89-.49-5.78-.75-8.67-.2-2.2-.46-4.4-.62-6.6-.09-1.27-.03-2.55-.04-3.86.49,4.01.99,7.95,1.44,11.9.45,3.92.85,7.84,1.27,11.76-.01-1.67-.08-3.34-.2-5-.21-2.99-.51-5.98-.65-8.97-.16-3.53-.2-7.05-.28-10.57-.01-.44.02-.89.05-1.33.02-.41.06-.82.09-1.23.68,10.71,1.31,21.4,2.91,32.06.04-.06.05-.12.04-.18-.18-2.41-.39-4.81-.53-7.21-.16-2.61-.26-5.23-.39-7.84-.18-3.71-.11-7.38.26-11.01.09-.93.19-1.86.29-2.8.01,0,.02.01.03.02.11,5.2.22,10.4.33,15.6.25-6.52.89-12.93,2.06-19.39.05.24.07.3.07.36-.18,3.04-.37,6.08-.54,9.12-.21,3.83-.47,7.65-.34,11.53.01.35,0,.69.02,1.03.02.31.05.63.08.95.06-5.32.19-10.6,1.11-15.74-.23,5.63-.43,11.25.07,16.94.06-.43.1-.87.12-1.31.2-5.06.78-10,1.96-14.77.95-3.85,1.89-7.69,2.84-11.54.1-.4.18-.8.28-1.2.1-.37.21-.73.31-1.1.04.02.08.03.12.04-1.38,8.52-1.85,17.22-1.87,26.01.11-.13.14-.27.17-.42.32-2.17.84-4.24,1.58-6.21.44-1.16.79-2.35.94-3.66.32-2.68.72-5.35,1.1-8.02.08-.59.21-1.16.35-1.73.13-.56.31-1.1.44-1.57-.4,3.93-.81,7.94-1.22,11.94.06.02.12.05.18.07.1-.14.22-.26.31-.41.49-.79.93-1.64,1.48-2.35.41-.54.41-1.11.33-1.78-.06-.49-.09-.97-.13-1.46.03,0,.06,0,.09,0c.09.78.18,1.57.27,2.32c1.1-1.05.99-2.85,1.56-4.23-.17,2.16-.33,4.31-.49,6.47-.03,0-.05,0-.08,0c0-.58,0-1.16,0-1.74-.07-.01-.13-.02-.2-.04-.12,1.44-.23,2.89-.35,4.33.23-.27.3-.61.46-.87.45-.74,1.01-1.37,1.37-2.17.54-1.21,1.38-1.96,2.31-2.64.15-.11.26-.32.33-.53.45-1.41.51-2.88.15-4.42-.08-.32-.11-.65-.15-.98-.03-.3-.04-.61-.06-.91.05,0,.1-.01.15-.02c1.31,7.42,2.69,14.83,4.55,22.25.3-2.77.42-5.48,1.02-8.07.08.2.1.41.08.6-.22,2.48-.46,4.97-.68,7.45-.04.39-.08.82,0,1.2.42,1.97.88,3.93,1.33,5.9.05.21.11.42.17.64l.88-.17c.15-4.49.27-9,1.09-13.36-.25,4.48-.49,8.96-.74,13.41c1.99.2,3.84.38,5.68.57-2.06.24-4.13.33-6.16.64-2.24.34-4.46.79-6.65,1.36-1.84.48-3.64,1.19-5.44,1.84-2.38.86-4.75,1.76-7.12,2.65-2.17.81-4.32,1.7-6.52,2.43-2.39.8-4.82,1.44-7.22,2.19-3.33,1.03-6.76,1.49-10.23,1.73-2.92.21-5.86.28-8.8.33-3.77.07-7.54,0-11.31.09-2.14.05-4.27.23-6.37.52-3.02.41-5.97,1.18-8.88,2.13-.45.15-.92.27-1.37.4-.01-.04-.02-.08-.04-.12c1.73-.85,3.46-1.7,5.26-2.59-1.28-2.83-2.55-5.65-3.89-8.61c1.81,2.69,2.97,5.67,4.34,8.5.57-.2,1.08-.38,1.64-.58-1.89-5.79-4.46-11.07-7.15-16.29c3.23,4.94,5.67,10.4,7.78,16.02l1.35-.26c-3.06-9.13-6.09-18.19-9.11-27.2c1.18,2.08,1.9,4.47,2.75,6.76c1.35.87,2.69,1.74,4.08,2.64-.55-1.16-1.07-2.24-1.57-3.33-.06-.12,0-.32,0-.48.25.53.5,1.06.76,1.58v.08Zm14.61,6.2c-.34-.73-.71-1.45-1.07-2.18-.05.02-.09.04-.14.06.09.24.16.49.27.72.84,1.77,1.69,3.54,2.53,5.31.39.77.71,1.5,1.02,2.23.03-.01.05-.02.08-.04-.29-.76-.58-1.51-.87-2.27-.65-1.3-1.23-2.57-1.82-3.83Zm45.97-11.27c0,0-.1-.03-.14-.05-.37,2.12-.74,4.24-1.1,6.36-.09.7-.19,1.31-.29,1.92.05.02.1.04.15.06.14-.52.29-1.04.43-1.56.7-2.19,1.36-4.3.96-6.73h-.01Zm8.08,3.13c.06,3.11.12,6.23.19,9.34c0,.08.03.16.05.29l1.06-.2c-.03-1.07,0-2.16-.11-3.25-.22-2.26-.52-4.52-.76-6.79-.12-1.13-.18-2.27-.27-3.41-.06-.54.02-1.05-.04-1.54-.16-1.37-.38-2.73-.59-4.19-.66.44-1.23.9-1.26,1.82-.08,2.67-.1,5.35-.14,8.02c0,.08.03.16.07.38.21-3.21.4-6.28.6-9.34.07.01.14.03.22.04-.15,3.27-.35,6.54-.44,9.83-.04,1.52.11,3.07.19,4.61.02.34.06.68.15,1.03.32-3.28.64-6.57.96-9.85.08,1.04.11,2.13.13,3.21h-.01Zm-32.6,7.7c.18,3.21,1.12,6.14,2.33,9.02.02.05.06.09.16.12-.18-.79-.4-1.57-.54-2.36-.35-2.01-.68-4.02-.97-6.03-.45-3.1-.67-6.2-.63-9.3.04-3.4.2-6.79,1.05-10c.11-.43.3-.83.45-1.24.06.03.12.06.18.08-.05.3-.12.59-.16.89-.08.61-.08,1.24-.21,1.83-.25,1.16-.02,2.23.43,3.31.44,1.06.83,2.14,1.34,3.19-.07-.88-.13-1.76-.2-2.64-.11-1.39-.22-2.77-.35-4.15-.15-1.55-.31-3.1-.51-4.64-.14-1.09-.26-2.21-.56-3.26-.38-1.33-.92-2.6-1.41-3.95-.4.77-.85,1.55-1.23,2.37-1.45,3.13-2.48,6.5-3.35,9.97-.39,1.57-.29,3.04.17,4.62.57,1.93,1.01,3.9,1.51,5.85.31,1.19.64,2.36.93,3.4.03-1.36.02-2.9.1-4.42.21-3.75.6-7.45,1.57-10.97.28-1.03.6-2.05,1.33-2.95-.2.95-.35,1.77-.54,2.57-.59,2.54-.73,5.2-.91,7.84c0,.08-.03.16-.04.23-.24,3.58-.17,7.09.04,10.62h.02Zm1.64-11.91c-.05,3.78-.18,7.55.54,11.29.72,3.76,1.64,7.47,2.58,11.19-.04-.62-.08-1.25-.13-1.87-.05-.63-.1-1.26-.15-1.89-.22-2.89-.46-5.79-.66-8.68-.1-1.5,0-3.03-.25-4.5-.23-1.32-.81-2.59-1.25-3.88-.08-.23-.17-.45-.26-.68-.16-.39-.28-.68-.41-.97l-.01-.01Zm-34.65,18.75c.65,1.4,1.26,2.82,1.9,4.23.11.25.23.51.44.71-1.36-3.49-2.71-6.97-4.07-10.46.01-.01.03-.02.04-.04.34.69.69,1.37,1.02,2.07.35.74.68,1.49,1.01,2.25.31.73.6,1.47.95,2.2-.02-.2-.04-.41-.07-.61-.16-1.16-.17-2.38-.53-3.45-.69-2.01-1.58-3.93-2.4-5.88-.08-.2-.22-.39-.37-.52-.93-.78-1.88-1.53-2.82-2.29-.11-.08-.24-.12-.39-.18.88,2.15,1.73,4.26,2.59,6.36.94,1.92,1.83,3.75,2.7,5.6v.01Zm25.99-7.19c0-.19-.07-.39-.15-.57-1.18-2.81-2.37-5.63-3.6-8.54.87,5.88,1.73,11.64,3.72,17.31-.01-1.99-.02-3.83-.03-5.68.02-.91.06-1.71.06-2.52Zm37.22,2.76c0,0,.09.05.14.07.05-.18.15-.35.15-.54.11-2.69.1-5.39-.09-8.11-.13-1.89-.04-3.79-.04-5.69c0-1.12.01-2.24-.06-3.43-.18.3-.39.58-.55.9-.27.56-.47,1.18-.76,1.71-.42.78-.25,1.65-.18,2.52.13,1.51.24,3.02.39,4.53.11,1.12.26,2.24.39,3.36.21,1.64.41,3.16.6,4.68h.01Zm-35.45-6.33c0,1.56,0,3,0,4.44c0,.13.05.29.12.41c1.22,2.13,1.96,4.51,2.86,6.82.08.2.17.39.24.55-.13-1.47-.27-2.97-.4-4.46.03,0,.05,0,.08,0c.33,2.25.67,4.51,1.02,6.87.23-.12.38-.2.54-.28c0-1.59-.28-3.1-.66-4.6-.95-3.44-2.17-6.63-3.8-9.75Zm-7.5-15.76c0,0-.06.04-.09.05.08.2.13.44.25.6.92,1.24,1.01,2.69,1.01,4.17c0,.23.03.51.13.71c1.84,3.5,3.38,7.18,4.88,10.89c0,.02.02.03.05.07.02-.65.04-1.27.05-1.89c0-.16.01-.35-.05-.48-.56-1.12-.57-2.42-1.14-3.58-1.36-2.73-2.57-5.56-3.85-8.35-.11-.24-.24-.46-.36-.69-.33-.55-.6-1.03-.88-1.5Zm40.65,22.77c.36-.15.61-.25.93-.39-.21-4.41-.41-8.75-.62-13.1-.04,0-.09-.01-.13-.02-.46,1.22-.79,2.51-.8,3.91-.01,1.39.04,2.79.07,4.18.19,1.84.36,3.57.55,5.42Zm-54.41,10.1c.32,0,.61,0,1,0-1.58-4.13-2.81-8.37-5.54-11.76.12,1.94.88,3.5,1.63,5.08.56,1.17,1.08,2.37,1.63,3.55.46,1.09.87,2.1,1.29,3.13h-.01Zm21.5-25.55c-.1.91-.14,1.7-.29,2.46-.23,1.28.04,2.41.6,3.59.97,2.07,1.84,4.21,2.76,6.35.09-1.29-.11-2.52-.5-3.74-.54-1.65-1.02-3.33-1.53-4.99-.16-.51-.32-1.01-.48-1.52-.2-.74-.37-1.37-.57-2.15h.01Zm-31.38,3.64c.5,1.18,1.12,2.17,2.16,2.76.81.46,1.55,1.11,2.07,1.49-1-2.54-2.34-5.24-5.18-6.15.16.3.31.6.46.89.2.38.35.69.48,1l.01.01Zm57.52,4.39c.05.02.1.04.16.06.04-.13.1-.26.12-.39.42-2.9,1.21-5.63,2.14-8.29.33-.95.65-1.91,1-2.94-.01.46-.02.84-.03,1.27.68-1.18.81-2.08.55-3.93-.25.42-.47.76-.67,1.12-1.03,1.84-1.58,3.95-1.99,6.14-.13.71-.31,1.41-.46,2.11-.31,1.66-.78,3.19-.81,4.85h-.01Zm9.11-17.14c-1.32.86-2.28,2.63-2.18,4.17.04.67.03,1.34.09,2.01.05.65.14,1.3.24,2.11.64-1.29.91-2.61,1.09-3.97.27-1.46.5-2.82.77-4.32h-.01Zm-3.38,12.25c.32-.87.67-1.66.91-2.51.12-.44.06-.99.05-1.49-.04-1.43-.09-2.86-.24-4.38-.43,1.03-.96,2.02-1.25,3.11-.17.65,0,1.49.08,2.23.07.75.21,1.5.32,2.25.06.31.1.52.14.77l-.01.02ZM341.27,630.2c.68,3.3,1.59,6.5,2.99,9.53l.5-.1c-.17-.52-.33-1.03-.5-1.54.02,0,.05-.02.07-.03l.69,1.56c0,0,.08-.04.12-.06-.41-1.6-1.06-3.1-1.69-4.61-.77-1.64-1.48-3.2-2.2-4.76l.02.01Zm-3.69-10.43c.51,1.18.95,2.18,1.39,3.18.05.13.13.25.23.34c1.07.96,2.15,1.91,3.34,2.96-.41-1.72-1.19-2.99-2.33-4-.88-.83-1.7-1.6-2.62-2.48h-.01Zm30.13,18c0,0,.06,0,.09-.01-.05-.58-.1-1.16-.14-1.73-.16-2.31-.27-4.63-.48-6.94-.06-.71-.38-1.42-.64-2.11-.17,3.45.22,6.86.96,10.26.09.25.15.4.21.54v-.01Zm-24.43-16.36c1.32,3.36,3.68,5.57,5.52,8.29-.66-1.54-1.41-3.02-2.3-4.39-1-1.43-1.98-2.75-3.23-3.9h.01Zm-4.36,12.89c-.42-3.16-3.99-13.14-4.88-13.64.38,1.05.76,2.04,1.12,3.05c1.02,2.89,2.03,5.78,3.05,8.67.12.33.24.65.36.97.13.33.22.58.35.95Zm65.2-31.83c0,0-.05-.03-.08-.05-.11,1.11-.31,2.22-.31,3.34c0,1.17.2,2.35.31,3.48.35-.32.73-.67,1.16-1.06l-.5-2.62c-.21-1.11-.4-2.1-.59-3.09h.01Zm-62.36,37.62c.12.01.3.03.54.05-.95-3.4-2.24-6.55-3.85-9.53-.05.02-.09.04-.13.06.76,2.1,1.51,4.2,2.27,6.3.4,1.09.77,2.07,1.17,3.12Zm.42-9.37c-.07-.89-.15-2-.26-3.1-.03-.25-.12-.55-.26-.72-.73-.86-1.48-1.68-2.23-2.52-.05.04-.09.09-.13.14.32.68.63,1.37.95,2.05.7,1.51,1.37,2.93,1.94,4.15h-.01Zm-.47-8.78c.18.35.46.64.72.92.49.51,1,.98,1.53,1.44-1.09-2.16-2-4.49-4.03-5.98.28.48.48.84.68,1.19.39.87.72,1.67,1.1,2.43Zm5.94,12.86c-.23-2.22-1.16-4.03-2.47-5.6-.02.86.13,1.48.68,2.83c1.16,2.25,1.5,2.78,1.78,2.77h.01Zm58.89-20.54l-.15.03c.38,3.28.76,6.55,1.14,9.83.49-1.9.27-3.8-.19-5.7-.08-.32-.13-.65-.19-.97-.22-1.14-.41-2.16-.61-3.19Zm1.87,7.58c-.05,0-.1,0-.15,0c.02,1.9.05,3.81.07,5.8.44-.05.74-.08,1.16-.12l-.27-1.4c-.28-1.51-.55-2.89-.81-4.28Zm-16.45-6.49c.06-.75.09-1.51.06-2.28-.35,4.07-1.21,8.03-.82,12.25.01-.11.02-.23.03-.34.25-3.27.49-6.45.73-9.63Zm-39.92,14.97c0,0,.1-.04.14-.06-.03-.18-.03-.39-.11-.54-1.26-2.43-2.52-4.86-3.79-7.28-.02-.04-.07-.06-.11-.09-.04.03-.08.06-.12.08.28.62.55,1.23.83,1.85c1.09,2.06,2.13,4.05,3.16,6.03v.01Zm46.74-18.42c-1.01,1.4-.68,3.03-.32,4.66.32-1.16.42-2.37.41-3.62-.04-.4-.06-.7-.09-1.05v.01Zm-30.73,20.97c0,0-.04,0-.05,0c.08,1.66.15,3.32.23,5.09.27-.15.49-.27.73-.4l-.78-4.14c-.06-.25-.09-.41-.13-.56v.01Zm30.13-7.42c-.06,0-.12,0-.18,0-.15,1.42-.29,2.83-.45,4.28.46.03.72-.15.69-.73-.01-.3.03-.6.04-.9-.02-.94-.07-1.79-.11-2.64l.01-.01Zm-7.25-11.63c-.39.95-1.1,9.42-.87,10.4.25-3.17.49-6.26.73-9.34.04-.39.09-.68.14-1.06ZM350.1,638.87c.05-.07.1-.14.15-.2-.71-1.97-1.54-3.87-2.62-5.62.72,1.77,1.43,3.54,2.15,5.31.12.24.22.38.32.52v-.01Zm-5.53-9.25c.32-1.54-.63-2.3-1.35-3.28c0,.74.41,1.89,1,2.83.15.18.24.3.35.45Zm58.93-21.7c.03-.41-.03-.84-.13-1.29-.24,1.41-.49,2.81-.75,4.32.23-.26.4-.45.57-.64.49-.75.25-1.61.31-2.39Zm-4.21,7.73c-.27,1.07-.63,2.13-.15,3.34.14-.05.26-.09.38-.14c0-.31,0-.59-.01-.87-.08-.85-.15-1.59-.22-2.34v.01Zm-53.2,12.65c-.06.48.46,1.34,1.73,2.95.05-.45-.16-.84-1.25-2.31-.19-.24-.33-.42-.48-.63v-.01Zm50.15-3.72c-.06-.01-.13-.02-.19-.04-.11,1.47-.22,2.94-.33,4.41.05.01.1.02.16.04.03-.39.07-.78.11-1.17.03-.39.07-.78.1-1.17.07-.75.11-1.4.16-2.06l-.01-.01Zm2.34.84c-.1-1.04.36-1.94-.18-2.9-.25.97-.33,1.88.18,2.9Zm.34-5.67c.06,1.04-.02,2.1.64,3.19-.06-.48-.1-.82-.14-1.15-.19-.75-.35-1.4-.51-2.04h.01Zm.65,7.74c0,0,.1,0,.15,0-.03-.98-.06-1.97-.09-2.95-.05,0-.09-.01-.14-.01-.01.2-.03.39-.04.59.05.86.09,1.61.12,2.37Zm-54.58-11.71c-.35-.58-.71-1.16-1.07-1.74-.06.06-.13.12-.19.17.37.56.74,1.12,1.11,1.69.1-.02.17-.1.16-.12h-.01Zm49.88,8.85c.27-.79.4-1.61.2-2.49-.07.6-.13,1.21-.2,1.81c0,.29,0,.49,0,.68Zm-51.38.69c-.31-.47-.66-.9-.99-1.35-.04.04-.09.09-.13.13.35.52.69,1.04,1.04,1.56.06-.06.14-.27.08-.34Zm48.76-20.61c0,0-.08-.02-.13-.03-.12,1.09-.24,2.18-.35,3.27.04.01.08.02.13.03.05-.47.11-.94.16-1.41.07-.68.13-1.27.2-1.86h-.01Zm5.37,17.41c.06.02.12.04.18.07.13-.66.26-1.31.39-1.96-.05-.02-.11-.04-.16-.06-.06.3-.11.6-.17.9-.1.41-.17.73-.24,1.06v-.01Zm-49.18-1.63c0,0-.05.04-.08.07.34.62.69,1.23,1.03,1.85.04-.03.08-.06.12-.08-.12-.23-.23-.45-.35-.68-.27-.44-.5-.8-.72-1.15v-.01Z" fill="#0c612d" stroke-width="0"/><path d="M1454.5,591.29c.06.27.22.58.16.81-.49,2-1.03,3.98-1.59,6.12c2.07-1.97,4.04-3.85,6.05-5.76.7-4.14,1.15-8.41,2.48-12.29-2.21,16.19-4.44,32.46-6.68,48.85h2.37c1.76-10.17,4.14-20.17,8.01-29.54-2.87,9.67-5.52,19.41-6.86,29.79c1.01.16,1.93.29,2.95.45c1.4-5.22,2.4-10.62,4.6-15.75-1.31,5.42-2.56,10.58-3.81,15.78c3.33.92,6.52,1.81,9.72,2.69c0,.07-.01.14-.02.22-.81-.08-1.63-.13-2.44-.23-5.21-.67-10.44-1.03-15.68-.76-3.65.19-7.31.58-10.93,1.17-6.39,1.04-12.75,2.37-19.13,3.46-4.98.86-9.96,1.67-14.96,2.26-5.93.69-11.87,1.03-17.82.35-4.3-.49-8.61-.8-12.89-1.38-3.94-.54-7.85-1.34-11.78-2.02-4.29-.74-8.58-1.5-12.88-2.2-3.25-.52-6.51-1.15-9.78-1.37-3.88-.27-7.78-.31-11.66-.17-3.53.13-7.06.63-10.61.89c3.06-.9,6.11-1.8,9.41-2.78-1.84-7.45-3.69-14.93-5.54-22.42c2.77,7.11,4.42,14.69,6.11,22.22h1.54c.03-.4.07-.77.09-1.14.13-3.46.28-6.92.36-10.38.02-.67-.19-1.38-.38-2.03-1.17-4.13-2.36-8.24-3.53-12.37-.09-.32-.12-.66-.05-1.04c1.84,4.18,2.91,8.72,4.3,13.3.78-13.12.74-26.07.58-39.02.09,0,.17-.01.26-.02.06.52.14,1.04.18,1.56.04.56.09,1.13.06,1.7-.12,2.71.47,5.17,1.67,7.41.17.32.43.65.72.78c1.79.85,3.44,1.86,4.75,3.73.86,1.23,2.02,2.13,3.01,3.23.35.39.59.93,1.06,1.32-.66-2.4-1.31-4.8-1.97-7.2-.11.04-.22.08-.33.12.19.98.37,1.96.56,2.94-.04.01-.08.02-.12.04-.97-3.59-1.94-7.18-2.9-10.77c1.4,2.16,1.79,5.23,3.99,6.65-.09-1.3-.19-2.65-.29-4c.05,0,.11-.02.16-.02.09.84.2,1.67.25,2.51.07,1.15.25,2.12,1.12,2.89c1.16,1.03,2.18,2.33,3.26,3.5.2.22.44.4.66.6.09-.06.19-.12.28-.18-1.97-6.63-3.94-13.26-5.88-19.78.37.74.84,1.61,1.24,2.51.41.91.81,1.84,1.14,2.81c1.49,4.38,3.02,8.76,4.42,13.19.68,2.16,1.65,4.06,2.76,5.88c1.89,3.09,3.43,6.43,4.66,9.99.09.24.19.48.42.66-2.84-14.84-6.41-29.37-11.47-43.32.06-.04.13-.07.19-.11.29.58.6,1.16.88,1.76.3.64.56,1.3.85,1.94c2.83,6.2,5.65,12.39,8.48,18.58c3.52,7.68,6.09,15.85,8.04,24.32.17.74.38,1.46.62,2.18-.97-9.77-3.11-19.21-5.31-28.64c3.19,8.38,5.1,17.27,6.91,26.22-.06-.54-.09-1.09-.17-1.62-.08-.59-.2-1.17-.29-1.76-1.02-6.59-2.68-12.96-4.27-19.36-1.26-5.08-2.55-10.15-3.83-15.22-.02-.09,0-.2,0-.63c4.03,10.54,7.16,21.16,9.68,32.09-1.48-8.81-2.95-17.63-4.42-26.45.02-.01.03-.02.05-.04.46,1.54.93,3.08,1.38,4.63c1.77,6.02,3.07,12.2,3.95,18.51.63,4.45,1.29,8.9,1.85,13.37.52,4.11.94,8.24,1.41,12.35.01.1.05.2.13.29-.7-18.51-3.06-36.76-5.33-55.06.18.68.37,1.36.54,2.05.18.74.38,1.47.51,2.23.99,5.98,2.06,11.94,2.91,17.95.72,5.09,1.17,10.23,1.77,15.35.34,2.85.75,5.68,1.27,8.51-.54-6.75-1.12-13.51-1.62-20.27-.5-6.82-.92-13.64-1.38-20.56.41,2.22.92,4.36,1.17,6.54.44,3.77.7,7.56,1.07,11.34.48,4.96,1.01,9.92,1.5,14.89.31,3.15.6,6.31.9,9.46.04.4.14.8.21,1.2.07,0,.14-.02.21-.03-.69-10.88-1.39-21.76-2.08-32.64c1.22,5.87,1.8,11.87,2.31,17.87.5,6,.75,12.04,1.14,18.07.56-12.54-.79-24.95-1.64-37.41c1.82,12.35,2.91,24.81,3.43,37.35.08,0,.16,0,.24,0c.11-3.67.31-7.34.3-11-.01-3.68-.18-7.36-.39-11.03-.21-3.68-.56-7.36-.85-11.04.1-.02.19-.04.29-.06.76,5.17,1.52,10.33,2.32,15.79.13-1.12.2-2,.33-2.86.6-4.05.41-8.11.1-12.17-.33-4.37-.65-8.74-.93-13.11-.09-1.44-.29-2.54-1.63-3.12-1.4-.61-2.31-2.12-3.16-3.61-1.69-2.95-2.46-6.39-3.45-9.72-.49-1.64-.95-3.29-1.35-4.99c2.95,2.58,5.41,5.77,7.83,9.42-.66-2.75-1.14-5.2-1.86-7.54-.28-.91-1.03-1.65-1.67-2.32-4.89-5.1-9.77-10.22-14.72-15.23-2.05-2.07-4.25-3.89-6.39-5.83-.16-.14-.3-.3-.62-.62c3.65,1.33,6.82,3.29,9.75,5.79c3.93,3.36,7.77,6.9,11.63,10.38.66.6,1.25,1.32,2.02,2.14-.15-1.69-.24-3.21-.43-4.71-1.04-8.25-3.21-16.07-5.97-23.64-2.28-6.26-4.71-12.44-7.08-18.66-.03-.09-.05-.18.03-.36.56.89,1.13,1.76,1.67,2.67.56.94,1.1,1.88,1.61,2.86c4.57,8.94,8.3,18.36,10.69,28.55.36,1.55.64,3.14.81,4.73.09.84-.01,1.77-.23,2.58-.39,1.43-.05,2.65.43,4.11.57-3.34,1.1-6.46,1.64-9.58.11,0,.21,0,.32.01c1.42,5.79,2.26,11.68,1.86,18.02c5.91,6.15,10.45,13.84,14.13,22.38.36-2.01-1.61-19.13-2.92-26.8-1.51-8.82-3.31-17.53-5.71-26.05-2.4-8.53-5.42-16.71-8.79-24.72s-7.37-15.54-11.61-22.89c.06-.08.11-.16.17-.25.2.11.44.18.61.35c2.31,2.27,4.47,4.74,6.2,7.71c2.03,3.47,4.12,6.92,5.94,10.56c2.98,5.99,5.53,12.27,7.68,18.78.14.42.22.87.31,1.31s.15.89.27,1.61c.7-4.22,1.37-8.2,2.03-12.18l.28.02c.15,1.17.33,2.34.44,3.51.32,3.51.62,7.03.91,10.55.38,4.58.28,9.12-.87,13.35c1.91,8.63,3.6,17.11,4.64,25.77.7,5.86,1.27,11.75,1.9,17.62.27,2.47.38,5,.89,7.4.48,2.28,1.39,4.42,2.1,6.61c1.96-8.65,4-17.3,6.55-25.75.28-.91.18-2.11,0-3.1-.98-5.58-1.95-11.16-3.1-16.69-1.66-8.01-4.18-15.68-6.48-23.43-.37-1.25-.78-2.47-1.18-3.7.07-.04.14-.09.2-.13c1.05,2.51,2.15,4.99,3.13,7.54c1.01,2.63,1.95,5.3,2.83,7.99.86,2.66,1.65,5.36,2.38,8.08.75,2.76,1.45,5.54,2.07,8.34.61,2.76,1.09,5.56,1.72,8.33.29-3.62.53-7.24.89-10.85.5-4.9,1.07-9.79,1.65-14.68.32-2.76.74-5.5,1.04-8.26.06-.53-.16-1.17-.36-1.69-2.04-5.17-2.48-10.73-2.7-16.36-.18-4.69-.45-9.37-.68-14.06.7,1.48,1.43,3.01,2.16,4.56-.54-12.34-2.02-24.52-4.36-36.54c5.59,15.51,8.01,31.73,7.21,48.83.81-1.95,1.51-3.84,2.35-5.63.84-1.78,1.82-3.47,2.93-5.11-.06.92-.07,1.85-.18,2.75-.6,4.96-1.19,9.92-1.87,14.85-.29,2.08-.87,4.07-1.94,5.79-.92,1.49-.92,3.3-1.13,5.02-.53,4.36-1.02,8.73-1.48,13.1-.35,3.28-.64,6.57-.94,9.87-.16,1.71-.28,3.42-.41,5.12.08.03.16.06.24.08.34-.9.7-1.79,1.03-2.69c3.38-9.32,6.6-18.74,10.17-27.95c4.06-10.48,9.19-20.17,14.87-29.43c5.51-8.99,11.47-17.45,18.21-25.06c3.37-3.81,6.92-7.34,11.02-9.93.24-.16.5-.29.8-.33-1.6,2.08-3.21,4.15-4.8,6.23-3.13,4.08-6.41,8.01-9.34,12.3-3.6,5.27-6.92,10.85-10.35,16.3-3.85,6.09-7.03,12.73-10.36,19.24-2.77,5.43-5.01,11.19-7.15,17.03-3.23,8.78-6.12,17.73-8.78,26.81-2.5,8.53-4.71,17.15-6.39,25.98-.32,1.68-.63,3.37-.76,5.09-.1,1.29.05,2.61.14,3.91.32,4.79.67,9.59,1,14.38.18,2.67.34,5.35.61,8.02.31-2.47.56-4.96.93-7.42.84-5.51,1.6-11.04,2.63-16.49c1.67-8.83,3.87-17.48,6.48-25.96.16-.52.32-1.05.54-1.54.2-.46.48-.86.76-1.35-.48-5.3.49-10.48,1.69-15.57c1.18-4.98,2.58-9.88,3.89-14.81.06-.23.14-.45.31-.94.42,3.82.78,7.36.16,10.92c2.52-5.96,5.66-11.34,8.86-16.7c3.33-5.56,7.17-10.54,11.2-15.3c2.4-2.83,5.05-5.26,8-7.16.19-.12.41-.2.85-.42-1.33,1.8-2.47,3.39-3.65,4.94-4.23,5.51-8.18,11.3-11.83,17.42-3.16,5.29-6.23,10.67-8.75,16.45-1.97,4.53-3.54,9.33-5.28,14.02-.19.5-.34,1.03-.55,1.7c2.9-2.64,6.15-3.81,9.71-4.71-.86,1.42-1.58,2.69-2.36,3.91-1.73,2.72-3.39,5.51-5.27,8.06-.82,1.12-2.05,1.84-3.18,2.54-.69.43-1.18.93-1.43,1.8-.87,3.05-1.76,6.08-2.59,9.14-1.79,6.6-3.12,13.35-4.13,20.19-.61,4.11-1.24,8.23-1.66,12.38-.33,3.33-.36,6.7-.5,10.06-.04,1.13,0,2.26.04,3.41.87-6.09,1.67-12.2,2.62-18.27.96-6.1,2.1-12.15,3.71-18.04-1.14,8.9-3.11,17.61-3.71,26.62c2.07-12.11,4.7-24.03,7.65-35.85-2.12,13.42-5.09,26.63-6.67,40.18c2.76-14.73,5.07-29.61,10.3-43.45-.84,3.95-1.72,7.88-2.5,11.84-.78,4.01-1.45,8.05-2.05,12.11c1.44-4.99,2.79-10.02,4.33-14.95c1.56-4.99,3.32-9.88,5.15-14.73-2.14,8.6-4.42,17.15-6.39,25.81-1.97,8.7-3.7,17.5-4.22,26.58.25-1.28.51-2.56.75-3.85.24-1.3.48-2.59.68-3.9.94-6.1,2.38-12.01,4.24-17.78c2.35-7.26,5.93-13.64,9.28-20.19c2.26-4.43,4.63-8.79,6.95-13.17.2-.38.45-.72.8-.97-1.64,4.41-3.27,8.82-4.98,13.43c1.85-2.04,3.66-3.76,6.12-4.66-1.24,1.32-2.3,2.46-3.38,3.59-2.41,2.51-3.98,5.74-5.1,9.32-1.8,5.74-3.55,11.5-5.33,17.25-.19.61-.36,1.22-.54,1.83.07.04.14.09.2.14.36-.67.75-1.31,1.07-2.01c1.97-4.33,4.57-8.05,7.29-11.66.57-.76.89-1.85,1.23-2.84c1.74-5.09,3.4-10.23,5.2-15.29.64-1.82,1.58-3.47,2.54-5.11-2.85,6.59-4.47,13.75-6.43,20.85c2.54-3.39,5.78-5.42,8.97-7.5-1.53,2.53-1.9,5.57-2.64,8.5c1.63-3.07,3.9-5.08,6.82-6.46-.84.76-1.49,1.4-2.19,1.96-1.19.96-2.35,1.94-2.89,3.68-.02.06-.15.07-.3.19-1.44,2.05-1.81,4.48-2.12,6.93.48-1.34.9-2.72,1.3-4.1.26-.96.51-1.94.78-2.9l-.01-.05Zm-25.31,25.09c-.25,1.37-.5,2.74-.74,4.11.05.01.1.02.14.04.3-1.33.61-2.67,1.02-4.09.86-3.26,1.72-6.51,2.57-9.78.11-.42.15-.87.22-1.3-.09-.02-.17-.03-.25-.05-.37,1.34-.76,2.67-1.11,4.03-.59,2.32-1.16,4.64-1.85,7.05v-.01Zm-75.61-.32c.41.83.82,1.66,1.23,2.5.08-.05.16-.1.23-.15-.37-.99-.73-1.99-1.11-3.14-1.3-3.46-2.6-6.93-3.9-10.39-.07.04-.15.09-.23.13.1,4.23,1.9,7.59,3.77,11.06l.01-.01Zm-17.23-8.66c1.59,5.45,3.18,10.89,4.77,16.34.04-.61.01-1.2-.07-1.78-.37-2.62-.6-5.29-1.16-7.85-1.2-5.52-2.58-10.98-3.88-16.46.12-.04.24-.09.35-.14c1.31,5.12,2.62,10.23,3.99,15.59c0-.38.02-.53,0-.66-.92-4.51-1.81-9.02-2.8-13.51-.34-1.55-1.47-2.15-2.71-2.68.11,2.54.17,4.91.34,7.27.06.85.35,1.68.43,2.62.21,1.95.47,3.89.63,5.84.32,3.9.53,7.81.89,11.7.17,1.86.56,3.69.86,5.52h1.85c0-.22.02-.36,0-.5-.89-5.28-1.78-10.56-2.67-15.84-.31-1.84-.61-3.69-.81-5.47l-.01.01Zm54.99-9.89c-.05-.13-.11-.25-.14-.38-1.15-4.41-2.23-8.86-4.04-12.96-.57-1.29-1.09-2.62-1.73-4.16c1.52,1.28,2.38,2.9,3.19,4.55c2.77,5.63,4.62,11.75,6.16,18.02.63,2.54,1.1,5.14,1.59,7.44.15-1.84.33-3.93.48-6.03.23-3.45.35-6.93.68-10.37.28-2.82-.02-5.32-1.18-7.85-2.57-5.59-5.39-10.95-8.84-15.77-.91-1.27-1.92-2.44-2.84-3.62-.4,2.44-.91,4.77-1.12,7.13-.17,1.87-.01,3.8.1,5.69.16,2.67.39,5.33.63,8c.22,2.38.48,4.75.74,7.13.16,1.51.34,3.02.51,4.53.52-1.94.84-3.88,1.25-5.81.41-1.97.45-3.86-.34-5.73-.4-.95-.62-2.02-.94-3.03-.16-.5-.37-.97-.55-1.45.09-.07.18-.13.27-.2.39.65.83,1.25,1.16,1.94c2.46,5.14,3.81,10.81,4.98,16.54c1.06,5.21,1.68,10.53,1.92,15.9.16,3.5.24,7,.29,10.5.02,1.38-.1,2.77-.16,4.16.17-.07.22-.16.24-.25c1.12-5.25,1.76-10.5,1.04-15.98-.79-6.02-1.78-11.97-3.33-17.94h-.02Zm-3.62.12c-.08.41-.17.81-.23,1.23-.32,2.32-.9,4.65-.86,6.95.04,2.57.72,5.11,1.02,7.68.59,4.95,1.11,9.92,1.66,14.87.12,1.08.23,2.17.35,3.25.12,1.07.25,2.13.38,3.2.39-6.58.76-13.15.77-19.73.01-6.56-1.41-12.88-2.71-19.24-.12.53-.23,1.07-.38,1.78v.01Zm67.66,8.48c.78-3.83,1.55-7.66,2.34-11.57-.22.16-.44.25-.59.43-1.35,1.58-2.7,3.16-4.03,4.76-.21.26-.38.63-.46.99-.76,3.56-1.65,7.08-2.16,10.7-.27,1.93.11,4,.2,6c.02.35.05.7.07,1.05.36-1.35.61-2.69.9-4.03.3-1.38.63-2.76.98-4.12.33-1.28.71-2.55,1.06-3.83.02.02.05.03.08.05-1.17,6.32-2.35,12.64-3.52,18.96.29-.41.41-.87.52-1.34.61-2.58,1.2-5.18,1.85-7.75.87-3.4,1.8-6.78,2.77-10.32l-.01.02Zm-48.04,10.72c.57,3.11,1.14,6.23,1.76,9.59c1.54-10.22,1.16-20.22.74-30.42-1.14,5.32-2.25,10.45-3.34,15.58-.07.33-.13.7-.07,1.01.27,1.36.59,2.71.91,4.24Zm-63.37,4.22c-.14-1.94-.24-3.87-.42-5.8-.24-2.59-.52-5.18-.79-7.77-.15-1.48-.14-3.01-1.11-4.19-.66-.82-1.2-1.79-1.84-2.65-.36-.49-.81-.9-1.21-1.34.25,2.03.63,3.92.99,5.82.61,3.2,1.37,6.37,1.76,9.61.55,4.66,1.4,9.22,2.45,13.73.07.31.29.58.43.86.07-.05.14-.11.22-.16-.16-2.63-.32-5.27-.48-8.1v-.01Zm55.02,3.74c-.15,2.65-.17,5.29.36,7.98.29.09.57.17,1,.31-.16-4.11-.32-8.02-.48-11.93.04,0,.09-.02.14-.02.25,2.56.5,5.13.75,7.66.07-.3.16-.65.23-1.01.78-4.17,1.27-8.44,2.65-12.42.07-.22.11-.5.07-.72-.45-2.44-.91-4.87-1.41-7.51-1.76,5.79-2.79,11.56-3.3,17.68l-.01-.02Zm9.93-43.87c-.13.43-.28.84-.38,1.28-1.26,5.12-2.41,10.29-3.83,15.34-.6,2.13-.19,4.34-.79,6.41-.07.24,0,.56.06.83.22,1.05.45,2.1.69,3.18.04-.08.06-.11.07-.14c1.35-6.74,2.77-13.44,4.75-19.95.11-.36.07-.84,0-1.24-.47-2.51-.79-4.99.37-7.37.15-.31.16-.73.24-1.09-.06-.02-.11-.04-.17-.06-.31.89-.62,1.78-1,2.82l-.01-.01Zm-61.18,39.32c-.4-2.36-.76-4.74-1.22-7.09-.46-2.36-1.42-4.43-2.6-6.35-.07.02-.14.05-.22.08c1.04,7.41,2.09,14.82,3.14,22.32.59.13,1.04.22,1.7.36-.28-3.19-.55-6.16-.81-9.32h.01Zm97.1,3.27c.53-2.17,1.04-4.36,1.61-6.52.76-2.9,1.55-5.79,1.13-9.09-3.54,6.6-4.26,14.14-5.6,21.63.64-.12,1.14-.22,1.68-.32.38-1.88.75-3.71,1.18-5.7Zm-45.94-26.75c-.11.91-.22,1.81-.32,2.72-.32,2.97-.6,5.95-.98,8.91-.28,2.2-.21,4.33.35,6.48.87-3.91,1.66-7.8,2.64-11.6.56-2.17.67-4.17-.14-6.26-.48-1.24-.81-2.57-1.27-4.07-.1,1.38-.18,2.51-.28,3.82Zm54.93-9.56c.16-.55.33-1.09.5-1.65-4.52,2.44-5.9,7.43-6.79,12.04.76-.81,1.81-2.15,3.03-3.18c1.57-1.33,2.3-3.21,2.77-5.35.12-.58.28-1.14.5-1.85l-.01-.01Zm-99.13,19.74c-.49-1.14-1-2.26-1.46-3.42-1.4-3.57-3-6.95-5.32-9.73-.45-.54-.93-1.05-1.49-1.68.15,3.2.65,4.68,2.18,6.46-.16-.73-.29-1.37-.46-2.14.92,1.64,1.76,3.16,2.63,4.65c2.42,4.2,4.63,8.55,6.26,13.31.08.22.22.42.33.62.08-.05.16-.1.24-.15-.58-2.79-1.86-5.22-2.91-7.93v.01Zm-15.28-11.06c.75,2.23,1.63,4.37,3.12,6.35-.1-1.4-.15-2.52-.27-3.63-.13-1.15-.35-2.27-.5-3.42-.33-2.63-2.52-5.33-5.02-6.35.92,2.44,1.76,4.68,2.67,7.05Zm6.95,11.21c-.06-1.3-.07-2.61-.19-3.91-.12-1.29-.08-2.75-.58-3.8-.84-1.76-2.06-3.25-3.11-4.86.24,2.6.6,5.04.99,7.47.14.85.21,1.78.56,2.49.67,1.36,1.51,2.59,2.34,3.95c0-.44,0-.81,0-1.35l-.01.01Zm101.35,13.82c-.57,2.75-1.2,5.48-1.37,8.32.07.02.15.04.23.07l.67-2.86c0,0,.08.02.12.03-.12.91-.23,1.82-.35,2.76h.88c1.4-5.57,1.91-11.26,2-17.06-.71,2.86-1.42,5.72-2.18,8.74Zm1.44-22.5c-1.61,2.06-2.51,4.47-2.66,7.49c1.67-2.15,3.18-4.11,4.69-6.07.13-.17.22-.41.28-.64.43-1.83.84-3.67,1.33-5.82-1.28,1.79-2.41,3.36-3.63,5.03l-.01.01Zm-41.31,34.02c.16-5.97-.27-11.86-1.66-17.64-.22,1.25-.53,2.54-.41,3.77.39,3.97.93,7.92,1.41,11.88.12.99.22,1.98.32,2.97.05,0,.1,0,.15,0c.06-.27.12-.53.19-.98Zm31.63-26.84c-1.06,2.61-1.85,5.34-2.48,8.16c2.24-5.18,5.52-9.68,6.68-15.77-1.73,2.34-2.97,4.88-4.2,7.62v-.01Zm15.97,11.04c.1-.58.21-1.17.3-1.76.79-5.2,1.58-10.41,2.38-15.61.28-1.81.6-3.61.92-5.5-1.35,1.13-4.18,19.13-3.89,24.59.11-.68.18-1.12.29-1.72Zm-120.59-25.77v4.59c.84.53,1.61,1,2.29,1.42-.18-1.94-.22-4.01-.58-5.98-.35-1.9-1.05-3.7-1.59-5.54-.04.04-.07.07-.11.11c0,1.73,0,3.46,0,5.4h-.01Zm118.32,32.54c.6-3.79,1.21-7.57,1.81-11.36-.08-.02-.16-.04-.24-.06-1.76,5.54-2.92,11.26-3.45,17.32.4-.11.69-.2.89-.25.34-1.9.65-3.68.98-5.64l.01-.01Zm-2.75-17.67c.32-1.26.63-2.51.95-3.77-.09-.06-.18-.13-.27-.19-.99,1.65-2,3.28-2.95,4.97-.19.33-.25.87-.22,1.3.16,1.9.38,3.8.55,5.32.57-2.24,1.24-4.85,1.94-7.62v-.01Zm-2.87-11.81c.23-.66.45-1.32.76-2.23-2.95,3.16-3.76,7.38-4.9,11.38.74-.95,1.46-1.91,2.12-2.92.36-.55.73-1.13.92-1.78.41-1.41.71-2.86,1.09-4.45h.01Zm-4.89,22.81c.5-2.45.56-3.55.25-4.99-1.69,3.06-2.69,6.43-2.37,10.24.48-.07.89-1.07,2.12-5.25Zm-108.15-5.01c0,.56.02,1.13,0,1.7-.17,3.37.07,6.64,1.51,9.69-.41-5.66-.82-11.31-1.23-16.97h-.27c0,1.79,0,3.58,0,5.58h-.01Zm-.74,15.31v2.45c.71-.06,1.24-.11,1.99-.17-.6-3.38-1.17-6.6-1.73-9.82-.09.02-.17.03-.26.05c0,2.43,0,4.86,0,7.49Zm30.01-7.68c.05.19.11.37.16.56-.68-7.25-3.4-13.67-5.3-20.43.19,1.31.49,2.58.83,3.83c1.41,5.3,2.83,10.6,4.31,16.04Zm71.31-14.72c.27-1.13.54-2.26.81-3.39-.08-.03-.16-.07-.23-.1-.06.06-.14.11-.16.18-1.36,4.5-2.73,9-4.07,13.51-.08.28-.01.63-.01.94.09.02.17.04.26.06c1.11-3.68,2.22-7.37,3.41-11.2h-.01Zm-88.05-3.16c.38,2.11.94,4.13,1.85,5.98.09-2.88.13-5.73-2.03-7.78.07.58.12,1.1.18,1.79v.01Zm58.38,24.77v7.24c.44.14.87.28,1.36.44-.43-3.03-.83-5.85-1.23-8.68-.03,0-.06,0-.09,0-.01.27-.02.54-.04.99v.01Zm-52.57.61c.12.5.28,1,.36,1.51.14,1,.63,1.21,1.4,1.02-.72-2.39-1.42-4.74-2.12-7.08-.1.02-.2.05-.3.07.2,1.45.39,2.89.66,4.49v-.01Zm8.44-24.69c1.39,5.13,2.78,10.26,4.22,15.54.07-1.74-3.83-15.82-4.79-17.29.21.63.37,1.11.57,1.75Zm76.76,26.5c.64-3.22,1.28-6.43,1.93-9.65-1.26,3.31-2.06,6.78-2.63,10.33.11.1.22.2.33.3.12-.27.24-.54.37-.98Zm6.46-17.28c.68-1.76,1.02-3.83.78-5.09-.9,1.87-2.26,3.47-1.23,5.96.14-.29.26-.51.45-.87ZM1338.9,598.39c.34.27.69.53,1.16.89-.93-2.47-1.79-4.77-2.65-7.06-.02.79.02,1.54.2,2.23.34,1.3.22,2.84,1.28,3.94h.01Zm8.68,11.78c.08.47.17.94.26,1.47.23.04.44.07.69.11.43-2.21-.51-3.87-1.32-5.6.12,1.28.24,2.56.37,4.02Zm92.9,1.54c-1.37,2.83-1.6,3.56-1.37,4.31c1.64-3.12,2.24-4.73,1.98-5.53-.19.41-.36.76-.61,1.22Zm-84.34,11.98c.18.65.36,1.3.55,1.95.18.65.37,1.29.55,1.94.09-.04.17-.07.25-.11-.66-2.44-1.31-4.89-1.97-7.33-.1.04-.2.08-.31.12.29,1.1.57,2.2.92,3.44l.01-.01Zm-5.23-6.23c-.6,1.79.47,3.18.63,4.96.53-1.89.1-3.4-.63-4.96Zm-1.97-.89c.04.57.08,1.14.14,1.98.78-2.05.3-3.81.07-5.59-.07,1.14-.13,2.28-.2,3.61h-.01Zm1.02,5.63c-.08-.33-.17-.65-.25-.98-.08.02-.16.04-.23.07.26,1.67.53,3.34.79,5.01.08-.02.16-.04.25-.06-.19-1.29-.37-2.58-.56-4.05v.01Zm89.29-33.03c.45-1.07.89-2.13,1.33-3.2-.13-.08-.26-.16-.38-.23-.42,1.09-.84,2.18-1.25,3.27-.01.04.12.16.3.16Zm-81.92,29.59c-.3-1-.61-2-.91-2.99-.05,1.55.42,2.89,1.14,4.14-.07-.33-.14-.66-.23-1.15Zm87.46-13.57c.42-.99.84-1.98,1.26-2.97-.09-.06-.17-.12-.26-.18-.42.86-.86,1.71-1.25,2.59-.07.15.13.47.25.55v.01Zm-88.25-16.69c.24.78.48,1.56.72,2.33.07-.03.13-.06.2-.09-.55-1.8-1.1-3.6-1.64-5.41-.07.03-.14.06-.2.09.3.97.59,1.94.92,3.08Zm-5.15,26.34c-.19-.49-.38-.98-.58-1.47-.09.05-.17.11-.25.16.43,1.07.85,2.13,1.28,3.19.1-.06.19-.11.29-.17-.22-.53-.44-1.06-.74-1.71Zm82.41-14.6c-.12.42-.25.84-.37,1.26.08.03.16.07.23.1.38-1.15.77-2.3,1.15-3.45-.05-.03-.1-.06-.15-.09-.27.68-.54,1.35-.86,2.18Z" fill="#0c612d" stroke-width="0"/></g><g><g id="eOWxTYmMtRw70_to" transform="translate(862.429138,941.239288)"><g transform="translate(-862.429138,-941.239288)"><path d="M824.7,959.86c0,0-23.25-44.62,12.11-86.81c33.17-39.58,64.58-29.12,64.58-29.12L824.7,959.85v.01Z" fill="#3b5ea0" stroke-width="0"/><path d="M906.56,949.35c-39.05,26.8-91.09,43.38-91.09,43.38s10.46-85.41,47.86-129.63s101.34-23.42,101.34-23.42s8.09,40.11-29.32,84.34c-2.47,2.92-5.12,5.74-7.92,8.45l-20.88,16.88h.01Z" fill="#adcbec" stroke-width="0"/><g opacity="0.4"><path d="M964.68,839.69c0,0-40.58-13.21-76,3.78-2.76,8.87,1.63,36.75,14.55,48.27c13.74,12.25,31.04,17.7,46.85,11.44c20.29-35.23,14.6-63.5,14.6-63.5v.01Z" fill="#0060ac" stroke-width="0"/></g><g><path style="isolation:isolate" d="M922.82,913.42c-2.47,2.92-5.12,5.74-7.92,8.45l-20.88,16.88c-25.93,17.79-57.57,31.08-75.92,38-1.83,9.87-2.58,16.03-2.58,16.03s52.04-16.58,91.09-43.38l20.88-16.88c2.8-2.72,5.45-5.53,7.92-8.45c37.4-44.22,29.32-84.34,29.32-84.34s-4.53-1.47-11.88-2.8c.37,13.8-2.58,44.04-30.03,76.49Z" opacity="0.23" fill="#325692" stroke-width="0"/><path d="M967.63,842.19l-17.12,20.24c-1.38,1.63-3.82,1.83-5.45.46s-1.83-3.82-.46-5.45l17.12-20.24c1.38-1.63,3.82-1.83,5.45-.46s1.84,3.82.46,5.45Z" fill="#325692" stroke-width="0"/><path d="M905.79,893.91c0,0,35.68,30.14,16.46,68.71l-35.63-30.14c-3.96-3.35-4.52-9.26-1.26-13.29l20.43-25.28Z" fill="#35567a" stroke-width="0"/><circle r="5.46" transform="matrix(.645724-.763571 0.763571 0.645724 922.001751 864.284358)" fill="#22629b" stroke-width="0"/></g><path d="M818.8,988.8c0,0-12.31-10.06-23.47-7.54s-34.14,19.86-34.14,19.86s29.5,6.85,40.66,4.34c.01,0,.03,0,.04-.01c1.78-.41,3.41.97,3.3,2.79c0,.02,0,.03,0,.05-.63,11.43,11.02,39.38,11.02,39.38s13.29-25.54,13.92-36.96-11.33-21.89-11.33-21.89v0c0,0,0,0,0,0v-.02Z" fill="#5aa0d8" stroke-width="0"/><g opacity="0.23"><path d="M815.49,986.47c3.49,3.89,8.92,11.23,8.49,19.02-.46,8.38-7.74,24.36-11.58,32.28c2.09,5.74,3.81,9.89,3.81,9.89s13.29-25.54,13.92-36.96c.63-11.43-11.33-21.89-11.33-21.89v0c0,0,0,0,0,0s-1.25-1.02-3.31-2.33v-.01Z" fill="#325692" stroke-width="0"/></g><path d="M967.31,838.38c-.1-.29-.24-.57-.42-.83-.02-.03-.04-.06-.06-.09-.07-.1-.14-.19-.22-.29-.03-.03-.06-.07-.09-.1-.08-.09-.17-.18-.27-.26-.02-.02-.04-.04-.07-.06c0,0-.01-.01-.02-.02-.11-.1-.23-.18-.35-.26-.03-.02-.06-.04-.09-.05-.11-.07-.22-.13-.33-.18-.04-.02-.07-.04-.11-.05-.13-.06-.26-.11-.39-.16-.01,0-.02,0-.03-.01c0,0-.02,0-.03,0s-.02,0-.03-.01c-1.18-.38-17.14-5.37-37.84-5.05-9.81.15-19.03,1.5-27.57,3.99-2.83-.7-10.36-2.06-20.59-.07-11.48,2.23-28.85,9.3-46.58,30.27-.13.15-.25.3-.38.45-19.11,22.8-21.54,46.32-20.2,62.03c1.28,15.16,6.13,25.98,7.35,28.49-2.28,11.1-3.62,20.25-4.34,25.96-5.19-2.98-13.28-6.36-21.18-4.58-11.84,2.67-34.65,19.82-35.62,20.54-1.2.91-1.76,2.42-1.45,3.89s1.45,2.62,2.91,2.96c2.99.69,28.64,6.51,40.99,4.6.17,12.49,10.16,36.83,11.34,39.66.58,1.39,1.91,2.31,3.41,2.38c1.21.05,2.36-.47,3.12-1.37.18-.22.34-.45.48-.71.56-1.07,13.68-26.42,14.35-38.53.45-8.15-4.2-15.52-8-20.13c14.11-4.23,49.49-16.07,80.3-36.58l13.45,11.37c.91.77,2.12,1.07,3.28.83.86-.18,1.62-.64,2.17-1.29.2-.23.37-.49.51-.77c4.92-9.88,6.84-20.15,5.78-30.44c2.43-2.43,4.73-4.9,6.83-7.39c6.41-7.58,11.49-15.04,15.52-22.16.16-.22.29-.46.4-.71c8.21-14.71,11.96-27.94,13.62-37.73c2.74-16.08.7-26.56.61-27c0-.02-.01-.05-.02-.07-.03-.12-.06-.25-.1-.37-.01-.04-.02-.08-.04-.11v.01ZM818.62,925.87c1.03-18.39,8.65-36.17,22.65-52.84.12-.14.23-.28.35-.42c12.75-15.08,26.23-25.38,39.02-29.81.63-.22,1.24-.41,1.83-.6-7.9,5.28-15.11,11.73-21.5,19.28-15.9,18.8-29.9,44.76-41.62,77.16-.07.2-.14.39-.21.59-.5-3.59-.81-8.12-.51-13.37l-.01.01Zm7.65,84.61c-.35,6.37-5.51,18.72-9.65,27.57-3.55-9.61-7.91-23.12-7.56-29.56c0-.01,0-.02,0-.04.12-2.09-.72-4.06-2.31-5.41s-3.67-1.85-5.75-1.37c-6.28,1.41-20.33-.64-30.41-2.56c8.04-5.55,19.36-12.69,25.59-14.09c8.82-1.99,19.26,6.04,20.12,6.72.81.74,10.47,9.7,9.97,18.73v.01Zm94.54-54.14L881.98,923.5c-1.63-1.38-4.07-1.18-5.45.46s-1.18,4.07.46,5.45L900.15,949c-29.57,19.19-63.77,30.56-76.85,34.5c2.41-19.06,12.43-81.76,42.99-117.89c5.38-6.36,11.57-11.6,18.53-15.72-1.66,15.03,1.78,32.86,15.92,44.82.71.6,1.43,1.18,2.14,1.75.13.15.26.29.42.42.08.07,8.42,7.19,14.51,18.74c3.02,5.72,4.93,11.44,5.78,17.14.02.22.05.44.1.65c1.03,7.71.07,15.37-2.88,22.94v-.01Zm8.9-31.75c-1.18-4.22-2.87-8.43-5.06-12.59-.91-1.72-1.86-3.34-2.82-4.88c6.81,2.28,13.56,2.87,20.15,1.75-2.79,4.16-5.96,8.39-9.57,12.66-.86,1.02-1.77,2.04-2.7,3.06Zm18.21-25.46c-13.29,5.58-27.47,2.11-42.18-10.34-13.45-11.38-15.27-29.44-12.41-43.22c2.46-1.05,5-1.99,7.63-2.81.37-.05.73-.16,1.07-.32c7.91-2.33,16.53-3.6,25.84-3.76c12.66-.23,23.61,1.73,29.91,3.18l-13.17,15.57c-1.38,1.63-1.18,4.07.46,5.45s4.07,1.18,5.45-.46l11.02-13.03c.02,10.32-2.01,28.6-13.62,49.74Z" fill="#232932" stroke-width="0"/><path d="M914.89,858.35c-3.32,3.93-2.83,9.82,1.1,13.14s9.82,2.83,13.14-1.1s2.83-9.82-1.1-13.14-9.82-2.83-13.14,1.1Zm8.34,7.05c-.57.67-1.57.75-2.24.19s-.75-1.57-.19-2.24s1.57-.75,2.24-.19.75,1.57.19,2.24Z" fill="#20252e" stroke-width="0"/></g></g><path d="M764.95,909.67c-5.56,6.5-40.08,48.06-28.35,91.8c14.71,54.85,91.26,72.61,140.4,67.5c86.08-8.95,144.15-94.71,135-109.35-5.21-8.34-40.86-7.46-63.75,2.7-4.37,1.94-14.31,6.9-26.71,5.19-8.89-1.23-15.01-5.32-17.44-6.86-24.52-15.53-52.54-11.26-93.24-26.67-11.07-4.19-27.33-11.45-45.9-24.3l-.01-.01Z" fill="#6fb9d0" stroke-width="0"/><path id="eOWxTYmMtRw86" d="M872.5,1010.79c-29.38,2.75-60.56-6.22-82.49-26.31c3.21,1.84,6.37,3.68,9.62,5.36c11.21,5.94,23.05,10.68,35.27,14.09c12.32,3.39,24.87,5.37,37.61,6.86v0h-.01Z" opacity="0" fill="#3686a8" stroke-width="0"/><path id="eOWxTYmMtRw87" d="M851.6,981.93c-19.57-.59-39.41-10.29-50.65-26.53c7.71,5.87,15.52,11.19,24.08,15.57c8.53,4.45,17.46,7.68,26.57,10.97v0-.01Z" opacity="0" fill="#3686a8" stroke-width="0"/><path id="eOWxTYmMtRw88" d="M884.99,1034.86c-29.81,5.84-61.84,1.54-88.66-12.89-3.8-2.1-7.51-4.36-11.01-6.91c6.85,3.17,13.76,6.02,20.85,8.53c25.25,9.02,52.1,11.77,78.82,11.27v0Z" opacity="0" fill="#3686a8" stroke-width="0"/></g><g><path d="M1265.62,531.55c5.05,23.95,10.88,35.48,15.44,41.57.87,1.16,3.17,4.11,5.15,8.64.69,1.58,3.59,8.54,3.29,20.79c0,0-.37,14.79-6.17,33.13-.27.86-1.03,3.18-1.44,6.38-.55,4.24-.18,7.54,0,9.06c1.05,8.86,1.57,13.29,3.7,26.96c1.18,7.56,1.77,11.34,2.06,15.23.18,2.43.93,13.61-1.23,28.61-1.13,7.8-2.46,12.61-3.5,23.87-.78,8.46-.43,10.06.41,11.52c5.32,9.33,26.58,7.07,29.22,6.79c0,0,23.16-2.46,29.02-.62.35.11,1.39.44,1.65,1.23.25.79-.31,1.86-.82,2.47c0,0-.17.23-.37.37-.65.48-2.71.62-2.71.62-3.73.01-5.64.07-10.73.27-5.37.21-13.13.32-12.34.39c2.58.23,20.82-1.38,27.78.21c2.25.51,4.13,1.66,7.61,3.5c2.38,1.26,3.03,1.77,3.09,2.47.14,1.81-3.79,3.72-6.17,4.32-1.29.32-3.33.56-4.12.62-.73.05-1.47.06-1.47.06-.12,0-.42,0-.79,0-1.02,0-1.83-.08-2.05-.09-2.76-.22-10.3-.67-10.31-.59c0,.11,12.21.86,12.35,2.88.05.79-1.8,1.17-1.85,2.47-.06,1.65,2.89,2.51,2.68,3.7-.18.97-2.27,1.33-2.88,1.44-3.22.57-5.91-.51-6.17-.62-7.66-3.06-15.62-5.31-23.26-8.44-11.14-4.56-16.71-6.85-21.81-6.79-2.1.02-5.77.28-10.91-.62-4.61-.8-7.35-1.28-9.67-3.5-4.73-4.51-3.45-12.14-3.29-12.97.85-4.64,3.29-6.39,5.56-10.08c2.96-4.84,3.29-9.21,3.29-24.08c0-17.7,0-26.55-.41-28.81-3.64-19.6-13.99-31.61-16.26-34.16-4.79-5.37-11.55-12.95-21.4-13.38-4.92-.21-8.93,1.43-10.91,2.26-6.77,2.85-10.52,7.46-15.23,13.38-6.93,8.72-10.39,16.75-11.52,19.55-4.07,10.02-5.03,18.33-5.56,23.26-.3,2.79-1.08,11.2.21,22.02c1.14,9.6,1.71,14.4,4.12,18.93c1.18,2.23,4.05,6.98,5.56,13.38.33,1.39.71,3.37.21,5.76-.15.73-.92,4.35-3.91,6.59-2.46,1.84-5.28,1.77-10.91,1.65-4.83-.11-5.46-.76-8.64-.41-3.81.42-6.52,1.75-8.03,2.47-10.29,4.9-10.78,3.03-23.87,9.06-3.64,1.68-10.94,5.2-18.93,5.76-1.53.11-3.68.15-4.12-.82-.6-1.34,1.83-4.88,4.04-6.41c5.34-3.68,11.63-2.84,11.6-3.06-.03-.18-4.06.03-10.29.82-3.96.51-4.72.73-6.38.41-2.52-.49-2.69-1.38-6.79-2.68-2.55-.8-3.63-.82-3.91-1.65-.53-1.54,2.47-3.8,2.88-4.12c2.26-1.71,4.64-2.19,7.2-2.68c1.9-.36,2.48-.56,4.37-.67c2.97-.17,6.77.08,7.76.3c2.91.63,12.22.91,12.36.99.67.39-18.88-1.53-22.43-3.29-.44-.22-1.25-1.69-.82-2.68.71-1.65,4.74-1.27,8.85-1.03c5.62.33,11.25.04,16.88.21c7.9.23,12.76.11,15.64,0c4.81-.18,10.33-.56,15.64-3.5c1.7-.94,3.24-2.07,4.12-3.91c1.3-2.74.23-5.55,0-7.2-.72-5.09-.84-5.94-2.26-19.76-1.33-12.83-2.23-10.63-2.68-15.02-.68-6.71-.37-11.69.21-20.99.18-2.85.57-8.49,1.44-15.85c1.2-10.1,2-12.55,3.09-22.84c1.01-9.61.82-12.36.62-14.2-.71-6.35-2.5-9.53-4.12-14.41-4.08-12.27-3.11-23.27-2.68-28.19.36-4.11,1.34-14.19,6.79-25.31c3.69-7.52,5.55-7.62,9.26-15.85c3.55-7.88,4.88-14.52,5.97-20.17s2.1-13.21,2.06-22.23c20.99,5.76,41.98,11.52,62.97,17.29l-.03.02Z" fill="#00a073" stroke="#447564" stroke-width="2" stroke-miterlimit="10"/><path d="M1218.91,536.28c.12,5.2-.39,7.65-.62,8.64-1.34,5.8-4.31,9.62-5.56,11.32-6.9,9.36-10.61,20.34-11.73,23.67-1.99,5.89-5.91,17.51-2.88,31.28c1.21,5.49,2.81,12.78,9.06,18.11c5.46,4.66,11.44,5.23,21.4,6.17c11.57,1.1,19.31,1.84,26.96-2.88c8.32-5.13,11.44-13.57,12.97-17.7c4.48-12.14,2.02-23.03.62-29.22-.84-3.72-3.98-17.61-13.38-29.84-1.73-2.25-4.11-5.02-5.76-9.67-2.25-6.34-1.79-12.34-1.03-16.46-10.77-3.36-21.54-6.72-32.31-10.08c1.71,6.91,2.17,12.65,2.26,16.67v-.01Z" fill="#84b772" stroke-width="0"/><path d="M1228.78,546.78c-2.77,1.47-6.79,4.02-10.5,8.23-5.07,5.77-6.95,12.36-10.5,25.31-3.15,11.5-2.96,15.21-2.68,17.49.38,3.08,1.08,8.82,5.56,13.38c4.3,4.38,9.65,5.2,13.38,5.76c2.45.37,17.45,2.65,26.96-7.41c4.69-4.96,5.95-10.71,7-15.44.67-3.06,2.06-9.69,0-17.7-1.55-6.04-4.24-9.68-9.26-16.46-6.08-8.22-9.98-10.26-11.32-10.91-3.37-1.62-6.52-2.11-8.64-2.26v.01Z" fill="#b4c670" stroke-width="0"/><path d="M1276.18,536.29c8.02,7.87,16.5,17.04,25,27.63c6.37,7.93,11.95,15.66,16.82,23c.18,1.19.32,2.94-.05,4.98-.89,4.89-4.08,8.04-6.43,10.3-7.27,6.98-10.91,10.47-14.2,13.12-12.45,10.02-18.67,15.03-22.54,16.52-.96.37-3.19,1.12-4.78,3.24-1.74,2.3-1.01,3.93-2.32,4.94-2.47,1.91-6.26-2.98-11.11-2.01-.47.29-1.22.78-2.08,1.46-5.72,4.47-7.17,9.76-8.77,9.35-.95-.25-1.2-2.34-1.27-3.01-.08-.7-.09-1.82.81-4.09.53-1.34,1.47-3.28,3.13-5.4-1.13,1.17-2.8,2.99-4.63,5.36-4.14,5.36-5.78,9.2-7.25,8.84-.93-.23-1.26-2.02-1.47-3.13-.37-2.01.15-3.61.58-4.94.28-.86.89-2.47,2.17-4.14.78-1.02,1.54-1.7,3.06-3.06c1.05-.94,1.97-1.68,2.6-2.18-1.08.57-2.7,1.5-4.48,2.89-3.46,2.71-4.91,5.1-6.02,4.67-.91-.35-.92-2.36-.93-3.24-.02-3.96,2.19-6.92,3.4-8.49c1.24-1.62,3.16-4.12,6.68-5.71.5-.23,7.24-3.16,12.85-.23c2.12,1.11,3.24,2.62,6.25,3.16c0,0,2.1.38,4.01,0c5.33-1.06,8.3-10.4,9.57-13.74c2.35-6.18,7.47-14.46,19.91-22.84-3.91-2.92-9.87-7.65-16.52-14.2-7.24-7.14-10.06-11.28-17.44-19.14-4.11-4.38-10.34-10.66-18.68-17.75c10.44-2.47,20.89-4.94,31.33-7.41.93,1.75,1.85,3.5,2.78,5.25h.02Z" fill="#00a073" stroke="#457664" stroke-width="2" stroke-miterlimit="10"/><path d="M1190.72,524.01c-9.75,5.58-20.29,12.29-31.21,20.37-8.18,6.05-15.54,12.11-22.12,17.97-.48,1.1-1.06,2.77-1.22,4.83-.38,4.96,1.9,8.81,3.6,11.59c5.26,8.6,7.89,12.9,10.4,16.3c9.49,12.86,14.24,19.28,17.6,21.7.84.6,2.8,1.9,3.8,4.35c1.09,2.67-.02,4.05.98,5.37c1.9,2.48,6.81-1.29,11.26.88.38.4.98,1.07,1.64,1.94c4.39,5.78,4.45,11.26,6.1,11.27.99,0,1.75-1.96,2-2.59.26-.66.55-1.74.26-4.16-.18-1.43-.59-3.55-1.65-6.02.79,1.42,1.94,3.6,3.12,6.36c2.64,6.23,3.26,10.37,4.77,10.39.96.01,1.73-1.63,2.21-2.65.87-1.85.78-3.53.7-4.92-.05-.9-.24-2.61-1.04-4.55-.49-1.19-1.06-2.04-2.18-3.74-.78-1.18-1.47-2.12-1.97-2.77.9.83,2.23,2.14,3.59,3.94c2.66,3.5,3.45,6.18,4.64,6.05.97-.11,1.49-2.05,1.72-2.9c1.02-3.82-.36-7.25-1.13-9.07-.79-1.88-2.01-4.79-5.01-7.22-.43-.35-6.2-4.9-12.37-3.49-2.33.53-3.8,1.71-6.85,1.47c0,0-2.12-.16-3.88-1.02-4.88-2.38-5.38-12.16-5.76-15.72-.7-6.57-3.55-15.88-13.45-27.15c4.52-1.83,11.49-4.89,19.58-9.54c8.81-5.06,12.6-8.35,21.73-14.08c5.09-3.19,12.71-7.68,22.57-12.42-9.47-5.04-18.95-10.09-28.42-15.13-1.34,1.46-2.68,2.91-4.02,4.37l.01-.01Z" fill="#00a073" stroke="#457664" stroke-width="2" stroke-miterlimit="10"/><g><path d="M1244.57,440.43c-2.12-.59-3.43-1.47-4.61-2.17-5.59-3.31-11.1-4.41-13.39-4.86-3.31-.66-5.74-1.11-8.83-.33-.65.16-3.24.86-5.91,2.92-2.26,1.73-3.48,3.59-4.2,4.65-1.46,2.15-5.88,8.71-10.55,13.13-1.99,1.89-5.02,4.76-9.79,6.73-3.92,1.62-6.22,1.48-11.36,4.03-2.41,1.2-3.88,1.94-5.5,3.47-3.51,3.31-4.57,7.33-5,9.03-1.25,4.95-.29,9,.19,10.94c1.43,5.75,4.54,9.46,6.83,12.12c2.54,2.97,3.25,2.93,11.25,9.62c5.05,4.23,4.83,4.3,10.71,9.25c5.59,4.7,8.38,7.05,10.78,8.77c3.84,2.73,9.24,6.57,17.16,9.37c8.02,2.83,14.9,3.28,18.45,3.35c9.48.17,16.47-2.05,22.35-3.92c6.13-1.95,15.65-5.73,21.11-9.19.62-.39,2.52-1.62,5.31-2.81c3.22-1.37,5.66-1.85,6.83-2.14c8.29-2.05,14.16-9.78,14.88-10.76c1.74-2.35,4.83-6.64,5.12-12.81.08-1.78.23-6.05-2.24-10.11-1.43-2.35-2.75-3-7.8-6.94-5.09-3.98-7.64-5.96-9.17-7.64-2.78-3.03-4.42-6.85-7.71-14.48-3.54-8.2-3.47-9.89-6.2-13.02-1.01-1.16-3.86-4.36-8.6-6.17-6.42-2.46-13.17-1.18-16.25-.6-1.59.3-4.12.89-7.81,1.06-2.89.13-4.56-.09-6.04-.51l-.01.02Z" fill="#00a073" stroke="#447564" stroke-width="2" stroke-miterlimit="10"/><ellipse rx="16" ry="17.15" transform="matrix(.984959-.172789 0.172789 0.984959 1218.517622 460.55793)" fill="#fff" stroke-width="0"/><ellipse rx="8.18" ry="8.76" transform="matrix(.984959-.172789 0.172789 0.984959 1219.640081 466.977842)" fill="#1c3e1e" stroke-width="0"/><ellipse rx="15.63" ry="16.75" transform="matrix(.984959-.172789 0.172789 0.984959 1268.522285 469.277322)" fill="#fff" stroke-width="0"/><ellipse rx="8.18" ry="8.76" transform="matrix(.984959-.172789 0.172789 0.984959 1268.048442 475.120693)" fill="#1c3e1e" stroke-width="0"/><circle r="3.24" transform="translate(1226.42 492.89)" fill="none" stroke="#008d36" stroke-width="3" stroke-miterlimit="10"/><circle r="3.24" transform="translate(1253.39 496.85)" fill="none" stroke="#008d36" stroke-width="3" stroke-miterlimit="10"/><g><path d="M1196.05,495.67c9.89,4.47,23.28,9.34,39.63,12.12c20.92,3.56,38.76,2.35,51.11.51-3.03,4.25-10.35,13.28-23.24,18.72-4.02,1.7-14.5,5.97-28.01,3.77-11.76-1.91-19.46-7.68-23.63-10.89-4.1-3.15-9.6-7.48-13.16-15.25-1.61-3.53-2.35-6.72-2.71-9l.01.02Z" fill="#f7bfd9" stroke="#1c3e1e" stroke-miterlimit="10"/><path d="M1205.38,514.31c3.37,3.71,11.38,11.49,24.23,15.11c18.35,5.18,33.5-1.79,37.38-3.71-1.31-1.83-4.34-5.55-9.62-7.99-1.71-.79-6.85-2.93-13.46-2.03-2.68.37-4.82,1.12-6.25,1.74-1.53-1.87-3.12-3.17-4.57-4.1-11.09-7.11-25.78.02-27.71.99v-.01Z" fill="#f195bf" stroke="#1c3e1e" stroke-miterlimit="10"/></g></g><path d="M1093.46,774.19c-6.16,4.47-44.31,32.87-27.54,56.19c21.03,29.24,112.87,28.9,170.74,19.27c99.31-16.53,166.45-71.7,152.71-80.77-8.64-5.7-43.61,10.5-124.63,15.17-10.81.62-58.03,3.09-115.31-2.28-23.28-2.18-42.17-5.09-55.97-7.57v-.01Z" fill="#6fb9d0" stroke-width="0"/><path id="eOWxTYmMtRw107" d="M1164.34,789.51c-22.04,5.3-46.98,1.07-65.06-12.92c2.65,1.03,5.24,2.1,7.88,3.04c7.78,2.87,15.83,5.15,23.96,6.7c10.96,2.15,22,2.76,33.22,3.18v0Z" opacity="0" fill="#3686a8" stroke-width="0"/><path id="eOWxTYmMtRw108" d="M1155.77,805.5c-27.73,5.92-58.53.7-81.58-16.21c3.27,1.39,6.49,2.8,9.77,4.04c22.87,9.15,47.27,12.24,71.81,12.16v0v.01Z" opacity="0" fill="#3686a8" stroke-width="0"/><path id="eOWxTYmMtRw109" d="M1360.83,777.5c-16.63,11.52-38.2,16.39-58.05,11.9-2.81-.68-5.59-1.5-8.25-2.62c2.87.26,5.7.55,8.53.68c19.84,1.34,39.18-3.27,57.77-9.96v0Z" opacity="0" fill="#3686a8" stroke-width="0"/><path id="eOWxTYmMtRw110" d="M1339.89,800.74c-26.29,10.61-57.53,10.8-83.16-1.88c3.46.8,6.88,1.63,10.32,2.29c24.1,5.06,48.68,3.89,72.83-.42v0l.01.01Z" opacity="0" fill="#3686a8" stroke-width="0"/></g><g><g><path d="M588.97,688.1c0,0,94.28-21.87,96.81-24.14c2.47-2.22,50.32-37.02,83.08-18.46c32.6,18.5,25.82,54.47,17.8,65.9-8,11.42-14.46,14.35-14.92,15.86s2.27,5.98,3.93,9.14c1.87,3.6,5.98,9.68,4.61,15.1s-8.6,9.64-14.05,11.13c-5.45,1.51-15.57,3-20.14-.13-3.4-2.32-4.34-8.14-4.48-10.97-.16-3.17-.52-7.55-.52-7.55s-10.47,3.11-18.46,5.12c-8.83,2.22-23.53,5.55-23.53,5.55s.93,7.36,1.29,9.43s1.75,12.02.37,14.41c-1.37,2.37-3.53,6.26-14.46,8.25-13.99,2.55-20.96-2.21-23.48-5.35-2.78-3.46-2.54-9.38-2.89-13.44s.08-14.32.08-14.32-12.21-3.77-16.73-5.11-14.33-5.26-14.33-5.26.03,4.74.02,6.17c-.01,1.98-2.58,5.69-13.32,7.71-13.5,2.54-20.41-5.81-22.06-9.01s-.74-12.39-.61-16.16s1.06-13.64.13-15.89c-.93-2.26-12.22-12.53-17.19-17.62-5.45-5.56-9.23-11.15-8.18-13.54c1.78-4.08,9.18-1.08,11.2-.36s10.01,3.52,10.01,3.52v0l.02.02Z" fill="#bdcf49" stroke="#626e26" stroke-width="2" stroke-miterlimit="10"/><path d="M628.69,619.45c-26.33,12.68-41.06,45.82-42.56,63.24-1.5,17.43,4.12,29.59,24.52,43.44c20.39,13.86,57.19,9.54,72.08,2.64c13.14-6.1,12.27-23.15,14.49-41.63c2.97-24.47,12.75-31.69,21.13-38.24c7.27-5.69,16.11-7.51,16.11-7.51s-3.91-5.49-11.1-12.8c-12.04-12.25-33.59-21.62-59.53-18.25-11.79,1.53-23.77,3.63-35.13,9.11h-.01Z" fill="#6e833b" stroke-width="0"/><path d="M587.83,673.27c-.46,1.97-1.35,6.85-1.35,6.85s1.91,6.54,9.91,18.06c5.98,8.59,24.99,27,56.45,24.43c31.46-2.56,41.13-9.02,41.13-9.02s.9-4.44,1.15-6.03c.17-1.1.56-5.18.56-5.18s-6.85,3.98-11.28,5.33c-5.23,1.58-14.48,3.89-15.97,2.27-1.5-1.6-.57-26.19-.21-35.66.33-8.65.45-18.84,1.97-21.66c1.46-2.73,10.14-5.93,18.68-9.31c6.02-2.39,14.12-6.72,17.34-6.26c3.77.54,11.5,12.33,11.5,12.33s1.93-1.46,4.02-2.92c2.01-1.38,3.77-1.86,3.77-1.86s-5.02-6.59-6.65-8.07c-2.7-2.48-5.91-5.02-5.97-7.3-.04-1.63,3.48-6.67,3.48-6.67s-2.55-2.16-4.4-3.15c-1.87-1.01-3.71-1.84-3.71-1.84s-2.06,5.54-4.45,7.98c-2.05,2.09-11.75,6.77-18.29,9.25-5.2,1.98-18.95,7.55-21.54,7.53-2.96-.02-11.33-2.57-19.78-4.17-7-1.33-16.02-3.15-17.67-4.41-1.87-1.42-4.88-10.23-4.88-10.23s-2.19,1.41-3.66,2.6c-1.88,1.55-3.91,3.24-3.91,3.24s3.64,6.2,3.85,8.18c.44,4.02-8.31,18.11-10.66,23.32-3.09,6.85-9.9,19.38-11.43,21.49-.86,1.18-3.84-5.27-4.93-8.43-.68-1.94-1.48-5.7-1.48-5.7s-1.14,3.08-1.59,5.04v0-.03Zm35.34,35.51c-8.97-3.65-19.76-13.15-20.19-16.58-.46-3.41,5.24-14.46,10.36-25.02s9.95-22.68,13.03-23.6c2.17-.65,10.33,1.35,16.07,2.88c6.04,1.63,14.18,3.61,15.86,5.6c2.5,2.93,1.14,13.99,1.02,21.14-.2,11.16-.32,36.12-2.96,38.2-3.32,2.6-24.49.94-33.19-2.62v0Z" fill="#4a4f23" stroke-width="0"/><path d="M732.04,667.45c4.84,0,8.73,4.39,8.73,9.79s-3.18,9.36-7.98,9.78c-5.85.51-9.48-4.41-9.47-9.81c0-5.41,3.92-9.78,8.73-9.76h-.01Z" fill="#2b2c29" stroke-width="0"/><path d="M763.18,661c4.65-1.29,9.58,1.81,11.03,6.93c1.43,5.12-.54,9.75-5.06,11.46-5.5,2.07-11.03-2.39-11.82-7.66-.83-5.49,1.2-9.43,5.85-10.72v-.01Z" fill="#2b2c29" stroke-width="0"/><path d="M773.18,693.84c-1.56,1.92-4.33,4.83-8.55,7.19-2.38,1.33-8.46,4.63-16.51,3.65-5.37-.65-9.36-2.94-11.63-4.54c5.92.18,10.71-.32,14.05-.82c3.55-.53,6.29-1.2,10.91-2.32c4.89-1.19,8.91-2.32,11.72-3.15l.01-.01Z" fill="#cc5298" stroke-width="0"/><ellipse rx="3.78" ry="4.46" transform="matrix(.984959-.172789 0.172789 0.984959 765.764461 673.193701)" fill="#fff" stroke-width="0"/><ellipse rx="3.78" ry="4.46" transform="matrix(.984959-.172789 0.172789 0.984959 733.193765 679.910512)" fill="#fff" stroke-width="0"/></g><path id="eOWxTYmMtRw121" d="M644.2,800.65c-29.38,2.75-60.56-6.22-82.49-26.31c3.21,1.84,6.37,3.68,9.62,5.36c11.21,5.94,23.05,10.68,35.27,14.09c12.32,3.39,24.87,5.37,37.61,6.86v0h-.01Z" opacity="0.01" fill="#3686a8" stroke-width="0"/><path id="eOWxTYmMtRw122" d="M816.37,775.76c-23.06,18.4-54.06,28-83.42,23.23c3.69-.22,7.35-.42,10.98-.79c12.63-1.18,25.13-3.71,37.22-7.55c12.16-3.92,23.74-9.15,35.21-14.88v0l.01-.01Z" opacity="0" fill="#3686a8" stroke-width="0"/><path id="eOWxTYmMtRw123" d="M727.72,827.69c-26.42,13.15-58.73,16.02-86.43,5.19c3.65.56,7.27,1.13,10.9,1.53c12.6,1.5,25.35,1.66,37.98.43c12.72-1.28,25.13-3.96,37.55-7.16v0v.01Z" opacity="0" fill="#3686a8" stroke-width="0"/></g><g id="eOWxTYmMtRw124_to" transform="translate(539.096085,225.375)"><g id="eOWxTYmMtRw124_tr" transform="rotate(-13.100982)"><g transform="translate(-539.096085,-225.375)"><g><path d="M555.36,233.41c-1.59-.33-2.87-1.34-3.59-2.67v0c-.58-1.07-.8-2.34-.53-3.62s.97-2.36,1.93-3.11c1.19-.93,2.76-1.35,4.36-1.02c2.88.6,4.72,3.41,4.13,6.29-.6,2.88-3.41,4.72-6.29,4.13h-.01Z" fill="#8fb849" stroke-width="0"/><path d="M542.73,225.71c-.12.58-.42,1.89-.96,3.66-1.18,3.83-3.51,9.84-7.72,15.46-3.42,4.57-7.45,8.01-10.63,10.33-1.97,1.43-4.6-.54-3.78-2.83c1.33-3.71,3.51-8.53,6.93-13.1c3.62-4.83,7.91-8.41,11.17-10.72c2.95-2.09,5.05-3.14,5.05-3.14s-.02.1-.06.29v.04.01Z" fill="#fff3e6" stroke-width="0"/><path d="M533.17,219.51l-1.54,7.42c-2.74-.78-5.36-1.62-7.79-2.45l1.2-5.81c2.56.2,5.29.47,8.12.85l.01-.01Z" fill="#8fb849" stroke-width="0"/><g><path d="M553.16,224.02c-.96.75-1.66,1.83-1.93,3.11s-.05,2.55.53,3.62c-1.88-.14-3.78-.35-5.67-.63-1.83-2.99-3.3-4.74-3.3-4.74s2.04-1.02,4.91-3.04c1.85.5,3.68,1.05,5.46,1.68Z" fill="#b5d16f" stroke-width="0"/><path d="M525.05,218.66l-1.2,5.81c-4.5-1.55-8.35-3.09-11.1-4.25-1.08-.46-.75-2.08.43-2.07c2.99.02,7.13.14,11.88.51h-.01Z" fill="#b5d16f" stroke-width="0"/></g><path d="M542.73,225.71c-.12.58-.37,1.9-.57,3.74-.13-.02-.26-.05-.39-.08.55-1.77.84-3.08.96-3.66Z" fill="#fff" stroke-width="0"/><path d="M542.73,225.71v-.04c.05-.19.07-.29.07-.29s1.46,1.74,3.3,4.73c2.09,3.42,4.66,8.47,6.09,14.43c1.32,5.55,1.41,10.85,1.15,14.78-.16,2.43-3.35,3.2-4.59,1.1-2-3.39-4.32-8.15-5.65-13.7-1.63-6.83-1.38-13.28-.93-17.26.2-1.84.45-3.15.57-3.74l-.01-.01Z" fill="#fff3e6" stroke-width="0"/><path d="M542.79,225.37c0,0-2.1,1.05-5.05,3.14-2.08-.48-4.12-1.02-6.1-1.58l1.54-7.42c2.04.27,4.13.59,6.23.97c1.88,3.09,3.39,4.89,3.39,4.89h-.01Z" fill="#b5d16f" stroke-width="0"/><path d="M542.79,225.37c0,0,.02-.1.06-.29-.04.19-.06.29-.06.29s-.02.1-.06.29c.04-.19.06-.29.06-.29Z" fill="#fff" stroke-width="0"/><g><path d="M542.86,225.08c-.04.19-.06.29-.06.29s-1.51-1.8-3.39-4.89c-2.07-3.41-4.59-8.4-5.99-14.27-1.33-5.55-1.41-10.85-1.15-14.78.16-2.43,3.35-3.2,4.59-1.1c2,3.39,4.32,8.15,5.65,13.7c1.63,6.83,1.38,13.27.93,17.26-.21,1.89-.46,3.23-.58,3.79Z" fill="#fff3e6" stroke-width="0"/><path d="M542.86,225.08c.12-.56.41-1.88.97-3.7c1.18-3.83,3.51-9.85,7.72-15.47c3.42-4.57,7.45-8.01,10.63-10.33c1.97-1.43,4.6.54,3.78,2.83-1.33,3.7-3.51,8.53-6.93,13.1-3.68,4.9-8.04,8.51-11.32,10.82-2.87,2.02-4.91,3.04-4.91,3.04s.02-.1.06-.29Z" fill="#fff3e6" stroke-width="0"/></g><path d="M542.86,225.08c.12-.56.37-1.89.58-3.79.13.03.26.06.39.09-.56,1.82-.85,3.14-.97,3.7Z" fill="#fff" stroke-width="0"/><path d="M541.99,221c0,0,0-.01,0-.02.17-.8.96-1.3,1.76-1.13.14.03.27.06.41.09.79.18,1.29.97,1.11,1.77-.18.79-.98,1.29-1.77,1.11-.13-.03-.25-.06-.37-.08-.79-.17-1.29-.95-1.13-1.74h-.01Z" fill="#010101" stroke-width="0"/><path d="M544.65,229.81c.16-.76.88-1.27,1.66-1.16c1.91.28,3.79.49,5.56.62.81.06,1.43.77,1.37,1.58s-.77,1.43-1.58,1.37c-1.85-.13-3.79-.35-5.78-.64-.81-.12-1.37-.87-1.25-1.68c0-.03,0-.06.02-.09Z" fill="#202730" stroke-width="0"/><path d="M546.26,222.04c0,0,.01-.06.02-.09.21-.79,1.02-1.25,1.81-1.04c1.94.52,3.81,1.1,5.56,1.71.77.27,1.18,1.11.91,1.88s-1.11,1.18-1.88.91c-1.68-.59-3.48-1.14-5.35-1.65-.76-.2-1.22-.96-1.06-1.72h-.01Z" fill="#202730" stroke-width="0"/><path d="M510.67,218.71v0c.25-1.21,1.29-2.04,2.52-2.03c2.72.02,7,.12,11.98.51c2.78.22,5.54.5,8.2.85c2.16.28,4.28.62,6.3.98.8.15,1.33.92,1.19,1.72-.15.8-.92,1.33-1.72,1.19-1.98-.36-4.05-.68-6.16-.96-2.61-.34-5.31-.63-8.04-.84-3.77-.29-7.13-.42-9.69-.48c2.97,1.21,6.07,2.38,9.08,3.42c2.62.9,5.21,1.72,7.71,2.43c2.05.58,4.08,1.11,6.03,1.57.79.18,1.29.98,1.1,1.77-.18.79-.98,1.29-1.77,1.1-2-.47-4.08-1.01-6.17-1.6-2.55-.73-5.2-1.56-7.86-2.48-3.78-1.3-7.55-2.74-11.2-4.29-1.14-.48-1.75-1.66-1.5-2.87v.01Z" fill="#202730" stroke-width="0"/><path d="M540.32,229.07c.16-.79.94-1.31,1.73-1.15.13.02.25.05.38.07.8.15,1.33.92,1.18,1.72c0,.01,0,.02,0,.03-.16.78-.92,1.3-1.71,1.15-.14-.03-.27-.05-.41-.08-.8-.16-1.32-.93-1.17-1.73c0,0,0-.01,0-.02v.01Z" fill="#010101" stroke-width="0"/><path d="M549.79,226.82c.33-1.57,1.2-2.98,2.47-3.97c1.58-1.23,3.6-1.71,5.57-1.3c3.67.76,6.03,4.36,5.27,8.03s-4.36,6.03-8.03,5.27c-1.94-.4-3.6-1.62-4.56-3.35-.01-.02-.02-.04-.03-.05-.77-1.41-1.01-3.05-.68-4.62l-.01-.01Zm10.41,2.16c.43-2.07-.91-4.11-2.98-4.54-1.11-.23-2.25.04-3.14.74c0,0,0,0,0,0-.71.56-1.21,1.35-1.39,2.24s-.05,1.78.36,2.57c0,.01.02.03.02.04.54.99,1.48,1.7,2.59,1.93c2.07.43,4.11-.91,4.54-2.98Z" fill="#202730" stroke-width="0"/><path d="M541.41,224.78c.13-.64.44-2,1-3.83c1.26-4.11,3.66-10.2,7.95-15.92c3.65-4.87,7.97-8.47,10.94-10.64c1.44-1.04,3.28-1.03,4.69.03s1.94,2.83,1.35,4.49c-1.24,3.46-3.49,8.61-7.14,13.49-3.86,5.15-8.47,8.9-11.65,11.14-2.93,2.06-5.01,3.11-5.1,3.15-.5.25-1.1.19-1.54-.14-.45-.33-.67-.89-.57-1.44c0,0,.02-.12.07-.34v.01Zm23.2-27.02c.11-.53-.22-.85-.38-.97-.18-.13-.64-.4-1.18,0-2.81,2.04-6.89,5.44-10.32,10.02-4.03,5.38-6.3,11.13-7.49,15.02-.05.17-.1.34-.15.51.54-.35,1.13-.74,1.77-1.19c3.01-2.12,7.35-5.65,10.99-10.5c3.43-4.58,5.55-9.44,6.72-12.71.02-.06.04-.11.05-.16l-.01-.02Z" fill="#202730" stroke-width="0"/><path d="M530.86,190.76c.31-1.49,1.42-2.64,2.94-3.01c1.72-.41,3.42.31,4.32,1.84c1.87,3.17,4.4,8.19,5.81,14.11c1.66,6.95,1.44,13.5.96,17.76-.21,1.91-.47,3.28-.6,3.92-.05.22-.07.33-.07.33-.13.54-.55.97-1.1,1.1-.54.13-1.11-.06-1.47-.49-.06-.08-1.61-1.92-3.52-5.07-2-3.29-4.69-8.51-6.16-14.7-1.41-5.92-1.43-11.54-1.19-15.21.01-.2.04-.39.08-.58Zm11.04,30.9c.02-.17.04-.35.06-.53.45-4.03.66-10.21-.9-16.75-1.33-5.56-3.72-10.3-5.48-13.29-.34-.57-.87-.52-1.09-.46-.21.05-.72.24-.76.91-.22,3.47-.21,8.77,1.12,14.34c1.39,5.82,3.93,10.74,5.82,13.85.44.72.86,1.37,1.24,1.94l-.01-.01Z" fill="#202730" stroke-width="0"/><path d="M526.06,237.71c.05-.22.14-.44.3-.63c3.62-4.49,7.72-7.8,10.53-9.78c3.01-2.13,5.16-3.21,5.25-3.25.5-.25,1.1-.19,1.54.14.45.33.67.89.57,1.44c0,0-.02.12-.07.33-.15.73-.82,1.23-1.55,1.17-.85.48-2.29,1.34-4.04,2.58-2.65,1.88-6.53,5-9.93,9.23-.51.63-1.44.73-2.08.22-.45-.36-.63-.93-.52-1.45Z" fill="#202730" stroke-width="0"/><path d="M523.78,240.81c.04-.18.11-.36.22-.52l.12-.17c.46-.68,1.37-.85,2.05-.4.68.46.85,1.37.4,2.05l-.11.16c-.45.68-1.37.86-2.05.4-.51-.34-.74-.96-.62-1.53l-.01.01Z" fill="#202730" stroke-width="0"/><path d="M518.09,252.39c.04-.19.09-.38.16-.56c1.03-2.87,2.28-5.63,3.72-8.2.4-.71,1.3-.97,2.01-.57s.97,1.3.57,2.01c-1.36,2.43-2.54,5.04-3.51,7.76-.22.63.16,1,.34,1.13s.64.4,1.18,0c2.81-2.04,6.89-5.44,10.32-10.02c4.03-5.38,6.29-11.13,7.49-15.01.52-1.69.81-2.94.93-3.53.17-.8.95-1.31,1.75-1.14s1.31.95,1.14,1.75v0c-.14.65-.44,2-1,3.79-1.26,4.1-3.66,10.2-7.95,15.91-3.65,4.87-7.97,8.47-10.94,10.64-1.44,1.04-3.28,1.03-4.69-.03-1.26-.94-1.81-2.44-1.5-3.93h-.02Z" fill="#202730" stroke-width="0"/><path d="M541.29,225.37c.05-.22.07-.34.07-.34.13-.54.55-.97,1.1-1.09s1.11.06,1.47.49c.06.07,1.56,1.86,3.43,4.91c0,0,0,0,0,0c2.03,3.32,4.77,8.59,6.26,14.86c1.41,5.93,1.43,11.54,1.19,15.21-.11,1.77-1.3,3.18-3.02,3.59s-3.42-.31-4.32-1.84c-1.87-3.17-4.4-8.19-5.81-14.11-1.66-6.95-1.44-13.5-.96-17.77.21-1.86.46-3.22.59-3.87v-.05c0,0,0,0,0,0v.01Zm3.55,5.51c-.41-.66-.79-1.26-1.15-1.8-.02.17-.04.34-.06.52-.45,4.03-.66,10.22.9,16.76c1.33,5.56,3.72,10.3,5.48,13.29.34.57.87.52,1.09.47.21-.05.72-.24.76-.91.22-3.47.21-8.77-1.11-14.34-1.41-5.89-3.99-10.86-5.91-14v0v.01Z" fill="#202730" stroke-width="0"/><path d="M522.4,224.17l1.2-5.81c.17-.8.95-1.31,1.75-1.15s1.31.95,1.15,1.75l-1.2,5.81c-.17.8-.95,1.31-1.75,1.15s-1.31-.95-1.15-1.75Z" fill="#202730" stroke-width="0"/><path d="M530.19,226.63l1.54-7.42c.17-.8.95-1.31,1.75-1.15s1.31.95,1.15,1.75l-1.54,7.42c-.17.8-.95,1.31-1.75,1.15s-1.31-.95-1.15-1.75Z" fill="#202730" stroke-width="0"/></g></g></g></g><g><g><path d="M413.46,517.36v105.42h40.02v-105.42c-5.89,3.41-12.72,5.36-20.01,5.36s-14.12-1.96-20.01-5.36Z" fill="#c0c0bf" stroke-width="0"/><path d="M612.58,263.35c0-15.12-3.93-28.89-10.37-39.27c3.93-12.78,4.76-27.66,1.56-42.03-3.2-14.38-9.85-25.71-18.17-32.67c1.04-13.93-1.33-28.45-7.41-40.68s-14.8-20-24.19-22.86c-1.96-13.72-7.28-26.46-15.65-35.34-8.37-8.89-18.31-12.34-27.85-10.82-4.76-12.16-12.52-21.88-22.36-26.55s-20.02-3.47-28.77,2.28C452.27,6,442.84,0.26,432.49,0.26v526.22c7.29,0,14.12-2.86,20.01-7.84c2.47-2.09,4.77-4.54,6.87-7.32c8.75,5.75,18.93,6.95,28.77,2.28s17.6-14.39,22.36-26.55c9.54,1.52,19.47-1.94,27.85-10.82s13.69-21.62,15.65-35.34c9.39-2.86,18.11-10.64,24.19-22.86c6.08-12.23,8.45-26.75,7.41-40.68c8.33-6.96,14.97-18.29,18.17-32.67s2.38-29.25-1.56-42.03c6.44-10.38,10.37-24.16,10.37-39.27v-.03Z" fill="#267d6d" stroke-width="0"/><path d="M264.22,302.38c-3.93,12.78-4.76,27.66-1.56,42.03c3.2,14.38,9.85,25.71,18.17,32.67-1.04,13.93,1.33,28.45,7.41,40.68s14.8,20,24.19,22.86c1.96,13.72,7.28,26.46,15.65,35.34c8.37,8.89,18.31,12.34,27.85,10.82c4.77,12.16,12.52,21.88,22.36,26.55s20.02,3.47,28.77-2.28c2.1,2.78,4.4,5.23,6.87,7.32c5.89,4.98,12.72,7.84,20.01,7.84v-526.21c-10.35,0-19.78,5.74-26.88,15.15-8.75-5.75-18.93-6.95-28.77-2.28s-17.6,14.39-22.36,26.55c-9.54-1.52-19.47,1.94-27.85,10.82-8.37,8.89-13.69,21.62-15.65,35.34-9.39,2.86-18.11,10.63-24.19,22.86s-8.45,26.75-7.41,40.68c-8.32,6.96-14.97,18.29-18.17,32.67s-2.38,29.25,1.56,42.03c-6.44,10.38-10.37,24.15-10.37,39.27s3.93,28.89,10.37,39.27v.02Z" fill="#267d6d" stroke-width="0"/><ellipse rx="7.51" ry="1.04" transform="translate(422.63 559.84)" fill="#676766" stroke-width="0"/><ellipse rx="5.52" ry="0.52" transform="translate(424.62 602.35)" fill="#676766" stroke-width="0"/><ellipse rx="6.08" ry="0.52" transform="translate(443.77 528.28)" fill="#676766" stroke-width="0"/><ellipse rx="7.51" ry="0.52" transform="translate(430.14 544.72)" fill="#676766" stroke-width="0"/><ellipse rx="7.51" ry="0.52" transform="translate(436.27 585.76)" fill="#676766" stroke-width="0"/><ellipse rx="5.52" ry="0.52" transform="translate(446.71 567.13)" fill="#676766" stroke-width="0"/></g></g></svg>
