<?xml version="1.0" encoding="utf-8"?>
<!-- Generator: Adobe Illustrator 27.9.0, SVG Export Plug-In . SVG Version: 6.00 Build 0)  -->
<svg version="1.1" id="Layer_1" xmlns="http://www.w3.org/2000/svg" xmlns:xlink="http://www.w3.org/1999/xlink" x="0px" y="0px"
	 viewBox="0 0 800 800" style="enable-background:new 0 0 800 800;" xml:space="preserve">
<style type="text/css">
	.st0{fill:#FFE19B;}
	.st1{fill:#FAB900;}
</style>
<path class="st0" d="M400,197c112.5,0,203.3,90.8,203.3,203.3S512.5,603.5,400,603.5s-203.3-90.8-203.3-203.3S287.5,197,400,197"/>
<path class="st1" d="M237.4,800c-1.4,0-1.4,0-2.7,0c-2.7-1.4-4.1-4.1-4.1-6.8c0-1.4,0-1.4,0-2.7l23-55.6c1.4-4.1,5.4-5.4,9.5-4.1
	c2.7,1.4,4.1,4.1,4.1,6.8c0,1.4,0,1.4,0,2.7l-23,55.6C242.8,798.6,240.1,800,237.4,800z M562.6,798.6c-2.7,0-5.4-1.4-6.8-4.1
	l-23-54.2c0-1.4,0-1.4,0-2.7c0-2.7,1.4-5.4,4.1-6.8c4.1-1.4,6.8,0,9.5,4.1l23,54.2c0,1.4,0,1.4,0,2.7c0,2.7-1.4,5.4-4.1,6.8
	C564,798.6,564,798.6,562.6,798.6z M400,772.9c-4.1,0-6.8-2.7-6.8-6.8V657.7c0-4.1,2.7-6.8,6.8-6.8c4.1,0,6.8,2.7,6.8,6.8v108.4
	C406.8,770.2,404.1,772.9,400,772.9z M519.2,694.3c-2.7,0-5.4-1.4-6.8-4.1l-20.3-50.1c0-1.4,0-1.4,0-2.7c0-2.7,1.4-5.4,4.1-6.8
	c4.1-1.4,6.8,0,9.5,4.1l20.3,50.1c0,1.4,0,1.4,0,2.7c0,2.7-1.4,5.4-4.1,6.8C520.6,694.3,520.6,694.3,519.2,694.3z M280.8,694.3
	c-1.4,0-1.4,0-2.7,0c-2.7-1.4-4.1-4.1-4.1-6.8c0-1.4,0-1.4,0-2.7l20.3-50.1c1.4-4.1,5.4-5.4,9.5-4.1c2.7,1.4,4.1,4.1,4.1,6.8
	c0,1.4,0,1.4,0,2.7l-20.3,50.1C286.2,692.9,283.5,694.3,280.8,694.3z M146.6,667.2c-1.4,0-4.1,0-5.4-1.4c-1.4-1.4-1.4-2.7-1.4-5.4
	s0-4.1,1.4-5.4l77.2-77.2c2.7-2.7,6.8-2.7,9.5,0c1.4,1.4,1.4,2.7,1.4,5.4s0,4.1-1.4,5.4l-77.2,77.2
	C149.3,667.2,148,667.2,146.6,667.2z M662.9,667.2c-1.4,0-4.1,0-5.4-1.4l-77.2-77.2c-1.4-1.4-1.4-2.7-1.4-5.4s0-4.1,1.4-5.4
	c2.7-2.7,6.8-2.7,9.5,0L667,655c1.4,1.4,1.4,2.7,1.4,5.4s0,4.1-1.4,5.4C665.6,667.2,665.6,667.2,662.9,667.2z M400,610.3
	c-115.2,0-210-94.9-210-210s94.9-210,210-210s210,94.9,210,210S515.2,610.3,400,610.3z M400,203.8c-108.4,0-196.5,88.1-196.5,196.5
	S291.6,596.7,400,596.7s196.5-88.1,196.5-196.5S508.4,203.8,400,203.8z M793,569.6c-1.4,0-1.4,0-2.7,0l-55.6-23
	c-2.7-1.4-4.1-4.1-4.1-6.8c0-1.4,0-1.4,0-2.7c1.4-4.1,5.4-5.4,9.5-4.1l55.6,23c2.7,1.4,4.1,4.1,4.1,6.8c0,1.4,0,1.4,0,2.7
	C798.4,568.3,795.7,569.6,793,569.6z M7,569.6c-2.7,0-5.4-1.4-6.8-4.1c0-1.4,0-1.4,0-2.7c0-2.7,1.4-5.4,4.1-6.8l55.6-23
	c4.1-1.4,6.8,0,9.5,4.1c0,1.4,0,1.4,0,2.7c0,2.7-1.4,5.4-4.1,6.8l-55.6,23C8.4,569.6,8.4,569.6,7,569.6z M687.3,526.3
	c-1.4,0-1.4,0-2.7,0L634.5,506c-2.7-1.4-4.1-4.1-4.1-6.8c0-1.4,0-1.4,0-2.7c1.4-4.1,5.4-5.4,9.5-4.1l50.1,20.3
	c2.7,1.4,4.1,4.1,4.1,6.8c0,1.4,0,1.4,0,2.7C692.7,524.9,690,526.3,687.3,526.3z M112.7,526.3c-2.7,0-5.4-1.4-6.8-4.1
	c0-1.4,0-1.4,0-2.7c0-2.7,1.4-5.4,4.1-6.8l50.1-20.3c4.1-1.4,6.8,0,9.5,4.1c0,1.4,0,1.4,0,2.7c0,2.7-1.4,5.4-4.1,6.8l-50.1,20.3
	C114.1,526.3,112.7,526.3,112.7,526.3z M765.9,407H657.5c-4.1,0-6.8-2.7-6.8-6.8c0-4.1,2.7-6.8,6.8-6.8h108.4c4.1,0,6.8,2.7,6.8,6.8
	C772.6,404.3,769.9,407,765.9,407z M142.5,407H34.1c-4.1,0-6.8-2.7-6.8-6.8c0-4.1,2.7-6.8,6.8-6.8h108.4c4.1,0,6.8,2.7,6.8,6.8
	S146.6,407,142.5,407z M161.5,308.1c-1.4,0-1.4,0-2.7,0l-50.1-20.3c-2.7-1.4-4.1-4.1-4.1-6.8c0-1.4,0-1.4,0-2.7
	c1.4-4.1,5.4-5.4,9.5-4.1l50.1,20.3c2.7,1.4,4.1,4.1,4.1,6.8c0,1.4,0,1.4,0,2.7C166.9,306.8,164.2,308.1,161.5,308.1z M638.5,308.1
	c-2.7,0-5.4-1.4-6.8-4.1c0-1.4,0-1.4,0-2.7c0-2.7,1.4-5.4,4.1-6.8l50.1-20.3c4.1-1.4,6.8,0,9.5,4.1c0,1.4,0,1.4,0,2.7
	c0,2.7-1.4,5.4-4.1,6.8l-50.1,20.3C639.8,308.1,638.5,308.1,638.5,308.1z M737.4,267.5c-2.7,0-5.4-1.4-6.8-4.1c0-1.4,0-1.4,0-2.7
	c0-2.7,1.4-5.4,4.1-6.8l55.6-23c4.1-1.4,6.8,0,9.5,4.1c0,1.4,0,1.4,0,2.7c0,2.7-1.4,5.4-4.1,6.8l-55.6,23
	C740.1,267.5,738.8,267.5,737.4,267.5z M62.6,267.5c-1.4,0-1.4,0-2.7,0l-55.6-23c-2.7-1.4-4.1-4.1-4.1-6.8c0-1.4,0-1.4,0-2.7
	c1.4-4.1,5.4-5.4,9.5-4.1l55.6,23c2.7,1.4,4.1,4.1,4.1,6.8c0,1.4,0,1.4,0,2.7C66.7,266.1,65.3,267.5,62.6,267.5z M587,226.8
	c-1.4,0-4.1,0-5.4-1.4c-1.4-1.4-1.4-2.7-1.4-5.4s0-4.1,1.4-5.4l66.4-66.4c2.7-2.7,6.8-2.7,9.5,0c1.4,1.4,1.4,2.7,1.4,5.4
	s0,4.1-1.4,5.4l-66.4,66.4C589.7,226.8,588.4,226.8,587,226.8z M222.5,226.8c-1.4,0-4.1,0-5.4-1.4l-77.2-77.2
	c-1.4-1.4-1.4-2.7-1.4-5.4s0-4.1,1.4-5.4c2.7-2.7,6.8-2.7,9.5,0l77.2,77.2c1.4,1.4,1.4,2.7,1.4,5.4s0,4.1-1.4,5.4
	C225.2,226.8,223.8,226.8,222.5,226.8z M301.1,168.5c-2.7,0-5.4-1.4-6.8-4.1L274,114.3c0-1.4,0-1.4,0-2.7c0-2.7,1.4-5.4,4.1-6.8
	c4.1-1.4,6.8,0,9.5,4.1l20.3,50.1c0,1.4,0,1.4,0,2.7c0,2.7-1.4,5.4-4.1,6.8C303.8,168.5,302.4,168.5,301.1,168.5z M498.9,168.5
	c-1.4,0-1.4,0-2.7,0c-2.7-1.4-4.1-4.1-4.1-6.8c0-1.4,0-1.4,0-2.7l20.3-50.1c1.4-4.1,5.4-5.4,9.5-4.1c2.7,1.4,4.1,4.1,4.1,6.8
	c0,1.4,0,1.4,0,2.7l-20.3,50.1C504.3,167.2,501.6,168.5,498.9,168.5z M400,149.6c-4.1,0-6.8-2.7-6.8-6.8V47.9c0-4.1,2.7-6.8,6.8-6.8
	c4.1,0,6.8,2.7,6.8,6.8v94.9C406.8,146.9,404.1,149.6,400,149.6z M260.4,69.6c-2.7,0-5.4-1.4-6.8-4.1l-23-55.6c0-1.4,0-1.4,0-2.7
	c0-2.7,1.4-5.4,4.1-6.8c4.1-1.4,6.8,0,9.5,4.1l23,55.6c0,1.4,0,1.4,0,2.7c0,2.7-1.4,5.4-4.1,6.8C261.8,68.3,260.4,69.6,260.4,69.6z
	 M539.6,69.6c-1.4,0-1.4,0-2.7,0c-2.7-1.4-4.1-4.1-4.1-6.8c0-1.4,0-1.4,0-2.7l23-55.6c1.4-4.1,5.4-5.4,9.5-4.1
	c2.7,1.4,4.1,4.1,4.1,6.8c0,1.4,0,1.4,0,2.7l-23,55.6C545,66.9,542.3,69.6,539.6,69.6z"/>
</svg>
