<?xml version="1.0" encoding="utf-8"?>
<!-- Generator: Adobe Illustrator 27.9.0, SVG Export Plug-In . SVG Version: 6.00 Build 0)  -->
<svg version="1.1" id="Слой_1" xmlns="http://www.w3.org/2000/svg" xmlns:xlink="http://www.w3.org/1999/xlink" x="0px" y="0px"
	 viewBox="0 0 986.4 652.1" style="enable-background:new 0 0 986.4 652.1;" xml:space="preserve">
<style type="text/css">
	.st0{fill:#D59845;stroke:#5C4524;stroke-miterlimit:10;}
	.st1{fill:#D59845;}
	.st2{fill:none;stroke:#5C4524;stroke-miterlimit:10;}
	.st3{fill:#42331D;stroke:#2A2113;stroke-width:2;stroke-miterlimit:10;}
	.st4{fill:#95C242;}
	.st5{fill:#7FA538;stroke:#297524;stroke-width:2;stroke-miterlimit:10;}
	.st6{fill:#96C241;stroke:#3DAA36;stroke-width:2;stroke-miterlimit:10;}
	.st7{fill:#C3D337;stroke:#3DAA36;stroke-width:2;stroke-miterlimit:10;}
	.st8{fill:#76B835;}
	.st9{fill:#5FAD30;}
	.st10{fill:#97C45B;}
	.st11{fill:#FFE477;}
	.st12{fill:#FFCD07;}
	.st13{fill:#FFFFFF;}
	.st14{fill:#86BE50;}
	.st15{fill:#75A843;}
	.st16{fill:#46083B;}
	.st17{fill:#6A175E;}
	.st18{fill:#852077;}
	.st19{fill:#C8AB07;}
	.st20{fill:#DEBC04;}
	.st21{fill:#FED500;}
	.st22{fill:#A9CB57;}
	.st23{fill:#92B83D;}
	.st24{fill:#7D9E2E;}
	.st25{fill:#EBE5DD;}
	.st26{fill:#FFF3DD;}
	.st27{fill:#F0DFC0;}
	.st28{fill:#E86F22;}
	.st29{fill:#C9581D;}
	.st30{fill:#AB2166;}
	.st31{fill:#D33877;}
	.st32{fill:#E84E88;}
	.st33{fill:#83C284;}
	.st34{fill:#4DAF50;}
	.st35{fill:#4DA0D9;}
	.st36{fill:#FDCC68;}
	.st37{fill:#CDCC34;}
	.st38{fill:#EC6669;}
	.st39{fill:#669934;}
	.st40{fill:#673434;}
	.st41{fill:#7DB441;}
	.st42{clip-path:url(#SVGID_00000140721288641843622990000014362998742836766881_);fill:#BDCF48;}
	.st43{fill:#E55197;}
	.st44{fill:#F087AB;}
	.st45{clip-path:url(#SVGID_00000000193446009786487060000001622078032404408192_);fill:#BDCF48;}
	.st46{clip-path:url(#SVGID_00000026856194772890757070000006760730076800461220_);fill:#BDCF48;}
	.st47{fill:#993765;}
	.st48{fill:#CD0073;}
	.st49{clip-path:url(#SVGID_00000119104729934601767850000012005909322111702410_);fill:#BDCF48;}
	.st50{fill:#380C1E;}
	.st51{fill:#B31477;}
	.st52{fill:#8B0E5C;}
	.st53{clip-path:url(#SVGID_00000142895968236565586390000000758118517137024942_);fill:#BDCF48;}
	.st54{fill:#EBC603;}
	.st55{fill:#FFED00;}
	.st56{clip-path:url(#SVGID_00000005982679255869918340000013034836105790351265_);fill:#BDCF48;}
	.st57{fill:#B29808;}
	.st58{fill:#FFD500;}
	.st59{fill:#DDBB05;}
	.st60{fill:#9DB849;}
	.st61{fill:#92A842;}
	.st62{fill:#A92868;}
	.st63{fill:#B92B72;}
	.st64{fill:#C52E79;}
	.st65{fill:#D12E80;}
	.st66{fill:#947252;}
	.st67{fill:#871814;}
	.st68{fill:#9A1D1E;}
	.st69{fill:#AE2927;}
	.st70{fill:#CD3837;}
	.st71{fill:#E24B4C;}
	.st72{fill:#020203;}
</style>
<g id="fence">
	<path class="st0" d="M960.3,307.8H17.8c-9.6,0-17.4-7.8-17.4-17.4v-12.8c0-9.6,7.8-17.4,17.4-17.4h942.5c9.6,0,17.4,7.8,17.4,17.4
		v12.8C977.7,300,969.9,307.8,960.3,307.8z"/>
	<path class="st0" d="M960,470.4H17.4C7.8,470.4,0,462.6,0,453v-20.1c0-9.6,7.8-17.4,17.4-17.4H960c9.6,0,17.4,7.8,17.4,17.4V453
		C977.4,462.6,969.6,470.4,960,470.4z"/>
	<g>
		
			<image style="overflow:visible;opacity:0.3;enable-background:new    ;" width="327" height="1590" xlink:href="6405008D.png"  transform="matrix(0.2398 0 0 0.2398 94.1267 143.5779)">
		</image>
		<g>
			<path class="st1" d="M102.6,160.3v341.9h47.6V160.4c0-4.5-3.7-8.2-8.2-8.2h-31.3C106.2,152.2,102.6,155.8,102.6,160.3z"/>
			<path class="st2" d="M102.6,160.3v341.9h47.6V160.4c0-4.5-3.7-8.2-8.2-8.2h-31.3C106.2,152.2,102.6,155.8,102.6,160.3z"/>
		</g>
	</g>
	<g>
		
			<image style="overflow:visible;opacity:0.3;enable-background:new    ;" width="328" height="1668" xlink:href="6405008E.png"  transform="matrix(0.2403 0 0 0.2403 281.3748 129.8979)">
		</image>
		<g>
			<path class="st1" d="M290,146.6v361.5h47.6V146.7c0-4.5-3.7-8.2-8.2-8.2h-31.3C293.6,138.5,290,142.1,290,146.6z"/>
			<path class="st2" d="M290,146.6v361.5h47.6V146.7c0-4.5-3.7-8.2-8.2-8.2h-31.3C293.6,138.5,290,142.1,290,146.6z"/>
		</g>
	</g>
	<g>
		
			<image style="overflow:visible;opacity:0.3;enable-background:new    ;" width="329" height="1585" xlink:href="6405008C.png"  transform="matrix(0.2393 0 0 0.2393 387.462 153.5161)">
		</image>
		<g>
			<path class="st1" d="M396,169.2v341.9h47.6V169.3c0-4.5-3.7-8.2-8.2-8.2h-31.3C399.6,161.1,396,164.7,396,169.2z"/>
			<path class="st2" d="M396,169.2v341.9h47.6V169.3c0-4.5-3.7-8.2-8.2-8.2h-31.3C399.6,161.1,396,164.7,396,169.2z"/>
		</g>
	</g>
	<g>
		
			<image style="overflow:visible;opacity:0.3;enable-background:new    ;" width="330" height="1761" xlink:href="64050084.png"  transform="matrix(0.2393 0 0 0.2393 556.462 111.8183)">
		</image>
		<g>
			<path class="st1" d="M565.1,127.9v383.2h47.6V128c0-4.5-3.7-8.2-8.2-8.2h-31.3C568.7,119.8,565.1,123.4,565.1,127.9z"/>
			<path class="st2" d="M565.1,127.9v383.2h47.6V128c0-4.5-3.7-8.2-8.2-8.2h-31.3C568.7,119.8,565.1,123.4,565.1,127.9z"/>
		</g>
	</g>
	<g>
		
			<image style="overflow:visible;opacity:0.3;enable-background:new    ;" width="328" height="1585" xlink:href="64050085.png"  transform="matrix(0.24 0 0 0.24 716.4095 152.9379)">
		</image>
		<g>
			<path class="st1" d="M725,169.2v341.9h47.6V169.3c0-4.5-3.7-8.2-8.2-8.2h-31.3C728.6,161.1,725,164.7,725,169.2z"/>
			<path class="st2" d="M725,169.2v341.9h47.6V169.3c0-4.5-3.7-8.2-8.2-8.2h-31.3C728.6,161.1,725,164.7,725,169.2z"/>
		</g>
	</g>
	<g>
		
			<image style="overflow:visible;opacity:0.3;enable-background:new    ;" width="326" height="1585" xlink:href="64050082.png"  transform="matrix(0.2405 0 0 0.2405 879.8673 152.5779)">
		</image>
		<g>
			<path class="st1" d="M888.3,169.2v341.9h47.6V169.3c0-4.5-3.7-8.2-8.2-8.2h-31.3C891.9,161.1,888.3,164.7,888.3,169.2z"/>
			<path class="st2" d="M888.3,169.2v341.9h47.6V169.3c0-4.5-3.7-8.2-8.2-8.2h-31.3C891.9,161.1,888.3,164.7,888.3,169.2z"/>
		</g>
	</g>
	<g>
		
			<image style="overflow:visible;opacity:0.3;enable-background:new    ;" width="327" height="1587" xlink:href="64050083.png"  transform="matrix(0.2402 0 0 0.2402 798.1506 169.8961)">
		</image>
		<g>
			<path class="st1" d="M806.6,186.5v341.9h47.6V186.6c0-4.5-3.7-8.2-8.2-8.2h-31.3C810.2,178.4,806.6,182.1,806.6,186.5z"/>
			<path class="st2" d="M806.6,186.5v341.9h47.6V186.6c0-4.5-3.7-8.2-8.2-8.2h-31.3C810.2,178.4,806.6,182.1,806.6,186.5z"/>
		</g>
	</g>
	<g>
		
			<image style="overflow:visible;opacity:0.3;enable-background:new    ;" width="328" height="1585" xlink:href="64050099.png"  transform="matrix(0.24 0 0 0.24 636.4644 152.9379)">
		</image>
		<g>
			<path class="st1" d="M645,169.2v341.9h47.6V169.3c0-4.5-3.7-8.2-8.2-8.2h-31.3C648.6,161.1,645,164.7,645,169.2z"/>
			<path class="st2" d="M645,169.2v341.9h47.6V169.3c0-4.5-3.7-8.2-8.2-8.2h-31.3C648.6,161.1,645,164.7,645,169.2z"/>
		</g>
	</g>
	<g>
		
			<image style="overflow:visible;opacity:0.3;enable-background:new    ;" width="327" height="1681" xlink:href="6405009A.png"  transform="matrix(0.2403 0 0 0.2403 468.0953 129.8979)">
		</image>
		<g>
			<path class="st1" d="M476.6,146.6v364.5h47.6V146.7c0-4.5-3.7-8.2-8.2-8.2h-31.3C480.3,138.5,476.6,142.1,476.6,146.6z"/>
			<path class="st2" d="M476.6,146.6v364.5h47.6V146.7c0-4.5-3.7-8.2-8.2-8.2h-31.3C480.3,138.5,476.6,142.1,476.6,146.6z"/>
		</g>
	</g>
	<g>
		
			<image style="overflow:visible;opacity:0.3;enable-background:new    ;" width="326" height="1588" xlink:href="74B913F6.png"  transform="matrix(0.24 0 0 0.24 187.9775 161.3913)">
		</image>
		<g>
			<path class="st1" d="M196.3,178v341.9h47.6V178.1c0-4.5-3.7-8.2-8.2-8.2h-31.3C199.9,169.9,196.3,173.6,196.3,178z"/>
			<path class="st2" d="M196.3,178v341.9h47.6V178.1c0-4.5-3.7-8.2-8.2-8.2h-31.3C199.9,169.9,196.3,173.6,196.3,178z"/>
		</g>
	</g>
	<circle class="st3" cx="126.4" cy="284" r="3.5"/>
	<circle class="st3" cx="129.9" cy="446.4" r="3.5"/>
	<circle class="st3" cx="232.4" cy="284" r="3.5"/>
	<circle class="st3" cx="210" cy="287.5" r="3.5"/>
	<circle class="st3" cx="220.1" cy="436.2" r="3.5"/>
	<circle class="st3" cx="317.3" cy="453.4" r="3.5"/>
	<circle class="st3" cx="313.8" cy="280.5" r="3.5"/>
	<circle class="st3" cx="419.8" cy="291" r="3.5"/>
	<circle class="st3" cx="419.8" cy="442.9" r="3.5"/>
	<circle class="st3" cx="500.4" cy="284" r="3.5"/>
	<circle class="st3" cx="504.4" cy="432.7" r="3.5"/>
	<circle class="st3" cx="588.9" cy="294.5" r="3.5"/>
	<circle class="st3" cx="575.9" cy="453.4" r="3.5"/>
	<circle class="st3" cx="601.4" cy="442.9" r="3.5"/>
	<circle class="st3" cx="668.8" cy="280.5" r="3.5"/>
	<circle class="st3" cx="675.8" cy="439.7" r="3.5"/>
	<circle class="st3" cx="756.2" cy="280.5" r="3.5"/>
	<circle class="st3" cx="749.6" cy="453.4" r="3.5"/>
	<circle class="st3" cx="830.4" cy="287.5" r="3.5"/>
	<circle class="st3" cx="833.9" cy="456.9" r="3.5"/>
	<circle class="st3" cx="912.1" cy="277" r="3.5"/>
	<circle class="st3" cx="899.9" cy="439.7" r="3.5"/>
	<circle class="st3" cx="923.7" cy="460.4" r="3.5"/>
</g>
<g id="grass">
	<path class="st4" d="M529.8,489.6c60.5-3.3,202.5-7.5,260.8,8.8c25.7,7.2,108.4,1.6,132.2,13.6c17.8,9,52.2,34.3,59.9,52.7
		c7.6,18.1-23.1,50.9-39,58.3c-40,18.7-122.9,19.9-175.3,19.9c-89.3,0-357.2,0-357.2,0s-171.8,10.4-229,9.1
		c-39.5-0.9-68.8-5.6-73-24.4c-6.1-27.5,37.5-65.8,74.9-83.9c1.3-0.6,111.6-36.4,113-36.8C426.9,475.6,487.9,491.8,529.8,489.6z"/>
</g>
<g id="flowers">
	<g>
		<path class="st5" d="M768.4,621.7l16.9,3.5c-8.1-47.5,23.7-49.5,39.6-48.5C780.4,564.3,778.5,573.4,768.4,621.7z"/>
		<path class="st5" d="M748,570.5c3.3,1.3,23.7,23,15.5,50.2l14.9,3.1C784.6,594.4,775.2,577,748,570.5z"/>
		<path class="st5" d="M752.2,592.6c1.9,0.8,13.8,12.8,9.2,27.6l8.6,1.8C773.4,606,767.9,596.3,752.2,592.6z"/>
		<path class="st5" d="M779.8,623.8l8.5,1.8c-4.8-20,10.9-20.2,18.8-19.6C784.7,600,783.9,603.8,779.8,623.8z"/>
		<path class="st5" d="M751,608.8c2.4,0.6,18.2,7.7,15.3,13.3l10.4,2.2C778.1,618,770.1,613,751,608.8z"/>
		<path class="st5" d="M796.6,619.3c-1.9-0.3-15.8,0.2-15.6,5.9l-8.3-1.7C773.9,617.8,781.4,616.3,796.6,619.3z"/>
	</g>
	<g>
		<path class="st6" d="M528.1,393.9c18.5,5,54.7,23.4,33.9,121.2h20.3C582.3,407.5,582.3,387.1,528.1,393.9z"/>
		<path class="st6" d="M570.3,515h18c-2.9-61.6,25.8-98.8,29.9-100.2C585.2,416.6,570.3,449.7,570.3,515z"/>
		<path class="st6" d="M580.4,515h10.3c-1.7-33.7,14.8-54.1,17.2-54.8C589,461.1,580.4,479.3,580.4,515z"/>
		<path class="st6" d="M541.6,464.3c9.2,2.1,27.3,9.7,17,50.1h10.2C568.8,469.9,568.8,461.5,541.6,464.3z"/>
	</g>
	<g>
		<path class="st6" d="M358.1,536.3h34c-34.7-132.4,25.8-157.2,56.7-164C358.1,363.1,358.1,390.6,358.1,536.3z"/>
		<path class="st6" d="M298.2,400.7c7,1.8,54.8,52.3,50,135.6h30C378.3,447.8,353.3,403,298.2,400.7z"/>
		<path class="st6" d="M315.2,462c4,1,31.6,28.6,28.8,74.2h17.3C361.3,487.8,346.9,463.3,315.2,462z"/>
		<path class="st6" d="M380.8,535.4h17c-17.3-54.7,12.9-65,28.3-67.8C380.8,463.8,380.8,475.2,380.8,535.4z"/>
	</g>
	<g>
		<path class="st7" d="M750.3,511.8h20.3c-20.7-97.8,15.5-116.2,33.9-121.2C750.3,383.9,750.3,404.2,750.3,511.8z"/>
		<path class="st7" d="M714.4,411.6c4.2,1.3,32.8,38.6,29.9,100.2h17.9C762.3,446.4,747.4,413.3,714.4,411.6z"/>
		<path class="st7" d="M724.6,457c2.4,0.7,18.9,21.1,17.2,54.8h10.3C752.2,476,743.5,457.9,724.6,457z"/>
		<path class="st7" d="M763.8,511.1H774c-10.4-40.5,7.7-48,17-50.1C763.8,458.3,763.8,466.7,763.8,511.1z"/>
	</g>
	<g>
		<path class="st8" d="M277.3,501.8c-0.5,0-5.5,0.4-10.7-1.5c-4.6-1.8-12.3-6.7-11.3-19.7c0.1-1.8,1.5-3.3,3.3-3.6
			c0.5-0.1,5.3-0.7,10.5,1.2l0,0c3.4,1.3,6.1,3.4,8.1,6.3c2.4,3.5,3.6,7.9,3.7,13.3C280.8,499.9,279.3,501.6,277.3,501.8z"/>
		<path class="st9" d="M277.2,484.6c-2-2.9-4.7-5-8.1-6.3l0,0c-5.1-2-9.9-1.3-10.5-1.2c-1.8,0.3-3.2,1.7-3.3,3.6
			c-0.1,1.4-0.1,2.7,0,4c2,0,4.6,0.3,7.4,1.4l0,0c3.4,1.3,6.1,3.4,8.1,6.3c1.8,2.6,3,5.8,3.4,9.6c1.7,0.1,2.9,0,3.1,0
			c2-0.2,3.6-1.9,3.5-3.9C280.8,492.5,279.6,488,277.2,484.6z"/>
		<path class="st10" d="M280,558c-2,0-3.5-1.6-3.5-3.5v-98.2c0-2,1.6-3.5,3.5-3.5s3.5,1.6,3.5,3.5v98.2
			C283.5,556.4,281.9,558,280,558z"/>
		<path class="st8" d="M302,476.9c-0.5,0-5.5-0.4-10.7,1.5c-4.6,1.8-12.3,6.7-11.3,19.7c0.1,1.8,1.5,3.3,3.3,3.6
			c0.5,0.1,5.3,0.7,10.5-1.2l0,0c3.4-1.3,6.1-3.4,8.1-6.3c2.4-3.5,3.6-7.9,3.7-13.3C305.6,478.8,304.1,477.1,302,476.9z"/>
		<path class="st9" d="M298.2,486c2.6-1,5.2-1.4,7.1-1.5c0.1-1.2,0.2-2.4,0.2-3.6c0-2-1.5-3.7-3.5-3.9c-0.5,0-5.5-0.4-10.7,1.5
			c-4.6,1.8-12.3,6.7-11.3,19.7c0.1,1.8,1.5,3.3,3.3,3.6c0.3,0,1.6,0.2,3.5,0.1C287.5,491.7,294.1,487.6,298.2,486z"/>
		<path class="st11" d="M273.4,446.9c-13.2,31.8-41.1,3.8-9.3-9.3c-31.8,13.2-31.8-26.3,0-13.2c-31.8-13.2-3.8-41.1,9.3-9.3
			c-13.2-31.8,26.3-31.8,13.2,0c13.2-31.8,41.1-3.8,9.3,9.3c31.8-13.2,31.8,26.3,0,13.2c31.8,13.2,3.8,41.1-9.3,9.3
			C299.7,478.6,260.2,478.6,273.4,446.9z"/>
		<g>
			<path class="st12" d="M272.6,413c0.5,1.3,0.8,2.2,0.8,2.2L280,431l6.6-15.9c0,0,0.6-1.8,1.6-4.5
				C295.7,384.1,262.6,384.9,272.6,413z"/>
			<path class="st12" d="M261.9,438.4c1.3-0.5,2.2-0.8,2.2-0.8L280,431l-15.9-6.6c0,0-1.8-0.6-4.5-1.6
				C233,415.2,233.8,448.4,261.9,438.4z"/>
			<path class="st12" d="M287.4,449c-0.5-1.3-0.8-2.2-0.8-2.2L280,431l-6.6,15.9c0,0-0.6,1.8-1.6,4.5
				C264.2,477.9,297.4,477.1,287.4,449z"/>
			<path class="st12" d="M298,423.6c-1.3,0.5-2.2,0.8-2.2,0.8L280,431l15.9,6.6c0,0,1.8,0.6,4.5,1.6
				C326.9,446.8,326.1,413.6,298,423.6z"/>
		</g>
		<circle class="st13" cx="280" cy="431" r="7.5"/>
	</g>
	<g>
		<path class="st14" d="M794.5,516.1c-8.2,16.6,5.3,43.8,5.3,43.8l4.5-2c-4.5-41.5,30.3-73.5,30.3-73.5S806.4,491.5,794.5,516.1z"/>
		<path class="st15" d="M741.6,432.1L804.2,558l-10.2,4.6L741.6,432.1z"/>
		<path class="st16" d="M787.2,470.5c10.1,22.4,3.8,36.7-9.3,42.5s-27.9,1-37.9-21.3c-10.1-22.4,1.6-59.6,1.6-59.6
			S777.1,448.1,787.2,470.5L787.2,470.5z"/>
		<path class="st17" d="M765.8,467.4c38.6,5.4,30.3,41.4,13.2,49.1s-38.8-3.6-48.6-25.4s-0.7-46.8-0.7-46.8S737.4,463.6,765.8,467.4
			"/>
		<path class="st18" d="M752.1,473.5C730.5,506,762.9,523.7,780,516s23.1-31.4,13.3-53.2c-9.8-21.8-34.2-31.6-34.2-31.6
			S768.1,449.8,752.1,473.5"/>
		<path class="st14" d="M762.1,525.8c19.5,7.4,36.8,34.6,36.8,34.6l-9.8,4.4C756.9,534.7,706,525,706,525S742.8,518.6,762.1,525.8z"
			/>
	</g>
	<g>
		<g>
			<path class="st14" d="M229.5,558.1c7,14.3-4.5,37.7-4.5,37.7l-3.8-1.7c3.8-35.7-26.1-63.3-26.1-63.3S219.3,536.9,229.5,558.1z"/>
			<path class="st15" d="M275.1,485.7l-53.9,108.4l8.8,3.9L275.1,485.7z"/>
			<path class="st16" d="M235.8,518.8c-8.7,19.3-3.2,31.6,8,36.6s24,0.9,32.7-18.4c8.7-19.3-1.4-51.3-1.4-51.3
				S244.5,499.5,235.8,518.8L235.8,518.8z"/>
			<path class="st17" d="M254.3,516.1c-33.2,4.7-26.1,35.6-11.4,42.2s33.4-3.1,41.8-21.8c8.4-18.7,0.6-40.3,0.6-40.3
				S278.7,512.8,254.3,516.1"/>
			<path class="st18" d="M266,521.4c18.6,27.9-9.3,43.2-24,36.6s-19.9-27-11.4-45.8s29.5-27.2,29.5-27.2S252.3,500.9,266,521.4"/>
			<path class="st14" d="M257.4,566.4c-16.8,6.4-31.7,29.8-31.7,29.8l8.4,3.8c27.8-25.8,71.5-34.2,71.5-34.2S274,560.2,257.4,566.4z
				"/>
		</g>
		<g>
			<path class="st14" d="M200,564.9c14.9,5.6,22.6,30.6,22.6,30.6l-4,1.4c-21.7-28.7-62.4-28.2-62.4-28.2S178,556.4,200,564.9z"/>
			<path class="st15" d="M183.6,481l35,115.9l9.1-3.1L183.6,481z"/>
			<path class="st19" d="M177.7,532c6.9,20,19.3,25.2,30.9,21.2c11.6-4,18.1-15.8,11.2-35.8c-6.9-20-36.2-36.4-36.2-36.4
				S170.8,512,177.7,532L177.7,532z"/>
			<path class="st20" d="M189.3,517.4c-21,26.2,5.4,43.8,20.7,38.6s22.2-25.1,15.5-44.6c-6.7-19.4-27.2-29.8-27.2-29.8
				S204.8,498.2,189.3,517.4"/>
			<path class="st21" d="M201.4,513.2c32.7,7.6,22.8,37.8,7.6,43.1c-15.2,5.3-33-6.1-39.7-25.5c-6.7-19.4,2.8-40,2.8-40
				S177.4,507.7,201.4,513.2"/>
			<path class="st14" d="M226,551.8c-7.8,16.1-2.7,43.4-2.7,43.4l8.7-3c2.5-37.8,28.7-73.9,28.7-73.9S233.9,535.9,226,551.8z"/>
		</g>
	</g>
	<g>
		<g>
			<path class="st22" d="M667.2,472.8c-0.2,0.3-0.4,0.7-0.8,0.9c-36.9,22-50-17-52.7-26.8c-0.3-1.1,0.5-2.2,1.7-2.3
				c2.4-0.1,4.6-0.1,6.8-0.1c34,0.8,43.1,21.4,45,27C667.4,472,667.4,472.4,667.2,472.8z"/>
			<path class="st22" d="M737.4,470.1c-1.4,5.3-5.9,19-15.4,27.1c-8.2,7-20.2,9.8-37.2-0.4c-0.7-0.4-1.1-1.3-0.8-2.1
				c1.2-3.6,5.4-13.4,17.2-20.1c7.8-4.4,18.9-7.6,34.6-6.8C736.9,467.9,737.7,469,737.4,470.1z"/>
		</g>
		<g>
			<path class="st23" d="M667.2,472.8c-0.2,0.3-0.4,0.7-0.8,0.9c-36.9,22-50-17-52.7-26.8c-0.3-1.1,0.5-2.2,1.7-2.3
				c2.4-0.1,4.6-0.1,6.8-0.1C627,458.2,639.8,483.2,667.2,472.8z"/>
			<path class="st23" d="M721.9,497.3c-8.2,7-20.2,9.8-37.2-0.4c-0.7-0.4-1.1-1.3-0.8-2.1c1.2-3.6,5.4-13.4,17.2-20.1
				c-8.3,7.9-10.1,16.3-10.1,16.3C703.9,499,714,500,721.9,497.3z"/>
		</g>
		<path class="st24" d="M673.5,525.3c-0.7,0-1.3-0.2-1.9-0.6c-1.6-1.1-1.9-3.2-0.9-4.7l2.8-4.1c0,0,0,0,0.1-0.1
			c0.1-0.1,8.7-12.3,6.1-22.1c-0.8-3-3.6-5.3-6.6-7.7c-6-4.9-14.3-11.5-3.5-26.6c4.6-6.5,3.6-12.8,3.5-13.4l-0.7-3.2
			c-0.4-1.8,0.7-3.7,2.6-4.1c1.8-0.4,3.7,0.7,4.1,2.6l0.8,3.3c0,0,0,0,0,0.1c0.1,0.4,1.9,9.6-4.7,18.7c-7,9.8-3.7,12.5,2.3,17.3
			c3.5,2.9,7.6,6.1,8.9,11.3c3.4,12.8-6.4,26.8-7.1,27.8l-2.8,4.1C675.7,524.8,674.6,525.3,673.5,525.3z"/>
		<path class="st25" d="M692.6,357.4c0,10.2-9.3,18.5-16.2,18.5c-7,0-16.2-8.3-16.2-18.5c0-10.2,3.2-18.5,16.2-18.5
			C689.4,338.8,692.6,347.1,692.6,357.4z"/>
		<path class="st26" d="M692.6,357.4c0,10.2-9.3,18.5-16.2,18.5c-7,0-16.2-8.3-16.2-18.5c0-10.2,3.2-18.5,16.2-18.5
			C689.4,338.8,692.6,347.1,692.6,357.4z"/>
		<path class="st27" d="M682.7,373.9c-2.1,1.3-4.4,2-6.4,2c-7,0-16.2-8.3-16.2-18.5s3.2-18.5,16.2-18.5c2.5,0,4.6,0.3,6.4,0.9
			c-7.7,2.4-9.8,9.4-9.8,17.7C672.9,364.6,677.6,370.8,682.7,373.9z"/>
		<path class="st26" d="M640.3,379c7.2,7.2,19.7,6.5,24.6,1.6c4.9-4.9,5.6-17.3-1.6-24.6s-15.3-10.8-24.6-1.6
			C629.4,363.7,633,371.8,640.3,379z"/>
		<path class="st27" d="M659.1,383.7c-5.8,1.6-13.7,0.5-18.8-4.7c-7.2-7.2-10.8-15.3-1.6-24.6c5.9-5.9,11.4-6.6,16.4-4.4
			c-1.9,0.9-3.9,2.3-6,4.4c-9.2,9.2-5.6,17.4,1.6,24.6C653.1,381.4,656.1,382.9,659.1,383.7z"/>
		<path class="st26" d="M712.4,379c-7.2,7.2-19.7,6.5-24.6,1.6s-5.6-17.3,1.6-24.6s15.3-10.8,24.6-1.6
			C723.2,363.7,719.6,371.8,712.4,379z"/>
		<path class="st27" d="M706,383.1c-6.7,2.5-14.5,1.2-18.2-2.5c-4.9-4.9-5.6-17.4,1.6-24.6c5-5,10.5-8.3,16.5-6.7
			c-2.5,1.3-4.9,3.2-7.2,5.5c-7.2,7.2-6.5,19.6-1.6,24.6C699.1,381.4,702.4,382.7,706,383.1z"/>
		<path class="st26" d="M711.1,408.3c-10.2,0-18.5-9.3-18.5-16.2c0-7,8.3-16.2,18.5-16.2s18.5,3.2,18.5,16.2
			S721.3,408.3,711.1,408.3z"/>
		<path class="st27" d="M723,405.9c-3.2,1.8-7.4,2.5-11.9,2.5c-10.2,0-18.5-9.3-18.5-16.2s8.3-16.2,18.5-16.2c0.3,0,0.7,0,1.1,0
			c-5.7,3.2-9.6,9-9.6,13.8c0,7,8.3,16.2,18.5,16.2C721.7,405.9,722.4,405.9,723,405.9z"/>
		<path class="st26" d="M689.4,428.2c-7.2-7.2-6.5-19.7-1.6-24.6s17.3-5.6,24.6,1.6s10.8,15.3,1.6,24.6
			C704.8,439,696.6,435.4,689.4,428.2z"/>
		<path class="st27" d="M709.6,433.3c-7.4,4.5-14.1,1-20.2-5.1c-7.2-7.2-6.5-19.7-1.6-24.6c3.2-3.2,9.5-4.6,15.5-3.3
			c-1.4,0.6-2.6,1.4-3.6,2.3c-4.9,4.9-5.6,17.3,1.6,24.6C704,429.9,706.7,432,709.6,433.3z"/>
		<path class="st26" d="M692.6,426.9c0-10.2-9.3-18.5-16.2-18.5c-7,0-16.2,8.3-16.2,18.5s3.2,18.5,16.2,18.5
			C689.4,445.4,692.6,437.1,692.6,426.9z"/>
		<path class="st27" d="M682,444.7c-1.6,0.4-3.5,0.7-5.7,0.7c-13.1,0-16.2-8.3-16.2-18.5s9.3-18.5,16.2-18.5c1.8,0,3.8,0.5,5.7,1.5
			c-5.5,2.9-10.6,9.4-10.6,17C671.4,435.4,673.6,442.6,682,444.7z"/>
		<path class="st26" d="M663.2,428.2c7.2-7.2,6.5-19.7,1.6-24.6c-4.9-4.9-17.3-5.6-24.6,1.6s-10.8,15.3-1.6,24.6
			C647.9,439,656,435.4,663.2,428.2z"/>
		<path class="st27" d="M648.7,429.8c2.1,2.1,4.2,3.6,6.2,4.5c-5,2.1-10.4,1.4-16.2-4.5c-9.2-9.2-5.6-17.3,1.6-24.6
			c5.1-5.1,12.8-6.3,18.6-4.8c-3.1,0.8-6.2,2.3-8.6,4.8C643,412.4,639.4,420.5,648.7,429.8z"/>
		<path class="st26" d="M641.6,408.3c10.2,0,18.5-9.3,18.5-16.2c0-7-8.3-16.2-18.5-16.2c-10.2,0-18.5,3.2-18.5,16.2
			S631.4,408.3,641.6,408.3z"/>
		<path class="st27" d="M645.1,408c-1.2,0.3-2.3,0.4-3.6,0.4c-10.2,0-18.5-3.2-18.5-16.2s8.3-16.2,18.5-16.2c1.2,0,2.4,0.1,3.6,0.4
			c-7.5,1.2-13,5.2-13,15.9S637.6,406.8,645.1,408z"/>
		<circle class="st28" cx="676.3" cy="392.1" r="21.4"/>
		<path class="st29" d="M693.7,404.6c-3.9,5.4-10.2,8.8-17.3,8.8c-11.8,0-21.4-9.6-21.4-21.4c0-8.6,5.1-16.1,12.5-19.4
			c-2.6,3.5-4.1,7.8-4.1,12.5c0,11.8,9.6,21.4,21.4,21.4C687.9,406.6,690.9,405.9,693.7,404.6z"/>
		<circle class="st26" cx="676.3" cy="392.1" r="3.4"/>
	</g>
	<g>
		<path class="st14" d="M694.8,579.9c-12.3,10.2-11.4,36.4-11.4,36.4h4.2c11.2-34.3,49.9-47.2,49.9-47.2S712.9,564.7,694.8,579.9z"
			/>
		<path class="st15" d="M682.8,494.9l4.8,121.3H678L682.8,494.9z"/>
		<path class="st30" d="M705.2,541.4c0,21.2-10,30.2-22.3,30.2s-22.3-9-22.3-30.2s22.3-46.4,22.3-46.4S705.2,520.2,705.2,541.4
			L705.2,541.4z"/>
		<path class="st31" d="M689.4,531.3c28.5,17.9,9.2,43.3-6.9,43.3c-16.2,0-29.3-16.6-29.3-37.2s16-37.2,16-37.2
			S668.4,518.2,689.4,531.3"/>
		<path class="st32" d="M676.5,531.3c-28.5,17.9-9.2,43.3,6.9,43.3c16.2,0,29.3-16.6,29.3-37.2s-15.8-37-15.8-37
			S697.5,518.2,676.5,531.3"/>
		<path class="st14" d="M665.9,576c12.7,12.7,16.8,40.3,16.8,40.3h-9.2c-14.8-35-51.4-60.7-51.4-60.7S653.2,563.5,665.9,576z"/>
	</g>
	<g>
		<g>
			<path class="st33" d="M814,451.4c17.3,4.8,19.6,18.7,16.6,29.3C822.3,478.4,809.2,468.7,814,451.4"/>
			<path class="st33" d="M881.6,445.3c-17.3-4.8-26.4,6-29.3,16.6C860.5,464.2,876.8,462.7,881.6,445.3"/>
		</g>
		<g>
			<path class="st34" d="M835.7,494.5c-0.4-0.1-0.8-0.4-1.2-0.7c-5.3-5.5-6.5-12.3-6.6-12.6c-0.3-1.4,0.7-2.8,2.2-3.1
				c1.4-0.3,2.8,0.7,3.1,2.2c0,0,1,5.5,5.2,9.8c1,1,1,2.7-0.1,3.7C837.6,494.5,836.6,494.7,835.7,494.5"/>
			<path class="st34" d="M830.3,521.8c-1.3-0.4-2.1-1.7-1.9-3c4.2-24.3,14.4-69.5,24.1-87.4c0.7-1.3,2.3-1.8,3.6-1.1
				c1.3,0.7,1.8,2.3,1.1,3.6c-8.8,16.5-19.1,60.1-23.5,85.8c-0.3,1.4-1.6,2.4-3.1,2.2C830.4,521.9,830.3,521.8,830.3,521.8"/>
		</g>
		<path class="st35" d="M843.2,387.3c-4.6-1.3-9.2,1.5-10.5,6.1s1.3,9.4,5.9,10.6c0.9,0.3,2.6,0.3,2.6,0.3c-4.2,2.4-6.8,7-3.8,12.2
			c2.9,5.1,8.2,5.3,12.4,3c0.1,0-0.8,1.5-1,2.4c-1.3,4.6,1.5,9.2,6.1,10.5s9.4-1.3,10.6-5.9c0.3-0.9,0.3-2.6,0.3-2.5
			c2.4,4.2,7.2,6.8,12.4,3.9c5.3-3,5.1-8.3,2.8-12.5c0,0,1.4,0.8,2.4,1c4.6,1.3,9.4-1.4,10.7-6.1c1.3-4.6-1.4-9.4-6.1-10.7
			c-0.9-0.3-2.6-0.3-2.6-0.3c4.2-2.4,7.1-6.9,4.1-12.3c-3-5.3-8.5-5.2-12.7-2.8c-0.1,0,0.8-1.5,1-2.4c1.3-4.6-1.4-9.4-6.1-10.7
			c-4.6-1.3-9.4,1.4-10.7,6.1c-0.3,0.9-0.3,2.6-0.3,2.5c-2.4-4.2-6.7-7.1-12.1-4c-5.3,3-5.4,8.4-3,12.6
			C845.6,388.4,844.1,387.6,843.2,387.3"/>
		<path class="st34" d="M841.8,470.1c-0.5-0.1-0.9-0.4-1.3-0.8c-1-1.1-0.9-2.8,0.2-3.7c5.8-5.1,10.5-6.1,11.1-6.2
			c1.4-0.3,2.8,0.7,3.1,2.1s-0.7,2.8-2.1,3.1c0,0-3.8,0.8-8.5,4.9C843.5,470.1,842.6,470.3,841.8,470.1"/>
		<path class="st13" d="M855.6,399.7c-1.2,4.2,1.3,8.6,5.5,9.8c4.2,1.2,8.6-1.3,9.8-5.5s-1.3-8.6-5.5-9.8
			C861.1,393,856.7,395.5,855.6,399.7"/>
	</g>
	<g>
		<path class="st14" d="M827.5,529c-16.2,6-24.4,33.1-24.4,33.1l4.3,1.5c23.5-31,67.5-30.5,67.5-30.5S851.3,519.9,827.5,529z"/>
		<path class="st15" d="M845.3,438.2l-37.9,125.3l-9.8-3.4L845.3,438.2z"/>
		<path class="st19" d="M851.7,493.4c-7.5,21.6-20.9,27.3-33.4,22.9c-12.6-4.3-19.6-17.1-12.1-38.7s39.1-39.4,39.1-39.4
			S859.1,471.8,851.7,493.4L851.7,493.4z"/>
		<path class="st20" d="M839.1,477.6c22.7,28.3-5.9,47.4-22.3,41.7s-24-27.2-16.7-48.2c7.3-21,29.4-32.2,29.4-32.2
			S822.3,456.9,839.1,477.6"/>
		<path class="st21" d="M826,473.1c-35.4,8.2-24.7,40.9-8.2,46.6s35.7-6.5,42.9-27.5c7.3-21-3.1-43.2-3.1-43.2S852,467.2,826,473.1"
			/>
		<path class="st14" d="M799.4,514.9c8.5,17.4,2.9,46.9,2.9,46.9l-9.4-3.3c-2.8-40.9-31-79.9-31-79.9S790.9,497.6,799.4,514.9z"/>
	</g>
	<g>
		<path class="st36" d="M490.3,406.6c0-1.2-4.3-3.3-11.2-3.3s-11.2,2.1-11.2,3.3s4.3,3.3,11.2,3.3
			C486,409.9,490.3,407.8,490.3,406.6z"/>
		<path class="st37" d="M479.9,415c0.8-0.8,1.7-1.6,2.6-2.3c-1.1,0.1-2.3,0.2-3.5,0.2c-0.9,0-1.9,0-2.8-0.1c-2.5,1.8-3,3.2-2.9,3.4
			c0.1,0.3,1.7,1,5.2,0.4C478.9,416,479.4,415.5,479.9,415z"/>
		<path class="st36" d="M482,396.2c4,4,7.8,5.8,9.6,5.8c0.2,0,0.6,0,0.7-0.2c0.8-0.8-0.7-5.4-5.6-10.3c-4-4-7.8-5.8-9.6-5.8
			c-0.2,0-0.6,0-0.7,0.2c-0.3,0.3-0.4,1.4,0.5,3.4C477.9,391.5,479.7,393.9,482,396.2z"/>
		<path class="st37" d="M514.2,398.3c-0.8,0.8-1.7,1.6-2.6,2.3c1.1-0.1,2.3-0.2,3.5-0.2c0.9,0,1.9,0,2.8,0.1c2.5-1.8,3-3.2,2.9-3.4
			c-0.1-0.3-1.7-1-5.2-0.4C515.2,397.3,514.7,397.8,514.2,398.3z"/>
		<path class="st37" d="M505.4,389.5c0.7-0.7,1.4-1.3,2.1-1.9c0.5-3.1-0.1-4.4-0.4-4.5c-0.3-0.1-1.9,0.5-3.9,3.4
			c0,0.7,0.1,1.4,0.1,2.1c0,1.2-0.1,2.3-0.2,3.5C503.8,391.2,504.6,390.3,505.4,389.5z"/>
		<path class="st37" d="M488.7,389.5c0.8,0.8,1.6,1.7,2.3,2.6c-0.1-1.1-0.2-2.3-0.2-3.5c0-0.9,0-1.9,0.1-2.8c-1.8-2.5-3.2-3-3.4-2.9
			c-0.3,0.1-1,1.7-0.4,5.2C487.7,388.5,488.2,389,488.7,389.5z"/>
		<path class="st37" d="M488.7,423.8c-0.7,0.7-1.4,1.3-2.1,1.9c-0.5,3.1,0.1,4.4,0.4,4.5c0.3,0.1,1.9-0.5,3.9-3.4
			c0-0.7-0.1-1.4-0.1-2.1c0-1.2,0.1-2.3,0.2-3.5C490.3,422.1,489.5,423,488.7,423.8z"/>
		<path class="st36" d="M497.1,399.8c1.2,0,3.3-4.3,3.3-11.2s-2.1-11.2-3.3-11.2s-3.3,4.3-3.3,11.2S495.9,399.8,497.1,399.8z"/>
		<path class="st37" d="M476.9,400.5c0.7,0,1.4-0.1,2.1-0.1c1.2,0,2.3,0.1,3.5,0.2c-0.9-0.7-1.7-1.5-2.6-2.3
			c-0.7-0.7-1.3-1.4-1.9-2.1c-3.1-0.5-4.4,0.1-4.5,0.4C473.4,396.9,474,398.5,476.9,400.5z"/>
		<path class="st37" d="M517.2,412.8c-0.7,0-1.4,0.1-2.1,0.1c-1.2,0-2.3-0.1-3.5-0.2c0.9,0.7,1.7,1.5,2.6,2.3
			c0.7,0.7,1.3,1.3,1.9,2.1c3.1,0.5,4.4-0.1,4.5-0.4C520.8,416.4,520.2,414.8,517.2,412.8z"/>
		<path class="st37" d="M505.4,423.8c-0.8-0.8-1.6-1.7-2.3-2.6c0.1,1.1,0.2,2.3,0.2,3.5c0,0.9,0,1.9-0.1,2.8c1.8,2.5,3.2,3,3.4,2.9
			c0.3-0.1,1-1.7,0.4-5.2C506.5,424.8,505.9,424.3,505.4,423.8z"/>
		<path class="st36" d="M502.6,411.3c-0.2,0-0.6,0-0.7,0.2c-0.3,0.3-0.4,1.4,0.5,3.4c1,2.2,2.8,4.6,5.1,6.9c4,4,7.8,5.8,9.6,5.8
			c0.2,0,0.6,0,0.7-0.2c0.8-0.8-0.7-5.4-5.6-10.3C508.2,413.1,504.4,411.3,502.6,411.3z"/>
		<path class="st36" d="M518.2,403.5C518.2,403.5,518.2,403.5,518.2,403.5c-1-0.1-2-0.2-3.1-0.2c-7,0-11.2,2.1-11.2,3.3
			s4.3,3.3,11.2,3.3s11.2-2.1,11.2-3.3C526.4,405.7,523.3,404,518.2,403.5z"/>
		<path class="st38" d="M497.1,402.7c-2.2,0-3.9,1.8-3.9,3.9s1.8,3.9,3.9,3.9s3.9-1.8,3.9-3.9C501,404.5,499.2,402.7,497.1,402.7z"
			/>
		<path class="st39" d="M498.5,477.4c2.1-2.5,5.1-6.5,7.6-10.8c0.4-0.7,1.3-0.9,2-0.5c0.7,0.4,0.9,1.3,0.5,2
			c-3.9,6.7-8.7,12.3-10.1,13.8v0.6c14.1-4.7,18.4-28.4,19.5-37.7c-15.6,14.9-19.2,30.1-19.5,31.6L498.5,477.4L498.5,477.4z"/>
		<path class="st36" d="M497.1,413.4c-1.2,0-3.3,4.3-3.3,11.2s2.1,11.2,3.3,11.2s3.3-4.3,3.3-11.2S498.2,413.4,497.1,413.4z"/>
		<path class="st36" d="M502.6,402c1.8,0,5.6-1.8,9.6-5.8c4.9-4.9,6.4-9.5,5.6-10.3c-0.2-0.2-0.5-0.2-0.7-0.2
			c-1.5,0-4.2,1.2-7.3,3.7c0,0,0,0,0,0c-0.7,0.6-1.5,1.3-2.2,2c-2.3,2.3-4.1,4.7-5.1,6.9c-0.9,2-0.8,3.1-0.5,3.4
			C502,402,502.4,402,502.6,402z"/>
		<path class="st36" d="M491.5,411.3c-1.8,0-5.6,1.8-9.6,5.8c-2.3,2.3-4.1,4.7-5.1,6.9c-0.9,2-0.8,3.1-0.5,3.4
			c0.2,0.2,0.5,0.2,0.7,0.2c1.8,0,5.6-1.8,9.6-5.8c4.9-4.9,6.4-9.5,5.6-10.3C492.1,411.3,491.7,411.3,491.5,411.3z"/>
		<path class="st40" d="M521.8,401.1c1.8-1.8,2.4-3.6,1.8-5.1c-0.7-1.7-2.6-2.5-5.4-2.5c2.6-3.8,3.7-7.7,1.7-9.7
			c-0.5-0.5-1.3-1-2.8-1c-1.8,0-4,0.9-6.5,2.4c0-2.5-0.8-4.2-2.3-4.9c-1.6-0.7-3.6,0.1-5.5,2.1c-0.9-4.5-2.8-8-5.7-8
			c-2.8,0-4.6,3.2-5.5,7.5c-1.8-1.8-3.6-2.4-5.1-1.8c-1.7,0.7-2.5,2.6-2.5,5.4c-2.6-1.7-5-2.7-6.9-2.7c-1.4,0-2.3,0.6-2.8,1
			c-1,1-1.8,2.9,0,6.6c0.4,0.8,0.9,1.7,1.4,2.6c-2.5,0-4.2,0.8-4.8,2.3c-0.7,1.6,0.1,3.6,2.1,5.5c-4.5,0.9-8,2.8-8,5.7
			c0,2.8,3.2,4.6,7.5,5.5c-1.8,1.8-2.4,3.6-1.8,5.1c0.7,1.6,2.5,2.5,5.2,2.5c0.1,0,0.1,0,0.2,0c-0.7,1-1.3,2.1-1.7,3
			c-1.7,3.8-0.9,5.7,0,6.6c0.5,0.5,1.3,1,2.8,1c1.8,0,4-0.9,6.5-2.4c0,2.5,0.8,4.2,2.3,4.9c0.4,0.2,0.8,0.3,1.3,0.3
			c1.3,0,2.8-0.8,4.3-2.3c0.7,3.7,2.1,6.8,4.2,7.7v63.4c0,0.8,0.7,1.5,1.5,1.5s1.5-0.7,1.5-1.5v-16.4c8.3-2.3,14.9-10.5,19-23.9
			c3.2-10.3,3.8-20,3.8-20.4c0-0.6-0.3-1.1-0.8-1.4c-0.5-0.3-1.2-0.2-1.6,0.2c-11.4,9.9-17.4,20.2-20.4,27.3v-28.8
			c2-0.9,3.3-3.7,4.1-7.2c1.3,1.3,2.7,2,3.9,2c0.4,0,0.8-0.1,1.2-0.2c1.7-0.7,2.5-2.6,2.5-5.4c2.6,1.7,5,2.7,6.9,2.7
			c1.4,0,2.3-0.6,2.8-1c2-2,1-5.6-1.4-9.2c2.5,0,4.2-0.8,4.8-2.3c0.7-1.6-0.1-3.6-2.1-5.5c4.5-0.9,8-2.8,8-5.7
			C529.3,403.9,526,402,521.8,401.1z M520.8,397.1c0.1,0.3-0.4,1.6-2.9,3.4c-0.9-0.1-1.9-0.1-2.8-0.1c-1.2,0-2.3,0.1-3.5,0.2
			c0.9-0.7,1.7-1.5,2.6-2.3c0.5-0.5,1-1,1.4-1.5C519.2,396.1,520.7,396.8,520.8,397.1z M503.2,386.5c2-2.9,3.6-3.5,3.9-3.4
			c0.3,0.1,0.9,1.4,0.4,4.5c-0.7,0.6-1.4,1.2-2.1,1.9c-0.8,0.8-1.6,1.7-2.3,2.6c0.1-1.1,0.2-2.3,0.2-3.5
			C503.3,387.9,503.3,387.2,503.2,386.5z M497.1,377.3c1.2,0,3.3,4.3,3.3,11.2s-2.1,11.2-3.3,11.2s-3.3-4.3-3.3-11.2
			C493.8,381.6,495.9,377.3,497.1,377.3z M487.5,382.9c0.3-0.1,1.6,0.4,3.4,2.9c-0.1,0.9-0.1,1.9-0.1,2.8c0,1.2,0.1,2.3,0.2,3.5
			c-0.7-0.9-1.5-1.8-2.3-2.6c-0.5-0.5-1-1-1.5-1.4C486.5,384.5,487.2,383,487.5,382.9z M476.4,385.9c0.2-0.2,0.5-0.2,0.7-0.2
			c1.8,0,5.6,1.8,9.6,5.8c4.9,4.9,6.4,9.5,5.6,10.3c-0.2,0.2-0.5,0.2-0.7,0.2c-1.8,0-5.6-1.8-9.6-5.8c-2.3-2.3-4.1-4.7-5.1-6.9
			C476,387.3,476.1,386.2,476.4,385.9z M473.5,396.6c0.1-0.3,1.4-0.9,4.5-0.4c0.6,0.7,1.2,1.4,1.9,2.1c0.8,0.8,1.7,1.6,2.6,2.3
			c-1.1-0.1-2.3-0.2-3.5-0.2c-0.7,0-1.4,0-2.1,0.1C474,398.5,473.4,396.9,473.5,396.6z M467.8,406.6c0-1.2,4.3-3.3,11.2-3.3
			s11.2,2.1,11.2,3.3s-4.3,3.3-11.2,3.3S467.8,407.8,467.8,406.6z M473.3,416.2c-0.1-0.3,0.4-1.6,2.9-3.4c0.9,0.1,1.9,0.1,2.8,0.1
			c1.2,0,2.3-0.1,3.5-0.2c-0.9,0.7-1.7,1.5-2.6,2.3c-0.5,0.5-1,1-1.4,1.5C475,417.2,473.4,416.5,473.3,416.2z M490.9,426.8
			c-2,2.9-3.6,3.5-3.9,3.4c-0.3-0.1-0.9-1.4-0.4-4.5c0.7-0.6,1.4-1.2,2.1-1.9c0.8-0.8,1.6-1.7,2.3-2.6c-0.1,1.1-0.2,2.3-0.2,3.5
			C490.9,425.4,490.9,426.1,490.9,426.8z M486.6,421.7c-4,4-7.8,5.8-9.6,5.8c-0.2,0-0.6,0-0.7-0.2c-0.3-0.3-0.4-1.4,0.5-3.4
			c1-2.2,2.8-4.6,5.1-6.9c4-4,7.8-5.8,9.6-5.8c0.2,0,0.6,0,0.7,0.2C493.1,412.3,491.6,416.8,486.6,421.7z M518,444.8
			c-1.1,9.3-5.4,33-19.5,37.7v-0.6c1.4-1.5,6.2-7.1,10.1-13.8c0.4-0.7,0.2-1.6-0.5-2c-0.7-0.4-1.6-0.2-2,0.5
			c-2.5,4.4-5.5,8.3-7.6,10.8v-1C498.8,474.9,502.5,459.7,518,444.8z M497.1,435.9c-1.2,0-3.3-4.3-3.3-11.2s2.1-11.2,3.3-11.2
			s3.3,4.3,3.3,11.2C500.4,431.7,498.2,435.9,497.1,435.9z M497.1,410.5c-2.2,0-3.9-1.8-3.9-3.9s1.8-3.9,3.9-3.9s3.9,1.8,3.9,3.9
			C501,408.8,499.2,410.5,497.1,410.5z M502.4,398.4c1-2.2,2.8-4.6,5.1-6.9c0.8-0.8,1.5-1.4,2.2-2c0,0,0,0,0,0
			c3.1-2.5,5.8-3.7,7.3-3.7c0.2,0,0.6,0,0.7,0.2c0.8,0.8-0.7,5.4-5.6,10.3c-4,4-7.8,5.8-9.6,5.8c-0.2,0-0.6,0-0.7-0.2
			C501.6,401.5,501.5,400.4,502.4,398.4z M506.6,430.4c-0.3,0.1-1.6-0.4-3.4-2.9c0.1-0.9,0.1-1.9,0.1-2.8c0-1.2-0.1-2.3-0.2-3.5
			c0.7,0.9,1.5,1.7,2.3,2.6c0.5,0.5,1,1,1.5,1.4C507.6,428.7,506.9,430.3,506.6,430.4z M517.8,427.3c-0.2,0.2-0.5,0.2-0.7,0.2
			c-1.8,0-5.6-1.8-9.6-5.8c-2.3-2.3-4.1-4.7-5.1-6.9c-0.9-2-0.8-3.1-0.5-3.4c0.2-0.2,0.5-0.2,0.7-0.2c1.8,0,5.6,1.8,9.6,5.8
			C517.1,422,518.6,426.5,517.8,427.3z M520.6,416.7c-0.1,0.3-1.4,0.9-4.5,0.4c-0.6-0.7-1.2-1.4-1.9-2.1c-0.8-0.8-1.7-1.6-2.6-2.3
			c1.1,0.1,2.3,0.2,3.5,0.2c0.7,0,1.4,0,2.1-0.1C520.2,414.8,520.8,416.4,520.6,416.7z M515.1,409.9c-7,0-11.2-2.1-11.2-3.3
			s4.3-3.3,11.2-3.3c1.1,0,2.1,0,3,0.1c0,0,0,0,0.1,0c5.1,0.5,8.2,2.2,8.2,3.2C526.4,407.8,522.1,409.9,515.1,409.9z"/>
	</g>
	<g>
		<g>
			<path class="st41" d="M462.5,585.8c-4.5-0.4-11.2-0.1-18.4-4.6c-17-10.5-27.1-35.3-34-50.4c-1.4-3.1-0.2-3.6,2-3
				c3.7,1,10.1,5,11.2,5.8c29.1,19.7,47.5,38.7,49.6,45.3C475.1,585.8,465.3,586,462.5,585.8L462.5,585.8z"/>
			<g>
				<g>
					<defs>
						<path id="SVGID_1_" d="M462.5,585.8c-4.5-0.4-11.2-0.1-18.4-4.6c-17-10.5-27.1-35.3-34-50.4c-1.4-3.1-0.2-3.6,2-3
							c3.7,1,10.1,5,11.2,5.8c29.1,19.7,47.5,38.7,49.6,45.3C475.1,585.8,465.3,586,462.5,585.8L462.5,585.8z"/>
					</defs>
					<clipPath id="SVGID_00000110466537927942296060000009208321897027228065_">
						<use xlink:href="#SVGID_1_"  style="overflow:visible;"/>
					</clipPath>
					<path style="clip-path:url(#SVGID_00000110466537927942296060000009208321897027228065_);fill:#BDCF48;" d="M477.3,587.4
						c0-16.9-8.6-21.5-8.6-21.5C441,532.1,408.5,522,408.5,522l-0.3,6.8c7.1,0.3,43.9,33.5,54,47.6c3.9,5.5,4.7,9.3,4.7,9.3
						L477.3,587.4z"/>
				</g>
			</g>
			<path class="st43" d="M436.5,473.8c0.8-4.9,8.4-22.9,20-23.7c8-0.5,17.4,6.8,19.7,18.1c2.3,10.9,5.3,22.2,0.1,32.5
				c-4.3,8.5-14.1,18.6-24.6,12.3C440,506.1,434.2,488.4,436.5,473.8L436.5,473.8z"/>
			<path class="st44" d="M444.1,473.7c0.5-3.1,5.3-14.4,12.6-14.9c5-0.3,10.9,4.3,12.4,11.4c1.4,6.8,3.3,14,0.1,20.4
				c-2.7,5.4-8.9,11.7-15.5,7.8C446.4,493.9,442.7,482.8,444.1,473.7L444.1,473.7z"/>
			<path class="st41" d="M466.1,581.5c-0.2,0.5-0.3,1.1-0.6,1.6c-0.4,1-0.8,1.9-1.2,2.9c-0.3,0.8-0.7,1.8-1.6,2.1
				c-1.1,0.4-2.5,0.2-3.7-0.1c-4.7-1.4-3-5.8-2.3-9.2c1.5-6.9,3-13.8,3.5-20.9c0.5-7.3,0-14.5,0-21.8c0-0.1,0-3.1-0.1-3.1h9.3v3.4
				c0,5.3,0,10.5-0.1,15.8C469.1,561.9,468.9,572,466.1,581.5L466.1,581.5z"/>
			<g>
				<path class="st41" d="M448.4,590.5c2.2-6.6,20.5-25.6,49.6-45.3c1.1-0.8,7.5-4.8,11.2-5.8c2.2-0.6,3.4-0.1,2,3
					c-7,15.2-17,39.9-34,50.4c-7.2,4.4-13.9,4.1-18.4,4.6C456,597.7,446.1,597.5,448.4,590.5L448.4,590.5z"/>
				<g>
					<g>
						<defs>
							<path id="SVGID_00000147927242178569249990000017678192511034479545_" d="M448.4,590.5c2.2-6.6,20.5-25.6,49.6-45.3
								c1.1-0.8,7.5-4.8,11.2-5.8c2.2-0.6,3.4-0.1,2,3c-7,15.2-17,39.9-34,50.4c-7.2,4.4-13.9,4.1-18.4,4.6
								C456,597.7,446.1,597.5,448.4,590.5L448.4,590.5z"/>
						</defs>
						<clipPath id="SVGID_00000060709672575864028070000007320028021522398384_">
							<use xlink:href="#SVGID_00000147927242178569249990000017678192511034479545_"  style="overflow:visible;"/>
						</clipPath>
						<path style="clip-path:url(#SVGID_00000060709672575864028070000007320028021522398384_);fill:#BDCF48;" d="M454.5,597.3
							c0,0,0.8-3.8,4.7-9.3c10.1-14.1,46.9-47.3,54-47.6l-0.3-6.8c0,0-32.6,10.1-60.2,43.9c0,0-8.6,4.6-8.6,21.5L454.5,597.3
							L454.5,597.3z"/>
					</g>
				</g>
			</g>
			<path class="st43" d="M475.3,458.6c3.1-3.2,8.9-8.4,15-2.3c-2-3-3.9-5-5.6-6.2c-2.5-1.8-5.3-2.2-8-0.4
				c-12.1,8.1-20.4,30.3-22.5,50c-0.1,0.6-0.1,2-0.1,4c1-7.5,2.7-13.9,3.3-15.6C461.5,476.3,469.1,465,475.3,458.6z"/>
			<g>
				<path class="st44" d="M501.7,496.7c-2-20.9-6.8-33.3-11.3-40.3c-6.1-6.1-11.9-0.9-15,2.3c-6,6.1-13.3,16.9-17.4,28.3
					c-6.8-9.8-16-20.4-24-22.1c-2.9-0.7-6.4-1.3-9.8,3.9c-1.2,1.9-2.5,4.7-3.5,8.7c-0.8,7.3-0.7,16.6,0.9,28.3
					c1.4,10.7,4.6,17.1,5.7,19.3c7.9,16,24.3,17.6,27.3,17.6c13.9,1.7,23.2-2.6,23.3-2.6h0c2.9-0.7,18.5-5.8,22.7-23.2
					C501,514.3,502.7,507.4,501.7,496.7L501.7,496.7z"/>
				<path class="st43" d="M434,464.8c13.3,2.9,29.9,30.4,33.7,38.2c0.3,0.7,1.2,3.2,2.1,6.6c-1-5.4-2.3-9.7-2.8-10.8
					c-3.8-10.2-18.1-39.2-31.7-44.4c-3-1.1-5.6-0.2-7.7,2.2c-2.7,3.1-5.8,9.6-7,20.9c1-4,2.3-6.8,3.5-8.7
					C427.5,463.5,431,464.2,434,464.8L434,464.8z"/>
			</g>
		</g>
		<g>
			<path class="st41" d="M437.8,582.4c-3.5,0.8-8.5,2.7-15,1.1c-15.5-3.8-29.1-20.1-38.1-29.8c-1.8-2-1-2.7,0.8-2.8
				c3-0.2,8.8,1.3,9.9,1.6c26.9,7.8,45.4,17.7,48.7,22.2C447.3,579.4,439.9,581.9,437.8,582.4L437.8,582.4z"/>
			<g>
				<g>
					<defs>
						<path id="SVGID_00000086667755019642980690000006357973618493342135_" d="M437.8,582.4c-3.5,0.8-8.5,2.7-15,1.1
							c-15.5-3.8-29.1-20.1-38.1-29.8c-1.8-2-1-2.7,0.8-2.8c3-0.2,8.8,1.3,9.9,1.6c26.9,7.8,45.4,17.7,48.7,22.2
							C447.3,579.4,439.9,581.9,437.8,582.4L437.8,582.4z"/>
					</defs>
					<clipPath id="SVGID_00000139277199009968267230000002067185270250578603_">
						<use xlink:href="#SVGID_00000086667755019642980690000006357973618493342135_"  style="overflow:visible;"/>
					</clipPath>
					<path style="clip-path:url(#SVGID_00000139277199009968267230000002067185270250578603_);fill:#BDCF48;" d="M449.3,580.1
						c-4.1-12.8-11.8-14.2-11.8-14.2c-29.2-18.8-56.4-18.5-56.4-18.5l1.4,5.2c5.4-1.5,41.5,14.6,52.6,22.8c4.3,3.2,5.8,5.9,5.8,5.9
						L449.3,580.1z"/>
				</g>
			</g>
			<path class="st47" d="M390.6,504.1c-0.6-3.9,0.7-19.4,9.3-22.8c5.9-2.4,14.8,0.9,19.4,8.8c4.4,7.7,9.5,15.5,8,24.6
				c-1.2,7.5-6.1,17.5-15.6,15.4C401.2,527.6,392.4,515.7,390.6,504.1L390.6,504.1z"/>
			<path class="st48" d="M396.3,502.1c-0.4-2.5,0.5-12.2,5.9-14.4c3.7-1.5,9.3,0.5,12.2,5.6c2.8,4.8,5.9,9.8,5,15.4
				c-0.7,4.7-3.9,11-9.8,9.7C403,516.9,397.5,509.3,396.3,502.1L396.3,502.1z"/>
			<path class="st41" d="M439.4,578.3c0,0.5,0,0.9,0,1.3c0,0.8-0.1,1.7-0.2,2.5c-0.1,0.7-0.1,1.5-0.7,2c-0.8,0.6-1.9,0.8-2.8,0.8
				c-3.9,0.1-3.7-3.6-4-6.4c-0.5-5.6-1.2-11.2-2.5-16.7c-1.4-5.6-3.5-11-5.3-16.5c0-0.1-0.8-2.3-0.8-2.3l7-2.3l0.8,2.6
				c1.3,4,2.6,8,3.8,12C436.9,562.8,439.2,570.5,439.4,578.3L439.4,578.3z"/>
			<g>
				<path class="st41" d="M428.2,589.5c0-5.5,9.2-24.4,26.4-46.5c0.7-0.9,4.5-5.5,7.1-7.1c1.5-1,2.6-0.9,2.3,1.8
					c-1.6,13.2-3.1,34.4-13.4,46.5c-4.3,5.1-9.5,6.5-12.8,8C435.7,593.1,428.2,595.3,428.2,589.5L428.2,589.5z"/>
				<g>
					<g>
						<defs>
							<path id="SVGID_00000165231720307615642000000016423893434854165906_" d="M428.2,589.5c0-5.5,9.2-24.4,26.4-46.5
								c0.7-0.9,4.5-5.5,7.1-7.1c1.5-1,2.6-0.9,2.3,1.8c-1.6,13.2-3.1,34.4-13.4,46.5c-4.3,5.1-9.5,6.5-12.8,8
								C435.7,593.1,428.2,595.3,428.2,589.5L428.2,589.5z"/>
						</defs>
						<clipPath id="SVGID_00000170966523653263311950000010409942126105952661_">
							<use xlink:href="#SVGID_00000165231720307615642000000016423893434854165906_"  style="overflow:visible;"/>
						</clipPath>
						<path style="clip-path:url(#SVGID_00000170966523653263311950000010409942126105952661_);fill:#BDCF48;" d="M434.5,593.2
							c0,0-0.4-3.1,1.2-8.2c4.2-13.2,23.9-47.3,29.2-49.3l-1.9-5c0,0-22.2,15.7-34.8,48c0,0-5.4,5.6-1.2,18.4L434.5,593.2
							L434.5,593.2z"/>
					</g>
				</g>
			</g>
			<path class="st50" d="M416.3,483c1.6-3.2,4.7-8.6,10.8-5.4c-2.2-1.8-4.2-2.8-5.8-3.3c-2.4-0.8-4.5-0.3-6.1,1.7
				c-7.2,9.1-8,27.9-4.7,43.4c0.1,0.5,0.4,1.5,0.9,3c-1.1-6-1.4-11.2-1.3-12.6C410.1,499.8,413.1,489.3,416.3,483z"/>
			<g>
				<path class="st51" d="M445.5,505.4c-6.6-15.3-13.3-23.6-18.5-27.8c-6.1-3.1-9.3,2.3-10.8,5.4c-3,6.1-5.9,16.1-6.2,25.7
					c-7.6-5.8-17.1-11.5-23.6-10.9c-2.4,0.2-5.2,0.6-6.5,5.4c-0.5,1.7-0.8,4.2-0.5,7.5c1.2,5.7,3.5,12.7,7.6,21.2
					c3.7,7.7,7.7,11.8,9,13.2c9.9,10.2,22.7,7.3,25,6.6c10.9-2.1,16.9-7.6,17-7.7l0,0c2-1.2,12.6-8.9,11.5-23.1
					C449.3,518.9,448.9,513.2,445.5,505.4L445.5,505.4z"/>
				<path class="st52" d="M386.4,497.9c10.8-1,30.1,15.7,34.9,20.7c0.4,0.4,1.7,2.1,3.2,4.5c-2.1-3.9-4.1-6.8-4.8-7.5
					c-5.4-6.8-23.3-25.2-34.9-25.8c-2.5-0.1-4.3,1.2-5.3,3.5c-1.3,3-2.1,8.7-0.2,17.5c-0.2-3.3,0-5.7,0.5-7.5
					C381.3,498.5,384.1,498.1,386.4,497.9L386.4,497.9z"/>
			</g>
		</g>
		<g>
			<path class="st41" d="M487.2,582.1c3.4,1.2,8.1,3.8,14.8,3c15.8-1.7,31.5-16.1,41.7-24.6c2.1-1.7,1.4-2.5-0.4-2.8
				c-3-0.5-8.9,0.2-10,0.3c-27.7,4.2-47.3,11.6-51.1,15.6C478.1,577.9,485.1,581.4,487.2,582.1L487.2,582.1z"/>
			<g>
				<g>
					<defs>
						<path id="SVGID_00000127764516074785100330000005005301710742102413_" d="M487.2,582.1c3.4,1.2,8.1,3.8,14.8,3
							c15.8-1.7,31.5-16.1,41.7-24.6c2.1-1.7,1.4-2.5-0.4-2.8c-3-0.5-8.9,0.2-10,0.3c-27.7,4.2-47.3,11.6-51.1,15.6
							C478.1,577.9,485.1,581.4,487.2,582.1L487.2,582.1z"/>
					</defs>
					<clipPath id="SVGID_00000146481988078998471470000017716717561912392878_">
						<use xlink:href="#SVGID_00000127764516074785100330000005005301710742102413_"  style="overflow:visible;"/>
					</clipPath>
					<path style="clip-path:url(#SVGID_00000146481988078998471470000017716717561912392878_);fill:#BDCF48;" d="M476,578.3
						c5.8-12.1,13.5-12.5,13.5-12.5c31.4-14.8,58.3-11,58.3-11l-2.1,5c-5.2-2.2-43,9.1-55.1,15.8c-4.7,2.6-6.5,5.1-6.5,5.1
						L476,578.3z"/>
				</g>
			</g>
			<path class="st54" d="M544.2,510.6c1.1-3.8,1.8-19.3-6.3-23.9c-5.6-3.1-14.8-1-20.3,6.3c-5.4,7-11.4,14.2-11.2,23.3
				c0.2,7.6,3.8,18.2,13.4,17.3C530.6,532.6,540.8,521.9,544.2,510.6L544.2,510.6z"/>
			<path class="st55" d="M538.7,507.9c0.7-2.4,1.1-12.2-4-15c-3.5-2-9.3-0.7-12.8,3.9c-3.4,4.4-7.2,8.9-7,14.7
				c0.1,4.8,2.4,11.4,8.5,10.9C530.2,521.7,536.6,514.9,538.7,507.9L538.7,507.9z"/>
			<path class="st41" d="M486.1,577.8c-0.1,0.4-0.1,0.9-0.2,1.3c0,0.8-0.1,1.7-0.2,2.5c0,0.7-0.1,1.5,0.4,2.1c0.7,0.7,1.8,1,2.7,1.2
				c3.8,0.6,4.2-3.1,4.8-5.8c1.3-5.5,2.6-11,4.7-16.2c2.1-5.4,5-10.5,7.4-15.7c0-0.1,1-2.2,1.1-2.2l-6.7-3.2l-1.2,2.5
				c-1.8,3.8-3.6,7.6-5.3,11.4C490.6,562.8,487.3,570.1,486.1,577.8L486.1,577.8z"/>
			<g>
				<path class="st41" d="M495.7,590.4c0.7-5.5-6-25.4-20.2-49.5c-0.5-0.9-3.8-6-6.1-8c-1.4-1.2-2.4-1.2-2.5,1.5
					c-0.2,13.3-1.4,34.5,7.3,47.9c3.6,5.6,8.6,7.7,11.7,9.6C487.8,592.9,495,596.2,495.7,590.4L495.7,590.4z"/>
				<g>
					<g>
						<defs>
							<path id="SVGID_00000103241962622611998160000012667709696902150790_" d="M495.7,590.4c0.7-5.5-6-25.4-20.2-49.5
								c-0.5-0.9-3.8-6-6.1-8c-1.4-1.2-2.4-1.2-2.5,1.5c-0.2,13.3-1.4,34.5,7.3,47.9c3.6,5.6,8.6,7.7,11.7,9.6
								C487.8,592.9,495,596.2,495.7,590.4L495.7,590.4z"/>
						</defs>
						<clipPath id="SVGID_00000119083276736266778040000016184714426453306555_">
							<use xlink:href="#SVGID_00000103241962622611998160000012667709696902150790_"  style="overflow:visible;"/>
						</clipPath>
						<path style="clip-path:url(#SVGID_00000119083276736266778040000016184714426453306555_);fill:#BDCF48;" d="M489.1,593.2
							c0,0,0.8-3-0.2-8.3c-2.4-13.6-17.5-50.1-22.5-52.7l2.5-4.8c0,0,19.9,18.4,28.3,52.2c0,0,4.6,6.3-1.2,18.4L489.1,593.2
							L489.1,593.2z"/>
					</g>
				</g>
			</g>
			<path class="st57" d="M521.5,486.4c-1.1-3.3-3.5-9.1-10-6.8c2.5-1.5,4.5-2.3,6.2-2.6c2.5-0.5,4.5,0.3,5.8,2.4
				c5.9,10,4.3,28.7-1,43.7c-0.2,0.5-0.6,1.5-1.3,2.9c1.9-5.8,2.8-10.9,3-12.4C525.4,503.8,523.7,493.1,521.5,486.4z"/>
			<g>
				<path class="st58" d="M489.5,504.7c8.5-14.3,16.3-21.7,21.9-25.1c6.5-2.3,8.9,3.5,10,6.8c2.2,6.4,3.8,16.7,2.8,26.3
					c8.3-4.7,18.4-9.2,24.8-7.7c2.3,0.5,5,1.3,5.7,6.2c0.3,1.8,0.2,4.3-0.5,7.5c-2,5.5-5.2,12.1-10.3,20
					c-4.7,7.2-9.1,10.7-10.7,11.9c-11.2,8.8-23.5,4.3-25.6,3.3c-10.6-3.5-15.8-9.8-15.8-9.8l0,0c-1.8-1.5-11.3-10.5-8.4-24.4
					C484,517.6,485.1,512.1,489.5,504.7L489.5,504.7z"/>
				<path class="st59" d="M549.1,505c-10.6-2.5-31.8,11.6-37.3,16c-0.5,0.4-2,1.9-3.8,4c2.6-3.6,5-6.2,5.7-6.8
					c6.2-6,26.4-22,37.9-21.1c2.5,0.2,4.1,1.8,4.8,4.2c0.9,3.2,0.9,8.9-2.1,17.4c0.7-3.2,0.7-5.7,0.5-7.5
					C554.1,506.2,551.4,505.5,549.1,505L549.1,505z"/>
			</g>
		</g>
	</g>
	<g>
		<path class="st5" d="M147.9,649.1h21.7c-22.1-83,16.5-98.6,36.1-102.9C147.9,540.6,147.9,557.8,147.9,649.1z"/>
		<path class="st5" d="M109.7,564.1c4.4,1.2,34.9,32.8,31.9,85h19.1C160.7,593.7,144.7,565.5,109.7,564.1z"/>
		<path class="st5" d="M120.5,602.6c2.5,0.6,20.1,17.9,18.4,46.5h11C149.9,618.8,140.7,603.4,120.5,602.6z"/>
		<path class="st5" d="M162.3,648.6h10.8c-11-34.3,8.2-40.8,18-42.5C162.3,603.7,162.3,610.8,162.3,648.6z"/>
		<path class="st5" d="M123.2,632.4c3.1,0.3,24.3,7.1,22.2,18.4h13.3C158.7,638.8,147.6,632.7,123.2,632.4z"/>
		<path class="st5" d="M181.8,634.2c-2.5,0.2-19.3,6.4-17.6,16.6h-10.6C153.6,639.9,162.4,634.4,181.8,634.2z"/>
	</g>
	<g>
		<path class="st60" d="M919.8,594.8c0,0-11.3-0.7-18.8,5.2c-7.5,5.9-9.8,17.2-9.8,17.2s12,0.2,19.5-5.7
			C918.1,605.6,919.8,594.8,919.8,594.8z"/>
		<path class="st61" d="M919.8,594.8l-28.7,22.4c0,0,12,0.2,19.5-5.7C918.1,605.6,919.8,594.8,919.8,594.8z"/>
		<path class="st60" d="M862.4,607.2c0,0,11.3-0.7,18.8,5.2c7.5,5.9,9.8,17.2,9.8,17.2s-12,0.2-19.5-5.7
			C864,618.1,862.4,607.2,862.4,607.2z"/>
		<path class="st61" d="M862.4,607.2l28.7,22.4c0,0-12,0.2-19.5-5.7C864,618.1,862.4,607.2,862.4,607.2z"/>
		<path class="st60" d="M892.3,574.1c0,5.4-9,12.5-25.9,12.5c3.7-5.3,7.7-14,7.7-15.9L892.3,574.1z"/>
		<path class="st61" d="M889.8,574.1c0,5.4,9,12.5,25.9,12.5c-3.7-5.3-7.7-14-7.7-15.9L889.8,574.1z"/>
		<rect x="887.2" y="571" class="st60" width="7.8" height="63"/>
		<rect x="891.1" y="571" class="st61" width="3.9" height="63"/>
		<path class="st62" d="M894.1,499.6c-6.6-6.9-19.4-8.8-19.4-8.8c-0.2,9.6-5.9,14.9-5.9,14.9v31.8h25.3V499.6L894.1,499.6z"/>
		<path class="st63" d="M911.5,505.5c0,0-0.5-5-0.1-9.7c0,0-23,0.5-31.8,15.9v21.1h31.9L911.5,505.5L911.5,505.5z"/>
		<path class="st64" d="M859.9,501.7c1.7,5.3,6.9,23.2,0.5,39.3h26v-23.8C878.9,509.1,859.9,501.7,859.9,501.7z"/>
		<path class="st65" d="M922.3,501.7c-1.4,4.4-7.5,20.5-1.1,36.5c6.4,16.1,11.5,39.6-30.2,39.6c-12.9,0-24.2-2.5-29.4-8.2
			c-9.6-10.5-4.6-28.7,7.1-40.2C883.7,514.7,919,502.6,922.3,501.7z"/>
	</g>
	<g>
		<path class="st15" d="M335.7,530.3l6.1,113.6h-12.2L335.7,530.3z"/>
		<path class="st14" d="M321.6,598.4c16.5,9,12.9,24.6,12.9,24.6s-13.6,12.4-30.4,3.4c-11.4-6.1-21.4-30.2-21.4-30.2
			S309.9,592.3,321.6,598.4"/>
		<path class="st66" d="M355.1,606l-17.8-5.1l-0.2,9.7L355.1,606z"/>
		<path class="st67" d="M317.9,542.2c9,23.1,12.7,35.3,28.5,35.3s39.7-40.4,16.8-53.5c-22.4-12.9-21.7-30.9-21.7-30.9
			S303.1,504.5,317.9,542.2L317.9,542.2z"/>
		<path class="st68" d="M365.6,547.1c-11.7,22.1-12.7,35.3-28.5,35.3s-44.5-53-19-61.1c31.6-10,39.7-21.7,39.7-21.7
			S382.9,514,365.6,547.1"/>
		<path class="st69" d="M367.5,527.1c0-9.5-41.4-17.5-48.7-32.4c0,0-20,14.3-12.4,29.2C310.9,532.2,367.3,559.3,367.5,527.1"/>
		<path class="st70" d="M345.2,535.7c25.3,31.6,11.7,50.6-9,50.6s-43.3-20-37.5-43.3c5.8-23.4-2.4-43.3-2.4-43.3
			S326,511.6,345.2,535.7"/>
		<path class="st71" d="M322.1,533.2c-28.7,29-5.1,52.8,15.6,52.8s37.5-19.5,37.5-43.3c0-23.8,6.3-38.4,6.3-38.4
			S342.5,512.5,322.1,533.2"/>
		<path class="st15" d="M338.4,576c31.9-0.5,18,12.2-2.7,12.2c-50.8,0-48.7-44.5-48.7-44.5S309.9,576.3,338.4,576"/>
		<path class="st14" d="M338.4,576c-8.5,3.4-30.9,8.5-10.7,12.4c39.9,8,56.7-43.3,56.7-43.3S363.9,565.6,338.4,576z"/>
	</g>
	<g>
		<path class="st6" d="M507.5,478.1c30.8,6.8,91.4,31.7,56.7,164h34C598.2,496.5,598.2,469,507.5,478.1z"/>
		<path class="st6" d="M578.1,642.2h30c-4.8-83.3,43.1-133.8,50-135.6C603.1,508.9,578.1,553.7,578.1,642.2z"/>
		<path class="st6" d="M595,642.2h17.3c-2.8-45.6,24.8-73.2,28.8-74.2C609.5,569.2,595,593.7,595,642.2z"/>
		<path class="st6" d="M530.2,573.4c15.4,2.8,45.7,13.1,28.3,67.8h17C575.5,581.1,575.5,569.7,530.2,573.4z"/>
	</g>
	<g>
		<path class="st6" d="M445.7,641.8h21.4c-21.8-48,16.3-57.1,35.7-59.5C445.7,578.9,445.7,588.9,445.7,641.8z"/>
		<path class="st6" d="M408,592.5c4.4,0.7,34.5,19,31.5,49.2h18.9C458.4,609.6,442.6,593.4,408,592.5z"/>
		<path class="st6" d="M418.6,614.8c2.5,0.4,19.9,10.4,18.2,27h10.9C447.7,624.2,438.6,615.3,418.6,614.8z"/>
		<path class="st6" d="M460,641.4h10.7c-10.9-19.9,8.1-23.6,17.9-24.6C460,615.4,460,619.6,460,641.4z"/>
	</g>
	<g>
		<path class="st5" d="M766.8,641.4h-17.3c17.6-44.9-13.2-53.3-28.8-55.6C766.8,582.7,766.8,592.1,766.8,641.4z"/>
		<path class="st5" d="M797.3,595.5c-3.5,0.6-27.9,17.7-25.4,46h-15.3C756.5,611.4,769.3,596.2,797.3,595.5z"/>
		<path class="st5" d="M788.6,616.3c-2,0.3-16.1,9.7-14.7,25.2h-8.8C765.2,625,772.5,616.7,788.6,616.3z"/>
		<path class="st5" d="M755.3,641.1h-8.7c8.8-18.6-6.6-22-14.4-23C755.3,616.9,755.3,620.7,755.3,641.1z"/>
		<path class="st5" d="M786.5,632.4c-2.5,0.1-19.4,3.8-17.7,9.9h-10.6C758.1,635.8,767,632.5,786.5,632.4z"/>
		<path class="st5" d="M739.7,633.3c2,0.1,15.4,3.5,14.1,9h8.4C762.2,636.4,755.2,633.5,739.7,633.3z"/>
	</g>
</g>
<g id="swallow">
	<path class="st72" d="M544.4,63.1c-4.2,0.1-18.2,0.3-16.6-3.2c1.6-3.5-1.1-4.1-6.4-4.3c4.3-6.9,6.8-14.7,9.5-16.3
		c7.1-4,15.8-11.1,21.6-16.2c4-3.4,7-4.8,6.6-6c-0.2-0.8-4.8,1.7-9.5,4c-7.1,3.5-17.5,9.2-18.9,7.4c0.8-8.2-2-31.6-3.1-28.4
		s0.4,19.1-6,31.2c-4.3,8.1-17.9,14.4-15.3,10.1c2.6-4.2-1-6.7-3.2-9c-2.3-2.3,1.8-18.1,4.4-26.2c2.5-8.1-2.1-2.3-2.1-2.3
		s-1.5,1.1-13.6,15c-12,13.8-12.3,17.8-5.1,22.2c7.9,4.8,7.1,9.6-0.3,10.4c-7.3,0.9-8.5,7.1-12.3,8c-3.4,0.8,0.3,2.7,2.8,3.1
		c2.6,0.4,7,1.7,10.2,2.2c2.9,0.4,8.9,3.4,19.4,1.6c0.4-1.3,0.5-2.4,0.4-3.4c1.8,1.5,2.5,3.7,2.3,6.4c-0.7,7.8-0.3,11.8,19.5,8.6
		c12.5-2.1,24.4-9.5,28.7-12.3C562.7,62.4,560.2,62.6,544.4,63.1z"/>
</g>
</svg>
