<?xml version="1.0" encoding="utf-8"?>
<!-- Generator: Adobe Illustrator 27.9.0, SVG Export Plug-In . SVG Version: 6.00 Build 0)  -->
<svg version="1.1" id="Слой_1" xmlns="http://www.w3.org/2000/svg" xmlns:xlink="http://www.w3.org/1999/xlink" x="0px" y="0px"
	 viewBox="0 0 1920 1280" style="enable-background:new 0 0 1920 1280;" xml:space="preserve">
<style type="text/css">
	.st0{fill:#CFCFD1;}
	.st1{fill:url(#SVGID_1_);}
	.st2{fill:#BAC4CD;}
	.st3{fill:#99A3AD;}
	.st4{fill:#DFDFDB;}
	.st5{fill:#AFB4B8;}
	.st6{fill:#5C7592;}
</style>
<g>
	<path class="st0" d="M1509.7,144.6c87,0,157.5,70.5,157.5,157.5c0,87-70.5,157.5-157.5,157.5c-87,0-157.5-70.5-157.5-157.5
		C1352.2,215.2,1422.7,144.6,1509.7,144.6z"/>
	<g>
		<linearGradient id="SVGID_1_" gradientUnits="userSpaceOnUse" x1="1411.0638" y1="287.4721" x2="1637.5242" y2="287.4721">
			<stop  offset="0" style="stop-color:#C0C7D0"/>
			<stop  offset="1" style="stop-color:#090E1B"/>
		</linearGradient>
		<path class="st1" d="M1483,275.2c-9.2,6.4-21.1,9.1-32.8,5.9c-21.1-5.6-33.6-27.2-27.9-48.2c1.2-4.5,3.3-8.5,5.8-12.1
			c-7.4,5.1-13.1,12.6-15.6,21.9c-5.6,21,6.9,42.6,27.9,48.2C1457,295.4,1473.8,288.5,1483,275.2z M1608.1,262.8
			c-27.2,0-49.2-22-49.2-49.2c0-11.1,3.8-21.2,10-29.4c-12,9-19.8,23.2-19.8,39.3c0,27.2,22,49.2,49.2,49.2
			c16.1,0,30.3-7.8,39.2-19.8C1629.3,259,1619.2,262.8,1608.1,262.8z M1465.2,380.3c-10.5-2.8-16.7-13.6-13.9-24.1l1.1-2.9
			c-5.2,2.3-9.4,6.8-10.9,12.8c-2.8,10.5,3.4,21.3,13.9,24.1c9.5,2.5,19.1-2.3,23-11C1474.4,380.9,1469.8,381.5,1465.2,380.3z
			 M1561.1,370c-15.8-4.2-25.1-20.4-20.9-36.2c0.8-2.9,2-5.4,3.5-7.8c-6.3,3.8-11.3,9.9-13.3,17.6c-4.2,15.8,5.1,32,20.9,36.2
			c12.9,3.5,26-2.3,32.6-13.1C1577.2,370.7,1569.1,372.1,1561.1,370z"/>
	</g>
	<path class="st2" d="M1529.4,439.9c-87,0-157.5-70.5-157.5-157.5c0-38.5,13.8-73.7,36.8-101c-34.5,28.9-56.4,72.2-56.4,120.7
		c0,87,70.5,157.5,157.5,157.5c48.5,0,91.8-21.9,120.7-56.4C1603.1,426.1,1567.9,439.9,1529.4,439.9z"/>
	<g>
		<path class="st3" d="M1647.3,225.6c-11.3-20.2-26.9-37.6-45.5-51.1l-3.5-0.4c-27.2,0-49.2,22-49.2,49.2c0,27.2,22,49.2,49.2,49.2
			C1624.7,272.6,1646.1,251.7,1647.3,225.6z"/>
		<circle class="st4" cx="1558.9" cy="351.3" r="29.5"/>
		<path class="st5" d="M1460.8,214.9c-21.1-5.6-42.8,6.8-48.4,27.8c-5.6,21,6.9,42.6,27.9,48.2c21.1,5.6,42.8-6.8,48.4-27.8
			S1481.9,220.5,1460.8,214.9z"/>
		<circle class="st6" cx="1460.4" cy="371.1" r="19.7"/>
	</g>
</g>
</svg>
