<svg id="_Слой_1" data-name="Слой 1" xmlns="http://www.w3.org/2000/svg" viewBox="0 0 1057.89 1057.89"><defs><radialGradient id="_Безымянный_градиент_2" data-name="Безымянный градиент 2" cx="528.95" cy="528.95" fx="528.95" fy="528.95" r="528.95" gradientUnits="userSpaceOnUse"><stop offset="0" stop-color="#ededed"/><stop offset=".45" stop-color="#f4f4f4" stop-opacity=".56"/><stop offset="1" stop-color="#fff" stop-opacity="0"/></radialGradient><style>.cls-2{stroke-width:0;fill:#dadada}</style></defs><circle cx="528.95" cy="528.95" r="528.95" stroke-width="0" fill="url(#_Безымянный_градиент_2)"/><circle cx="518.48" cy="514.43" r="388.73" fill="#ededed" stroke-width="0"/><circle class="cls-2" cx="542.07" cy="195.73" r="33.45"/><circle class="cls-2" cx="617.24" cy="229.18" r="11.09"/><circle class="cls-2" cx="686.25" cy="377.6" r="46.3"/><circle class="cls-2" cx="628.33" cy="468.91" r="24.95"/><path class="cls-2" d="M911.41 525.51C909 649 846.75 736.42 810.36 777.54c-38.5 43.49-139.28 138.25-291.66 136.7-154.42-1.57-252.02-100.91-270.26-120.19 148.64 66.98 318.89 44.76 432.46-56.57C820.3 613.11 806.69 429.86 804.69 407.9c-11.37-124.89-78.65-208.09-104.8-237.37 31.91 17.3 85.24 51.57 131.14 112.71 18.45 24.57 82.9 113.14 80.38 242.26z"/><circle class="cls-2" cx="270.65" cy="745.72" r="13.15"/><circle class="cls-2" cx="768.08" cy="423.9" r="13.15"/><circle class="cls-2" cx="344.85" cy="772.71" r="23.64"/></svg>