<svg id="ePjpxCLcOaw1" xmlns="http://www.w3.org/2000/svg" xmlns:xlink="http://www.w3.org/1999/xlink" viewBox="0 0 486.9 563.1" shape-rendering="geometricPrecision" text-rendering="geometricPrecision" style="background-color:transparent">
<style><![CDATA[
#ePjpxCLcOaw36_tr {animation: ePjpxCLcOaw36_tr__tr 5000ms linear infinite normal forwards}@keyframes ePjpxCLcOaw36_tr__tr { 0% {transform: translate(180.1px,256.3px) rotate(0deg)} 50% {transform: translate(180.1px,256.3px) rotate(8deg)} 100% {transform: translate(180.1px,256.3px) rotate(0deg)}} #ePjpxCLcOaw37_tr {animation: ePjpxCLcOaw37_tr__tr 5000ms linear infinite normal forwards}@keyframes ePjpxCLcOaw37_tr__tr { 0% {transform: translate(161.9px,268.5px) rotate(0deg)} 33.333333% {transform: translate(161.9px,268.5px) rotate(12deg)} 66.666667% {transform: translate(161.9px,268.5px) rotate(-7deg)} 100% {transform: translate(161.9px,268.5px) rotate(0deg)}} #ePjpxCLcOaw38_tr {animation: ePjpxCLcOaw38_tr__tr 5000ms linear infinite normal forwards}@keyframes ePjpxCLcOaw38_tr__tr { 0% {transform: translate(177.1px,278.1px) rotate(0deg)} 26.666667% {transform: translate(177.1px,278.1px) rotate(-4deg)} 73.333333% {transform: translate(177.1px,278.1px) rotate(5deg)} 100% {transform: translate(177.1px,278.1px) rotate(0deg)}} #ePjpxCLcOaw40_tr {animation: ePjpxCLcOaw40_tr__tr 5000ms linear infinite normal forwards}@keyframes ePjpxCLcOaw40_tr__tr { 0% {transform: translate(259.8px,257.1px) rotate(0deg)} 43.333333% {transform: translate(259.8px,257.1px) rotate(5.941544deg)} 70% {transform: translate(259.8px,257.1px) rotate(-6.300158deg)} 100% {transform: translate(259.8px,257.1px) rotate(0deg)}} #ePjpxCLcOaw41_tr {animation: ePjpxCLcOaw41_tr__tr 5000ms linear infinite normal forwards}@keyframes ePjpxCLcOaw41_tr__tr { 0% {transform: translate(277.8px,269.359882px) rotate(0deg)} 36.666667% {transform: translate(277.8px,269.359882px) rotate(-4.217114deg)} 63.333333% {transform: translate(277.8px,269.359882px) rotate(6.932862deg)} 100% {transform: translate(277.8px,269.359882px) rotate(0deg)}} #ePjpxCLcOaw42_tr {animation: ePjpxCLcOaw42_tr__tr 5000ms linear infinite normal forwards}@keyframes ePjpxCLcOaw42_tr__tr { 0% {transform: translate(263.2px,278.946474px) rotate(0deg)} 3.333333% {transform: translate(263.2px,278.946474px) rotate(0deg)} 30% {transform: translate(263.2px,278.946474px) rotate(-9.313719deg)} 80% {transform: translate(263.2px,278.946474px) rotate(9.160848deg)} 100% {transform: translate(263.2px,278.946474px) rotate(0deg)}}
]]></style>
<g><g><path d="M180.1,524.7c-1.7,4.6-6.6,16.3-18.9,23.4-11.9,6.9-29.2,8.6-38.7.9-1.3-1-4.7-3.8-5.9-8.6-1.2-5.1,1-9.5,2.7-13c2.3-4.7,5.4-8,8.1-10.3c17.6,2.5,35.1,5.1,52.7,7.6Z" fill="#c6c5c6" stroke="#000" stroke-width="3" stroke-miterlimit="10"/><path d="M131,536.4c-1,.8-2.8,2.6-3.9,5.3-1.8,4.4-.6,8.3-.2,9.5" fill="#c6c5c6" stroke="#000" stroke-width="3" stroke-linecap="round" stroke-miterlimit="10"/><path d="M147.1,538.3c-1,.8-2.8,2.6-3.9,5.3-1.8,4.4-.6,8.3-.2,9.5" fill="#c6c5c6" stroke="#000" stroke-width="3" stroke-linecap="round" stroke-miterlimit="10"/></g><g><path d="M264,527.4c1.7,4.6,6.6,16.3,18.9,23.4c11.9,6.9,29.2,8.6,38.7.9c1.3-1,4.7-3.8,5.9-8.6c1.2-5.1-1-9.5-2.7-13-2.3-4.7-5.4-8-8.1-10.3-17.6,2.5-35.2,5.1-52.7,7.6Z" fill="#c6c5c6" stroke="#000" stroke-width="3" stroke-miterlimit="10"/><path d="M313,539.1c1,.8,2.8,2.6,3.9,5.3c1.8,4.4.6,8.3.2,9.5" fill="#c6c5c6" stroke="#000" stroke-width="3" stroke-linecap="round" stroke-miterlimit="10"/><path d="M296.9,541c1,.8,2.8,2.6,3.9,5.3c1.8,4.4.6,8.3.2,9.5" fill="#c6c5c6" stroke="#000" stroke-width="3" stroke-linecap="round" stroke-miterlimit="10"/></g><g><path d="M462.3,533.7c16.3-21.8,25.8-49.9-4.3-64.5-10.2-5.7-21.9-6.7-33.4-5.6-5.8.4-11.7,1.2-17.2,2.6-3.7.9-7.6,2.2-11.8,3.3-8.9,2.5-19,3.2-28.4,1.6-9.7-1.6-19.2-5.8-27.1-11.7-5-3.6-6.1-10.6-2.5-15.5c3.9-5.3,11.7-6,16.4-1.5c4.9,4.6,10.7,8,17.2,9.9c6.9,1.9,13.7,2.2,20.9,1.1c8-1.4,17.4-3.1,25.8-3c1.6,0,4.9.1,6.5.1c11.1.3,22.7,2,32.5,7.5c36.1,19.6,30.2,49.2,5.4,75.7v0Z" fill="#c7c5c6"/></g><path d="M148.5,303.3c-21.3,32.4-34.3,61.5-42.3,82.8-9.9,26.3-15,48.3-15.3,72.5-.3,22.9,4,34.3,8.5,42.3c2.7,4.7,11.2,19.1,28.4,26.1c12.1,4.9,22.6,3.7,37.8,1.8c31.2-4,32.8-13.1,53.1-13.1c19.5,0,19.8,8.4,47.7,12.6c17.5,2.6,33.5,5.1,49.9-2.7c25.4-12,33.7-39.7,35.6-45.9c5.7-18.9,2.8-34.7-.5-52.2-1.6-8.7-5.1-23.9-16.2-48.1-8.6-18.8-22.6-44.8-45.5-73.4-47-.9-94.1-1.8-141.2-2.7Z" fill="#c6c5c6" stroke="#000" stroke-width="3" stroke-miterlimit="10"/><path d="M176.4,308.3c-12.5,22.6-29.6,61.1-27,104.4c1.3,22.2,7,32.1,12.6,38.3c11.5,12.6,27.9,15.4,43.7,18c21,3.5,36.7.4,40.5-.4c12.4-2.6,24.3-5.2,34.2-15.3c10.5-10.7,12.7-23.7,14.4-33.8c1.2-7.2,2.8-21.3-3.6-48.6-3.6-15.3-10.2-37.2-23.4-62.1-30.5-.2-60.9-.4-91.4-.5Z" fill="#ededed" stroke="#000" stroke-width="3" stroke-miterlimit="10"/><g><path d="M137.7,300.6c-5.5,4.7-13.2,12.1-20.3,23-5,7.7-12,18.5-13.9,33.8-1.1,8.4-3.3,26,8.1,40c15.4,19,42.6,15.6,44.6,15.3c1.1-7.2,2.1-14.4,3.1-21.6-3.4-.9-9.4-3-14.9-8.1-9.4-8.8-10.8-20.2-11.3-24.3-1-9.9,1.8-17.1,5.4-26.5c2.8-7.1,7.7-17.6,16.6-28.8-5.7-1-11.5-1.9-17.4-2.8Z" fill="#c5c5c6" stroke="#000" stroke-width="3" stroke-miterlimit="10"/><path d="M158.5,389.4c-3.2,2.6-4.2,6.2-4.9,9.2-.7,2.8-3,11.3,2.2,17.6c3.7,4.6,9,5.4,12.4,5.9c2.7.4,8.5,1.3,10.6-1.7c1-1.5,1-3.8,0-5.4-.8-1.2-1.9-1.6-4.1-2.5-2.1-.8-4-1.2-5.4-1.3c1,.1,2.8.2,5.1.5c4.4.4,5.6.7,6.8-.1c1.8-1.2,2.2-3.4,2.3-4c.3-2.2-.4-4.4-1.9-5.8-.6-.6-1.4-1.1-5.5-1.9-1.8-.4-3.9-.7-6.4-1c1.4.2,3.4.4,5.9.3c3.9-.1,5.8-.1,7.2-1.3c2-1.7,2.8-5.2,1.5-7.4-.7-1.1-2-2.1-7.9-2.7-9.3-1.1-14-1.6-17.9,1.6Z" fill="#f7c3d2" stroke="#000" stroke-miterlimit="10"/></g><g><path d="M305.3,305.3c5.5,4.7,13.2,12.1,20.3,23c5,7.7,12,18.5,14,33.8c1.1,8.4,3.3,26-8.1,40-15.4,19-42.6,15.6-44.6,15.3-1-7.2-2.1-14.4-3.1-21.6c3.4-.9,9.4-3,14.9-8.1c9.4-8.8,10.8-20.2,11.3-24.3c1-9.9-1.8-17.1-5.4-26.5-2.8-7.1-7.7-17.6-16.6-28.8c5.6-1,11.5-1.9,17.3-2.8Z" fill="#c5c5c6" stroke="#000" stroke-width="3" stroke-miterlimit="10"/><path d="M284.5,394c3.2,2.6,4.2,6.2,4.9,9.2.7,2.8,3,11.3-2.2,17.6-3.7,4.6-9,5.4-12.4,5.9-2.7.4-8.5,1.3-10.6-1.7-1-1.5-1-3.8,0-5.4.8-1.2,1.9-1.6,4.1-2.5c2.1-.8,4-1.2,5.4-1.3-1,.1-2.8.2-5.1.5-4.4.4-5.6.7-6.8-.1-1.8-1.2-2.2-3.4-2.3-4-.3-2.2.4-4.4,1.9-5.8.6-.6,1.4-1.1,5.5-1.9c1.8-.4,3.9-.7,6.4-1-1.4.2-3.4.4-5.9.3-3.9-.1-5.8-.1-7.2-1.3-2-1.7-2.8-5.2-1.5-7.4.7-1.1,2-2.1,7.9-2.7c9.3-1.1,14-1.6,17.9,1.6Z" fill="#f7c3d2" stroke="#000" stroke-miterlimit="10"/></g><g><path d="M283.5,73.8c-.5-6.2-.7-17.4,4.5-29.7c9-21.4,27.5-31,35.1-34.2c20.4-8.7,38.6-4.5,45.9-2.7c3.8.9,21.6,5.6,37.8,21.6c14.9,14.8,20.4,31.4,22.5,39.6c6.4,25.2-.9,45.9-4.5,55.8-6,16.5-14.6,27-23.4,37.8-12.3,15.1-20.7,20.1-23.4,21.6-9.8,5.5-19.1,7.4-25.2,8.1-23.1-39.3-46.2-78.6-69.3-117.9Z" fill="#c6c5c6" stroke="#000" stroke-width="3" stroke-miterlimit="10"/><path d="M303.3,86.4c.3-3.8,1.9-15.8,11.7-26.1c11.3-11.9,25.5-13.3,29.7-13.5c16.2-.9,27.5,7.5,30.6,9.9c14.4,11.1,17.6,26.9,18.9,33.3c3.3,16.2-1,29.2-2.7,34.2-4.1,12.1-10.6,19.8-14.4,24.3-4.8,5.6-10.3,12-19.8,16.2-5,2.2-9.5,3.2-12.6,3.6-13.8-27.3-27.6-54.6-41.4-81.9Z" fill="#f7c3d2" stroke="#000" stroke-width="3" stroke-miterlimit="10"/></g><g><path d="M155.9,73.2c.5-6.2.7-17.4-4.5-29.7-9-21.4-27.5-31-35.1-34.2C96,0.7,77.7,4.8,70.4,6.6c-3.8.9-21.6,5.6-37.8,21.6C17.7,43,12.2,59.6,10.1,67.8c-6.4,25.2.9,45.9,4.5,55.8c6,16.5,14.6,27,23.4,37.8c12.3,15.1,20.7,20.1,23.4,21.6c9.8,5.5,19.1,7.4,25.2,8.1c23.1-39.3,46.2-78.6,69.3-117.9Z" fill="#c6c5c6" stroke="#000" stroke-width="3" stroke-miterlimit="10"/><path d="M136.1,85.8c-.3-3.8-1.9-15.8-11.7-26.1-11.3-11.9-25.5-13.3-29.7-13.5-16.2-.9-27.5,7.5-30.6,9.9C49.7,67.2,46.5,83,45.2,89.4c-3.3,16.2,1,29.2,2.7,34.2c4.1,12.1,10.6,19.8,14.4,24.3c4.8,5.6,10.3,12,19.8,16.2c5,2.2,9.5,3.2,12.6,3.6c13.8-27.3,27.6-54.6,41.4-81.9Z" fill="#f7c3d2" stroke="#000" stroke-width="3" stroke-miterlimit="10"/></g><path d="M295.9,314.7c-9.9,1.5-22.6,3.2-37.4,4.5-23.9,2-42.5,1.9-51.7,1.7-18.4-.4-30.7-.6-47.7-3.6-16.4-2.9-30-5.4-44.9-14.9-6.1-3.9-14.6-9.4-21.6-19.8-1.8-2.7-8.1-12.5-10.8-36-.5-4.4-2.5-22.7,1.8-51.3c2.2-15,4.9-33,14.4-54.9c5.6-13.1,12.7-29.4,28.8-45.9c5.2-5.3,21.3-20.9,47.7-30.6c6.8-2.5,30.4-10.6,61.2-7.2c9.4,1,26.6,3.1,45.9,13.5c3.7,2,21.1,11.6,36.9,31.5c13.6,17.1,18.9,32.6,27,56.7c7.8,23.2,10.7,40.7,12.6,53.1c4.9,31.6,2.3,42.9.9,47.7-2,6.9-6,17.6-14.4,27.9-17.1,21-40.7,26.2-48.7,27.6Z" fill="#c6c5c6" stroke="#000" stroke-width="3" stroke-miterlimit="10"/><path d="M220.6,239.4c-4.2.5-4.8-1.5-8.4-1.1-.5.1-5.6.8-7.4,4.7-1.5,3.4.5,7,1.1,7.9c1.2,2.1,2.8,3.3,4.3,4.3c1,.7,3,2,5.9,2.7c3.6.8,6.6.1,8.3-.4c4.4-1.2,7.1-3.6,7.7-4.1c1.3-1.2,3-2.8,3.8-5.4.4-1.2,1.1-3.5,0-5.6-.9-1.7-2.5-2.5-3.8-3.1-.5-.2-2.5-1.1-5.4-1.1-3-.1-3.4.8-6.1,1.2Z" fill="#fff"/><g><ellipse rx="19.3" ry="24.8" transform="translate(163.9 217.9)" stroke="#000" stroke-width="3" stroke-linecap="round" stroke-miterlimit="10"/><ellipse rx="7.7" ry="8.3" transform="translate(169.6 211.2)" fill="#fff"/></g><g><ellipse rx="19.3" ry="24.8" transform="translate(276.2 217.9)" stroke="#000" stroke-width="3" stroke-linecap="round" stroke-miterlimit="10"/><ellipse rx="7.7" ry="8.3" transform="translate(270.6 211.2)" fill="#fff"/></g><g><g id="ePjpxCLcOaw36_tr" transform="translate(180.1,256.3) rotate(0)"><line x1="40.5" y1="244.2" x2="180.4" y2="256.3" transform="translate(-180.099999,-256.3)" fill="none" stroke="#000" stroke-width="6" stroke-linecap="round" stroke-miterlimit="10"/></g><g id="ePjpxCLcOaw37_tr" transform="translate(161.9,268.5) rotate(0)"><line x1="54.4" y1="275.4" x2="162.4" y2="268.5" transform="translate(-161.9,-268.499991)" fill="none" stroke="#000" stroke-width="6" stroke-linecap="round" stroke-miterlimit="10"/></g><g id="ePjpxCLcOaw38_tr" transform="translate(177.1,278.1) rotate(0)"><line x1="80.1" y1="302.7" x2="177.1" y2="278.1" transform="translate(-177.1,-278.1)" fill="none" stroke="#000" stroke-width="6" stroke-linecap="round" stroke-miterlimit="10"/></g></g><g><g id="ePjpxCLcOaw40_tr" transform="translate(259.8,257.1) rotate(0)"><line x1="399.7" y1="244.9" x2="259.8" y2="257.1" transform="translate(-259.799998,-257.1)" fill="none" stroke="#000" stroke-width="6" stroke-linecap="round" stroke-miterlimit="10"/></g><g id="ePjpxCLcOaw41_tr" transform="translate(277.8,269.359882) rotate(0)"><line x1="385.8" y1="276.1" x2="277.8" y2="269.2" transform="translate(-277.799997,-269.359882)" fill="none" stroke="#000" stroke-width="6" stroke-linecap="round" stroke-miterlimit="10"/></g><g id="ePjpxCLcOaw42_tr" transform="translate(263.2,278.946474) rotate(0)"><line x1="360.2" y1="303.5" x2="263.2" y2="278.9" transform="translate(-263.2,-278.946468)" fill="none" stroke="#000" stroke-width="6" stroke-linecap="round" stroke-miterlimit="10"/></g></g><path d="M219.6,239.6c-3.3,0-3.6-1.4-6.6-1.3-.5,0-6,.3-8,4.3-1.7,3.5.4,7.3,1,8.3c2.5,4.5,7.4,5.8,9.1,6.3c5.4,1.4,9.8-.3,11.3-.8c3.1-1.2,5-3,5.9-3.8c1.7-1.6,2.9-2.7,3.4-4.6.8-3.1-1.1-5.9-1.5-6.4-2.4-3.2-6.2-3.6-6.8-3.6-3.4-.2-3.9,1.6-7.8,1.6Z"/><path d="M220.2,258.1c-2,23.4-9.9,26.9-22.2,15" fill="none" stroke="#000" stroke-width="3" stroke-linecap="round" stroke-miterlimit="10"/><path d="M220.3,257.6c2,23.4,9.9,26.9,22.2,15" fill="none" stroke="#000" stroke-width="3" stroke-linecap="round" stroke-miterlimit="10"/></g></svg>
