<?xml version="1.0" encoding="utf-8"?>
<!-- Generator: Adobe Illustrator 27.9.0, SVG Export Plug-In . SVG Version: 6.00 Build 0)  -->
<svg version="1.1" id="scoop" xmlns="http://www.w3.org/2000/svg" xmlns:xlink="http://www.w3.org/1999/xlink" x="0px" y="0px"
	 viewBox="0 0 188.6 347.1" style="enable-background:new 0 0 188.6 347.1;" xml:space="preserve">
<style type="text/css">
	.st0{fill:#D3D6D7;stroke:#706F6F;stroke-miterlimit:10;}
	.st1{fill:#E6E6E6;stroke:#706F6F;stroke-miterlimit:10;}
</style>
<g>
	<path class="st0" d="M81.7,298.5c-7.3-71.7-11.1-109.5-13.2-130.9c0,0-2.7-28-7.7-69.5c-2.5-20.8-0.6-3.8-1.8-14.4
		c-4.5-37.9-3.5-48.4-11.9-54.6c-3.7-2.7-9.7-4.8-14.7-3c-7.1,2.6-11.6,13.1-14.8,20.7c-2.4,5.6-3.2,8.8-5.4,9.3
		c-2.8,0.7-5.8-3.7-7.2-8.3C3.2,41.5,4.1,36,5,32.3c2.7-10.5,9.2-17.1,12-19.7c4-3.6,8.9-8.1,16.7-9C44.3,2.5,52,9,53.2,10
		c6.7,5.8,8.4,13.5,10.7,24.8c1.4,7,0.9,7.8,2.2,21.7c1.1,11.5,1.6,12.3,4.4,34.5c1.1,8.8,1.5,14.3,2.3,19.7c2.9,20.3,5,40.7,7.8,61
		c2.7,20.1,7.2,55.2,15.1,120.7C91,294.4,86.3,296.5,81.7,298.5z"/>
	<g>
		<path class="st0" d="M184.6,298.8c-3,26.2-25.2,46.3-51.2,46.7c-26.6,0.4-49.7-19.9-52.7-46.7c17.3,0,34.7,0,52,0
			S167.2,298.8,184.6,298.8z"/>
		<ellipse class="st1" cx="132.6" cy="298.8" rx="52" ry="12.6"/>
	</g>
</g>
</svg>
