<?xml version="1.0" encoding="utf-8"?>
<!-- Generator: Adobe Illustrator 27.9.0, SVG Export Plug-In . SVG Version: 6.00 Build 0)  -->
<svg version="1.1" id="snail" xmlns="http://www.w3.org/2000/svg" xmlns:xlink="http://www.w3.org/1999/xlink" x="0px" y="0px"
	 viewBox="0 0 523.8 386.8" style="enable-background:new 0 0 523.8 386.8;" xml:space="preserve">
<style type="text/css">
	.st0{fill:#F6D0B3;}
	.st1{opacity:0.2;fill:#222222;enable-background:new    ;}
	.st2{opacity:0.1;fill:#222222;enable-background:new    ;}
	.st3{fill:#9A7769;}
	.st4{fill:#FFFFFF;}
	.st5{fill:#432918;}
</style>
<g>
	<g>
		<path class="st0" d="M63.2,190.2c-3.5,0-6.9-2.1-8.4-5.5l-37-87.1c-2-4.6,0.2-9.9,4.8-11.9c4.6-2,9.9,0.2,11.9,4.8l37,87.1
			c2,4.6-0.2,9.9-4.8,11.9C65.6,190,64.4,190.2,63.2,190.2z"/>
		<path class="st1" d="M34.5,90.4c-2-4.6-7.3-6.8-11.9-4.8c-4.6,2-6.8,7.3-4.8,11.9l10.7,25.3c6.4-0.5,12.2-3.1,16.7-7.1L34.5,90.4z
			"/>
		<circle class="st0" cx="26.2" cy="94" r="22.5"/>
		<path class="st2" d="M26.2,71.5C13.8,71.5,3.7,81.6,3.7,94s10.1,22.5,22.5,22.5V71.5z"/>
	</g>
	<g>
		<path class="st0" d="M109.4,178.2c-4.2,0-8-2.9-8.9-7.2L80.8,76.8c-1-4.9,2.1-9.7,7-10.7c4.9-1,9.7,2.1,10.7,7l19.7,94.2
			c1,4.9-2.1,9.7-7,10.7C110.6,178.2,110,178.2,109.4,178.2z"/>
		<path class="st1" d="M98.6,73c-1-4.9-5.8-8.1-10.7-7c-4.9,1-8.1,5.8-7,10.7l5.6,26.9c1.1,0.1,2.2,0.2,3.3,0.2
			c5.3,0,10.2-1.4,14.5-3.9L98.6,73z"/>
		<circle class="st0" cx="89.7" cy="74.9" r="22.5"/>
		<path class="st2" d="M89.7,52.4c-12.4,0-22.5,10.1-22.5,22.5s10.1,22.5,22.5,22.5V52.4z"/>
	</g>
	<path class="st0" d="M451.3,383.3H192.7c-85.4,0-154.9-69.5-154.9-154.9v-25.5c0-35.6,28.8-64.4,64.4-64.4
		c35.6,0,64.4,28.8,64.4,64.4v25.5c0,14.4,11.7,26.1,26.1,26.1h258.6c35.6,0,64.4,28.8,64.4,64.4
		C515.7,354.4,486.9,383.3,451.3,383.3z"/>
	<path class="st2" d="M192.7,254.4c-14.4,0-26.1-11.7-26.1-26.1v-25.5c0-35.6-28.8-64.4-64.4-64.4c-35.6,0-64.4,28.8-64.4,64.4v25.5
		c0,85.4,69.5,154.9,154.9,154.9h124V254.4H192.7z"/>
	<path class="st2" d="M451.3,254.4H192.7c-14.4,0-26.1-11.7-26.1-26.1v-25.5c0-24.2-13.3-45.2-33-56.2c-1,7.9-1.6,16-1.6,24.2
		c0,102,82.7,184.7,184.7,184.7c69.5,0,130.1-38.4,161.6-95.2C470.1,256.6,460.9,254.4,451.3,254.4z"/>
	<g>
		<circle class="st3" cx="316.7" cy="170.8" r="166.5"/>
		<path class="st1" d="M345.4,302.6c-74.4,0-135-60.5-135-135c0-58.5,47.6-106.2,106.2-106.2c45.8,0,83.1,37.3,83.1,83.1
			c0,35.7-29,64.7-64.7,64.7c-27.5,0-49.9-22.4-49.9-49.9c0-21,17.1-38.1,38.1-38.1c15.8,0,28.7,12.9,28.7,28.7
			c0,11.6-9.5,21.1-21.1,21.1c-8.3,0-15.1-6.8-15.1-15.1c0-5-4.1-9.1-9.1-9.1c-5,0-9.1,4.1-9.1,9.1c0,18.3,14.9,33.2,33.2,33.2
			c21.7,0,39.3-17.6,39.3-39.3c0-25.8-21-46.8-46.8-46.8c-31,0-56.3,25.2-56.3,56.3c0,37.5,30.5,68.1,68.1,68.1
			c45.7,0,82.8-37.2,82.8-82.8c0-55.8-45.4-101.3-101.3-101.3c-68.5,0-124.3,55.8-124.3,124.3c0,84.4,68.7,153.1,153.1,153.1
			c22,0,43-3.8,62.7-10.7c19.2-12.6,35.7-29.2,48.3-48.5C426.5,287.2,387.7,302.6,345.4,302.6z"/>
	</g>
</g>
<g>
	<circle class="st4" cx="26.3" cy="94.4" r="16.5"/>
	<circle class="st5" cx="26.9" cy="94.6" r="11.6"/>
</g>
<g>
	<circle class="st4" cx="89.9" cy="74.9" r="16.5"/>
	<circle class="st5" cx="89.3" cy="75" r="11.6"/>
</g>
<g>
	<path class="st5" d="M60.8,203.1c8.7,0.1,15.9,0,23.8-2.1c7.9-2.1,14.4-5.4,21.9-9.6c-1.7,9.6-10.2,16.9-19.4,19.3
		C77.8,213.1,66.8,210.8,60.8,203.1L60.8,203.1z"/>
</g>
</svg>
