<?xml version="1.0" encoding="UTF-8"?>
<svg id="_Слой_1" data-name="Слой 1" xmlns="http://www.w3.org/2000/svg" viewBox="0 0 86.16 82.76">
  <defs>
    <style>
      .cls-1 {
        fill: #ffce56;
      }

      .cls-1, .cls-2 {
        stroke-width: 0px;
      }

      .cls-2 {
        fill: #ffd473;
      }
    </style>
  </defs>
  <polygon class="cls-1" points="21.54 53.19 4.5 33.94 29.21 26.84 42.26 4.68 56.64 26 81.75 31.55 65.93 51.82 68.4 77.42 44.23 68.63 20.66 78.89 21.54 53.19"/>
  <path class="cls-2" d="m42.4,9.37l11.61,17.2,1.12,1.65,1.95.43,20.26,4.48-12.77,16.36-1.23,1.57.19,1.99,2,20.66-19.51-7.09-1.87-.68-1.83.8-19.03,8.28.72-20.74.07-1.99-1.32-1.49-13.76-15.54,19.95-5.73,1.92-.55,1.01-1.72,10.53-17.89m-.29-9.37l-14.55,24.72L0,32.63l19.01,21.47-.99,28.66,26.3-11.45,26.95,9.8-2.76-28.55,17.65-22.61-28-6.2L42.11,0h0Z"/>
</svg>