<svg id="er7VARG9mXo1" xmlns="http://www.w3.org/2000/svg" xmlns:xlink="http://www.w3.org/1999/xlink" viewBox="0 0 1920 1280" shape-rendering="geometricPrecision" text-rendering="geometricPrecision" style="background-color:transparent">
<style><![CDATA[
#er7VARG9mXo6 {animation: er7VARG9mXo6_c_o 3000ms linear infinite normal forwards}@keyframes er7VARG9mXo6_c_o { 0% {opacity: 1} 50% {opacity: 0} 100% {opacity: 1}} #er7VARG9mXo7 {animation: er7VARG9mXo7_c_o 3000ms linear infinite normal forwards}@keyframes er7VARG9mXo7_c_o { 0% {opacity: 0.8} 66.666667% {opacity: 0.1} 100% {opacity: 0.8}} #er7VARG9mXo8 {animation: er7VARG9mXo8_c_o 3000ms linear infinite normal forwards}@keyframes er7VARG9mXo8_c_o { 0% {opacity: 0.5} 50% {opacity: 0.8} 100% {opacity: 0.5}} #er7VARG9mXo9 {animation: er7VARG9mXo9_c_o 3000ms linear infinite normal forwards}@keyframes er7VARG9mXo9_c_o { 0% {opacity: 1} 50% {opacity: 0.01} 100% {opacity: 0.97}} #er7VARG9mXo10 {animation: er7VARG9mXo10_c_o 3000ms linear infinite normal forwards}@keyframes er7VARG9mXo10_c_o { 0% {opacity: 0.21} 0.666667% {opacity: 0.21} 60% {opacity: 0.83} 100% {opacity: 0.21}} #er7VARG9mXo11 {animation: er7VARG9mXo11_c_o 3000ms linear infinite normal forwards}@keyframes er7VARG9mXo11_c_o { 0% {opacity: 1} 33.333333% {opacity: 0.5} 66.666667% {opacity: 0.3} 100% {opacity: 1}} #er7VARG9mXo13 {animation: er7VARG9mXo13_c_o 3000ms linear infinite normal forwards}@keyframes er7VARG9mXo13_c_o { 0% {opacity: 0.9} 50% {opacity: 0.15} 100% {opacity: 0.9}} #er7VARG9mXo14 {animation: er7VARG9mXo14_c_o 3000ms linear infinite normal forwards}@keyframes er7VARG9mXo14_c_o { 0% {opacity: 1} 33.333333% {opacity: 0.4} 100% {opacity: 1}} #er7VARG9mXo15 {animation: er7VARG9mXo15_c_o 3000ms linear infinite normal forwards}@keyframes er7VARG9mXo15_c_o { 0% {opacity: 1} 43.333333% {opacity: 0.2} 100% {opacity: 1}} #er7VARG9mXo16 {animation: er7VARG9mXo16_c_o 3000ms linear infinite normal forwards}@keyframes er7VARG9mXo16_c_o { 0% {opacity: 1} 23.333333% {opacity: 0.8} 66.666667% {opacity: 0} 100% {opacity: 1}} #er7VARG9mXo17 {animation: er7VARG9mXo17_c_o 3000ms linear infinite normal forwards}@keyframes er7VARG9mXo17_c_o { 0% {opacity: 0} 56.666667% {opacity: 0.4} 100% {opacity: 0}} #er7VARG9mXo18 {animation: er7VARG9mXo18_c_o 3000ms linear infinite normal forwards}@keyframes er7VARG9mXo18_c_o { 0% {opacity: 0.4} 66.666667% {opacity: 0.5} 100% {opacity: 0.4}} #er7VARG9mXo20 {animation: er7VARG9mXo20_c_o 3000ms linear infinite normal forwards}@keyframes er7VARG9mXo20_c_o { 0% {opacity: 1} 33.333333% {opacity: 0.4} 100% {opacity: 1}} #er7VARG9mXo21 {animation: er7VARG9mXo21_c_o 3000ms linear infinite normal forwards}@keyframes er7VARG9mXo21_c_o { 0% {opacity: 0.6} 43.333333% {opacity: 0.01} 100% {opacity: 0.6}} #er7VARG9mXo22 {animation: er7VARG9mXo22_c_o 3000ms linear infinite normal forwards}@keyframes er7VARG9mXo22_c_o { 0% {opacity: 0.75} 50% {opacity: 0.15} 100% {opacity: 0.75}} #er7VARG9mXo23 {animation: er7VARG9mXo23_c_o 3000ms linear infinite normal forwards}@keyframes er7VARG9mXo23_c_o { 0% {opacity: 0} 56.666667% {opacity: 0.9} 100% {opacity: 0.02}} #er7VARG9mXo24 {animation: er7VARG9mXo24_c_o 3000ms linear infinite normal forwards}@keyframes er7VARG9mXo24_c_o { 0% {opacity: 0.25} 66.666667% {opacity: 0.8} 100% {opacity: 0.25}} #er7VARG9mXo25 {animation: er7VARG9mXo25_c_o 3000ms linear infinite normal forwards}@keyframes er7VARG9mXo25_c_o { 0% {opacity: 0.1} 70% {opacity: 1} 100% {opacity: 0.1}} #er7VARG9mXo27 {animation: er7VARG9mXo27_c_o 3000ms linear infinite normal forwards}@keyframes er7VARG9mXo27_c_o { 0% {opacity: 1} 33.333333% {opacity: 0.5} 100% {opacity: 1}} #er7VARG9mXo28 {animation: er7VARG9mXo28_c_o 3000ms linear infinite normal forwards}@keyframes er7VARG9mXo28_c_o { 0% {opacity: 0.85} 60% {opacity: 0.1} 100% {opacity: 0.85}} #er7VARG9mXo29 {animation: er7VARG9mXo29_c_o 3000ms linear infinite normal forwards}@keyframes er7VARG9mXo29_c_o { 0% {opacity: 1} 60% {opacity: 0.7} 100% {opacity: 1}} #er7VARG9mXo30 {animation: er7VARG9mXo30_c_o 3000ms linear infinite normal forwards}@keyframes er7VARG9mXo30_c_o { 0% {opacity: 0.3} 83.333333% {opacity: 0.8} 100% {opacity: 0.3}} #er7VARG9mXo31 {animation: er7VARG9mXo31_c_o 3000ms linear infinite normal forwards}@keyframes er7VARG9mXo31_c_o { 0% {opacity: 0.25} 66.666667% {opacity: 0.9} 100% {opacity: 0.25}} #er7VARG9mXo32 {animation: er7VARG9mXo32_c_o 3000ms linear infinite normal forwards}@keyframes er7VARG9mXo32_c_o { 0% {opacity: 1} 43.333333% {opacity: 0.7} 100% {opacity: 1}} #er7VARG9mXo34 {animation: er7VARG9mXo34_c_o 3000ms linear infinite normal forwards}@keyframes er7VARG9mXo34_c_o { 0% {opacity: 0.35} 66.666667% {opacity: 1} 100% {opacity: 0.35}} #er7VARG9mXo35 {animation: er7VARG9mXo35_c_o 3000ms linear infinite normal forwards}@keyframes er7VARG9mXo35_c_o { 0% {opacity: 0} 50% {opacity: 1} 100% {opacity: 0}} #er7VARG9mXo36 {animation: er7VARG9mXo36_c_o 3000ms linear infinite normal forwards}@keyframes er7VARG9mXo36_c_o { 0% {opacity: 1} 60% {opacity: 0.3} 100% {opacity: 1}} #er7VARG9mXo37 {animation: er7VARG9mXo37_c_o 3000ms linear infinite normal forwards}@keyframes er7VARG9mXo37_c_o { 0% {opacity: 0.05} 40% {opacity: 0.5} 100% {opacity: 0.05}} #er7VARG9mXo38 {animation: er7VARG9mXo38_c_o 3000ms linear infinite normal forwards}@keyframes er7VARG9mXo38_c_o { 0% {opacity: 0.4} 50% {opacity: 0.6} 100% {opacity: 0.4}} #er7VARG9mXo39 {animation: er7VARG9mXo39_c_o 3000ms linear infinite normal forwards}@keyframes er7VARG9mXo39_c_o { 0% {opacity: 0.4} 73.333333% {opacity: 0.8} 100% {opacity: 0.4}} #er7VARG9mXo41 {animation: er7VARG9mXo41_c_o 3000ms linear infinite normal forwards}@keyframes er7VARG9mXo41_c_o { 0% {opacity: 1} 53.333333% {opacity: 0.54} 100% {opacity: 1}} #er7VARG9mXo42 {animation: er7VARG9mXo42_c_o 3000ms linear infinite normal forwards}@keyframes er7VARG9mXo42_c_o { 0% {opacity: 0.1} 63.333333% {opacity: 1} 100% {opacity: 0.1}} #er7VARG9mXo43 {animation: er7VARG9mXo43_c_o 3000ms linear infinite normal forwards}@keyframes er7VARG9mXo43_c_o { 0% {opacity: 0.35} 66.666667% {opacity: 0.88} 100% {opacity: 0.35}} #er7VARG9mXo44 {animation: er7VARG9mXo44_c_o 3000ms linear infinite normal forwards}@keyframes er7VARG9mXo44_c_o { 0% {opacity: 0.9} 40% {opacity: 0.24} 100% {opacity: 0.9}} #er7VARG9mXo45 {animation: er7VARG9mXo45_c_o 3000ms linear infinite normal forwards}@keyframes er7VARG9mXo45_c_o { 0% {opacity: 0} 16.666667% {opacity: 0.6} 60% {opacity: 0.4} 100% {opacity: 0}} #er7VARG9mXo46 {animation: er7VARG9mXo46_c_o 3000ms linear infinite normal forwards}@keyframes er7VARG9mXo46_c_o { 0% {opacity: 0.8} 50% {opacity: 0.2} 100% {opacity: 0.8}} #er7VARG9mXo48 {animation: er7VARG9mXo48_c_o 3000ms linear infinite normal forwards}@keyframes er7VARG9mXo48_c_o { 0% {opacity: 0.05} 73.333333% {opacity: 0.7} 100% {opacity: 0.05}} #er7VARG9mXo49 {animation: er7VARG9mXo49_c_o 3000ms linear infinite normal forwards}@keyframes er7VARG9mXo49_c_o { 0% {opacity: 1} 26.666667% {opacity: 0.7} 100% {opacity: 1}} #er7VARG9mXo50 {animation: er7VARG9mXo50_c_o 3000ms linear infinite normal forwards}@keyframes er7VARG9mXo50_c_o { 0% {opacity: 0.8} 40% {opacity: 0} 100% {opacity: 0.8}} #er7VARG9mXo51 {animation: er7VARG9mXo51_c_o 3000ms linear infinite normal forwards}@keyframes er7VARG9mXo51_c_o { 0% {opacity: 1} 56.666667% {opacity: 0} 100% {opacity: 1}} #er7VARG9mXo52 {animation: er7VARG9mXo52_c_o 3000ms linear infinite normal forwards}@keyframes er7VARG9mXo52_c_o { 0% {opacity: 0.86} 26.666667% {opacity: 0.3} 100% {opacity: 0.86}} #er7VARG9mXo53 {animation: er7VARG9mXo53_c_o 3000ms linear infinite normal forwards}@keyframes er7VARG9mXo53_c_o { 0% {opacity: 0.2} 66.666667% {opacity: 0.73} 100% {opacity: 0.2}} #er7VARG9mXo55 {animation: er7VARG9mXo55_c_o 3000ms linear infinite normal forwards}@keyframes er7VARG9mXo55_c_o { 0% {opacity: 0.66} 50% {opacity: 0.93} 100% {opacity: 0.66}} #er7VARG9mXo56 {animation: er7VARG9mXo56_c_o 3000ms linear infinite normal forwards}@keyframes er7VARG9mXo56_c_o { 0% {opacity: 0} 66.666667% {opacity: 0.45} 100% {opacity: 0}} #er7VARG9mXo57 {animation: er7VARG9mXo57_c_o 3000ms linear infinite normal forwards}@keyframes er7VARG9mXo57_c_o { 0% {opacity: 0} 43.333333% {opacity: 0.29} 100% {opacity: 0}} #er7VARG9mXo58 {animation: er7VARG9mXo58_c_o 3000ms linear infinite normal forwards}@keyframes er7VARG9mXo58_c_o { 0% {opacity: 0.87} 63.333333% {opacity: 0.66} 100% {opacity: 0.87}} #er7VARG9mXo59 {animation: er7VARG9mXo59_c_o 3000ms linear infinite normal forwards}@keyframes er7VARG9mXo59_c_o { 0% {opacity: 1} 33.333333% {opacity: 0.9} 100% {opacity: 1}} #er7VARG9mXo60 {animation: er7VARG9mXo60_c_o 3000ms linear infinite normal forwards}@keyframes er7VARG9mXo60_c_o { 0% {opacity: 0.73} 46.666667% {opacity: 0.4} 100% {opacity: 0.73}} #er7VARG9mXo62 {animation: er7VARG9mXo62_c_o 3000ms linear infinite normal forwards}@keyframes er7VARG9mXo62_c_o { 0% {opacity: 0.66} 63.333333% {opacity: 0.31} 100% {opacity: 0.66}} #er7VARG9mXo63 {animation: er7VARG9mXo63_c_o 3000ms linear infinite normal forwards}@keyframes er7VARG9mXo63_c_o { 0% {opacity: 0.73} 36.666667% {opacity: 0.2} 100% {opacity: 0.73}} #er7VARG9mXo64 {animation: er7VARG9mXo64_c_o 3000ms linear infinite normal forwards}@keyframes er7VARG9mXo64_c_o { 0% {opacity: 1} 36.666667% {opacity: 0.36} 100% {opacity: 1}} #er7VARG9mXo65 {animation: er7VARG9mXo65_c_o 3000ms linear infinite normal forwards}@keyframes er7VARG9mXo65_c_o { 0% {opacity: 0.88} 70% {opacity: 0.25} 100% {opacity: 0.88}} #er7VARG9mXo66 {animation: er7VARG9mXo66_c_o 3000ms linear infinite normal forwards}@keyframes er7VARG9mXo66_c_o { 0% {opacity: 0.55} 33.333333% {opacity: 0.98} 100% {opacity: 0.55}} #er7VARG9mXo67 {animation: er7VARG9mXo67_c_o 3000ms linear infinite normal forwards}@keyframes er7VARG9mXo67_c_o { 0% {opacity: 0.2} 60% {opacity: 0.77} 100% {opacity: 0.2}} #er7VARG9mXo69 {animation: er7VARG9mXo69_c_o 3000ms linear infinite normal forwards}@keyframes er7VARG9mXo69_c_o { 0% {opacity: 0.65} 30% {opacity: 0} 100% {opacity: 0.65}} #er7VARG9mXo70 {animation: er7VARG9mXo70_c_o 3000ms linear infinite normal forwards}@keyframes er7VARG9mXo70_c_o { 0% {opacity: 0.85} 53.333333% {opacity: 0.12} 100% {opacity: 0.85}} #er7VARG9mXo71 {animation: er7VARG9mXo71_c_o 3000ms linear infinite normal forwards}@keyframes er7VARG9mXo71_c_o { 0% {opacity: 0.22} 30% {opacity: 0.7} 100% {opacity: 0.22}} #er7VARG9mXo72 {animation: er7VARG9mXo72_c_o 3000ms linear infinite normal forwards}@keyframes er7VARG9mXo72_c_o { 0% {opacity: 0.9} 46.666667% {opacity: 0.44} 100% {opacity: 0.9}} #er7VARG9mXo73 {animation: er7VARG9mXo73_c_o 3000ms linear infinite normal forwards}@keyframes er7VARG9mXo73_c_o { 0% {opacity: 1} 73.333333% {opacity: 0.81} 100% {opacity: 1}} #er7VARG9mXo74 {animation: er7VARG9mXo74_c_o 3000ms linear infinite normal forwards}@keyframes er7VARG9mXo74_c_o { 0% {opacity: 0.36} 66.666667% {opacity: 0.7} 100% {opacity: 0.36}} #er7VARG9mXo76 {animation: er7VARG9mXo76_c_o 3000ms linear infinite normal forwards}@keyframes er7VARG9mXo76_c_o { 0% {opacity: 0.9} 53.333333% {opacity: 0.2} 100% {opacity: 0.9}} #er7VARG9mXo77 {animation: er7VARG9mXo77_c_o 3000ms linear infinite normal forwards}@keyframes er7VARG9mXo77_c_o { 0% {opacity: 0.68} 40% {opacity: 0.17} 100% {opacity: 0.68}} #er7VARG9mXo78 {animation: er7VARG9mXo78_c_o 3000ms linear infinite normal forwards}@keyframes er7VARG9mXo78_c_o { 0% {opacity: 1} 66.666667% {opacity: 0} 100% {opacity: 1}} #er7VARG9mXo79 {animation: er7VARG9mXo79_c_o 3000ms linear infinite normal forwards}@keyframes er7VARG9mXo79_c_o { 0% {opacity: 0.82} 36.666667% {opacity: 0.24} 100% {opacity: 0.82}} #er7VARG9mXo80 {animation: er7VARG9mXo80_c_o 3000ms linear infinite normal forwards}@keyframes er7VARG9mXo80_c_o { 0% {opacity: 1} 60% {opacity: 0.6} 100% {opacity: 1}} #er7VARG9mXo81 {animation: er7VARG9mXo81_c_o 3000ms linear infinite normal forwards}@keyframes er7VARG9mXo81_c_o { 0% {opacity: 0.82} 26.666667% {opacity: 0.3} 100% {opacity: 0.82}} #er7VARG9mXo83 {animation: er7VARG9mXo83_c_o 3000ms linear infinite normal forwards}@keyframes er7VARG9mXo83_c_o { 0% {opacity: 0.4} 23.333333% {opacity: 0.8} 100% {opacity: 0.4}} #er7VARG9mXo84 {animation: er7VARG9mXo84_c_o 3000ms linear infinite normal forwards}@keyframes er7VARG9mXo84_c_o { 0% {opacity: 0.2} 33.333333% {opacity: 0.77} 100% {opacity: 0.2}} #er7VARG9mXo85 {animation: er7VARG9mXo85_c_o 3000ms linear infinite normal forwards}@keyframes er7VARG9mXo85_c_o { 0% {opacity: 0.25} 43.333333% {opacity: 0.77} 100% {opacity: 0.25}} #er7VARG9mXo86 {animation: er7VARG9mXo86_c_o 3000ms linear infinite normal forwards}@keyframes er7VARG9mXo86_c_o { 0% {opacity: 0.7} 66.666667% {opacity: 0.26} 100% {opacity: 0.7}} #er7VARG9mXo87 {animation: er7VARG9mXo87_c_o 3000ms linear infinite normal forwards}@keyframes er7VARG9mXo87_c_o { 0% {opacity: 1} 50% {opacity: 0.57} 100% {opacity: 1}} #er7VARG9mXo88 {animation: er7VARG9mXo88_c_o 3000ms linear infinite normal forwards}@keyframes er7VARG9mXo88_c_o { 0% {opacity: 0} 66.666667% {opacity: 0.9} 100% {opacity: 0}} #er7VARG9mXo90 {animation: er7VARG9mXo90_c_o 3000ms linear infinite normal forwards}@keyframes er7VARG9mXo90_c_o { 0% {opacity: 0.68} 46.666667% {opacity: 0.24} 100% {opacity: 0.68}} #er7VARG9mXo91 {animation: er7VARG9mXo91_c_o 3000ms linear infinite normal forwards}@keyframes er7VARG9mXo91_c_o { 0% {opacity: 0.7} 66.666667% {opacity: 0.09} 100% {opacity: 0.7}} #er7VARG9mXo92 {animation: er7VARG9mXo92_c_o 3000ms linear infinite normal forwards}@keyframes er7VARG9mXo92_c_o { 0% {opacity: 0.7} 76.666667% {opacity: 0.11} 100% {opacity: 0.7}} #er7VARG9mXo93 {animation: er7VARG9mXo93_c_o 3000ms linear infinite normal forwards}@keyframes er7VARG9mXo93_c_o { 0% {opacity: 0.27} 50% {opacity: 0.89} 100% {opacity: 0.27}} #er7VARG9mXo94 {animation: er7VARG9mXo94_c_o 3000ms linear infinite normal forwards}@keyframes er7VARG9mXo94_c_o { 0% {opacity: 1} 16.666667% {opacity: 0.4} 100% {opacity: 1}} #er7VARG9mXo95 {animation: er7VARG9mXo95_c_o 3000ms linear infinite normal forwards}@keyframes er7VARG9mXo95_c_o { 0% {opacity: 0.3} 66.666667% {opacity: 0.84} 100% {opacity: 0.3}} #er7VARG9mXo97 {animation: er7VARG9mXo97_c_o 3000ms linear infinite normal forwards}@keyframes er7VARG9mXo97_c_o { 0% {opacity: 0.77} 56.666667% {opacity: 0.3} 100% {opacity: 0.77}} #er7VARG9mXo98 {animation: er7VARG9mXo98_c_o 3000ms linear infinite normal forwards}@keyframes er7VARG9mXo98_c_o { 0% {opacity: 0.83} 53.333333% {opacity: 0.25} 100% {opacity: 0.83}} #er7VARG9mXo99 {animation: er7VARG9mXo99_c_o 3000ms linear infinite normal forwards}@keyframes er7VARG9mXo99_c_o { 0% {opacity: 0.7} 66.666667% {opacity: 0} 100% {opacity: 0.7}} #er7VARG9mXo100 {animation: er7VARG9mXo100_c_o 3000ms linear infinite normal forwards}@keyframes er7VARG9mXo100_c_o { 0% {opacity: 0.75} 76.666667% {opacity: 0.3} 100% {opacity: 0.75}} #er7VARG9mXo101 {animation: er7VARG9mXo101_c_o 3000ms linear infinite normal forwards}@keyframes er7VARG9mXo101_c_o { 0% {opacity: 0.95} 36.666667% {opacity: 0.17} 100% {opacity: 0.95}} #er7VARG9mXo102 {animation: er7VARG9mXo102_c_o 3000ms linear infinite normal forwards}@keyframes er7VARG9mXo102_c_o { 0% {opacity: 1} 43.333333% {opacity: 0.55} 100% {opacity: 1}}
]]></style>
<defs><linearGradient id="er7VARG9mXo3-fill" x1="959.3" y1="1279" x2="959.3" y2="0" spreadMethod="pad" gradientUnits="userSpaceOnUse" gradientTransform="translate(0 0)"><stop id="er7VARG9mXo3-fill-0" offset="0%" stop-color="#407fae"/><stop id="er7VARG9mXo3-fill-1" offset="100%" stop-color="#090e1b"/></linearGradient><linearGradient id="er7VARG9mXo107-fill" x1="1402.6626" y1="386.5301" x2="1628.9999" y2="386.5301" spreadMethod="pad" gradientUnits="userSpaceOnUse" gradientTransform="translate(0 0)"><stop id="er7VARG9mXo107-fill-0" offset="0%" stop-color="#c0c7d0"/><stop id="er7VARG9mXo107-fill-1" offset="100%" stop-color="#090e1b"/></linearGradient></defs><g><g><polygon id="er7VARG9mXo6" points="127.7,113.2 123.7,110.6 120.1,113.9 121.3,109.2 117.1,106.9 121.9,106.6 122.8,101.9 124.6,106.3 129.4,105.7 125.7,108.8" fill="#e2f3fa"/><polygon id="er7VARG9mXo7" points="358.9,206.9 357.3,201.8 352,201.9 356.4,198.9 354.6,193.9 358.9,197.1 363.1,193.9 361.3,198.9 365.7,201.9 360.4,201.8" opacity="0.8" fill="#e2f3fa"/><polygon id="er7VARG9mXo8" points="189.4,203.3 187.5,202.7 185.4,203.3 185.6,201.3 184.6,199.7 186.7,199.1 188.1,197.5 189.1,199.1 191.1,199.7 189.6,201.3" opacity="0.5" fill="#e2f3fa"/><polygon id="er7VARG9mXo9" points="273.2,145.6 268.6,145.1 268.1,149.7 267.1,145.2 262.6,146.1 266.6,143.8 264.3,139.7 267.8,142.8 270.9,139.4 269,143.6" fill="#e2f3fa"/><polygon id="er7VARG9mXo10" points="233.9,101.9 232.9,100.6 231.3,100.1 232.2,98.8 232.1,97.1 233.7,97.5 235.2,96.9 235.3,98.6 236.3,99.9 234.8,100.5" opacity="0.21" fill="#e2f3fa"/><polygon id="er7VARG9mXo11" points="105.2,263.2 102.4,260.2 99.4,262.9 101.4,259.4 97.9,257.4 101.8,258.2 102.7,254.2 103.2,258.2 107.2,257.8 103.5,259.5" fill="#e2f3fa"/></g><g><polygon id="er7VARG9mXo13" points="502.4,613.6 505.6,617.1 509.9,615 507.5,619.1 510.9,622.5 506.2,621.5 504,625.8 503.5,621 498.8,620.3 503.2,618.3" opacity="0.9" fill="#e2f3fa"/><polygon id="er7VARG9mXo14" points="306.2,459.7 306.2,465 311.4,466.3 306.3,468 306.6,473.3 303.5,469.1 298.5,471 301.6,466.7 298.2,462.5 303.3,464.1" fill="#e2f3fa"/><polygon id="er7VARG9mXo15" points="468.1,509.9 469.7,511 471.9,511 471.1,512.9 471.7,514.7 469.5,514.7 467.7,515.9 467.1,514.1 465.4,512.9 467.3,511.8" fill="#e2f3fa"/><polygon id="er7VARG9mXo16" points="371.5,542.3 375.8,544 377.6,539.7 377.3,544.3 381.9,544.7 377.4,545.8 378.5,550.3 376,546.4 372.1,548.8 375,545.3" fill="#e2f3fa"/><polygon id="er7VARG9mXo17" points="397.3,595.1 397.9,596.6 399.3,597.5 398.1,598.6 397.7,600.2 396.3,599.4 394.6,599.5 395,597.9 394.4,596.4 396,596.2" opacity="0" fill="#e2f3fa"/><polygon id="er7VARG9mXo18" points="565.5,475.6 567.4,479.2 571,477.5 568.1,480.3 570.9,483.2 567.3,481.4 565.5,484.9 566.1,481 562.1,480.3 566.1,479.6" opacity="0.4" fill="#e2f3fa"/></g><g><polygon id="er7VARG9mXo20" points="598.8,223.8 595.2,226.9 597.2,231.3 593.1,228.8 589.7,232.1 590.7,227.4 586.5,225.1 591.3,224.7 592.2,220 594,224.4" fill="#e2f3fa"/><polygon id="er7VARG9mXo21" points="757,31 751.7,30.9 750.2,36 748.7,31 743.4,31.2 747.7,28.1 745.9,23.1 750.1,26.3 754.3,23 752.6,28" opacity="0.6" fill="#e2f3fa"/><polygon id="er7VARG9mXo22" points="703.2,191.7 702,193.4 702,195.6 700.2,194.7 698.3,195.2 698.4,193.1 697.2,191.2 699.1,190.7 700.2,189.1 701.4,190.9" opacity="0.75" fill="#e2f3fa"/><polygon id="er7VARG9mXo23" points="673,94.5 671.2,98.8 675.4,100.6 670.8,100.2 670.3,104.8 669.3,100.3 664.8,101.3 668.7,98.9 666.4,94.9 669.9,97.9" opacity="0" fill="#e2f3fa"/><polygon id="er7VARG9mXo24" points="619.6,119.1 618,119.7 617.2,121.1 616.1,119.8 614.5,119.4 615.4,118 615.3,116.4 616.9,116.8 618.4,116.1 618.5,117.8" opacity="0.25" fill="#e2f3fa"/><polygon id="er7VARG9mXo25" points="735.3,290 731.7,291.7 733.3,295.4 730.6,292.5 727.6,295.2 729.5,291.6 726,289.7 730,290.4 730.8,286.4 731.3,290.4" opacity="0.1" fill="#e2f3fa"/></g><g><polygon id="er7VARG9mXo27" points="1125.1,489.1 1124.1,484.4 1119.3,484.2 1123.4,481.8 1122.1,477.1 1125.7,480.3 1129.7,477.7 1127.8,482.1 1131.6,485.1 1126.8,484.6" fill="#e2f3fa"/><polygon id="er7VARG9mXo28" points="1220.5,719.5 1223.1,714.9 1219.3,711.2 1224.5,712.2 1226.9,707.4 1227.5,712.7 1232.8,713.4 1228,715.7 1228.9,720.9 1225.2,717.1" opacity="0.85" fill="#e2f3fa"/><polygon id="er7VARG9mXo29" points="1104.2,596.3 1103.3,594.5 1101.4,593.4 1103,592.2 1103.4,590.3 1105.3,591.4 1107.5,591.3 1107,593.1 1107.9,594.9 1105.8,595.1" fill="#e2f3fa"/><polygon id="er7VARG9mXo30" points="1204.2,615.5 1201.3,611.9 1197.6,614.7 1200.1,610.9 1196.3,608.3 1200.8,609.5 1202,605.1 1202.3,609.7 1206.9,609.5 1202.6,611.2" opacity="0.3" fill="#e2f3fa"/><polygon id="er7VARG9mXo31" points="1207.7,556.8 1207.9,555.2 1207.1,553.7 1208.7,553.4 1209.8,552.2 1210.6,553.6 1212.1,554.3 1211,555.5 1210.8,557.2 1209.3,556.5" opacity="0.25" fill="#e2f3fa"/><polygon id="er7VARG9mXo32" points="1002.4,578.3 1002.6,574.3 998.6,574 1002.5,572.9 1001.4,569 1003.7,572.4 1007.1,570.2 1004.6,573.4 1007.7,575.9 1003.9,574.5" fill="#e2f3fa"/></g><g><polygon id="er7VARG9mXo34" points="1083.8,150.5 1079.8,147.9 1076.3,151.2 1077.4,146.5 1073.2,144.2 1078,143.8 1078.9,139.1 1080.7,143.6 1085.5,143 1081.8,146.1" opacity="0.35" fill="#e2f3fa"/><polygon id="er7VARG9mXo35" points="1315,244.2 1313.5,239.1 1308.1,239.2 1312.5,236.2 1310.8,231.2 1315,234.4 1319.2,231.2 1317.4,236.2 1321.8,239.2 1316.5,239.1" opacity="0" fill="#e2f3fa"/><polygon id="er7VARG9mXo36" points="1145.5,240.6 1143.6,240 1141.5,240.6 1141.7,238.6 1140.7,237 1142.8,236.4 1144.2,234.7 1145.3,236.4 1147.2,237 1145.7,238.6" fill="#e2f3fa"/><polygon id="er7VARG9mXo37" points="1229.4,182.9 1224.8,182.4 1224.2,187 1223.2,182.5 1218.7,183.4 1222.7,181 1220.4,177 1223.9,180.1 1227,176.7 1225.2,180.9" opacity="0.05" fill="#e2f3fa"/><polygon id="er7VARG9mXo38" points="1190,139.1 1189,137.9 1187.4,137.4 1188.3,136 1188.2,134.4 1189.8,134.8 1191.3,134.2 1191.4,135.9 1192.5,137.2 1190.9,137.8" opacity="0.4" fill="#e2f3fa"/><polygon id="er7VARG9mXo39" points="1061.3,300.5 1058.5,297.5 1055.5,300.2 1057.5,296.7 1054,294.7 1058,295.4 1058.8,291.5 1059.3,295.5 1063.3,295.1 1059.6,296.8" opacity="0.4" fill="#e2f3fa"/></g><g><polygon id="er7VARG9mXo41" points="1533.3,398.6 1530.5,394.7 1526,396.4 1528.9,392.5 1525.9,388.8 1530.4,390.3 1533.1,386.3 1533.1,391.1 1537.7,392.4 1533.1,393.8" fill="#e2f3fa"/><polygon id="er7VARG9mXo42" points="1711,573.6 1711.6,568.3 1706.6,566.4 1711.8,565.3 1712.1,560 1714.8,564.6 1719.9,563.2 1716.4,567.2 1719.2,571.6 1714.4,569.5" opacity="0.1" fill="#e2f3fa"/><polygon id="er7VARG9mXo43" points="1555.8,505.5 1554.3,504.2 1552.1,504 1553.1,502.2 1552.8,500.3 1554.9,500.6 1556.9,499.6 1557.2,501.5 1558.8,502.8 1556.8,503.7" opacity="0.35" fill="#e2f3fa"/><polygon id="er7VARG9mXo44" points="1655.4,484.2 1651.3,482 1649,486.1 1649.9,481.5 1645.3,480.6 1649.9,480 1649.4,475.4 1651.4,479.6 1655.6,477.6 1652.2,480.8" opacity="0.9" fill="#e2f3fa"/><polygon id="er7VARG9mXo45" points="1635.7,428.8 1635.3,427.2 1633.9,426.2 1635.3,425.2 1635.9,423.7 1637.2,424.7 1638.8,424.7 1638.3,426.3 1638.8,427.9 1637.1,427.8" opacity="0" fill="#e2f3fa"/><polygon id="er7VARG9mXo46" points="1455.1,528.6 1453.7,524.8 1449.9,526.2 1453,523.7 1450.6,520.5 1453.9,522.7 1456.2,519.4 1455.1,523.3 1459,524.4 1455,524.6" opacity="0.8" fill="#e2f3fa"/></g><g><polygon id="er7VARG9mXo48" points="36.3,775.2 32.2,772.7 28.7,776 29.8,771.3 25.7,769 30.4,768.6 31.4,763.9 33.2,768.4 37.9,767.8 34.3,770.9" opacity="0.05" fill="#e2f3fa"/><polygon id="er7VARG9mXo49" points="267.4,869 265.9,863.9 260.6,864 265,861 263.2,856 267.4,859.2 271.6,856 269.9,861 274.2,864 268.9,863.9" fill="#e2f3fa"/><polygon id="er7VARG9mXo50" points="97.9,865.4 96,864.8 93.9,865.4 94.2,863.4 93.2,861.8 95.2,861.1 96.7,859.5 97.7,861.1 99.6,861.7 98.2,863.4" opacity="0.8" fill="#e2f3fa"/><polygon id="er7VARG9mXo51" points="181.8,807.6 177.2,807.2 176.6,811.8 175.7,807.3 171.1,808.2 175.1,805.8 172.9,801.8 176.3,804.9 179.4,801.5 177.6,805.7" fill="#e2f3fa"/><polygon id="er7VARG9mXo52" points="142.4,763.9 141.4,762.6 139.8,762.2 140.7,760.8 140.6,759.2 142.2,759.6 143.8,759 143.8,760.7 144.9,761.9 143.3,762.5" opacity="0.86" fill="#e2f3fa"/><polygon id="er7VARG9mXo53" points="13.7,925.2 11,922.3 8,925 9.9,921.5 6.4,919.5 10.4,920.2 11.2,916.3 11.7,920.3 15.7,919.9 12.1,921.6" opacity="0.2" fill="#e2f3fa"/></g><g><polygon id="er7VARG9mXo55" points="777.6,923.5 780.1,927.6 784.7,926.2 781.7,929.9 784.4,933.8 780,932 777.1,935.9 777.4,931.1 772.8,929.5 777.5,928.3" opacity="0.66" fill="#e2f3fa"/><polygon id="er7VARG9mXo56" points="610,738.8 609.1,744.1 614,746.3 608.7,747.1 608.1,752.4 605.7,747.6 600.5,748.7 604.3,745 601.7,740.3 606.4,742.8" opacity="0" fill="#e2f3fa"/><polygon id="er7VARG9mXo57" points="761.1,815.6 762.6,817 764.7,817.3 763.6,819 763.9,820.9 761.7,820.6 759.7,821.4 759.5,819.5 758,818.1 760,817.3" opacity="0" fill="#e2f3fa"/><polygon id="er7VARG9mXo58" points="660.5,831.2 664.5,833.6 666.9,829.7 665.9,834.2 670.3,835.4 665.7,835.7 666,840.4 664.3,836.1 660,837.8 663.5,834.8" opacity="0.87" fill="#e2f3fa"/><polygon id="er7VARG9mXo59" points="677,887.7 677.4,889.3 678.6,890.4 677.2,891.2 676.6,892.8 675.3,891.7 673.7,891.5 674.3,890 673.9,888.4 675.6,888.5" fill="#e2f3fa"/><polygon id="er7VARG9mXo60" points="863,798.2 864.2,802 868,800.9 864.8,803.2 867,806.6 863.8,804.1 861.3,807.3 862.6,803.5 858.8,802.2 862.9,802.2" opacity="0.73" fill="#e2f3fa"/></g><g><polygon id="er7VARG9mXo62" points="1319.4,860.9 1318.9,856.1 1314.2,855.4 1318.6,853.4 1317.9,848.7 1321.1,852.3 1325.4,850.1 1323,854.3 1326.3,857.7 1321.6,856.7" opacity="0.66" fill="#e2f3fa"/><polygon id="er7VARG9mXo63" points="1386.2,1101.2 1389.3,1096.9 1386,1092.8 1391.1,1094.4 1394,1089.9 1394,1095.3 1399.1,1096.6 1394.1,1098.3 1394.3,1103.6 1391.2,1099.3" opacity="0.73" fill="#e2f3fa"/><polygon id="er7VARG9mXo64" points="1285.6,964.8 1284.9,962.9 1283.2,961.6 1284.9,960.6 1285.6,958.8 1287.3,960 1289.5,960.2 1288.8,962 1289.5,963.9 1287.4,963.7" fill="#e2f3fa"/><polygon id="er7VARG9mXo65" points="1382.5,996 1380.1,992 1376.1,994.4 1379.1,990.9 1375.6,987.8 1379.9,989.6 1381.7,985.3 1381.4,989.9 1386,990.3 1381.5,991.5" opacity="0.88" fill="#e2f3fa"/><polygon id="er7VARG9mXo66" points="1393.2,938.1 1393.5,936.5 1392.9,935 1394.6,934.8 1395.8,933.8 1396.5,935.3 1397.9,936.1 1396.6,937.2 1396.2,938.8 1394.8,938" opacity="0.55" fill="#e2f3fa"/><polygon id="er7VARG9mXo67" points="1186.8,934.6 1187.5,930.6 1183.5,929.9 1187.5,929.3 1187,925.3 1188.8,928.9 1192.4,927.1 1189.5,930 1192.3,932.9 1188.7,931" opacity="0.2" fill="#e2f3fa"/></g><g><polygon id="er7VARG9mXo69" points="829.2,1088.4 825.1,1085.9 821.6,1089.2 822.7,1084.5 818.5,1082.2 823.3,1081.8 824.3,1077.1 826.1,1081.6 830.8,1081 827.1,1084.1" opacity="0.65" fill="#e2f3fa"/><polygon id="er7VARG9mXo70" points="1060.3,1182.1 1058.8,1177 1053.5,1177.2 1057.8,1174.2 1056.1,1169.1 1060.3,1172.4 1064.5,1169.2 1062.8,1174.2 1067.1,1177.2 1061.8,1177.1" opacity="0.85" fill="#e2f3fa"/><polygon id="er7VARG9mXo71" points="890.8,1178.6 888.9,1177.9 886.8,1178.6 887.1,1176.6 886,1175 888.1,1174.3 889.6,1172.7 890.6,1174.3 892.5,1174.9 891.1,1176.6" opacity="0.22" fill="#e2f3fa"/><polygon id="er7VARG9mXo72" points="974.7,1120.8 970.1,1120.4 969.5,1124.9 968.5,1120.4 964,1121.3 968,1119 965.7,1115 969.2,1118.1 972.3,1114.7 970.5,1118.9" opacity="0.9" fill="#e2f3fa"/><polygon id="er7VARG9mXo73" points="935.3,1077.1 934.3,1075.8 932.7,1075.4 933.6,1074 933.5,1072.4 935.1,1072.8 936.6,1072.2 936.7,1073.8 937.8,1075.1 936.2,1075.7" fill="#e2f3fa"/><polygon id="er7VARG9mXo74" points="806.6,1238.4 803.8,1235.5 800.9,1238.2 802.8,1234.6 799.3,1232.6 803.3,1233.4 804.1,1229.5 804.6,1233.5 808.6,1233 805,1234.7" opacity="0.36" fill="#e2f3fa"/></g><g><polygon id="er7VARG9mXo76" points="1677.6,816.6 1672.9,817.6 1672.6,822.4 1670.2,818.2 1665.6,819.4 1668.8,815.9 1666.2,811.8 1670.6,813.8 1673.7,810.1 1673.1,814.9" opacity="0.9" fill="#e2f3fa"/><polygon id="er7VARG9mXo77" points="1909.8,725.5 1905.2,722.9 1901.4,726.6 1902.5,721.4 1897.8,719 1903,718.5 1903.9,713.2 1906.1,718.1 1911.3,717.2 1907.4,720.8" opacity="0.68" fill="#e2f3fa"/><polygon id="er7VARG9mXo78" points="1784.3,839.6 1782.5,840.5 1781.5,842.4 1780.3,840.7 1778.4,840.3 1779.5,838.4 1779.4,836.2 1781.3,836.7 1783.1,835.8 1783.2,838" fill="#e2f3fa"/><polygon id="er7VARG9mXo79" points="1805.4,740 1801.8,742.8 1804.6,746.5 1800.7,743.9 1798.1,747.7 1799.4,743.3 1795,741.9 1799.6,741.8 1799.5,737.1 1801.1,741.5" opacity="0.82" fill="#e2f3fa"/><polygon id="er7VARG9mXo80" points="1746.8,735.4 1745.2,735.1 1743.7,735.9 1743.4,734.3 1742.2,733.2 1743.7,732.4 1744.4,730.9 1745.6,732 1747.2,732.2 1746.5,733.7" fill="#e2f3fa"/><polygon id="er7VARG9mXo81" points="1764.5,941 1760.4,940.7 1760.1,944.8 1759.1,940.9 1755.2,941.8 1758.6,939.6 1756.5,936.2 1759.6,938.8 1762.2,935.7 1760.7,939.4" opacity="0.82" fill="#e2f3fa"/></g><g><polygon id="er7VARG9mXo83" points="1810.8,36 1810.3,31.2 1805.6,30.4 1810,28.5 1809.3,23.7 1812.5,27.3 1816.8,25.2 1814.3,29.3 1817.7,32.7 1813,31.7" opacity="0.4" fill="#e2f3fa"/><polygon id="er7VARG9mXo84" points="1877.6,276.3 1880.7,271.9 1877.4,267.8 1882.4,269.4 1885.3,265 1885.4,270.3 1890.5,271.7 1885.4,273.3 1885.7,278.6 1882.6,274.4" opacity="0.2" fill="#e2f3fa"/><polygon id="er7VARG9mXo85" points="1777,139.8 1776.3,137.9 1774.6,136.7 1776.3,135.6 1777,133.8 1778.7,135.1 1780.9,135.2 1780.2,137 1780.9,138.9 1778.8,138.8" opacity="0.25" fill="#e2f3fa"/><polygon id="er7VARG9mXo86" points="1873.9,171 1871.5,167.1 1867.5,169.5 1870.5,165.9 1867,162.9 1871.3,164.6 1873.1,160.4 1872.8,165 1877.4,165.4 1872.9,166.5" opacity="0.7" fill="#e2f3fa"/><polygon id="er7VARG9mXo87" points="1884.6,113.2 1884.9,111.6 1884.3,110 1885.9,109.9 1887.2,108.8 1887.8,110.3 1889.3,111.2 1888,112.3 1887.6,113.9 1886.2,113" fill="#e2f3fa"/><polygon id="er7VARG9mXo88" points="1678.2,109.6 1678.9,105.7 1674.9,104.9 1678.9,104.3 1678.3,100.3 1680.1,103.9 1683.8,102.2 1680.9,105 1683.7,107.9 1680.1,106.1" opacity="0" fill="#e2f3fa"/></g><g><polygon id="er7VARG9mXo90" points="1740.7,1247.6 1744.8,1250 1748.2,1246.7 1747.2,1251.4 1751.4,1253.7 1746.6,1254.1 1745.7,1258.8 1743.9,1254.4 1739.1,1255 1742.7,1251.9" opacity="0.68" fill="#e2f3fa"/><polygon id="er7VARG9mXo91" points="1508.3,1157.1 1509.8,1162.1 1515.2,1161.9 1510.8,1165 1512.7,1170 1508.4,1166.8 1504.2,1170.1 1505.9,1165.1 1501.5,1162.1 1506.8,1162.2" opacity="0.7" fill="#e2f3fa"/><polygon id="er7VARG9mXo92" points="1677.8,1158.3 1679.7,1158.9 1681.8,1158.2 1681.6,1160.2 1682.6,1161.8 1680.5,1162.5 1679.1,1164.1 1678.1,1162.5 1676.1,1161.9 1677.6,1160.3" opacity="0.7" fill="#e2f3fa"/><polygon id="er7VARG9mXo93" points="1594.7,1217.2 1599.3,1217.6 1599.8,1213 1600.9,1217.5 1605.4,1216.5 1601.4,1218.9 1603.7,1222.9 1600.2,1219.9 1597.2,1223.3 1599,1219.1" opacity="0.27" fill="#e2f3fa"/><polygon id="er7VARG9mXo94" points="1634.7,1260.4 1635.7,1261.6 1637.3,1262 1636.5,1263.4 1636.6,1265.1 1635,1264.7 1633.4,1265.3 1633.3,1263.6 1632.2,1262.4 1633.8,1261.8" fill="#e2f3fa"/><polygon id="er7VARG9mXo95" points="1761.2,1097.3 1763.9,1100.2 1766.9,1097.4 1765,1101 1768.5,1103 1764.6,1102.2 1763.8,1106.2 1763.2,1102.2 1759.2,1102.7 1762.8,1100.9" opacity="0.3" fill="#e2f3fa"/></g><g><polygon id="er7VARG9mXo97" points="402.3,1223.4 406.4,1225.8 409.9,1222.5 408.8,1227.2 413,1229.5 408.3,1229.9 407.4,1234.6 405.5,1230.2 400.8,1230.8 404.4,1227.7" opacity="0.77" fill="#e2f3fa"/><polygon id="er7VARG9mXo98" points="169.9,1132.8 171.5,1137.9 176.8,1137.7 172.5,1140.8 174.3,1145.8 170,1142.6 165.9,1145.9 167.6,1140.9 163.2,1137.9 168.5,1138" opacity="0.83" fill="#e2f3fa"/><polygon id="er7VARG9mXo99" points="339.4,1134.1 341.4,1134.7 343.4,1134 343.2,1136 344.3,1137.6 342.2,1138.3 340.8,1139.9 339.7,1138.3 337.8,1137.7 339.2,1136.1" opacity="0.7" fill="#e2f3fa"/><polygon id="er7VARG9mXo100" points="256.4,1193 261,1193.4 261.5,1188.8 262.5,1193.3 267,1192.3 263.1,1194.7 265.4,1198.7 261.9,1195.7 258.8,1199.1 260.6,1194.8" opacity="0.75" fill="#e2f3fa"/><polygon id="er7VARG9mXo101" points="296.3,1236.1 297.4,1237.4 299,1237.8 298.1,1239.2 298.2,1240.9 296.6,1240.5 295.1,1241.1 295,1239.4 293.9,1238.2 295.4,1237.5" opacity="0.95" fill="#e2f3fa"/><polygon id="er7VARG9mXo102" points="422.8,1073.1 425.6,1076 428.6,1073.2 426.7,1076.8 430.2,1078.7 426.2,1078 425.4,1082 424.9,1078 420.9,1078.5 424.5,1076.7" transform="translate(0 1)" fill="#e2f3fa"/></g></g></svg>
