<?xml version="1.0" encoding="utf-8"?>
<!-- Generator: Adobe Illustrator 27.9.0, SVG Export Plug-In . SVG Version: 6.00 Build 0)  -->
<svg version="1.1" id="stork" xmlns="http://www.w3.org/2000/svg" xmlns:xlink="http://www.w3.org/1999/xlink" x="0px" y="0px"
	 viewBox="0 0 362.7 654" style="enable-background:new 0 0 362.7 654;" xml:space="preserve">
<style type="text/css">
	.st0{fill:#CE4D36;}
	.st1{fill:#E25E40;}
	.st2{fill:#D9D4D3;}
	.st3{fill:#EEE7E5;}
	.st4{fill:#676666;}
	.st5{fill:#D1D1D1;}
	.st6{fill:#FFFFFF;}
	.st7{fill:#DAD4D2;}
</style>
<g>
	<g>
		<path class="st0" d="M113.3,470.8L81.8,462c0,0-13.9-5.1-4.2-14.9l26.9-41.8l-18.1-1.9l-47.4,55.7c0,0-7.9,10.2,10.7,14.4
			c0,0,158.8,23.7,190.8,91c0,0,4.6,2.3,5.1-9.7C245.6,554.8,252.1,486.1,113.3,470.8z"/>
		<path class="st0" d="M163,501.2c0,0,9.5,23.9,6.5,35.3c0,0,4.9,1.9,6.5-2.8c1.6-4.6,4.9-20.2,4.9-25.5
			C180.9,502.9,163,501.2,163,501.2z"/>
		<path class="st0" d="M191.2,515c0,0,11.2,28.3,7.7,41.7c0,0,5.8,2.2,7.7-3.3c1.9-5.5,5.8-23.9,5.8-30.2
			C212.3,516.9,191.2,515,191.2,515z"/>
	</g>
	<path class="st1" d="M124.2,407.4c0,0-5.6,10.2,2.8,24.5c0,0,0.9,60.4-0.9,119.2v63.1l13.6,0.6l14.9-196.5L124.2,407.4z"/>
	<path class="st2" d="M79,360c0,0,18.6,6.2,5.6,42.1c0,0,10.5,10.5,21.7,9.3c0,0,21-25.4,27.9-36.5C134.1,374.9,127.3,334.6,79,360z
		"/>
	<path class="st3" d="M179.9,316.1L77.1,356.3c0,0,47-5,48.9,18.6l-6.2,35.9c0,0,14.2,0.6,21.4,5.3c7.1,4.6,13.9,6.5,16.4,5.9
		c0,0-6.8-43.9,0-57.6C157.6,364.4,166.3,329.7,179.9,316.1z"/>
	<path class="st4" d="M186.7,223.2L74,280.8c0,0-32.2,10.5-45.2,24.8c0,0-52.6,54.5-10.5,105.2c0,0,0.6-14.2,5-16.1l8.7,20.4
		c0,0,6.2-25.4,11.1-28.5c0,0,12.4,17.9,15.5,19.2c0,0,9.9-29.1,19.8-37.8c0,0,22.9-21.7,59.4-28.5c0,0,45.2-16.7,66.2-33.4
		l11.1-74.3L186.7,223.2z"/>
	<path class="st0" d="M158.8,43.7c0,0-79.9,9.9-32.8,39l230.3,39.6L158.8,43.7z"/>
	<path class="st1" d="M158.8,43.7c0,0-44.9,5.6-47.5,20.6c-0.9,5,245,58,245,58L158.8,43.7z"/>
	<path class="st3" d="M267.8,210.2c0,0-18-78-104-109.6c0,0-45.2-20.4-50.1-35.9c0,0,16.1-18.6,45.2-21c0,0,6.8-50.1-52-40.9
		C90.7,5.4,63.3,22.7,61.7,48.7c-0.6,9.9-5,41.5,37.8,54.5c0,0,91,37.1,78,78c0,0-1.9,37.1-46.4,50.1c0,0-50.6,20.9-59.9,50.6
		c0,0,67.3-13.5,108.2-46.9l-14.9,46.4c0,0,31.6-13,42.7-22.3c0,0-9.3,48.3-5.6,57.6c0,0,20.4-11.1,27.9-27.9c0,0,5.6,13,3.7,26
		c0,0,27.9-26,24.1-53.9c0,0,5,9.3,6.2,14.2C263.4,275.2,280.2,263.5,267.8,210.2z"/>
	<circle class="st5" cx="116.1" cy="45.6" r="9.3"/>
	<circle class="st6" cx="116.1" cy="45.6" r="8.3"/>
	<circle class="st4" cx="116.1" cy="45.6" r="5.1"/>
	<circle class="st3" cx="118" cy="43.7" r="1.9"/>
	<path class="st1" d="M216.4,632.1c2.8-1.5,11.3,6.8,11.3,1.9c0-5-8.9-9.3-13.2-11.1c-25.6-11.1-56.9-10.8-56.9-10.8
		c-57.9-5.9-82.3,32.2-82.3,32.2c-3.4,13.9,16.6-3.4,24.8-6.2c43-14.5,127,10.7,130.3,6.5C233.6,640.3,213.6,633.6,216.4,632.1z"/>
	<path class="st7" d="M134,45.1c-3.8-2.3-9.3-4.7-15.2-3.7c-10.6,1.8-17.9,13.5-19.6,12.2c-1-0.8,1.3-4.7,0.5-5.1
		c-0.7-0.4-3.7,2.2-5.1,5.8c-1.2,3-0.9,5.4-1.2,5.4c-0.5,0-2.8-6.1-0.9-11.7c3-8.7,14.4-10.9,16.1-11.2
		C121.8,34.2,132.5,43.7,134,45.1z"/>
</g>
</svg>
