<?xml version="1.0" encoding="utf-8"?>
<!-- Generator: Adobe Illustrator 27.9.0, SVG Export Plug-In . SVG Version: 6.00 Build 0)  -->
<svg version="1.1" xmlns="http://www.w3.org/2000/svg" xmlns:xlink="http://www.w3.org/1999/xlink" x="0px" y="0px"
	 viewBox="0 0 595.3 862.9" style="enable-background:new 0 0 595.3 862.9;" xml:space="preserve">
<style type="text/css">
	.st0{fill:#CE4D36;}
	.st1{fill:#E25E40;}
	.st2{fill:#D9D4D3;}
	.st3{fill:#EEE7E5;}
	.st4{fill:#676666;}
	.st5{fill:#D1D1D1;}
	.st6{fill:#FFFFFF;}
	.st7{fill:#DAD4D2;}
	.st8{fill:#835746;}
	.st9{fill:#683621;}
	.st10{fill:none;stroke:#683621;stroke-width:8;stroke-miterlimit:10;}
	.st11{fill:#683621;stroke:#683621;stroke-miterlimit:10;}
	.st12{fill:none;stroke:#683621;stroke-width:2;stroke-miterlimit:10;}
	.st13{fill:#525760;stroke:#1B1E21;stroke-width:3;stroke-linecap:round;stroke-miterlimit:10;}
	.st14{fill:#525760;stroke:#32363B;stroke-width:2;stroke-linecap:round;stroke-miterlimit:10;}
	.st15{fill:#535754;stroke:#373636;stroke-linecap:round;stroke-miterlimit:10;}
	.st16{fill:#D3D6D7;stroke:#706F6F;stroke-miterlimit:10;}
	.st17{fill:#E6E6E6;stroke:#706F6F;stroke-miterlimit:10;}
</style>
<g id="stork">
	<g>
		<g>
			<path class="st0" d="M270.5,211.8l-13.8-3.9c0,0-6.1-2.2-1.8-6.5l11.8-18.3l-7.9-0.8l-20.8,24.4c0,0-3.5,4.5,4.7,6.3
				c0,0,69.6,10.4,83.6,39.9c0,0,2,1,2.2-4.3C328.5,248.6,331.4,218.5,270.5,211.8z"/>
			<path class="st0" d="M292.3,225.1c0,0,4.2,10.5,2.8,15.5c0,0,2.1,0.8,2.8-1.2c0.7-2,2.1-8.9,2.1-11.2S292.3,225.1,292.3,225.1z"
				/>
			<path class="st0" d="M304.6,231.2c0,0,4.9,12.4,3.4,18.3c0,0,2.5,1,3.4-1.4c0.8-2.4,2.5-10.5,2.5-13.2
				C313.9,232,304.6,231.2,304.6,231.2z"/>
		</g>
		<path class="st1" d="M275.3,184c0,0-2.4,4.5,1.2,10.7c0,0,0.4,26.5-0.4,52.2v27.7l6,0.3l6.5-86.1L275.3,184z"/>
		<path class="st2" d="M255.5,163.2c0,0,8.1,2.7,2.4,18.5c0,0,4.6,4.6,9.5,4.1c0,0,9.2-11.1,12.2-16
			C279.6,169.8,276.6,152.1,255.5,163.2z"/>
		<path class="st3" d="M299.7,144l-45,17.6c0,0,20.6-2.2,21.4,8.1l-2.7,15.7c0,0,6.2,0.3,9.4,2.3c3.1,2,6.1,2.8,7.2,2.6
			c0,0-3-19.3,0-25.2C289.9,165.1,293.7,149.9,299.7,144z"/>
		<path class="st4" d="M302.7,103.3l-49.4,25.2c0,0-14.1,4.6-19.8,10.9c0,0-23.1,23.9-4.6,46.1c0,0,0.3-6.2,2.2-7.1l3.8,9
			c0,0,2.7-11.1,4.9-12.5c0,0,5.4,7.9,6.8,8.4c0,0,4.3-12.8,8.7-16.6c0,0,10-9.5,26-12.5c0,0,19.8-7.3,29-14.7l4.9-32.6L302.7,103.3
			z"/>
		<path class="st0" d="M290.5,24.6c0,0-35,4.3-14.4,17.1L377,59L290.5,24.6z"/>
		<path class="st1" d="M290.5,24.6c0,0-19.7,2.4-20.8,9C269.2,35.8,377,59,377,59L290.5,24.6z"/>
		<path class="st3" d="M338.2,97.6c0,0-7.9-34.2-45.6-48c0,0-19.8-9-22-15.7c0,0,7.1-8.1,19.8-9.2c0,0,3-22-22.8-17.9
			c-7.1,1.1-19.1,8.7-19.8,20.1c-0.3,4.3-2.2,18.2,16.6,23.9c0,0,39.9,16.3,34.2,34.2c0,0-0.8,16.3-20.3,22c0,0-22.2,9.2-26.3,22.2
			c0,0,29.5-5.9,47.4-20.6l-6.5,20.3c0,0,13.8-5.7,18.7-9.8c0,0-4.1,21.2-2.4,25.2c0,0,9-4.9,12.2-12.2c0,0,2.4,5.7,1.6,11.4
			c0,0,12.2-11.4,10.6-23.6c0,0,2.2,4.1,2.7,6.2C336.3,126.1,343.6,120.9,338.2,97.6z"/>
		<circle class="st5" cx="271.7" cy="25.4" r="4.1"/>
		<circle class="st6" cx="271.7" cy="25.4" r="3.6"/>
		<circle class="st4" cx="271.7" cy="25.4" r="2.2"/>
		<circle class="st3" cx="272.6" cy="24.6" r="0.8"/>
		<path class="st1" d="M315.7,282.5c1.2-0.7,5,3,5,0.8c0-2.2-3.9-4.1-5.8-4.9c-11.2-4.9-25-4.7-25-4.7
			c-25.4-2.6-36.1,14.1-36.1,14.1c-1.5,6.1,7.3-1.5,10.9-2.7c18.9-6.4,55.7,4.7,57.1,2.8C323.2,286.1,314.5,283.2,315.7,282.5z"/>
		<path class="st7" d="M279.6,25.2c-1.7-1-4.1-2.1-6.7-1.6c-4.7,0.8-7.9,5.9-8.6,5.3c-0.4-0.3,0.6-2.1,0.2-2.3
			c-0.3-0.2-1.6,1-2.3,2.6c-0.5,1.3-0.4,2.4-0.5,2.4c-0.2,0-1.2-2.7-0.4-5.1c1.3-3.8,6.3-4.8,7.1-4.9
			C274.2,20.4,278.9,24.6,279.6,25.2z"/>
	</g>
</g>
<g id="tree">
	<g transform="translate(1 1)">
		<path class="st8" d="M45.3,836.2c18.4,0,55.2,0,73.6-18.4c18.4-18.4,27.6-36.8,27.6-73.6c0-55.2-36.8-92-36.8-165.7
			c0-92,36.8-128.8,36.8-165.7c0-73.6-36.8-92-36.8-92s82.8,9.2,174.9,9.2s174.9-9.2,174.9-9.2s-36.8,18.4-36.8,92
			c0,36.8,36.8,73.6,36.8,165.7c0,73.6-36.8,110.4-36.8,165.7c0,36.8,9.2,55.2,27.6,73.6c18.4,18.4,55.2,18.4,73.6,18.4
			s27.6,18.4,27.6,18.4H441c0,0-119.6,0-156.4-18.4c-36.8,18.4-156.4,18.4-156.4,18.4H17.7C17.7,854.6,26.9,836.2,45.3,836.2"/>
	</g>
	<path class="st9" d="M544.9,860.2c-7.6,0-193.7,0-259.3-17.5C220,860.2,34,860.2,26.3,860.2c-4.6,0-7.6-1.8-7.6-4.6
		c0-2.8,3.1-4.6,7.6-4.6c1.5,0,196.7,0,256.2-17.5c1.5-0.9,4.6-0.9,6.1,0c58,17.5,253.2,17.5,256.2,17.5c4.6,0,7.6,1.8,7.6,4.6
		C552.5,858.4,549.4,860.2,544.9,860.2z M552.3,860.2c-1.9,0-3.8-0.9-3.8-2.8c0,0-8.6-15.6-25-15.6c-19.2,0-59.5,0-80.6-19.3
		c-18.2-17.5-29.8-36.8-29.8-77.3c0-26.7,8.6-48.8,17.3-71.8c10.6-26.7,21.1-55.2,21.1-93.9c0-55.2-14.4-90.2-25-117.8
		c-6.7-17.5-13.4-32.2-13.4-47.9c0-75.5,39.4-95.7,41.3-95.7c1.9-0.9,4.8,0,6.7,1.8c1,1.8,0,4.6-1.9,6.4l0,0
		c0,0-35.5,18.4-35.5,88.3c0,13.8,5.8,26.7,12.5,44.2c10.6,26.7,25.9,64.4,25.9,121.5c0,40.5-11.5,69.9-21.1,96.6
		c-8.6,23-17.3,44.2-17.3,69c0,36.8,9.6,53.4,27.8,69.9c18.2,17.5,55.7,17.5,73,17.5c22.1,0,32.6,20.2,32.6,21.2
		c1,1.8,0,4.6-1.9,6.4C554.2,860.2,553.2,860.2,552.3,860.2z M18.7,860.2c-0.9,0-1.8,0-1.8-0.9c-1.8-0.9-2.8-3.7-1.8-6.4
		c0-0.9,11-21.2,31.3-21.2c17.5,0,53.4,0,69.9-17.5c16.6-16.6,26.7-33.1,26.7-69.9c0-24.8-8.3-46-16.6-69
		c-10.1-26.7-20.2-56.1-20.2-96.6c0-57.1,14.7-93.9,24.8-121.5c6.4-17.5,12-31.3,12-44.2c0-69-34.1-87.4-34.1-88.3
		c-1.8-0.9-2.8-3.7-1.8-6.4c0.9-2.8,3.7-2.8,6.4-1.8c1.8,0.9,39.6,20.2,39.6,95.7c0,14.7-5.5,30.4-12.9,47.9
		c-11,27.6-23.9,62.6-23.9,117.8c0,38.7,10.1,66.3,20.2,93.9c8.3,23.9,16.6,46,16.6,71.8c0,39.6-11,58.9-28.5,77.3
		c-19.3,19.3-58,19.3-77.3,19.3c-15.6,0-23,15.6-23.9,15.6C22.4,859.3,20.6,860.2,18.7,860.2z M321.2,811.6c-1,2.6-3.4,3.6-6,2.6
		c-2.6-1-3.6-3.4-2.6-6c6.7-17.1,9.6-34.8,8.2-51.2c0.1-2.9,1.7-4.3,4.1-5.3c2.9,0.1,4.3,1.7,5.3,4.1
		C331.8,774.2,328.5,792.7,321.2,811.6z M205,813.2c-1.9-0.7-3.1-3.4-1.7-5.9c23.1-38.8,12.2-76.4,12.2-76.4
		c0.1-2.6,1.5-5.1,3.5-5.7c2.6,0.1,5.1,1.5,5.7,3.5c0.6,2,11.3,42.1-13.8,84.1l-0.7,0.6C208.8,814.7,206.8,815.3,205,813.2z
		 M388.1,772c-0.4,0.8-0.9,1.6-2.1,2c-2.5,0.7-5.4,0.2-6.1-2.2l-12-26.3c-0.7-2.5-0.2-5.4,2.2-6.1c2.5-0.7,5.4-0.2,6.1,2.2l12,26.3
		C388.6,769.1,388.6,771.2,388.1,772z M262.5,668.6h-0.9c-2.8-1-3.7-3.1-3.7-6.2c4.6-19.6,16.6-36.1,30.4-44.3c1.8-1,4.6,0,6.4,2.1
		c1.8,2.1,0,5.2-1.8,7.2c-9.2,5.2-20.2,17.5-25.8,38.1C266.2,666.6,264.3,668.6,262.5,668.6z M378.7,633.5c-1.4-1.2-2.3-3-1.8-5.1
		c3.5-11.5,2.9-23.8-0.7-33.9c-0.8-1.9,0.2-4.6,2.7-6.1c1.9-0.8,4.6,0.2,6.1,2.7c5,11.3,5.8,26.2,1.3,40.4c-1,2.7-2.9,3.6-6.2,3.2
		C379.4,634.1,378.7,633.5,378.7,633.5z M156.8,565.7L156.8,565.7c-2.8,0-4.6-2.8-4.6-4.6l2.8-36.8c0-2.8,2.8-4.6,4.6-4.6
		c2.8,0,4.6,2.8,4.6,4.6l-2.8,36.8C161.4,563.9,159.5,565.7,156.8,565.7z M414.4,565.7c-2.8,0-4.6-1.8-4.6-4.6l-2.8-35
		c0-2.8,1.8-4.6,3.7-4.6c2.8,0,4.6,0.9,5.5,3.7c0,0.9,2.8,17.5,2.8,35.9C419,563.9,417.2,565.7,414.4,565.7L414.4,565.7z
		 M211.3,364.3c2.4-1,5,0.1,5.9,2.5c-0.4,0.8,5,14.1-3,32.8c-8,18.6-21.6,24.8-21.6,24.8c-2.4,1-5-0.1-5.9-2.5c-1-2.4,0.1-5,2.5-5.9
		c0.8,0.4,10.9-4.4,17-18.7s1.8-25.3,1.8-25.3l0,0c-0.5-1.2,0.2-2.9,0.6-3.7C209,367.3,209.8,365.6,211.3,364.3z M460,322.5
		c0,2.8-2,4.6-5,4.6c-2,0-130.4-0.2-168.6,17.2c-1,0.9-3,0.9-4,0c-39.1-17.6-167.5-17.8-168.5-17.8c-3,0-5-1.8-5-4.6s2-4.6,5-4.6
		c5,0,127.4,0.2,170.5,17.8c43.2-17.4,165.5-17.2,170.6-17.2C458,317.9,460,319.7,460,322.5z M241.6,535.6c-2.8,0-4.6-4.2-4.6-10.5
		l-2.8-79.7c0-6.3,1.8-10.5,3.7-10.5c2.8,0,4.6,2.1,5.5,8.4c0,2.1,2.8,39.8,2.8,81.8C246.2,531.4,244.4,535.6,241.6,535.6
		L241.6,535.6z M361.8,393.6c-2.6-0.9-3.8-3.2-2.9-5.8l8.8-34c0.9-2.6,3.2-3.8,5-3.2c2.6,0.9,4.1,2.4,4,5.3
		c-0.3,0.9-3.1,17.4-9.1,34.8C366.7,393.3,364.4,394.5,361.8,393.6L361.8,393.6z"/>
	<ellipse class="st10" cx="358.6" cy="480.7" rx="26.3" ry="15.4"/>
	<path class="st11" d="M321,542.7c-1.5-0.6-2.4-2.6-1.3-4.5c17.4-29.3,9.2-57.6,9.2-57.6c0.1-2,1.1-3.9,2.6-4.3
		c2,0.1,3.9,1.1,4.3,2.6c0.4,1.5,8.5,31.8-10.4,63.4l-0.5,0.5C323.9,543.8,322.4,544.2,321,542.7z"/>
	<path class="st11" d="M377.2,529.7l-0.3-0.4c-7.1-27,5.1-47.4,5.8-48.3c0.6-1,2.2-1.4,3.7-1c1,0.6,1.4,2.2,1,3.7
		c0,0-11.9,18.9-5.4,43.8c0.4,1.6-0.7,2.9-1.9,3C378.7,531.3,377.7,530.6,377.2,529.7z"/>
	<ellipse class="st12" cx="364.2" cy="480.7" rx="13.2" ry="7.7"/>
	<ellipse class="st12" cx="371.8" cy="480.7" rx="2.9" ry="1.7"/>
	<path class="st13" d="M589.4,269.1H372.6c-0.9,0-1.6-0.7-1.6-1.6v-1.1c0-0.9,0.7-1.6,1.6-1.6h216.8c0.9,0,1.6,0.7,1.6,1.6v1.1
		C591,268.3,590.3,269.1,589.4,269.1z"/>
	<path class="st14" d="M581.7,305l-211.6-47c-0.9-0.2-1.4-1-1.2-1.9l0.2-1.1c0.2-0.9,1-1.4,1.9-1.2l211.6,47c0.9,0.2,1.4,1,1.2,1.9
		l-0.2,1.1C583.4,304.7,582.5,305.2,581.7,305z"/>
	<path class="st14" d="M589,252.9l-124.3,34.3c-0.8,0.2-1.3,1.1-1.1,1.9l0,0c0.2,0.8,1.1,1.3,1.9,1.1l124.3-34.3
		c0.8-0.2,1.3-1.1,1.1-1.9v0C590.7,253.2,589.9,252.7,589,252.9z"/>
	<path class="st13" d="M339.6,334.6l196.6-91.2c0.8-0.4,1.8,0,2.1,0.8l0.5,1c0.4,0.8,0,1.8-0.8,2.1l-196.6,91.2
		c-0.8,0.4-1.8,0-2.1-0.8l-0.5-1C338.4,335.9,338.8,335,339.6,334.6z"/>
	<path class="st14" d="M331.4,298.7l211.7-46.4c0.9-0.2,1.7,0.4,1.9,1.2l0.2,1.1c0.2,0.9-0.4,1.7-1.2,1.9l-211.7,46.4
		c-0.9,0.2-1.7-0.4-1.9-1.2l-0.2-1.1C330,299.8,330.6,298.9,331.4,298.7z"/>
	<path class="st14" d="M346.7,349.1l98.3-83.5c0.7-0.6,0.7-1.5,0.2-2.2l0,0c-0.6-0.7-1.5-0.7-2.2-0.2l-98.3,83.5
		c-0.7,0.6-0.7,1.5-0.2,2.2l0,0C345.1,349.5,346,349.6,346.7,349.1z"/>
	<path class="st13" d="M318.7,257.6l200,83.7c0.8,0.3,1.2,1.3,0.9,2.1l-0.4,1c-0.3,0.8-1.3,1.2-2.1,0.9l-200-83.7
		c-0.8-0.3-1.2-1.3-0.9-2.1l0.4-1C317,257.6,317.9,257.2,318.7,257.6z"/>
	<path class="st14" d="M339.7,227.4l177.1,125.1c0.7,0.5,0.9,1.5,0.4,2.2l-0.7,0.9c-0.5,0.7-1.5,0.9-2.2,0.4L337.2,230.9
		c-0.7-0.5-0.9-1.5-0.4-2.2l0.7-0.9C338,227,339,226.9,339.7,227.4z"/>
	<path class="st14" d="M312.8,272.6l127.9,16.3c0.8,0.1,1.6-0.5,1.7-1.3l0,0c0.1-0.8-0.5-1.6-1.3-1.7l-127.9-16.3
		c-0.8-0.1-1.6,0.5-1.7,1.3l0,0C311.4,271.7,312,272.5,312.8,272.6z"/>
	<path class="st13" d="M426.9,298.1l-216.6,8.2c-0.9,0-1.6-0.7-1.7-1.5l0-1.1c0-0.9,0.7-1.6,1.5-1.7l216.6-8.2
		c0.9,0,1.6,0.7,1.7,1.5l0,1.1C428.5,297.4,427.8,298.1,426.9,298.1z"/>
	<path class="st14" d="M420.5,334.4l-213.2-38.9c-0.9-0.2-1.4-1-1.3-1.9l0.2-1.1c0.2-0.9,1-1.4,1.9-1.3l213.2,38.9
		c0.9,0.2,1.4,1,1.3,1.9l-0.2,1.1C422.2,333.9,421.4,334.5,420.5,334.4z"/>
	<path class="st14" d="M251.1,242.1l-122.9,39c-0.8,0.3-1.3,1.1-1,1.9l0,0c0.3,0.8,1.1,1.3,1.9,1L252,245c0.8-0.3,1.3-1.1,1-1.9l0,0
		C252.7,242.3,251.9,241.8,251.1,242.1z"/>
	<path class="st13" d="M226.9,343.9l206.6-65.6c0.8-0.3,1.7,0.2,2,1l0.3,1.1c0.3,0.8-0.2,1.7-1,2l-206.6,65.6c-0.8,0.3-1.7-0.2-2-1
		l-0.3-1.1C225.6,345.1,226.1,344.2,226.9,343.9z"/>
	<path class="st14" d="M75.8,311.9l215.9-19.2c0.9-0.1,1.7,0.6,1.7,1.5l0.1,1.1c0.1,0.9-0.6,1.7-1.5,1.7L76.2,316.2
		c-0.9,0.1-1.7-0.6-1.7-1.5l-0.1-1.1C74.2,312.8,74.9,312,75.8,311.9z"/>
	<path class="st14" d="M55.7,298.6l108.1-70.3c0.7-0.5,0.9-1.4,0.5-2.1l0,0c-0.5-0.7-1.4-0.9-2.1-0.5L54,296
		c-0.7,0.5-0.9,1.4-0.5,2.1l0,0C54,298.9,55,299.1,55.7,298.6z"/>
	<path class="st13" d="M445.2,205.9L285.4,352.4c-0.7,0.6-1.7,0.6-2.3-0.1l-0.8-0.8c-0.6-0.7-0.6-1.7,0.1-2.3l159.8-146.4
		c0.7-0.6,1.7-0.6,2.3,0.1l0.8,0.8C445.9,204.3,445.8,205.3,445.2,205.9z"/>
	<path class="st14" d="M463.8,237.6L276,345.9c-0.8,0.4-1.7,0.2-2.2-0.6l-0.6-1c-0.4-0.8-0.2-1.7,0.6-2.2l187.8-108.3
		c0.8-0.4,1.7-0.2,2.2,0.6l0.6,1C464.8,236.2,464.6,237.2,463.8,237.6z"/>
	<path class="st14" d="M434,194.3l-68.5,109.3c-0.5,0.7-0.2,1.7,0.5,2.1l0,0c0.7,0.5,1.7,0.2,2.1-0.5l68.5-109.3
		c0.5-0.7,0.2-1.7-0.5-2.1l0,0C435.4,193.3,434.5,193.5,434,194.3z"/>
	<path class="st13" d="M488.4,273l-215.9-19.3c-0.9-0.1-1.5-0.9-1.5-1.7l0.1-1.1c0.1-0.9,0.9-1.5,1.7-1.5l215.9,19.3
		c0.9,0.1,1.5,0.9,1.5,1.7l-0.1,1.1C490,272.4,489.2,273.1,488.4,273z"/>
	<path class="st14" d="M477.5,308.1l-206.6-65.6c-0.8-0.3-1.3-1.2-1-2l0.3-1.1c0.3-0.8,1.2-1.3,2-1L478.8,304c0.8,0.3,1.3,1.2,1,2
		l-0.3,1.1C479.2,307.9,478.3,308.4,477.5,308.1z"/>
	<path class="st14" d="M489.4,256.9l-126.9,23.1c-0.8,0.2-1.4,1-1.2,1.8l0,0c0.2,0.8,1,1.4,1.8,1.2L490,260c0.8-0.2,1.4-1,1.2-1.8
		l0,0C491.1,257.3,490.3,256.8,489.4,256.9z"/>
	<path class="st13" d="M233.7,316.1l204-73.4c0.8-0.3,1.8,0.1,2.1,1l0.4,1.1c0.3,0.8-0.1,1.8-1,2.1l-204,73.4
		c-0.8,0.3-1.8-0.1-2.1-1l-0.4-1.1C232.4,317.3,232.9,316.4,233.7,316.1z"/>
	<path class="st14" d="M228.8,279.6l215-27.4c0.9-0.1,1.7,0.5,1.8,1.4l0.1,1.1c0.1,0.9-0.5,1.7-1.4,1.8l-215,27.4
		c-0.9,0.1-1.7-0.5-1.8-1.4l-0.1-1.1C227.3,280.5,227.9,279.7,228.8,279.6z"/>
	<path class="st14" d="M206.5,345.9l105.4-74.4c0.7-0.5,0.9-1.5,0.4-2.2l0,0c-0.5-0.7-1.5-0.9-2.2-0.4l-105.4,74.4
		c-0.7,0.5-0.9,1.5-0.4,2.2l0,0C204.8,346.2,205.8,346.4,206.5,345.9z"/>
	<path class="st15" d="M45.7,223.7L259,262.7c0.9,0.2,1.4,1,1.3,1.9l-0.2,1.1c-0.2,0.9-1,1.4-1.9,1.3L44.9,228
		c-0.9-0.2-1.4-1-1.3-1.9l0.2-1.1C44,224.2,44.9,223.6,45.7,223.7z"/>
	<path class="st15" d="M59.8,189.8L259.5,274c0.8,0.3,1.2,1.3,0.9,2.1l-0.4,1c-0.3,0.8-1.3,1.2-2.1,0.9L58.1,193.8
		c-0.8-0.3-1.2-1.3-0.9-2.1l0.4-1C58,189.8,59,189.4,59.8,189.8z"/>
	<path class="st15" d="M70,280.5l128.5-11.4c0.9-0.1,1.5-0.8,1.4-1.7l0,0c-0.1-0.9-0.8-1.5-1.7-1.4L69.8,277.4
		c-0.9,0.1-1.5,0.8-1.4,1.7l0,0C68.4,280,69.2,280.6,70,280.5z"/>
	<path class="st15" d="M506.8,271.8l-209.8,54.4c-0.9,0.2-1.7-0.3-2-1.1l-0.3-1.1c-0.2-0.9,0.3-1.7,1.1-2l209.8-54.4
		c0.9-0.2,1.7,0.3,2,1.1l0.3,1.1C508.1,270.7,507.6,271.6,506.8,271.8z"/>
	<path class="st15" d="M304.8,240.9l-216.6,7.6c-0.9,0-1.6-0.7-1.7-1.5l0-1.1c0-0.9,0.7-1.6,1.5-1.7l216.6-7.6
		c0.9,0,1.6,0.7,1.7,1.5l0,1.1C306.4,240.1,305.7,240.9,304.8,240.9z"/>
	<path class="st15" d="M502.4,256.3l-111.7,64.4c-0.7,0.4-1,1.4-0.6,2.1l0,0c0.4,0.7,1.4,1,2.1,0.6L503.9,259c0.7-0.4,1-1.4,0.6-2.1
		l0,0C504.1,256.1,503.1,255.9,502.4,256.3z"/>
	<path class="st15" d="M513.4,351.3L331.7,233.1c-0.7-0.5-1-1.5-0.5-2.2l0.6-0.9c0.5-0.7,1.5-1,2.2-0.5l181.7,118.2
		c0.7,0.5,1,1.5,0.5,2.2l-0.6,0.9C515.2,351.6,514.2,351.8,513.4,351.3z"/>
	<path class="st15" d="M487.3,377.3L335.6,222.4c-0.6-0.6-0.6-1.6,0-2.3l0.8-0.8c0.6-0.6,1.6-0.6,2.3,0l151.7,154.8
		c0.6,0.6,0.6,1.6,0,2.3l-0.8,0.8C489,377.9,488,377.9,487.3,377.3z"/>
	<path class="st15" d="M318.4,270l-122.9-39c-0.8-0.3-1.7,0.2-1.9,1l0,0c-0.3,0.8,0.2,1.7,1,1.9l122.9,39c0.8,0.3,1.7-0.2,1.9-1l0,0
		C319.7,271.1,319.2,270.2,318.4,270z"/>
	<path class="st15" d="M120.7,274.6l214.6,30.8c0.9,0.1,1.5,0.9,1.4,1.8l-0.2,1.1c-0.1,0.9-0.9,1.5-1.8,1.4l-214.6-30.8
		c-0.9-0.1-1.5-0.9-1.4-1.8l0.2-1.1C119,275,119.8,274.4,120.7,274.6z"/>
	<path class="st15" d="M281.1,235.5l202.8,76.6c0.8,0.3,1.2,1.2,0.9,2.1l-0.4,1.1c-0.3,0.8-1.2,1.2-2.1,0.9l-202.8-76.6
		c-0.8-0.3-1.2-1.2-0.9-2.1l0.4-1.1C279.3,235.6,280.2,235.2,281.1,235.5z"/>
	<path class="st15" d="M266.4,286l128-16.3c0.8-0.1,1.4-0.9,1.3-1.7l0,0c-0.1-0.8-0.9-1.4-1.7-1.3l-128,16.3
		c-0.8,0.1-1.4,0.9-1.3,1.7l0,0C264.7,285.5,265.5,286.1,266.4,286z"/>
	<path class="st15" d="M296.8,247.4l-215,27.4c-0.9,0.1-1.7-0.5-1.8-1.4l-0.1-1.1c-0.1-0.9,0.5-1.7,1.4-1.8l215-27.4
		c0.9-0.1,1.7,0.5,1.8,1.4l0.1,1.1C298.3,246.5,297.7,247.3,296.8,247.4z"/>
	<path class="st15" d="M468.6,324.1l-215.9-19.9c-0.9-0.1-1.5-0.9-1.4-1.7l0.1-1.1c0.1-0.9,0.9-1.5,1.7-1.4L469,319.7
		c0.9,0.1,1.5,0.9,1.4,1.7l-0.1,1.1C470.2,323.5,469.5,324.1,468.6,324.1z"/>
	<path class="st15" d="M413.4,199.2l-119,49.8c-0.8,0.3-1.2,1.2-0.8,2l0,0c0.3,0.8,1.2,1.2,2,0.8l119-49.8c0.8-0.3,1.2-1.2,0.8-2
		l0,0C415.1,199.3,414.2,198.9,413.4,199.2z"/>
	<path class="st15" d="M57.3,344l183.5-115.4c0.7-0.5,1.7-0.2,2.2,0.5l0.6,1c0.5,0.7,0.2,1.7-0.5,2.2L59.6,347.7
		c-0.7,0.5-1.7,0.2-2.2-0.5l-0.6-1C56.3,345.5,56.6,344.5,57.3,344z"/>
	<path class="st15" d="M44.7,309.5l204.2-72.8c0.8-0.3,1.8,0.1,2,1l0.4,1.1c0.3,0.8-0.1,1.8-1,2L46.2,313.6c-0.8,0.3-1.8-0.1-2-1
		l-0.4-1.1C43.4,310.7,43.9,309.8,44.7,309.5z"/>
	<path class="st15" d="M185.1,325.2l87-95.2c0.6-0.6,0.5-1.6-0.1-2.2v0c-0.6-0.6-1.6-0.5-2.2,0.1l-87,95.2c-0.6,0.6-0.5,1.6,0.1,2.2
		l0,0C183.6,325.9,184.6,325.9,185.1,325.2z"/>
	<path class="st15" d="M145.8,238l208.9,57.7c0.9,0.2,1.4,1.1,1.1,2l-0.3,1.1c-0.2,0.9-1.1,1.4-2,1.1l-208.9-57.7
		c-0.9-0.2-1.4-1.1-1.1-2l0.3-1.1C144.1,238.3,145,237.8,145.8,238z"/>
	<path class="st15" d="M366.4,273.1l191.5,101.7c0.8,0.4,1.1,1.4,0.7,2.2l-0.5,1c-0.4,0.8-1.4,1.1-2.2,0.7L364.3,276.9
		c-0.8-0.4-1.1-1.4-0.7-2.2l0.5-1C364.6,272.9,365.6,272.6,366.4,273.1z"/>
	<path class="st15" d="M141.9,253.6l129,0c0.9,0,1.5-0.7,1.5-1.5l0,0c0-0.9-0.7-1.5-1.5-1.5l-129,0c-0.9,0-1.5,0.7-1.5,1.5v0
		C140.3,252.9,141,253.6,141.9,253.6z"/>
	<path class="st15" d="M404.1,241.4l-213.8,35.6c-0.9,0.1-1.7-0.4-1.8-1.3l-0.2-1.1c-0.1-0.9,0.4-1.7,1.3-1.8l213.8-35.6
		c0.9-0.1,1.7,0.4,1.8,1.3l0.2,1.1C405.5,240.4,405,241.2,404.1,241.4z"/>
	<path class="st15" d="M402.4,278.1l-216.5-11.6c-0.9,0-1.6-0.8-1.5-1.7l0.1-1.1c0-0.9,0.8-1.6,1.7-1.5l216.5,11.6
		c0.9,0,1.6,0.8,1.5,1.7l-0.1,1.1C404,277.5,403.3,278.2,402.4,278.1z"/>
	<path class="st15" d="M401.1,225.5l-117,54.3c-0.8,0.4-1.1,1.3-0.8,2.1v0c0.4,0.8,1.3,1.1,2.1,0.8l117-54.3
		c0.8-0.4,1.1-1.3,0.8-2.1l0,0C402.8,225.5,401.9,225.2,401.1,225.5z"/>
	<path class="st13" d="M196.1,415l206.5-65.9c0.8-0.3,1.7,0.2,2,1l0.3,1.1c0.3,0.8-0.2,1.7-1,2l-206.5,65.9c-0.8,0.3-1.7-0.2-2-1
		L195,417C194.7,416.1,195.2,415.2,196.1,415z"/>
	<path class="st14" d="M192.5,378.4l215.9-19.6c0.9-0.1,1.7,0.6,1.7,1.5l0.1,1.1c0.1,0.9-0.6,1.7-1.5,1.7l-215.9,19.6
		c-0.9,0.1-1.7-0.6-1.7-1.5l-0.1-1.1C190.9,379.2,191.6,378.4,192.5,378.4z"/>
	<path class="st13" d="M414.1,276.6L254.5,423.3c-0.7,0.6-1.7,0.6-2.3-0.1l-0.8-0.8c-0.6-0.7-0.6-1.7,0.1-2.3l159.6-146.7
		c0.7-0.6,1.7-0.6,2.3,0.1l0.8,0.8C414.8,275,414.8,276,414.1,276.6z"/>
	<path class="st14" d="M432.8,308.3L245.2,416.9c-0.8,0.4-1.7,0.2-2.2-0.6l-0.6-1c-0.4-0.8-0.2-1.7,0.6-2.2l187.6-108.6
		c0.8-0.4,1.7-0.2,2.2,0.6l0.6,1C433.8,306.9,433.5,307.8,432.8,308.3z"/>
	<path class="st14" d="M403,265l-68.3,109.4c-0.5,0.7-0.2,1.7,0.5,2.1h0c0.7,0.5,1.7,0.2,2.1-0.5l68.3-109.4
		c0.5-0.7,0.2-1.7-0.5-2.1l0,0C404.4,264,403.4,264.2,403,265z"/>
	<path class="st13" d="M457.4,343.6l-215.9-18.9c-0.9-0.1-1.5-0.9-1.5-1.7l0.1-1.1c0.1-0.9,0.9-1.5,1.7-1.5l215.9,18.9
		c0.9,0.1,1.5,0.9,1.5,1.7l-0.1,1.1C459.1,343.1,458.3,343.7,457.4,343.6z"/>
	<path class="st14" d="M446.6,378.8l-206.7-65.3c-0.8-0.3-1.3-1.2-1-2l0.3-1.1c0.3-0.8,1.2-1.3,2-1l206.7,65.3c0.8,0.3,1.3,1.2,1,2
		l-0.3,1.1C448.3,378.6,447.4,379,446.6,378.8z"/>
	<path class="st14" d="M458.4,327.5l-126.9,23.3c-0.8,0.2-1.4,1-1.2,1.8l0,0c0.2,0.8,1,1.4,1.8,1.2L459,330.6c0.8-0.2,1.4-1,1.2-1.8
		l0,0C460.1,327.9,459.3,327.4,458.4,327.5z"/>
	<path class="st13" d="M202.8,387.1l203.9-73.7c0.8-0.3,1.8,0.1,2.1,1l0.4,1.1c0.3,0.8-0.1,1.8-1,2.1l-203.9,73.7
		c-0.8,0.3-1.8-0.1-2.1-1l-0.4-1.1C201.5,388.3,202,387.4,202.8,387.1z"/>
	<path class="st14" d="M197.8,350.6l215-27.8c0.9-0.1,1.7,0.5,1.8,1.4l0.1,1.1c0.1,0.9-0.5,1.7-1.4,1.8l-215,27.8
		c-0.9,0.1-1.7-0.5-1.8-1.4l-0.1-1.1C196.3,351.6,197,350.8,197.8,350.6z"/>
	<path class="st14" d="M208.6,402.1l105.3-74.6c0.7-0.5,0.9-1.5,0.4-2.2l0,0c-0.5-0.7-1.5-0.9-2.2-0.4l-105.3,74.6
		c-0.7,0.5-0.9,1.5-0.4,2.2l0,0C207,402.5,207.9,402.6,208.6,402.1z"/>
	<path class="st13" d="M518.6,233.4L341.7,358.7c-0.7,0.5-1.7,0.3-2.2-0.4l-0.7-0.9c-0.5-0.7-0.3-1.7,0.4-2.2l176.9-125.3
		c0.7-0.5,1.7-0.3,2.2,0.4l0.7,0.9C519.5,231.9,519.3,232.9,518.6,233.4z"/>
	<path class="st14" d="M533.1,267.2l-199.8,84c-0.8,0.3-1.8,0-2.1-0.9l-0.4-1c-0.3-0.8,0-1.8,0.9-2.1l199.8-84
		c0.8-0.3,1.8,0,2.1,0.9l0.4,1C534.3,265.9,533.9,266.9,533.1,267.2z"/>
	<path class="st14" d="M509,220.5l-81.6,99.9c-0.5,0.7-0.4,1.6,0.2,2.2l0,0c0.7,0.5,1.6,0.4,2.2-0.2l81.6-99.9
		c0.5-0.7,0.4-1.6-0.2-2.2l0,0C510.5,219.7,509.6,219.8,509,220.5z"/>
	<path class="st13" d="M352.6,431.3l107.7-188.1c0.4-0.8,1.4-1,2.2-0.6l1,0.6c0.8,0.4,1,1.4,0.6,2.2L356.4,433.4
		c-0.4,0.8-1.4,1-2.2,0.6l-1-0.6C352.5,433,352.2,432.1,352.6,431.3z"/>
	<path class="st14" d="M325.3,406.7l146-160.3c0.6-0.7,1.6-0.7,2.3-0.1l0.8,0.8c0.7,0.6,0.7,1.6,0.1,2.3l-146,160.3
		c-0.6,0.7-1.6,0.7-2.3,0.1l-0.8-0.8C324.7,408.4,324.7,407.4,325.3,406.7z"/>
	<path class="st14" d="M366.8,439l32-125c0.2-0.8-0.3-1.7-1.1-1.9l0,0c-0.8-0.2-1.7,0.3-1.9,1.1l-32,125c-0.2,0.8,0.3,1.7,1.1,1.9
		l0,0C365.7,440.3,366.6,439.8,366.8,439z"/>
	<path class="st13" d="M291.1,380.5l211.5-47.3c0.9-0.2,1.7,0.4,1.9,1.2l0.2,1.1c0.2,0.9-0.4,1.7-1.2,1.9l-211.5,47.3
		c-0.9,0.2-1.7-0.4-1.9-1.2l-0.2-1.1C289.7,381.5,290.2,380.7,291.1,380.5z"/>
	<path class="st14" d="M290.8,343.7l216.8-0.3c0.9,0,1.6,0.7,1.6,1.6l0,1.1c0,0.9-0.7,1.6-1.6,1.6L290.8,348c-0.9,0-1.6-0.7-1.6-1.6
		l0-1.1C289.2,344.4,289.9,343.7,290.8,343.7z"/>
	<path class="st14" d="M295,396.1l113.9-60.6c0.8-0.4,1-1.3,0.6-2.1l0,0c-0.4-0.8-1.3-1-2.1-0.6l-113.9,60.6c-0.8,0.4-1,1.3-0.6,2.1
		l0,0C293.3,396.2,294.2,396.5,295,396.1z"/>
	<path class="st13" d="M520.6,262L348.6,394c-0.7,0.5-1.7,0.4-2.2-0.3l-0.7-0.9c-0.5-0.7-0.4-1.7,0.3-2.2l172-131.9
		c0.7-0.5,1.7-0.4,2.2,0.3l0.7,0.9C521.4,260.5,521.3,261.5,520.6,262z"/>
	<path class="st14" d="M536.4,295.3l-196.5,91.5c-0.8,0.4-1.8,0-2.1-0.8l-0.5-1c-0.4-0.8,0-1.8,0.8-2.1l196.5-91.5
		c0.8-0.4,1.8,0,2.1,0.8l0.5,1C537.5,293.9,537.2,294.9,536.4,295.3z"/>
	<path class="st14" d="M510.5,249.5l-77.8,102.9c-0.5,0.7-0.4,1.6,0.3,2.2l0,0c0.7,0.5,1.6,0.4,2.2-0.3L513,251.3
		c0.5-0.7,0.4-1.6-0.3-2.2l0,0C512,248.6,511,248.8,510.5,249.5z"/>
	<path class="st15" d="M513.3,290.3l-215,27.8c-0.9,0.1-1.7-0.5-1.8-1.4l-0.1-1.1c-0.1-0.9,0.5-1.7,1.4-1.8l215-27.8
		c0.9-0.1,1.7,0.5,1.8,1.4l0.1,1.1C514.8,289.3,514.2,290.1,513.3,290.3z"/>
	<path class="st15" d="M510.3,326.9l-215.9-19.5c-0.9-0.1-1.5-0.9-1.5-1.7l0.1-1.1c0.1-0.9,0.9-1.5,1.7-1.5l215.9,19.5
		c0.9,0.1,1.5,0.9,1.5,1.7l-0.1,1.1C511.9,326.3,511.1,327,510.3,326.9z"/>
	<path class="st15" d="M510.9,274.3l-118.9,50c-0.8,0.3-1.2,1.2-0.8,2v0c0.3,0.8,1.2,1.2,2,0.8l118.9-50c0.8-0.3,1.2-1.2,0.8-2l0,0
		C512.6,274.3,511.7,274,510.9,274.3z"/>
	<path class="st15" d="M273.9,387.2l183.3-115.7c0.7-0.5,1.7-0.2,2.2,0.5l0.6,1c0.5,0.7,0.2,1.7-0.5,2.2L276.3,390.9
		c-0.7,0.5-1.7,0.2-2.2-0.5l-0.6-1C273,388.7,273.2,387.7,273.9,387.2z"/>
	<path class="st15" d="M261.3,352.7l204.1-73.2c0.8-0.3,1.8,0.1,2.1,1l0.4,1.1c0.3,0.8-0.1,1.8-1,2.1l-204.1,73.2
		c-0.8,0.3-1.8-0.1-2.1-1l-0.4-1.1C260,353.9,260.4,353,261.3,352.7z"/>
	<path class="st15" d="M282.8,400.7l86.8-95.4c0.6-0.6,0.5-1.6-0.1-2.2l0,0c-0.6-0.6-1.6-0.5-2.2,0.1l-86.8,95.4
		c-0.6,0.6-0.5,1.6,0.1,2.2l0,0C281.3,401.3,282.3,401.3,282.8,400.7z"/>
	<path class="st15" d="M243.4,313.5l209,57.4c0.9,0.2,1.4,1.1,1.1,2l-0.3,1.1c-0.2,0.9-1.1,1.4-2,1.1l-209-57.4
		c-0.9-0.2-1.4-1.1-1.1-2l0.3-1.1C241.7,313.8,242.6,313.3,243.4,313.5z"/>
	<path class="st15" d="M260.4,280.9L452,382.2c0.8,0.4,1.1,1.4,0.7,2.2l-0.5,1c-0.4,0.8-1.4,1.1-2.2,0.7L258.3,284.7
		c-0.8-0.4-1.1-1.4-0.7-2.2l0.5-1C258.6,280.7,259.6,280.4,260.4,280.9z"/>
	<path class="st15" d="M239.5,329.1l129-0.2c0.9,0,1.5-0.7,1.5-1.5l0,0c0-0.9-0.7-1.5-1.5-1.5l-129,0.2c-0.9,0-1.5,0.7-1.5,1.5l0,0
		C237.9,328.4,238.6,329.1,239.5,329.1z"/>
	<path class="st15" d="M501.7,316.5l-213.8,35.9c-0.9,0.1-1.7-0.4-1.8-1.3l-0.2-1.1c-0.1-0.9,0.4-1.7,1.3-1.8l213.8-35.9
		c0.9-0.1,1.7,0.4,1.8,1.3l0.2,1.1C503.1,315.5,502.5,316.3,501.7,316.5z"/>
	<path class="st15" d="M500,353.2l-216.5-11.3c-0.9,0-1.6-0.8-1.5-1.7l0.1-1.1c0-0.9,0.8-1.6,1.7-1.5l216.5,11.3
		c0.9,0,1.6,0.8,1.5,1.7l-0.1,1.1C501.6,352.6,500.9,353.2,500,353.2z"/>
	<path class="st15" d="M498.6,300.6l-116.9,54.4c-0.8,0.4-1.1,1.3-0.7,2.1l0,0c0.4,0.8,1.3,1.1,2.1,0.7l116.9-54.4
		c0.8-0.4,1.1-1.3,0.7-2.1v0C500.3,300.6,499.4,300.3,498.6,300.6z"/>
	<path class="st15" d="M163.4,410.9l196.5-91.5c0.8-0.4,1.8,0,2.1,0.8l0.5,1c0.4,0.8,0,1.8-0.8,2.1l-196.5,91.5
		c-0.8,0.4-1.8,0-2.1-0.8l-0.5-1C162.2,412.3,162.6,411.3,163.4,410.9z"/>
	<path class="st15" d="M155.2,375.1l211.7-46.7c0.9-0.2,1.7,0.4,1.9,1.2l0.2,1.1c0.2,0.9-0.4,1.7-1.2,1.9l-211.7,46.7
		c-0.9,0.2-1.7-0.4-1.9-1.2L154,377C153.8,376.1,154.3,375.3,155.2,375.1z"/>
	<path class="st15" d="M362.2,246.1L222.4,411.8c-0.6,0.7-1.6,0.8-2.3,0.2l-0.9-0.7c-0.7-0.6-0.8-1.6-0.2-2.3l139.8-165.7
		c0.6-0.7,1.6-0.8,2.3-0.2l0.9,0.7C362.7,244.4,362.8,245.4,362.2,246.1z"/>
	<path class="st15" d="M384.7,275.2L212.4,406.6c-0.7,0.5-1.7,0.4-2.2-0.3l-0.7-0.9c-0.5-0.7-0.4-1.7,0.3-2.2l172.4-131.5
		c0.7-0.5,1.7-0.4,2.2,0.3l0.7,0.9C385.6,273.6,385.4,274.6,384.7,275.2z"/>
	<path class="st15" d="M349.7,236l-53.9,117.2c-0.4,0.8,0,1.7,0.8,2l0,0c0.8,0.4,1.7,0,2-0.8l53.9-117.2c0.4-0.8,0-1.7-0.8-2l0,0
		C350.9,234.8,350,235.2,349.7,236z"/>
	<path class="st15" d="M413.6,307.1L197,315.6c-0.9,0-1.6-0.7-1.7-1.5l0-1.1c0-0.9,0.7-1.6,1.5-1.7l216.6-8.5c0.9,0,1.6,0.7,1.7,1.5
		l0,1.1C415.2,306.3,414.5,307.1,413.6,307.1z"/>
	<path class="st15" d="M407.3,343.3L194,304.7c-0.9-0.2-1.4-1-1.3-1.9l0.2-1.1c0.2-0.9,1-1.4,1.9-1.3l213.3,38.6
		c0.9,0.2,1.4,1,1.3,1.9l-0.2,1.1C409,342.9,408.2,343.5,407.3,343.3z"/>
	<path class="st15" d="M412.6,291l-122.9,39.2c-0.8,0.3-1.3,1.1-1,1.9l0,0c0.3,0.8,1.1,1.3,1.9,1L413.6,294c0.8-0.3,1.3-1.1,1-1.9
		l0,0C414.3,291.2,413.4,290.8,412.6,291z"/>
	<path class="st15" d="M166.6,382.4l192.9-98.9c0.8-0.4,1.8-0.1,2.2,0.7l0.5,1c0.4,0.8,0.1,1.8-0.7,2.2l-192.9,98.9
		c-0.8,0.4-1.8,0.1-2.2-0.7l-0.5-1C165.5,383.8,165.8,382.8,166.6,382.4z"/>
	<path class="st15" d="M157,346.9l209.7-54.7c0.9-0.2,1.7,0.3,2,1.1l0.3,1.1c0.2,0.9-0.3,1.7-1.1,2l-209.7,54.7
		c-0.9,0.2-1.7-0.3-2-1.1l-0.3-1.1C155.7,348,156.2,347.1,157,346.9z"/>
	<path class="st13" d="M129.1,377.7l196.6-91.2c0.8-0.4,1.8,0,2.1,0.8l0.5,1c0.4,0.8,0,1.8-0.8,2.1L131,381.6
		c-0.8,0.4-1.8,0-2.1-0.8l-0.5-1C128,379,128.3,378.1,129.1,377.7z"/>
	<path class="st14" d="M121,341.8l211.7-46.4c0.9-0.2,1.7,0.4,1.9,1.2l0.2,1.1c0.2,0.9-0.4,1.7-1.2,1.9l-211.7,46.4
		c-0.9,0.2-1.7-0.4-1.9-1.2l-0.2-1.1C119.6,342.9,120.1,342,121,341.8z"/>
	<path class="st14" d="M136.2,392.2l98.3-83.5c0.7-0.6,0.7-1.5,0.2-2.2l0,0c-0.6-0.7-1.5-0.7-2.2-0.2l-98.3,83.5
		c-0.7,0.6-0.7,1.5-0.2,2.2h0C134.6,392.6,135.6,392.7,136.2,392.2z"/>
	<path class="st13" d="M108.3,300.7l200,83.7c0.8,0.3,1.2,1.3,0.9,2.1l-0.4,1c-0.3,0.8-1.3,1.2-2.1,0.9l-200-83.7
		c-0.8-0.3-1.2-1.3-0.9-2.1l0.4-1C106.5,300.7,107.5,300.3,108.3,300.7z"/>
	<path class="st14" d="M129.3,270.5l177.1,125.1c0.7,0.5,0.9,1.5,0.4,2.2l-0.7,0.9c-0.5,0.7-1.5,0.9-2.2,0.4L126.8,274
		c-0.7-0.5-0.9-1.5-0.4-2.2l0.7-0.9C127.6,270.1,128.6,270,129.3,270.5z"/>
	<path class="st14" d="M102.4,315.7L230.3,332c0.8,0.1,1.6-0.5,1.7-1.3l0,0c0.1-0.8-0.5-1.6-1.3-1.7l-127.9-16.3
		c-0.8-0.1-1.6,0.5-1.7,1.3l0,0C101,314.8,101.6,315.6,102.4,315.7z"/>
	<path class="st13" d="M364,336.7l-216.6,8.2c-0.9,0-1.6-0.7-1.7-1.5l0-1.1c0-0.9,0.7-1.6,1.5-1.7l216.6-8.2c0.9,0,1.6,0.7,1.7,1.5
		l0,1.1C365.6,335.9,364.9,336.6,364,336.7z"/>
	<path class="st14" d="M357.7,372.9L144.4,334c-0.9-0.2-1.4-1-1.3-1.9l0.2-1.1c0.2-0.9,1-1.4,1.9-1.3l213.2,38.9
		c0.9,0.2,1.4,1,1.3,1.9l-0.2,1.1C359.4,372.5,358.6,373.1,357.7,372.9z"/>
	<g>
		<path class="st16" d="M328.8,323.1c14.4,24.3,22,37.1,26.3,44.3c0,0,5.6,9.5,14.2,23.4c4.3,7,0.8,1.2,3,4.8
			c7.9,12.7,9.2,16.6,13.2,17.4c1.8,0.4,4.2,0.1,5.7-1.3c2.1-2.1,1.9-6.6,1.8-9.8c-0.1-2.4-0.3-3.6,0.4-4.2c0.9-0.7,2.7,0.4,3.9,1.8
			c1.7,1.9,2.3,4.1,2.6,5.5c0.8,4.2-0.4,7.6-1,9c-0.8,1.9-1.8,4.4-4.5,5.9c-3.6,2.1-7.4,1.1-7.9,1c-3.3-0.9-5.2-3.4-7.9-7
			c-1.7-2.2-1.6-2.6-4.4-7.4c-2.3-3.9-2.6-4.1-7.2-11.5c-1.8-3-2.9-4.8-4.1-6.6c-4.4-6.7-8.5-13.6-12.8-20.4
			c-4.3-6.7-11.7-18.4-25.3-40.4C326.1,326.1,327.4,324.6,328.8,323.1z"/>
		<g>
			<path class="st16" d="M292.2,339.9c-3.3-9.8,1.3-20.6,10.5-25c9.4-4.5,20.9-1.1,26.4,7.9c-6.2,2.9-12.3,5.7-18.5,8.6
				C304.5,334.2,298.3,337.1,292.2,339.9z"/>
			
				<ellipse transform="matrix(0.9071 -0.4209 0.4209 0.9071 -110.6126 161.504)" class="st17" cx="310.6" cy="331.4" rx="20.4" ry="4.9"/>
		</g>
	</g>
	<path class="st13" d="M16.5,387l206.6-65.6c0.8-0.3,1.7,0.2,2,1l0.3,1.1c0.3,0.8-0.2,1.7-1,2L17.8,391.2c-0.8,0.3-1.7-0.2-2-1
		l-0.3-1.1C15.1,388.2,15.6,387.3,16.5,387z"/>
	<path class="st14" d="M12.9,350.4l215.9-19.2c0.9-0.1,1.7,0.6,1.7,1.5l0.1,1.1c0.1,0.9-0.6,1.7-1.5,1.7L13.3,354.7
		c-0.9,0.1-1.7-0.6-1.7-1.5l-0.1-1.1C11.4,351.3,12,350.5,12.9,350.4z"/>
	<path class="st14" d="M21.7,402.3L129.8,332c0.7-0.5,0.9-1.4,0.5-2.1l0,0c-0.5-0.7-1.4-0.9-2.1-0.5L20,399.7
		c-0.7,0.5-0.9,1.4-0.5,2.1h0C20,402.6,21,402.8,21.7,402.3z"/>
	<path class="st13" d="M234.7,249L74.9,395.5c-0.7,0.6-1.7,0.6-2.3-0.1l-0.8-0.8c-0.6-0.7-0.6-1.7,0.1-2.3l159.8-146.4
		c0.7-0.6,1.7-0.6,2.3,0.1l0.8,0.8C235.4,247.4,235.4,248.4,234.7,249z"/>
	<path class="st14" d="M253.3,280.7L65.6,389c-0.8,0.4-1.7,0.2-2.2-0.6l-0.6-1c-0.4-0.8-0.2-1.7,0.6-2.2L251.2,277
		c0.8-0.4,1.7-0.2,2.2,0.6l0.6,1C254.4,279.3,254.1,280.3,253.3,280.7z"/>
	<path class="st14" d="M223.6,237.4l-68.5,109.3c-0.5,0.7-0.2,1.7,0.5,2.1l0,0c0.7,0.5,1.7,0.2,2.1-0.5L226.2,239
		c0.5-0.7,0.2-1.7-0.5-2.1l0,0C225,236.4,224,236.6,223.6,237.4z"/>
	<path class="st13" d="M277.9,316.1L62,296.9c-0.9-0.1-1.5-0.9-1.5-1.7l0.1-1.1c0.1-0.9,0.9-1.5,1.7-1.5l215.9,19.3
		c0.9,0.1,1.5,0.9,1.5,1.7l-0.1,1.1C279.6,315.5,278.8,316.2,277.9,316.1z"/>
	<path class="st14" d="M267,351.3L60.4,285.6c-0.8-0.3-1.3-1.2-1-2l0.3-1.1c0.3-0.8,1.2-1.3,2-1l206.6,65.6c0.8,0.3,1.3,1.2,1,2
		l-0.3,1.1C268.8,351.1,267.9,351.5,267,351.3z"/>
	<path class="st14" d="M279,300l-126.9,23.1c-0.8,0.2-1.4,1-1.2,1.8h0c0.2,0.8,1,1.4,1.8,1.2l126.9-23.1c0.8-0.2,1.4-1,1.2-1.8l0,0
		C280.6,300.4,279.8,299.9,279,300z"/>
	<path class="st13" d="M23.3,359.2l204-73.4c0.8-0.3,1.8,0.1,2.1,1l0.4,1.1c0.3,0.8-0.1,1.8-1,2.1l-204,73.4c-0.8,0.3-1.8-0.1-2.1-1
		l-0.4-1.1C22,360.4,22.4,359.5,23.3,359.2z"/>
	<path class="st14" d="M18.3,322.7l215-27.4c0.9-0.1,1.7,0.5,1.8,1.4l0.1,1.1c0.1,0.9-0.5,1.7-1.4,1.8L18.9,327
		c-0.9,0.1-1.7-0.5-1.8-1.4l-0.1-1.1C16.8,323.6,17.5,322.8,18.3,322.7z"/>
	<path class="st14" d="M29,374.2l105.4-74.4c0.7-0.5,0.9-1.5,0.4-2.2l0,0c-0.5-0.7-1.5-0.9-2.2-0.4L27.3,371.7
		c-0.7,0.5-0.9,1.5-0.4,2.2h0C27.4,374.6,28.4,374.7,29,374.2z"/>
	<path class="st15" d="M38.8,334.5L252,373.4c0.9,0.2,1.4,1,1.3,1.9l-0.2,1.1c-0.2,0.9-1,1.4-1.9,1.3L38,338.8
		c-0.9-0.2-1.4-1-1.3-1.9l0.2-1.1C37.1,334.9,37.9,334.4,38.8,334.5z"/>
	<path class="st15" d="M52.8,300.5l199.7,84.2c0.8,0.3,1.2,1.3,0.9,2.1l-0.4,1c-0.3,0.8-1.3,1.2-2.1,0.9L51.2,304.5
		c-0.8-0.3-1.2-1.3-0.9-2.1l0.4-1C51.1,300.6,52,300.2,52.8,300.5z"/>
	<path class="st15" d="M36.2,350.4L164.7,339c0.9-0.1,1.5-0.8,1.4-1.7l0,0c-0.1-0.9-0.8-1.5-1.7-1.4L36,347.4
		c-0.9,0.1-1.5,0.8-1.4,1.7l0,0C34.6,349.9,35.4,350.5,36.2,350.4z"/>
	<path class="st15" d="M296.3,314.9L86.5,369.3c-0.9,0.2-1.7-0.3-2-1.1l-0.3-1.1c-0.2-0.9,0.3-1.7,1.1-2l209.8-54.4
		c0.9-0.2,1.7,0.3,2,1.1l0.3,1.1C297.7,313.8,297.2,314.7,296.3,314.9z"/>
	<path class="st15" d="M297.9,351.7l-216.6,7.6c-0.9,0-1.6-0.7-1.7-1.5l0-1.1c0-0.9,0.7-1.6,1.5-1.7l216.6-7.6
		c0.9,0,1.6,0.7,1.7,1.5l0,1.1C299.5,350.9,298.8,351.6,297.9,351.7z"/>
	<path class="st15" d="M303,394.4L121.3,276.2c-0.7-0.5-1-1.5-0.5-2.2l0.6-0.9c0.5-0.7,1.5-1,2.2-0.5l181.7,118.2
		c0.7,0.5,1,1.5,0.5,2.2l-0.6,0.9C304.7,394.7,303.7,394.9,303,394.4z"/>
	<path class="st15" d="M276.9,420.4L125.2,265.5c-0.6-0.6-0.6-1.6,0-2.3l0.8-0.8c0.6-0.6,1.6-0.6,2.3,0L280,417.3
		c0.6,0.6,0.6,1.6,0,2.3l-0.8,0.8C278.5,421,277.5,421,276.9,420.4z"/>
	<path class="st15" d="M57.9,313.1l214.6,30.8c0.9,0.1,1.5,0.9,1.4,1.8l-0.2,1.1c-0.1,0.9-0.9,1.5-1.8,1.4L57.2,317.4
		c-0.9-0.1-1.5-0.9-1.4-1.8l0.2-1.1C56.2,313.6,57,313,57.9,313.1z"/>
	<path class="st15" d="M70.6,278.6l202.8,76.6c0.8,0.3,1.2,1.2,0.9,2.1l-0.4,1.1c-0.3,0.8-1.2,1.2-2.1,0.9L69.1,282.6
		c-0.8-0.3-1.2-1.2-0.9-2.1l0.4-1.1C68.9,278.7,69.8,278.3,70.6,278.6z"/>
	<path class="st15" d="M55.9,329.1l128-16.3c0.8-0.1,1.4-0.9,1.3-1.7l0,0c-0.1-0.8-0.9-1.4-1.7-1.3L55.5,326
		c-0.8,0.1-1.4,0.9-1.3,1.7l0,0C54.3,328.6,55.1,329.2,55.9,329.1z"/>
	<path class="st15" d="M138.9,348.8l208.9,57.7c0.9,0.2,1.4,1.1,1.1,2l-0.3,1.1c-0.2,0.9-1.1,1.4-2,1.1l-208.9-57.7
		c-0.9-0.2-1.4-1.1-1.1-2l0.3-1.1C137.2,349,138,348.5,138.9,348.8z"/>
	<path class="st15" d="M155.9,316.2l191.5,101.7c0.8,0.4,1.1,1.4,0.7,2.2l-0.5,1c-0.4,0.8-1.4,1.1-2.2,0.7L153.9,320
		c-0.8-0.4-1.1-1.4-0.7-2.2l0.5-1C154.2,316,155.1,315.7,155.9,316.2z"/>
	<path class="st15" d="M135,364.4l129,0c0.9,0,1.5-0.7,1.5-1.5l0,0c0-0.9-0.7-1.5-1.5-1.5l-129,0c-0.9,0-1.5,0.7-1.5,1.5v0
		C133.4,363.7,134.1,364.4,135,364.4z"/>
	<path class="st13" d="M6.1,312.2l216.2,15.1c0.9,0.1,1.5,0.8,1.5,1.7l-0.1,1.1c-0.1,0.9-0.8,1.5-1.7,1.5L5.8,316.5
		c-0.9-0.1-1.5-0.8-1.5-1.7l0.1-1.1C4.5,312.8,5.2,312.1,6.1,312.2z"/>
	<path class="st14" d="M16.3,276.9l207.8,61.6c0.8,0.3,1.3,1.1,1.1,2l-0.3,1.1c-0.3,0.8-1.1,1.3-2,1.1L15.1,281
		c-0.8-0.3-1.3-1.1-1.1-2l0.3-1.1C14.6,277.1,15.5,276.6,16.3,276.9z"/>
	<path class="st14" d="M5.3,328.3l126.4-25.6c0.8-0.2,1.4-1,1.2-1.8l0,0c-0.2-0.8-1-1.4-1.8-1.2L4.7,325.3c-0.8,0.2-1.4,1-1.2,1.8h0
		C3.7,327.9,4.5,328.5,5.3,328.3z"/>
	<path class="st13" d="M259.9,264.2L57.4,341.6c-0.8,0.3-1.8-0.1-2.1-0.9l-0.4-1.1c-0.3-0.8,0.1-1.8,0.9-2.1l202.5-77.3
		c0.8-0.3,1.8,0.1,2.1,0.9l0.4,1.1C261.1,263,260.7,263.9,259.9,264.2z"/>
	<path class="st14" d="M265.5,300.6L51,332.2c-0.9,0.1-1.7-0.5-1.8-1.4l-0.2-1.1c-0.1-0.9,0.5-1.7,1.4-1.8l214.5-31.6
		c0.9-0.1,1.7,0.5,1.8,1.4l0.2,1.1C267,299.6,266.4,300.4,265.5,300.6z"/>
	<path class="st14" d="M253.8,249.3l-103.9,76.4c-0.7,0.5-0.8,1.5-0.3,2.2l0,0c0.5,0.7,1.5,0.8,2.2,0.3l103.9-76.4
		c0.7-0.5,0.8-1.5,0.3-2.2h0C255.4,248.9,254.5,248.8,253.8,249.3z"/>
	<path class="st13" d="M275.3,342.5L81.6,245.1c-0.8-0.4-1.1-1.4-0.7-2.2l0.5-1c0.4-0.8,1.4-1.1,2.2-0.7l193.7,97.4
		c0.8,0.4,1.1,1.4,0.7,2.2l-0.5,1C277.1,342.6,276.1,342.9,275.3,342.5z"/>
	<path class="st14" d="M252.3,371.2L84.3,234.1c-0.7-0.6-0.8-1.6-0.2-2.3l0.7-0.9c0.6-0.7,1.6-0.8,2.3-0.2L255,367.8
		c0.7,0.6,0.8,1.6,0.2,2.3l-0.7,0.9C254,371.6,252.9,371.7,252.3,371.2z"/>
	<path class="st14" d="M282.2,327.9l-126.5-25.2c-0.8-0.2-1.7,0.4-1.8,1.2l0,0c-0.2,0.8,0.4,1.7,1.2,1.8L281.6,331
		c0.8,0.2,1.7-0.4,1.8-1.2l0,0C283.6,328.9,283.1,328.1,282.2,327.9z"/>
	<path class="st14" d="M31.5,253.1l210,53.7c0.9,0.2,1.4,1.1,1.2,2l-0.3,1.1c-0.2,0.9-1.1,1.4-2,1.2l-210-53.7
		c-0.9-0.2-1.4-1.1-1.2-2l0.3-1.1C29.8,253.4,30.7,252.9,31.5,253.1z"/>
	<path class="st13" d="M372.9,262.7l-210.7,51.1c-0.9,0.2-1.7-0.3-1.9-1.2l-0.3-1.1c-0.2-0.9,0.3-1.7,1.2-1.9l210.7-51.1
		c0.9-0.2,1.7,0.3,1.9,1.2l0.3,1.1C374.3,261.6,373.8,262.5,372.9,262.7z"/>
	<path class="st14" d="M373.9,299.5l-216.7,4.2c-0.9,0-1.6-0.7-1.6-1.6l0-1.1c0-0.9,0.7-1.6,1.6-1.6l216.7-4.2
		c0.9,0,1.6,0.7,1.6,1.6l0,1.1C375.5,298.7,374.8,299.5,373.9,299.5z"/>
	<path class="st14" d="M368.8,247.1L256,309.8c-0.7,0.4-1,1.4-0.6,2.1l0,0c0.4,0.7,1.4,1,2.1,0.6l112.8-62.6c0.7-0.4,1-1.4,0.6-2.1
		l0,0C370.5,247,369.5,246.7,368.8,247.1z"/>
	<path class="st13" d="M145.6,385.2l169.6-135c0.7-0.6,1.7-0.4,2.3,0.3l0.7,0.9c0.6,0.7,0.4,1.7-0.3,2.3l-169.6,135
		c-0.7,0.6-1.7,0.4-2.3-0.3l-0.7-0.9C144.8,386.8,144.9,385.8,145.6,385.2z"/>
	<path class="st14" d="M129.2,352.3l194.8-95c0.8-0.4,1.8-0.1,2.1,0.7l0.5,1c0.4,0.8,0.1,1.8-0.7,2.1l-194.8,95
		c-0.8,0.4-1.8,0.1-2.1-0.7l-0.5-1C128.1,353.6,128.4,352.7,129.2,352.3z"/>
	<path class="st14" d="M155.9,397.6l75.9-104.3c0.5-0.7,0.4-1.7-0.3-2.2l0,0c-0.7-0.5-1.7-0.4-2.2,0.3l-75.9,104.3
		c-0.5,0.7-0.4,1.7,0.3,2.2l0,0C154.4,398.5,155.4,398.3,155.9,397.6z"/>
	<path class="st13" d="M107.2,315.3l214.1,34.2c0.9,0.1,1.5,1,1.3,1.8l-0.2,1.1c-0.1,0.9-1,1.5-1.8,1.3l-214.1-34.2
		c-0.9-0.1-1.5-1-1.3-1.8l0.2-1.1C105.5,315.8,106.3,315.2,107.2,315.3z"/>
	<path class="st14" d="M120.5,281L322,360.8c0.8,0.3,1.2,1.3,0.9,2.1l-0.4,1.1c-0.3,0.8-1.3,1.2-2.1,0.9L118.9,285
		c-0.8-0.3-1.2-1.3-0.9-2.1l0.4-1.1C118.7,281.1,119.7,280.7,120.5,281z"/>
	<path class="st14" d="M105,331.3L233.2,317c0.8-0.1,1.5-0.9,1.4-1.7l0,0c-0.1-0.8-0.9-1.5-1.7-1.4l-128.2,14.3
		c-0.8,0.1-1.5,0.9-1.4,1.7l0,0C103.4,330.7,104.1,331.4,105,331.3z"/>
	<path class="st13" d="M364.2,290l-208.6,59c-0.9,0.2-1.7-0.3-2-1.1l-0.3-1.1c-0.2-0.9,0.3-1.7,1.1-2l208.6-59
		c0.9-0.2,1.7,0.3,2,1.1l0.3,1.1C365.6,288.9,365.1,289.8,364.2,290z"/>
	<path class="st14" d="M366.6,326.7l-216.4,12.4c-0.9,0.1-1.6-0.6-1.7-1.5l-0.1-1.1c-0.1-0.9,0.6-1.6,1.5-1.7l216.4-12.4
		c0.9-0.1,1.6,0.6,1.7,1.5l0.1,1.1C368.1,325.9,367.5,326.7,366.6,326.7z"/>
	<path class="st14" d="M359.5,274.6l-110.3,66.9c-0.7,0.4-1,1.4-0.5,2.1l0,0c0.4,0.7,1.4,1,2.1,0.5l110.3-66.9
		c0.7-0.4,1-1.4,0.5-2.1v0C361.2,274.4,360.2,274.2,359.5,274.6z"/>
	<path class="st15" d="M347,313.6l-210-53.7c-0.9-0.2-1.4-1.1-1.2-2l0.3-1.1c0.2-0.9,1.1-1.4,2-1.2l210,53.7c0.9,0.2,1.4,1.1,1.2,2
		l-0.3,1.1C348.7,313.3,347.9,313.8,347,313.6z"/>
	<path class="st15" d="M330.6,346.5l-193.4-97.9c-0.8-0.4-1.1-1.4-0.7-2.2l0.5-1c0.4-0.8,1.4-1.1,2.2-0.7l193.4,97.9
		c0.8,0.4,1.1,1.4,0.7,2.2l-0.5,1C332.4,346.6,331.4,346.9,330.6,346.5z"/>
	<path class="st15" d="M350.6,297.9l-129,2.5c-0.9,0-1.5,0.7-1.5,1.6l0,0c0,0.9,0.7,1.5,1.6,1.5l129-2.5c0.9,0,1.5-0.7,1.5-1.6l0,0
		C352.2,298.5,351.5,297.8,350.6,297.9z"/>
	<path class="st15" d="M88.7,315.2l213.1-39.7c0.9-0.2,1.7,0.4,1.9,1.3l0.2,1.1c0.2,0.9-0.4,1.7-1.3,1.9L89.5,319.5
		c-0.9,0.2-1.7-0.4-1.9-1.3l-0.2-1.1C87.3,316.2,87.9,315.4,88.7,315.2z"/>
	<path class="st15" d="M92,331L208,274.5c0.8-0.4,1.1-1.3,0.7-2.1h0c-0.4-0.8-1.3-1.1-2.1-0.7L90.7,328.2c-0.8,0.4-1.1,1.3-0.7,2.1
		l0,0C90.3,331.1,91.3,331.4,92,331z"/>
	<path class="st15" d="M87.6,235.4l173,130.6c0.7,0.5,0.8,1.5,0.3,2.2l-0.7,0.9c-0.5,0.7-1.5,0.8-2.2,0.3L85,238.9
		c-0.7-0.5-0.8-1.5-0.3-2.2l0.7-0.9C85.9,235,86.9,234.9,87.6,235.4z"/>
	<path class="st15" d="M115.4,211.4l140.6,165c0.6,0.7,0.5,1.7-0.2,2.3l-0.9,0.7c-0.7,0.6-1.7,0.5-2.3-0.2l-140.6-165
		c-0.6-0.7-0.5-1.7,0.2-2.3l0.9-0.7C113.8,210.6,114.9,210.7,115.4,211.4z"/>
	<path class="st15" d="M326.5,333.6L114.6,288c-0.9-0.2-1.4-1-1.2-1.9l0.2-1.1c0.2-0.9,1-1.4,1.9-1.2l211.9,45.6
		c0.9,0.2,1.4,1,1.2,1.9l-0.2,1.1C328.2,333.3,327.3,333.8,326.5,333.6z"/>
	<path class="st15" d="M311.4,367.1l-197-90.5c-0.8-0.4-1.2-1.3-0.8-2.1l0.5-1c0.4-0.8,1.3-1.2,2.1-0.8l197,90.5
		c0.8,0.4,1.2,1.3,0.8,2.1l-0.5,1C313.1,367.2,312.2,367.5,311.4,367.1z"/>
	<path class="st15" d="M329.5,317.8l-128.8,7.4c-0.9,0-1.5,0.8-1.5,1.6l0,0c0,0.9,0.8,1.5,1.6,1.5l128.8-7.4c0.9,0,1.5-0.8,1.5-1.6
		l0,0C331.1,318.4,330.4,317.7,329.5,317.8z"/>
	<path class="st15" d="M228.9,323.7L45,209c-0.8-0.5-1-1.5-0.5-2.2l0.6-1c0.5-0.8,1.5-1,2.2-0.5l183.9,114.7c0.8,0.5,1,1.5,0.5,2.2
		l-0.6,1C230.6,324,229.6,324.2,228.9,323.7z"/>
	<path class="st14" d="M252.4,316.8l116.9-54.4c0.8-0.4,1.1-1.3,0.7-2.1h0c-0.4-0.8-1.3-1.1-2.1-0.7L251.1,314
		c-0.8,0.4-1.1,1.3-0.7,2.1v0C250.8,316.8,251.7,317.2,252.4,316.8z"/>
	<path class="st15" d="M206.4,317.3l209.7-54.7c0.9-0.2,1.7,0.3,2,1.1l0.3,1.1c0.2,0.9-0.3,1.7-1.1,2l-209.7,54.7
		c-0.9,0.2-1.7-0.3-2-1.1l-0.3-1.1C205,318.4,205.5,317.6,206.4,317.3z"/>
	<path class="st15" d="M431.5,190.9L264.3,328.8c-0.7,0.6-1.7,0.5-2.3-0.2l-0.7-0.9c-0.6-0.7-0.5-1.7,0.2-2.3l167.2-137.9
		c0.7-0.6,1.7-0.5,2.3,0.2l0.7,0.9C432.3,189.3,432.2,190.3,431.5,190.9z"/>
	<path class="st15" d="M448.5,223.5l-193.2,98.4c-0.8,0.4-1.8,0.1-2.2-0.7l-0.5-1c-0.4-0.8-0.1-1.8,0.7-2.2l193.2-98.4
		c0.8-0.4,1.8-0.1,2.2,0.7l0.5,1C449.6,222.2,449.3,223.1,448.5,223.5z"/>
</g>
</svg>
