<?xml version="1.0" encoding="UTF-8"?>
<svg xmlns="http://www.w3.org/2000/svg" viewBox="0 0 1186.94 277.56">
  <defs>
    <style>
      .cls-1 {
        fill: #b2b2b2;
      }

      .cls-1, .cls-2, .cls-3, .cls-4, .cls-5, .cls-6, .cls-7, .cls-8, .cls-9 {
        stroke-width: 0px;
      }

      .cls-2 {
        fill: #008d36;
      }

      .cls-3 {
        fill: #dedc00;
      }

      .cls-4 {
        fill: #95c11f;
      }

      .cls-5 {
        fill: #3aaa35;
      }

      .cls-6 {
        fill: #3c3c3b;
      }

      .cls-7 {
        fill: #ededed;
      }

      .cls-8 {
        fill: #063;
      }

      .cls-9 {
        fill: #575756;
      }
    </style>
  </defs>
  <g id="_Слой_2" data-name="Слой 2">
    <g>
      <path class="cls-1" d="m8.19,78.71c117.73-13.02,253.39-20.53,403.44-15.57,182.66,6.05,343.91,29.18,478.67,57.08,6.05-12.54,12.11-25.08,18.16-37.62-44.09-12.96-93.09-25.11-146.59-35.02-65.98-12.22-127.04-18.85-181.61-22.05,6.05-4.76,12.11-9.51,18.16-14.27-1.48-1.95-6.52-8.05-15.57-10.38-10.47-2.7-18.85,1.56-20.76,2.59-4.32,3.89-8.65,7.78-12.97,11.68-55.5-1.61-100.09-.84-128.42,0-81.89,2.43-132.39,8.6-287.98,22.05-47.14,4.08-85.02,7.19-107.01,8.97-1.19,1.02-2.84,2.1-4.98,2.7-2.6.73-4.76.44-6.92.14-2.13-.29-4.02-.83-5.62-1.44,3.8,3.41,7.59,6.82,11.39,10.23C6.58,57.91.06,58.42,0,59.34c-.05.78,4.5,1.86,13.66,3.23-3.51,3.17-7.01,6.34-10.52,9.51l5.04,6.63Z"/>
      <ellipse class="cls-7" cx="579.35" cy="8.19" rx="6.49" ry="13.4" transform="translate(471.59 577.49) rotate(-80.09)"/>
      <ellipse class="cls-9" cx="580.15" cy="8.33" rx="1.21" ry="2.49" transform="translate(472.11 578.39) rotate(-80.09)"/>
      <ellipse class="cls-9" cx="828.46" cy="98.45" rx="4.62" ry=".97" transform="translate(466.05 849.91) rotate(-71.03)"/>
      <ellipse class="cls-9" cx="31.54" cy="60.11" rx="12.79" ry="2.69" transform="translate(-34.05 77.61) rotate(-77.26)"/>
      <ellipse class="cls-9" cx="83.14" cy="50.35" rx="6.53" ry="1.37" transform="translate(15.69 120.33) rotate(-77.26)"/>
      <ellipse class="cls-9" cx="158.7" cy="53.74" rx="6.53" ry="1.37" transform="translate(71.27 196.67) rotate(-77.26)"/>
      <ellipse class="cls-9" cx="436.55" cy="25.87" rx="6.53" ry="1.37" transform="translate(315.02 445.96) rotate(-77.26)"/>
      <ellipse class="cls-9" cx="423.95" cy="36.26" rx="7.97" ry="1.68" transform="translate(295.06 441.77) rotate(-77.26)"/>
      <ellipse class="cls-9" cx="535.44" cy="34.42" rx="15.69" ry="1.61" transform="translate(320.26 525.92) rotate(-70.03)"/>
      <ellipse class="cls-9" cx="637.56" cy="63.9" rx="12.79" ry="2.69" transform="translate(408.41 662.28) rotate(-74.77)"/>
      <ellipse class="cls-9" cx="743.17" cy="53.19" rx="6.43" ry="1.35" transform="translate(395.76 712.31) rotate(-66.3)"/>
      <path class="cls-6" d="m556.58,18.67c3.98,1.65,7.28,4.77,11.13,6.44,1.18.51,2.48.87,4.22.99-5.31,5.75-14.36-1.14-15.35-7.43h0Z"/>
    </g>
  </g>
  <g id="_Слой_1" data-name="Слой 1">
    <path class="cls-5" d="m1169.68,128.65c0,46.26-27.92,148.91-148.91,148.91s-148.91-102.65-148.91-148.91c0-27.92,56.39-46.54,148.91-46.54s148.91,18.62,148.91,46.54h0Z"/>
    <path class="cls-2" d="m1186.94,91.83c0,47.98-68.01,62.88-166.13,62.88s-166.13-14.89-166.13-62.88c0-24.83,62.92-41.37,166.13-41.37s166.13,16.55,166.13,41.37Z"/>
    <ellipse class="cls-8" cx="1020.77" cy="97.32" rx="155.75" ry="43.43"/>
    <path class="cls-3" d="m1040.56,254.72c-.19,3.43-.38,6.86-.57,10.29,8-.32,17.49-1.28,27.99-3.56,9.69-2.1,18.12-4.86,25.14-7.63,4.93-1.82,11.81-4.98,18.94-10.52,7.54-5.86,12.49-12.15,15.51-16.67-8.3,6.58-22.16,15.93-41.36,22.07-18.83,6.02-35.19,6.52-45.65,6.02Zm-15.64-5.58c19.45-.01,36.81-.98,51.56-2.29,2.23-1.15,5.45-3.08,8.01-5.94,2.08-2.32,3.01-4.46,3.45-5.99-12,3.16-33.83,7.84-62.23,8.02-30.64.19-54.09-4.96-66.29-8.22.13,1.38.68,3.73,2.96,6.3,2.7,3.03,6.46,4.82,8.51,5.67,15.33,1.41,33.53,2.47,54.03,2.45Zm-60.35,2.88c-19.2-6.14-33.06-15.49-41.36-22.07,3.02,4.52,7.97,10.81,15.51,16.67,7.13,5.54,14,8.7,18.94,10.52,7.02,2.77,15.45,5.53,25.14,7.63,10.5,2.28,20,3.25,27.99,3.56-.19-3.43-.38-6.86-.57-10.29-10.46.49-26.82,0-45.65-6.02Zm102.52-36.52c-.19,3.43-.38,6.86-.57,10.29,8-.32,17.49-1.28,27.99-3.56,9.69-2.1,18.12-4.86,25.14-7.63,4.93-1.82,11.81-4.98,18.94-10.52,7.54-5.86,12.49-12.15,15.51-16.67-8.3,6.58-22.16,15.93-41.36,22.07-18.83,6.02-35.19,6.52-45.65,6.02Zm-137.71-4.24c-19.2-6.14-33.06-15.49-41.36-22.07,3.02,4.52,7.97,10.81,15.51,16.67,7.13,5.54,14,8.7,18.94,10.52,7.02,2.77,15.45,5.53,25.14,7.63,10.5,2.28,20,3.25,27.99,3.56-.19-3.43-.38-6.86-.57-10.29-10.46.49-26.82,0-45.65-6.02Zm92.09,17.78c10.43,0,19.74-.69,27.64-1.6,1.2-.8,2.92-2.15,4.29-4.15,1.11-1.62,1.61-3.11,1.85-4.18-7.98,1.72-19.42,3.52-33.31,3.59-15.02.07-27.3-1.91-35.6-3.73.07.97.36,2.61,1.59,4.4,1.45,2.12,3.46,3.37,4.56,3.96,8.22.99,17.98,1.72,28.97,1.71Zm75.34-45.36c-.12,2.92-.23,5.84-.35,8.76,6.06-.2,13.25-.95,21.2-2.8,7.33-1.71,13.7-3.99,19-6.28,3.73-1.51,8.91-4.14,14.27-8.8,5.67-4.93,9.37-10.24,11.62-14.06-6.24,5.53-16.67,13.38-31.18,18.44-14.22,4.97-26.63,5.25-34.56,4.75Zm-190.69-3.1c-12.85-4.53-22.08-11.57-27.6-16.53,1.99,3.43,5.27,8.2,10.28,12.61,4.74,4.18,9.34,6.54,12.64,7.89,4.69,2.06,10.33,4.1,16.83,5.62,7.04,1.66,13.41,2.32,18.78,2.49-.1-2.62-.2-5.24-.3-7.86-7.03.46-18.02.22-30.62-4.23Zm80.58,20.79c8.84,1.46,16.82,2.18,23.66,2.49,1.13-.53,2.79-1.47,4.24-3.02,1.18-1.26,1.82-2.49,2.18-3.39-5.77,1.02-16.17,2.23-29.09.2-13.94-2.19-24.08-7.1-29.29-10.01-.08.85-.07,2.33.71,4.07.92,2.05,2.45,3.43,3.29,4.1,6.82,2.02,14.99,4.03,24.3,5.57Zm68.78.37c7.94-1.39,14.92-3.24,20.8-5.13.78-.89,1.88-2.36,2.61-4.37.59-1.63.73-3.06.75-4.07-4.55,2.87-12.95,7.42-24.53,9.55-12.49,2.3-22.64.67-27.99-.55.21.88.69,2.34,1.91,3.82,1.44,1.75,3.17,2.62,4.11,3.02,6.42-.19,13.97-.8,22.34-2.27Zm63.02-45.28c-.09,2.14-.17,4.28-.26,6.42,4.44-.15,9.71-.69,15.54-2.05,5.37-1.25,10.04-2.92,13.93-4.61,2.73-1.11,6.53-3.04,10.46-6.45,4.15-3.61,6.87-7.51,8.52-10.31-4.57,4.06-12.22,9.81-22.86,13.52-10.43,3.64-19.52,3.85-25.34,3.48Zm-222.02-4.58c-8.92-3.15-15.33-8.03-19.17-11.48,1.38,2.38,3.66,5.69,7.14,8.76,3.29,2.9,6.48,4.54,8.77,5.48,3.26,1.43,7.17,2.84,11.68,3.91,4.89,1.15,9.31,1.61,13.04,1.73-.07-1.82-.14-3.64-.21-5.46-4.88.32-12.51.15-21.26-2.94Zm60.11,16.66c8.84,1.46,16.8,2.31,23.61,2.8,1.1-.37,2.72-1.05,4.11-2.21,1.13-.94,1.72-1.88,2.04-2.57-8.29.02-18.09-.54-28.96-2.32-11.42-1.87-21.31-4.64-29.42-7.47-.05.67.02,1.82.85,3.21.99,1.64,2.56,2.77,3.42,3.32,6.85,1.82,15.04,3.7,24.36,5.24Zm126.31-.18c8.82-1.56,16.61-3.41,23.19-5.21.92-.72,2.22-1.89,3.14-3.45.75-1.26.99-2.35,1.07-3.11-7.81,2.78-17.24,5.51-28.08,7.45-11.39,2.03-21.64,2.71-30.23,2.75.18.64.62,1.71,1.87,2.74,1.48,1.22,3.33,1.76,4.33,2,7.07-.56,15.42-1.52,24.71-3.16Zm-61.95,7.94c6.44.28,12.19.2,17.09-.04.76-.36,1.85-.98,2.74-1.93.72-.77,1.06-1.49,1.23-2.01-5.91.73-12.96,1.18-20.87.85-8.31-.35-15.61-1.47-21.65-2.78.02.48.17,1.3.89,2.21.85,1.08,2.06,1.76,2.73,2.08,5.05.71,11.06,1.34,17.84,1.63Z"/>
    <path class="cls-4" d="m1044.79,117.16v-9.59c7.81-.6,17.29-.88,28.02-.28,9.72.54,18.24,1.69,25.33,2.97,5.74,1.22,12.69,3.08,20.19,5.94,7.67,2.93,13.81,6.12,18.47,8.9-10.9-3.09-25.61-6.38-43.41-8.06-19.55-1.83-36.31-1.1-48.6.11Zm-19.73,8c17.21.04,19.11-.26,27.46.22,9.08.52,16.5,1.43,21.43,2.14,2.05.17,5.8.77,9.68,3.21,2.47,1.56,4.17,3.34,5.26,4.69-19.09-1.08-40.16-1.59-63.01-1.59s-45.77.56-65.51,1.75c2.28-1.9,5.78-4.44,10.48-6.48,7.33-3.18,13.56-3.39,20.38-3.56,17.06-.43,30.39-.38,33.83-.37Zm68.1,1.02c1.15,1.44,2.32,3,3.49,4.68.86,1.24,1.66,2.45,2.41,3.63,3.9-.05,8.38-.36,13.28-1.19,7.15-1.21,13.2-3.17,17.96-5.1-5.72-.17-11.55-.4-17.5-.72-6.7-.35-13.25-.79-19.65-1.3Zm-143.16-9.23c-17.8,1.52-32.5,4.51-43.41,7.32,4.67-2.53,10.8-5.43,18.47-8.09,7.49-2.6,14.45-4.28,20.19-5.4,7.09-1.16,15.61-2.2,25.33-2.7,10.72-.54,20.21-.28,28.02.26,0,2.9,0,5.81,0,8.71-12.29-1.1-29.05-1.77-48.6-.1Zm-9.29,12.7c-5.94.31-11.78.55-17.5.72,4.76,1.93,10.81,3.89,17.96,5.1,4.91.83,9.39,1.15,13.28,1.19.74-1.18,1.54-2.4,2.41-3.63,1.17-1.68,2.34-3.24,3.49-4.68-6.4.51-12.95.94-19.65,1.3Zm82.1-38.95c10.92.04,12.13-.26,17.43.22,5.76.52,10.47,1.43,13.6,2.14,1.3.17,3.68.77,6.14,3.21,1.57,1.56,2.65,3.34,3.34,4.69-12.11-1.08-25.49-1.59-40-1.59s-29.05.56-41.58,1.75c1.45-1.9,3.67-4.44,6.65-6.48,4.65-3.18,8.61-3.39,12.94-3.56,10.83-.43,19.29-.38,21.48-.37Zm75.23,4.41c.57-3.15,1.14-6.29,1.71-9.44,5.37.36,11.81,1.24,18.93,3.13,6.45,1.72,11.99,3.89,16.54,6.01,3.65,1.9,8.01,4.57,12.54,8.3,4.65,3.82,8.21,7.7,10.86,11.01-6.8-4.37-16.12-9.4-27.82-13.21-12.85-4.19-24.27-5.5-32.77-5.8Zm-36.17-22.7c7.16,1.34,8.01,1.18,11.41,2.28,3.69,1.2,6.62,2.65,8.55,3.72.82.32,2.28,1.2,3.46,3.89.75,1.72,1.14,3.61,1.35,5.02-7.76-2.51-16.45-4.6-25.98-6.33-9.95-1.8-19.18-2.9-27.61-3.22,1.29-1.7,3.2-3.93,5.52-5.58,3.62-2.57,6.26-2.31,9.13-1.97,7.19.87,12.73,1.92,14.17,2.19Zm-83.75-.19c7.21-1.06,7.96-1.48,11.53-1.55,3.88-.07,7.12.36,9.29.74.89.04,2.55.39,4.54,2.56,1.27,1.38,2.25,3.04,2.91,4.3-8.16.15-17.05,1-26.63,2.46-9.99,1.53-19.08,3.49-27.16,5.93.67-2.03,1.75-4.76,3.41-7.08,2.59-3.61,5.16-4.22,8-4.83,7.08-1.51,12.67-2.32,14.11-2.54Zm-72.12,24.67c-11.7,3.81-21.02,8.84-27.82,13.21,2.65-3.31,6.22-7.19,10.86-11.01,4.54-3.73,8.9-6.4,12.54-8.3,4.55-2.12,10.09-4.29,16.54-6.01,7.12-1.9,13.56-2.77,18.93-3.13l1.71,9.44c-8.5.31-19.92,1.62-32.77,5.8Z"/>
  </g>
</svg>