<svg xmlns="http://www.w3.org/2000/svg" viewBox="0 0 999 663"><style>.st1{fill:#c1272d}.st2{fill:#006837}.st3{fill:#f7931e}.st4{fill:#754c24}.st5{fill:#0071bc}</style><path d="M483.6 632.4c19.8-1.4 37.8-17.8 36.3-36.9-1.1-13.5-21.6-13.1-28.5-6.6-5.2 4.9-4.2 14.9-9.8 14.2-9.4-9.5-23-21.1-45.7-13.2-7.4 2.6-15.8 10.4-5.3 14.9 7.9 3.4 16.2 2.6 24.6 1.9 2.5-.2 5.4 1.1 7.9.5.6-.2 1.5-1.2 1.7-.6.5 1.2-26.9 2.5-24.5 11 1.7 6.1 18.8.5 22.4-.8.2-.1 1.7-.8 1.7-.6.4 1-12.9 5.8-12.5 11.3.6 7.4 11.1 2.1 14-.1 2.5-1.8 5.1-3.4 7.4-5.3.1-.1 3.9-2.8-3.1 3.2-6.2 5.3-22.2 19-21.1 22 1.1 3 3.9 2.4 6.7 4.2 2.8 1.7 4 1.7 6.1 2.2 2.1.5 3.6-17.1 14.6-19.3m35.6-49.2c9.6-1.4 9.1-5.4 4.5 3M504 594c-.2-.1-.4-.3-.5-.4" fill="none" stroke="#00f" stroke-width="3" stroke-linecap="round" stroke-linejoin="round" stroke-miterlimit="8" stroke-opacity=".9" id="bird1"/><g id="bird2"><g id="Group_995" transform="translate(-959.269 -741.234)"><path id="Path_698" class="st1" d="M1629.1 1232.2c.8.2 1.5-.3 1.7-1.1.2-.8-.3-1.5-1.1-1.7-.8-.2-1.5.3-1.7 1.1-.1.7.3 1.5 1.1 1.7z"/><path id="Path_699" class="st1" d="M1664.4 1269.3c0-.7-.4-1.3-1.1-1.5-5.4-1.6-14.5-6.4-26.5-13.9-3-1.9-6.2-3.9-9.4-6.1-.9-.6-1.6-1.1-2.3-1.6 2-2.3 3.8-4.9 5.3-7.6.3-.6.8-1.2 1.4-1.7 4.7-4 15.4-.1 18.6 1.3.6.2 1.1.5 1.6.7.1 0 .2.1.3.1.8.2 1.6-.3 1.8-1.1.2-.7-.2-1.4-.8-1.7 0 0-.7-.3-1.7-.8-6.1-2.6-13.2-4.8-15.8-5.6l-.5-.1c-.7-1.5-2.8-4.2-8.7-5.6-6.2-1.4-9.5 3.8-12 7.6-.7 1.3-1.6 2.4-2.6 3.5-.1.1-.3.2-.5.3-4.6 1.1-8.8 3.3-12.5 6.3-4.9 4.2-8.7 9.5-11 15.5l-12.7 17.3c-.5.7-.3 1.6.3 2.1.2.1.4.2.5.3l5.6 1.3c.6.1 1.2-.1 1.6-.6l8.4-12c2.8-.2 5.6-.7 8.3-1.6 1.5 1.8 4.3 2.1 6.1.5.7-.6 1.2-1.4 1.4-2.4.1-.5.1-.9.1-1.4.7-.4 1.3-.7 2-1.1 3.9 3.3 8.8 5 13.9 4.8.1 0 .2 0 .3-.1l.2 2.1c0 .5.4 1 .8 1.2 3.2 1.6 6.5 2.9 10 3.7 9.4 2 19.2 1.7 28.5-.7.7-.1 1.1-.7 1.1-1.4zm-61.1-15c-.9.4-1.7.7-2.6 1-.9.3-1.7.6-2.6.8l-.4.1c-.9.2-1.7.4-2.6.5-1.2.2-2.4.2-3.6.1 2.1-4.7 5.1-8.8 8.9-12.2l4.9 1.2-1 4.1v.6c.2.9.5 1.8.8 2.7v.1c-.4.2-.7.4-1.1.5-.1.3-.4.4-.7.5zm19.5-9.8c-.3-.2-.5-.4-.6-.6l-.2-.2c-.1-.2-.3-.3-.4-.5l-.1-.2c-.1-.1-.2-.3-.3-.4-.2-.3-.4-.5-.6-.8-.4-.5-.7-1-1.2-1.6l.1-.1c.1-.1.2-.2.2-.3.2-.2.4-.5.6-.7l.3-.3c.2-.2.4-.4.7-.6.1 0 .1-.1.2-.2.3-.2.6-.4.8-.6.1 0 .1-.1.2-.1.2-.1.4-.3.6-.4.1 0 .2-.1.2-.1l.6-.3.2-.1c.5-.2 1-.3 1.5-.4h.1c.2 0 .4 0 .6-.1h1.3c.2 0 .3 0 .4.1h.1l.4.1c-.2.3-.4.6-.6 1a40.3 40.3 0 01-5.1 7.4zm-5.7-11.1c2.7-4.2 4.9-7.1 8.7-6.3 5.9 1.4 6.8 4.2 6.8 4.3.2.7.5.9 1.7 1.3-1.3.3-2.5.7-3.6 1.4l-.2-.1-.1-.1h-.2l-.2-.1-.2-.1-.3-.1-.3-.1c-.1 0-.2-.1-.3-.1h-.1c-.2 0-.3-.1-.5-.1s-.4-.1-.7-.1h-2.1c-.3 0-.6.1-.9.1-.3.1-.7.1-1 .2l-.3.1-.9.3h-.1c-.4.2-.7.3-1.1.5-.1.1-.2.1-.3.2-.3.2-.6.4-1 .6-.1 0-.1.1-.2.1-.4.3-.7.6-1.1.9l-.3.3c-.3.3-.6.6-.9 1l-.2.2-.1.1-.1-.1-1.4-1.4c-.1-.1-.3-.2-.4-.4.7-.6 1.3-1.5 1.9-2.5zm-4.9 5c.2-.1.5-.1.7-.3.2.2.5.3.7.5.5.4.9.8 1.3 1.2l.2.1c.4.4.8.8 1.1 1.2.7.7 1.3 1.5 1.9 2.3 1.1 1.6 2.4 3 3.9 4.1 1 .8 2.2 1.7 3.7 2.7 1.1.7 2.2 1.4 3.2 2.1l-19.5-3.3-1.9-.3.9-4c.2-.8-.3-1.6-1.1-1.8l-4-.9c2.9-1.5 5.8-2.8 8.9-3.6zm-30.8 36.8l-2.3-.5 11-14.9c.7.1 1.4.2 2.2.2l-2.6 3.5-8.3 11.7zm14-14.5l.8-1c.8-.1 1.6-.3 2.5-.5h.2c.8-.2 1.5-.4 2.4-.7l.4-.1c.7-.2 1.4-.5 2.1-.8.1 0 .2-.1.4-.1.8-.3 1.5-.7 2.3-1.1.1 0 .1-.1.2-.1.1.2.3.4.4.6.1.2.2.4.4.6 0 .1.1.1.1.2-.8.4-1.5.9-2.3 1.3-1.6.8-3.3 1.6-5 2.2-2 .7-4 1.2-6 1.5l1.1-2zm31.5 4.8l-.8-8.1c-.1-.8-.8-1.4-1.6-1.4-.6.1-1.2.5-1.3 1.2l-1 4.4c-4.2-.1-8.2-1.7-11.3-4.7-.4-.5-.8-.9-1.2-1.5-.1-.1-.1-.2-.2-.3-.4-.5-.7-1.1-1-1.7-.2-.4-.4-.9-.6-1.3l24.8 4.2 2.7.5c7.1 4.6 14.4 8.6 22 12.2-6.7 1-19.4 2-30.5-3.5z"/></g></g><g id="bird2_00000050622314781058859340000017031925441012736394_"><g id="Group_733" transform="translate(-229.376 -608.249)"><path id="Path_568" class="st2" d="M709.2 945.7c-.1-.1-2.2-1.9-6.6-1.9-3.1.1-6.2.7-9.2 1.8l-5.6 2.3v-9c0-.3-.2-.5-.5-.5h-.2c-4.9 1.6-8.5 5.8-9.2 10.9-1-1.2-2.6-1.9-4.1-1.9-3.1 0-5.6 2.7-5.7 2.9-2.9-.3-5.8-.3-8.7 0-.3 0-.4.3-.4.5s.2.4.5.4h.1c2.9-.3 5.9-.3 8.8 0 1.2 1.7 3.1 2.9 5.2 3.3.4 1.2 1 2.4 1.8 3.5 1.6 2.4 3.9 4.3 6.5 5.6.1.1.3.1.4.2-4.2 9.3-7.4 19-9.6 29-.1.2.1.5.3.6h.1c.2 0 .4-.1.4-.3 2-5.2 8.1-18.6 12.1-18.6s10.1 13.4 12.1 18.6c.1.2.4.4.6.3.2-.1.3-.3.3-.5-3.4-16.3-10.3-30.4-11.5-33 1.4-.8 6.7-3.8 13.1-6.9 7.6-3.7 9.1-6.4 9.2-6.5 0-.4 0-.6-.2-.8zm-22.4-6.1v8.7L680 951c-.4-.3-.8-.5-1.3-.7.4-4.9 3.6-9.1 8.1-10.7zm-12.9 14.1c-2-.3-3.7-1.4-4.9-3.1.7-.6 2.6-2.3 4.8-2.3 2.6 0 4.1 2.4 4.1 2.5 0 .1.1.1.2.2l1.5.8v.5c0 .2-.1.4-.1.6v.1c0 .2-.1.4-.2.6 0 .1 0 .1-.1.2 0 .1-.1.3-.2.4 0 .1-.1.1-.1.2-.1.1-.1.2-.2.3 0 .1-.1.1-.1.2-.1.1-.1.2-.2.3 0 .1-.1.1-.1.1-.1.1-.2.2-.2.3l-.1.1-.3.3s-.1 0-.1.1c-.1.1-.2.1-.3.2l-.1.1-.2.2-.1.1c-.1 0-.1.1-.2.1 0 0-.1 0-.1.1-.1 0-.1.1-.2.1h-.1c-.2.1-.3.2-.5.2-.7-1-1.2-2-1.5-3.1-.1-.2-.2-.4-.4-.4zm2.5 4.3c.1 0 .1-.1.2-.1h.1c.1-.1.2-.1.3-.2l.1-.1c.1-.1.2-.1.3-.2l.1-.1c.1-.1.2-.1.3-.2l.1-.1c.1-.1.3-.2.4-.3.1-.1.2-.2.4-.3l.1-.1.3-.3.1-.1c.1-.1.2-.3.3-.4 0 0 0-.1.1-.1l.3-.6s0-.1.1-.1c.1-.2.1-.3.2-.5 0-.1.1-.1.1-.2.1-.2.1-.3.2-.5 0-.1 0-.1.1-.2.1-.3.1-.5.1-.8v-.1c0-.2 0-.4.1-.6l6.9-2.8 5-2c-1.1 1.7-2.4 3.3-4 4.5-.4.3-.8.6-1.3.9h-.1c-.4.3-.9.5-1.4.7h-.1c-.5.2-1 .3-1.5.4h-.2c-.3 0-.5.1-.8.1-.3 0-.5.2-.5.5 0 .1 0 .2.1.3.4.5.8.9 1.2 1.4.2.2.3.5.5.7.6 1 1.1 2 1.5 3.1.2.7.6 2.8-.3 3.5-.6.6-1.9.2-2.8-.1-.3-.1-.5-.2-.8-.3-2.3-1.1-4.3-2.7-5.8-4.7zm17.8 25.2c-3.4-6.4-6.3-9.7-8.7-9.7s-5.3 3.3-8.7 9.7c-.8 1.5-1.5 3-2.2 4.4 2.1-8 4.9-15.9 8.3-23.5h.1c.1 0 .2.1.2.1.1 0 .2.1.3.1.1 0 .2 0 .2.1.1 0 .2 0 .3.1h1.2c.1 0 .2 0 .2-.1h.2c.1 0 .2-.1.2-.1s.1 0 .1-.1c.1-.1.2-.1.3-.2l.3-.3s0-.1.1-.1c.1-.1.1-.2.2-.3v-.1c.1-.1.1-.3.1-.4v-.1c0-.1 0-.2.1-.4v-.1c3.8 8.2 6.9 16.7 9.2 25.5-.4-1.5-1.2-3-2-4.5zm5.5-31.3c-6.2 3-11.4 6-13 6.9 0-.1-.1-.2-.1-.3 0-.1-.1-.2-.2-.4v-.1c-.1-.1-.1-.2-.2-.4v-.1c-.1-.2-.2-.3-.2-.5l-.1-.1c-.1-.1-.2-.3-.2-.4l-.1-.1c-.1-.2-.2-.4-.3-.5 0 0 0-.1-.1-.1-.1-.2-.2-.3-.3-.5 0-.1-.1-.1-.1-.2-.1-.2-.3-.4-.5-.6 2.5-.4 4.9-1.8 7-4.2.2-.2.3-.4.5-.6l.1-.1c.1-.2.3-.4.4-.5l.1-.1c.1-.2.3-.3.4-.5.1-.2.2-.3.3-.5 0 0 0-.1.1-.1.1-.1.2-.3.3-.4l.1-.1c.1-.1.2-.3.2-.4.1-.1.1-.2.2-.3 0-.1.1-.2.1-.2 2.8-1 5.7-1.6 8.7-1.7 2-.1 3.9.4 5.6 1.4-.8.8-3 3-8.7 5.7z"/><circle id="Ellipse_115" class="st2" cx="672" cy="950.6" r=".9"/></g></g><g id="bird4"><path class="st3" d="M689 292c-2.8 0-5.2 2.3-5.2 5.2s2.3 5.2 5.2 5.2c2.8 0 5.2-2.3 5.2-5.2s-2.3-5.2-5.2-5.2zm0 6.9c-.9 0-1.7-.8-1.7-1.7s.8-1.7 1.7-1.7c.9 0 1.7.8 1.7 1.7 0 .9-.7 1.7-1.7 1.7z"/><path class="st3" d="M721.4 295.5l-17.4-4.6c-.8-1.9-2-3.7-3.5-5.2l-.4-.4c-3.4-3.2-8-4.7-12.7-4.1-4.8.6-9 3.2-11.6 7.3-.1.2-.3.5-.4.8-.5.9-2.2 4.3-4.3 7.4-3.5 5.1-5.1 5.3-5.3 5.3-8.6 0-29.3-15.5-36.6-21.5-.4-.3-1-.5-1.5-.3-.5.1-1 .5-1.2 1-1.8 4.3-2 14.5 1.2 24.9 1.8 5.9 5.1 13 10.9 19.1l-.1.1c.1 0 .2.1.3.2 2.7 2.8 6 5.3 9.9 7.4l-20.5 33.4c-.3.6-.3 1.2 0 1.8.3.5.9.8 1.5.8h.1c8.7-.5 16.4-5.2 20.8-12.6 4.3-.1 8.6-.5 12.8-1.3.1 0 .3 0 .4-.1.2-.1.4-.1.6-.2 6.8-1.5 13.4-3.9 19.5-7.3 14-7.8 21.1-23.8 17.4-39.3 1.2-1.3 2.1-2.9 2.8-4.5l17.4-4.6c.8-.2 1.3-.9 1.3-1.7s-.6-1.6-1.4-1.8zm-39.3 48.7l-2.4 1.2c6.4-6.4 10.3-15.1 10.4-24.6l8.5-5.5c.3 11.8-5.9 23-16.5 28.9zm16-38c-.4.4-.6 1.1-.5 1.7.3 1.2.5 2.4.7 3.6l-10.8 7c-.5.3-.8.9-.8 1.5.2 14.5-9.4 27.3-23.3 31.3-4.3.9-8.7 1.4-13 1.5h-1c-.6 0-1.2.3-1.5.9l-.2.3c-3.2 5.7-8.6 9.6-14.9 11l19.6-31.9c.3-.4.3-.9.2-1.4s-.5-.9-.9-1.1c-2.7-1.2-5-2.7-7.1-4.4 2.1-.1 4.9-.5 8.5-1.5.9-.2 1.5-1.2 1.2-2.1-.2-.9-1.2-1.5-2.1-1.2-7.2 1.9-10.6 1.4-11.7 1.1-2.1-2.2-3.8-4.5-5.2-6.9h1.1c2.3 0 5.5-.4 9.9-1.5.9-.2 1.5-1.2 1.2-2.1-.2-.9-1.2-1.5-2.1-1.2-9.2 2.4-12.1 1-12.1 1h.1l-.1.1c-1.1-2.4-2-4.7-2.6-6.8-.1-.2-.1-.5-.2-.7.5 0 1 .1 1.5.1 2.3 0 5.5-.4 9.9-1.5.9-.2 1.5-1.2 1.2-2.1-.2-.9-1.2-1.5-2.1-1.2-6.9 1.8-10.3 1.5-11.5 1.2-1.4-6.6-1.4-12.4-.8-15.9 2.6 2.1 7.4 5.7 12.8 9.4 11 7.4 19 11.2 24 11.2h.1c2.4 0 5-2.2 8.1-6.8 2.2-3.2 4-6.7 4.5-7.7.1-.2.2-.3.2-.4 2.1-3.2 5.4-5.3 9.2-5.7 3.6-.4 7.3.7 9.9 3.2l.3.3c5.3 4.6 5.3 12.7.3 17.7zm7-6.6c.1-.8.2-1.6.2-2.4 0-.8-.1-1.6-.2-2.4l9.1 2.4-9.1 2.4z"/></g><g id="bird5"><circle class="st4" cx="214.5" cy="468.9" r="2.8"/><path class="st4" d="M198.5 469.8l-3.8 5.6 5.1-1c1.3 6.7 6.3 12.2 12.8 14.2v.9c0 6.1 2.4 11.8 6.7 16 4.2 4.2 9.8 6.5 15.8 6.5h.3c2 0 4-.3 5.8-.9 2.1 2.8 5.5 4.6 9.3 4.6h4.2c1.2 3.3 4.3 5.6 8 5.6v-5.6c-1.6 0-2.8-1.3-2.8-2.8 0-1.6 1.3-2.8 2.8-2.8v-5.6c-3.7 0-6.8 2.4-8 5.6h-4.2c-1.4 0-2.8-.5-3.8-1.4 1.5-.9 2.8-2 4.1-3.2 2-2 3.6-4.2 4.8-6.7 1.2-.4 2.3-.9 3.4-1.5 5-2.9 7.9-7.5 8.4-13.2.2-2.5-.1-4.7-.4-6.1 2.5-3.2 8.4-12.3 5.1-22.2l-1.1-3.5-34.4 22.6c.3-1.3.5-2.7.5-4.2 0-10.3-8.4-18.8-18.8-18.8-8.4 0-15.6 5.6-17.9 13.3l-5.5-1.1 3.6 5.7zm41.2 17.6c-1.3-1.9-2.2-4-2.5-6.2l30.2-19.9c.1 2.6-.5 5.4-1.9 8.3-1.6 3.4-3.7 5.7-3.7 5.8l-1.1 1.2.5 1.6s.8 2.5.6 5.6c-.3 3.8-2.2 6.7-5.6 8.6-5.7 3.4-12.1 1.5-16.5-5zm-21.5 2.1c5.4 0 10.2-2.3 13.7-5.9.6 2.5 1.7 4.9 3.2 7.1 3.1 4.4 7 7.4 11.4 8.5.7.2 1.5.3 2.2.4-.5.7-1.1 1.4-1.7 2-3.1 3.1-7.2 4.8-11.5 4.8-4.6.1-8.8-1.7-12.1-4.9-3.4-3.2-5.2-7.4-5.2-12zm-13.1-18.7c0-7.2 5.9-13.1 13.1-13.1 7.2 0 13.1 5.9 13.1 13.1 0 7.2-5.9 13.1-13.1 13.1-7.2 0-13.1-5.9-13.1-13.1z"/></g><g id="bird6"><path class="st5" d="M745.1 159.1c.2-1 .4-2 .4-3 6.8-1.7 11.8-7.8 11.8-15 0-2.1-.4-4.1-1.2-5.9l5.5-2.4-6.5-2.6-.1-7-4.7 4.9c-2.4-1.6-5.3-2.5-8.4-2.5-8.5 0-15.5 6.9-15.5 15.5v.1l-20-25.8-2.3 3c-5.7 7.5-3.4 16.8-2.2 20.4-.7 1.1-1.5 2.8-2.1 5-1.3 5-.2 9.8 3.2 13.8-.1 0-.1.1-.2.1-5.6 2.2-12.3 3.2-12.4 3.2l-11.6 1.7 19 6.8-9.7 16.4 8.7-4.3c.1-.1 11.6-5.6 24.5-6.3.9 1.7 2.1 3.2 3.6 4.5 2.9 2.6 6.3 3.9 9.9 3.9 1.3 0 2.7-.2 4.1-.5 2.1-.6 3.8-1.4 5-2.1 3.6 1.2 13 3.4 20.4-2.2l3-2.3-22.2-17.4zm-3.2-27.7c5.3 0 9.7 4.3 9.7 9.7 0 5.3-4.3 9.7-9.7 9.7s-9.7-4.3-9.7-9.7c0-5.4 4.3-9.7 9.7-9.7zm-2.2 25c-.4 3.3-1.8 6.2-4 8.4-1.3 1.3-2.8 2.3-4.5 3 2.4-2.4 4-4.8 5-6.9.9-1.8 1.4-3.4 1.8-4.8.5.1 1.1.2 1.7.3zm-34.3-11c.6-2.6 2-4.4 2-4.4l1.1-1.3-.7-1.6c0-.1-2.7-6.6-.9-12.6l15.2 19.6c-3.9 3.1-9 6.8-13.8 9.6-.3-.3-.6-.6-.8-.9-2.2-2.4-2.9-5.2-2.1-8.4zm12.6 24.1c-6 .6-11.5 2.1-15.7 3.5l4-6.8-5.1-1.8c1.2-.4 2.5-.8 3.7-1.3h.1c7.6-3.2 17.4-10.6 23-15.1 1.1 2.2 2.7 4.1 4.6 5.5-.6 3.3-3.1 11.3-14.6 16zm26.6 5.3l-1.6-.7-1.4 1.1s-1.8 1.3-4.3 2c-3.3.8-6.1.2-8.7-2.1l-.5-.5c4.6-.7 8.5-2.7 11.6-5.7 1.3-1.2 2.3-2.7 3.2-4.2l14.2 11c-6 1.9-12.5-.8-12.5-.9z"/><circle class="st5" cx="745.2" cy="139.6" r="2.9"/></g><path d="M8.4 307.6c0 .5-.3 1.3.8 1.1 1.6-.6 2.3-1.8 2.7-3.4.4.1.2 1.8 1 .2.1.3.1.6.1.5 1.8-1.4 3.6-2.9 5.4-4.3.5-.4.8-1 1.3-1.5s.9-1.3 1.6-1.4c1.6-.5 2.4-1.6 3-2.9.1-.3.6-.4.8-.6.8-.7 1.5-1.5 2.2-2.2.5-.5 1.1-1 1.6-1.5s1.1-1.1 1.4-1.7c1.2-2.2 2.3-4.5 3.4-6.7 1.2-2.3 2.3-4.6 3.6-6.7.6-1 1.5-1.9 2.5-2.4 2.5-1.3 5.1-2.1 7.8-2.7 1.1-.2 2.1-.9 3.2-1.3.7-.3 1.5-.3 2.3-.6 2.5-.8 5.1-1.8 7.6-2.6 2.1-.7 4.2-1.2 6.3-1.9 3.7-1.2 7.4-2.6 11.1-3.7 1.1-.3 2.3-.5 3.5.5 2.3 2 5.1 3 8.1 3.8 2.4.6 4.8 1.5 7.2 2.3 2.2.7 3.6 2.3 4.5 4.4.6 1.5 1.8 1.8 3.2 1.9.9.1 1.8.1 2.7.4.6.3 1.1.6 1.7.9.1.1.2.2.4.3.9.8 2 1.2 3 1.8.8-.8 1.4-1.5 2.2-2.2 1.5.7 1.5.7 3-2.3-1.3-.8-2.7-1.6-4.1-2.4.3-1.2.6-2.5.8-3.7 0-.3-.3-.9-.6-1.1-6-2.4-9.2-7.3-11.7-13-.9-2.1-2.3-4-3.6-6-.5-.7-.8-3.5-.4-4.3.3-.7.4-1.4.7-2.1.4-.8.9-1.6 1.3-2.4.2-.4.5-.7.6-1.1.3-.3.8-.6.9-.9.4-.8.5-2.2 1.1-2.5 2.1-1.1 1.9-3.6 3.5-4.9.9-.7 1.1-2.1 1.7-3.2.2-.4.4-.7.6-1.1.8-.9 1.5-2 1.8-3.2.1-.2.2-.5.4-.7.9-1.8 1.7-3.7 2.6-5.5.4-.7 1-1.2 1.4-1.9.3-.6.5-1.2.8-1.9.1-.4.3-.7.5-1 .4-.9.7-1.7 1.1-2.6.4-1 .9-1.9 2-2.4 1.4-.7 2.6-1.9 4-2.8.5-.4 1-.8 1.5-1 1.7-.6 3.4-1.5 5.1-1.6 2.6-.2 4.6-1.8 6.8-2.7.7-.3 2.2-.1 2.5-1.6 0-.3 1.1-.3 1.7-.6 1.5-.8 3.1-1.6 4.6-2.6.6-.4 1-1.1 1.5-1.6l3.7-3.7c.2-.2.3-.6.5-.7 2.1-1.3 3.3-3.3 4.5-5.3.2-.3.6-.6.8-.9.3-.6.6-1.3 1-1.9.5-.9 1.1-1.7 1.7-2.5.2-.3.3-.7.5-1h-1.1c-3.7 1.7-7.4 3.5-11.2 5-2.9 1.1-6 1.5-8.9 2.5-4.7 1.5-9.4 2.7-13.8 5.2-3.9 2.2-8.2 3.7-12.2 5.8-2.8 1.5-5.4 3.3-8.1 5.1-.5.4-.9 1.1-1.2 1.7-2.8 5.3-5.3 10.8-8.4 16-1.8 3.2-4.2 6.2-6.6 9-1.5 1.8-3.5 3.2-5.3 4.6-2.2 1.7-4.9 1.3-7.4-.9-1.4-1.2-2.7-2.5-4.2-3.4-3-1.8-6.2-1.7-9.3-.5-.6.2-1.2.9-1.5 1.4-.5 1-1.2 1.6-2 1.9-.2 0-.3.1-.5.2h-.2c-.2 0-.5 0-.7.1l-.4.1c-.2 0-.5.1-.7.1-.3 0-.7.1-1 .3-.4.1-.8.2-1.2.6l-.7.7c-.4.4-.6 1-.6 1.6v.2c0 1.2.3 2.3 1.4 2.8.3.1.9-.2 1.2-.5 1.6-1.3 2.4-1.4 4.2-.6 1.1.5 2.3.9 3.4 1.4.4.2 1 .7 1.1 1.2.3 1.1.4 2.3.5 3.4.1 1 0 2 .3 2.9.4 1.3 0 2.1-.9 2.9-2.3 1.7-4.5 3.6-6.8 5.2-3.7 2.6-7.7 4.4-12 6l-2.4.9c-1.1.3-2.1.7-3.1 1.1-2.1.8-4.2 1.5-6.3 2.3-2.4.9-3.4 3-4.5 5-2 3.8-3.6 7.8-6 11.3-3.2 4.7-5.3 9.9-7.9 14.9-2.7 5.2-3.9 9.7-5.7 15.3-.2-.2-.3-.1-.3.1z" fill="#ff0" stroke="#f15a24" stroke-miterlimit="10" id="bird7"/><path d="M985.6 371.2c-3.5-2.5-6.5-5.5-9.4-8.7-2.2-2.5-4-5.2-5.8-8-1.2-1.8-2.5-3.4-3.7-5.1-1.1-1.4-2.2-2.8-3.4-4.1-1.6-1.9-3.1-3.8-4.7-5.6-1-1.2-2.1-2.4-3.1-3.5-.9-.9-1.7-1.8-2.7-2.6-.7-.6-1.6-1-2.4-1.5-.9-.5-1.9-.9-2.8-1.3-1.1-.6-2.2-1.1-3.3-1.7-1.2-.6-2.5-1.3-3.7-2-1.1-.6-2.3-1.2-3.4-1.8-1.5-.8-3-1.7-4.5-2.5-1.3-.7-2.6-1.5-3.9-2.2-.6-.3-1.1-.7-1.6-1.1-.5-.3-1-.6-1.5-1 .4-.4.7-.8.9-1.2.4-.6.5-1.3.1-2 0-.1-.1-.2-.2-.2-1.2-2-2.9-3.4-5.1-4.4-1.2-.6-2.5-1-3.8-1.3-.5-.3-1.1-.6-1.6-.9-.9-.5-1.8-1.1-2.5-2-.3-.4-.7-.6-1.1-.9 0 0 0-.2-.1-.2-.4-.3-.8-.5-1.2-.8-.1-.2-.3-.3-.5-.5-.1-.1-.2-.1-.3-.2l-.2-.2c-.5-.4-.9-.9-1.3-1.4-.9-1.1-1.8-2.1-2.6-3.2-1.1-1.5-2.2-3.1-3.3-4.7-1.6-2.4-3.1-4.8-4.6-7.3-1.5-2.7-2.9-5.4-4.4-8.1-.4-.7-.9-1.2-1.4-1.8-.5-.6-1.1-1.2-1.7-1.8-.9-.9-1.9-1.8-2.9-2.5-2.3-1.8-4.3-3.8-6.6-5.6-1.4-1.1-2.8-2.4-4.2-3.4-2.5-1.7-5-3.4-7.6-5-2.3-1.5-4.4-3.1-6.4-4.9-1.5-1.3-3-2.7-4.4-4-1.1-1-2.1-2.1-3.1-3.1-1.4-1.4-2.7-2.9-4.1-4.3-.1-.1-.3-.3-.5-.4 0 0-.1 0-.1.1 0 .2 0 .5.1.7.6 1.6 1.2 3.2 2.3 4.5.9 1.1 1.8 2.2 2.8 3.1 1.5 1.4 3.2 2.7 4.8 4 .1.1.2.2.2.3-.1 0-.2-.1-.4-.1-2.2-1.4-4.4-2.7-6.6-4.1-1.8-1.2-3.5-2.4-5.3-3.6-1.2-.8-2.2-1.7-3.4-2.5-1.4-.9-2.8-1.8-4.2-2.6-.2-.1-.5-.2-.8-.3.1.3.1.4.1.5.8 1.4 1.7 2.7 2.9 3.8 1.2 1.1 2.5 2 3.9 3 1.2.8 2.4 1.7 3.6 2.5.6.4 1.3.8 1.9 1.2 1 .6 2 1.2 3.1 1.8.3.2.6.3.9.4-.7-.3-1.4-.5-2.1-.8-1.2-.5-2.4-1.1-3.6-1.7-1.9-.9-3.8-1.8-5.7-2.6-2.7-1.1-5.4-2.2-8.1-3.2-.3-.1-.7-.2-1-.2-.1 0-.3.1-.4.1 0 .1 0 .3.1.4.2.2.4.5.7.7 1.7 1.5 3.7 2.6 5.8 3.6 1.7.8 3.4 1.7 5.1 2.6.6.3 1.2.5 1.8.7v.1c-.1 0-.2 0-.4-.1-2.9-.9-5.7-1.8-8.6-2.6-1.2-.4-2.5-.5-3.8-.7-.2 0-.5.1-.8.2.1.2.2.5.4.6.2.2.5.4.8.5 2.8 1.7 5.9 2.8 8.9 3.9.7.3 1.3.5 2 .8v.2c-.3 0-.5-.1-.8-.1-1.6-.3-3.3-.6-4.9-.9-.4-.1-.7 0-1.1.1-.1 0-.3.1-.5.3.4.3.7.7 1.1.9 1.8.9 3.5 1.7 5.3 2.5.1 0 .1.1.2.1-.4.1-.8.2-1.3.3 1.1 1.4 2.5 2.2 3.9 3.1.3.2.8.2 1.1.4.2.1.4.3.7.5-.4.5-.3.9.2 1.3 1 .9 2.2 1.5 3.4 2.2.4.2.6.7 1 1.1l.9.9c.3.2.6.5.9.7-.7.8-.4 1.3.2 1.8.4.3.8.7 1.2 1 .6.4 1.3.6 2 .5h.2c.4.9 1.1 1.5 2 1.8.5.5 1 1 1.3 1.7.1.3.2.6.1 1s.2.8.1 1.2c-.1.7.5.7.9.9.1.1.2.1.3.2.5.2.7.5.5 1-.1.3-.1.5.2.7.4.3.8.6 1.2.8.3.2.5.4.8.5.2.1.4.2.6.2.3 0 .5.2.4.5-.1.4.1.7.3 1 .2.2.2.6.2.8 0 1 .2 1.3 1.1 1.6.4.1.8.3 1 .8.2.5.4.9 1 1 .5.1.8.5.8 1.1 0 .6.4.9.7 1.3.3.3.4.6.3 1-.2.6.1 1.2.3 1.8 0 .1.3.1.4.1-.2.4-.1.7.4.8.5.2.8.5 1 1.1.2.8.7 1.3 1.5 1.3.1 0 .3.1.5.2-.2.1-.4.2-.6.2v.1h.6c.2 0 .4.1.6.2-.1.2-.2.3-.3.4l-.3.3c-.2.3 0 .8.3.9h.2c1 0 1 0 .9 1.1-.1 1.1.3 2.1.9 3 .1.2.4.2.6.3.2.1.3.2.4.4.2.3.3.6.4.9.1.4.2.7.8.8.2 0 .4.5.5.9.3.6.5 1.1.8 1.7.1.2.2.3.2.5.1.6.4.9 1 1 .4 0 .6.1.9.4.4.4.9.5 1.4.7.3.1.5.3.8.4.6.3 1.1.7 1.7 1 .4.2.6.6.5 1.1-.1.4-.3.8-.2 1.3.1.2-.4.6-.6 1-.1-.6-.4-.8-.8-.7-.7.3-1.5.2-2.2.4-.6.2-1.3.4-1.9.5h-.1c-1.1-.2-2.2.2-3.3.3-1.3.1-2.6.3-3.9.5-1.6.2-3.1.3-4.7.5-.7-.3-1.5.1-1.8.8-.3.7.1 1.5.8 1.8.2.1.5.2.7.3.2 1.2 1.2 2.1 2.4 2.3-.2.1-.3.2-.5.3-.2.2-.6.5-.3.8.2.3.5.7 1 .5.2.2 0 .9.5.6.7.4 1.4.7 2 1 .1.6.3.8 1.3 1 .4.1.7.1 1.1.1h1.1c-.1.1-.2.3-.3.4-.6.5-.6 1 0 1.5l.4.4c.4.5.4.5.9.5.1.2.1.4.2.4.4.2.8.6 1.4.3.1 0 .2 0 .2.1.2.2.3.6.5.7.2.2.5.2.8.3h.4c.6-.3 1.2 0 1.8-.2h.2l-.4.4c.8.1 1.4.4 2.1.1.1 0 .3-.1.4-.1.4.1.9.3 1.3.4-.1 0-.2.1-.4.2.5.4 1.1.5 1.7.6.2 0 .4 0 .6.1.5.1 1.1 0 1.4-.5 1.2-1.7 2.5-3.4 3.6-5.1.5-.7 1.1-1.1 1.9-1.2 1.3-.2 2.5-.6 3.7-1.2.2-.1.5-.2.8 0 .4.2.8.2 1.3.2-.1.5.2.8.4 1.1.1.1.2.3.1.3-.3.5.1 1 .2 1.5 0 .1.2.2.3.3.3.2.5.3.8.5.4.2.6.6.6 1 0 .2.2.4.4.5.5.2.7.5.8.9.1.2.2.4.4.4 1.2.5 2.4.9 3.6 1.3.4.1.8.2 1.1.3.1 0 .3.1.4.2.1.5.6.5.9.7.5.2.9.3 1 .9 0 .1.2.2.4.3.5.2.9.3 1.4.5l.3.3c.2.2.3.5.5.7 1 .6 2 1.1 3.1 1 .2 0 .3-.1.5-.1v.5c.1 0 .3 0 .4.1 0 .1-.1.3-.1.4.2.3.7.3 1.4-.1-.1.3-.1.5.3.5.5 0 .7.1.7.6s.4.7.7.9c.2.1.6-.1.8-.2.2-.1.4-.4.7-.6.1.6-.3.9-.6 1.3.2.1.3.3.5.3.4.1.8.1.8.7 0 0 .4.1.5 0 .5-.2 1-.2 1.2.4.3.8 1.1 1.1 1.5 1.8.1.1.3.2.5.3-.1 0-.1.1-.2.1-.3.2-.2.3.1.4.7.2 1.4.6 2.3.4.1 0 .3.1.4.2.3.7.8 1.2 1.6 1.5.1 0 .2.2.3.4.2.5.2 1 .4 1.5.1.3.4.5.5.8.1.2.3.4.5.6.5.4 1.1.3 1.7.2.2 0 .5-.2.7-.2.2 0 .4 0 .5.1.4.3.8.7 1.2 1l.1.1c.2 1 1.2 1.2 1.8 1.8l.6.9c.1.1.3.2.4.3.1.1.3.2.4.4.4 1.1 1 2.2 2 3 .5.4.9.8 1.6 1 .3.1.6.6.8.9.6.7 1.1 1.5 1.7 2.1.4.5 1 .9 1.7.7.1 0 .2 0 .3.1.1.1.2.3.3.4.3 1.3 1.3 2 2.1 3l.1.1c.4 0 .8.2 1.1.5.1.1.3.1.3 0 .4-.3.6.1.7.4.1.1.1.2.1.4.2 1.1.9 1.9 1.4 2.7.5.7 1.1 1.4 1.6 2 .2.2.4.4.8.7.2-.4.4-.8.6-1.3l.6 1.2c.7 1.1 1.3 2.3 2 3.3.3.4.7.8 1.1 1.1.1.1.5-.1.5-.2.1-.3.2-.7.2-1-.1-1.4-.3-2.7-.4-4.1v-.4c.3.7.6 1.3.9 2 .4.9.7 1.8 1 2.7.8 2.1 1.9 4.1 3 6.1.1.3.4.5.6.7 0 0 .3 0 .3-.1.1-.2.1-.5.1-.8.1-1.7-.2-3.4-.6-5-.5-2.2-1.2-4.5-1.8-6.7-.1-.3-.1-.5-.1-.8.3.7.6 1.5 1 2.2 1.1 2.3 2.1 4.7 3.2 6.9.6 1.3 1.4 2.6 2.4 3.7.5.5 1 1 1.5 1.6.3-.3.4-.6.3-1-.2-.8-.3-1.7-.6-2.5-.9-2.5-1.8-5-2.8-7.4-.8-1.9-1.6-3.9-2.4-5.8v-.2c.2.3.3.7.5 1 1.6 3.2 3.3 6.3 5.3 9.2.9 1.3 2 2.5 3.4 3.3.4.2.8.5 1.2.8 0 0 .1 0 .1-.1-.1-.2-.1-.5-.2-.7l-3.3-6c-1.6-2.7-3.2-5.4-4.7-8.1-1.1-1.9-2.2-3.8-3.3-5.6-.1-.1-.1-.2-.1-.3.3.5.6.9 1 1.4.6.8 1.2 1.7 1.9 2.4 1 1.1 2 2.1 3 3.2.4.5 1 .8 1.5 1.2 1.3 1 2.7 1.7 4.3 2 .4.1.9.2 1.3.3h.4c-.1-.1-.1-.3-.2-.4.4-.4 0-.7-.4-1zm-60.3-53c-.2-.3-.4-.4-.5-.6 0-.3.4-.5.9-.4-.1.3-.2.6-.4 1z" fill="#8cc63f" stroke="#009245" stroke-miterlimit="10" id="bird8"/><g id="bird9"><linearGradient id="SVGID_1_" gradientUnits="userSpaceOnUse" x1="-47.556" y1="839.99" x2="-45.865" y2="839.99" gradientTransform="matrix(.5177 1.6901 1.6901 -.5177 -961.993 553.479)"><stop offset="0" stop-color="#fca221"/><stop offset=".243" stop-color="#f9a021"/><stop offset=".396" stop-color="#f19822"/><stop offset=".524" stop-color="#e28a23"/><stop offset=".638" stop-color="#cd7824"/><stop offset=".743" stop-color="#b35f26"/><stop offset=".842" stop-color="#924128"/><stop offset=".933" stop-color="#6b1e2b"/><stop offset="1" stop-color="#4a002d"/></linearGradient><path d="M434.8 39.6c-.7.5-1.4 1.1-1.9 1.8-.2-1-.5-2.1-.7-2.9l2.6 1.1z" fill="url(#SVGID_1_)"/><path d="M458.9 54.5c-2 2.3-4.2 3.4-6.6 3.4 2.2-1 4.1-2.6 5.4-4.8l3.6-6c1.4-2.4 3.6-4 6.3-4.7 2.7-.7 5.4-.3 7.8 1.1 1.7 1 3.7 2.1 5.8 3.2-1.9.7-4.3 1-7.2-.2-1.8-.8-3.7-.9-5.6-.4-2 .6-3.8 1.9-9.5 8.4z" fill="#c7b299"/><path d="M438.8 42.6c.7-.2 1.4-.1 2 .2.1.1.2.1.4.2l-.2.6c-.1-.1-.3-.2-.4-.3-.4-.2-1-.1-1.3.3-.2.4 0 1 .4 1.2.3.2.6.6.4 1.2-.2.5-.6.9-1.1 1-.9.2-1.8-.4-2.1-1.3-.4-1.3.3-2.8 1.7-3.2.1.1.1.1.2.1z" fill="#29abe2"/><path class="st3" d="M488.4 94.8L479 85c-5.3-5.6-12.1-9.5-19.6-11.3-3.2-.8-5.8-1.5-8.3-2.3l-.5-.2c-7.7-2.5-13.7-8.1-16-14.8-1.7-5-2.4-8.1-2.1-10.1.3-2.5 1.9-4.7 4-5.8l1.1.7c-2 .8-3.1 3.1-2.5 5.2.5 1.7 2.3 2.8 4 2.5 1.2-.2 2.1-1 2.4-2.2.3-1.1 0-2.3-.8-2.9l.2-.6c1.2.8 1.9 2 1.9 3.5s-.7 2.9-2 3.8l-.8.5c-.2.1-.3.3-.4.6 0 0 0 .3-.1.6-.1 2.9 1.7 5.4 4.5 6.2h.1c1.5.4 2.9.6 4.4.4 4.4 1.6 8.5.5 11.8-3.3 5.4-6.2 7-7.5 8.6-7.9 1.4-.4 3-.3 4.4.3 4.2 1.8 7.6.9 9.9-.4 4.1 2 8.9 3.9 14 5.1-8.8 2.4-16 3.1-22.5 3.6-5.2.4-7 3-9.2 6.1-.5.7-1 1.4-1.6 2.2-3.8 4.9-11 5.8-16 2-.4-.3-.9-.2-1.2.2-.3.4-.2.9.2 1.2 5.7 4.4 14 3.4 18.4-2.3.6-.8 1.1-1.5 1.6-2.2.3-.4.5-.7.8-1.1 8.3 5.2 17.8 5.3 29.6 5-6.6 1.8-13.2 2.2-15.9 2.3-.8 0-1.6 0-2.3-.1l-2.7-.3c-.5-.1-.9.3-1 .7v.4c.1.3.4.6.7.6l2.5.3c-.2.4-.5.9-.8 1.4l-4.3-1.9c-.4-.2-.9 0-1.1.4-.1.2-.1.4 0 .6.1.2.2.4.5.5l4.2 1.8c-.2.5-.4.9-.6 1.3l-1.9-1.4c-.4-.3-.9-.2-1.2.1-.2.2-.3.6-.2.8.1.2.2.3.3.4l1.9 1.4c.7.5 1.3 1 1.9 1.6 6.8 7.4 9.8 13.2 11.1 16.6z"/><path d="M453.8 55c-2.5 2-6 2.8-9.2 1.8h-.1c-2-.6-3.4-2.4-3.3-4.5v-.1l.7-.5c1.8-1.1 2.9-3.1 2.9-5.2 0-2.2-1.2-4.2-3.1-5.2l-2.9-1.6c3.4-.6 6.9 1.4 8.1 4.7 1.1 2.9.3 6.3-2.1 8.3-.4.3-.4.9-.1 1.2.3.4.9.4 1.2.1 1-.9 1.8-2 2.4-3.2 1.3 1.2 3.3 3 5.5 4.2z" fill="#662d91"/><path d="M456.2 52.3c-.3.5-.7 1-1 1.5-2.7-1.2-5.2-3.8-6.1-4.7.4-1.7.2-3.5-.4-5.2-1.2-3.1-4-5.3-7.1-5.8-.9-3.6.3-7.5 3.1-10 4.5-4.1 10.6-10.4 15.2-18.1-.4 7.8-2.1 13.8-3.6 19.2-.3 1-.5 1.9-.8 2.8-.1.2-.2.5-.2.9-1 3.5-3.4 11.6 3.1 16l-2.2 3.4z" fill="#8cc63f"/><path d="M490.5 98.7c-.3.2-.7.1-1-.2l-11.7-12.3c-5.1-5.3-11.6-9.1-18.7-10.8-3.3-.8-5.9-1.5-8.4-2.4l-.5-.2c-8.2-2.7-14.6-8.6-17.1-15.9-.3-1-.6-1.9-.9-2.8-1.1-3.7-1.5-6.2-1.3-8.1.1-.8.3-1.7.6-2.4-.4-1.8-1.4-6.3-1.4-6.4-.1-.4.1-.8.5-1 .2-.1.5-.1.7 0l5.4 2.3c.4-.2.8-.3 1.3-.4.6-.1 1.2-.2 1.7-.2-.8-4.1.6-8.4 3.7-11.2 5-4.6 12-11.9 16.5-20.7.2-.4.6-.5 1-.4.4.1.7.4.7.8 0 9.8-2 16.9-3.8 23.1-.3 1-.5 1.9-.8 2.8l-.3.9c-1 3.4-3.1 10.3 2.3 14l.6-1.1c1.6-2.8 4.2-4.7 7.3-5.5 3.1-.8 6.3-.3 9.1 1.3 5.8 3.5 14.8 8 24.6 9.8.5.1.8.5.7 1-.1.3-.3.6-.6.7-10.5 3.2-18.7 4-26.1 4.6-3 .2-4.6 1.3-6 2.9 8.4 5.2 18.3 4.9 30.8 4.5 1.1 0 2.3-.1 3.5-.1.4 0 .8.3.9.7.1.4-.1.8-.5 1-9.4 3.9-20.5 4.2-22.9 4.2-1 1.6-2.3 4-2.7 5.2C490 88.8 491 97.4 491 97.8c0 .4-.2.7-.5.9zM479 85l9.4 9.8c-1.3-3.4-4.2-9.2-11.3-16.4-.6-.6-1.2-1.1-1.9-1.6l-1.9-1.4c-.2-.1-.3-.3-.3-.4-.1-.3 0-.6.2-.8.3-.3.8-.4 1.2-.1l1.9 1.4c.2-.4.4-.9.6-1.3l-4.2-1.8c-.2-.1-.4-.3-.5-.5-.1-.2-.1-.4 0-.6.2-.4.7-.6 1.1-.4l4.3 1.9c.3-.5.6-1 .8-1.4l-2.5-.3c-.4 0-.6-.3-.7-.6v-.4c.1-.5.5-.8 1-.7l2.7.3c.8.1 1.6.1 2.3.1 2.7-.1 9.3-.5 15.9-2.3-11.8.3-21.3.2-29.6-5-.2.3-.5.7-.8 1.1-.5.7-1 1.5-1.6 2.2-4.4 5.7-12.7 6.7-18.4 2.3-.4-.3-.4-.8-.2-1.2.3-.4.8-.4 1.2-.2 5 3.8 12.1 2.9 16-2 .6-.7 1.1-1.5 1.6-2.2 2.1-3 4-5.7 9.2-6.1 6.6-.5 13.7-1.2 22.5-3.6-5.1-1.3-9.8-3.1-14-5.1-2.3 1.2-5.7 2.1-9.9.4-1.4-.6-3-.7-4.4-.3-1.6.5-3.2 1.7-8.6 7.9-3.3 3.8-7.3 4.9-11.8 3.3-1.4.1-2.9 0-4.4-.4h-.1c-2.8-.8-4.6-3.4-4.5-6.2 0-.4.1-.6.1-.6 0-.2.2-.4.4-.6l1.1-.7c1.3-.8 2-2.2 2-3.8 0-1.4-.7-2.7-1.9-3.5-.1-.1-.2-.2-.4-.2-.6-.3-1.3-.4-2-.2h-.2c-1.3.4-2.1 1.8-1.7 3.2.3.9 1.2 1.4 2.1 1.3.5-.1.9-.5 1.1-1 .2-.7-.1-1.1-.4-1.2-.4-.2-.6-.7-.4-1.2.2-.5.8-.6 1.3-.3.2.1.3.2.4.3.8.7 1.2 1.8.8 2.9-.3 1.2-1.3 2-2.4 2.2-1.8.3-3.5-.8-4-2.5-.7-2.1.5-4.4 2.5-5.2l-1.1-.7c-2.2 1.1-3.7 3.3-4 5.8-.2 2 .4 5.2 2.1 10.1 2.3 6.8 8.3 12.3 16 14.8l.5.2c2.4.8 5 1.5 8.3 2.3 7.4 1.7 14.2 5.6 19.5 11.2zm-26.7-27.1c2.4 0 4.7-1.1 6.6-3.4 5.7-6.6 7.4-7.9 9.4-8.5 1.8-.5 3.8-.4 5.6.4 2.9 1.2 5.4.9 7.2.2-2.2-1.1-4.1-2.2-5.8-3.2-2.4-1.4-5.1-1.8-7.8-1.1s-4.9 2.4-6.3 4.7l-3.6 6c-1.2 2.3-3.1 4-5.3 4.9zm-7.7-1.1c3.3 1 6.7.2 9.2-1.8-2.2-1.2-4.2-3-5.4-4.1a8.2 8.2 0 01-2.4 3.2c-.4.3-.9.3-1.2-.1-.3-.4-.3-.9.1-1.2 2.4-2.1 3.2-5.4 2.1-8.3-1.3-3.3-4.7-5.2-8.1-4.7l2.9 1.6c1.9 1.1 3 3 3.1 5.2 0 2.1-1.1 4-2.9 5.2l-.7.5v.1c-.2 2 1.2 3.8 3.3 4.4zm10.5-3.1c.4-.5.7-.9 1-1.5l2-3.5c-6.6-4.4-4.2-12.5-3.1-16 .1-.3.2-.6.2-.9.3-.9.5-1.8.8-2.8 1.5-5.4 3.2-11.4 3.6-19.2-4.6 7.7-10.7 14-15.2 18.1-2.8 2.5-3.9 6.4-3.1 10 3.1.5 5.9 2.7 7.1 5.8.7 1.7.8 3.5.4 5.2 1.1 1 3.7 3.6 6.3 4.8zm-22.3-12.3c.5-.7 1.2-1.3 1.9-1.8l-2.6-1.1c.3.9.5 1.9.7 2.9z" fill="#8c6239"/></g><path d="M298.9 207.2c4.6 2.2 8.9 5.8 11.2 5.3 1.4-20.4 14.8-47.1 17.9-50.3 3.1-3.2-.8 32.4.5 34.8 14.1-16.2 23.9-17.1 25-14.7 1.1 2.4-18.3 31.4-17.5 35.1 10.7 2 22.3 7.7 27.7 10.2 5.5 2.5 4.8 3.7 3.3 3.7s-5.6-.3-5.6-.3 13.1 8.4 8.6 8.1c-4.5-.3-12.7-3.7-12.7-3.7s19 14.3 13.9 13c-5.1-1.4-12.8-6.6-12.8-6.6s15.8 12.4 10.7 10.8c-5.2-1.7-23.3-15.6-25.1-18.3-18 4.9-29.5 2-35.8-6.4-4-5.3-16.3-2.5-20.5-13.7-2.2-.7-20.4-2.9-20.4-2.9l19.7-.9c-.1-.1 3.6-7.1 11.9-3.2z" fill="#ed1e79" id="bird10"/></svg>