<svg xmlns="http://www.w3.org/2000/svg" viewBox="0 0 209 453"><path d="M141.4 448.1v-.3c-3.1 0-6.3-.5-8.9-2.4l-41.1-30.1-41.1 30.1c-2.6 1.9-5.7 2.4-8.9 2.4L16 448c-6.4-.1-12-3.6-12-9.1V22.1C4 12 15.2 3.8 29 3.8h150c13.8 0 25 8.2 25 18.3h-25v416.8c0 5.5-5.5 8.5-11.9 8.6l-25.6.3" fill="#fff" stroke="#12172a" stroke-width="2" stroke-miterlimit="10"/><path d="M132 445l-53.6-39.2L24.7 445c-7.9 5.8-21.4 1.7-21.4-6.5V22.1c0-10.1 11.2-18.3 25-18.3h150c-13.8 0-25 8.2-25 18.3v416.5c.1 8.1-13.4 12.2-21.3 6.4z" fill="#12172a" stroke="#fff" stroke-width="2" stroke-miterlimit="10"/><path d="M142.4 353c-14.2-3.5-17.4-22.5-31.9-27.5-7.9-2.7-16.5-2.1-23.7 1.7-4.4-11.9-8.1-24-11-36.1 7.7 8.1 16.7 15.4 28.5 15.5 12.1.1 22.4-7.7 34.4-8.6 4.2-.3 3.1-6-.3-6.7-9.3-1.9-17.9-20-28.6-21.1 4.3-9.8 5.1-21.3 6.1-31.9.3-2.9-3.7-4.3-5.3-1.9-9.5 13.7-41.4 21.4-37.3 42.3-3.6-18.9-5.4-37.9-5.2-57.1 8.7 5.8 20.2 4.6 29.1-1.6 14-9.9 16.3-28.7 17.9-44.4.3-2.6-2.9-4-4.8-2.5-10.1 8-23.6 9.3-33.2 18.3-3.4 3.2-6.1 6.8-8.2 10.7 1.4-17.2 4.2-34.4 8.7-51.7h.2c3.8 9.9 16.4 14.1 26.6 10.6 16.4-5.6 22.7-23.7 27.3-38.7.7-2.5-2.5-5.5-4.6-3.2-9.2 10.1-33 6.7-44.6 14.8.7-2.3 1.6-4.6 2.4-6.9 1.4 0 2.8-1.1 2-2.8l-.6-1.2c.4-1.2.8-2.4 1.2-3.5h.2c.4-.1.7-.2 1.1-.3.9 1 2.6.8 3.1-.5.1-.2.1-.3.1-.5 23.2-8.3 30.4-35.1 17-55.8-.7-1.1-2.5-1.3-3.6-.8-10 4.7-21.1 14.7-26 25.8-4-7.2-11-12.7-18-16.8-2.8-1.7-5.8.4-5.6 3.6 1 14.1-3.9 29.8 3.5 42.8 4 7 11.5 12.8 19.6 12-3.3 8.3-6.2 16.8-8.6 25.4-4.4-12.8-16.2-24.2-27.5-28.6-2.3-.9-5.4 1.4-4.6 3.9 2.7 8.8 1.4 18.6 2 28-6.3 2.9-13 4.1-20.1 4.1-2.2 0-4 1.7-3.6 4 3.2 21.2 28.2 36.5 46.6 23.8-1.5 11-2.4 22.1-2.7 33.2-5-12.2-13.6-22.5-27-26.9-2.8-.9-5.5 1.4-5 4.3 2.3 14.6-1.5 28.4 8.3 41 6.2 7.9 15.1 12.6 24.8 13.3 1 10.6 2.5 21.1 4.7 31.4-10.8-14.3-26.3-23.3-44.6-25.9-2.6-.4-4.5 2.2-4.1 4.6 3.7 26.4 27.1 45 53 38.8 3 10.9 6.7 21.6 11.2 32-14.8-10-37.2 10.6-48.4 18.8-2.6 1.9-1.4 5.7 1.2 6.8 11.2 4.8 24.2 10 36.3 5.7 9-3.2 16.3-11.2 15.6-20.9 6.5 13.5 14.2 26.3 23.1 38.1 1.4 1.9 4.7-.2 3.5-2.2-7.6-13.1-14.3-26.4-20-39.8 13.9 12.7 31.6 26.2 50 16.2 1.5-1 1.9-4.5-.6-5.1zM63 80.1c5.4 3.8 9.5 8.5 14.3 13.2-1.6 7.4.1 15 7.3 21.6-.3.4-.4.9-.5 1.3-.3.6-.6 1.3-.8 1.9-1.4-2.1-2.9-4.3-4.1-6.5-2.4-4.3-4.5-8.7-6.5-13.2-.7-1.7-3.6-.8-3.1 1 2.2 8 5.5 17.7 11.1 24.3-.2.4-.4.9-.6 1.3-19.9-3.9-17-27.6-17.1-44.9zm31.8 22.6c1.4-4.8 3.6-9.1 4.4-14.1.1-.8-.8-1.1-1.4-.7-6.1 4-10.8 14.4-11 23.2C80.4 93 91.2 79 105.6 68.6c9.8 15.5 3 34.1-12.2 42.1.4-2.7.7-5.5 1.4-8zm17.9 30.7c3.9-.6 7.5-1.7 10.7-3.5-2.6 7.9-6.1 15.6-12.8 20.7-10.2 7.8-24 5.4-28.3-7.3-.1-.2-.1-.3-.2-.4 9 2.7 19.9 2.2 27.2-4.2 2.1-1.8 0-5-2.5-4-6.8 2.6-13.3 4.3-20.4 3.7 7.4-4.3 18.5-3.7 26.3-5zm-89 35c6.2-.7 11.6-2.8 16.7-6.3.7 4.6 2 8.9 4.9 12.9 1.3 1.8 3 3.4 4.9 4.6-.3-.1-.6-.2-.8-.3-4.3-1.7-8.3-4-12-6.8-2-1.5-4 1.6-2.2 3.1 5.3 4.6 12.4 9.1 19.7 10.5-13.8 2.8-27.2-2.6-31.2-17.7zm40.9 8.2c-1.2-2.8-3.3-5.5-4.4-8.3-1.9-4.7-2.8-9.5-2.9-14.5 0-1.4-2.1-1.6-2.2-.2-.4 5.1-.2 10.3 1.2 15.2.7 2.4 1.5 5.3 2.8 7.8-11.2-3-11.6-27.5-13.2-41.6 6.6 3.7 11.9 9.2 15.2 16.2 3.8 7.8 3.5 15 4.1 23.2-.1.7-.3 1.3-.4 2 0 .1-.1.1-.2.2zm27.2 13.6c5.8-2.9 11.5-4.9 16.7-8.2-1 9-2.6 18.1-7.6 25.6-5.7 8.6-17.3 13.6-26.6 9.4 8.7-3.2 17.7-9.1 21.8-17 1-1.9-1-4.1-2.9-2.7-3.8 3-7 6.8-11 9.7-3.7 2.7-7.7 4.9-11.8 6.9 4-10.3 10.9-18.5 21.4-23.7zm-52.5 40.3c-3.4-7.7-2.6-16.4-3-24.8 13.8 7.1 19.1 21.7 24.1 36.1 0 .4 0 .9.1 1.3-2.3-2.4-5-4.5-7-7.3-3.5-4.9-5.7-10.3-6.8-16.2-.3-1.4-2.6-1.4-2.6.1.3 9.8 5.7 25.8 16.6 28.4v.1c-9.2-2.7-17.4-8.6-21.4-17.7zm61.8 52.2c2.1-1.9 3.8-4 5.3-6.2 9.7 1.8 14.3 10.4 21.2 16.4-4.6 1.2-9 2.9-13.8 4.3-10.9 3.3-19.5 0-27.6-5.4 3.6 0 7.3-.1 10.9-.2 4.2-.1 8.6.1 12.6-.9 2.4-.6 2.3-4-.2-4.3-4.2-.6-8.5.1-12.7.5-.6 0-1.2.1-1.8.1 2.1-1.1 4.2-2.6 6.1-4.3zm-75-13.9c14.3 3.1 26.5 10.9 35.4 22.4-6-3.4-12.1-6.4-17.7-10.6-1.9-1.4-3.8 1.5-2.1 3 6.1 5.5 13.3 11.5 21.2 14.3-17.3-1.7-31.7-11.9-36.8-29.1zM79 283.6c.2-.2.3-.5.4-.8 6-2.4 15.9-6.8 17.8-13.3.3-1.1-.7-2.1-1.8-1.7-3 1.3-5 4.3-7.4 6.4-2.7 2.4-5.7 4.4-8.9 6.2-3-13.6 12.5-20.3 21.8-26.1 3.1-1.9 5.8-3.9 8.2-6.2-2.5 18.1-10.3 38.7-30.1 35.5zm-17.2 76.9c-6.4.3-12.6-1.7-18.5-4.1 10-7.8 23.1-18.7 34.9-16-2.1 1.2-4 2.6-6 3.8-3.3 1.9-6.8 3.7-10.2 5.3-1.4.6-.7 3.1.8 2.6 3.8-1.1 7.5-2.4 11.1-4.2 1.9-.9 3.9-2 5.7-3.2-.8 9.2-8.7 15.4-17.8 15.8zm30.9-24.3c5.9.2 11.7 1.5 17.3 3.4 1.6.5 2.9-1.8 1.4-2.7-6.9-4.2-14.6-5.2-22.5-3.9-.1-.2-.1-.4-.2-.6 12.4-4.6 24.4-2 33 9.3 3.7 4.8 6.7 9.6 11.2 12.9-15.1 1.2-28-9.5-40.2-18.4z" fill="#fff" stroke="#12172a" stroke-miterlimit="10"/></svg>