<svg version="1.1" id="Слой_1" xmlns="http://www.w3.org/2000/svg" x="0" y="0" viewBox="0 0 1920 1280" xml:space="preserve"><style>.st0{fill:#6b90b0}.st1{fill:#3a587c}.st2{fill:#253856}.st3{fill:#17243f}.st4{fill:#617d9b}</style><path class="st0" d="M669.3 582.1c15.2.3 28.4-6.6 31.2-16.5 4 1.3 8.4 2 12.9 2.1 18.1.4 32.9-9.6 33.2-22.3 0-.3 0-.6-.1-.8 12.4-.8 21.9-8.5 22.1-17.9.2-8.9-8.1-16.7-19.6-18.6 0-.3.1-.7.1-1 .1-6.3-7.7-11.6-17.5-11.8-4.3-.1-8.4.8-11.6 2.5-6.5-7.5-17.4-12.1-29.3-12.4-7.2-.1-14.3 1.4-20.3 4.3-5.1-3.5-11.9-5.5-19-5.7-9.4-.2-18.2 2.9-23.5 8.3-3.1-.9-6.4-1.3-9.7-1.4-16.3-.3-29.7 8.8-30 20.4 0 1.5.2 3.1.6 4.6-10.7 2.5-17.6 8.3-17.8 14.8-.2 9.3 13.3 17.1 30.1 17.4h.2v.3c-.2 10 12 18.3 27.2 18.6 3.7.1 7.4-.3 10.8-1.2 3.3 9.3 15.7 16 30 16.3z"/><path class="st1" d="M557.7 431.6c-18.7 1.8-33.6 14.6-35.3 30.2-5.2-1.4-10.7-1.9-16.1-1.4-22.3 2.2-38.7 19.9-36.8 39.5.1.5.1.9.2 1.3-15 3.1-25.4 16.4-24 31 1.3 13.9 12.8 24.7 27.3 25.8 0 .5 0 1 .1 1.6.9 9.8 11.5 16.7 23.6 15.6 5.2-.5 10.1-2.5 13.8-5.6 9.3 10.6 23.5 16.1 38.1 14.7 8.9-.9 17.3-4.3 24.1-9.7 6.9 4.6 15.6 6.7 24.3 5.9 11.5-1.1 21.8-7.3 27.4-16.5 3.9.9 8.1 1.1 12.1.7 20.1-2 34.9-18.1 33.2-36.1-.3-2.4-.8-4.7-1.6-7 12.7-5.5 20.1-15.5 19.2-25.6-1.4-14.4-19.3-24.4-39.9-22.4h-.2v-.4c-1.5-15.5-17.9-26.5-36.6-24.7-4.6.4-9 1.6-13 3.5-5.9-13.6-22.3-22.1-39.9-20.4z"/><path class="st2" d="M487.7 444.5c-14.9-6.8-31.6-3.6-39.7 7.4-3.3-3.3-7.2-6.1-11.6-8-17.7-8-37.8-1.9-44.9 13.8-.1.4-.3.7-.4 1.1-12.7-4.2-26.3 1.3-31.5 13-5 11-1.1 24.2 9.4 31.3l-.6 1.2c-3.5 7.8 1.4 17.6 11 22 4.2 1.9 8.7 2.5 12.8 1.8 2.4 12 10.7 22.4 22.3 27.6 7.1 3.2 14.9 4.3 22.4 3.2 3.2 6.5 8.8 11.8 15.7 15 9.2 4.2 19.6 4 27.8-.5 2.6 2.4 5.6 4.3 8.8 5.8 15.9 7.2 34.2 1.5 40.7-12.8.8-1.9 1.5-3.9 1.8-6 11.9 1.3 21.9-3 25.6-10.9 5.2-11.4-3.9-26.8-20.3-34.2-.1 0-.1-.1-.2-.1 0-.1.1-.2.2-.3 5.6-12.3-2-27.7-16.8-34.5-3.6-1.7-7.5-2.7-11.3-3 1.5-13.1-7.2-26.5-21.2-32.9z"/><path class="st3" d="M287.3 567c18.8 7.6 39 4 47.8-8.5 4.3 3.7 9.4 6.8 14.9 9.1 22.4 9 46.3 2 53.4-15.7.1-.4.3-.8.4-1.2 15.9 4.7 31.9-1.6 37.2-14.8 5-12.5-1-27.3-14.5-35.4.2-.4.5-.9.7-1.4 3.5-8.8-3.4-19.9-15.5-24.8-5.3-2.1-10.9-2.8-15.8-2-4.1-13.6-15.2-25.2-29.9-31.2-8.9-3.6-18.6-4.8-27.6-3.5-4.5-7.3-11.9-13.4-20.7-16.9-11.6-4.7-24.3-4.5-33.9.6-3.4-2.7-7.3-4.9-11.3-6.5-20.2-8.1-41.8-1.6-48.4 14.6-.8 2.1-1.4 4.4-1.7 6.8-14.7-1.5-26.4 3.4-30.1 12.4-5.2 12.9 7.4 30.2 28.1 38.6.1 0 .2.1.3.1 0 .1-.1.2-.2.4-5.6 13.9 5.1 31.4 23.9 39 4.6 1.9 9.4 3 14.1 3.4-.7 14.5 11.1 29.7 28.8 36.9z"/><path class="st2" d="M98.7 581.2c25.6 4.9 50.5-6.9 59.1-28 6.3 4 13.4 6.9 20.9 8.3 30.4 5.9 59.4-12.2 64.8-40.4.1-.7.2-1.3.2-1.9 21.2 1.7 40.3-12.8 44.4-33.7 3.8-19.9-7-39.5-25.8-46.9.2-.7.4-1.5.5-2.2 2.7-14-8.5-27.9-24.9-31.1-7.1-1.4-14.4-.6-20.6 2.3-8-18.4-24.7-31.8-44.6-35.7-12.1-2.3-24.6-.9-35.9 3.9-7.3-9.2-17.9-15.6-29.8-17.9-15.8-3-31.9 1.4-43 12-4.9-2.8-10.3-4.8-15.8-5.8-27.4-5.3-53.6 11.3-58.6 37.1-.6 3.4-.9 6.9-.7 10.4-19 2.7-33 13.6-35.8 28-4 20.6 15.7 41.7 43.9 47.1.1 0 .2 0 .3.1 0 .2-.1.4-.2.6-4.3 22.2 13 44.1 38.5 49 6.2 1.2 12.6 1.3 18.7.3 2.2 21.6 20.4 39.9 44.4 44.5z"/><path class="st0" d="M473.6 365.7c-18 0-33.4 10.8-36.5 25.5-4.8-1.8-10-2.8-15.3-2.8-21.4 0-38.7 15.3-38.7 34.3 0 .4 0 .8.1 1.2-14.6 1.5-25.7 13.3-25.7 27.4 0 13.3 9.9 24.7 23.6 27.1 0 .5-.1 1-.1 1.5 0 9.4 9.4 17 21 17 5 0 9.9-1.4 13.7-4.1 7.9 10.9 20.9 17.5 35 17.5 8.5 0 16.9-2.5 23.9-7 6.2 5 14.2 7.9 22.6 7.9 11.1 0 21.5-4.9 27.6-13.1 3.7 1.2 7.6 1.8 11.5 1.8 19.3 0 35-14 35-31.4 0-2.3-.3-4.6-.9-6.8 12.6-4.1 20.6-12.9 20.7-22.6 0-13.8-16.1-25-36-25h-.2v-.4c0-14.9-14.6-26.9-32.6-26.9-4.4 0-8.7.7-12.7 2.2-4.3-13.8-19.1-23.3-36-23.3z"/><path class="st4" d="M379 275.8c-20.1 0-37.3 12-40.7 28.5-5.4-2.1-11.2-3.1-17-3.1-23.9 0-43.3 17.1-43.3 38.3 0 .5 0 .9.1 1.4-16.3 1.7-28.7 14.9-28.7 30.6 0 14.9 11.1 27.6 26.4 30.3 0 .5-.1 1.1-.1 1.7 0 10.5 10.5 19 23.5 19 5.6 0 11-1.6 15.3-4.6 8.8 12.2 23.4 19.6 39 19.6 9.5 0 18.8-2.8 26.7-7.9 6.9 5.6 15.9 8.8 25.3 8.8 12.4 0 24-5.5 30.9-14.7 4.1 1.3 8.5 2 12.8 2 21.6 0 39-15.7 39-35 0-2.5-.4-5.1-1-7.6 14.1-4.6 23-14.5 23.1-25.3 0-15.4-18-28-40.2-28h-.3v-.4c0-16.6-16.3-30.1-36.4-30.1-4.9 0-9.7.8-14.2 2.4-4.7-15.1-21.2-25.9-40.2-25.9z"/><path class="st1" d="M251.8 509.6c24.3 6.9 49.2-1.7 59-20.4 5.8 4.3 12.4 7.6 19.5 9.6 28.9 8.2 58.2-5.8 65.4-31.3.1-.6.3-1.1.4-1.7 20.3 3.6 39.8-8 45.2-27 5.1-18-3.9-37.2-21.5-45.7.2-.6.5-1.3.7-2 3.6-12.7-6.2-26.6-21.8-31-6.8-1.9-13.9-1.9-20 .2-6.4-17.8-21.5-31.7-40.4-37.1-11.5-3.3-23.7-3.1-34.9.3-6.4-9.2-16.1-16.1-27.5-19.3-15-4.3-30.9-1.6-42.3 7.1-4.5-3-9.5-5.3-14.8-6.8-26-7.4-52.5 5.5-59.2 28.8-.8 3.1-1.3 6.3-1.4 9.6-18.6.7-32.8 9.5-36.6 22.5-5.3 18.6 12.1 40 38.9 47.6.1 0 .2.1.3.1 0 .2-.2.4-.2.5-5.7 20.1 9.4 41.9 33.6 48.9 5.9 1.7 12 2.4 18 2 .5 20 16.8 38.6 39.6 45.1z"/><path class="st2" d="M231.5 243.8c-21.7 0-40.2 13-43.9 30.7-5.8-2.2-12.1-3.4-18.4-3.4-25.8 0-46.6 18.5-46.6 41.3 0 .5 0 1 .1 1.5-17.6 1.8-31 16-31 32.9 0 16.1 12 29.8 28.5 32.7 0 .6-.1 1.2-.1 1.8 0 11.3 11.3 20.5 25.3 20.5 6.1 0 11.9-1.7 16.4-4.9 9.5 13.2 25.2 21.1 42.1 21.1 10.3 0 20.3-3 28.8-8.5 7.4 6.1 17.1 9.5 27.2 9.5 13.4 0 25.9-5.9 33.3-15.8 4.4 1.4 9.1 2.2 13.8 2.2 23.2 0 42.1-16.9 42.1-37.8 0-2.7-.4-5.5-1.1-8.2 15.1-5 24.8-15.6 24.9-27.2 0-16.6-19.4-30.2-43.3-30.2h-.3v-.5c0-17.9-17.6-32.4-39.2-32.4-5.3 0-10.5.9-15.3 2.6-5.1-16.3-22.9-27.9-43.3-27.9z"/><path d="M58.8 199.4c-29.2 0-54.2 17.5-59.2 41.4-7.8-3-16.3-4.5-24.8-4.5-34.7 0-62.9 24.9-62.9 55.6.1.7.1 1.4.1 2-23.7 2.5-41.7 21.6-41.7 44.4 0 21.7 16.1 40.1 38.4 44-.1.8-.1 1.6-.1 2.5 0 15.2 15.3 27.6 34.1 27.6 8.2 0 16-2.3 22.2-6.6 12.8 17.8 34 28.5 56.7 28.5 13.9 0 27.4-4 38.8-11.4 10 8.2 23.1 12.8 36.7 12.8 18 0 34.9-8 44.9-21.3 6 1.9 12.3 2.9 18.6 2.9 31.3 0 56.7-22.8 56.7-50.9-.1-3.7-.5-7.5-1.4-11.1 20.4-6.7 33.5-21 33.5-36.7 0-22.4-26.2-40.6-58.4-40.6h-.4c0-.2.1-.5.1-.6 0-24.2-23.7-43.7-52.9-43.7-7.1 0-14.1 1.2-20.7 3.5-6.8-22.2-30.8-37.8-58.3-37.8z" fill="#171b33"/><path class="st3" d="M124.3 232c-26.9-7.5-54.5 2.1-65.2 22.9-6.4-4.8-13.8-8.4-21.7-10.6-32-9-64.4 6.7-72.3 35-.1.7-.3 1.3-.4 1.9-22.5-3.9-44.1 9.1-49.9 30.1-5.6 20 4.5 41.2 24 50.5-.3.7-.5 1.5-.8 2.2-3.9 14 7 29.4 24.3 34.3 7.5 2.1 15.4 2 22.1-.4 7.2 19.7 24 35 44.9 40.9 12.8 3.6 26.3 3.4 38.7-.5 7.1 10.1 18 17.7 30.5 21.2 16.6 4.7 34.2 1.7 46.9-8.1 5 3.3 10.6 5.9 16.4 7.5 28.9 8.1 58.2-6.3 65.4-32.3.9-3.4 1.4-7 1.5-10.6 20.5-.9 36.3-10.7 40.4-25.2 5.8-20.7-13.6-44.2-43.3-52.5-.1 0-.2-.1-.4-.1.1-.2.2-.4.2-.6 6.2-22.3-10.6-46.4-37.5-53.9-6.6-1.8-13.3-2.6-20-2.1-.3-22-18.4-42.5-43.8-49.6z"/><path class="st1" d="M80.6 309.4c-14.7-7.5-31.7-5-40.3 5.7-3.2-3.5-7-6.4-11.3-8.6-17.5-8.9-38-3.5-45.8 11.9-.1.4-.3.7-.4 1-12.6-4.8-26.5.2-32.3 11.7-5.5 10.9-2.1 24.3 8.1 31.9-.2.4-.5.8-.7 1.2-3.9 7.7.7 17.8 10.1 22.6 4.1 2.1 8.7 2.9 12.8 2.3 1.9 12.2 9.8 23 21.3 28.8 7 3.5 14.8 5 22.4 4.1 2.9 6.7 8.4 12.3 15.2 15.8 9.1 4.6 19.6 4.9 28 .7 2.5 2.5 5.5 4.6 8.6 6.2 15.8 8 34.3 3 41.5-11.1.9-1.9 1.6-3.9 2.1-5.9 12 1.8 22.2-2 26.2-9.9 5.7-11.3-2.8-27.1-19-35.4-.1 0-.1-.1-.2-.1 0-.1.1-.2.2-.3 6.2-12.2-.8-28-15.5-35.5-3.6-1.8-7.4-3-11.3-3.5 2.2-12.7-5.9-26.6-19.7-33.6z"/><path class="st4" d="M565.8 467.3c-16 0-29.6 6-32.3 14.3-4.2-1-8.9-1.6-13.5-1.6-19 0-34.3 8.6-34.3 19.1 0 .2 0 .5.1.7-13 .8-22.8 7.4-22.8 15.3 0 7.5 8.8 13.8 20.9 15.1 0 .3-.1.6-.1.8 0 5.2 8.4 9.5 18.6 9.5 4.5 0 8.7-.8 12.1-2.3 7 6.1 18.5 9.8 31 9.8 7.6 0 14.9-1.4 21.2-3.9 5.4 2.8 12.6 4.4 20 4.4 9.8 0 19-2.7 24.5-7.3 3.3.7 6.7 1 10.2 1 17.1 0 31-7.8 31-17.5 0-1.3-.3-2.6-.8-3.8 11.1-2.3 18.3-7.2 18.3-12.6 0-7.7-14.3-14-31.9-14h-.2v-.2c0-8.3-13-15-28.9-15-3.9 0-7.7.4-11.3 1.2-3.7-7.6-16.8-13-31.8-13z"/></svg>