<svg version="1.1" id="Слой_1" xmlns="http://www.w3.org/2000/svg" x="0" y="0" viewBox="0 0 1920 1280" xml:space="preserve"><style>.st0{display:none}.st3{display:inline}.st4{fill:#e2f3fa}.st12{fill:#171b33}.st13{fill:#253856}.st14{fill:#17243f}.st15{fill:#527394}.st16{fill:#617d9b}.st17{fill:#6b90b0}.st18{fill:#2f4a6f}.st19{fill:#3b6188}.st20{fill:#3a587c}.st21{fill:#f8faf9}.st22{fill:#a4b5c7}.st23{fill:#1b2f4e}.st24,.st25{display:inline;fill:#6b90b0}.st25{fill:#3a587c}.st26{fill:#253856}.st26,.st27,.st28{display:inline}.st27{fill:#17243f}.st28{fill:#617d9b}</style><g id="fon" class="st0"><linearGradient id="SVGID_1_" gradientUnits="userSpaceOnUse" x1="960.7" y1="0" x2="960.7" y2="1279" gradientTransform="matrix(1 0 0 -1 0 1280)"><stop offset="0" stop-color="#407fae"/><stop offset="1" stop-color="#090e1b"/></linearGradient><path fill="url(#SVGID_1_)" stroke="#000" stroke-miterlimit="10" d="M1.4 1H1920v1279H1.4z"/></g><g id="stars" class="st0"><path d="M2278.4 442l-90.2-9-10.6 90.1-19.3-88.6-88.9 17.8 78.2-45.8-44.3-79.1 67.7 60.4 61.5-66.7-36.5 83.1zm-26.5-198.8l-81.4-87.4-88.8 80 57.9-104.5-103.5-59.7 117.3 22.8 24.9-116.9 14.5 118.6 118.8-12.5-108.3 50.5zM2197 824.1l-74.1-29-77 20 4.8-79.4-42.9-67 77-20 50.5-61.5 42.9 67 74 29.1-50.5 61.4zm-33.8 354.4l-50.2-61.7-76.9-20.4 43.2-66.8-4.3-79.4 76.9 20.4 74.2-28.7 4.3 79.5 50.2 61.7-74.2 28.6zm-2309.3-915l-94.8-59-81.9 75.9L-296 172l-97.5-54.4 111.4-8L-260.5 0l42 103.5 110.9-13.3-85.4 72zm-104.6 443.8l-31.8-107.1-111.7 2.5 92-63.3-37-105.5 88.8 67.9 88.8-67.7-37.1 105.4 91.8 63.5-111.7-2.7z" fill="#e2f3fa"/><g class="st3"><path class="st4" d="M127.7 113.2l-4-2.6-3.6 3.3 1.2-4.7-4.2-2.3 4.8-.3.9-4.7 1.8 4.4 4.8-.6-3.7 3.1zm231.2 93.7l-1.6-5.1-5.3.1 4.4-3-1.8-5 4.3 3.2 4.2-3.2-1.8 5 4.4 3-5.3-.1zm-169.5-3.6l-1.9-.6-2.1.6.2-2-1-1.6 2.1-.6 1.4-1.6 1 1.6 2 .6-1.5 1.6zm83.8-57.7l-4.6-.5-.5 4.6-1-4.5-4.5.9 4-2.3-2.3-4.1 3.5 3.1 3.1-3.4-1.9 4.2zm-39.3-43.7l-1-1.3-1.6-.5.9-1.3-.1-1.7 1.6.4 1.5-.6.1 1.7 1 1.3-1.5.6zM105.2 263.2l-2.8-3-3 2.7 2-3.5-3.5-2 3.9.8.9-4 .5 4 4-.4-3.7 1.7z"/></g><g class="st3"><path class="st4" d="M502.4 613.6l3.2 3.5 4.3-2.1-2.4 4.1 3.4 3.4-4.7-1-2.2 4.3-.5-4.8-4.7-.7 4.4-2zM306.2 459.7v5.3l5.2 1.3-5.1 1.7.3 5.3-3.1-4.2-5 1.9 3.1-4.3-3.4-4.2 5.1 1.6zm161.9 50.2l1.6 1.1h2.2l-.8 1.9.6 1.8h-2.2l-1.8 1.2-.6-1.8-1.7-1.2 1.9-1.1zm-96.6 32.4l4.3 1.7 1.8-4.3-.3 4.6 4.6.4-4.5 1.1 1.1 4.5-2.5-3.9-3.9 2.4 2.9-3.5zm25.8 52.8l.6 1.5 1.4.9-1.2 1.1-.4 1.6-1.4-.8-1.7.1.4-1.6-.6-1.5 1.6-.2zm168.2-119.5l1.9 3.6 3.6-1.7-2.9 2.8 2.8 2.9-3.6-1.8-1.8 3.5.6-3.9-4-.7 4-.7z"/></g><g class="st3"><path class="st4" d="M598.8 223.8l-3.6 3.1 2 4.4-4.1-2.5-3.4 3.3 1-4.7-4.2-2.3 4.8-.4.9-4.7 1.8 4.4zM757 31l-5.3-.1-1.5 5.1-1.5-5-5.3.2 4.3-3.1-1.8-5 4.2 3.2 4.2-3.3-1.7 5zm-53.8 160.7l-1.2 1.7v2.2l-1.8-.9-1.9.5.1-2.1-1.2-1.9 1.9-.5 1.1-1.6 1.2 1.8zM673 94.5l-1.8 4.3 4.2 1.8-4.6-.4-.5 4.6-1-4.5-4.5 1 3.9-2.4-2.3-4 3.5 3zm-53.4 24.6l-1.6.6-.8 1.4-1.1-1.3-1.6-.4.9-1.4-.1-1.6 1.6.4 1.5-.7.1 1.7zM735.3 290l-3.6 1.7 1.6 3.7-2.7-2.9-3 2.7 1.9-3.6-3.5-1.9 4 .7.8-4 .5 4z"/></g><g class="st3"><path class="st4" d="M1060.1 489.1l-1-4.7-4.8-.2 4.1-2.4-1.3-4.7 3.6 3.2 4-2.6-1.9 4.4 3.8 3-4.8-.5zm95.4 230.4l2.6-4.6-3.8-3.7 5.2 1 2.4-4.8.6 5.3 5.3.7-4.8 2.3.9 5.2-3.7-3.8zm-116.3-123.2l-.9-1.8-1.9-1.1 1.6-1.2.4-1.9 1.9 1.1 2.2-.1-.5 1.8.9 1.8-2.1.2zm100 19.2l-2.9-3.6-3.7 2.8 2.5-3.8-3.8-2.6 4.5 1.2 1.2-4.4.3 4.6 4.6-.2-4.3 1.7zm3.5-58.7l.2-1.6-.8-1.5 1.6-.3 1.1-1.2.8 1.4 1.5.7-1.1 1.2-.2 1.7-1.5-.7zm-205.3 21.5l.2-4-4-.3 3.9-1.1-1.1-3.9 2.3 3.4 3.4-2.2-2.5 3.2 3.1 2.5-3.8-1.4z"/></g><g class="st3"><path class="st4" d="M1083.8 150.5l-4-2.6-3.5 3.3 1.1-4.7-4.2-2.3 4.8-.4.9-4.7 1.8 4.5 4.8-.6-3.7 3.1zm231.2 93.7l-1.5-5.1-5.4.1 4.4-3-1.7-5 4.2 3.2 4.2-3.2-1.8 5 4.4 3-5.3-.1zm-169.5-3.6l-1.9-.6-2.1.6.2-2-1-1.6 2.1-.6 1.4-1.7 1.1 1.7 1.9.6-1.5 1.6zm83.9-57.7l-4.6-.5-.6 4.6-1-4.5-4.5.9 4-2.4-2.3-4 3.5 3.1 3.1-3.4-1.8 4.2zm-39.4-43.8l-1-1.2-1.6-.5.9-1.4-.1-1.6 1.6.4 1.5-.6.1 1.7 1.1 1.3-1.6.6zm-128.7 161.4l-2.8-3-3 2.7 2-3.5-3.5-2 4 .7.8-3.9.5 4 4-.4-3.7 1.7z"/></g><g class="st3"><path class="st4" d="M1533.3 398.6l-2.8-3.9-4.5 1.7 2.9-3.9-3-3.7 4.5 1.5 2.7-4v4.8l4.6 1.3-4.6 1.4zm177.7 175l.6-5.3-5-1.9 5.2-1.1.3-5.3 2.7 4.6 5.1-1.4-3.5 4 2.8 4.4-4.8-2.1zm-155.2-68.1l-1.5-1.3-2.2-.2 1-1.8-.3-1.9 2.1.3 2-1 .3 1.9 1.6 1.3-2 .9zm99.6-21.3l-4.1-2.2-2.3 4.1.9-4.6-4.6-.9 4.6-.6-.5-4.6 2 4.2 4.2-2-3.4 3.2zm-19.7-55.4l-.4-1.6-1.4-1 1.4-1 .6-1.5 1.3 1h1.6l-.5 1.6.5 1.6-1.7-.1zm-180.6 99.8l-1.4-3.8-3.8 1.4 3.1-2.5-2.4-3.2 3.3 2.2 2.3-3.3-1.1 3.9 3.9 1.1-4 .2z"/></g><g class="st3"><path class="st4" d="M36.3 775.2l-4.1-2.5-3.5 3.3 1.1-4.7-4.1-2.3 4.7-.4 1-4.7 1.8 4.5 4.7-.6-3.6 3.1zM267.4 869l-1.5-5.1-5.3.1 4.4-3-1.8-5 4.2 3.2 4.2-3.2-1.7 5 4.3 3-5.3-.1zm-169.5-3.6l-1.9-.6-2.1.6.3-2-1-1.6 2-.7 1.5-1.6 1 1.6 1.9.6-1.4 1.7zm83.9-57.8l-4.6-.4-.6 4.6-.9-4.5-4.6.9 4-2.4-2.2-4 3.4 3.1 3.1-3.4-1.8 4.2zm-39.4-43.7l-1-1.3-1.6-.4.9-1.4-.1-1.6 1.6.4 1.6-.6v1.7l1.1 1.2-1.6.6zM13.7 925.2l-2.7-2.9-3 2.7 1.9-3.5-3.5-2 4 .7.8-3.9.5 4 4-.4-3.6 1.7z"/></g><g class="st3"><path class="st4" d="M777.6 923.5l2.5 4.1 4.6-1.4-3 3.7 2.7 3.9-4.4-1.8-2.9 3.9.3-4.8-4.6-1.6 4.7-1.2zM610 738.8l-.9 5.3 4.9 2.2-5.3.8-.6 5.3-2.4-4.8-5.2 1.1 3.8-3.7-2.6-4.7 4.7 2.5zm151.1 76.8l1.5 1.4 2.1.3-1.1 1.7.3 1.9-2.2-.3-2 .8-.2-1.9-1.5-1.4 2-.8zm-100.6 15.6l4 2.4 2.4-3.9-1 4.5 4.4 1.2-4.6.3.3 4.7-1.7-4.3-4.3 1.7 3.5-3zm16.5 56.5l.4 1.6 1.2 1.1-1.4.8-.6 1.6-1.3-1.1-1.6-.2.6-1.5-.4-1.6 1.7.1zm186-89.5l1.2 3.8 3.8-1.1-3.2 2.3 2.2 3.4-3.2-2.5-2.5 3.2 1.3-3.8-3.8-1.3h4.1z"/></g><g class="st3"><path class="st4" d="M1319.4 860.9l-.5-4.8-4.7-.7 4.4-2-.7-4.7 3.2 3.6 4.3-2.2-2.4 4.2 3.3 3.4-4.7-1zm66.8 240.3l3.1-4.3-3.3-4.1 5.1 1.6 2.9-4.5v5.4l5.1 1.3-5 1.7.2 5.3-3.1-4.3zm-100.6-136.4l-.7-1.9-1.7-1.3 1.7-1 .7-1.8 1.7 1.2 2.2.2-.7 1.8.7 1.9-2.1-.2zm96.9 31.2l-2.4-4-4 2.4 3-3.5-3.5-3.1 4.3 1.8 1.8-4.3-.3 4.6 4.6.4-4.5 1.2zm10.7-57.9l.3-1.6-.6-1.5 1.7-.2 1.2-1 .7 1.5 1.4.8-1.3 1.1-.4 1.6-1.4-.8zm-206.4-3.5l.7-4-4-.7 4-.6-.5-4 1.8 3.6 3.6-1.8-2.9 2.9 2.8 2.9-3.6-1.9z"/></g><g class="st3"><path class="st4" d="M829.2 1088.4l-4.1-2.5-3.5 3.3 1.1-4.7-4.2-2.3 4.8-.4 1-4.7 1.8 4.5 4.7-.6-3.7 3.1zm231.1 93.7l-1.5-5.1-5.3.2 4.3-3-1.7-5.1 4.2 3.3 4.2-3.2-1.7 5 4.3 3-5.3-.1zm-169.5-3.5l-1.9-.7-2.1.7.3-2-1.1-1.6 2.1-.7 1.5-1.6 1 1.6 1.9.6-1.4 1.7zm83.9-57.8l-4.6-.4-.6 4.5-1-4.5-4.5.9 4-2.3-2.3-4 3.5 3.1 3.1-3.4-1.8 4.2zm-39.4-43.7l-1-1.3-1.6-.4.9-1.4-.1-1.6 1.6.4 1.5-.6.1 1.6 1.1 1.3-1.6.6zm-128.7 161.3l-2.8-2.9-2.9 2.7 1.9-3.6-3.5-2 4 .8.8-3.9.5 4 4-.5-3.6 1.7z"/></g><g class="st3"><path class="st4" d="M1677.6 816.6l-4.7 1-.3 4.8-2.4-4.2-4.6 1.2 3.2-3.5-2.6-4.1 4.4 2 3.1-3.7-.6 4.8zm232.2-91.1l-4.6-2.6-3.8 3.7 1.1-5.2-4.7-2.4 5.2-.5.9-5.3 2.2 4.9 5.2-.9-3.9 3.6zm-125.5 114.1l-1.8.9-1 1.9-1.2-1.7-1.9-.4 1.1-1.9-.1-2.2 1.9.5 1.8-.9.1 2.2zm21.1-99.6l-3.6 2.8 2.8 3.7-3.9-2.6-2.6 3.8 1.3-4.4-4.4-1.4 4.6-.1-.1-4.7 1.6 4.4zm-58.6-4.6l-1.6-.3-1.5.8-.3-1.6-1.2-1.1 1.5-.8.7-1.5 1.2 1.1 1.6.2-.7 1.5zm17.7 205.6l-4.1-.3-.3 4.1-1-3.9-3.9.9 3.4-2.2-2.1-3.4 3.1 2.6 2.6-3.1-1.5 3.7z"/></g><g class="st3"><path class="st4" d="M1810.8 36l-.5-4.8-4.7-.8 4.4-1.9-.7-4.8 3.2 3.6 4.3-2.1-2.5 4.1 3.4 3.4-4.7-1zm66.8 240.3l3.1-4.4-3.3-4.1 5 1.6 2.9-4.4.1 5.3 5.1 1.4-5.1 1.6.3 5.3-3.1-4.2zM1777 139.8l-.7-1.9-1.7-1.2 1.7-1.1.7-1.8 1.7 1.3 2.2.1-.7 1.8.7 1.9-2.1-.1zm96.9 31.2l-2.4-3.9-4 2.4 3-3.6-3.5-3 4.3 1.7 1.8-4.2-.3 4.6 4.6.4-4.5 1.1zm10.7-57.8l.3-1.6-.6-1.6 1.6-.1 1.3-1.1.6 1.5 1.5.9-1.3 1.1-.4 1.6-1.4-.9zm-206.4-3.6l.7-3.9-4-.8 4-.6-.6-4 1.8 3.6 3.7-1.7-2.9 2.8 2.8 2.9-3.6-1.8z"/></g><g class="st3"><path class="st4" d="M1740.7 1247.6l4.1 2.4 3.4-3.3-1 4.7 4.2 2.3-4.8.4-.9 4.7-1.8-4.4-4.8.6 3.6-3.1zm-232.4-90.5l1.5 5 5.4-.2-4.4 3.1 1.9 5-4.3-3.2-4.2 3.3 1.7-5-4.4-3 5.3.1zm169.5 1.2l1.9.6 2.1-.7-.2 2 1 1.6-2.1.7-1.4 1.6-1-1.6-2-.6 1.5-1.6zm-83.1 58.9l4.6.4.5-4.6 1.1 4.5 4.5-1-4 2.4 2.3 4-3.5-3-3 3.4 1.8-4.2zm40 43.2l1 1.2 1.6.4-.8 1.4.1 1.7-1.6-.4-1.6.6-.1-1.7-1.1-1.2 1.6-.6zm126.5-163.1l2.7 2.9 3-2.8-1.9 3.6 3.5 2-3.9-.8-.8 4-.6-4-4 .5 3.6-1.8z"/></g><g class="st3"><path class="st4" d="M402.3 1223.4l4.1 2.4 3.5-3.3-1.1 4.7 4.2 2.3-4.7.4-.9 4.7-1.9-4.4-4.7.6 3.6-3.1zm-232.4-90.6l1.6 5.1 5.3-.2-4.3 3.1 1.8 5-4.3-3.2-4.1 3.3 1.7-5-4.4-3 5.3.1zm169.5 1.3l2 .6 2-.7-.2 2 1.1 1.6-2.1.7-1.4 1.6-1.1-1.6-1.9-.6 1.4-1.6zm-83 58.9l4.6.4.5-4.6 1 4.5 4.5-1-3.9 2.4 2.3 4-3.5-3-3.1 3.4 1.8-4.3zm39.9 43.1l1.1 1.3 1.6.4-.9 1.4.1 1.7-1.6-.4-1.5.6-.1-1.7-1.1-1.2 1.5-.7zm126.5-163l2.8 2.9 3-2.8-1.9 3.6 3.5 1.9-4-.7-.8 4-.5-4-4 .5 3.6-1.8z"/></g></g><g id="moon" class="st0"><g class="st3"><path d="M1501.2 243.7c87 0 157.5 70.5 157.5 157.5s-70.5 157.5-157.5 157.5-157.5-70.5-157.5-157.5 70.5-157.5 157.5-157.5z" fill="#cfcfd1"/><linearGradient id="SVGID_00000148641960019949899390000006989602085466086281_" gradientUnits="userSpaceOnUse" x1="1402.663" y1="893.47" x2="1629" y2="893.47" gradientTransform="matrix(1 0 0 -1 0 1280)"><stop offset="0" stop-color="#c0c7d0"/><stop offset="1" stop-color="#090e1b"/></linearGradient><path d="M1474.5 374.3c-9.2 6.4-21.1 9.1-32.8 5.9-21.1-5.6-33.6-27.2-27.9-48.2 1.2-4.5 3.3-8.5 5.8-12.1-7.4 5.1-13.1 12.6-15.6 21.9-5.6 21 6.9 42.6 27.9 48.2 16.6 4.5 33.4-2.4 42.6-15.7zm125.1-12.5c-27.2 0-49.2-22-49.2-49.2 0-11.1 3.8-21.2 10-29.4-12 9-19.8 23.2-19.8 39.3 0 27.2 22 49.2 49.2 49.2 16.1 0 30.3-7.8 39.2-19.8-8.2 6.1-18.3 9.9-29.4 9.9zm-142.9 117.5c-10.5-2.8-16.7-13.6-13.9-24.1l1.1-2.9c-5.2 2.3-9.4 6.8-10.9 12.8-2.8 10.5 3.4 21.3 13.9 24.1 9.5 2.5 19.1-2.3 23-11-4 1.8-8.6 2.4-13.2 1.1zm95.9-10.3c-15.8-4.2-25.1-20.4-20.9-36.2.8-2.9 2-5.4 3.5-7.8-6.3 3.8-11.3 9.9-13.3 17.6-4.2 15.8 5.1 32 20.9 36.2 12.9 3.5 26-2.3 32.6-13.1-6.6 4.1-14.8 5.5-22.8 3.3z" fill="url(#SVGID_00000148641960019949899390000006989602085466086281_)"/><path d="M1520.9 539c-87 0-157.5-70.5-157.5-157.5 0-38.5 13.8-73.7 36.8-101-34.5 28.9-56.4 72.2-56.4 120.7 0 87 70.5 157.5 157.5 157.5 48.5 0 91.8-21.9 120.7-56.4-27.4 22.9-62.6 36.7-101.1 36.7z" fill="#bac4cd"/><path d="M1638.8 324.6c-11.3-20.2-26.9-37.6-45.5-51.1l-3.5-.4c-27.2 0-49.2 22-49.2 49.2s22 49.2 49.2 49.2c26.4.2 47.8-20.7 49-46.9z" fill="#99a3ad"/><circle cx="1550.4" cy="450.3" r="29.5" fill="#dfdfdb"/><path d="M1452.3 314c-21.1-5.6-42.8 6.8-48.4 27.8s6.9 42.6 27.9 48.2c21.1 5.6 42.8-6.8 48.4-27.8 5.7-21-6.8-42.6-27.9-48.2z" fill="#afb4b8"/><circle cx="1452" cy="470.2" r="19.7" fill="#5c7592"/></g></g><g id="cloud1_00000127026955722071991260000001009510960741722787_"><path class="st12" d="M1961.7 858.3c21.5-30.7 21.4-69.8 0-92.6 8.8-6 16.7-13.7 23-22.7 25.5-36.5 20-84.3-12.2-106.9-.8-.5-1.5-.9-2.2-1.3 14.8-26.7 8-59.7-16-76.4-22.7-15.9-54-12.5-74.4 8-.8-.6-1.6-1.3-2.5-1.9-16-11.2-40.2-4.2-54 15.5-6 8.6-9.3 18.5-9.3 28.1-28 .4-54.8 14.8-71.5 38.6-10.2 14.6-15.9 31.7-16.5 49.1-15.9 4.5-30.4 14.8-40.4 29.1-13.2 18.9-17.2 42.5-10.6 62.8-6.4 4.8-12.1 10.8-16.7 17.4-23 32.9-17.8 76.3 11.8 96.9 3.9 2.6 8.2 4.9 12.7 6.6-8 26.3-2.5 50.5 13.9 62.1 23.5 16.5 61.9 2.4 85.6-31.5.1-.1.2-.3.3-.4.2.1.4.4.6.5 25.4 17.8 63.3 7.2 84.7-23.4 5.2-7.5 9.2-15.7 11.5-24.3 28.1 9.3 62-4.4 82.2-33.3z"/><path class="st13" d="M1817.5 696.8c-14.2 0-26.4 10.9-28.8 25.8-3.8-1.9-7.9-2.8-12-2.8-16.9 0-30.6 15.5-30.6 34.7 0 .4 0 .8.1 1.3-11.5 1.5-20.3 13.5-20.3 27.7 0 13.5 7.9 25 18.7 27.5 0 .5-.1 1-.1 1.5 0 9.5 7.4 17.2 16.6 17.2 4 0 7.8-1.5 10.8-4.1 6.2 11.1 16.5 17.8 27.6 17.8 6.8 0 13.3-2.5 18.9-7.1 4.9 5.1 11.2 8 17.9 8 8.8 0 17-5 21.8-13.3 2.9 1.2 6 1.8 9.1 1.8 15.2 0 27.6-14.2 27.6-31.7 0-2.3-.3-4.7-.7-6.9 9.9-4.2 16.3-13.1 16.3-22.9 0-14-12.7-25.4-28.4-25.4h-.2v-.4c0-15.1-11.5-27.3-25.7-27.3-3.5 0-6.9.7-10.1 2.2-3.4-13.9-15.1-23.6-28.5-23.6z"/><path class="st14" d="M1556.2 1044.8c29.6-12.8 47.3-41.5 41.9-67.9 9.2-.4 18.5-2.5 27.1-6.2 35.2-15.2 52.9-52.8 39.4-83.9-.4-.7-.7-1.4-1-2 23-12.9 32.9-40.2 22.9-63.3-9.5-22-33.9-33.6-58.2-27.8-.3-.8-.6-1.7-.9-2.6-6.7-15.4-27.6-21.3-46.7-13.1-8.3 3.6-15.2 9.4-19.6 16.4-20.7-12.4-46.9-14-70-4-14.1 6.1-26 16-34.3 28.5-13.7-3.9-29-2.9-42.8 3.1-18.3 7.9-31.9 23.3-36.2 41.3-6.9.6-13.8 2.4-20.1 5.2-31.8 13.7-47.6 47.9-35.3 76.4 1.7 3.7 3.8 7.3 6.3 10.6-17.8 15.7-24.7 35.9-17.9 51.9 9.8 22.7 44.3 29.8 77 15.7.1-.1.3-.1.4-.2.1.2.1.5.2.7 10.6 24.5 43.2 33.9 72.8 21.2 7.2-3.1 13.8-7.4 19.4-12.6 16.6 19.3 47.7 24.6 75.6 12.6z"/><path class="st15" d="M1749 793.2c-1.3-.6-3-12.4-17.6-16.4s-20.3 4-21.5 4.1-14.9-20-38.2-17.4c-23.3 2.6-41.1 21.9-39.3 41.8 1.7 18.2 9.7 27.8 9.4 28.7-.3.9-10.6 4.6-12.8 16.3-2.2 11.8 2.3 16.8 2.3 16.8l42.1-3.1 60-23.6s47.4-34.7 47-37.4-4.8-10.4-15.4-11.9c-9.1-1.3-13.8 3-16 2.1z"/><path class="st14" d="M1749.3 837.8s21.7-3.7 31.1-19.5c5.7-9.5-1.3-18.6-1.3-18.6s-3.5 8.2-14.7 14.4-24.6 10.9-24.6 10.9-1.1 6.9-12.5 14.4c-14.3 9.4-25.6 4.6-25.6 4.6s-2.3 6.8-17.1 13-27.4-.9-28.9-.6c-.8.2-3.4 5.5-12.1 7.4-8.3 1.8-13.7 0-13.7 0s2.2 8.8 12.1 10.9c7.7 1.6 18.5-2.1 18.5-2.1s4.1 5.6 13.2 7.3c8.5 1.6 20.7-1.6 28.4-7.6 9.6-7.5 10.4-13.6 10.4-13.6s10 1.6 22.1-5c11.2-6.2 14.7-15.9 14.7-15.9z"/><path class="st16" d="M1016.9 894.8c-30.6 10.2-50.7 37.3-47.6 64.1-9.2-.4-18.6.9-27.5 3.9-36.4 12.1-57.2 48-46.5 80.2.3.7.5 1.4.8 2.1-24 10.9-36.2 37.2-28.3 61.1 7.6 22.7 30.9 36.4 55.6 32.7.2.8.4 1.7.7 2.6 5.3 16 25.7 23.6 45.4 17 8.6-2.9 16-8 20.9-14.7 19.6 14.2 45.5 18 69.4 10 14.5-4.8 27.3-13.8 36.6-25.5 13.3 5.1 28.6 5.3 42.9.6 18.9-6.3 33.8-20.5 39.6-38 6.9 0 13.9-1.2 20.5-3.4 32.8-10.9 51.5-43.6 41.7-73.1-1.4-3.8-3.1-7.6-5.4-11.1 19.1-14.1 27.7-33.7 22.3-50.1-7.8-23.5-41.6-33.5-75.4-22.2-.1 0-.3.1-.4.1-.1-.2-.1-.5-.2-.7-8.4-25.3-40.1-37.5-70.7-27.3-7.5 2.5-14.4 6.2-20.4 10.9-14.6-20.8-45.2-28.8-74-19.2z"/><path class="st17" d="M799.6 1185.3c30 12 62.8 4.2 77.7-18.3 6.8 6.2 14.8 11.3 23.6 14.8 35.7 14.2 74.7.2 87.3-31.4.2-.8.5-1.4.7-2.1 25.4 7.2 51.7-5.1 61-28.5 8.9-22.2-.2-47.8-21.4-60.9.4-.8.8-1.6 1.1-2.5 6.2-15.6-4.4-34.6-23.7-42.3-8.4-3.3-17.4-4.2-25.5-2.3-5.8-23.4-23.2-43.1-46.6-52.4-14.2-5.7-29.7-7.1-44.4-4.1-6.9-12.5-18.5-22.5-32.4-28.1-18.5-7.4-39-6.1-54.7 3.5-5.3-4.4-11.4-8-17.9-10.6-32.1-12.8-67.5.2-79 29-1.4 3.8-2.5 7.9-3.1 12-23.7-1.5-42.9 7.9-49.4 23.9-9.2 23 10.3 52.4 43.3 65.6.1.1.3.1.4.2-.1.2-.3.4-.3.6-9.9 24.8 6.5 54.5 36.4 66.5 7.3 2.9 15 4.6 22.6 4.9-2.1 25.5 16.1 51.3 44.3 62.5z"/><path class="st13" d="M1270.3 897.1c30.9-9.4 62.9 1 75.9 24.7 7.3-5.7 15.7-10 24.7-12.8 36.7-11.2 74.5 6 84.4 38.5.2.8.4 1.5.5 2.2 25.9-5 51.1 9.3 58.4 33.5 7 22.9-4.1 47.6-26.4 58.9.3.8.7 1.7.9 2.6 4.9 16.1-7.3 34.1-27.1 40.2-8.6 2.6-17.7 2.7-25.6.2-7.8 22.9-26.7 41-50.8 48.3-14.7 4.5-30.2 4.6-44.6.4-7.9 11.8-20.3 20.9-34.6 25.3-19 5.8-39.4 2.8-54.3-8.1-5.7 4-12.1 7.1-18.7 9.1-33.1 10.1-67.3-5.8-76.3-35.5-1.1-3.9-1.9-8-2.1-12.2-23.7-.5-42.1-11.4-47.2-28-7.2-23.7 14.6-51.4 48.6-61.8.1 0 .3-.1.4-.1-.1-.2-.2-.5-.3-.7-7.8-25.5 11-53.8 41.8-63.2 7.5-2.3 15.3-3.3 23-3 .1-25.5 20.4-49.7 49.4-58.5z"/><path class="st18" d="M1674.9 934.3c-1 2.1 9.7 18.8-4.2 39.4-13.8 20.7-29.6 16.9-31.2 18.1-1.6 1.2 3 40.9-28.8 62.9-31.9 22-74.9 17.1-94.1-9.7-17.6-24.5-17.9-45.1-19.3-45.9-1.3-.9-18.1 5.7-33.6-6.6-15.4-12.3-15.4-23.5-15.4-23.5l55.8-41.6 100.3-35.5s96.6-8 99-4.1 5.2 18.1-6.3 31.5c-10 11.6-20.5 11.3-22.2 15z"/><path class="st19" d="M1627.1 878.3s31-18.8 59.8-9.3c17.4 5.7 18.4 24.6 18.4 24.6s-13.2-6.4-33.9-2.1c-20.7 4.3-42.4 13-42.4 13s-8.8-7.5-31.1-4.4c-27.9 3.8-36.9 22-36.9 22s-10.1-6-35.4 2.3-33.2 30.8-35.4 32c-1.1.6-10.3-3.2-23.2 3.8-12.3 6.7-17.2 14.8-17.2 14.8s-6.9-13.4 3.2-26.7c7.9-10.4 25.4-17.4 25.4-17.4s-1-11.4 8.6-23.3c8.9-11.1 27.6-20.4 43.7-21.2 20.1-1 27.6 5.7 27.6 5.7s10.8-12.8 32.9-17.6c21-4.6 35.9 3.8 35.9 3.8z"/><path class="st20" d="M45.3 819.8c33.1 15.6 70.6 9.1 89-15.3 7.2 7.5 16 13.8 25.6 18.3 39.3 18.5 84.4 5.4 100.8-29.4.3-.8.7-1.6.9-2.3 28.2 9.9 58.7-2.1 70.9-28 11.6-24.5 3.2-54-19.9-70.3.5-.8 1-1.8 1.5-2.7 8.1-17.2-2.6-39.4-23.8-49.4-9.2-4.4-19.4-5.9-28.6-4.4-5-26.9-23.2-50.3-49-62.5-15.7-7.4-33.1-10.1-49.9-7.8-6.9-14.6-19.3-26.8-34.7-34-20.4-9.6-43.7-9.6-62.1.2-5.7-5.4-12.4-9.9-19.5-13.2-35.4-16.7-76.3-4.5-91.3 27.3-1.9 4.2-3.4 8.7-4.3 13.3-26.7-3.3-49 5.9-57.5 23.6-12 25.4 7.9 59.9 44.4 77.1.1.1.3.1.4.2-.1.2-.3.5-.4.7-12.9 27.4 3.5 62.1 36.5 77.6 8.1 3.8 16.6 6.2 25.3 7.1-4.2 28.8 14.6 59.2 45.7 73.9z"/><path class="st17" d="M454.2 740.7c-25.5-19.8-59.1-21.5-79.7-4-4.8-7.9-11.1-15-18.5-20.7-30.3-23.6-71.7-20.9-92.5 5.9-.4.7-.9 1.2-1.2 1.8-22.4-13.9-51-9.5-66.5 10.4-14.7 18.9-13.1 45.9 3.6 64.4-.6.6-1.2 1.3-1.8 2.1-10.3 13.3-5.4 34.5 11 47.2 7.1 5.5 15.5 8.8 23.8 9.3-.9 24.1 10.3 47.8 30.2 63.3 12.1 9.4 26.6 15 41.5 16.3 3.2 13.9 11.5 26.8 23.3 36 15.7 12.2 35.8 16.7 53.6 11.8 3.9 5.7 8.8 10.9 14.2 15.2 27.3 21.2 64.9 18.6 84-5.9 2.4-3.3 4.6-6.9 6.3-10.6 22.3 8 43.4 4.4 54.1-9.3 15.2-19.6 4.7-53.2-23.4-75l-.3-.3c.1-.2.4-.4.5-.5 16.4-21.1 8.9-54.2-16.5-74-6.2-4.8-13.1-8.6-20.4-11 9-24-1.4-53.8-25.3-72.4z"/><path class="st14" d="M521.4 1125.5c27.7 16.6 61.3 14.2 79.6-5.6 5.7 7.2 12.8 13.5 20.9 18.4 32.9 19.7 73.7 12.1 91.2-17 .3-.7.7-1.3 1-2 23.9 11.1 51.8 3.3 64.8-18.4 12.3-20.5 7.5-47.2-11.4-63.5.5-.7 1-1.5 1.5-2.3 8.7-14.4 1.2-34.8-16.6-45.5-7.7-4.6-16.5-6.9-24.8-6.3-2-24.1-16-46.2-37.6-59.2-13.1-7.9-28.2-11.7-43.2-11.2-4.8-13.4-14.6-25.2-27.5-32.9-17.1-10.2-37.6-12.2-54.6-5.3-4.5-5.2-10-9.8-16-13.3-29.7-17.8-66.7-10.7-82.6 16-2 3.5-3.7 7.4-4.9 11.3-23.1-5.3-43.6.9-52.6 15.7-12.7 21.2 1.7 53.4 32.3 71.7.1.1.2.1.4.2-.1.2-.3.4-.4.6-13.7 22.9-2.3 54.9 25.3 71.4 6.8 4 14.1 6.9 21.6 8.4-6.3 24.8 7.6 53.1 33.6 68.8z"/><path class="st17" d="M1244.4 1038.8c-22 5.2-37.7 22.5-37.3 40.8-6.4-.8-13-.4-19.4 1.1-26.1 6.2-42.9 29.4-37.6 51.7.2.5.3 1 .4 1.4-17.4 6-27.6 23.2-23.7 39.8 3.8 15.8 19.1 26.3 36.5 25.1l.3 1.8c2.6 11.1 16.3 17.3 30.4 14 6.1-1.5 11.6-4.6 15.5-8.8 12.7 10.6 30.5 14.6 47.6 10.5 10.4-2.5 19.9-7.8 27.2-15.3 8.9 4.2 19.6 5.2 29.8 2.7 13.5-3.2 24.8-12.1 30-23.6 4.8.3 9.8-.1 14.5-1.2 23.5-5.6 38.7-26.7 33.8-47.2-.7-2.7-1.7-5.3-3-7.8 14.2-8.5 21.5-21.3 18.8-32.7-3.9-16.3-26.7-24.9-51-19.1-.1 0-.2 0-.3.1 0-.1 0-.3-.1-.5-4.2-17.6-25.4-27.5-47.3-22.3-5.4 1.3-10.4 3.4-14.9 6.3-8.8-14.7-29.5-21.7-50.2-16.8z"/><path class="st13" d="M1340.7 1147.5c5 27.1 25.5 47.2 48.5 47.7-1.4 7.7-1.4 15.9 0 23.7 6 32.2 33.8 54 62.3 48.7.6-.2 1.2-.3 1.8-.5 6.4 21.6 27.2 35 48.3 31.1 20.1-3.7 34.4-21.8 34.2-43.1.7-.1 1.5-.2 2.3-.3 14.1-2.6 23-18.9 19.7-36.3-1.4-7.6-4.9-14.4-9.9-19.4 14.3-14.9 20.5-36.4 16.6-57.4-2.4-12.9-8.4-24.7-17.2-34 5.9-10.6 7.9-23.6 5.5-36.2-3.1-16.7-13.4-30.9-27.5-37.9.8-5.9.6-11.9-.5-17.7-5.4-29-30.8-48.7-56.9-43.8-3.4.7-6.8 1.8-10 3.2-9.7-17.8-25.2-27.4-39.7-24.8-20.8 3.8-33.2 31.2-27.6 61.1 0 .1 0 .2.1.4-.2 0-.4 0-.6.1-22.4 4.1-36.4 29.5-31.4 56.5 1.2 6.6 3.5 12.9 6.8 18.6-19.2 10-29.5 34.9-24.8 60.3z"/><path class="st20" d="M1003.3 1283c31.7 6.1 62.4-7.7 72.8-32.6 7.8 4.9 16.7 8.3 25.9 10.1 37.7 7.2 73.4-13.9 79.8-47.3.1-.8.2-1.5.3-2.2 26.2 2.3 49.8-14.7 54.5-39.5 4.5-23.5-9.2-46.9-32.5-55.7.2-.8.5-1.7.7-2.6 3.2-16.5-10.9-33.1-31.2-37-8.9-1.7-17.9-.8-25.4 2.6-10.2-21.9-30.9-37.9-55.6-42.7-15-2.9-30.5-1.3-44.4 4.3-9.1-10.9-22.4-18.7-37.1-21.5-19.5-3.7-39.5 1.4-53.1 13.8-6.1-3.3-12.8-5.7-19.6-7-34-6.5-66.3 12.9-72.1 43.4-.7 4-1 8.2-.8 12.3-23.5 3-40.7 15.8-44 32.8-4.7 24.3 20 49.5 54.9 56.2.1 0 .3.1.4.1 0 .2-.2.5-.2.7-5 26.2 16.6 52.3 48.3 58.4 7.7 1.5 15.6 1.7 23.2.5 2.6 25.3 25.4 47.2 55.2 52.9z"/><path class="st21" d="M707.8 1087.6c.7 1.7-8.8 14.2.9 31.4 9.7 17.2 22.4 15.1 23.6 16.2 1.2 1.1-4.9 32.1 19 51.5s58.2 18 75-2c15.4-18.3 16.9-34.5 18-35.1s14 5.6 26.9-3.2c12.9-8.8 13.6-17.6 13.6-17.6l-41.6-36.2-77.1-34.1s-75.9-12.1-78-9.2-5.2 14 3.1 25.2c7.1 9.7 15.4 10.1 16.6 13.1z"/><path class="st19" d="M748.9 1046.2s-23.3-16.8-46.7-11c-14.1 3.5-16.1 18.3-16.1 18.3s10.9-4.3 26.9.4c16.1 4.6 32.7 12.8 32.7 12.8s7.4-5.4 24.9-1.6c21.8 4.7 27.9 19.6 27.9 19.6s8.4-4.1 27.9 3.9c19.5 8.1 24.3 26.3 26 27.4.8.6 8.3-1.9 18.1 4.4 9.3 6 12.7 12.7 12.7 12.7s6.2-10.2-.9-21.3c-5.6-8.7-19-15.3-19-15.3s1.5-8.9-5.4-18.9c-6.3-9.3-20.6-17.8-33.2-19.4-15.9-2-22.1 2.8-22.1 2.8s-7.7-10.7-25-15.9c-16.4-4.6-28.7 1.1-28.7 1.1z"/><path class="st18" d="M529.2 1064.6c-2.5.5-10.5 21.2-38.4 22.5s-34.9-15.5-37.1-16.1-34.9 30-75.9 15.9c-41.1-14.1-65.3-56.2-53.9-91.4 10.4-32.2 28.7-46.2 28.6-48s-17.3-12.5-16.4-34.7 10.9-29.5 10.9-29.5l74.7 22.7 98.8 66.9s71.5 81.8 69.6 86.5-12.9 16.7-32.6 15.2c-17.1-1.2-23.8-10.9-28.3-10z"/><path class="st19" d="M548 984.2s37.6 15.4 48.2 47.7c6.4 19.5-9.9 33-9.9 33s-3-16.2-20.7-32c-17.6-15.8-40-29.6-40-29.6s.8-12.9-16.7-31c-22-22.7-44.4-18.7-44.4-18.7s-1.3-13.1-25.6-30.5-49.8-9.4-52.4-10.6c-1.3-.6-3.9-11.4-18.9-18.4-14.2-6.6-24.8-5.6-24.8-5.6s7.5-15.1 26.2-14.9c14.6.2 32.6 11.3 32.6 11.3s9.6-8.4 26.7-7.7c15.9.6 36.8 11.4 48.2 25.3 14.3 17.5 13.2 28.7 13.2 28.7s18.7 1.2 37.8 18c18 16 20.5 35 20.5 35z"/><path class="st12" d="M159.7 640.2c-29-14.2-62.3-8.9-78.8 12.4-6.3-6.7-13.9-12.4-22.4-16.5-34.5-16.8-74.5-5.8-89.3 24.7-.3.7-.6 1.4-.8 2.1-24.7-9.1-51.9 1.2-63 23.8-10.5 21.5-3.4 47.6 16.8 62.3-.4.7-.9 1.5-1.3 2.4-7.4 15.1 1.8 34.8 20.5 43.9 8.1 4 17 5.4 25.2 4.2 4.1 23.8 19.9 44.7 42.5 55.7 13.8 6.7 29.1 9.3 44 7.5 5.9 12.9 16.7 23.9 30.2 30.5 17.9 8.7 38.5 9 54.9.6 5 4.8 10.8 8.9 17.1 11.9 31.1 15.2 67.3 4.9 81-23 1.7-3.7 3.1-7.7 4-11.7 23.5 3.3 43.4-4.6 51-20.2 10.9-22.3-6.3-53-38.3-68.6-.1-.1-.3-.1-.4-.2.1-.2.3-.4.4-.6 11.7-24-2.4-54.9-31.3-69-7.1-3.5-14.6-5.7-22.2-6.5 3.8-25.3-12.5-52.4-39.8-65.7z"/><path class="st16" d="M308.1 740.6c-20.2-12.7-45-11.4-58.8 3-4.1-5.4-9.3-10.2-15.1-13.9-24-15-54.2-10-67.5 11.2-.3.5-.5 1-.8 1.4-17.4-8.6-38.2-3.2-48 12.6-9.4 14.9-6.2 34.7 7.4 47-.4.5-.8 1.1-1.2 1.6-6.6 10.5-1.4 25.7 11.6 33.8 5.6 3.5 12.1 5.3 18.2 5 1.1 17.8 11.1 34.3 26.8 44.2 9.6 6 20.6 9.1 31.7 8.9 3.4 10 10.4 18.8 19.8 24.7 12.4 7.8 27.5 9.6 40.2 4.7 3.3 3.9 7.2 7.3 11.6 10.1 21.6 13.6 49 8.8 61.2-10.6 1.6-2.6 2.9-5.4 3.8-8.3 17 4.2 32.2 0 39-10.8 9.7-15.5-.5-39.4-22.7-53.3-.1-.1-.2-.1-.3-.2.1-.1.2-.3.3-.4 10.5-16.7 2.5-40.4-17.6-53-4.9-3.1-10.3-5.3-15.8-6.5 5-18.2-4.8-39.3-23.8-51.2z"/><path class="st21" d="M1712.9 864.5c.9-.9-1.6-11.8 9.7-20.2 11.3-8.4 19-3.4 20-3.8 1.1-.4 6.1-22.4 27.2-28.1 21.1-5.7 43.1 5 48.3 22.9 4.7 16.4 1.1 27.4 1.6 28.1.5.7 10.7.4 16.6 9.8 5.9 9.5 3.8 15.4 3.8 15.4l-37.6 11.6h-60.1s-53-14-53.5-16.5.7-10.6 9.3-15.6c7.6-4.2 13.1-2 14.7-3.6z"/><path class="st19" d="M1727.8 903.3s-20.1 4.2-33.6-6.3c-8.2-6.3-5.2-16.6-5.2-16.6s5.8 5.9 17.7 7.5c11.8 1.6 25.1 1.1 25.1 1.1s3.3 5.6 15.7 8.2c15.6 3.2 23.8-4.7 23.8-4.7s4.3 5.1 19.3 5.5 23.5-10.1 24.9-10.4c.7-.1 4.9 3.6 13.1 2.3 7.8-1.3 11.9-4.7 11.9-4.7s1.1 8.4-6.7 13.6c-6.1 4-16.8 4.5-16.8 4.5s-1.6 6.2-9 10.8c-6.8 4.2-18.6 5.6-27.2 3.1-10.9-3.3-13.6-8.2-13.6-8.2s-8.1 4.8-20.8 3.2c-12.2-1.7-18.6-8.9-18.6-8.9z"/><path class="st13" d="M1658.3 897.2c-19.5 7.7-31.5 25.9-28.6 43.1-6 .1-12 1.2-17.7 3.5-23.2 9.1-35.4 33.1-27.3 53.6.2.5.4.9.6 1.3-15.2 7.9-22.2 25.3-16.2 40.6 5.7 14.4 21.3 22.5 37.1 19.3.2.5.3 1.1.6 1.7 4 10.2 17.4 14.4 30 9.5 5.4-2.1 10.1-5.8 13-10.2 13.2 8.5 30.1 10.1 45.3 4.1 9.2-3.6 17.2-9.9 22.8-17.8 8.8 2.8 18.7 2.5 27.8-1.1 12-4.7 21.2-14.5 24.3-26 4.5-.3 9-1.3 13.2-2.9 20.9-8.2 31.8-30.1 24.5-48.8-1-2.4-2.3-4.8-3.9-7 11.9-9.8 16.8-22.8 12.7-33.3-5.9-15-28.1-20.2-49.6-11.8-.1 0-.2.1-.3.1-.1-.1-.1-.3-.1-.4-6.3-16.1-27.3-22.9-46.7-15.2-4.8 1.9-9.1 4.5-12.9 7.8-10.2-13.3-30.2-17.3-48.6-10.1z"/><path class="st17" d="M1623.4 1256.2c28.4-15.4 43.3-45.6 35.6-71.4 9.1-1.2 18.2-4.2 26.4-8.7 33.7-18.3 47.9-57.3 31.6-87.2-.4-.7-.8-1.3-1.2-1.9 21.7-14.9 29.1-43 17.1-65.1-11.4-21-36.8-30.4-60.5-22.4-.3-.8-.7-1.6-1.2-2.5-8-14.8-29.4-18.7-47.7-8.8-7.9 4.3-14.3 10.7-18 18.1-21.8-10.5-48-9.7-70.1 2.3-13.5 7.3-24.4 18.3-31.6 31.5-14-2.7-29.1-.2-42.3 7-17.5 9.5-29.6 26.1-32.3 44.4-6.8 1.3-13.5 3.7-19.6 7-30.4 16.5-43 52-28.2 79.3 2 3.6 4.4 7 7.2 10-16.3 17.3-21.4 38-13.1 53.3 11.8 21.8 46.9 25.6 78.1 8.6.1-.1.3-.1.4-.2.1.2.2.5.3.7 12.8 23.5 46.1 29.9 74.4 14.5 6.9-3.8 13.1-8.6 18.2-14.3 18.3 17.9 49.8 20.3 76.5 5.8zM131.9 785.4C115.2 768.6 91 764.2 74.4 775c-2.7-6.2-6.7-11.9-11.5-16.8-19.8-20-50.1-22-67.8-4.5-.4.4-.7.8-1.1 1.2-14.9-12.2-36.2-11.7-49.3 1.3-12.4 12.3-13.9 32.1-3.4 47.1-.5.4-1 .8-1.5 1.3-8.8 8.7-7.2 24.5 3.5 35.3 4.7 4.7 10.5 7.9 16.4 9-2.9 17.5 3 35.7 16 48.8 7.9 8 17.9 13.4 28.6 15.8 1 10.4 5.8 20.5 13.6 28.4 10.3 10.4 24.5 15.5 37.8 13.6 2.3 4.5 5.3 8.7 8.9 12.4 17.8 18 45.4 19.7 61.6 3.6 2.1-2.1 4-4.5 5.6-7.1 15.5 7.9 31.1 7.3 40.2-1.6 12.9-12.8 8.4-38.2-9.9-56.7l-.2-.2c.1-.1.3-.2.4-.3 13.9-13.8 11.6-38.5-5-55.3-4.1-4.1-8.7-7.5-13.8-9.9 8.8-16.5 4-39.2-11.6-55z"/><path class="st13" d="M139.1 1133.8c29.4 24.7 69.3 28.1 94.6 8.2 5.3 9.6 12.6 18.3 21.1 25.5 35 29.3 84.3 28 110.3-3 .5-.8 1.1-1.4 1.6-2.1 26 17.5 60.3 13.5 79.5-9.5 18.3-21.8 17.6-54-1.5-76.7.7-.7 1.5-1.5 2.2-2.4 12.9-15.3 7.9-40.7-11-56.6-8.2-6.9-18.1-11.2-27.9-12 2.1-28.7-10.2-57.3-33.1-76.5-14-11.7-30.9-19-48.7-21.2-3.2-16.6-12.5-32.3-26.2-43.8-18.1-15.2-41.8-21.4-63.2-16.4-4.4-7-9.9-13.3-16.3-18.6-31.5-26.4-76.3-24.9-100.1 3.4-3.1 3.8-5.8 7.9-7.9 12.4-26.2-10.5-51.4-7.1-64.7 8.7-18.9 22.6-7.9 63 24.5 90.2.1.1.3.2.4.3l-.6.6c-20.4 24.3-13 64 16.4 88.6 7.2 6 15.2 10.7 23.8 13.9-11.9 27.9-.9 63.8 26.8 87z"/><path class="st14" d="M665.4 1018.7c-29.7-12.8-62.6-6-78.1 16.1-6.6-6.4-14.5-11.7-23.1-15.4-35.2-15.2-74.7-2.3-88.1 28.9-.2.8-.5 1.4-.7 2.1-25.1-7.9-51.8 3.6-61.8 26.8-9.5 22-1.2 47.8 19.7 61.4l-1.2 2.4c-6.7 15.5 3.4 34.7 22.5 42.9 8.3 3.6 17.3 4.6 25.4 3 5.2 23.6 22 43.7 45.1 53.7 14.1 6.1 29.5 7.9 44.3 5.4 6.6 12.7 17.8 23 31.6 29 18.3 7.9 38.9 7.2 54.8-2 5.2 4.6 11.2 8.3 17.6 11.1 31.8 13.7 67.5 1.7 79.8-26.8 1.6-3.8 2.7-7.8 3.4-11.9 23.6 2.2 43.1-6.7 50-22.6 9.8-22.7-8.8-52.7-41.5-66.8-.1-.1-.3-.1-.4-.2.1-.2.3-.4.3-.6 10.6-24.5-5-54.7-34.5-67.5-7.2-3.1-14.8-5-22.5-5.5 2.8-25.2-14.7-51.5-42.6-63.5z"/><path class="st17" d="M245.7 1239.3c24.3 21.3 57.8 24.9 79.3 8.6 4.3 8.1 10.2 15.6 17.3 21.8 28.9 25.3 70.4 25 92.7-.5.5-.6.9-1.2 1.4-1.8 21.5 15.2 50.4 12.4 67-6.6 15.7-18 15.8-45.1.1-64.5.6-.6 1.3-1.3 1.9-2 11.1-12.7 7.4-34.1-8.3-47.8-6.8-5.9-15-9.7-23.2-10.6 2.3-24.1-7.5-48.4-26.5-64.9-11.5-10.1-25.7-16.6-40.5-18.7-2.4-14-9.9-27.4-21.2-37.3-15-13.1-34.8-18.7-52.8-14.9-3.5-6-8.1-11.4-13.3-16-26-22.8-63.7-22.3-84.2 1.1-2.6 3.1-5 6.6-6.9 10.3-21.8-9.3-43.1-6.9-54.5 6.1-16.3 18.6-7.8 52.8 19 76.3l.3.3c-.1.2-.4.3-.5.5-17.6 20.1-12 53.6 12.2 74.8 5.9 5.2 12.6 9.3 19.7 12.1-10.4 23.3-1.8 53.7 21 73.7z"/><path class="st20" d="M1760.4 880.9c-13 29.6-6.4 62.6 15.6 78.2-6.5 6.5-11.8 14.4-15.6 23-15.4 35.1-2.8 74.6 28.3 88.3.7.3 1.4.5 2.1.8-8 25.1 3.3 51.8 26.4 61.9 21.9 9.6 47.7 1.5 61.6-19.3.8.4 1.6.9 2.4 1.2 15.4 6.8 34.7-3.2 43.1-22.2 3.6-8.3 4.8-17.2 3.2-25.4 23.6-5 43.9-21.7 54-44.7 6.2-14 8.1-29.4 5.7-44.3 12.7-6.5 23.2-17.7 29.2-31.4 8-18.2 7.4-38.8-1.6-54.8 4.6-5.2 8.4-11.2 11.2-17.5 13.9-31.7 2.2-67.5-26.3-80-3.8-1.6-7.8-2.8-11.8-3.5 2.3-23.6-6.4-43.2-22.2-50.2-22.7-10-52.7 8.4-67 41-.1.1-.1.3-.2.4-.2-.1-.4-.3-.6-.4-24.5-10.7-54.7 4.6-67.7 34.1-3.2 7.2-5.1 14.8-5.6 22.5-25.6-2.8-52 14.5-64.2 42.3z"/><path class="st14" d="M20.8 1184.4c31.2 8.3 62.8-3.3 74.9-27.4 7.5 5.4 16.1 9.5 25.1 11.9 37.1 9.9 74.2-8.7 82.9-41.5.1-.8.3-1.5.4-2.2 26 4.1 50.7-11.2 57.2-35.5 6.2-23.1-5.8-47.4-28.4-57.9.3-.8.6-1.7.8-2.6 4.3-16.3-8.5-33.8-28.5-39.2-8.7-2.3-17.8-2.1-25.5.7-8.6-22.6-28.2-40-52.4-46.5-14.8-3.9-30.3-3.5-44.6 1.1-8.3-11.6-21-20.2-35.5-24.1-19.2-5.1-39.5-1.4-53.9 10-5.8-3.8-12.3-6.6-19-8.4-33.4-8.9-67 8.1-75 38.2-1 4-1.6 8.1-1.6 12.2-23.7 1.3-41.7 12.9-46.2 29.6-6.4 23.9 16.4 50.8 50.8 60 .1 0 .3.1.4.1-.1.2-.2.5-.3.7-6.9 25.8 12.9 53.4 44 61.7 7.6 2 15.4 2.8 23.1 2.1.8 25.8 22 49.2 51.3 57z"/><path class="st18" d="M-65.2 950.2c1.3-1.3-2.3-16.6 13.5-28.4 15.8-11.8 26.6-4.8 28.1-5.3s8.5-31.4 38.1-39.4 60.5 7 67.8 32.1c6.6 22.9 1.5 38.4 2.3 39.4.7 1 15.1.5 23.3 13.8s5.3 21.6 5.3 21.6l-52.7 16.3h-84.3s-74.3-19.6-75-23.1.9-14.9 13-21.8c10.6-6 18.4-3 20.6-5.2z"/><path class="st19" d="M-44.3 1004.6s-28.1 5.9-47.2-8.8c-11.4-8.9-7.3-23.3-7.3-23.3s8.2 8.3 24.8 10.5c16.6 2.3 35.1 1.5 35.1 1.5s4.6 7.9 22.1 11.6c21.9 4.5 33.4-6.6 33.4-6.6s6 7.2 27.1 7.7 32.9-14.2 34.9-14.6c1-.2 6.8 5.1 18.3 3.3 11-1.8 16.7-6.5 16.7-6.5s1.6 11.8-9.4 19.1c-8.6 5.7-23.6 6.3-23.6 6.3s-2.3 8.8-12.6 15.1c-9.6 5.9-26 7.9-38.2 4.3-15.3-4.6-19.1-11.5-19.1-11.5s-11.4 6.7-29.2 4.4c-16.8-2.3-25.8-12.5-25.8-12.5z"/><path class="st12" d="M1793.5 969.8c-32.3 0-59.9 19.3-65.4 45.8-8.6-3.3-18-5-27.4-5-38.4 0-69.5 27.5-69.5 61.4.1.8.1 1.5.1 2.2-26.2 2.7-46.1 23.8-46.1 49 0 23.9 17.8 44.3 42.4 48.6-.1.9-.1 1.8-.1 2.7 0 16.8 16.9 30.5 37.7 30.5 9 0 17.7-2.6 24.5-7.3 14.1 19.6 37.5 31.4 62.7 31.4 15.3 0 30.2-4.4 42.8-12.6 11 9 25.5 14.1 40.5 14.1 19.9 0 38.5-8.8 49.5-23.6 6.6 2.1 13.6 3.2 20.5 3.2 34.6 0 62.7-25.1 62.7-56.2-.1-4.1-.6-8.2-1.6-12.2 22.6-7.4 36.9-23.2 37-40.5 0-24.8-28.9-44.9-64.5-44.9h-.4c0-.2.1-.5.1-.7 0-26.7-26.2-48.3-58.4-48.3-7.9 0-15.6 1.3-22.8 3.9-7.4-24.3-33.9-41.5-64.3-41.5z"/><path class="st13" d="M1554.1 1112.7c-32.3 0-59.9 19.3-65.4 45.8-8.6-3.3-18-5-27.4-5-38.4 0-69.5 27.5-69.5 61.4.1.8.1 1.5.1 2.2-26.2 2.7-46.1 23.8-46.1 49 0 23.9 17.8 44.3 42.4 48.6-.1.9-.1 1.8-.1 2.7 0 16.8 16.9 30.5 37.7 30.5 9 0 17.7-2.6 24.5-7.3 14.1 19.6 37.5 31.4 62.7 31.4 15.3 0 30.2-4.4 42.8-12.6 11 9 25.5 14.1 40.5 14.1 19.9 0 38.5-8.8 49.5-23.6 6.6 2.1 13.6 3.2 20.5 3.2 34.6 0 62.7-25.1 62.7-56.2-.1-4.1-.6-8.2-1.6-12.2 22.6-7.4 36.9-23.2 37-40.5 0-24.8-28.9-44.9-64.5-44.9h-.4c0-.2.1-.5.1-.7 0-26.7-26.2-48.3-58.4-48.3-7.9 0-15.6 1.3-22.8 3.9-7.5-24.3-34-41.5-64.3-41.5z"/><path class="st12" d="M958.7 1095.6c-21 0-39 12.6-42.5 29.8-5.6-2.1-11.7-3.3-17.8-3.3-25 0-45.2 17.9-45.2 40 0 .5 0 1 .1 1.4-17.1 1.8-30 15.5-30 31.9 0 15.6 11.6 28.8 27.6 31.6 0 .6-.1 1.2-.1 1.8 0 10.9 11 19.8 24.5 19.8 5.9 0 11.5-1.7 15.9-4.8 9.2 12.8 24.4 20.5 40.8 20.5 10 0 19.7-2.9 27.9-8.2 7.2 5.9 16.6 9.2 26.4 9.2 13 0 25.1-5.7 32.2-15.3 4.3 1.4 8.9 2.1 13.4 2.1 22.5 0 40.8-16.4 40.8-36.6 0-2.7-.4-5.4-1-8 14.7-4.8 24-15.1 24.1-26.4 0-16.1-18.8-29.2-42-29.2h-.3v-.5c0-17.4-17.1-31.4-38-31.4-5.1 0-10.2.8-14.9 2.5-4.9-15.7-22.2-26.9-41.9-26.9z"/><path class="st20" d="M978.9 1127.9c-21 0-39 12.6-42.5 29.8-5.6-2.1-11.7-3.3-17.8-3.3-25 0-45.2 17.9-45.2 40 0 .5 0 1 .1 1.4-17.1 1.8-30 15.5-30 31.9 0 15.6 11.6 28.8 27.6 31.6 0 .6-.1 1.2-.1 1.8 0 10.9 11 19.8 24.5 19.8 5.9 0 11.5-1.7 15.9-4.8 9.2 12.8 24.4 20.5 40.8 20.5 10 0 19.7-2.9 27.9-8.2 7.2 5.9 16.6 9.2 26.4 9.2 13 0 25.1-5.7 32.2-15.3 4.3 1.4 8.9 2.1 13.4 2.1 22.5 0 40.8-16.4 40.8-36.6 0-2.7-.4-5.4-1-8 14.7-4.8 24-15.1 24.1-26.4 0-16.1-18.8-29.2-42-29.2h-.3v-.5c0-17.4-17.1-31.4-38-31.4-5.1 0-10.2.8-14.9 2.5-4.9-15.7-22.1-26.9-41.9-26.9z"/><path class="st14" d="M871.9 1145.9c-21 0-39 12.6-42.5 29.8-5.6-2.1-11.7-3.3-17.8-3.3-25 0-45.2 17.9-45.2 40 0 .5 0 1 .1 1.4-17.1 1.8-30 15.5-30 31.9 0 15.6 11.6 28.8 27.6 31.6 0 .6-.1 1.2-.1 1.8 0 10.9 11 19.8 24.5 19.8 5.9 0 11.5-1.7 15.9-4.8 9.2 12.8 24.4 20.5 40.8 20.5 10 0 19.7-2.9 27.9-8.2 7.2 5.9 16.6 9.2 26.4 9.2 13 0 25.1-5.7 32.2-15.3 4.3 1.4 8.9 2.1 13.4 2.1 22.5 0 40.8-16.4 40.8-36.6 0-2.7-.4-5.4-1-8 14.7-4.8 24-15.1 24.1-26.4 0-16.1-18.8-29.2-42-29.2h-.3v-.5c0-17.4-17.1-31.4-38-31.4-5.1 0-10.2.8-14.9 2.5-4.9-15.8-22.1-26.9-41.9-26.9z"/><path class="st16" d="M1014.2 1176.4c-21 0-39 12.6-42.5 29.8-5.6-2.1-11.7-3.3-17.8-3.3-25 0-45.2 17.9-45.2 40 0 .5 0 1 .1 1.4-17.1 1.8-30 15.5-30 31.9 0 15.6 11.6 28.8 27.6 31.6 0 .6-.1 1.2-.1 1.8 0 10.9 11 19.8 24.5 19.8 5.9 0 11.5-1.7 15.9-4.8 9.2 12.8 24.4 20.5 40.8 20.5 10 0 19.7-2.9 27.9-8.2 7.2 5.9 16.6 9.2 26.4 9.2 13 0 25.1-5.7 32.2-15.3 4.3 1.4 8.9 2.1 13.4 2.1 22.5 0 40.8-16.4 40.8-36.6 0-2.7-.4-5.4-1-8 14.7-4.8 24-15.1 24.1-26.4 0-16.1-18.8-29.2-42-29.2h-.3v-.5c0-17.4-17.1-31.4-38-31.4-5.1 0-10.2.8-14.9 2.5-4.9-15.7-22.1-26.9-41.9-26.9z"/><path class="st20" d="M789.8 1136.4c-21 0-39 12.6-42.5 29.8-5.6-2.1-11.7-3.3-17.8-3.3-25 0-45.2 17.9-45.2 40 0 .5 0 1 .1 1.4-17.1 1.8-30 15.5-30 31.9 0 15.6 11.6 28.8 27.6 31.6 0 .6-.1 1.2-.1 1.8 0 11 11 19.8 24.5 19.8 5.9 0 11.5-1.7 15.9-4.8 9.2 12.8 24.4 20.5 40.8 20.5 10 0 19.7-2.9 27.9-8.2 7.2 5.9 16.6 9.2 26.4 9.2 13 0 25.1-5.7 32.2-15.3 4.3 1.4 8.9 2.1 13.4 2.1 22.5 0 40.8-16.4 40.8-36.6 0-2.7-.4-5.4-1-8 14.7-4.8 24-15.1 24.1-26.4 0-16.1-18.8-29.2-42-29.2h-.3v-.5c0-17.4-17.1-31.4-38-31.4-5.1 0-10.2.8-14.9 2.5-4.9-15.7-22.2-26.9-41.9-26.9z"/><path class="st13" d="M1128.7 1136.4c-21 0-39 12.6-42.5 29.8-5.6-2.1-11.7-3.3-17.8-3.3-25 0-45.2 17.9-45.2 40 0 .5 0 1 .1 1.4-17.1 1.8-30 15.5-30 31.9 0 15.6 11.6 28.8 27.6 31.6 0 .6-.1 1.2-.1 1.8 0 11 11 19.8 24.5 19.8 5.9 0 11.5-1.7 15.9-4.8 9.2 12.8 24.4 20.5 40.8 20.5 10 0 19.7-2.9 27.9-8.2 7.2 5.9 16.6 9.2 26.4 9.2 13 0 25.1-5.7 32.2-15.3 4.3 1.4 8.9 2.1 13.4 2.1 22.5 0 40.8-16.4 40.8-36.6 0-2.7-.4-5.4-1-8 14.7-4.8 24-15.1 24.1-26.4 0-16.1-18.8-29.2-42-29.2h-.3v-.5c0-17.4-17.1-31.4-38-31.4-5.1 0-10.2.8-14.9 2.5-4.9-15.7-22.1-26.9-41.9-26.9z"/><path class="st17" d="M898.5 1180.5c-21 0-39 12.6-42.5 29.8-5.6-2.1-11.7-3.3-17.8-3.3-25 0-45.2 17.9-45.2 40 0 .5 0 1 .1 1.4-17.1 1.8-30 15.5-30 31.9 0 15.6 11.6 28.8 27.6 31.6 0 .6-.1 1.2-.1 1.8 0 10.9 11 19.8 24.5 19.8 5.9 0 11.5-1.7 15.9-4.8 9.2 12.8 24.4 20.5 40.8 20.5 10 0 19.7-2.9 27.9-8.2 7.2 5.9 16.6 9.2 26.4 9.2 13 0 25.1-5.7 32.2-15.3 4.3 1.4 8.9 2.1 13.4 2.1 22.5 0 40.8-16.4 40.8-36.6 0-2.7-.4-5.4-1-8 14.7-4.8 24-15.1 24.1-26.4 0-16.1-18.8-29.2-42-29.2h-.3v-.5c0-17.4-17.1-31.4-38-31.4-5.1 0-10.2.8-14.9 2.5-4.9-15.7-22.1-26.9-41.9-26.9z"/><path class="st15" d="M425.7 1191.6c2.5-1.9-1.3-28.1 29.2-45s48.8-3.2 51.6-3.8c2.8-.6 20.6-51 75.4-59.1 54.7-8.1 107.9 22.6 116.8 66 8.2 39.6-3.7 64.5-2.5 66.3s27.1 3.5 39.8 27.3c12.7 23.7 5.9 37.1 5.9 37.1l-97.8 17.8-152-15.2s-130.7-46.1-131.5-52.1c-.8-6 4.2-24.8 27.2-34.2 20-8.2 33.5-1.7 37.9-5.1z"/><path class="st14" d="M454.3 1286.5s-51.7 4.8-83.6-23.3c-19.2-16.9-9.2-40.2-9.2-40.2s13.4 15.3 42.9 22.1c29.5 6.8 63.1 8.8 63.1 8.8s7 14.1 37.9 23.3c38.7 11.5 61.4-5.1 61.4-5.1s9.6 13.1 47.6 17.7 61.7-17.9 65.4-18.1c1.8-.1 11.4 9.8 32.5 8.8 20.1-1 31.3-7.9 31.3-7.9s.9 20-20.2 30.2c-16.5 7.9-43.6 6.3-43.6 6.3s-5.6 14.2-25.2 23c-18.2 8.2-48.3 8.6-69.7.3-26.9-10.4-32.5-22.7-32.5-22.7s-21.7 9.1-53.5 2.1c-30.1-6.7-44.6-25.3-44.6-25.3z"/><path class="st12" d="M247.8 1082.1c-32.3 0-59.9 19.3-65.4 45.8-8.6-3.3-18-5-27.4-5-38.4 0-69.5 27.5-69.5 61.4.1.8.1 1.5.1 2.2-26.2 2.7-46.1 23.8-46.1 49 0 23.9 17.8 44.3 42.4 48.6-.1.9-.1 1.8-.1 2.7 0 16.8 16.9 30.5 37.7 30.5 9 0 17.7-2.6 24.5-7.3 14.1 19.6 37.5 31.4 62.7 31.4 15.3 0 30.2-4.4 42.8-12.6 11 9 25.5 14.1 40.5 14.1 19.9 0 38.5-8.8 49.5-23.6 6.6 2.1 13.6 3.2 20.5 3.2 34.6 0 62.6-25.1 62.6-56.2-.1-4.1-.6-8.2-1.6-12.2 22.6-7.4 36.9-23.2 37-40.5 0-24.8-28.9-44.9-64.5-44.9h-.4c0-.2.1-.5.1-.7 0-26.7-26.2-48.3-58.4-48.3-7.9 0-15.6 1.3-22.8 3.9-7.3-24.4-33.8-41.5-64.2-41.5z"/><path class="st22" d="M-46.7 1037.5c1.3-1.3-2.3-16.6 13.5-28.4 15.8-11.8 26.6-4.8 28.1-5.3s8.5-31.4 38.1-39.4 60.5 7 67.8 32.1c6.6 22.9 1.5 38.4 2.3 39.4.7 1 15.1.5 23.3 13.8s5.3 21.6 5.3 21.6L79 1087.7H-5.3s-74.3-19.6-75-23.1.9-14.9 13-21.8c10.5-6 18.3-3 20.6-5.3z"/><path class="st23" d="M-25.9 1092s-28.1 5.9-47.2-8.8c-11.4-8.9-7.3-23.3-7.3-23.3s8.2 8.3 24.8 10.5c16.6 2.3 35.1 1.5 35.1 1.5s4.6 7.9 22.1 11.6c21.9 4.5 33.4-6.6 33.4-6.6s6 7.2 27.1 7.7S95 1070.4 97 1070c1-.2 6.8 5.1 18.3 3.3 11-1.8 16.7-6.5 16.7-6.5s1.6 11.8-9.4 19.1c-8.6 5.7-23.6 6.3-23.6 6.3s-2.3 8.8-12.6 15.1c-9.6 5.9-26 7.9-38.2 4.3-15.3-4.6-19.1-11.5-19.1-11.5s-11.4 6.7-29.2 4.4c-16.8-2.3-25.8-12.5-25.8-12.5z"/><path class="st15" d="M1670.4 1203.1c2-2.5-7.8-27 17.9-50.6 25.7-23.5 46.7-14.5 49.3-15.7 2.6-1.2 8.2-54.4 59.6-75s110.2-3.1 129 36.9c17.2 36.6 11.4 63.6 13 65.1s27.2-2.9 45 17.3c17.9 20.1 14.4 34.7 14.4 34.7l-90.9 40.1-151.4 20.7s-137.9-14.4-140-20.1-1.7-25.1 18.5-39.6c17.4-12.6 32.1-9.5 35.6-13.8z"/><path class="st14" d="M1720.3 1288.7s-49.2 16.7-86.7-3.2c-22.6-12-18.4-37-18.4-37s16.6 11.8 46.9 11.5 63.4-6.1 63.4-6.1 10.1 12.1 42.3 13.8c40.3 2.2 58.5-19.3 58.5-19.3s12.4 10.5 50.4 6.1 55.9-31.8 59.3-32.8c1.8-.5 13.4 6.9 33.7.9 19.3-5.6 28.6-15 28.6-15s5.5 19.3-12.6 34.1c-14.2 11.6-40.9 16.2-40.9 16.2s-2.1 15.1-19.1 28.3c-15.8 12.2-44.9 19.6-67.7 16.5-28.5-3.8-36.9-14.5-36.9-14.5s-19 13.9-51.5 14.5c-30.8.8-49.3-14-49.3-14z"/><path class="st18" d="M268.2 1187.6c27.6 14.2 31.4 37.7 29.7 45-1.7 7.2-170.9 47.6-170.9 47.6H-65l-120-33.6s-6.8-17.1 12-44.5 51.4-26.4 53.2-28.4c1.7-2.1-10-33.9 5.2-81.2 16.6-51.7 86.9-82.7 154.3-66.2s83.5 80.1 86.9 81.2c3.5 1.1 28-13.4 64 10.9s27.9 55.8 30.9 58.4c5.1 4.7 22.8-1.5 46.7 10.8z"/><path class="st19" d="M173.9 1288.9s-20.5 21-58.8 25.3c-40.6 4.7-66.6-9.1-66.6-9.1s-8.6 14.4-43.5 23.8c-27.8 7.5-65.3 3.4-87.1-8.8-23.4-13.1-28.6-31.1-28.6-31.1s-34.1-1.2-53.7-12.9c-25.1-15-21.5-39.3-21.5-39.3s13.2 9.8 38.1 13.4c26.2 3.8 39.5-7.1 41.7-6.7 4.5.7 31.4 31 79.5 30s61.7-15.8 61.7-15.8 26.3 23.1 76.1 13.7c39.8-7.5 50.3-23.8 50.3-23.8s42.3 1.6 80-3.1c37.7-4.6 56.4-21.7 56.4-21.7s9.5 29.6-16.6 47.9c-43.3 30.4-107.4 18.2-107.4 18.2z"/><path class="st15" d="M286 1242.4c20 15.4 19.6 34.5 17.1 39.9S159.2 1294 159.2 1294L5.4 1265l-91.2-44.6s-2.9-14.5 16.2-33.2 45.1-13 46.8-14.4-3-28.2 16.2-63.1c20.9-38.2 81.9-52 133.4-28.8 51.6 23.2 55 75.7 57.6 77 2.6 1.4 24.4-6.4 49.7 18.2s14.1 48.1 16.1 50.7c3.4 4.4 18.5 2.2 35.8 15.6z"/><path class="st14" d="M195.4 1307.9s-19.5 13.5-50.9 11.1c-33.2-2.5-52-17.2-52-17.2s-9.1 10-38.4 12.1c-23.4 1.7-52.8-7.2-68.4-20.1-16.8-13.9-18.3-28.8-18.3-28.8s-27.1-6.1-41.1-18.3c-17.9-15.6-11.4-34.2-11.4-34.2s9.1 9.7 28.5 16.3c20.4 7 32.7.4 34.4 1 3.5 1.2 20.6 29.2 59.2 35.6s51.7-3.1 51.7-3.1 17.6 22.1 58.9 22.3c33 .1 43.8-11.1 43.8-11.1s33.7 7.6 64.6 9.6 48.4-8.6 48.4-8.6 3.2 24.8-20.4 35.2c-39.1 17.4-88.6-1.8-88.6-1.8z"/><path class="st21" d="M-7.8 1251.6c.8-.8-1.5-10.7 8.9-18.4 10.3-7.7 17.4-3.1 18.4-3.4s5.6-20.4 24.9-25.6 39.5 4.6 44.3 20.8c4.3 14.9 1 24.9 1.5 25.6.5.6 9.8.3 15.2 9 5.4 8.6 3.4 14 3.4 14l-34.4 10.6H19.3s-48.5-12.7-49-15 .6-9.7 8.5-14.2c6.9-3.9 11.9-1.9 13.4-3.4z"/><path class="st19" d="M5.9 1286.9s-18.4 3.8-30.8-5.7c-7.5-5.8-4.8-15.1-4.8-15.1s5.4 5.4 16.2 6.8c10.8 1.5 23 1 23 1s3 5.1 14.4 7.5c14.3 2.9 21.8-4.3 21.8-4.3s3.9 4.7 17.7 5 21.5-9.2 22.8-9.5c.7-.1 4.5 3.3 12 2.1 7.2-1.1 10.9-4.2 10.9-4.2s1 7.7-6.2 12.4c-5.6 3.7-15.4 4.1-15.4 4.1s-1.5 5.7-8.2 9.8c-6.2 3.9-17 5.1-25 2.8-10-3-12.5-7.5-12.5-7.5s-7.5 4.3-19.1 2.9c-11-1.5-16.8-8.1-16.8-8.1z"/><path class="st21" d="M626.4 1235.8c12.1 6.9 13.8 18.3 13 21.8-.7 3.5-75 23.1-75 23.1h-84.3l-52.7-16.3s-3-8.3 5.3-21.6 22.6-12.8 23.3-13.8c.8-1-4.4-16.5 2.3-39.4 7.3-25.1 38.1-40.1 67.8-32.1 29.6 8 36.7 38.9 38.1 39.4 1.5.5 12.3-6.5 28.1 5.3s12.3 27.1 13.5 28.4c2.3 2.2 10.1-.8 20.6 5.2z"/><path class="st19" d="M585 1284.9s-9 10.2-25.8 12.3c-17.8 2.3-29.2-4.4-29.2-4.4s-3.8 7-19.1 11.5c-12.2 3.6-28.7 1.7-38.2-4.3-10.3-6.4-12.6-15.1-12.6-15.1s-15-.6-23.6-6.3c-11-7.3-9.4-19.1-9.4-19.1s5.8 4.8 16.7 6.5c11.5 1.9 17.3-3.4 18.3-3.3 2 .3 13.8 15.1 34.9 14.6s27.1-7.7 27.1-7.7 11.5 11.2 33.4 6.6c17.5-3.6 22.1-11.6 22.1-11.6s18.6.8 35.1-1.5c16.6-2.2 24.8-10.5 24.8-10.5s4.2 14.4-7.3 23.3c-19.1 14.9-47.2 9-47.2 9z"/><path class="st22" d="M1235.3 1216.8c1.5-1.5-2.7-19.6 16-33.5s31.4-5.6 33.2-6.2c1.8-.6 10.1-37.1 45.1-46.5s71.5 8.3 80.1 38c7.9 27.1 1.8 45.4 2.7 46.5.9 1.2 17.8.6 27.6 16.3 9.8 15.7 6.2 25.5 6.2 25.5l-62.3 19.3h-99.6s-87.8-23.1-88.6-27.3 1.1-17.6 15.4-25.8c12.4-7.2 21.6-3.6 24.2-6.3z"/><path class="st23" d="M1260 1281.1s-33.2 6.9-55.7-10.4c-13.5-10.5-8.6-27.5-8.6-27.5s9.7 9.8 29.3 12.4c19.6 2.7 41.5 1.8 41.5 1.8s5.5 9.4 26.1 13.6c25.8 5.4 39.5-7.9 39.5-7.9s7.1 8.5 32 9.1 38.9-16.8 41.2-17.2c1.2-.2 8 6 21.7 3.9 13-2.1 19.8-7.7 19.8-7.7s1.9 13.9-11.2 22.5c-10.2 6.7-27.9 7.4-27.9 7.4s-2.7 10.3-14.8 17.9c-11.3 7-30.7 9.4-45.2 5.1-18.1-5.4-22.6-13.6-22.6-13.6s-13.5 7.9-34.5 5.2c-20-2.6-30.6-14.6-30.6-14.6z"/><path class="st20" d="M1235.7 1166c-11.6 0-21.5 6.9-23.4 16.4-3.1-1.2-6.4-1.8-9.8-1.8-13.8 0-24.9 9.9-24.9 22 0 .3 0 .5.1.8-9.4 1-16.5 8.6-16.5 17.6 0 8.6 6.4 15.9 15.2 17.4 0 .3-.1.6-.1 1 0 6 6.1 10.9 13.5 10.9 3.2 0 6.3-.9 8.8-2.6 5.1 7 13.5 11.3 22.5 11.3 5.5 0 10.8-1.6 15.4-4.5 4 3.2 9.1 5.1 14.5 5.1 7.1 0 13.8-3.2 17.8-8.4 2.4.8 4.9 1.2 7.4 1.2 12.4 0 22.5-9 22.5-20.2 0-1.5-.2-3-.6-4.4 8.1-2.6 13.3-8.3 13.3-14.5 0-8.9-10.4-16.1-23.1-16.1h-.2v-.3c0-9.6-9.4-17.3-21-17.3-2.8 0-5.6.5-8.2 1.4-2.8-8.8-12.3-15-23.2-15z"/><path class="st18" d="M1513.6 1221.1c1.3-1.3-2.3-16.6 13.5-28.4s26.6-4.8 28.1-5.3 8.5-31.4 38.1-39.4 60.5 7 67.8 32.1c6.6 22.9 1.5 38.4 2.3 39.4.7 1 15.1.5 23.3 13.8s5.3 21.6 5.3 21.6l-52.7 16.3H1555s-74.3-19.6-75-23.1.9-14.9 13-21.8c10.5-6 18.3-3 20.6-5.2z"/><path class="st19" d="M1534.4 1275.5s-28.1 5.9-47.2-8.8c-11.4-8.9-7.3-23.3-7.3-23.3s8.2 8.3 24.8 10.5c16.6 2.3 35.1 1.5 35.1 1.5s4.6 7.9 22.1 11.6c21.9 4.5 33.4-6.6 33.4-6.6s6 7.2 27.1 7.7 32.9-14.2 34.9-14.6c1-.2 6.8 5.1 18.3 3.3 11-1.8 16.7-6.5 16.7-6.5s1.6 11.8-9.4 19.1c-8.6 5.7-23.6 6.3-23.6 6.3s-2.3 8.8-12.6 15.1c-9.6 5.9-26 7.9-38.2 4.3-15.3-4.6-19.1-11.5-19.1-11.5s-11.4 6.7-29.2 4.4c-16.8-2.3-25.8-12.5-25.8-12.5z"/><path class="st15" d="M1572.2 1257.9c12.1 6.9 13.8 18.3 13 21.8-.7 3.5-75 23.1-75 23.1h-84.3l-52.7-16.3s-3-8.3 5.3-21.6 22.6-12.8 23.3-13.8c.8-1-4.4-16.5 2.3-39.4 7.3-25.1 38.1-40.1 67.8-32.1 29.6 8 36.7 38.9 38.1 39.4 1.5.5 12.3-6.5 28.1 5.3s12.3 27.1 13.5 28.4c2.3 2.2 10.1-.8 20.6 5.2z"/><path class="st14" d="M1530.7 1307s-9 10.2-25.8 12.3c-17.8 2.3-29.2-4.4-29.2-4.4s-3.8 7-19.1 11.5c-12.2 3.6-28.7 1.7-38.2-4.3-10.3-6.4-12.6-15.1-12.6-15.1s-15-.6-23.6-6.3c-11-7.3-9.4-19.1-9.4-19.1s5.8 4.8 16.7 6.5c11.5 1.9 17.3-3.4 18.3-3.3 2 .3 13.8 15.1 34.9 14.6s27.1-7.7 27.1-7.7 11.5 11.2 33.4 6.6c17.5-3.6 22.1-11.6 22.1-11.6s18.6.8 35.1-1.5c16.6-2.2 24.8-10.5 24.8-10.5s4.2 14.4-7.3 23.3c-19 14.9-47.2 9-47.2 9z"/><path class="st22" d="M1828.2 899.3c1.3-1.3-2.7-16.5 12.8-28.7s26.5-5.4 28-6c1.5-.5 7.8-31.6 37.2-40.3s60.6 5.5 68.5 30.5c7.2 22.8 2.4 38.4 3.2 39.3.8 1 15.1.1 23.7 13.2s5.8 21.5 5.8 21.5l-52.3 17.6-84.3 2.1s-74.7-17.7-75.6-21.2c-.8-3.5.6-14.9 12.5-22.2 10.5-6.3 18.3-3.4 20.5-5.8z"/><path class="st23" d="M1850.5 953.3s-28 6.6-47.4-7.7c-11.7-8.6-7.8-23.1-7.8-23.1s8.4 8.1 25 9.9c16.6 1.9 35.2.6 35.2.6s4.8 7.8 22.4 11c22 4 33.2-7.5 33.2-7.5s6.2 7 27.3 7 32.5-15 34.5-15.4c1-.2 6.9 4.9 18.4 2.8 10.9-2 16.6-6.9 16.6-6.9s1.9 11.8-9 19.3c-8.5 5.9-23.4 6.9-23.4 6.9s-2.1 8.8-12.2 15.4c-9.4 6.2-25.8 8.6-38.1 5.2-15.4-4.2-19.4-11.1-19.4-11.1s-11.2 7-29.1 5.1c-17-1.6-26.2-11.5-26.2-11.5z"/><path class="st22" d="M1114.9 1230.6c.6-.6-1.1-8.3 6.8-14.2 7.9-5.9 13.3-2.4 14.1-2.6.8-.3 4.3-15.7 19.1-19.7s30.3 3.5 34 16.1c3.3 11.5.8 19.2 1.1 19.7.4.5 7.6.3 11.7 6.9 4.1 6.7 2.6 10.8 2.6 10.8l-26.4 8.2h-42.3s-37.2-9.8-37.6-11.6.5-7.5 6.5-10.9c5.4-3 9.3-1.5 10.4-2.7z"/><path class="st23" d="M1125.4 1257.9s-14.1 2.9-23.6-4.4c-5.7-4.5-3.6-11.7-3.6-11.7s4.1 4.2 12.4 5.3c8.3 1.1 17.6.8 17.6.8s2.3 4 11.1 5.8c11 2.3 16.7-3.3 16.7-3.3s3 3.6 13.6 3.8c10.6.3 16.5-7.1 17.5-7.3.5-.1 3.4 2.6 9.2 1.6 5.5-.9 8.4-3.3 8.4-3.3s.8 5.9-4.7 9.6c-4.3 2.8-11.8 3.1-11.8 3.1s-1.1 4.4-6.3 7.6c-4.8 3-13 4-19.2 2.1-7.7-2.3-9.6-5.8-9.6-5.8s-5.7 3.4-14.7 2.2c-8.5-1-13-6.1-13-6.1z"/></g><g id="cloud1" class="st0"><path class="st24" d="M660.4 650.6c15.2.3 28.4-6.6 31.2-16.5 4 1.3 8.4 2 12.9 2.1 18.1.4 32.9-9.6 33.2-22.3 0-.3 0-.6-.1-.8 12.4-.8 21.9-8.5 22.1-17.9.2-8.9-8.1-16.7-19.6-18.6 0-.3.1-.7.1-1 .1-6.3-7.7-11.6-17.5-11.8-4.3-.1-8.4.8-11.6 2.5-6.5-7.5-17.4-12.1-29.3-12.4-7.2-.1-14.3 1.4-20.3 4.3-5.1-3.5-11.9-5.5-19-5.7-9.4-.2-18.2 2.9-23.5 8.3-3.1-.9-6.4-1.3-9.7-1.4-16.3-.3-29.7 8.8-30 20.4 0 1.5.2 3.1.6 4.6-10.7 2.5-17.6 8.3-17.8 14.8-.2 9.3 13.3 17.1 30.1 17.4h.2v.3c-.2 10 12 18.3 27.2 18.6 3.7.1 7.4-.3 10.8-1.2 3.3 9.3 15.7 16 30 16.3z"/><path class="st25" d="M548.8 500.1c-18.7 1.8-33.6 14.6-35.3 30.2-5.2-1.4-10.7-1.9-16.1-1.4-22.3 2.2-38.7 19.9-36.8 39.5.1.5.1.9.2 1.3-15 3.1-25.4 16.4-24 31 1.3 13.9 12.8 24.7 27.3 25.8 0 .5 0 1 .1 1.6.9 9.8 11.5 16.7 23.6 15.6 5.2-.5 10.1-2.5 13.8-5.6 9.3 10.6 23.5 16.1 38.1 14.7 8.9-.9 17.3-4.3 24.1-9.7 6.9 4.6 15.6 6.7 24.3 5.9 11.5-1.1 21.8-7.3 27.4-16.5 3.9.9 8.1 1.1 12.1.7 20.1-2 34.9-18.1 33.2-36.1-.3-2.4-.8-4.7-1.6-7 12.7-5.5 20.1-15.5 19.2-25.6-1.4-14.4-19.3-24.4-39.9-22.4h-.2v-.4c-1.5-15.5-17.9-26.5-36.6-24.7-4.6.4-9 1.6-13 3.5-5.9-13.6-22.2-22.1-39.9-20.4z"/><path class="st26" d="M478.9 513c-14.9-6.8-31.6-3.6-39.7 7.4-3.3-3.3-7.2-6.1-11.6-8-17.7-8-37.8-1.9-44.9 13.8-.1.4-.3.7-.4 1.1-12.7-4.2-26.3 1.3-31.5 13-5 11-1.1 24.2 9.4 31.3l-.6 1.2c-3.5 7.8 1.4 17.6 11 22 4.2 1.9 8.7 2.5 12.8 1.8 2.4 12 10.7 22.4 22.3 27.6 7.1 3.2 14.9 4.3 22.4 3.2 3.2 6.5 8.8 11.8 15.7 15 9.2 4.2 19.6 4 27.8-.5 2.6 2.4 5.6 4.3 8.8 5.8 15.9 7.2 34.2 1.5 40.7-12.8.8-1.9 1.5-3.9 1.8-6 11.9 1.3 21.9-3 25.6-10.9 5.2-11.4-3.9-26.8-20.3-34.2-.1 0-.1-.1-.2-.1 0-.1.1-.2.2-.3 5.6-12.3-2-27.7-16.8-34.5-3.6-1.7-7.5-2.7-11.3-3 1.4-13.1-7.2-26.5-21.2-32.9z"/><path class="st27" d="M278.5 635.5c18.8 7.6 39 4 47.8-8.5 4.3 3.7 9.4 6.8 14.9 9.1 22.4 9 46.3 2 53.4-15.7.1-.4.3-.8.4-1.2 15.9 4.7 31.9-1.6 37.2-14.8 5-12.5-1-27.3-14.5-35.4.2-.4.5-.9.7-1.4 3.5-8.8-3.4-19.9-15.5-24.8-5.3-2.1-10.9-2.8-15.8-2-4.1-13.6-15.2-25.2-29.9-31.2-8.9-3.6-18.6-4.8-27.6-3.5-4.5-7.3-11.9-13.4-20.7-16.9-11.6-4.7-24.3-4.5-33.9.6-3.4-2.7-7.3-4.9-11.3-6.5-20.2-8.1-41.8-1.6-48.4 14.6-.8 2.1-1.4 4.4-1.7 6.8-14.7-1.5-26.4 3.4-30.1 12.4-5.2 12.9 7.4 30.2 28.1 38.6.1 0 .2.1.3.1 0 .1-.1.2-.2.4-5.6 13.9 5.1 31.4 23.9 39 4.6 1.9 9.4 3 14.1 3.4-.7 14.5 11.1 29.8 28.8 36.9z"/><path class="st26" d="M89.9 649.7c25.6 4.9 50.5-6.9 59.1-28 6.3 4 13.4 6.9 20.9 8.3 30.4 5.9 59.4-12.2 64.8-40.4.1-.7.2-1.3.2-1.9 21.2 1.7 40.3-12.8 44.4-33.7 3.8-19.9-7-39.5-25.8-46.9.2-.7.4-1.5.5-2.2 2.7-14-8.5-27.9-24.9-31.1-7.1-1.4-14.4-.6-20.6 2.3-8-18.4-24.7-31.8-44.6-35.7-12.1-2.3-24.6-.9-35.9 3.9-7.3-9.2-17.9-15.6-29.8-17.9-15.8-3-31.9 1.4-43 12-4.9-2.8-10.3-4.8-15.8-5.8-27.4-5.3-53.6 11.3-58.6 37.1-.6 3.4-.9 6.9-.7 10.4-19 2.7-33 13.6-35.8 28-4 20.6 15.7 41.7 43.9 47.1.1 0 .2 0 .3.1 0 .2-.1.4-.2.6-4.3 22.2 13 44.1 38.5 49 6.2 1.2 12.6 1.3 18.7.3 2.1 21.6 20.3 39.9 44.4 44.5z"/><path class="st24" d="M464.7 434.2c-18 0-33.4 10.8-36.5 25.5-4.8-1.8-10-2.8-15.3-2.8-21.4 0-38.7 15.3-38.7 34.3 0 .4 0 .8.1 1.2-14.6 1.5-25.7 13.3-25.7 27.4 0 13.3 9.9 24.7 23.6 27.1 0 .5-.1 1-.1 1.5 0 9.4 9.4 17 21 17 5 0 9.9-1.4 13.7-4.1 7.9 10.9 20.9 17.5 35 17.5 8.5 0 16.9-2.5 23.9-7 6.2 5 14.2 7.9 22.6 7.9 11.1 0 21.5-4.9 27.6-13.1 3.7 1.2 7.6 1.8 11.5 1.8 19.3 0 35-14 35-31.4 0-2.3-.3-4.6-.9-6.8 12.6-4.1 20.6-12.9 20.7-22.6 0-13.8-16.1-25-36-25h-.2v-.4c0-14.9-14.6-26.9-32.6-26.9-4.4 0-8.7.7-12.7 2.2-4.3-13.8-19-23.3-36-23.3z"/><path class="st28" d="M370.2 344.4c-20.1 0-37.3 12-40.7 28.5-5.4-2.1-11.2-3.1-17-3.1-23.9 0-43.3 17.1-43.3 38.3 0 .5 0 .9.1 1.4-16.3 1.7-28.7 14.9-28.7 30.6 0 14.9 11.1 27.6 26.4 30.3 0 .5-.1 1.1-.1 1.7 0 10.5 10.5 19 23.5 19 5.6 0 11-1.6 15.3-4.6 8.8 12.2 23.4 19.6 39 19.6 9.5 0 18.8-2.8 26.7-7.9 6.9 5.6 15.9 8.8 25.3 8.8 12.4 0 24-5.5 30.9-14.7 4.1 1.3 8.5 2 12.8 2 21.6 0 39-15.7 39-35 0-2.5-.4-5.1-1-7.6 14.1-4.6 23-14.5 23.1-25.3 0-15.4-18-28-40.2-28h-.3v-.4c0-16.6-16.3-30.1-36.4-30.1-4.9 0-9.7.8-14.2 2.4-4.8-15.2-21.3-25.9-40.2-25.9z"/><path class="st25" d="M242.9 578.1c24.3 6.9 49.2-1.7 59-20.4 5.8 4.3 12.4 7.6 19.5 9.6 28.9 8.2 58.2-5.8 65.4-31.3.1-.6.3-1.1.4-1.7 20.3 3.6 39.8-8 45.2-27 5.1-18-3.9-37.2-21.5-45.7.2-.6.5-1.3.7-2 3.6-12.7-6.2-26.6-21.8-31-6.8-1.9-13.9-1.9-20 .2-6.4-17.8-21.5-31.7-40.4-37.1-11.5-3.3-23.7-3.1-34.9.3-6.4-9.2-16.1-16.1-27.5-19.3-15-4.3-30.9-1.6-42.3 7.1-4.5-3-9.5-5.3-14.8-6.8-26-7.4-52.5 5.5-59.2 28.8-.8 3.1-1.3 6.3-1.4 9.6-18.6.7-32.8 9.5-36.6 22.5-5.3 18.6 12.1 40 38.9 47.6.1 0 .2.1.3.1 0 .2-.2.4-.2.5-5.7 20.1 9.4 41.9 33.6 48.9 5.9 1.7 12 2.4 18 2 .6 20 16.8 38.6 39.6 45.1z"/><path class="st26" d="M222.6 312.4c-21.7 0-40.2 13-43.9 30.7-5.8-2.2-12.1-3.4-18.4-3.4-25.8 0-46.6 18.5-46.6 41.3 0 .5 0 1 .1 1.5-17.6 1.8-31 16-31 32.9 0 16.1 12 29.8 28.5 32.7 0 .6-.1 1.2-.1 1.8 0 11.3 11.3 20.5 25.3 20.5 6.1 0 11.9-1.7 16.4-4.9 9.5 13.2 25.2 21.1 42.1 21.1 10.3 0 20.3-3 28.8-8.5 7.4 6.1 17.1 9.5 27.2 9.5 13.4 0 25.9-5.9 33.3-15.8 4.4 1.4 9.1 2.2 13.8 2.2 23.2 0 42.1-16.9 42.1-37.8 0-2.7-.4-5.5-1.1-8.2 15.1-5 24.8-15.6 24.9-27.2 0-16.6-19.4-30.2-43.3-30.2h-.3v-.5c0-17.9-17.6-32.4-39.2-32.4-5.3 0-10.5.9-15.3 2.6-5.1-16.4-22.9-27.9-43.3-27.9z"/><path d="M49.9 267.9c-29.2 0-54.2 17.5-59.2 41.4-7.8-3-16.3-4.5-24.8-4.5-34.7 0-62.9 24.9-62.9 55.6.1.7.1 1.4.1 2-23.7 2.5-41.7 21.6-41.7 44.4 0 21.7 16.1 40.1 38.4 44-.1.8-.1 1.6-.1 2.5 0 15.2 15.3 27.6 34.1 27.6 8.2 0 16-2.3 22.2-6.6 12.8 17.8 34 28.5 56.7 28.5 13.9 0 27.4-4 38.8-11.4 10 8.2 23.1 12.8 36.7 12.8 18 0 34.9-8 44.9-21.3 6 1.9 12.3 2.9 18.6 2.9 31.3 0 56.7-22.8 56.7-50.9-.1-3.7-.5-7.5-1.4-11.1 20.4-6.7 33.5-21 33.5-36.7 0-22.4-26.2-40.6-58.4-40.6h-.4c0-.2.1-.5.1-.6 0-24.2-23.7-43.7-52.9-43.7-7.1 0-14.1 1.2-20.7 3.5-6.8-22.2-30.8-37.8-58.3-37.8z" fill="#171b33"/><path class="st27" d="M115.5 300.5c-26.9-7.5-54.5 2.1-65.2 22.9-6.4-4.8-13.8-8.4-21.7-10.6-32-9-64.4 6.7-72.3 35-.1.7-.3 1.3-.4 1.9-22.5-3.9-44.1 9.1-49.9 30.1-5.6 20 4.5 41.2 24 50.5-.3.7-.5 1.5-.8 2.2-3.9 14 7 29.4 24.3 34.3 7.5 2.1 15.4 2 22.1-.4 7.2 19.7 24 35 44.9 40.9 12.8 3.6 26.3 3.4 38.7-.5 7.1 10.1 18 17.7 30.5 21.2 16.6 4.7 34.2 1.7 46.9-8.1 5 3.3 10.6 5.9 16.4 7.5 28.9 8.1 58.2-6.3 65.4-32.3.9-3.4 1.4-7 1.5-10.6 20.5-.9 36.3-10.7 40.4-25.2 5.8-20.7-13.6-44.2-43.3-52.5-.1 0-.2-.1-.4-.1.1-.2.2-.4.2-.6 6.2-22.3-10.6-46.4-37.5-53.9-6.6-1.8-13.3-2.6-20-2.1-.4-22-18.5-42.5-43.8-49.6z"/><path class="st25" d="M71.7 377.9c-14.7-7.5-31.7-5-40.3 5.7-3.2-3.5-7-6.4-11.3-8.6-17.5-8.9-38-3.5-45.8 11.9-.1.4-.3.7-.4 1-12.6-4.8-26.5.2-32.3 11.7-5.5 10.9-2.1 24.3 8.1 31.9-.2.4-.5.8-.7 1.2-3.9 7.7.7 17.8 10.1 22.6 4.1 2.1 8.7 2.9 12.8 2.3 1.9 12.2 9.8 23 21.3 28.8 7 3.5 14.8 5 22.4 4.1 2.9 6.7 8.4 12.3 15.2 15.8 9.1 4.6 19.6 4.9 28 .7 2.5 2.5 5.5 4.6 8.6 6.2 15.8 8 34.3 3 41.5-11.1.9-1.9 1.6-3.9 2.1-5.9 12 1.8 22.2-2 26.2-9.9 5.7-11.3-2.8-27.1-19-35.4-.1 0-.1-.1-.2-.1 0-.1.1-.2.2-.3 6.2-12.2-.8-28-15.5-35.5-3.6-1.8-7.4-3-11.3-3.5 2.2-12.7-5.9-26.6-19.7-33.6z"/><path class="st28" d="M557 535.8c-16 0-29.6 6-32.3 14.3-4.2-1-8.9-1.6-13.5-1.6-19 0-34.3 8.6-34.3 19.1 0 .2 0 .5.1.7-13 .8-22.8 7.4-22.8 15.3 0 7.5 8.8 13.8 20.9 15.1 0 .3-.1.6-.1.8 0 5.2 8.4 9.5 18.6 9.5 4.5 0 8.7-.8 12.1-2.3 7 6.1 18.5 9.8 31 9.8 7.6 0 14.9-1.4 21.2-3.9 5.4 2.8 12.6 4.4 20 4.4 9.8 0 19-2.7 24.5-7.3 3.3.7 6.7 1 10.2 1 17.1 0 31-7.8 31-17.5 0-1.3-.3-2.6-.8-3.8 11.1-2.3 18.3-7.2 18.3-12.6 0-7.7-14.3-14-31.9-14h-.2v-.2c0-8.3-13-15-28.9-15-3.9 0-7.7.4-11.3 1.2-3.7-7.6-16.8-13-31.8-13z"/></g></svg>