<svg version="1.1" id="Слой_1" xmlns="http://www.w3.org/2000/svg" x="0" y="0" viewBox="0 0 1366 768" xml:space="preserve"><style>.st10{fill:#fcffdf}.st12{fill:#42210b}.st13{fill:#29abe2}.st16{fill:#d5ffff}.st26{fill:#3fa9c8}.st27{fill:none;stroke-miterlimit:10}.st27,.st30{stroke:#000}.st30,.st31,.st32,.st33{stroke-miterlimit:10}.st30{fill:#a67c52}.st31{fill:#006837;stroke:#333}.st32{fill:#8c6239;stroke:#000}.st33{fill:#009245;stroke:#333}.st35{fill:#a8ffff}.st36{fill:#22b573;stroke-miterlimit:10}.st36,.st38,.st39{stroke:#006837}.st38,.st39,.st40,.st41{stroke-miterlimit:10}.st38{fill:#8cc63f}.st39{fill:#39b54a}.st40{fill:#006837;stroke:#22b573}.st41{fill:#009245;stroke:#39b54a}</style><path d="M140.5 768.5c26.4-58.2 75.8-143.2 167-207 75.5-52.8 150.8-70.8 265-98 191.6-45.7 227-18 299-71 67.6-49.8 44.8-80.4 144-172 48-44.3 102.5-93.5 187-114 68.1-16.5 127.4-7.6 163 1v35c-26.7-4.5-73.7-8.7-128 7-79.1 22.9-125.8 74.5-143 94-34.9 39.5-29 52.3-75 120-27.6 40.7-54.5 80.3-94 115-56 49.2-115.5 69.4-217 104-88.6 30.2-121.9 31.5-148 67-27.2 36.9-26.9 84-22 119h-398z" fill="#8c6239" stroke="#42210b" stroke-width="2" stroke-miterlimit="10" id="road"/><g id="Слой_2_00000145744875120606664080000007245483590279098526_"><path class="st10" d="M45.6 398.5c-2.3 0-4.3-1.9-4.3-4.3V134c0-2.3 1.9-4.3 4.3-4.3h253c2.3 0 4.3 1.9 4.3 4.3v260.2c0 2.3-1.9 4.3-4.3 4.3h-253z"/><path d="M298.6 130.3c2.1 0 3.8 1.7 3.8 3.8v260.2c0 2.1-1.7 3.8-3.8 3.8h-253c-2.1 0-3.8-1.7-3.8-3.8V134c0-2.1 1.7-3.8 3.8-3.8h253m0-.9h-253c-2.6 0-4.8 2.1-4.8 4.8v260.2c0 2.6 2.1 4.8 4.8 4.8h253c2.6 0 4.8-2.1 4.8-4.8V134c0-2.6-2.2-4.7-4.8-4.7z"/><path fill="#736357" d="M23 133.3L175.7 17.6l152.8 115.7z"/><path d="M175.7 18.3l97.7 74 53.6 40.6H24.4L175.7 18.3m0-1.3C124.3 55.9 72.9 94.8 21.5 133.8H330C278.6 94.8 227.2 55.9 175.7 17z"/><path class="st12" d="M155.7 321.1h44.2v75.8h-44.2z"/><path d="M199.4 321.6v74.8h-43.2v-74.8h43.2m1-1h-45.2v76.8h45.2v-76.8z"/><path d="M191 368.3c-2.4 0-4.4-2-4.4-4.4s2-4.4 4.4-4.4 4.4 2 4.4 4.4-2 4.4-4.4 4.4z"/><path d="M191 360c2.1 0 3.9 1.7 3.9 3.9s-1.7 3.9-3.9 3.9c-2.1 0-3.9-1.7-3.9-3.9s1.8-3.9 3.9-3.9m0-1c-2.7 0-4.9 2.2-4.9 4.9s2.2 4.9 4.9 4.9 4.9-2.2 4.9-4.9-2.2-4.9-4.9-4.9z"/><path class="st13" d="M155.2 157.9h43.7v43.7h-43.7z"/><path d="M197.4 159.4v40.7h-40.7v-40.7h40.7m3-3h-46.7v46.7h46.7v-46.7z"/><path class="st13" d="M231.3 157.9H275v43.7h-43.7z"/><path d="M273.5 159.4v40.7h-40.7v-40.7h40.7m3-3h-46.7v46.7h46.7v-46.7z"/><path class="st13" d="M156 227.2h43.7v43.7H156z"/><path d="M198.2 228.7v40.7h-40.7v-40.7h40.7m3-3h-46.7v46.7h46.7v-46.7z"/><path class="st13" d="M232.1 227.2h43.7v43.7h-43.7z"/><path d="M274.3 228.7v40.7h-40.7v-40.7h40.7m3-3h-46.7v46.7h46.7v-46.7z"/><path class="st13" d="M70.8 157.9h43.7v43.7H70.8z"/><path d="M113 159.4v40.7H72.3v-40.7H113m3-3H69.3v46.7H116v-46.7z"/><path class="st13" d="M71.6 227.2h43.7v43.7H71.6z"/><path d="M113.8 228.7v40.7H73.1v-40.7h40.7m3-3H70.1v46.7h46.7v-46.7z"/><path class="st13" d="M71.6 296.5h43.7v43.7H71.6z"/><path d="M113.8 298v40.7H73.1V298h40.7m3-3H70.1v46.7h46.7V295z"/><path class="st13" d="M232.1 294.2h43.7v43.7h-43.7z"/><path d="M274.3 295.7v40.7h-40.7v-40.7h40.7m3-3h-46.7v46.7h46.7v-46.7z"/></g><g id="Слой_6"><path d="M748.3 275.1c-2.3 0-4.3-1.9-4.3-4.3V113.4c0-2.3 1.9-4.3 4.3-4.3h178.9c2.3 0 4.3 1.9 4.3 4.3v157.5c0 2.3-1.9 4.3-4.3 4.3l-178.9-.1z" fill="#ede6df"/><path d="M927.3 109.6c2.1 0 3.8 1.7 3.8 3.8v157.5c0 2.1-1.7 3.8-3.8 3.8h-179c-2.1 0-3.8-1.7-3.8-3.8V113.4c0-2.1 1.7-3.8 3.8-3.8h179m0-1h-179c-2.6 0-4.8 2.1-4.8 4.8v157.5c0 2.6 2.1 4.8 4.8 4.8h178.9c2.6 0 4.8-2.1 4.8-4.8V113.4c0-2.7-2.1-4.8-4.7-4.8z"/><path fill="#ad6357" d="M725.7 115.1l113.4-85.9 113.4 85.9z"/><path d="M839.1 29.9l56.8 43 55.1 41.7H727.2l111.9-84.7m0-1.3l-114.9 87H954l-114.9-87z"/><path class="st12" d="M858.5 199.3h44.2v75.8h-44.2z"/><path d="M902.2 199.8v74.8H859v-74.8h43.2m1-1H858v76.8h45.2v-76.8z"/><path d="M893.7 246.5c-2.4 0-4.4-2-4.4-4.4s2-4.4 4.4-4.4 4.4 2 4.4 4.4c0 2.4-1.9 4.4-4.4 4.4z"/><path d="M893.7 238.2c2.1 0 3.9 1.7 3.9 3.9s-1.7 3.9-3.9 3.9c-2.1 0-3.9-1.7-3.9-3.9s1.8-3.9 3.9-3.9m0-1c-2.7 0-4.9 2.2-4.9 4.9s2.2 4.9 4.9 4.9 4.9-2.2 4.9-4.9-2.2-4.9-4.9-4.9z"/><path class="st16" d="M773.3 133.4H819v45.7h-45.7z"/><path d="M818.5 133.9v44.7h-44.7v-44.7h44.7m1-1h-46.7v46.7h46.7v-46.7z"/><path class="st16" d="M773.3 202.7H819v45.7h-45.7z"/><path d="M818.5 203.2v44.7h-44.7v-44.7h44.7m1-1h-46.7v46.7h46.7v-46.7z"/><path class="st16" d="M856 130.9h45.7v45.7H856z"/><path d="M901.2 131.4v44.7h-44.7v-44.7h44.7m1-1h-46.7v46.7h46.7v-46.7z"/></g><g id="Слой_3"><path d="M430.5 424.4c-2.3 0-4.3-1.9-4.3-4.3v-176c0-2.3 1.9-4.3 4.3-4.3h211.7c2.3 0 4.3 1.9 4.3 4.3v176.1c0 2.3-1.9 4.3-4.3 4.3H430.5v-.1z" fill="#c7a899"/><path d="M642.2 240.3c2.1 0 3.8 1.7 3.8 3.8v176.1c0 2.1-1.7 3.8-3.8 3.8H430.5c-2.1 0-3.8-1.7-3.8-3.8V244.1c0-2.1 1.7-3.8 3.8-3.8h211.7m0-1H430.5c-2.6 0-4.8 2.1-4.8 4.8v176.1c0 2.6 2.1 4.8 4.8 4.8h211.7c2.6 0 4.8-2.1 4.8-4.8V244.1c-.1-2.6-2.2-4.8-4.8-4.8z"/><path fill="#603852" d="M413.1 256.2l124.1-134.9 124.1 134.9z"/><path d="M537.2 122.1l122.9 133.6H414.3l37.9-41.2 85-92.4m0-1.5C495.5 166 453.7 211.3 412 256.7h250.4C620.7 211.3 579 166 537.2 120.6z"/><path class="st12" d="M450.9 332.2h53.8v92.2h-53.8z"/><path d="M504.2 332.7v91.2h-52.8v-91.2h52.8m1-1h-54.8v93.2h54.8v-93.2z"/><path d="M461.8 389.7c-3 0-5.4-2.4-5.4-5.4s2.4-5.4 5.4-5.4 5.4 2.4 5.4 5.4-2.4 5.4-5.4 5.4z"/><path d="M461.8 379.3c2.7 0 4.9 2.2 4.9 4.9s-2.2 4.9-4.9 4.9-4.9-2.2-4.9-4.9 2.2-4.9 4.9-4.9m0-1c-3.3 0-5.9 2.7-5.9 5.9s2.7 5.9 5.9 5.9 5.9-2.7 5.9-5.9-2.6-5.9-5.9-5.9z"/><path fill="#2995e2" d="M531.8 286H624v92.2h-92.2z"/><path d="M623 287v90.2h-90.2V287H623m2-2h-94.2v94.2H625V285z"/><path d="M577.9 286v91.8M531.7 332h91.9" fill="none" stroke="#000" stroke-width="2" stroke-miterlimit="10"/></g><g id="Слой_1_00000011749765254506682270000017023031055885100987_"><path d="M657.8 722.5c-2.3 0-4.3-1.9-4.3-4.3V524.8c0-2.3 1.9-4.3 4.3-4.3h232.5c2.3 0 4.3 1.9 4.3 4.3v193.5c0 2.3-1.9 4.3-4.3 4.3l-232.5-.1z" fill="#c7b299"/><path d="M890.3 521c2.1 0 3.8 1.7 3.8 3.8v193.5c0 2.1-1.7 3.8-3.8 3.8H657.8c-2.1 0-3.8-1.7-3.8-3.8V524.8c0-2.1 1.7-3.8 3.8-3.8h232.5m0-1H657.8c-2.6 0-4.8 2.1-4.8 4.8v193.5c0 2.6 2.1 4.8 4.8 4.8h232.5c2.6 0 4.8-2.1 4.8-4.8V524.8c-.1-2.7-2.2-4.8-4.8-4.8z"/><path fill="#603813" d="M637 538.5l136-183.4 136 183.4z"/><path d="M773 356l135 182H638l75.1-101.3L773 356m0-1.7c-45.7 61.6-91.3 123.1-137 184.7h274c-45.7-61.6-91.3-123.1-137-184.7z"/><path class="st12" d="M808.5 621.5h59v101h-59z"/><path d="M867 622v100h-58V622h58m1-1h-60v102h60V621z"/><circle cx="855.5" cy="678.5" r="6"/><path d="M855.5 673c3 0 5.5 2.5 5.5 5.5s-2.5 5.5-5.5 5.5-5.5-2.5-5.5-5.5 2.5-5.5 5.5-5.5m0-1c-3.6 0-6.5 2.9-6.5 6.5s2.9 6.5 6.5 6.5 6.5-2.9 6.5-6.5-2.9-6.5-6.5-6.5z"/><path class="st13" d="M678.5 571.5h100v100h-100z"/><path d="M777 573v97h-97v-97h97m3-3H677v103h103V570z"/><path d="M728.5 571v100.5m50.5-70.2H678.5" stroke-width="3" fill="none" stroke="#000" stroke-miterlimit="10"/></g><g id="Слой_5"><path d="M1054 682.2c-2.3 0-4.3-1.9-4.3-4.3V526.4c0-2.3 1.9-4.3 4.3-4.3h219.2c2.3 0 4.3 1.9 4.3 4.3V678c0 2.3-1.9 4.3-4.3 4.3l-219.2-.1z" fill="#c7b799"/><path d="M1273.2 522.7c2.1 0 3.8 1.7 3.8 3.8V678c0 2.1-1.7 3.8-3.8 3.8H1054c-2.1 0-3.8-1.7-3.8-3.8V526.4c0-2.1 1.7-3.8 3.8-3.8l219.2.1m0-1H1054c-2.6 0-4.8 2.1-4.8 4.8V678c0 2.6 2.1 4.8 4.8 4.8h219.2c2.6 0 4.8-2.1 4.8-4.8V526.4c-.1-2.6-2.2-4.7-4.8-4.7z"/><path fill="#564c22" d="M1036.9 536.2L1164.4 391l127.5 145.2z"/><path d="M1164.4 391.7l50 57 76.4 87H1038l62.9-71.6 63.5-72.4m0-1.5c-42.9 48.8-85.7 97.7-128.6 146.5H1293c-42.9-48.8-85.7-97.7-128.6-146.5z"/><path class="st12" d="M1140.4 602.4h46.6v79.9h-46.6z"/><path d="M1186.5 602.9v78.9h-45.6v-78.9h45.6m1-1h-47.6v80.9h47.6v-80.9z"/><path d="M1177.6 652.1c-2.6 0-4.7-2.1-4.7-4.7s2.1-4.7 4.7-4.7 4.7 2.1 4.7 4.7c-.1 2.7-2.2 4.7-4.7 4.7z"/><path d="M1177.6 643.3c2.3 0 4.2 1.9 4.2 4.2s-1.9 4.2-4.2 4.2c-2.3 0-4.2-1.9-4.2-4.2s1.9-4.2 4.2-4.2m0-1c-2.8 0-5.2 2.3-5.2 5.2s2.3 5.2 5.2 5.2c2.8 0 5.2-2.3 5.2-5.2s-2.4-5.2-5.2-5.2z"/><path class="st26" d="M1068.8 585.4h57.1v57.1h-57.1z"/><path d="M1125.4 585.9V642h-56.1v-56.1h56.1m1-1h-58.1V643h58.1v-58.1z"/><path class="st27" d="M1097.3 585.5v56.7m28.6-39.6h-56.8"/><path class="st26" d="M1202.7 585.1h57.1v57.1h-57.1z"/><path d="M1259.3 585.6v56.1h-56.1v-56.1h56.1m1-1h-58.1v58.1h58.1v-58.1z"/><path class="st27" d="M1231.2 585.2v56.7m28.5-39.6H1203"/></g><g id="Слой_8"><path d="M41 588.2c-2.3 0-4.3-1.9-4.3-4.3V470.8c0-2.3 1.9-4.3 4.3-4.3h164.7c2.3 0 4.3 1.9 4.3 4.3V584c0 2.3-1.9 4.3-4.3 4.3L41 588.2z" fill="#e6b799"/><path d="M205.8 467c2.1 0 3.8 1.7 3.8 3.8V584c0 2.1-1.7 3.8-3.8 3.8H41c-2.1 0-3.8-1.7-3.8-3.8V470.8c0-2.1 1.7-3.8 3.8-3.8h164.8m0-1H41c-2.6 0-4.8 2.1-4.8 4.8V584c0 2.6 2.1 4.8 4.8 4.8h164.7c2.6 0 4.8-2.1 4.8-4.8V470.8c0-2.7-2.1-4.8-4.7-4.8z"/><path fill="#561522" d="M27.1 477L124 366.6 220.9 477z"/><path d="M124 367.4l58.5 66.7 37.2 42.4H28.2l85.9-97.8 9.9-11.3m0-1.5c-32.7 37.2-65.3 74.4-98 111.6h196c-32.7-37.2-65.3-74.4-98-111.6z"/><path class="st12" d="M105.9 527.6h35.3v60.6h-35.3z"/><path d="M140.6 528.1v59.6h-34.3v-59.6h34.3m1-1h-36.3v61.6h36.3v-61.6z"/><circle cx="134.1" cy="561.9" r="3.4"/><path d="M134.1 558.9c1.6 0 2.9 1.3 2.9 2.9s-1.3 2.9-2.9 2.9c-1.6 0-2.9-1.3-2.9-2.9s1.2-2.9 2.9-2.9m0-1c-2.2 0-3.9 1.8-3.9 3.9s1.8 3.9 3.9 3.9c2.2 0 3.9-1.8 3.9-3.9s-1.8-3.9-3.9-3.9z"/><path class="st26" d="M51.3 514.7h43.3V558H51.3z"/><path d="M94.1 515.2v42.3H51.8v-42.3h42.3m1-1H50.8v44.3h44.3v-44.3z"/><path class="st27" d="M72.9 514.6v43.2m21.8-30.1H51.5"/><path class="st26" d="M153.3 514.5h43.3v43.3h-43.3z"/><path d="M196.1 515v42.3h-42.3V515h42.3m1-1h-44.3v44.3h44.3V514z"/><path class="st27" d="M174.9 514.4v43.2m21.8-30.2h-43.2"/></g><g id="tree"><path class="st30" d="M352.1 390.5h-8.2c-3 0-5.4-2.4-5.4-5.4v-83.2c0-3 2.4-5.4 5.4-5.4h8.2c3 0 5.4 2.4 5.4 5.4v83.2c0 3-2.4 5.4-5.4 5.4z"/><path class="st31" d="M370.9 256.5c4.5 38.7-6.3 56.8-13.2 61-5.3 3.2-10.5 3-10.5 3s-5.3-.2-10.5-4c-18.6-13.6-13.2-60-13.2-60 2.3-19.6 10.8-64 23.7-64s21.4 44.2 23.7 64z"/><path class="st32" d="M710.1 272.5h-8.2c-3 0-5.4-2.4-5.4-5.4v-83.2c0-3 2.4-5.4 5.4-5.4h8.2c3 0 5.4 2.4 5.4 5.4v83.2c0 3-2.4 5.4-5.4 5.4z"/><path class="st33" d="M727.5 180.3s-3.8 14.7-11.8 19.3c-5.2 3-10.5 3-10.5 3s-5.3-.2-10.5-4c-15.3-11.2-13.2-60-13.2-60 .4-11 1.8-26.3 5.9-44.3.3-2.3 1.2-7.3 5-12 1.2-1.4 6-7.4 12.8-7.8 8.6-.5 14.9 8.5 17.2 11.8 5.4 7.6 6.8 15.1 8 37 1.7 28 .9 42.5-2.9 57z"/><path class="st30" d="M1302.1 733.5h-8.2c-3 0-5.4-2.4-5.4-5.4v-83.2c0-3 2.4-5.4 5.4-5.4h8.2c3 0 5.4 2.4 5.4 5.4v83.2c0 3-2.4 5.4-5.4 5.4z"/><path class="st31" d="M1320.9 599.5c4.5 38.7-6.3 56.8-13.2 61-5.3 3.2-10.5 3-10.5 3s-5.3-.2-10.5-4c-18.6-13.6-13.2-60-13.2-60 2.3-19.6 10.8-64 23.7-64s21.4 44.2 23.7 64z"/><path class="st32" d="M376.1 423.5h-8.2c-3 0-5.4-2.4-5.4-5.4v-83.2c0-3 2.4-5.4 5.4-5.4h8.2c3 0 5.4 2.4 5.4 5.4v83.2c0 3-2.4 5.4-5.4 5.4z"/><path class="st33" d="M393.5 331.3s-3.8 14.7-11.8 19.3c-5.2 3-10.5 3-10.5 3s-5.3-.2-10.5-4c-15.3-11.2-13.2-60-13.2-60 .4-11 1.8-26.3 5.9-44.3.3-2.3 1.2-7.3 5-12 1.2-1.4 6-7.4 12.8-7.8 8.6-.5 14.9 8.5 17.2 11.8 5.4 7.6 6.8 15.1 8 37 1.7 28 .9 42.5-2.9 57z"/><path class="st32" d="M1330.1 312.5h-8.2c-3 0-5.4-2.4-5.4-5.4v-83.2c0-3 2.4-5.4 5.4-5.4h8.2c3 0 5.4 2.4 5.4 5.4v83.2c0 3-2.4 5.4-5.4 5.4z"/><path class="st33" d="M1347.5 220.3s-3.8 14.7-11.8 19.3c-5.2 3-10.5 3-10.5 3s-5.3-.2-10.5-4c-15.3-11.2-13.2-60-13.2-60 .4-11 1.8-26.3 5.9-44.3.3-2.3 1.2-7.3 5-12 1.2-1.4 6-7.4 12.8-7.8 8.6-.5 14.9 8.5 17.2 11.8 5.4 7.6 6.8 15.1 8 37 1.7 28 .9 42.5-2.9 57z"/></g><g id="Слой_4"><path class="st10" d="M1071.3 338.5c-2.3 0-4.3-1.9-4.3-4.3V176.8c0-2.3 1.9-4.3 4.3-4.3h253c2.3 0 4.3 1.9 4.3 4.3v157.5c0 2.3-1.9 4.3-4.3 4.3l-253-.1z"/><path d="M1324.3 173c2.1 0 3.8 1.7 3.8 3.8v157.5c0 2.1-1.7 3.8-3.8 3.8h-253c-2.1 0-3.8-1.7-3.8-3.8V176.8c0-2.1 1.7-3.8 3.8-3.8h253m0-1h-253c-2.6 0-4.8 2.1-4.8 4.8v157.5c0 2.6 2.1 4.8 4.8 4.8h253c2.6 0 4.8-2.1 4.8-4.8V176.8c0-2.7-2.1-4.8-4.8-4.8z"/><path fill="#8a6357" d="M1049.1 178.5l152.4-85.9 152.3 85.9z"/><path d="M1201.4 93.1l150.5 84.9H1051l150.4-84.9m0-1.1c-51.4 29-102.8 58-154.3 87h308.5c-51.3-29-102.7-58-154.2-87z"/><path class="st12" d="M1181.4 262.7h44.2v75.8h-44.2z"/><path d="M1225.1 263.2V338h-43.2v-74.8h43.2m1-1h-45.2V339h45.2v-76.8z"/><path d="M1216.7 309.9c-2.4 0-4.4-2-4.4-4.4s2-4.4 4.4-4.4 4.4 2 4.4 4.4-2 4.4-4.4 4.4z"/><path d="M1216.7 301.6c2.1 0 3.9 1.7 3.9 3.9 0 2.1-1.7 3.9-3.9 3.9-2.1 0-3.9-1.7-3.9-3.9 0-2.1 1.8-3.9 3.9-3.9m0-1c-2.7 0-4.9 2.2-4.9 4.9s2.2 4.9 4.9 4.9 4.9-2.2 4.9-4.9-2.2-4.9-4.9-4.9z"/><path class="st35" d="M1203.5 242.5c-12.6 0-22.9-10.3-22.9-22.9 0-12.6 10.3-22.9 22.9-22.9s22.9 10.3 22.9 22.9-10.3 22.9-22.9 22.9z"/><path d="M1203.5 197.3c12.3 0 22.4 10 22.4 22.4 0 12.3-10 22.4-22.4 22.4-12.3 0-22.4-10-22.4-22.4.1-12.4 10.1-22.4 22.4-22.4m0-1c-12.9 0-23.4 10.5-23.4 23.4 0 12.9 10.5 23.4 23.4 23.4 12.9 0 23.4-10.5 23.4-23.4 0-13-10.5-23.4-23.4-23.4z"/><path class="st35" d="M1256.8 196.8h45.7v45.7h-45.7z"/><path d="M1302 197.3V242h-44.7v-44.7h44.7m1-1h-46.7V243h46.7v-46.7z"/><path class="st35" d="M1096.3 196.8h45.7v45.7h-45.7z"/><path d="M1141.5 197.3V242h-44.7v-44.7h44.7m1-1h-46.7V243h46.7v-46.7z"/><path class="st35" d="M1096.3 266.1h45.7v45.7h-45.7z"/><path d="M1141.5 266.6v44.7h-44.7v-44.7h44.7m1-1h-46.7v46.7h46.7v-46.7z"/><path class="st35" d="M1256.8 263.8h45.7v45.7h-45.7z"/><path d="M1302 264.3V309h-44.7v-44.7h44.7m1-1h-46.7V310h46.7v-46.7z"/></g><g id="Слой_10"><path class="st36" d="M344.6 133.6c-6.5-12.2-5.3-26.4 3.1-36.9 10.2-12.7 26.3-14 28.7-14.2-.8-2.2-4.7-13.7 2.1-24.6 6.6-10.6 22.4-19.3 37.3-13.5 12.8 5 20.1 18.8 16.1 32.3.3-3 1.5-9.2 6.7-14 8.9-8.4 24.7-8.3 34.2-3.1 17.6 9.6 14.2 36.9 13.1 45.7-1.2 10.1-4.5 18.2-7.3 23.6-44.6 1.6-89.3 3.2-134 4.7z"/><path d="M448.4 139.2c4.3-9.7 2.6-20.6-4.5-28.2-8.6-9.3-21-9.5-22.9-9.5.5-1.7 2.8-10.7-3-18.8-5.7-7.8-18.4-13.8-29.5-8.6-9.6 4.4-14.4 15.4-10.5 25.6-.4-2.3-1.7-7-6-10.5-7.4-6-19.5-5.2-26.5-.8-13 8.2-8.8 29.1-7.5 35.8 1.5 7.7 4.5 13.8 7 17.8 34.3-.9 68.9-1.9 103.4-2.8z" fill="#009245" stroke="#006837" stroke-miterlimit="10"/><path class="st38" d="M959.5 128.4c-.9-3.8-6.3-27.4 8.2-46.6 15.4-20.2 41-19.9 51.5-19.8 22.7.3 55.3 10.6 65.9 37.5 4.2 10.6 3.7 20.6 2.9 26.8-42.8.7-85.6 1.4-128.5 2.1z"/><path class="st39" d="M1110.8 128.2c.6-2.6 4.3-18.6-5.6-31.6-10.4-13.7-27.8-13.5-35-13.4-15.4.2-37.5 7.2-44.7 25.4-2.8 7.2-2.5 14-2 18.2 29.1.4 58.2.9 87.3 1.4z"/><path class="st40" d="M975.6 128.5c-.6-2.3-3.8-16.5 5-28.1 9.3-12.2 24.8-12 31.1-12 13.7.2 33.4 6.4 39.9 22.7 2.5 6.4 2.3 12.4 1.7 16.2l-77.7 1.2z"/><path class="st38" d="M1109.8 360.9c-.6-2.4-4.1-17.6 5.3-30 9.9-13 26.4-12.8 33.2-12.7 14.6.2 35.6 6.8 42.5 24.2 2.7 6.8 2.4 13.3 1.9 17.3-27.6.3-55.3.8-82.9 1.2z"/><path class="st40" d="M1120.2 361c-.4-1.5-2.5-10.7 3.2-18.1 6-7.9 16-7.8 20.1-7.7 8.8.1 21.5 4.1 25.7 14.6 1.6 4.1 1.5 8 1.1 10.4-16.7.3-33.4.5-50.1.8z"/><path class="st38" d="M526 428.1c-.6-2.5-4.1-17.9 5.4-30.5 10.1-13.3 26.9-13 33.8-13 14.9.2 36.2 7 43.2 24.6 2.8 6.9 2.5 13.5 1.9 17.6-28.1.4-56.2.9-84.3 1.3z"/><path class="st39" d="M625.2 428c.4-1.7 2.8-12.2-3.7-20.7-6.8-9-18.3-8.9-22.9-8.8-10.1.1-24.6 4.7-29.3 16.7-1.9 4.7-1.7 9.2-1.3 11.9 19.1.3 38.2.6 57.2.9z"/><path class="st38" d="M771.4 733c.8-2.6 5.7-19.2-7.4-32.6-13.9-14.2-37-14-46.5-13.9-20.5.2-49.9 7.4-59.5 26.3-3.8 7.4-3.4 14.4-2.6 18.8 38.7.4 77.4.9 116 1.4z"/><path class="st39" d="M634.9 732.8c-.6-1.8-3.9-13 5-22.1 9.4-9.6 25.1-9.5 31.5-9.4 13.9.1 33.8 5.1 40.4 17.8 2.6 5 2.3 9.8 1.8 12.7-26.2.4-52.4.7-78.7 1z"/><path class="st40" d="M756.9 733c.5-1.6 3.5-11.6-4.5-19.7-8.4-8.6-22.4-8.4-28.1-8.4-12.4.1-30.1 4.5-36 15.9-2.3 4.5-2 8.7-1.6 11.3 23.5.4 46.9.7 70.2.9z"/><path class="st41" d="M130.5 659.3c4.7-11.6 2.8-24.6-4.9-33.8-9.4-11.1-23-11.4-25-11.4.5-2.1 3.1-12.9-3.3-22.6C91 582.1 77.1 575 65 581.2c-10.5 5.3-15.7 18.5-11.5 30.7-.5-2.8-1.9-8.4-6.6-12.5-8-7.2-21.3-6.3-29-.9-14.2 9.8-9.6 34.9-8.2 42.9 1.7 9.2 4.9 16.5 7.6 21.4 37.8-1.2 75.5-2.3 113.2-3.5z"/><path class="st36" d="M1201 750.3c-5.2-10.7-4.3-23.3 2.5-32.5 8.2-11.2 21.1-12.4 23.1-12.5-.6-2-3.8-12.1 1.7-21.7 5.3-9.3 18-17 30-11.9 10.3 4.4 16.2 16.6 12.9 28.5.3-2.7 1.2-8.1 5.4-12.4 7.2-7.4 19.8-7.4 27.5-2.8 14.1 8.4 11.4 32.6 10.6 40.3-1 8.9-3.6 16-5.8 20.8-36 1.4-72 2.8-107.9 4.2zM688.7 307.1c-4.5-9.2-3.7-20 2.1-27.9 7-9.6 18.1-10.6 19.8-10.7-.6-1.7-3.2-10.4 1.4-18.6 4.5-8 15.5-14.6 25.8-10.3 8.8 3.8 13.9 14.2 11.1 24.5.2-2.3 1.1-6.9 4.7-10.6 6.2-6.3 17-6.3 23.6-2.4 12.1 7.2 9.8 28 9.1 34.6-.9 7.6-3.1 13.8-5 17.9-30.9 1.1-61.8 2.3-92.6 3.5z"/><path class="st41" d="M760.3 311.3c2.9-7.3 1.8-15.6-3.1-21.4-5.9-7-14.5-7.2-15.8-7.2.3-1.3 2-8.1-2.1-14.3-3.9-5.9-12.7-10.5-20.4-6.5-6.6 3.4-9.9 11.7-7.3 19.4-.3-1.8-1.2-5.3-4.1-7.9-5.1-4.6-13.4-4-18.3-.6-9 6.2-6.1 22.1-5.2 27.1 1.1 5.8 3.1 10.4 4.8 13.5 23.9-.6 47.7-1.4 71.5-2.1z"/><path class="st39" d="M356.7 405.6c.6-1.7 4.4-12.6-5.7-21.4-10.6-9.3-28.3-9.2-35.5-9.1-15.7.1-38.1 4.9-45.5 17.3-2.9 4.9-2.6 9.5-2 12.3 29.6.2 59.1.6 88.7.9z"/><path class="st36" d="M1328.8 439.7c4.8-9.8 3.9-21.3-2.3-29.8-7.5-10.3-19.4-11.3-21.2-11.5.6-1.8 3.5-11.1-1.5-19.9-4.8-8.6-16.5-15.6-27.5-11-9.4 4-14.8 15.2-11.8 26.1-.3-2.5-1.1-7.4-5-11.3-6.6-6.8-18.2-6.8-25.2-2.5-13 7.7-10.5 29.9-9.7 37 .9 8.2 3.3 14.7 5.4 19.1 32.9 1.3 65.8 2.6 98.8 3.8z"/><path class="st41" d="M1252.3 444.3c-3.1-7.8-1.9-16.6 3.3-22.8 6.3-7.5 15.5-7.7 16.9-7.7-.4-1.4-2.1-8.7 2.2-15.2 4.2-6.3 13.5-11.2 21.8-7 7.1 3.6 10.6 12.5 7.7 20.7.3-1.9 1.3-5.6 4.4-8.5 5.4-4.9 14.4-4.2 19.6-.6 9.6 6.6 6.5 23.5 5.5 29-1.1 6.2-3.3 11.1-5.1 14.4-25.4-.8-50.9-1.6-76.3-2.3z"/><path class="st40" d="M251 467.3c-.4-1.6-2.6-11.3 3.4-19.2 6.3-8.3 16.9-8.2 21.2-8.2 9.4.1 22.8 4.4 27.2 15.5 1.7 4.4 1.5 8.5 1.2 11-17.7.4-35.3.7-53 .9z"/><path class="st39" d="M316.3 485.1c.4-1.4 2.6-9.9-3.4-16.9-6.4-7.3-17.1-7.2-21.4-7.2-9.5.1-23 3.9-27.4 13.6-1.7 3.8-1.6 7.5-1.2 9.7 17.7.3 35.5.5 53.4.8z"/><path d="M1003.4 517c4.5-8.6 3.7-18.5-2.2-25.9-7.2-8.9-18.5-9.8-20.2-10 .6-1.6 3.3-9.6-1.5-17.3-4.6-7.4-15.8-13.6-26.2-9.5-9 3.5-14.1 13.2-11.3 22.7-.2-2.1-1.1-6.4-4.7-9.8-6.3-5.9-17.3-5.9-24.1-2.2-12.4 6.7-10 25.9-9.2 32.1.9 7.1 3.2 12.8 5.1 16.6 31.5 1.1 62.9 2.2 94.3 3.3z" fill="#00a99d" stroke="#006837" stroke-miterlimit="10"/></g></svg>