<svg xmlns="http://www.w3.org/2000/svg" viewBox="0 0 800 800"><path d="M400 197c112.5 0 203.3 90.8 203.3 203.3S512.5 603.5 400 603.5s-203.3-90.8-203.3-203.3S287.5 197 400 197" fill="#ffe19b"/><path d="M237.4 800h-2.7c-2.7-1.4-4.1-4.1-4.1-6.8v-2.7l23-55.6c1.4-4.1 5.4-5.4 9.5-4.1 2.7 1.4 4.1 4.1 4.1 6.8v2.7l-23 55.6c-1.4 2.7-4.1 4.1-6.8 4.1zm325.2-1.4c-2.7 0-5.4-1.4-6.8-4.1l-23-54.2v-2.7c0-2.7 1.4-5.4 4.1-6.8 4.1-1.4 6.8 0 9.5 4.1l23 54.2v2.7c0 2.7-1.4 5.4-4.1 6.8h-2.7zM400 772.9c-4.1 0-6.8-2.7-6.8-6.8V657.7c0-4.1 2.7-6.8 6.8-6.8s6.8 2.7 6.8 6.8v108.4c0 4.1-2.7 6.8-6.8 6.8zm119.2-78.6c-2.7 0-5.4-1.4-6.8-4.1l-20.3-50.1v-2.7c0-2.7 1.4-5.4 4.1-6.8 4.1-1.4 6.8 0 9.5 4.1l20.3 50.1v2.7c0 2.7-1.4 5.4-4.1 6.8h-2.7zm-238.4 0h-2.7c-2.7-1.4-4.1-4.1-4.1-6.8v-2.7l20.3-50.1c1.4-4.1 5.4-5.4 9.5-4.1 2.7 1.4 4.1 4.1 4.1 6.8v2.7l-20.3 50.1c-1.4 2.7-4.1 4.1-6.8 4.1zm-134.2-27.1c-1.4 0-4.1 0-5.4-1.4-1.4-1.4-1.4-2.7-1.4-5.4s0-4.1 1.4-5.4l77.2-77.2c2.7-2.7 6.8-2.7 9.5 0 1.4 1.4 1.4 2.7 1.4 5.4s0 4.1-1.4 5.4l-77.2 77.2c-1.4 1.4-2.7 1.4-4.1 1.4zm516.3 0c-1.4 0-4.1 0-5.4-1.4l-77.2-77.2c-1.4-1.4-1.4-2.7-1.4-5.4s0-4.1 1.4-5.4c2.7-2.7 6.8-2.7 9.5 0L667 655c1.4 1.4 1.4 2.7 1.4 5.4s0 4.1-1.4 5.4c-1.4 1.4-1.4 1.4-4.1 1.4zM400 610.3c-115.2 0-210-94.9-210-210s94.9-210 210-210 210 94.9 210 210-94.8 210-210 210zm0-406.5c-108.4 0-196.5 88.1-196.5 196.5S291.6 596.7 400 596.7s196.5-88.1 196.5-196.5S508.4 203.8 400 203.8zm393 365.8h-2.7l-55.6-23c-2.7-1.4-4.1-4.1-4.1-6.8v-2.7c1.4-4.1 5.4-5.4 9.5-4.1l55.6 23c2.7 1.4 4.1 4.1 4.1 6.8v2.7c-1.4 2.8-4.1 4.1-6.8 4.1zm-786 0c-2.7 0-5.4-1.4-6.8-4.1v-2.7c0-2.7 1.4-5.4 4.1-6.8l55.6-23c4.1-1.4 6.8 0 9.5 4.1v2.7c0 2.7-1.4 5.4-4.1 6.8l-55.6 23H7zm680.3-43.3h-2.7L634.5 506c-2.7-1.4-4.1-4.1-4.1-6.8v-2.7c1.4-4.1 5.4-5.4 9.5-4.1l50.1 20.3c2.7 1.4 4.1 4.1 4.1 6.8v2.7c-1.4 2.7-4.1 4.1-6.8 4.1zm-574.6 0c-2.7 0-5.4-1.4-6.8-4.1v-2.7c0-2.7 1.4-5.4 4.1-6.8l50.1-20.3c4.1-1.4 6.8 0 9.5 4.1v2.7c0 2.7-1.4 5.4-4.1 6.8l-50.1 20.3h-2.7zM765.9 407H657.5c-4.1 0-6.8-2.7-6.8-6.8s2.7-6.8 6.8-6.8h108.4c4.1 0 6.8 2.7 6.8 6.8-.1 4.1-2.8 6.8-6.8 6.8zm-623.4 0H34.1c-4.1 0-6.8-2.7-6.8-6.8s2.7-6.8 6.8-6.8h108.4c4.1 0 6.8 2.7 6.8 6.8s-2.7 6.8-6.8 6.8zm19-98.9h-2.7l-50.1-20.3c-2.7-1.4-4.1-4.1-4.1-6.8v-2.7c1.4-4.1 5.4-5.4 9.5-4.1l50.1 20.3c2.7 1.4 4.1 4.1 4.1 6.8v2.7c-1.4 2.8-4.1 4.1-6.8 4.1zm477 0c-2.7 0-5.4-1.4-6.8-4.1v-2.7c0-2.7 1.4-5.4 4.1-6.8l50.1-20.3c4.1-1.4 6.8 0 9.5 4.1v2.7c0 2.7-1.4 5.4-4.1 6.8l-50.1 20.3h-2.7zm98.9-40.6c-2.7 0-5.4-1.4-6.8-4.1v-2.7c0-2.7 1.4-5.4 4.1-6.8l55.6-23c4.1-1.4 6.8 0 9.5 4.1v2.7c0 2.7-1.4 5.4-4.1 6.8l-55.6 23h-2.7zm-674.8 0h-2.7l-55.6-23c-2.7-1.4-4.1-4.1-4.1-6.8V235c1.4-4.1 5.4-5.4 9.5-4.1l55.6 23c2.7 1.4 4.1 4.1 4.1 6.8v2.7c-2.7 2.7-4.1 4.1-6.8 4.1zM587 226.8c-1.4 0-4.1 0-5.4-1.4-1.4-1.4-1.4-2.7-1.4-5.4s0-4.1 1.4-5.4l66.4-66.4c2.7-2.7 6.8-2.7 9.5 0 1.4 1.4 1.4 2.7 1.4 5.4s0 4.1-1.4 5.4l-66.4 66.4c-1.4 1.4-2.7 1.4-4.1 1.4zm-364.5 0c-1.4 0-4.1 0-5.4-1.4l-77.2-77.2c-1.4-1.4-1.4-2.7-1.4-5.4s0-4.1 1.4-5.4c2.7-2.7 6.8-2.7 9.5 0l77.2 77.2c1.4 1.4 1.4 2.7 1.4 5.4s0 4.1-1.4 5.4c-1.4 1.4-2.8 1.4-4.1 1.4zm78.6-58.3c-2.7 0-5.4-1.4-6.8-4.1L274 114.3v-2.7c0-2.7 1.4-5.4 4.1-6.8 4.1-1.4 6.8 0 9.5 4.1l20.3 50.1v2.7c0 2.7-1.4 5.4-4.1 6.8h-2.7zm197.8 0h-2.7c-2.7-1.4-4.1-4.1-4.1-6.8V159l20.3-50.1c1.4-4.1 5.4-5.4 9.5-4.1 2.7 1.4 4.1 4.1 4.1 6.8v2.7l-20.3 50.1c-1.4 2.8-4.1 4.1-6.8 4.1zM400 149.6c-4.1 0-6.8-2.7-6.8-6.8V47.9c0-4.1 2.7-6.8 6.8-6.8s6.8 2.7 6.8 6.8v94.9c0 4.1-2.7 6.8-6.8 6.8zm-139.6-80c-2.7 0-5.4-1.4-6.8-4.1l-23-55.6V7.2c0-2.7 1.4-5.4 4.1-6.8 4.1-1.4 6.8 0 9.5 4.1l23 55.6v2.7c0 2.7-1.4 5.4-4.1 6.8-1.3-1.3-2.7 0-2.7 0zm279.2 0h-2.7c-2.7-1.4-4.1-4.1-4.1-6.8v-2.7l23-55.6c1.4-4.1 5.4-5.4 9.5-4.1 2.7 1.4 4.1 4.1 4.1 6.8v2.7l-23 55.6c-1.4 1.4-4.1 4.1-6.8 4.1z" fill="#fab900"/></svg>