<svg id="eT1efQXigu01" xmlns="http://www.w3.org/2000/svg" xmlns:xlink="http://www.w3.org/1999/xlink" viewBox="0 0 895 961.5" shape-rendering="geometricPrecision" text-rendering="geometricPrecision">
<style><![CDATA[
#eT1efQXigu0250_to {animation: eT1efQXigu0250_to__to 3000ms linear infinite normal forwards}@keyframes eT1efQXigu0250_to__to { 0% {transform: translate(527.350037px,355.959366px)} 50% {transform: translate(535.350037px,465.959366px)} 100% {transform: translate(535.350037px,465.959366px)}} #eT1efQXigu0250 {animation: eT1efQXigu0250_c_o 3000ms linear infinite normal forwards}@keyframes eT1efQXigu0250_c_o { 0% {opacity: 0} 33.333333% {opacity: 1} 50% {opacity: 0} 100% {opacity: 0}} #eT1efQXigu0255_to {animation: eT1efQXigu0255_to__to 3000ms linear infinite normal forwards}@keyframes eT1efQXigu0255_to__to { 0% {transform: translate(331.950012px,200.393608px)} 43.333333% {transform: translate(331.950012px,200.393608px)} 100% {transform: translate(306.950012px,355.393608px)}} #eT1efQXigu0255 {animation: eT1efQXigu0255_c_o 3000ms linear infinite normal forwards}@keyframes eT1efQXigu0255_c_o { 0% {opacity: 0} 43.333333% {opacity: 0} 50% {opacity: 1} 83.333333% {opacity: 0.99} 100% {opacity: 0}} #eT1efQXigu0260_to {animation: eT1efQXigu0260_to__to 3000ms linear infinite normal forwards}@keyframes eT1efQXigu0260_to__to { 0% {transform: translate(198.549995px,543.749359px)} 83.333333% {transform: translate(162.549995px,698.749359px)} 100% {transform: translate(162.549995px,698.749359px)}} #eT1efQXigu0260 {animation: eT1efQXigu0260_c_o 3000ms linear infinite normal forwards}@keyframes eT1efQXigu0260_c_o { 0% {opacity: 0} 16.666667% {opacity: 1} 76.666667% {opacity: 0.99} 83.333333% {opacity: 0} 100% {opacity: 0}} #eT1efQXigu0265_to {animation: eT1efQXigu0265_to__to 3000ms linear infinite normal forwards}@keyframes eT1efQXigu0265_to__to { 0% {transform: translate(651.149994px,367.665207px)} 66.666667% {transform: translate(651.149994px,367.665207px)} 100% {transform: translate(664.149994px,428.665207px)}} #eT1efQXigu0265 {animation: eT1efQXigu0265_c_o 3000ms linear infinite normal forwards}@keyframes eT1efQXigu0265_c_o { 0% {opacity: 0} 66.666667% {opacity: 0} 76.666667% {opacity: 1} 93.333333% {opacity: 0.99} 100% {opacity: 0}} #eT1efQXigu0270_to {animation: eT1efQXigu0270_to__to 3000ms linear infinite normal forwards}@keyframes eT1efQXigu0270_to__to { 0% {transform: translate(639.600006px,110.555878px)} 100% {transform: translate(698.600006px,312.555878px)}} #eT1efQXigu0270 {animation: eT1efQXigu0270_c_o 3000ms linear infinite normal forwards}@keyframes eT1efQXigu0270_c_o { 0% {opacity: 0} 16.666667% {opacity: 1} 83.333333% {opacity: 0.99} 100% {opacity: 0}} #eT1efQXigu0275_to {animation: eT1efQXigu0275_to__to 3000ms linear infinite normal forwards}@keyframes eT1efQXigu0275_to__to { 0% {transform: translate(444.550003px,623.993073px)} 66.666667% {transform: translate(444.550003px,774.993073px)} 100% {transform: translate(444.550003px,774.993073px)}} #eT1efQXigu0275 {animation: eT1efQXigu0275_c_o 3000ms linear infinite normal forwards}@keyframes eT1efQXigu0275_c_o { 0% {opacity: 0.02} 56.666667% {opacity: 1} 66.666667% {opacity: 0} 100% {opacity: 0}} #eT1efQXigu0281_to {animation: eT1efQXigu0281_to__to 3000ms linear infinite normal forwards}@keyframes eT1efQXigu0281_to__to { 0% {transform: translate(216.808281px,221.853058px)} 16.666667% {transform: translate(216.808281px,221.853058px)} 83.333333% {transform: translate(167.808281px,421.853058px)} 100% {transform: translate(167.808281px,421.853058px)}} #eT1efQXigu0281 {animation: eT1efQXigu0281_c_o 3000ms linear infinite normal forwards}@keyframes eT1efQXigu0281_c_o { 0% {opacity: 0} 16.666667% {opacity: 0} 33.333333% {opacity: 1} 76.666667% {opacity: 0.99} 83.333333% {opacity: 0} 100% {opacity: 0}} #eT1efQXigu0284_to {animation: eT1efQXigu0284_to__to 3000ms linear infinite normal forwards}@keyframes eT1efQXigu0284_to__to { 0% {transform: translate(348.107788px,559.730865px)} 33.333333% {transform: translate(348.107788px,559.730865px)} 66.666667% {transform: translate(333.107788px,752.730865px)} 100% {transform: translate(333.107788px,752.730865px)}} #eT1efQXigu0284 {animation: eT1efQXigu0284_c_o 3000ms linear infinite normal forwards}@keyframes eT1efQXigu0284_c_o { 0% {opacity: 0} 33.333333% {opacity: 0} 50% {opacity: 1} 66.666667% {opacity: 0} 100% {opacity: 0}} #eT1efQXigu0287_to {animation: eT1efQXigu0287_to__to 3000ms linear infinite normal forwards}@keyframes eT1efQXigu0287_to__to { 0% {transform: translate(78.048183px,684.527649px)} 6.666667% {transform: translate(78.048183px,684.527649px)} 43.333333% {transform: translate(37.048183px,839.527649px)} 100% {transform: translate(37.048183px,839.527649px)}} #eT1efQXigu0287 {animation: eT1efQXigu0287_c_o 3000ms linear infinite normal forwards}@keyframes eT1efQXigu0287_c_o { 0% {opacity: 0} 6.666667% {opacity: 0} 13.333333% {opacity: 1} 30% {opacity: 0.99} 43.333333% {opacity: 0} 100% {opacity: 0}} #eT1efQXigu0290_to {animation: eT1efQXigu0290_to__to 3000ms linear infinite normal forwards}@keyframes eT1efQXigu0290_to__to { 0% {transform: translate(274.131897px,38.767623px)} 50% {transform: translate(274.131897px,38.767623px)} 100% {transform: translate(256.131897px,122.767623px)}} #eT1efQXigu0290 {animation: eT1efQXigu0290_c_o 3000ms linear infinite normal forwards}@keyframes eT1efQXigu0290_c_o { 0% {opacity: 0} 50% {opacity: 0} 80% {opacity: 1} 100% {opacity: 0}} #eT1efQXigu0293_to {animation: eT1efQXigu0293_to__to 3000ms linear infinite normal forwards}@keyframes eT1efQXigu0293_to__to { 0% {transform: translate(718.099121px,635.903015px)} 16.666667% {transform: translate(718.099121px,635.903015px)} 83.333333% {transform: translate(742.099121px,745.903015px)} 100% {transform: translate(742.099121px,745.903015px)}} #eT1efQXigu0293 {animation: eT1efQXigu0293_c_o 3000ms linear infinite normal forwards}@keyframes eT1efQXigu0293_c_o { 0% {opacity: 0} 16.666667% {opacity: 0} 66.666667% {opacity: 1} 83.333333% {opacity: 0} 100% {opacity: 0}} #eT1efQXigu0296_to {animation: eT1efQXigu0296_to__to 3000ms linear infinite normal forwards}@keyframes eT1efQXigu0296_to__to { 0% {transform: translate(559.627197px,199.816841px)} 66.666667% {transform: translate(572.627197px,285.816841px)} 100% {transform: translate(572.627197px,285.816841px)}} #eT1efQXigu0296 {animation: eT1efQXigu0296_c_o 3000ms linear infinite normal forwards}@keyframes eT1efQXigu0296_c_o { 0% {opacity: 0} 13.333333% {opacity: 1} 53.333333% {opacity: 0.99} 66.666667% {opacity: 0} 100% {opacity: 0}} #eT1efQXigu0299_to {animation: eT1efQXigu0299_to__to 3000ms linear infinite normal forwards}@keyframes eT1efQXigu0299_to__to { 0% {transform: translate(242.329857px,373.555008px)} 43.333333% {transform: translate(240.329857px,477.555008px)} 100% {transform: translate(240.329857px,477.555008px)}} #eT1efQXigu0299 {animation: eT1efQXigu0299_c_o 3000ms linear infinite normal forwards}@keyframes eT1efQXigu0299_c_o { 0% {opacity: 0} 16.666667% {opacity: 1} 43.333333% {opacity: 0} 100% {opacity: 0}} #eT1efQXigu0302_to {animation: eT1efQXigu0302_to__to 3000ms linear infinite normal forwards}@keyframes eT1efQXigu0302_to__to { 0% {transform: translate(749.518585px,469.445618px)} 26.666667% {transform: translate(749.518585px,469.445618px)} 93.333333% {transform: translate(786.518585px,603.445618px)} 100% {transform: translate(786.518585px,603.445618px)}} #eT1efQXigu0302 {animation: eT1efQXigu0302_c_o 3000ms linear infinite normal forwards}@keyframes eT1efQXigu0302_c_o { 0% {opacity: 0} 26.666667% {opacity: 0} 53.333333% {opacity: 1} 93.333333% {opacity: 0} 100% {opacity: 0}} #eT1efQXigu0305_to {animation: eT1efQXigu0305_to__to 3000ms linear infinite normal forwards}@keyframes eT1efQXigu0305_to__to { 0% {transform: translate(541.760437px,524.80542px)} 33.333333% {transform: translate(541.760437px,524.80542px)} 83.333333% {transform: translate(553.760437px,647.80542px)} 100% {transform: translate(553.760437px,647.80542px)}} #eT1efQXigu0305 {animation: eT1efQXigu0305_c_o 3000ms linear infinite normal forwards}@keyframes eT1efQXigu0305_c_o { 0% {opacity: 0} 33.333333% {opacity: 0} 50% {opacity: 1} 83.333333% {opacity: 0} 100% {opacity: 0}}
]]></style>
<defs><path id="eT1efQXigu02" d="M390.5,890.3c-4.5-.4-11.2-.1-18.4-4.6-17-10.5-27.1-35.3-34-50.4-1.4-3.1-.2-3.6,2-3c3.7,1,10.1,5,11.2,5.8c29.1,19.7,47.5,38.7,49.6,45.3c2.2,7-7.6,7.2-10.4,6.9v0Z"/><path id="eT1efQXigu03" d="M376.4,895c2.2-6.6,20.5-25.6,49.6-45.3c1.1-.8,7.5-4.8,11.2-5.8c2.2-.6,3.4-.1,2,3-7,15.2-17,39.9-34,50.4-7.2,4.4-13.9,4.1-18.4,4.6-2.9.3-12.7.1-10.4-6.9v0Z"/><path id="eT1efQXigu04" d="M365.7,887c-3.5.8-8.5,2.7-15,1.1-15.5-3.8-29.1-20.1-38.1-29.8-1.8-2-1-2.7.8-2.8c3-.2,8.8,1.3,9.9,1.6c26.9,7.8,45.4,17.7,48.7,22.2c3.3,4.6-4.1,7.2-6.3,7.7v0Z"/><path id="eT1efQXigu05" d="M356.2,894c0-5.5,9.2-24.4,26.4-46.5.7-.9,4.5-5.5,7.1-7.1c1.5-1,2.6-.9,2.3,1.8-1.6,13.2-3.1,34.4-13.4,46.5-4.3,5.1-9.5,6.5-12.8,8-2.1.9-9.6,3.2-9.6-2.7v0Z"/><path id="eT1efQXigu06" d="M415.2,886.7c3.4,1.2,8.1,3.8,14.8,3c15.8-1.7,31.5-16.1,41.7-24.6c2.1-1.7,1.4-2.5-.4-2.8-3-.5-8.9.2-10,.3-27.7,4.2-47.3,11.6-51.1,15.6-4.1,4.2,2.9,7.7,5,8.5v0Z"/><path id="eT1efQXigu07" d="M423.7,894.9c.7-5.5-6-25.4-20.2-49.5-.5-.9-3.8-6-6.1-8-1.4-1.2-2.4-1.2-2.5,1.5-.2,13.3-1.4,34.5,7.3,47.9c3.6,5.6,8.6,7.7,11.7,9.6c1.9,1.1,9.1,4.3,9.8-1.5v0Z"/></defs><g><path d="M427.7,798.9c60.5-3.3,202.5-7.5,260.8,8.8c25.7,7.2,108.4,1.6,132.2,13.6c17.8,9,52.2,34.3,59.9,52.7c7.6,18.1-23.1,50.9-39,58.3-40,18.7-122.9,19.9-175.3,19.9-89.3,0-357.2,0-357.2,0s-171.8,10.4-229,9.1c-39.5-.9-68.8-5.6-73-24.4C0.9,909.5,44.6,871.1,82,853c1.3-.6,111.6-36.4,113-36.8c129.7-31.2,190.7-15,232.7-17.3Z" fill="#95c242"/></g><g><g><path d="M696.4,926.3l16.9,3.5c-8.1-47.5,23.7-49.5,39.6-48.5-44.5-12.5-46.4-3.4-56.5,45Z" fill="#7fa538" stroke="#297524" stroke-width="2" stroke-miterlimit="10"/><path d="M675.9,875c3.3,1.3,23.7,23,15.5,50.2l14.9,3.1c6.2-29.3-3.1-46.8-30.4-53.3Z" fill="#7fa538" stroke="#297524" stroke-width="2" stroke-miterlimit="10"/><path d="M680.1,897.2c1.9.8,13.8,12.8,9.2,27.6l8.6,1.8c3.4-16.1-2.1-25.7-17.8-29.4Z" fill="#7fa538" stroke="#297524" stroke-width="2" stroke-miterlimit="10"/><path d="M707.7,928.3l8.5,1.8c-4.8-20,10.9-20.2,18.8-19.6-22.3-5.9-23.1-2.2-27.3,17.8Z" fill="#7fa538" stroke="#297524" stroke-width="2" stroke-miterlimit="10"/><path d="M679,913.4c2.4.6,18.2,7.7,15.3,13.3l10.4,2.2c1.4-6.4-6.6-11.4-25.7-15.5Z" fill="#7fa538" stroke="#297524" stroke-width="2" stroke-miterlimit="10"/><path d="M724.6,923.9c-1.9-.3-15.8.2-15.6,5.9l-8.3-1.7c1.2-5.8,8.7-7.3,23.9-4.2Z" fill="#7fa538" stroke="#297524" stroke-width="2" stroke-miterlimit="10"/></g><g><path d="M456,698.4c18.5,5,54.7,23.4,33.9,121.2h20.4c0-107.6,0-127.9-54.3-121.2Z" fill="#96c241" stroke="#3daa36" stroke-width="2" stroke-miterlimit="10"/><path d="M498.2,819.6h18c-2.9-61.6,25.8-98.8,29.9-100.2-32.9,1.7-47.9,34.8-47.9,100.2Z" fill="#96c241" stroke="#3daa36" stroke-width="2" stroke-miterlimit="10"/><path d="M508.4,819.6h10.3c-1.7-33.7,14.8-54.1,17.2-54.8-18.9.9-27.5,19-27.5,54.8Z" fill="#96c241" stroke="#3daa36" stroke-width="2" stroke-miterlimit="10"/><path d="M469.6,768.8c9.2,2.1,27.3,9.7,17,50.1h10.2c-.1-44.5-.1-52.9-27.2-50.1Z" fill="#96c241" stroke="#3daa36" stroke-width="2" stroke-miterlimit="10"/></g><g><path d="M286.1,840.8h34c-34.7-132.4,25.8-157.2,56.7-164-90.7-9.1-90.7,18.4-90.7,164Z" fill="#96c241" stroke="#3daa36" stroke-width="2" stroke-miterlimit="10"/><path d="M226.2,705.2c7,1.8,54.8,52.3,50,135.6h30c0-88.5-25-133.3-80-135.6Z" fill="#96c241" stroke="#3daa36" stroke-width="2" stroke-miterlimit="10"/><path d="M243.2,766.6c4,1,31.6,28.6,28.8,74.2h17.3c0-48.4-14.4-73-46.1-74.2Z" fill="#96c241" stroke="#3daa36" stroke-width="2" stroke-miterlimit="10"/><path d="M308.8,839.9h17c-17.3-54.7,12.9-65,28.3-67.8-45.3-3.8-45.3,7.6-45.3,67.8Z" fill="#96c241" stroke="#3daa36" stroke-width="2" stroke-miterlimit="10"/></g><g><path d="M678.2,816.3h20.3c-20.7-97.8,15.5-116.2,33.9-121.2-54.2-6.7-54.2,13.7-54.2,121.2Z" fill="#c3d337" stroke="#3daa36" stroke-width="2" stroke-miterlimit="10"/><path d="M642.4,716.2c4.2,1.3,32.8,38.6,29.9,100.2h17.9c.1-65.4-14.9-98.6-47.8-100.2Z" fill="#c3d337" stroke="#3daa36" stroke-width="2" stroke-miterlimit="10"/><path d="M652.6,761.5c2.4.7,18.9,21.1,17.2,54.8h10.3c0-35.7-8.6-53.9-27.5-54.8Z" fill="#c3d337" stroke="#3daa36" stroke-width="2" stroke-miterlimit="10"/><path d="M691.8,815.7h10.2c-10.4-40.5,7.7-48,17-50.1-27.2-2.8-27.2,5.6-27.2,50.1Z" fill="#c3d337" stroke="#3daa36" stroke-width="2" stroke-miterlimit="10"/></g><g><path d="M205.3,806.3c-.5,0-5.5.4-10.7-1.5-4.6-1.8-12.3-6.7-11.3-19.7.1-1.8,1.5-3.3,3.3-3.6.5-.1,5.3-.7,10.5,1.2v0c3.4,1.3,6.1,3.4,8.1,6.3c2.4,3.5,3.6,7.9,3.7,13.3-.1,2.1-1.6,3.8-3.6,4Z" fill="#76b835"/><path d="M205.2,789.1c-2-2.9-4.7-5-8.1-6.3v0c-5.1-2-9.9-1.3-10.5-1.2-1.8.3-3.2,1.7-3.3,3.6-.1,1.4-.1,2.7,0,4c2,0,4.6.3,7.4,1.4v0c3.4,1.3,6.1,3.4,8.1,6.3c1.8,2.6,3,5.8,3.4,9.6c1.7.1,2.9,0,3.1,0c2-.2,3.6-1.9,3.5-3.9c0-5.6-1.3-10-3.6-13.5Z" fill="#5fad30"/><path d="M207.9,862.5c-2,0-3.5-1.6-3.5-3.5v-98.2c0-2,1.6-3.5,3.5-3.5c2,0,3.5,1.6,3.5,3.5v98.2c.1,2-1.5,3.5-3.5,3.5Z" fill="#97c45b"/><path d="M230,781.5c-.5,0-5.5-.4-10.7,1.5-4.6,1.8-12.3,6.7-11.3,19.7.1,1.8,1.5,3.3,3.3,3.6.5.1,5.3.7,10.5-1.2v0c3.4-1.3,6.1-3.4,8.1-6.3c2.4-3.5,3.6-7.9,3.7-13.3c0-2.2-1.6-3.9-3.6-4Z" fill="#76b835"/><path d="M226.2,790.5c2.6-1,5.2-1.4,7.1-1.5.1-1.2.2-2.4.2-3.6c0-2-1.5-3.7-3.5-3.9-.5,0-5.5-.4-10.7,1.5-4.6,1.8-12.3,6.7-11.3,19.7.1,1.8,1.5,3.3,3.3,3.6.3,0,1.6.2,3.5.1.7-10.2,7.2-14.3,11.4-15.9Z" fill="#5fad30"/><path d="M201.3,751.4c-13.2,31.8-41.1,3.8-9.3-9.3-31.8,13.2-31.8-26.3,0-13.2-31.8-13.2-3.8-41.1,9.3-9.3-13.2-31.8,26.3-31.8,13.2,0c13.2-31.8,41.1-3.8,9.3,9.3c31.8-13.2,31.8,26.3,0,13.2c31.8,13.2,3.8,41.1-9.3,9.3c13.2,31.8-26.3,31.8-13.2,0Z" fill="#ffe477"/><g><path d="M200.5,717.5c.5,1.3.8,2.2.8,2.2l6.6,15.9l6.6-15.9c0,0,.6-1.8,1.6-4.5c7.6-26.6-25.6-25.8-15.6,2.3Z" fill="#ffcd07"/><path d="M189.9,742.9c1.3-.5,2.2-.8,2.2-.8l15.9-6.6-16-6.5c0,0-1.8-.6-4.5-1.6-26.5-7.6-25.7,25.5,2.4,15.5Z" fill="#ffcd07"/><path d="M215.3,753.6c-.5-1.3-.8-2.2-.8-2.2l-6.6-15.9-6.6,15.9c0,0-.6,1.8-1.6,4.5-7.5,26.5,25.6,25.8,15.6-2.3Z" fill="#ffcd07"/><path d="M226,728.1c-1.3.5-2.2.8-2.2.8l-15.9,6.6l15.9,6.6c0,0,1.8.6,4.5,1.6c26.5,7.6,25.8-25.6-2.3-15.6Z" fill="#ffcd07"/></g><circle r="7.5" transform="translate(207.9 735.5)" fill="#fff"/></g><g><path d="M722.4,820.7c-8.2,16.6,5.3,43.8,5.3,43.8l4.5-2C727.7,821,762.5,789,762.5,789s-28.2,7-40.1,31.7Z" fill="#86be50"/><path d="M669.5,736.6l62.6,125.9-10.2,4.6-52.4-130.5Z" fill="#75a843"/><path d="M715.2,775.1c10.1,22.4,3.8,36.7-9.3,42.5s-27.9,1-37.9-21.3c-10.1-22.4,1.6-59.6,1.6-59.6s35.5,16,45.6,38.4v0Z" fill="#46083b"/><path d="M693.7,772c38.6,5.4,30.3,41.4,13.2,49.1s-38.8-3.6-48.6-25.4-.7-46.8-.7-46.8s7.7,19.2,36.1,23.1" fill="#6a175e"/><path d="M680.1,778.1c-21.6,32.4,10.8,50.2,27.9,42.5s23.1-31.4,13.3-53.2-34.2-31.6-34.2-31.6s9,18.5-7,42.3" fill="#852077"/><path d="M690.1,830.3c19.5,7.4,36.8,34.6,36.8,34.6l-9.8,4.4c-32.3-30-83.1-39.7-83.1-39.7s36.7-6.5,56.1.7Z" fill="#86be50"/></g><g><g><path d="M157.5,862.6c7,14.3-4.5,37.7-4.5,37.7l-3.8-1.7c3.8-35.7-26.1-63.3-26.1-63.3s24.2,6.1,34.4,27.3Z" fill="#86be50"/><path d="M203,790.3L149.1,898.7l8.8,3.9L203,790.3Z" fill="#75a843"/><path d="M163.8,823.3c-8.7,19.3-3.2,31.6,8,36.6s24,.9,32.7-18.4-1.4-51.3-1.4-51.3-30.7,13.9-39.3,33.1v0Z" fill="#46083b"/><path d="M182.2,820.7c-33.2,4.7-26.1,35.6-11.4,42.2s33.4-3.1,41.8-21.8.6-40.3.6-40.3-6.5,16.5-31,19.9" fill="#6a175e"/><path d="M194,826c18.6,27.9-9.3,43.2-24,36.6s-19.9-27-11.4-45.8c8.4-18.7,29.5-27.2,29.5-27.2s-7.9,15.9,5.9,36.4" fill="#852077"/><path d="M185.4,870.9c-16.8,6.4-31.7,29.8-31.7,29.8l8.4,3.8c27.8-25.8,71.5-34.2,71.5-34.2s-31.6-5.6-48.2.6Z" fill="#86be50"/></g><g><path d="M128,869.4c14.9,5.6,22.6,30.6,22.6,30.6l-4,1.4c-21.7-28.7-62.4-28.2-62.4-28.2s21.8-12.2,43.8-3.8Z" fill="#86be50"/><path d="M111.5,785.5l35,115.9l9.1-3.1-44.1-112.8Z" fill="#75a843"/><path d="M105.6,836.5c6.9,20,19.3,25.2,30.9,21.2s18.1-15.8,11.2-35.8-36.2-36.4-36.2-36.4-12.8,31-5.9,51v0Z" fill="#c8ab07"/><path d="M117.2,821.9c-21,26.2,5.4,43.8,20.7,38.6s22.2-25.1,15.5-44.6c-6.7-19.4-27.2-29.8-27.2-29.8s6.5,16.6-9,35.8" fill="#debc04"/><path d="M129.4,817.7c32.7,7.6,22.8,37.8,7.6,43.1s-33-6.1-39.7-25.5s2.8-40,2.8-40s5.2,16.9,29.3,22.4" fill="#fed500"/><path d="M153.9,856.3c-7.8,16.1-2.7,43.4-2.7,43.4l8.7-3c2.5-37.8,28.7-73.9,28.7-73.9s-26.8,17.6-34.7,33.5Z" fill="#86be50"/></g></g><g><g><path d="M595.2,777.4c-.2.3-.4.7-.8.9-36.9,22-50-17-52.7-26.8-.3-1.1.5-2.2,1.7-2.3c2.4-.1,4.6-.1,6.8-.1c34,.8,43.1,21.4,45,27c.2.4.1.9,0,1.3Z" fill="#a9cb57"/><path d="M665.3,774.7c-1.4,5.3-5.9,19-15.4,27.1-8.2,7-20.2,9.8-37.2-.4-.7-.4-1.1-1.3-.8-2.1c1.2-3.6,5.4-13.4,17.2-20.1c7.8-4.4,18.9-7.6,34.6-6.8c1.1,0,1.9,1.1,1.6,2.3Z" fill="#a9cb57"/></g><g><path d="M595.2,777.4c-.2.3-.4.7-.8.9-36.9,22-50-17-52.7-26.8-.3-1.1.5-2.2,1.7-2.3c2.4-.1,4.6-.1,6.8-.1c4.8,13.6,17.5,38.7,45,28.3Z" fill="#92b83d"/><path d="M649.9,801.8c-8.2,7-20.2,9.8-37.2-.4-.7-.4-1.1-1.3-.8-2.1c1.2-3.6,5.4-13.4,17.2-20.1-8.3,7.9-10.1,16.3-10.1,16.3c12.8,8,23,9,30.9,6.3Z" fill="#92b83d"/></g><path d="M601.5,829.9c-.7,0-1.3-.2-1.9-.6-1.6-1.1-1.9-3.2-.9-4.7l2.8-4.1c0,0,0,0,.1-.1s8.7-12.3,6.1-22.1c-.8-3-3.6-5.3-6.6-7.7-6-4.9-14.3-11.5-3.5-26.6c4.6-6.5,3.6-12.8,3.5-13.4l-.7-3.2c-.4-1.8.7-3.7,2.6-4.1c1.8-.4,3.7.7,4.1,2.6l.8,3.3c0,0,0,0,0,.1.1.4,1.9,9.6-4.7,18.7-7,9.8-3.7,12.5,2.3,17.3c3.5,2.9,7.6,6.1,8.9,11.3c3.4,12.8-6.4,26.8-7.1,27.8l-2.8,4.1c-.8.8-1.9,1.4-3,1.4Z" fill="#7d9e2e"/><path d="M620.5,661.9c0,10.2-9.3,18.5-16.2,18.5-7,0-16.2-8.3-16.2-18.5s3.2-18.5,16.2-18.5s16.2,8.3,16.2,18.5Z" fill="#ebe5dd"/><path d="M620.5,661.9c0,10.2-9.3,18.5-16.2,18.5-7,0-16.2-8.3-16.2-18.5s3.2-18.5,16.2-18.5s16.2,8.3,16.2,18.5Z" fill="#fff3dd"/><path d="M610.7,678.4c-2.1,1.3-4.4,2-6.4,2-7,0-16.2-8.3-16.2-18.5s3.2-18.5,16.2-18.5c2.5,0,4.6.3,6.4.8-7.7,2.4-9.8,9.4-9.8,17.7c0,7.2,4.6,13.5,9.8,16.5Z" fill="#f0dfc0"/><path d="M568.2,683.6c7.2,7.2,19.7,6.5,24.6,1.6s5.6-17.3-1.6-24.6-15.3-10.8-24.6-1.6-5.6,17.3,1.6,24.6Z" fill="#fff3dd"/><path d="M587.1,688.3c-5.8,1.6-13.7.5-18.8-4.7-7.2-7.2-10.8-15.3-1.6-24.6c5.9-5.9,11.4-6.6,16.4-4.4-1.9.9-3.9,2.3-6,4.4-9.2,9.2-5.6,17.3,1.6,24.6c2.4,2.3,5.3,3.9,8.4,4.7Z" fill="#f0dfc0"/><path d="M640.4,683.6c-7.2,7.2-19.7,6.5-24.6,1.6s-5.6-17.3,1.6-24.6s15.3-10.8,24.6-1.6c9.2,9.2,5.6,17.3-1.6,24.6Z" fill="#fff3dd"/><path d="M634,687.6c-6.7,2.5-14.5,1.2-18.2-2.5-4.9-4.9-5.6-17.3,1.6-24.6c5-5,10.5-8.3,16.5-6.7-2.5,1.3-4.9,3.2-7.2,5.5-7.2,7.2-6.5,19.7-1.6,24.6c2,2.1,5.3,3.4,8.9,3.7Z" fill="#f0dfc0"/><path d="M639.1,712.9c-10.2,0-18.5-9.3-18.5-16.2s8.3-16.2,18.5-16.2s18.5,3.2,18.5,16.2-8.3,16.2-18.5,16.2Z" fill="#fff3dd"/><path d="M651,710.4c-3.2,1.8-7.4,2.5-11.9,2.5-10.2,0-18.5-9.3-18.5-16.2s8.3-16.2,18.5-16.2c.3,0,.7,0,1.1,0-5.7,3.2-9.6,9-9.6,13.8c0,7,8.3,16.2,18.5,16.2.6,0,1.2,0,1.9-.1Z" fill="#f0dfc0"/><path d="M617.4,732.7c-7.2-7.2-6.5-19.7-1.6-24.6s17.3-5.6,24.6,1.6s10.8,15.3,1.6,24.6c-9.3,9.2-17.4,5.6-24.6-1.6Z" fill="#fff3dd"/><path d="M637.6,737.8c-7.4,4.5-14.1,1-20.2-5.1-7.2-7.2-6.5-19.7-1.6-24.6c3.2-3.2,9.5-4.6,15.5-3.3-1.4.6-2.6,1.4-3.6,2.3-4.9,4.9-5.6,17.3,1.6,24.6c2.7,2.7,5.4,4.9,8.3,6.1Z" fill="#f0dfc0"/><path d="M620.5,731.4c0-10.2-9.3-18.5-16.2-18.5-7,0-16.2,8.3-16.2,18.5s3.2,18.5,16.2,18.5c13.1,0,16.2-8.3,16.2-18.5Z" fill="#fff3dd"/><path d="M610,749.3c-1.6.4-3.5.7-5.7.7-13.1,0-16.2-8.3-16.2-18.5s9.3-18.5,16.2-18.5c1.8,0,3.8.5,5.7,1.5-5.5,2.9-10.6,9.4-10.6,17c0,8.4,2.2,15.6,10.6,17.8Z" fill="#f0dfc0"/><path d="M591.2,732.7c7.2-7.2,6.5-19.7,1.6-24.6s-17.3-5.6-24.6,1.6-10.8,15.3-1.6,24.6c9.3,9.2,17.4,5.6,24.6-1.6Z" fill="#fff3dd"/><path d="M576.6,734.3c2.1,2.1,4.2,3.6,6.2,4.5-5,2.1-10.4,1.4-16.2-4.5-9.2-9.2-5.6-17.3,1.6-24.6c5.1-5.1,12.8-6.3,18.6-4.8-3.1.8-6.2,2.3-8.6,4.8-7.2,7.3-10.8,15.4-1.6,24.6Z" fill="#f0dfc0"/><path d="M569.5,712.9c10.2,0,18.5-9.3,18.5-16.2s-8.3-16.2-18.5-16.2-18.5,3.2-18.5,16.2s8.3,16.2,18.5,16.2Z" fill="#fff3dd"/><path d="M573.1,712.5c-1.2.3-2.3.4-3.6.4-10.2,0-18.5-3.2-18.5-16.2s8.3-16.2,18.5-16.2c1.2,0,2.4.1,3.6.4-7.6,1.2-13,5.2-13,15.9s5.5,14.6,13,15.7Z" fill="#f0dfc0"/><circle r="21.4" transform="translate(604.3 696.6)" fill="#e86f22"/><path d="M621.6,709.2c-3.9,5.4-10.2,8.8-17.3,8.8-11.8,0-21.4-9.6-21.4-21.4c0-8.6,5.1-16.1,12.5-19.4-2.6,3.5-4.1,7.8-4.1,12.5c0,11.8,9.6,21.4,21.4,21.4c3.2,0,6.2-.7,8.9-1.9Z" fill="#c9581d"/><circle r="3.4" transform="translate(604.3 696.6)" fill="#fff3dd"/></g><g><path d="M622.7,884.4c-12.3,10.2-11.4,36.4-11.4,36.4h4.2c11.2-34.3,49.9-47.2,49.9-47.2s-24.6-4.4-42.7,10.8Z" fill="#86be50"/><path d="M610.8,799.5l4.8,121.3h-9.6l4.8-121.3Z" fill="#75a843"/><path d="M633.1,845.9c0,21.2-10,30.2-22.3,30.2s-22.3-9-22.3-30.2s22.3-46.4,22.3-46.4s22.3,25.2,22.3,46.4v0Z" fill="#ab2166"/><path d="M617.3,835.9c28.5,17.9,9.2,43.3-6.9,43.3-16.2,0-29.3-16.6-29.3-37.2s16-37.2,16-37.2-.8,18,20.2,31.1" fill="#d33877"/><path d="M604.4,835.9c-28.5,17.9-9.2,43.3,6.9,43.3c16.2,0,29.3-16.6,29.3-37.2s-15.8-37-15.8-37s.6,17.8-20.4,30.9" fill="#e84e88"/><path d="M593.8,880.6c12.7,12.7,16.8,40.3,16.8,40.3h-9.2c-14.8-35-51.4-60.7-51.4-60.7s31.1,7.8,43.8,20.4Z" fill="#86be50"/></g><g><g><path d="M741.9,755.9c17.3,4.8,19.6,18.7,16.6,29.3-8.2-2.3-21.4-11.9-16.6-29.3" fill="#83c284"/><path d="M809.5,749.9c-17.3-4.8-26.4,6-29.3,16.6c8.3,2.3,24.5.7,29.3-16.6" fill="#83c284"/></g><g><path d="M763.7,799c-.4-.1-.8-.4-1.2-.7-5.3-5.5-6.5-12.3-6.6-12.6-.3-1.4.7-2.8,2.2-3.1c1.4-.3,2.8.7,3.1,2.2c0,0,1,5.5,5.2,9.8c1,1,1,2.7-.1,3.7-.7.7-1.7,1-2.6.7" fill="#4daf50"/><path d="M758.2,826.4c-1.3-.4-2.1-1.7-1.9-3c4.2-24.3,14.4-69.5,24.1-87.4.7-1.3,2.3-1.8,3.6-1.1s1.8,2.3,1.1,3.6c-8.8,16.5-19.1,60.1-23.5,85.8-.3,1.4-1.6,2.4-3.1,2.2-.1-.1-.2-.1-.3-.1" fill="#4daf50"/></g><path d="M771.2,691.9c-4.6-1.3-9.2,1.5-10.5,6.1s1.3,9.4,5.9,10.6c.9.3,2.6.3,2.6.3-4.2,2.4-6.8,7-3.8,12.2c2.9,5.1,8.2,5.3,12.4,3c.1,0-.8,1.5-1,2.4-1.3,4.6,1.5,9.2,6.1,10.5s9.4-1.3,10.6-5.9c.3-.9.3-2.6.3-2.5c2.4,4.2,7.2,6.8,12.4,3.9c5.3-3,5.1-8.3,2.8-12.5c0,0,1.4.8,2.4,1c4.6,1.3,9.4-1.4,10.7-6.1c1.3-4.6-1.4-9.4-6.1-10.7-.9-.3-2.6-.3-2.6-.3c4.2-2.4,7.1-6.9,4.1-12.3-3-5.3-8.5-5.2-12.7-2.8-.1,0,.8-1.5,1-2.4c1.3-4.6-1.4-9.4-6.1-10.7-4.6-1.3-9.4,1.4-10.7,6.1-.3.9-.3,2.6-.3,2.5-2.4-4.2-6.7-7.1-12.1-4-5.3,3-5.4,8.4-3,12.6-.1.1-1.5-.8-2.4-1" fill="#4da0d9"/><path d="M769.7,774.6c-.5-.1-.9-.4-1.3-.8-1-1.1-.9-2.8.2-3.7c5.8-5.1,10.5-6.1,11.1-6.2c1.4-.3,2.8.7,3.1,2.1s-.7,2.8-2.1,3.1c0,0-3.8.8-8.5,4.9-.7.6-1.6.8-2.5.6" fill="#4daf50"/><path d="M783.6,704.2c-1.2,4.2,1.3,8.6,5.5,9.8s8.6-1.3,9.8-5.5-1.3-8.6-5.5-9.8-8.7,1.3-9.8,5.5" fill="#fff"/></g><g><path d="M755.5,833.5c-16.2,6-24.4,33.1-24.4,33.1l4.3,1.5c23.5-31,67.5-30.5,67.5-30.5s-23.6-13.2-47.4-4.1Z" fill="#86be50"/><path d="M773.2,742.8L735.3,868.1l-9.8-3.4l47.7-121.9Z" fill="#75a843"/><path d="M779.6,798c-7.5,21.6-20.9,27.3-33.4,22.9-12.6-4.3-19.6-17.1-12.1-38.7s39.1-39.4,39.1-39.4s13.9,33.6,6.4,55.2v0Z" fill="#c8ab07"/><path d="M767.1,782.2c22.7,28.3-5.9,47.4-22.3,41.7s-24-27.2-16.7-48.2s29.4-32.2,29.4-32.2-7.2,17.9,9.6,38.7" fill="#debc04"/><path d="M753.9,777.6c-35.4,8.2-24.7,40.9-8.2,46.6s35.7-6.5,42.9-27.5c7.3-21-3.1-43.2-3.1-43.2s-5.6,18.2-31.6,24.1" fill="#fed500"/><path d="M727.4,819.4c8.5,17.4,2.9,46.9,2.9,46.9l-9.4-3.3c-2.8-40.9-31-79.9-31-79.9s29,19.1,37.5,36.3Z" fill="#86be50"/></g><g><path d="M418.2,711.2c0-1.2-4.3-3.3-11.2-3.3s-11.2,2.1-11.2,3.3s4.3,3.3,11.2,3.3s11.2-2.2,11.2-3.3Z" fill="#fdcc68"/><path d="M407.9,719.5c.8-.8,1.7-1.6,2.6-2.3-1.1.1-2.3.2-3.5.2-.9,0-1.9,0-2.8-.1-2.5,1.8-3,3.2-2.9,3.4.1.3,1.7,1,5.2.4.4-.5.9-1.1,1.4-1.6Z" fill="#cdcc34"/><path d="M409.9,700.8c4,4,7.8,5.8,9.6,5.8.2,0,.6,0,.7-.2.8-.8-.7-5.4-5.6-10.3-4-4-7.8-5.8-9.6-5.8-.2,0-.6,0-.7.2-.3.3-.4,1.4.5,3.4c1.1,2.1,2.9,4.6,5.1,6.9Z" fill="#fdcc68"/><path d="M442.2,702.8c-.8.8-1.7,1.6-2.6,2.3c1.1-.1,2.3-.2,3.5-.2.9,0,1.9,0,2.8.1c2.5-1.8,3-3.2,2.9-3.4-.1-.3-1.7-1-5.2-.4-.4.6-.9,1.1-1.4,1.6Z" fill="#cdcc34"/><path d="M433.4,694c.7-.7,1.4-1.3,2.1-1.9.5-3.1-.1-4.4-.4-4.5s-1.9.5-3.9,3.4c0,.7.1,1.4.1,2.1c0,1.2-.1,2.3-.2,3.5.7-.9,1.5-1.7,2.3-2.6Z" fill="#cdcc34"/><path d="M416.7,694c.8.8,1.6,1.7,2.3,2.6-.1-1.1-.2-2.3-.2-3.5c0-.9,0-1.9.1-2.8-1.8-2.5-3.2-3-3.4-2.9-.3.1-1,1.7-.4,5.2.6.4,1.1.9,1.6,1.4Z" fill="#cdcc34"/><path d="M416.7,728.3c-.7.7-1.4,1.3-2.1,1.9-.5,3.1.1,4.4.4,4.5s1.9-.5,3.9-3.4c0-.7-.1-1.4-.1-2.1c0-1.2.1-2.3.2-3.5-.7.9-1.5,1.8-2.3,2.6Z" fill="#cdcc34"/><path d="M425,704.4c1.2,0,3.3-4.3,3.3-11.2s-2.1-11.2-3.3-11.2-3.3,4.3-3.3,11.2s2.2,11.2,3.3,11.2Z" fill="#fdcc68"/><path d="M404.9,705c.7,0,1.4-.1,2.1-.1c1.2,0,2.3.1,3.5.2-.9-.7-1.7-1.5-2.6-2.3-.7-.7-1.3-1.4-1.9-2.1-3.1-.5-4.4.1-4.5.4-.2.3.5,1.9,3.4,3.9Z" fill="#cdcc34"/><path d="M445.2,717.3c-.7,0-1.4.1-2.1.1-1.2,0-2.3-.1-3.5-.2.9.7,1.7,1.5,2.6,2.3.7.7,1.3,1.3,1.9,2.1c3.1.5,4.4-.1,4.5-.4s-.5-1.8-3.4-3.9Z" fill="#cdcc34"/><path d="M433.4,728.3c-.8-.8-1.6-1.7-2.3-2.6.1,1.1.2,2.3.2,3.5c0,.9,0,1.9-.1,2.8c1.8,2.5,3.2,3,3.4,2.9.3-.1,1-1.7.4-5.2-.6-.4-1.1-.9-1.6-1.4Z" fill="#cdcc34"/><path d="M430.6,715.8c-.2,0-.6,0-.7.2-.3.3-.4,1.4.5,3.4c1,2.2,2.8,4.6,5.1,6.9c4,4,7.8,5.8,9.6,5.8.2,0,.6,0,.7-.2.8-.8-.7-5.4-5.6-10.3-4-4-7.8-5.8-9.6-5.8Z" fill="#fdcc68"/><path d="M446.2,708c-.1,0-.1,0,0,0-1-.1-2-.2-3.1-.2-7,0-11.2,2.1-11.2,3.3s4.3,3.3,11.2,3.3s11.2-2.1,11.2-3.3c0-.9-3-2.6-8.1-3.1Z" fill="#fdcc68"/><path d="M425,707.3c-2.2,0-3.9,1.8-3.9,3.9s1.8,3.9,3.9,3.9s3.9-1.8,3.9-3.9c0-2.2-1.7-3.9-3.9-3.9Z" fill="#ec6669"/><path d="M426.5,781.9c2.1-2.5,5.1-6.5,7.6-10.8.4-.7,1.3-.9,2-.5s.9,1.3.5,2c-3.9,6.7-8.7,12.3-10.1,13.8v.6c14.1-4.7,18.4-28.4,19.5-37.7-15.6,14.9-19.2,30.1-19.5,31.6v1v0Z" fill="#669934"/><path d="M425,718c-1.2,0-3.3,4.3-3.3,11.2s2.1,11.2,3.3,11.2s3.3-4.3,3.3-11.2-2.1-11.2-3.3-11.2Z" fill="#fdcc68"/><path d="M430.6,706.5c1.8,0,5.6-1.8,9.6-5.8c4.9-4.9,6.4-9.5,5.6-10.3-.2-.2-.5-.2-.7-.2-1.5,0-4.2,1.2-7.3,3.7c0,0,0,0,0,0-.7.6-1.5,1.3-2.2,2-2.3,2.3-4.1,4.7-5.1,6.9-.9,2-.8,3.1-.5,3.4c0,.3.4.3.6.3Z" fill="#fdcc68"/><path d="M419.5,715.8c-1.8,0-5.6,1.8-9.6,5.8-2.3,2.3-4.1,4.7-5.1,6.9-.9,2-.8,3.1-.5,3.4.2.2.5.2.7.2c1.8,0,5.6-1.8,9.6-5.8c4.9-4.9,6.4-9.5,5.6-10.3-.1-.2-.5-.2-.7-.2Z" fill="#fdcc68"/><path d="M449.7,705.6c1.8-1.8,2.4-3.6,1.8-5.1-.7-1.7-2.6-2.5-5.4-2.5c2.6-3.8,3.7-7.7,1.7-9.7-.5-.5-1.3-1-2.8-1-1.8,0-4,.9-6.5,2.4c0-2.5-.8-4.2-2.3-4.9-1.6-.7-3.6.1-5.5,2.1-.9-4.5-2.8-8-5.7-8-2.8,0-4.6,3.2-5.5,7.5-1.8-1.8-3.6-2.4-5.1-1.8-1.7.7-2.5,2.6-2.5,5.4-2.6-1.7-5-2.7-6.9-2.7-1.4,0-2.3.6-2.8,1-1,1-1.8,2.9,0,6.6.4.8.9,1.7,1.4,2.6-2.5,0-4.2.8-4.8,2.3-.7,1.6.1,3.6,2.1,5.5-4.5.9-8,2.8-8,5.7c0,2.8,3.3,4.6,7.5,5.5-1.8,1.8-2.4,3.6-1.8,5.1.7,1.6,2.5,2.5,5.2,2.5.1,0,.1,0,.2,0-.7,1-1.3,2.1-1.7,3-1.7,3.8-.9,5.7,0,6.6.5.5,1.3,1,2.8,1c1.8,0,4-.9,6.5-2.4c0,2.5.8,4.2,2.3,4.9.4.2.8.3,1.3.3c1.3,0,2.8-.8,4.3-2.3.7,3.7,2.1,6.8,4.2,7.7v63.4c0,.8.7,1.5,1.5,1.5s1.5-.7,1.5-1.5v-16.3c8.3-2.3,14.9-10.5,19-23.9c3.2-10.3,3.8-20,3.8-20.4c0-.6-.3-1.1-.8-1.4s-1.2-.2-1.6.2c-11.4,9.9-17.4,20.2-20.4,27.3v-28.8c2-.9,3.3-3.7,4.1-7.2c1.3,1.3,2.7,2,3.9,2c.4,0,.8-.1,1.2-.2c1.7-.7,2.5-2.6,2.5-5.4c2.6,1.7,5,2.7,6.9,2.7c1.4,0,2.3-.6,2.8-1c2-2,1-5.6-1.4-9.2c2.5,0,4.2-.8,4.8-2.3.7-1.6-.1-3.6-2.1-5.5c4.5-.9,8-2.8,8-5.7-.2-2.8-3.4-4.6-7.7-5.6Zm-.9-4c.1.3-.4,1.6-2.9,3.4-.9-.1-1.9-.1-2.8-.1-1.2,0-2.3.1-3.5.2.9-.7,1.7-1.5,2.6-2.3.5-.5,1-1,1.4-1.5c3.6-.7,5.1,0,5.2.3ZM431.2,691c2-2.9,3.6-3.5,3.9-3.4s.9,1.4.4,4.5c-.7.6-1.4,1.2-2.1,1.9-.8.8-1.6,1.7-2.3,2.6.1-1.1.2-2.3.2-3.5c0-.7-.1-1.4-.1-2.1Zm-6.2-9.1c1.2,0,3.3,4.3,3.3,11.2s-2.1,11.2-3.3,11.2-3.3-4.3-3.3-11.2s2.2-11.2,3.3-11.2Zm-9.5,5.5c.3-.1,1.6.4,3.4,2.9-.1.9-.1,1.9-.1,2.8c0,1.2.1,2.3.2,3.5-.7-.9-1.5-1.8-2.3-2.6-.5-.5-1-1-1.5-1.4-.7-3.5,0-5.1.3-5.2Zm-11.2,3.1c.2-.2.5-.2.7-.2c1.8,0,5.6,1.8,9.6,5.8c4.9,4.9,6.4,9.5,5.6,10.3-.2.2-.5.2-.7.2-1.8,0-5.6-1.8-9.6-5.8-2.3-2.3-4.1-4.7-5.1-6.9-.8-2-.7-3.2-.5-3.4Zm-2.8,10.6c.1-.3,1.4-.9,4.5-.4.6.7,1.2,1.4,1.9,2.1.8.8,1.7,1.6,2.6,2.3-1.1-.1-2.3-.2-3.5-.2-.7,0-1.4,0-2.1.1-2.9-2-3.6-3.6-3.4-3.9Zm-5.7,10.1c0-1.2,4.3-3.3,11.2-3.3s11.2,2.1,11.2,3.3-4.3,3.3-11.2,3.3c-7,0-11.2-2.2-11.2-3.3Zm5.5,9.5c-.1-.3.4-1.6,2.9-3.4.9.1,1.9.1,2.8.1c1.2,0,2.3-.1,3.5-.2-.9.7-1.7,1.5-2.6,2.3-.5.5-1,1-1.4,1.5-3.6.7-5.1,0-5.2-.3Zm17.6,10.6c-2,2.9-3.6,3.5-3.9,3.4s-.9-1.4-.4-4.5c.7-.6,1.4-1.2,2.1-1.9.8-.8,1.6-1.7,2.3-2.6-.1,1.1-.2,2.3-.2,3.5c0,.7,0,1.4.1,2.1Zm-4.3-5c-4,4-7.8,5.8-9.6,5.8-.2,0-.6,0-.7-.2-.3-.3-.4-1.4.5-3.4c1-2.2,2.8-4.6,5.1-6.9c4-4,7.8-5.8,9.6-5.8.2,0,.6,0,.7.2.9.8-.7,5.3-5.6,10.3Zm31.4,23c-1.1,9.3-5.4,33-19.5,37.7v-.6c1.4-1.5,6.2-7.1,10.1-13.8.4-.7.2-1.6-.5-2s-1.6-.2-2,.5c-2.5,4.4-5.5,8.3-7.6,10.8v-1c.3-1.5,3.9-16.7,19.5-31.6Zm-21-8.8c-1.2,0-3.3-4.3-3.3-11.2s2.1-11.2,3.3-11.2s3.3,4.3,3.3,11.2-2.1,11.2-3.3,11.2Zm0-25.4c-2.2,0-3.9-1.8-3.9-3.9s1.8-3.9,3.9-3.9s3.9,1.8,3.9,3.9-1.7,3.9-3.9,3.9Zm5.4-12.1c1-2.2,2.8-4.6,5.1-6.9.8-.8,1.5-1.4,2.2-2c0,0,0,0,0,0c3.1-2.5,5.8-3.7,7.3-3.7.2,0,.6,0,.7.2.8.8-.7,5.4-5.6,10.3-4,4-7.8,5.8-9.6,5.8-.2,0-.6,0-.7-.2-.2-.4-.3-1.5.6-3.5Zm4.2,31.9c-.3.1-1.6-.4-3.4-2.9.1-.9.1-1.9.1-2.8c0-1.2-.1-2.3-.2-3.5.7.9,1.5,1.7,2.3,2.6.5.5,1,1,1.5,1.4.7,3.6,0,5.1-.3,5.2Zm11.1-3c-.2.2-.5.2-.7.2-1.8,0-5.6-1.8-9.6-5.8-2.3-2.3-4.1-4.7-5.1-6.9-.9-2-.8-3.1-.5-3.4.2-.2.5-.2.7-.2c1.8,0,5.6,1.8,9.6,5.8c5,4.9,6.5,9.5,5.6,10.3Zm2.9-10.7c-.1.3-1.4.9-4.5.4-.6-.7-1.2-1.4-1.9-2.1-.8-.8-1.7-1.6-2.6-2.3c1.1.1,2.3.2,3.5.2.7,0,1.4,0,2.1-.1c2.9,2.1,3.5,3.6,3.4,3.9Zm-5.5-6.7c-7,0-11.2-2.1-11.2-3.3s4.3-3.3,11.2-3.3c1.1,0,2.1,0,3,.1c0,0,0,0,.1,0c5.1.5,8.2,2.2,8.2,3.2-.1,1.1-4.3,3.3-11.3,3.3Z" fill="#673434"/></g><g><g><path d="M390.5,890.3c-4.5-.4-11.2-.1-18.4-4.6-17-10.5-27.1-35.3-34-50.4-1.4-3.1-.2-3.6,2-3c3.7,1,10.1,5,11.2,5.8c29.1,19.7,47.5,38.7,49.6,45.3c2.2,7-7.6,7.2-10.4,6.9v0Z" fill="#7db441"/><g><g><g clip-path="url(#eT1efQXigu0147)"><path d="M405.3,892c0-16.9-8.6-21.5-8.6-21.5-27.7-33.8-60.2-43.9-60.2-43.9l-.3,6.8c7.1.3,43.9,33.5,54,47.6c3.9,5.5,4.7,9.3,4.7,9.3l10.4,1.7Z" fill="#bdcf48"/><clipPath id="eT1efQXigu0147"><use width="63.720306" height="58.30127" xlink:href="#eT1efQXigu02"/></clipPath></g></g></g><path d="M364.4,778.4c.8-4.9,8.4-22.9,20-23.7c8-.5,17.4,6.8,19.7,18.1c2.3,10.9,5.3,22.2.1,32.5-4.3,8.5-14.1,18.6-24.6,12.3-11.6-7-17.4-24.7-15.2-39.2v0Z" fill="#e55197"/><path d="M372.1,778.2c.5-3.1,5.3-14.4,12.6-14.9c5-.3,10.9,4.3,12.4,11.4c1.4,6.8,3.3,14,.1,20.4-2.7,5.4-8.9,11.7-15.5,7.8-7.4-4.4-11-15.5-9.6-24.7v0Z" fill="#f087ab"/><path d="M394.1,886c-.2.5-.3,1.1-.6,1.6-.4,1-.8,1.9-1.2,2.9-.3.8-.7,1.8-1.6,2.1-1.1.4-2.5.2-3.7-.1-4.7-1.4-3-5.8-2.3-9.2c1.5-6.9,3-13.8,3.5-20.9.5-7.3,0-14.5,0-21.8c0-.1,0-3.1-.1-3.1h9.3v3.4c0,5.3,0,10.5-.1,15.8-.2,9.8-.4,19.9-3.2,29.3v0Z" fill="#7db441"/><g><path d="M376.4,895c2.2-6.6,20.5-25.6,49.6-45.3c1.1-.8,7.5-4.8,11.2-5.8c2.2-.6,3.4-.1,2,3-7,15.2-17,39.9-34,50.4-7.2,4.4-13.9,4.1-18.4,4.6-2.9.3-12.7.1-10.4-6.9v0Z" fill="#7db441"/><g><g><g clip-path="url(#eT1efQXigu0158)"><path d="M382.4,901.8c0,0,.8-3.8,4.7-9.3c10.1-14.1,46.9-47.3,54-47.6l-.3-6.8c0,0-32.6,10.1-60.2,43.9c0,0-8.6,4.6-8.6,21.5l10.4-1.7v0Z" fill="#bdcf48"/><clipPath id="eT1efQXigu0158"><use width="63.74765" height="58.30127" xlink:href="#eT1efQXigu03"/></clipPath></g></g></g></g><path d="M403.3,763.2c3.1-3.2,8.9-8.4,15-2.3-2-3-3.9-5-5.6-6.2-2.5-1.8-5.3-2.2-8-.4-12.1,8.1-20.4,30.3-22.5,50-.1.6-.1,2-.1,4c1-7.5,2.7-13.9,3.3-15.6c4.1-11.9,11.7-23.2,17.9-29.5Z" fill="#e55197"/><g><path d="M429.6,801.2c-2-20.9-6.8-33.3-11.3-40.3-6.1-6.1-11.9-.9-15,2.3-6,6.1-13.3,16.9-17.4,28.3-6.8-9.8-16-20.4-24-22.1-2.9-.7-6.4-1.3-9.8,3.9-1.2,1.9-2.5,4.7-3.5,8.7-.8,7.3-.7,16.6.9,28.3c1.4,10.7,4.6,17.1,5.7,19.3c7.9,16,24.3,17.6,27.3,17.6c13.9,1.7,23.2-2.6,23.3-2.6v0c2.9-.7,18.5-5.8,22.7-23.2.5-2.5,2.1-9.5,1.1-20.2v0Z" fill="#f087ab"/><path d="M361.9,769.3c13.3,2.9,29.9,30.4,33.7,38.2.3.7,1.2,3.2,2.1,6.6-1-5.4-2.3-9.7-2.8-10.8-3.8-10.2-18.1-39.2-31.7-44.4-3-1.1-5.6-.2-7.7,2.2-2.7,3.1-5.8,9.6-7,20.9c1-4,2.3-6.8,3.5-8.7c3.5-5.2,7-4.6,9.9-4v0Z" fill="#e55197"/></g></g><g><path d="M365.7,887c-3.5.8-8.5,2.7-15,1.1-15.5-3.8-29.1-20.1-38.1-29.8-1.8-2-1-2.7.8-2.8c3-.2,8.8,1.3,9.9,1.6c26.9,7.8,45.4,17.7,48.7,22.2c3.3,4.6-4.1,7.2-6.3,7.7v0Z" fill="#7db441"/><g><g><g clip-path="url(#eT1efQXigu0170)"><path d="M377.3,884.6c-4.1-12.8-11.8-14.2-11.8-14.2-29.2-18.8-56.4-18.5-56.4-18.5l1.4,5.2c5.4-1.5,41.5,14.6,52.6,22.8c4.3,3.2,5.8,5.9,5.8,5.9l8.4-1.2Z" fill="#bdcf48"/><clipPath id="eT1efQXigu0170"><use width="61.24942" height="33.240112" xlink:href="#eT1efQXigu04"/></clipPath></g></g></g><path d="M318.5,808.6c-.6-3.9.7-19.4,9.3-22.8c5.9-2.4,14.8.9,19.4,8.8c4.4,7.7,9.5,15.5,8,24.6-1.2,7.5-6.1,17.5-15.6,15.4-10.5-2.5-19.2-14.4-21.1-26v0Z" fill="#993765"/><path d="M324.3,806.6c-.4-2.5.5-12.2,5.9-14.4c3.7-1.5,9.3.5,12.2,5.6c2.8,4.8,5.9,9.8,5,15.4-.7,4.7-3.9,11-9.8,9.7-6.6-1.5-12.1-9-13.3-16.3v0Z" fill="#cd0073"/><path d="M367.4,882.8c0,.5,0,.9,0,1.3c0,.8-.1,1.7-.2,2.5-.1.7-.1,1.5-.7,2-.8.6-1.9.8-2.8.8-3.9.1-3.7-3.6-4-6.4-.5-5.6-1.2-11.2-2.5-16.7-1.4-5.6-3.5-11-5.3-16.5c0-.1-.8-2.3-.8-2.3l7-2.3.8,2.6c1.3,4,2.6,8,3.8,12c2.2,7.5,4.5,15.2,4.7,23v0Z" fill="#7db441"/><g><path d="M356.2,894c0-5.5,9.2-24.4,26.4-46.5.7-.9,4.5-5.5,7.1-7.1c1.5-1,2.6-.9,2.3,1.8-1.6,13.2-3.1,34.4-13.4,46.5-4.3,5.1-9.5,6.5-12.8,8-2.1.9-9.6,3.2-9.6-2.7v0Z" fill="#7db441"/><g><g><g clip-path="url(#eT1efQXigu0181)"><path d="M362.4,897.7c0,0-.4-3.1,1.2-8.2c4.2-13.2,23.9-47.3,29.2-49.3l-1.9-5c0,0-22.2,15.7-34.8,48c0,0-5.4,5.6-1.2,18.4l7.5-3.9v0Z" fill="#bdcf48"/><clipPath id="eT1efQXigu0181"><use width="35.849518" height="58.084595" xlink:href="#eT1efQXigu05"/></clipPath></g></g></g></g><path d="M344.2,787.6c1.6-3.2,4.7-8.6,10.8-5.4-2.2-1.8-4.2-2.8-5.8-3.3-2.4-.8-4.5-.3-6.1,1.7-7.2,9.1-8,27.9-4.7,43.4.1.5.4,1.5.9,3-1.1-6-1.4-11.2-1.3-12.6.1-10.1,3.1-20.5,6.2-26.8Z" fill="#380c1e"/><g><path d="M373.5,809.9c-6.6-15.3-13.3-23.6-18.5-27.8-6.1-3.1-9.3,2.3-10.8,5.4-3,6.1-5.9,16.1-6.2,25.7-7.6-5.8-17.1-11.5-23.6-10.9-2.4.2-5.2.6-6.5,5.4-.5,1.7-.8,4.2-.5,7.5c1.2,5.7,3.5,12.7,7.6,21.2c3.7,7.7,7.7,11.8,9,13.2c9.9,10.2,22.7,7.3,25,6.6c10.9-2.1,16.9-7.6,17-7.7v0c2-1.2,12.6-8.9,11.5-23.1-.2-2-.6-7.6-4-15.5v0Z" fill="#b31477"/><path d="M314.4,802.4c10.8-1,30.1,15.7,34.9,20.7.4.4,1.7,2.1,3.2,4.5-2.1-3.9-4.1-6.8-4.8-7.5-5.4-6.8-23.3-25.2-34.9-25.8-2.5-.1-4.3,1.2-5.3,3.5-1.3,3-2.1,8.7-.2,17.5-.2-3.3,0-5.7.5-7.5c1.4-4.8,4.2-5.2,6.6-5.4v0Z" fill="#8b0e5c"/></g></g><g><path d="M415.2,886.7c3.4,1.2,8.1,3.8,14.8,3c15.8-1.7,31.5-16.1,41.7-24.6c2.1-1.7,1.4-2.5-.4-2.8-3-.5-8.9.2-10,.3-27.7,4.2-47.3,11.6-51.1,15.6-4.1,4.2,2.9,7.7,5,8.5v0Z" fill="#7db441"/><g><g><g clip-path="url(#eT1efQXigu0193)"><path d="M404,882.8c5.8-12.1,13.5-12.5,13.5-12.5c31.4-14.8,58.3-11,58.3-11l-2.1,5c-5.2-2.2-43,9.1-55.1,15.8-4.7,2.6-6.5,5.1-6.5,5.1l-8.1-2.4Z" fill="#bdcf48"/><clipPath id="eT1efQXigu0193"><use width="64.055664" height="27.728394" xlink:href="#eT1efQXigu06"/></clipPath></g></g></g><path d="M472.2,815.1c1.1-3.8,1.8-19.3-6.3-23.9-5.6-3.1-14.8-1-20.3,6.3-5.4,7-11.4,14.2-11.2,23.3.2,7.6,3.8,18.2,13.4,17.3c10.8-1,21-11.7,24.4-23v0Z" fill="#ebc603"/><path d="M466.7,812.4c.7-2.4,1.1-12.2-4-15-3.5-2-9.3-.7-12.8,3.9-3.4,4.4-7.2,8.9-7,14.7.1,4.8,2.4,11.4,8.5,10.9c6.8-.7,13.2-7.4,15.3-14.5v0Z" fill="#ffed00"/><path d="M414.1,882.4c-.1.4-.1.9-.2,1.3c0,.8-.1,1.7-.2,2.5c0,.7-.1,1.5.4,2.1.7.7,1.8,1,2.7,1.2c3.8.6,4.2-3.1,4.8-5.8c1.3-5.5,2.6-11,4.7-16.2c2.1-5.4,5-10.5,7.4-15.7c0-.1,1-2.2,1.1-2.2l-6.7-3.2-1.2,2.5c-1.8,3.8-3.6,7.6-5.3,11.4-3,7-6.3,14.3-7.5,22.1v0Z" fill="#7db441"/><g><path d="M423.7,894.9c.7-5.5-6-25.4-20.2-49.5-.5-.9-3.8-6-6.1-8-1.4-1.2-2.4-1.2-2.5,1.5-.2,13.3-1.4,34.5,7.3,47.9c3.6,5.6,8.6,7.7,11.7,9.6c1.9,1.1,9.1,4.3,9.8-1.5v0Z" fill="#7db441"/><g><g><g clip-path="url(#eT1efQXigu0204)"><path d="M417,897.7c0,0,.8-3-.2-8.3-2.4-13.6-17.5-50.1-22.5-52.7l2.5-4.8c0,0,19.9,18.4,28.3,52.2c0,0,4.6,6.3-1.2,18.4l-6.9-4.8v0Z" fill="#bdcf48"/><clipPath id="eT1efQXigu0204"><use width="29.017029" height="61.642517" xlink:href="#eT1efQXigu07"/></clipPath></g></g></g></g><path d="M449.4,790.9c-1.1-3.3-3.5-9.1-10-6.8c2.5-1.5,4.5-2.3,6.2-2.6c2.5-.5,4.5.3,5.8,2.4c5.9,10,4.3,28.7-1,43.7-.2.5-.6,1.5-1.3,2.9c1.9-5.8,2.8-10.9,3-12.4c1.2-9.8-.4-20.5-2.7-27.2Z" fill="#b29808"/><g><path d="M417.5,809.3c8.5-14.3,16.3-21.7,21.9-25.1c6.5-2.3,8.9,3.5,10,6.8c2.2,6.4,3.8,16.7,2.8,26.3c8.3-4.7,18.4-9.2,24.8-7.7c2.3.5,5,1.3,5.7,6.2.3,1.8.2,4.3-.5,7.5-2,5.5-5.2,12.1-10.3,20-4.7,7.2-9.1,10.7-10.7,11.9-11.2,8.8-23.5,4.3-25.6,3.3-10.6-3.5-15.8-9.8-15.8-9.8v0c-1.8-1.5-11.3-10.5-8.4-24.4.5-2.1,1.7-7.7,6.1-15v0Z" fill="#ffd500"/><path d="M477.1,809.5c-10.6-2.5-31.8,11.6-37.3,16-.5.4-2,1.9-3.8,4c2.6-3.6,5-6.2,5.7-6.8c6.2-6,26.4-22,37.9-21.1c2.5.2,4.1,1.8,4.8,4.2.9,3.2.9,8.9-2.1,17.4.7-3.2.7-5.7.5-7.5-.7-4.9-3.4-5.6-5.7-6.2v0Z" fill="#ddbb05"/></g></g></g><g><path d="M75.8,953.7h21.7c-22.1-83,16.5-98.6,36.1-102.9-57.8-5.7-57.8,11.5-57.8,102.9Z" fill="#7fa538" stroke="#297524" stroke-width="2" stroke-miterlimit="10"/><path d="M37.7,868.6c4.4,1.2,34.9,32.8,31.9,85h19.1c-.1-55.4-16-83.5-51-85Z" fill="#7fa538" stroke="#297524" stroke-width="2" stroke-miterlimit="10"/><path d="M48.5,907.1c2.5.6,20.1,17.9,18.3,46.5h11c0-30.3-9.1-45.7-29.3-46.5Z" fill="#7fa538" stroke="#297524" stroke-width="2" stroke-miterlimit="10"/><path d="M90.3,953.1h10.8c-11-34.3,8.2-40.8,18-42.5-28.8-2.4-28.8,4.8-28.8,42.5Z" fill="#7fa538" stroke="#297524" stroke-width="2" stroke-miterlimit="10"/><path d="M51.2,936.9c3.1.3,24.3,7.1,22.2,18.4h13.3c0-12-11.1-18.1-35.5-18.4Z" fill="#7fa538" stroke="#297524" stroke-width="2" stroke-miterlimit="10"/><path d="M109.8,938.7c-2.5.2-19.3,6.4-17.6,16.6h-10.7c0-10.8,8.8-16.3,28.3-16.6Z" fill="#7fa538" stroke="#297524" stroke-width="2" stroke-miterlimit="10"/></g><g><path d="M847.7,899.3c0,0-11.3-.7-18.8,5.2s-9.8,17.2-9.8,17.2s12,.2,19.5-5.7c7.5-5.8,9.1-16.7,9.1-16.7Z" fill="#9db849"/><path d="M847.7,899.3L819,921.7c0,0,12,.2,19.5-5.7c7.6-5.8,9.2-16.7,9.2-16.7Z" fill="#92a842"/><path d="M790.4,911.8c0,0,11.3-.7,18.8,5.2s9.8,17.2,9.8,17.2-12,.2-19.5-5.7-9.1-16.7-9.1-16.7Z" fill="#9db849"/><path d="M790.4,911.8l28.7,22.4c0,0-12,.2-19.5-5.7-7.6-5.9-9.2-16.7-9.2-16.7Z" fill="#92a842"/><path d="M820.3,878.6c0,5.4-9,12.5-25.9,12.5c3.7-5.3,7.7-14,7.7-15.9l18.2,3.4Z" fill="#9db849"/><path d="M817.8,878.6c0,5.4,9,12.5,25.9,12.5-3.7-5.3-7.7-14-7.7-15.9l-18.2,3.4Z" fill="#92a842"/><rect width="7.8" height="63" rx="0" ry="0" transform="translate(815.2 875.5)" fill="#9db849"/><rect width="3.9" height="63" rx="0" ry="0" transform="translate(819.1 875.5)" fill="#92a842"/><path d="M822.1,804.2c-6.6-6.9-19.4-8.8-19.4-8.8-.2,9.6-5.9,14.9-5.9,14.9v31.7h25.3v-37.8v0Z" fill="#a92868"/><path d="M839.5,810.1c0,0-.5-5-.1-9.7c0,0-23,.5-31.8,15.9v21.1h31.9v-27.3v0Z" fill="#b92b72"/><path d="M787.8,806.2c1.7,5.3,6.9,23.2.5,39.3h26v-23.8c-7.5-8.1-26.5-15.5-26.5-15.5Z" fill="#c52e79"/><path d="M850.3,806.2c-1.4,4.4-7.5,20.5-1.1,36.5c6.4,16.1,11.5,39.6-30.2,39.6-12.9,0-24.2-2.5-29.4-8.2-9.6-10.5-4.6-28.7,7.1-40.2c15-14.7,50.3-26.8,53.6-27.7Z" fill="#d12e80"/></g><g><path d="M435.5,783.7c30.8,6.8,91.4,31.7,56.7,164h34c0-145.6,0-173.1-90.7-164Z" fill="#96c241" stroke="#3daa36" stroke-width="2" stroke-miterlimit="10"/><path d="M506,947.7h30c-4.8-83.3,43.1-133.8,50-135.6-54.9,2.3-80,47.1-80,135.6Z" fill="#96c241" stroke="#3daa36" stroke-width="2" stroke-miterlimit="10"/><path d="M523,947.7h17.3c-2.8-45.6,24.8-73.2,28.8-74.2-31.7,1.2-46.1,25.8-46.1,74.2Z" fill="#96c241" stroke="#3daa36" stroke-width="2" stroke-miterlimit="10"/><path d="M458.1,879c15.4,2.8,45.7,13.1,28.3,67.8h17c.1-60.2.1-71.6-45.3-67.8Z" fill="#96c241" stroke="#3daa36" stroke-width="2" stroke-miterlimit="10"/></g><g><path d="M373.7,946.3h21.4c-21.8-48,16.3-57.1,35.7-59.5-57.1-3.4-57.1,6.6-57.1,59.5Z" fill="#96c241" stroke="#3daa36" stroke-width="2" stroke-miterlimit="10"/><path d="M335.9,897.1c4.4.7,34.5,19,31.5,49.2h18.9c.1-32.1-15.7-48.4-50.4-49.2Z" fill="#96c241" stroke="#3daa36" stroke-width="2" stroke-miterlimit="10"/><path d="M346.6,919.3c2.5.4,19.9,10.4,18.2,26.9h10.9c0-17.5-9.1-26.4-29.1-26.9Z" fill="#96c241" stroke="#3daa36" stroke-width="2" stroke-miterlimit="10"/><path d="M388,946h10.7c-10.9-19.9,8.1-23.6,17.9-24.6C388,920,388,924.1,388,946Z" fill="#96c241" stroke="#3daa36" stroke-width="2" stroke-miterlimit="10"/></g><g><path d="M694.8,946h-17.3c17.6-44.9-13.2-53.3-28.8-55.6c46.1-3.1,46.1,6.2,46.1,55.6Z" fill="#7fa538" stroke="#297524" stroke-width="2" stroke-miterlimit="10"/><path d="M725.2,900c-3.5.6-27.9,17.7-25.4,46h-15.3c0-30,12.7-45.2,40.7-46Z" fill="#7fa538" stroke="#297524" stroke-width="2" stroke-miterlimit="10"/><path d="M716.6,920.8c-2,.3-16.1,9.7-14.7,25.2h-8.8c.1-16.5,7.4-24.8,23.5-25.2Z" fill="#7fa538" stroke="#297524" stroke-width="2" stroke-miterlimit="10"/><path d="M683.2,945.7h-8.7c8.8-18.6-6.6-22-14.4-23c23.1-1.3,23.1,2.6,23.1,23Z" fill="#7fa538" stroke="#297524" stroke-width="2" stroke-miterlimit="10"/><path d="M714.4,936.9c-2.5.1-19.4,3.8-17.7,9.9h-10.6c0-6.4,8.8-9.7,28.3-9.9Z" fill="#7fa538" stroke="#297524" stroke-width="2" stroke-miterlimit="10"/><path d="M667.7,937.9c2,.1,15.4,3.5,14.1,9h8.4c0-5.9-7-8.9-22.5-9Z" fill="#7fa538" stroke="#297524" stroke-width="2" stroke-miterlimit="10"/></g></g><g><path d="M385.9,404.1c33,14.9,60.2,37.7-11,48.6c22.1-.5,29.7,4,4.7,22c45.1-25.1,65-37,62.5,21c6-10.7,22.5-47.2,7.1-52.6c1.2-1.5,3-3.8,4.3-6.3c2.6-1.1,4.4-2.7,5.9-4.7-1.7-.4-3.1-.5-4.5-.5c0-.5-.2-1.1-.4-1.5-1.7-3.2-9.4-2.7-12.2-2.4c1-15.8-44.4-22.8-56.4-23.6v0Z" fill="#020203"/></g><g><g id="eT1efQXigu0250_to" transform="translate(527.350037,355.959366)"><g id="eT1efQXigu0250" transform="translate(-527.350037,-355.959366)" opacity="0"><path d="M537.3,357.3L526,344.4c-.4-.4-.9-.4-1.2,0c0,0-.1.1-.1.2l-7.2,15.6l19.8-2.9Z" fill="#39bff0" stroke="#114480" stroke-width="0.5" stroke-miterlimit="10"/><path d="M523.1,367.8l10.9-1.6c.6-.1,1.2-.6,1.4-1.4l1.9-7.5-19.9,2.9l4,6.7c.5.7,1.1,1,1.7.9Z" fill="#39bff0" stroke="#114480" stroke-width="0.5" stroke-miterlimit="10"/><path d="M526.2,344.9l5,13.4-7.8,1.1l1.1-14.3c0-.6.5-1,1-.9.3.1.6.3.7.7Z" fill="#85d0f2" stroke="#114480" stroke-width="0.5" stroke-miterlimit="10"/><polygon points="523.5,359.3 531.3,358.2 532.9,366.4 524.3,367.7" fill="#8ad1f0" stroke="#114480" stroke-width="0.5" stroke-miterlimit="10"/></g></g><g id="eT1efQXigu0255_to" transform="translate(331.950012,200.393608)"><g id="eT1efQXigu0255" transform="translate(-331.950012,-200.393608)" opacity="0"><path d="M342.2,204.5l-8.5-16.8c-.3-.5-.8-.7-1.3-.3c0,0-.1.1-.1.1L321.6,203l20.6,1.5Z" fill="#39bff0" stroke="#114480" stroke-width="0.5" stroke-miterlimit="10"/><path d="M325.6,212.8l11.3.8c.7,0,1.3-.4,1.7-1.2l3.7-7.8-20.7-1.5l2.5,8.3c.2.8.8,1.3,1.5,1.4Z" fill="#39bff0" stroke="#114480" stroke-width="0.5" stroke-miterlimit="10"/><path d="M333.9,188.2l2,15.9-8.1-.6l4.3-15.4c.2-.6.7-1,1.2-.8.4.2.6.5.6.9Z" fill="#85d0f2" stroke="#114480" stroke-width="0.5" stroke-miterlimit="10"/><polygon points="327.9,203.5 335.9,204.1 335.7,213.5 326.7,212.8" fill="#8ad1f0" stroke="#114480" stroke-width="0.5" stroke-miterlimit="10"/></g></g><g id="eT1efQXigu0260_to" transform="translate(198.549995,543.749359)"><g id="eT1efQXigu0260" transform="translate(-198.549995,-543.749359)" opacity="0"><path d="M212.7,550.7L203.9,526c-.3-.8-1-1.1-1.7-.6-.1,0-.1.1-.2.2l-17.6,19.5l28.3,5.6Z" fill="#39bff0" stroke="#114480" stroke-width="0.5" stroke-miterlimit="10"/><path d="M188.3,559.2l15.5,3.1c.9.2,1.9-.3,2.5-1.4l6.4-10.2-28.3-5.6l2,11.9c.3,1.1,1,2,1.9,2.2Z" fill="#39bff0" stroke="#114480" stroke-width="0.5" stroke-miterlimit="10"/><path d="M204,526.7l.1,22.3-11.1-2.2l8.6-20.6c.4-.9,1.2-1.2,1.8-.8.4.2.6.7.6,1.3Z" fill="#85d0f2" stroke="#114480" stroke-width="0.5" stroke-miterlimit="10"/><polygon points="193,546.8 204.1,549 202.2,561.9 189.9,559.5" fill="#8ad1f0" stroke="#114480" stroke-width="0.5" stroke-miterlimit="10"/></g></g><g id="eT1efQXigu0265_to" transform="translate(651.149994,367.665207)"><g id="eT1efQXigu0265" transform="translate(-651.149994,-367.665207)" opacity="0"><path d="M661,368.3L649,356c-.4-.4-.9-.4-1.2.1c0,0-.1.1-.1.2l-6.4,15.9l19.7-3.9Z" fill="#39bff0" stroke="#114480" stroke-width="0.5" stroke-miterlimit="10"/><path d="M647.4,379.6l10.8-2.1c.6-.1,1.1-.7,1.3-1.5l1.5-7.6-19.7,3.9l4.3,6.5c.5.6,1.2.9,1.8.8Z" fill="#39bff0" stroke="#114480" stroke-width="0.5" stroke-miterlimit="10"/><path d="M649.3,356.5l5.7,13.1-7.7,1.5.3-14.3c0-.6.4-1,.9-.9.4,0,.7.2.8.6Z" fill="#85d0f2" stroke="#114480" stroke-width="0.5" stroke-miterlimit="10"/><polygon points="647.3,371.1 655,369.5 657.1,377.7 648.5,379.4" fill="#8ad1f0" stroke="#114480" stroke-width="0.5" stroke-miterlimit="10"/></g></g><g id="eT1efQXigu0270_to" transform="translate(639.600006,110.555878)"><g id="eT1efQXigu0270" transform="translate(-639.600006,-110.555878)" opacity="0"><path d="M648.4,110.2L636,99c-.4-.4-.9-.3-1.1.2c0,.1,0,.1-.1.2l-4,16.3l17.6-5.5Z" fill="#39bff0" stroke="#114480" stroke-width="0.5" stroke-miterlimit="10"/><path d="M637.3,122.4l9.6-3c.6-.2.9-.8,1-1.5l.5-7.7-17.6,5.4l4.8,6.1c.5.6,1.1.8,1.7.7Z" fill="#39bff0" stroke="#114480" stroke-width="0.5" stroke-miterlimit="10"/><path d="M636.2,99.3l6.8,12.5-6.9,2.1-1.4-14.2c-.1-.6.3-1.1.7-1s.7.3.8.6Z" fill="#85d0f2" stroke="#114480" stroke-width="0.5" stroke-miterlimit="10"/><polygon points="636.2,113.9 643.1,111.8 645.9,119.7 638.3,122.1" fill="#8ad1f0" stroke="#114480" stroke-width="0.5" stroke-miterlimit="10"/></g></g><g id="eT1efQXigu0275_to" transform="translate(444.550003,623.993073)"><g id="eT1efQXigu0275" transform="translate(-444.550003,-623.993073)" opacity="0.02"><path d="M451.7,626.5L445,615.2c-.2-.4-.6-.4-.9-.1c0,0-.1.1-.1.1l-6.7,11.3h14.4Z" fill="#39bff0" stroke="#114480" stroke-width="0.5" stroke-miterlimit="10"/><path d="M440.6,633.1h7.9c.5,0,.9-.3,1.1-.9l2.2-5.6h-14.4l2.2,5.6c.1.5.5.9,1,.9Z" fill="#39bff0" stroke="#114480" stroke-width="0.5" stroke-miterlimit="10"/><path d="M445.1,615.6l2.2,10.9h-5.7l2.2-10.9c.1-.5.5-.7.8-.6s.5.3.5.6Z" fill="#85d0f2" stroke="#114480" stroke-width="0.5" stroke-miterlimit="10"/><polygon points="441.7,626.5 447.3,626.5 447.7,633.1 441.4,633.1" fill="#8ad1f0" stroke="#114480" stroke-width="0.5" stroke-miterlimit="10"/></g></g></g><g><g id="eT1efQXigu0281_to" transform="translate(216.808281,221.853058)"><g id="eT1efQXigu0281" transform="translate(-216.808281,-221.853058)" opacity="0"><path d="M227.3,218.3c-2.2-5.4-2.6-9.5-2.8-11.9-.1-.8-1-1.1-1.6-.5-1.6,1.9-4.5,5-9.6,8.1-3.2,2-6.7,5.2-8,9-2.2,6.6,1.3,12.5,7.8,14.5s13-.9,15.2-7.5c1.4-3.9.4-8.3-1-11.7v0Z" fill="#39bff0" stroke="#114480" stroke-miterlimit="10"/><path d="M220.3,227c3-2.8,3.8-6.1,5-5.1c1.7,1.4,2.5,6.2.4,9.7-1.5,2.5-3.9,3.5-6,2-1.7-1.2-2.1-4.1.6-6.6v0Z" fill="#85d0f2"/></g></g><g id="eT1efQXigu0284_to" transform="translate(348.107788,559.730865)"><g id="eT1efQXigu0284" transform="translate(-348.107788,-559.730865)" opacity="0"><path d="M356.3,554.5c-3.5-4.7-4.9-8.6-5.7-11-.3-.7-1.3-.8-1.6-.1-1.1,2.2-3.1,5.9-7.3,10.1-2.6,2.6-5.3,6.5-5.6,10.6-.5,6.9,4.3,11.9,11.1,12.4s12.4-3.8,12.9-10.7c.4-4.2-1.6-8.3-3.8-11.3v0Z" fill="#39bff0" stroke="#114480" stroke-miterlimit="10"/><path d="M351.5,564.5c2.2-3.3,2.2-6.8,3.6-6.1c2,1,4,5.5,2.8,9.3-.8,2.8-2.9,4.3-5.4,3.3-1.9-.7-2.9-3.5-1-6.5v0Z" fill="#85d0f2"/></g></g><g id="eT1efQXigu0287_to" transform="translate(78.048183,684.527649)"><g id="eT1efQXigu0287" transform="translate(-78.048183,-684.527649)" opacity="0"><path d="M85.1,682.3c-1.6-3.5-1.9-6.1-2.1-7.7-.1-.5-.7-.7-1.1-.3-1.1,1.2-3,3.2-6.4,5.1-2.1,1.2-4.5,3.2-5.3,5.7-1.4,4.2,1,8,5.5,9.4c4.4,1.4,8.8-.4,10.2-4.6.9-2.6.1-5.4-.8-7.6v0Z" fill="#39bff0" stroke="#114480" stroke-miterlimit="10"/><path d="M80.4,687.7c2-1.7,2.5-3.9,3.3-3.2c1.2.9,1.8,4,.4,6.2-1,1.6-2.6,2.2-4.1,1.2-1.1-.7-1.4-2.6.4-4.2v0Z" fill="#85d0f2"/></g></g><g id="eT1efQXigu0290_to" transform="translate(274.131897,38.767623)"><g id="eT1efQXigu0290" transform="translate(-274.131897,-38.767623)" opacity="0"><path d="M280.4,35.9c-1.9-3.4-2.5-6.1-2.8-7.8-.1-.5-.8-.6-1.1-.2-1,1.4-2.6,3.7-5.7,6.1-2,1.6-4.1,4-4.6,6.6-.9,4.5,1.9,8.3,6.4,9.1c4.5.9,8.6-1.6,9.5-6.1.5-2.7-.5-5.6-1.7-7.7v0Z" fill="#39bff0" stroke="#114480" stroke-miterlimit="10"/><path d="M276.4,42.2c1.8-2.1,2-4.4,3-3.8c1.2.8,2.2,3.9,1.1,6.4-.8,1.8-2.3,2.6-3.9,1.8-1.3-.6-1.8-2.6-.2-4.4v0Z" fill="#85d0f2"/></g></g><g id="eT1efQXigu0293_to" transform="translate(718.099121,635.903015)"><g id="eT1efQXigu0293" transform="translate(-718.099121,-635.903015)" opacity="0"><path d="M721.6,628.1c-5.1-3.2-7.9-6.3-9.5-8.2-.5-.6-1.5-.3-1.6.5-.2,2.4-.6,6.6-2.8,11.9-1.4,3.4-2.3,8-1.1,11.8c2.2,6.6,8.6,9.5,15.1,7.5s10-7.9,7.8-14.5c-1.2-4-4.7-7.1-7.9-9v0Z" fill="#39bff0" stroke="#114480" stroke-miterlimit="10"/><path d="M721.1,639c.7-3.9-.6-7.1,1-6.9c2.2.2,5.8,3.7,6.2,7.7.3,2.8-1,5-3.7,5-2.1-.1-4.2-2.3-3.5-5.8v0Z" fill="#85d0f2"/></g></g><g id="eT1efQXigu0296_to" transform="translate(559.627197,199.816841)"><g id="eT1efQXigu0296" transform="translate(-559.627197,-199.816841)" opacity="0"><path d="M563.2,195.6c-2.8-2.5-4.3-4.7-5.1-6.1-.3-.4-.9-.3-1,.1-.4,1.5-1.1,4.1-3.1,7.2-1.2,2-2.3,4.8-2,7.3.7,4.3,4.4,6.8,8.7,6.2s7.2-4,6.5-8.3c-.3-2.6-2.2-4.9-4-6.4v0Z" fill="#39bff0" stroke="#114480" stroke-miterlimit="10"/><path d="M561.7,202.4c.9-2.4.4-4.5,1.4-4.3c1.4.4,3.2,2.9,3.1,5.4-.1,1.8-1.2,3-2.9,2.8-1.3-.2-2.4-1.8-1.6-3.9v0Z" fill="#85d0f2"/></g></g><g id="eT1efQXigu0299_to" transform="translate(242.329857,373.555008)"><g id="eT1efQXigu0299" transform="translate(-242.329857,-373.555008)" opacity="0"><path d="M248.5,370.7c-1.9-3.3-2.4-6-2.8-7.6-.1-.5-.8-.6-1-.2-.9,1.3-2.5,3.6-5.6,6-1.9,1.5-4,3.9-4.5,6.5-.9,4.4,1.8,8.1,6.2,8.9s8.4-1.5,9.3-6c.5-2.6-.5-5.5-1.6-7.6v0Z" fill="#39bff0" stroke="#114480" stroke-miterlimit="10"/><path d="M244.5,376.9c1.7-2,2-4.3,2.9-3.7c1.2.8,2.1,3.9,1,6.3-.8,1.7-2.3,2.6-3.8,1.8-1.2-.7-1.6-2.6-.1-4.4v0Z" fill="#85d0f2"/></g></g><g id="eT1efQXigu0302_to" transform="translate(749.518585,469.445618)"><g id="eT1efQXigu0302" transform="translate(-749.518585,-469.445618)" opacity="0"><path d="M752.3,464.5c-3.2-2.4-4.9-4.6-6-6-.3-.4-1-.3-1,.3-.2,1.6-.7,4.4-2.3,7.9-1.1,2.2-1.9,5.3-1.2,7.9c1.2,4.5,5.3,6.8,9.7,5.8s6.9-4.9,5.7-9.4c-.7-2.7-2.9-5-4.9-6.5v0Z" fill="#39bff0" stroke="#114480" stroke-miterlimit="10"/><path d="M751.5,471.9c.6-2.6-.1-4.8,1-4.6c1.5.2,3.7,2.7,3.8,5.5.1,1.9-.9,3.3-2.6,3.2-1.5-.2-2.8-1.7-2.2-4.1v0Z" fill="#85d0f2"/></g></g><g id="eT1efQXigu0305_to" transform="translate(541.760437,524.80542)"><g id="eT1efQXigu0305" transform="translate(-541.760437,-524.80542)" opacity="0"><path d="M545.2,520.7c-2.7-2.4-4-4.5-4.8-5.8-.2-.4-.8-.3-1,.1-.4,1.4-1,3.9-2.9,6.9-1.2,1.9-2.2,4.5-1.8,7c.6,4.1,4.1,6.5,8.1,6s6.7-3.8,6-7.9c-.2-2.7-2-4.8-3.6-6.3v0Z" fill="#39bff0" stroke="#114480" stroke-miterlimit="10"/><path d="M543.8,527.2c.8-2.3.3-4.3,1.3-4c1.3.3,3,2.8,2.9,5.2-.1,1.7-1.1,2.9-2.7,2.6-1.3-.3-2.2-1.8-1.5-3.8v0Z" fill="#85d0f2"/></g></g></g></svg>
