<svg xmlns="http://www.w3.org/2000/svg" viewBox="0 0 1920 1280"><path d="M1509.7 144.6c87 0 157.5 70.5 157.5 157.5s-70.5 157.5-157.5 157.5-157.5-70.5-157.5-157.5c0-86.9 70.5-157.5 157.5-157.5z" fill="#cfcfd1"/><linearGradient id="a" gradientUnits="userSpaceOnUse" x1="1411.064" y1="287.472" x2="1637.524" y2="287.472"><stop offset="0" stop-color="#c0c7d0"/><stop offset="1" stop-color="#090e1b"/></linearGradient><path d="M1483 275.2c-9.2 6.4-21.1 9.1-32.8 5.9-21.1-5.6-33.6-27.2-27.9-48.2 1.2-4.5 3.3-8.5 5.8-12.1-7.4 5.1-13.1 12.6-15.6 21.9-5.6 21 6.9 42.6 27.9 48.2 16.6 4.5 33.4-2.4 42.6-15.7zm125.1-12.4c-27.2 0-49.2-22-49.2-49.2 0-11.1 3.8-21.2 10-29.4-12 9-19.8 23.2-19.8 39.3 0 27.2 22 49.2 49.2 49.2 16.1 0 30.3-7.8 39.2-19.8-8.2 6.1-18.3 9.9-29.4 9.9zm-142.9 117.5c-10.5-2.8-16.7-13.6-13.9-24.1l1.1-2.9c-5.2 2.3-9.4 6.8-10.9 12.8-2.8 10.5 3.4 21.3 13.9 24.1 9.5 2.5 19.1-2.3 23-11-4 1.7-8.6 2.3-13.2 1.1zm95.9-10.3c-15.8-4.2-25.1-20.4-20.9-36.2.8-2.9 2-5.4 3.5-7.8-6.3 3.8-11.3 9.9-13.3 17.6-4.2 15.8 5.1 32 20.9 36.2 12.9 3.5 26-2.3 32.6-13.1-6.7 4-14.8 5.4-22.8 3.3z" fill="url(#a)"/><path d="M1529.4 439.9c-87 0-157.5-70.5-157.5-157.5 0-38.5 13.8-73.7 36.8-101-34.5 28.9-56.4 72.2-56.4 120.7 0 87 70.5 157.5 157.5 157.5 48.5 0 91.8-21.9 120.7-56.4-27.4 22.9-62.6 36.7-101.1 36.7z" fill="#bac4cd"/><path d="M1647.3 225.6c-11.3-20.2-26.9-37.6-45.5-51.1l-3.5-.4c-27.2 0-49.2 22-49.2 49.2 0 27.2 22 49.2 49.2 49.2 26.4.1 47.8-20.8 49-46.9z" fill="#99a3ad"/><circle cx="1558.9" cy="351.3" r="29.5" fill="#dfdfdb"/><path d="M1460.8 214.9c-21.1-5.6-42.8 6.8-48.4 27.8-5.6 21 6.9 42.6 27.9 48.2 21.1 5.6 42.8-6.8 48.4-27.8s-6.8-42.6-27.9-48.2z" fill="#afb4b8"/><circle cx="1460.4" cy="371.1" r="19.7" fill="#5c7592"/></svg>