<?xml version="1.0" encoding="utf-8"?>
<!-- Generator: Adobe Illustrator 27.9.0, SVG Export Plug-In . SVG Version: 6.00 Build 0)  -->
<svg version="1.1" id="Слой_1" xmlns="http://www.w3.org/2000/svg" xmlns:xlink="http://www.w3.org/1999/xlink" x="0px" y="0px"
	 viewBox="0 0 480.5 328.7" style="enable-background:new 0 0 480.5 328.7;" xml:space="preserve">
<style type="text/css">
	.st0{fill:#70432C;stroke:#000000;stroke-width:3;stroke-miterlimit:10;}
	.st1{fill:#C59475;stroke:#000000;stroke-width:5;stroke-miterlimit:10;}
	.st2{fill:#70432C;stroke:#000000;stroke-width:5;stroke-miterlimit:10;}
	.st3{stroke:#000000;stroke-width:2;stroke-miterlimit:10;}
	.st4{fill:#70432C;}
	.st5{fill:#C59475;stroke:#000000;stroke-width:3;stroke-miterlimit:10;}
	.st6{fill:#70432C;stroke:#000000;stroke-width:2;stroke-linecap:round;stroke-miterlimit:10;}
	.st7{fill:none;stroke:#000000;stroke-width:2;stroke-linecap:round;stroke-miterlimit:10;}
	.st8{fill:#C2824C;stroke:#000000;stroke-width:3;stroke-miterlimit:10;}
	.st9{fill:#FBCB9F;stroke:#000000;stroke-width:5;stroke-miterlimit:10;}
	.st10{fill:#C2824C;stroke:#000000;stroke-width:5;stroke-miterlimit:10;}
	.st11{fill:#C2824C;}
	.st12{fill:#FBCB9F;stroke:#000000;stroke-width:3;stroke-miterlimit:10;}
	.st13{fill:#C2824C;stroke:#000000;stroke-width:2;stroke-linecap:round;stroke-miterlimit:10;}
	.st14{fill:#008D36;}
</style>
<g id="Слой_2_00000073715119299469606340000007189403844962443940_">
	<g>
		<path class="st0" d="M191.2,254.2c5.1-2,14.8,20.2,27,20c0.3,0,5.2-0.2,11.4-0.3c1.8,0,3.8,0,6.3,0.1c2.1,0.1,4.5,0.5,7.4,1.4
			c3.1,1,10.1,3.4,13.4,9.9c0.7,1.4,2.6,5.2,1.2,8.8c-2.5,6-12.8,6.4-14,6.4c-6.2,0.2-6.9-2.3-12.8-1.8c-1.3,0.1-1.6,0.3-12.3,4.1
			c-6.1,2.2-9.2,3.3-12.3,3.5c-2.8,0.2-5.7,0.4-8.8-1.2c-3.4-1.7-3.5-4-7-7.6c-0.4-0.4-2-1.8-3.9-3.2c-6.5-4.5-10-3.3-11-5.6
			c-1.9-3.9,8.4-8.6,12.5-21C190.8,260,188.8,255.2,191.2,254.2z"/>
		<path class="st1" d="M178.1,178.4c3.4,9.1,7.6,22.4,10.3,38.9c2.5,15,4,24.4,1.9,36.2c-0.9,5.1-4.9,28.1-24.7,43.2
			c-22.7,17.3-53.4,14.3-73.9,3.9c-5.5-2.8-24.3-13.3-33.3-35.2c-6.8-16.7-4.6-31.6-2.5-45.9c2.7-18.1,8.7-32,13.2-40.7
			c12.4,1.4,25.8,2.3,39.9,2.7C134.5,182.1,157.6,180.8,178.1,178.4z"/>
		<path class="st0" d="M73.8,290.8c-2.3,0-7.6,0.5-12.3,4.3c-1.4,1.2-3.6,2.9-4.7,6c-1.6,4.3-0.7,10.3,2.7,12.8
			c3.3,2.5,5.8-0.6,12.3,1.2c5.6,1.5,5.5,4.3,11.9,6.2c5.2,1.6,9.3,1,10.5,0.8c3.4-0.6,8.1-1.3,10.3-5.3c2.3-3.9,0.6-8.5,0.2-9.5
			C94.5,301.8,84.1,296.3,73.8,290.8z"/>
		<path class="st0" d="M173.7,294c2.3,0,7.6,0.5,12.3,4.3c1.4,1.2,3.6,2.9,4.7,6c1.6,4.3,0.7,10.3-2.7,12.8
			c-3.3,2.5-5.8-0.6-12.3,1.2c-5.6,1.5-5.5,4.3-11.9,6.2c-5.2,1.6-9.3,1-10.5,0.8c-3.4-0.6-8.1-1.3-10.3-5.3
			c-2.3-3.9-0.6-8.5-0.2-9.5C153,305,163.3,299.5,173.7,294z"/>
		<path class="st2" d="M35.3,116.1c7.2-11.9,6.9-19.2,10.3-28c5.7-14.6,17.7-23,24.1-27.4C89,47.2,109.5,47.3,124,47.3
			c10.7,0,24.3,0.2,39.7,7.4c15.2,7.1,24.1,17.3,26.1,19.7c5.6,6.7,8.7,12.8,12.8,21.2c6.4,13,4.7,14.2,11.1,26.1
			c1.4,2.5,3.2,5.6,4.1,10.3c0,0,1.3,6.8-0.6,14.2c-4.4,16.9-37.4,29.4-37.4,29.4c-57.7,21.8-109.4,2.5-121.8-2.1
			c-19.1-7.1-28.2-14.4-30.7-23.7c-1.6-5.9-1.2-14.8,1.8-22.6C30.9,122.3,32.5,120.7,35.3,116.1z"/>
		<ellipse class="st3" cx="75.9" cy="122.4" rx="2.2" ry="11.4"/>
		<ellipse class="st3" cx="172" cy="123.6" rx="2.2" ry="11.4"/>
		<ellipse class="st3" cx="122.2" cy="128.5" rx="18.8" ry="5.9"/>
		<g>
			<path class="st4" d="M80.3,141.4c0.4,0.7,7.1,11.7,19.5,12.1c10.2,0.3,19.9-6.7,23.3-17.3"/>
			<path d="M80.3,141.4c9.6,9.9,22.5,13.2,34.1,4.6c3.4-2.5,6.3-5.9,8.7-9.9c-0.5,4.7-2.6,9.3-6.1,12.8
				C105.4,160.9,86,156.9,80.3,141.4L80.3,141.4z"/>
		</g>
		<g>
			<path class="st4" d="M166.1,141.4c-0.4,0.7-7.1,11.7-19.5,12.1c-10.2,0.3-19.9-6.7-23.3-17.3"/>
			<path d="M166.1,141.4c-5.7,15.5-25.2,19.5-36.7,7.6c-3.5-3.5-5.7-8.2-6.1-12.8c2.4,4,5.3,7.4,8.7,9.9
				C143.6,154.6,156.5,151.3,166.1,141.4L166.1,141.4z"/>
		</g>
		<path class="st5" d="M178.9,71.9c1.3-1.7,6.2-7.8,14.4-9c2.4-0.3,9-1.3,13.2,3.1c4.9,5.1,2.4,13.1,2.1,14
			c-2.2,6.8-9.1,11.8-17.5,12.8C187.1,85.9,183,78.9,178.9,71.9z"/>
		<path class="st5" d="M64,69c-1.3-1.7-6.2-7.8-14.4-9c-2.4-0.3-9-1.3-13.2,3.1c-4.9,5.1-2.4,13.1-2.1,14C36.4,84,43.2,88.9,51.7,90
			C55.8,83,59.9,76,64,69z"/>
		<g>
			<path d="M39.6,68.6C45.9,72,51.7,76,57.2,80.5C51,77.1,45.1,73.2,39.6,68.6L39.6,68.6z"/>
		</g>
		<g>
			<path d="M203.2,70.8c-5.6,4.5-11.5,8.5-17.8,11.8C190.9,78.1,196.9,74.1,203.2,70.8L203.2,70.8z"/>
		</g>
		<g>
			<g>
				<path d="M192.4,148.3c13.4-1.5,31.1,2.4,39,14.2c0.1,0.1-0.1,0.3-0.2,0.2c-6-3.5-12-7.3-18.3-10.1c-6.5-2.7-13.5-4-20.5-4.1
					C192.2,148.6,192.2,148.3,192.4,148.3L192.4,148.3z"/>
			</g>
			<g>
				<path d="M189.1,133.9c13.8-10.6,35-17.3,51.8-10.6c0.1,0.1,0.1,0.3-0.1,0.3c-13.4-0.3-26.9-0.6-39.5,4.5c-4.2,1.6-8.2,3.6-12,6
					C189.1,134.2,189,134,189.1,133.9L189.1,133.9z"/>
			</g>
			<g>
				<path d="M193.3,140.5c13.3-6.6,32.7-9,45.5,0c0.1,0.1,0,0.3-0.1,0.3c-7.4-1.5-15.1-3.1-22.6-3.6c-7.7-0.3-15.4,1-22.6,3.6
					C193.3,140.9,193.1,140.6,193.3,140.5L193.3,140.5z"/>
			</g>
		</g>
		<g>
			<path class="st6" d="M159.5,203.2c-2.5,0.4-22.3,2.9-26.9,15.2c-1.3,3.5-1.7,8.7-1.9,11.7c-0.5,7.9,0.7,11.6,1.1,12.8
				c0.9,2.6,2.1,5.9,5.4,7.8c2.6,1.5,5.2,1.4,5.6,1.4c2.9-0.1,4.9-1.5,5.3-1.8c0.6-0.4,2.2-1.6,3.1-3.7c1.3-3-0.4-4.4,0.3-7.8
				c0.8-3.7,3.6-6.1,4.1-6.5c2.5-2.1,4.4-1.7,8.7-3.6c3.1-1.3,5.4-2.9,6.7-4c1.9-1.1,3.8-2.3,5.7-3.4"/>
			<path class="st7" d="M141.5,251.7c-0.5-0.4-1.2-1.1-1.8-2.3c-0.5-1-0.6-1.9-0.6-2.5"/>
			<path class="st7" d="M146.4,250.9c-0.5-0.4-1.2-1.1-1.8-2.3c-0.5-1-0.6-1.9-0.6-2.5"/>
		</g>
		<g>
			<path class="st6" d="M83.7,203.3c2.5,0.4,22.3,2.9,26.9,15.2c1.3,3.5,1.7,8.7,1.9,11.7c0.5,7.9-0.7,11.6-1.1,12.8
				c-0.9,2.6-2.1,5.9-5.4,7.8c-2.6,1.5-5.2,1.4-5.6,1.4c-2.9-0.1-4.9-1.5-5.3-1.8c-0.6-0.4-2.2-1.6-3.1-3.7c-1.3-3,0.4-4.4-0.3-7.8
				c-0.8-3.7-3.6-6.1-4.1-6.5c-2.5-2.1-4.4-1.7-8.7-3.6c-3.1-1.3-5.4-2.9-6.7-4c-1.9-1.1-3.8-2.3-5.7-3.4"/>
			<path class="st7" d="M101.6,251.7c0.5-0.4,1.2-1.1,1.8-2.3c0.5-1,0.6-1.9,0.6-2.5"/>
			<path class="st7" d="M96.7,251c0.5-0.4,1.2-1.1,1.8-2.3c0.5-1,0.6-1.9,0.6-2.5"/>
		</g>
		<g>
			<g>
				<path d="M48.5,149.1c-7,0.1-14,1.4-20.5,4.1c-2.8,1.1-6.5,3.3-9.2,4.8c-3,1.6-6,3.5-9.1,5.3c-0.1,0.1-0.3-0.1-0.2-0.2
					c6.2-9.3,17.6-13.1,28.3-14.3c3.6-0.3,7.2-0.3,10.7,0.1C48.7,148.9,48.7,149.1,48.5,149.1L48.5,149.1z"/>
			</g>
			<g>
				<path d="M51.6,134.6c-17-10.6-32.2-11-51.6-10.5c-0.2,0-0.2-0.2-0.1-0.3c13-5.3,27.8-2.2,40.2,3.4c4.1,2,8,4.3,11.6,7.1
					C51.9,134.5,51.8,134.7,51.6,134.6L51.6,134.6z"/>
			</g>
			<g>
				<path d="M47.4,141.3c-9-3.2-18.8-4.6-28.3-3c-5.6,0.8-11.4,1.9-17,3c-0.1,0-0.3-0.2-0.1-0.3c9.9-7,23.1-6.8,34.5-4.1
					c3.8,1,7.5,2.3,11,4.1C47.7,141.1,47.6,141.4,47.4,141.3L47.4,141.3z"/>
			</g>
		</g>
	</g>
	<g>
		<path class="st8" d="M289.4,212.6c-5.1-2-14.8,20.2-27,20c-0.3,0-5.2-0.2-11.4-0.3c-1.8,0-3.8,0-6.3,0.1c-2.1,0.1-4.5,0.5-7.4,1.4
			c-3.1,1-10.1,3.4-13.4,9.9c-0.7,1.4-2.6,5.2-1.2,8.8c2.5,6,12.8,6.4,14,6.4c6.2,0.2,6.9-2.3,12.8-1.8c1.3,0.1,1.6,0.3,12.3,4.1
			c6.1,2.2,9.2,3.3,12.3,3.5c2.8,0.2,5.7,0.4,8.8-1.2c3.4-1.7,3.5-4,7-7.6c0.4-0.4,2-1.8,3.9-3.2c6.5-4.5,10-3.3,11-5.6
			c1.9-3.9-8.4-8.6-12.5-21C289.7,218.4,291.7,213.6,289.4,212.6z"/>
		<path class="st9" d="M302.4,136.8c-3.4,9.1-7.6,22.4-10.3,38.9c-2.5,15-4,24.4-1.9,36.2c0.9,5.1,4.9,28.1,24.7,43.2
			c22.7,17.3,53.4,14.3,73.9,3.9c5.5-2.8,24.3-13.3,33.3-35.2c6.8-16.7,4.6-31.6,2.5-45.9c-2.7-18.1-8.7-32-13.2-40.7
			c-12.4,1.4-25.8,2.3-39.9,2.7C346.1,140.5,322.9,139.2,302.4,136.8z"/>
		<path class="st8" d="M406.7,249.2c2.3,0,7.6,0.5,12.3,4.3c1.4,1.2,3.6,2.9,4.7,6c1.6,4.3,0.7,10.3-2.7,12.8
			c-3.3,2.5-5.8-0.6-12.3,1.2c-5.6,1.5-5.5,4.3-11.9,6.2c-5.2,1.6-9.3,1-10.5,0.8c-3.4-0.6-8.1-1.3-10.3-5.3
			c-2.3-3.9-0.6-8.5-0.2-9.5C386.1,260.2,396.4,254.7,406.7,249.2z"/>
		<path class="st8" d="M306.9,252.4c-2.3,0-7.6,0.5-12.3,4.3c-1.4,1.2-3.6,2.9-4.7,6c-1.6,4.3-0.7,10.3,2.7,12.8
			c3.3,2.5,5.8-0.6,12.3,1.2c5.6,1.5,5.5,4.3,11.9,6.2c5.2,1.6,9.3,1,10.5,0.8c3.4-0.6,8.1-1.3,10.3-5.3c2.3-3.9,0.6-8.5,0.2-9.5
			C327.5,263.4,317.2,257.9,306.9,252.4z"/>
		<path class="st10" d="M445.2,74.5c-7.2-11.9-6.9-19.2-10.3-28c-5.7-14.6-17.7-23-24.1-27.4C391.4,5.6,370.9,5.6,356.5,5.6
			c-10.7,0-24.3,0.2-39.7,7.4c-15.2,7.1-24.1,17.3-26.1,19.7c-5.6,6.7-8.7,12.8-12.8,21.2c-6.4,13-4.7,14.2-11.1,26.1
			c-1.4,2.5-3.2,5.6-4.1,10.3c0,0-1.3,6.8,0.6,14.2c4.4,16.9,37.4,29.4,37.4,29.4c57.7,21.8,109.4,2.5,121.8-2.1
			c19.1-7.1,28.2-14.4,30.7-23.7c1.6-5.9,1.2-14.8-1.8-22.6C449.7,80.7,448,79.1,445.2,74.5z"/>
		<ellipse class="st3" cx="403.6" cy="80.8" rx="2.2" ry="11.4"/>
		<ellipse class="st3" cx="309.5" cy="82" rx="2.2" ry="11.4"/>
		<ellipse class="st3" cx="358.3" cy="86.8" rx="18.8" ry="5.9"/>
		<g>
			<path class="st11" d="M400.3,99.8c-0.4,0.7-7.1,11.7-19.5,12.1c-10.2,0.3-19.9-6.7-23.3-17.3"/>
			<path d="M400.3,99.8c-5.7,15.5-25.2,19.5-36.7,7.6c-3.5-3.5-5.7-8.2-6.1-12.8c2.4,4,5.3,7.4,8.7,9.9
				C377.8,113,390.6,109.7,400.3,99.8L400.3,99.8z"/>
		</g>
		<g>
			<path class="st11" d="M314.4,99.8c0.4,0.7,7.1,11.7,19.5,12.1c10.2,0.3,19.9-6.7,23.3-17.3"/>
			<path d="M314.4,99.8c9.6,9.9,22.5,13.2,34.1,4.6c3.4-2.5,6.3-5.9,8.7-9.9c-0.5,4.7-2.6,9.3-6.1,12.8
				C339.5,119.3,320.2,115.3,314.4,99.8L314.4,99.8z"/>
		</g>
		<path class="st12" d="M301.6,30.3c-1.3-1.7-6.2-7.8-14.4-9c-2.4-0.3-9-1.3-13.2,3.1c-4.9,5.1-2.4,13.1-2.1,14
			c2.2,6.8,9.1,11.8,17.5,12.8C293.4,44.3,297.5,37.3,301.6,30.3z"/>
		<path class="st12" d="M416.5,27.4c1.3-1.7,6.2-7.8,14.4-9c2.4-0.3,9-1.3,13.2,3.1c4.9,5.1,2.4,13.1,2.1,14
			c-2.2,6.8-9.1,11.8-17.5,12.8C424.7,41.4,420.6,34.4,416.5,27.4z"/>
		<g>
			<path d="M440.9,27c-5.5,4.5-11.4,8.5-17.7,11.9C428.8,34.4,434.7,30.4,440.9,27L440.9,27z"/>
		</g>
		<g>
			<path d="M277.3,29.2c6.3,3.4,12.3,7.3,17.8,11.8C288.8,37.6,282.9,33.7,277.3,29.2L277.3,29.2z"/>
		</g>
		<g>
			<g>
				<path d="M288.1,107c-7,0.1-14,1.4-20.5,4.1c-2.8,1.1-6.5,3.3-9.2,4.8c-3,1.6-6,3.5-9.1,5.3c-0.1,0.1-0.3-0.1-0.2-0.2
					c6.2-9.3,17.6-13.1,28.3-14.3c3.6-0.3,7.2-0.3,10.7,0.1C288.3,106.7,288.3,107,288.1,107L288.1,107z"/>
			</g>
			<g>
				<path d="M291.2,92.5c-17-10.6-32.2-11.1-51.6-10.5c-0.2,0-0.2-0.2-0.1-0.3c13-5.3,27.8-2.2,40.2,3.4c4.1,2,8,4.3,11.6,7.1
					C291.5,92.4,291.4,92.6,291.2,92.5L291.2,92.5z"/>
			</g>
			<g>
				<path d="M287.1,99.2c-9-3.2-18.8-4.6-28.3-3c-5.6,0.8-11.4,1.9-17,3c-0.1,0-0.3-0.2-0.1-0.3c9.9-7,23.1-6.8,34.5-4.1
					c3.8,1,7.5,2.3,11,4.1C287.3,99,287.3,99.3,287.1,99.2L287.1,99.2z"/>
			</g>
		</g>
		<g>
			<path class="st13" d="M321.1,161.6c2.5,0.4,22.3,2.9,26.9,15.2c1.3,3.5,1.7,8.7,1.9,11.7c0.5,7.9-0.7,11.6-1.1,12.8
				c-0.9,2.6-2.1,5.9-5.4,7.8c-2.6,1.5-5.2,1.4-5.6,1.4c-2.9-0.1-4.9-1.5-5.3-1.8c-0.6-0.4-2.2-1.6-3.1-3.7c-1.3-3,0.4-4.4-0.3-7.8
				c-0.8-3.7-3.6-6.1-4.1-6.5c-2.5-2.1-4.4-1.7-8.7-3.6c-3.1-1.3-5.4-2.9-6.7-4c-1.9-1.1-3.8-2.3-5.7-3.4"/>
			<path class="st13" d="M339,210.1c0.5-0.4,1.2-1.1,1.8-2.3c0.5-1,0.6-1.9,0.6-2.5"/>
			<path class="st13" d="M334.1,209.3c0.5-0.4,1.2-1.1,1.8-2.3c0.5-1,0.6-1.9,0.6-2.5"/>
		</g>
		<g>
			<path class="st13" d="M396.8,161.7c-2.5,0.4-22.3,2.9-26.9,15.2c-1.3,3.5-1.7,8.7-1.9,11.7c-0.5,7.9,0.7,11.6,1.1,12.8
				c0.9,2.6,2.1,5.9,5.4,7.8c2.6,1.5,5.2,1.4,5.6,1.4c2.9-0.1,4.9-1.5,5.3-1.8c0.6-0.4,2.2-1.6,3.1-3.7c1.3-3-0.4-4.4,0.3-7.8
				c0.8-3.7,3.6-6.1,4.1-6.5c2.5-2.1,4.4-1.7,8.7-3.6c3.1-1.3,5.4-2.9,6.7-4c1.9-1.1,3.8-2.3,5.7-3.4"/>
			<path class="st13" d="M378.9,210.1c-0.5-0.4-1.2-1.1-1.8-2.3c-0.5-1-0.6-1.9-0.6-2.5"/>
			<path class="st13" d="M383.8,209.4c-0.5-0.4-1.2-1.1-1.8-2.3c-0.5-1-0.6-1.9-0.6-2.5"/>
		</g>
		<g>
			<g>
				<path d="M432,107.2c13.4-1.5,31.1,2.4,39,14.2c0.1,0.1-0.1,0.3-0.2,0.2c-6-3.5-12-7.3-18.3-10.1c-6.5-2.7-13.5-4-20.5-4.1
					C431.8,107.5,431.8,107.3,432,107.2L432,107.2z"/>
			</g>
			<g>
				<path d="M428.7,92.8c13.8-10.6,35-17.3,51.8-10.6c0.1,0.1,0.1,0.3-0.1,0.3c-13.4-0.3-26.9-0.6-39.5,4.5c-4.2,1.6-8.2,3.6-12,6
					C428.8,93.1,428.6,92.9,428.7,92.8L428.7,92.8z"/>
			</g>
			<g>
				<path d="M433,99.4c13.3-6.6,32.7-9,45.5,0c0.1,0.1,0,0.3-0.1,0.3c-7.4-1.5-15.1-3.1-22.6-3.6c-7.7-0.3-15.4,1-22.6,3.6
					C432.9,99.8,432.8,99.5,433,99.4L433,99.4z"/>
			</g>
		</g>
	</g>
</g>
<g id="glasses">
	<g>
		<g>
			<g>
				<path class="st14" d="M441.6,65.9h-7.3c-1.4,0-2.6,0.7-3.3,1.9l-1.9,3.6c-3.8-11.1-14.7-19.3-27.7-19.3
					c-12.7,0-23.4,7.7-27.5,18.4c-4-2.8-9.8-4.6-16.4-4.6s-12.4,1.8-16.4,4.6c-4-10.7-14.8-18.4-27.5-18.4c-13,0-24,8.1-27.7,19.3
					l-1.9-3.6c-0.6-1.2-1.9-1.9-3.3-1.9h-7.3c-2,0-3.7,1.5-3.7,3.4v6.9c0,1.9,1.6,3.4,3.7,3.4c2,0,3.7-1.5,3.7-3.4v-3.4h1.4l2.6,5
					c0.6,1.2,1.9,1.9,3.3,1.9c0,15.2,13.1,27.6,29.2,27.6s29.2-12.4,29.2-27.6c0-3.3,6.3-6.9,14.6-6.9c8.4,0,14.6,3.6,14.6,6.9
					c0,15.2,13.1,27.6,29.2,27.6s29.2-12.4,29.2-27.6c1.4,0,2.6-0.7,3.3-1.9l2.6-5h1.4v3.4c0,1.9,1.6,3.4,3.7,3.4s3.7-1.5,3.7-3.4
					v-6.9C445.2,67.4,443.6,65.9,441.6,65.9z M313.6,100.4c-12.1,0-21.9-9.3-21.9-20.7S301.5,59,313.6,59s21.9,9.3,21.9,20.7
					S325.7,100.4,313.6,100.4z M401.3,100.4c-12.1,0-21.9-9.3-21.9-20.7S389.3,59,401.3,59c12.1,0,21.9,9.3,21.9,20.7
					S413.4,100.4,401.3,100.4z"/>
			</g>
		</g>
	</g>
</g>
</svg>
