<svg id="eQ5Tv12rw8R1" xmlns="http://www.w3.org/2000/svg" xmlns:xlink="http://www.w3.org/1999/xlink" viewBox="0 0 976.7 1064.4" shape-rendering="geometricPrecision" text-rendering="geometricPrecision" project-id="053eae940d4847b1a46fc443eabd95b4" export-id="d87349c99c9c4220bd7aefe13b770549" cached="false" style="background-color:transparent">
<style><![CDATA[
#eQ5Tv12rw8R4 {animation: eQ5Tv12rw8R4_c_o 3000ms linear infinite normal forwards}@keyframes eQ5Tv12rw8R4_c_o { 0% {opacity: 0} 50% {opacity: 1} 100% {opacity: 0}} #eQ5Tv12rw8R5 {animation: eQ5Tv12rw8R5_c_o 3000ms linear infinite normal forwards}@keyframes eQ5Tv12rw8R5_c_o { 0% {opacity: 0} 16.666667% {opacity: 0} 50% {opacity: 1} 83.333333% {opacity: 0} 100% {opacity: 0}} #eQ5Tv12rw8R8 {animation: eQ5Tv12rw8R8_c_o 3000ms linear infinite normal forwards}@keyframes eQ5Tv12rw8R8_c_o { 0% {opacity: 0} 23.333333% {opacity: 1} 50% {opacity: 0} 76.666667% {opacity: 1} 100% {opacity: 0}} #eQ5Tv12rw8R11 {animation: eQ5Tv12rw8R11_c_o 3000ms linear infinite normal forwards}@keyframes eQ5Tv12rw8R11_c_o { 0% {opacity: 0} 23.333333% {opacity: 0} 60% {opacity: 1} 86.666667% {opacity: 0} 100% {opacity: 0}} #eQ5Tv12rw8R12 {animation: eQ5Tv12rw8R12_c_o 3000ms linear infinite normal forwards}@keyframes eQ5Tv12rw8R12_c_o { 0% {opacity: 0} 16.666667% {opacity: 0} 50% {opacity: 1} 83.333333% {opacity: 0} 100% {opacity: 0}} #eQ5Tv12rw8R13 {animation: eQ5Tv12rw8R13_c_o 3000ms linear infinite normal forwards}@keyframes eQ5Tv12rw8R13_c_o { 0% {opacity: 0} 50% {opacity: 0} 80% {opacity: 1} 100% {opacity: 0}} #eQ5Tv12rw8R14 {animation: eQ5Tv12rw8R14_c_o 3000ms linear infinite normal forwards}@keyframes eQ5Tv12rw8R14_c_o { 0% {opacity: 0} 33.333333% {opacity: 1} 66.666667% {opacity: 0} 100% {opacity: 0}} #eQ5Tv12rw8R15 {animation: eQ5Tv12rw8R15_c_o 3000ms linear infinite normal forwards}@keyframes eQ5Tv12rw8R15_c_o { 0% {opacity: 0} 33.333333% {opacity: 0} 66.666667% {opacity: 1} 100% {opacity: 0}} #eQ5Tv12rw8R16 {animation: eQ5Tv12rw8R16_c_o 3000ms linear infinite normal forwards}@keyframes eQ5Tv12rw8R16_c_o { 0% {opacity: 0} 33.333333% {opacity: 1} 66.666667% {opacity: 0} 100% {opacity: 0}} #eQ5Tv12rw8R21_tr {animation: eQ5Tv12rw8R21_tr__tr 10000ms linear infinite normal forwards}@keyframes eQ5Tv12rw8R21_tr__tr { 0% {transform: translate(476.9px,859.277466px) rotate(0deg)} 13.333333% {transform: translate(476.9px,859.277466px) rotate(4.562744deg)} 66.666667% {transform: translate(476.9px,859.277466px) rotate(-17.549534deg)} 100% {transform: translate(476.9px,859.277466px) rotate(0deg)}} #eQ5Tv12rw8R25_tr {animation: eQ5Tv12rw8R25_tr__tr 12000ms linear infinite normal forwards}@keyframes eQ5Tv12rw8R25_tr__tr { 0% {transform: translate(539px,891.705976px) rotate(0deg)} 20% {transform: translate(539px,891.705976px) rotate(-7deg)} 73.333333% {transform: translate(539px,891.705976px) rotate(5deg)} 100% {transform: translate(539px,891.705976px) rotate(0deg)}} #eQ5Tv12rw8R29_tr {animation: eQ5Tv12rw8R29_tr__tr 7000ms linear infinite normal forwards}@keyframes eQ5Tv12rw8R29_tr__tr { 0% {transform: translate(605.810254px,907.805481px) rotate(0deg)} 23.333333% {transform: translate(605.810254px,907.805481px) rotate(6.033263deg)} 73.333333% {transform: translate(605.810254px,907.805481px) rotate(-8.322054deg)} 100% {transform: translate(605.810254px,907.805481px) rotate(0deg)}}
]]></style>
<g><path d="M964.9,949.6c-18,17.2-66.8,38-132.4,55.2-132.7,34.8-269.1,23.5-384.5,14-62.1-5.1-148.9-23.4-322.5-59.8C60.5,945.3,18,935.4,4.4,915.1c-17.5-26.2,21-57.4,59.2-75.2c85.6-39.8,180.9-16.8,483.1-23.9c214-5.1,303.4-19.8,364.8,10.6c30.5,15.1,57.3,43.1,63.4,72.5c4.4,21.7.8,40.3-10,50.5v0Z" fill="#3686a9"/><path id="eQ5Tv12rw8R4" d="M789.7,1032.9c-51.8,19.2-108.5,25.4-163.2,18-10.1-1.4-20.2-3.3-30.1-5.7c12.1,1.7,24.3,3.1,36.5,3.8c5.4.5,12.8.7,18.3,1c5.4.1,12.8.3,18.3.1c40.5-.3,80.9-6.8,120.2-17.2v0v0Z" opacity="0" fill="#3686a8"/><path id="eQ5Tv12rw8R5" d="M344.8,1032.5c-27.6,3.6-56.8-2.7-80.1-17.8c3.3,1.2,6.5,2.4,9.8,3.5c9.7,3.4,19.6,6.3,29.6,8.5c13.1,3,27.2,4.6,40.7,5.8v0v0Z" opacity="0" fill="#3686a8"/></g><g><path d="M924.7,948.8c-16,14.3-59.4,31.7-117.8,46.1-118,29.1-239.5,19.6-342.1,11.7-55.3-4.3-132.5-19.5-287-50C120,945.2,82.1,936.9,70,919.9c-15.6-21.9,18.7-48,52.6-62.8c76.2-33.2,161-14,429.8-20c190.4-4.2,270-16.6,324.6,8.9c27.1,12.7,51,36,56.4,60.5c4.1,18.2.9,33.7-8.7,42.3v0Z" fill="#4b9ab9"/><path id="eQ5Tv12rw8R8" d="M192.8,1009.2c-16.3,1.1-32.7,0-48.9-2.1-16.2-2.2-32.2-5.7-47.7-11c16.2,2.1,32.1,5,48.2,7c15.9,2.3,32.5,4.1,48.4,6.1v0Z" opacity="0" fill="#3686a8"/></g><g><path d="M861.1,947c-12.9,12.1-47.9,26.9-95,39-95.2,24.6-193.2,16.6-275.9,9.9-44.6-3.6-106.9-16.5-231.5-42.3-46.6-9.7-77.1-16.7-86.9-31-12.6-18.5,15.1-40.6,42.4-53.1c61.4-28.1,129.8-11.9,346.7-16.9c153.6-3.6,217.8-14,261.8,7.5c21.9,10.7,41.1,30.4,45.5,51.3c3.2,15.1.7,28.3-7.1,35.6v0Z" fill="#70b9d0"/><path id="eQ5Tv12rw8R11" d="M476.9,959.2c-27.8,4.5-56.2,4.7-84.1,1.8-15.5-1.6-31.1-4.3-46.1-8.1-6-1.5-12.1-3.2-18-5.2c9.2,1.7,18.4,3.4,27.6,4.7c39.8,6.4,80.3,8.2,120.6,6.8v0v0Z" opacity="0" fill="#3686a8"/><path id="eQ5Tv12rw8R12" d="M767.9,946.5c-30.9,15-66,21.8-100.2,19.9c5.3-.8,10.6-1.4,15.9-2c8.3-1.1,17-2.4,25.3-3.8c19.9-3.5,39.5-8.6,59-14.1v0v0Z" opacity="0" fill="#3686a8"/><path id="eQ5Tv12rw8R13" d="M615.7,981.1c-33.1,9.2-68.8,9.5-102.1,1.5c5.3.2,10.7.5,16,1c8.3.4,17.2.7,25.5.8c20.3.1,40.4-1.4,60.6-3.3v0v0Z" opacity="0" fill="#3686a8"/><path id="eQ5Tv12rw8R14" d="M290.9,935.7c-6.4-11.1-10.2-28.5-.2-38.7c1.5-1.4,3.1-2.5,5-3.1-11.3,11.3-6.3,27.8-4.8,41.8v0v0Z" opacity="0" fill="#3686a8"/><path id="eQ5Tv12rw8R15" d="M250.4,926c-5.7-7.2-7.8-22.6,3-26.2-1.5,2-2.5,4-3,6-1.6,6.7.1,13.4,0,20.2v0v0Z" opacity="0" fill="#3686a8"/><path id="eQ5Tv12rw8R16" d="M816.5,935.6c-.2-9,3.1-18.4-3-26.2c10.8,3.6,8.7,19,3,26.2v0Z" opacity="0" fill="#3686a8"/></g><g><path d="M658.8,932.3c-25.1.4-49.6.1-73.5-.7c0-7.7-.3-18.8-1.1-32.1-4.3-65.9-19.8-113.6-29-141.5-19.6-60-64.3-159.2-135.9-271.4c19.8,14.9,45.2,37.1,71.3,69.3c7,8.6,37.8,47.3,65.2,105.8C601.9,760.2,613,861,616,917c1.7-20.9,3.3-52.8,1.1-91.2-5.2-91.4-28.1-158.2-54-232-23.9-68-48.3-118.9-68-159.8-16.8-35-31.8-63.5-42.9-83.9c15.3,10.5,37.8,28.2,60.7,56.2c38.8,47.2,55.9,95.4,81.3,167.1c16.3,45.8,36.7,104.4,49,187.5c8.5,57.4,10.3,107,10,143.7c1.5-21.4,3.8-55,6.1-96.3c7.2-125.9,5-142.3,11.7-183.9c11.1-69.2,32.3-117.6,50.1-158.3c17.6-40.2,45.9-95.3,89.7-151-16.3,55.2-31.3,99-41.8,128.4-26.8,75-38.9,96.5-51.8,151.7-11,47.3-14.9,86.2-17.3,110.9-4.3,44.8-3.3,67-7.8,162-1.3,27.4-2.5,49.6-3.3,63.5-9.8.3-19.8.5-30,.7v0Z" fill="#063" stroke="#005529" stroke-miterlimit="10"/><path d="M455.5,932.3c22.5.3,44.5.1,65.9-.7c0-6.9.2-16.9,1-28.8c3.8-59.1,17.8-101.9,26-126.9c17.6-53.8,57.7-142.8,121.9-243.4-17.7,13.3-40.5,33.3-63.9,62.2-6.3,7.8-33.9,42.4-58.4,94.9-41.3,88.4-51.3,178.8-54,229-1.5-18.8-3-47.3-1-81.8c4.6-82,25.2-141.9,48.5-208.1c21.4-61,43.3-106.6,60.9-143.3c15.1-31.4,28.5-57,38.5-75.2-13.8,9.5-33.8,25.3-54.4,50.4-34.8,42.4-50.1,85.5-72.9,149.8-14.6,41.1-32.9,93.6-44,168.2-7.6,51.5-9.2,96-9,128.9-1.3-19.2-3.4-49.3-5.5-86.4-6.5-113-4.5-127.6-10.5-164.9-10-62.1-29-105.4-45-142-15.8-36-41.1-85.4-80.4-135.4c14.6,49.5,28,88.8,37.5,115.2c24,67.2,34.9,86.5,46.5,136.1c9.9,42.4,13.4,77.3,15.5,99.5c3.9,40.1,2.9,60.1,7,145.3c1.2,24.6,2.3,44.5,3,56.9c8.8.1,17.8.4,26.8.5v0Z" fill="#063" stroke="#005529" stroke-miterlimit="10"/><path d="M511.5,932.5c55.7-.5,111.4-1,167.2-1.4-3-9.8-6.9-24.4-9.3-42.3-5.6-41.5.3-75.2,7.9-108.3c20.3-88.4,30.4-132.7,58.1-171.5c15.6-21.9,47.6-59.8,106.2-89.7-13.9.6-34.3,3.1-57.4,11.5-17.3,6.3-55.2,23-83.9,60.3-13.7,17.7-20.8,38.1-34.4,78.2-6.9,20.2-17,52.3-36.6,137.8-6.8,29.8-12.2,54.6-15.8,71.7-3.8-8.8-9-22.4-12.9-39.5C581.9,759.1,614,702.1,627.7,629c7.3-38.7,11.8-94.9-2.9-167.2-7.3,16.8-17.6,42.5-27.3,74.6-13.5,45-11.1,53.5-26.5,122.7-14.5,65-21.8,79.9-28.7,129.8-3.3,24-4.9,43.9-5.7,57.4-6.2-7.5-14.3-16.9-24.4-27.3-1.5-1.6-23.2-23.7-49.5-43.8C416,739.8,363.9,717.7,345,710c27.6,28.1,50.4,50.7,66,66c43,42.2,56.1,53.4,70.3,76c19,30.4,26.6,60,30.2,80.5v0Z" fill="#3a6d49" stroke="#005529" stroke-miterlimit="10"/><g id="eQ5Tv12rw8R21_tr" transform="translate(476.9,859.277466) rotate(0)"><g transform="translate(-476.9,-859.277466)"><path d="M391.3,426.6c20,44.5,48.2,117.1,67,213.1c24.1,123.1,20.8,223.9,16.5,278.1c7,6,9,6.6,9,6.6c1.6.5,3.9.7,6.8-1c5.3-51.5,11.7-159-15.5-291-21.1-102.2-53.6-176.7-74.7-218.9-3.8-7.2-9.4-7.4-11.4-3.3-1.7,3.5-1,10.9,2.3,16.4v0Z" fill="#004721" stroke="#005529" stroke-miterlimit="10"/><path d="M307.5,215.5l7.6-3.4c-4.9-10.3-9.9-20.6-14.8-30.9-1.7-2.6-4.5-3.1-5.8-1.9-1.4,1.3-.9,2.7,1,7.1c2,3.6,4,7.7,6,12.3c2.7,6.2,4.6,11.9,6,16.8v0Z" fill="#ca9e67" stroke="#634e42" stroke-miterlimit="10"/><path d="M296.4,247.6c-5.1-16.5,4.3-33.3,18.5-37.2c11.6-3.2,25,2.4,31.8,14.2c13.9,29.1,27.7,60.6,40.9,94.5c8.8,22.6,16.4,44.7,23.5,65.9c10.4,31-1.5,44.1-12.6,48.7-12.8,5.3-38-7.9-48-38.9-6.9-18.1-13.6-36.1-20.4-54.3-11.4-30.8-22.7-61.8-33.7-92.9v0Z" fill="#432918" stroke="#432918" stroke-miterlimit="10"/></g></g><g id="eQ5Tv12rw8R25_tr" transform="translate(539,891.705976) rotate(0)"><g transform="translate(-539,-891.70597)"><path d="M647.8,333.8c-23.8,52.8-57.2,138.9-79.4,252.8-28.6,146-24.7,265.6-19.6,329.9-8.3,7.1-10.6,7.8-10.6,7.8-1.9.6-4.6.8-8-1.1-6.3-61.1-13.9-188.5,18.4-345.2c25-121.2,63.5-209.6,88.6-259.6c4.5-8.6,11.2-8.8,13.5-3.9c1.8,4.1,1.1,12.9-2.9,19.3v0Z" fill="#3f6d30" stroke="#005529" stroke-miterlimit="10"/><path d="M747.2,83.5c-3-1.3-6-2.7-9.1-4c5.9-12.2,11.7-24.4,17.6-36.7c2-3.1,5.3-3.7,6.9-2.2c1.6,1.6,1.1,3.1-1.2,8.4-2.3,4.3-4.8,9.1-7.1,14.6-3.1,7.3-5.4,14-7.1,19.9Z" fill="#ca9e67" stroke="#634e42" stroke-miterlimit="10"/><path d="M756.4,121.6c6.1-19.6-5.1-39.4-22-44.1-13.7-3.8-29.6,2.9-37.7,16.8-16.5,34.5-32.9,71.9-48.5,112.1-10.4,26.8-19.4,53-27.9,78.1-12.4,36.7,1.7,52.3,14.9,57.8c15.2,6.3,45.1-9.4,56.9-46.1c8.1-21.4,16.2-42.9,24.2-64.4c13.7-36.6,27-73.4,40.1-110.2v0Z" fill="#683c11" stroke="#432918" stroke-miterlimit="10"/></g></g><g id="eQ5Tv12rw8R29_tr" transform="translate(605.810254,907.805481) rotate(0)"><g transform="translate(-605.810247,-907.805475)"><path d="M719,575.3c-19.8,29.9-48.8,79.2-73.8,146.6-32.1,86.4-41.7,159.8-45,199.7-5.8,3.5-7.3,3.7-7.3,3.7-1.2.2-2.9,0-4.8-1.5c2.3-38,10.4-116.6,45.8-209.2C661.3,643,693.7,592.8,714,564.8c3.6-4.8,7.7-4.3,8.6-1c.8,2.7-.6,8-3.6,11.5v0Z" fill="#004721" stroke="#005529" stroke-miterlimit="10"/><path d="M804.8,432.3c-1.7-1.1-3.4-2.2-5.2-3.4c4.8-6.9,9.6-13.8,14.4-20.6c1.5-1.7,3.6-1.7,4.4-.7.8,1.1.3,2-1.6,5-1.9,2.4-3.8,5.1-5.8,8.2-2.6,4.2-4.6,8.1-6.2,11.5v0Z" fill="#ca9e67" stroke="#634e42" stroke-miterlimit="10"/><path d="M809.1,456.9c5.7-11.4.8-24.6-9-29.1-8-3.7-18.4-1.2-24.8,6.5-13.5,19.4-27.3,40.6-40.8,63.7-9,15.4-17.2,30.4-24.8,45-11.2,21.2-4.2,32.1,3.3,36.8c8.6,5.4,28.5-1.2,39.4-22.5c7.1-12.3,14.2-24.6,21.2-36.9c11.9-21.2,23.8-42.3,35.5-63.5v0Z" fill="#7d4e24" stroke="#432918" stroke-miterlimit="10"/></g></g><path d="M344.7,931c35.8-1.8,70.2-1.1,103.1,1.5.7-10.8,1.9-26.1,3.7-44.4c4.4-44.8,11.9-117.2,34.6-200.9c12.8-47.1,34-111.4,70.1-182C544,517,527.1,535.1,510,560.8c-6.8,10.2-33.5,51.6-58.3,137.9-12.9,44.7-28.4,112.6-33.5,199.5-.8-9.3-2-23.9-3.4-41.8-6-79.6-5.4-102.4-9.3-135.3c0,0-6-49.4-25.9-108.3-40.6-119.6-134-190.4-164.9-212.1C274,476.6,303.8,550,319.1,597.3c10.3,31.7,16.5,59,22.4,84.9c11.8,51.9,25.1,111.7,25.3,188.8c0,21.3-.9,38.9-1.8,50.8-3.4-15.2-8.5-37.2-15.6-63.4-29.3-108.2-48.6-179.8-95.9-225.2-15.7-15.1-43.1-35.6-86.6-42.6c26.7,19.7,46.3,41.2,59.6,57.9c4.9,6.1,20.4,26.1,36.9,56.4c13.6,25,21.5,45.3,29.6,66c12.5,32.3,23.5,60.9,30.5,101.4c4.2,24.5,5.6,45.3,6,59.6c5.1-.4,10.1-.7,15.2-.9v0Z" fill="#3d6c30" stroke="#005529" stroke-miterlimit="10"/><path d="M756.8,932.5c-44.1-.7-88.2-1.4-132.3-2c2.5-7.8,5.6-19.3,7.6-33.5c4.6-32.8.2-59.5-5.7-85.8-15.5-70.2-23.3-105.2-45-136.1-12.2-17.4-37.3-47.6-83.6-71.6c11,.6,27.2,2.6,45.4,9.4c13.7,5.1,43.6,18.5,66.1,48.2c10.7,14.1,16.2,30.3,26.8,62.1c5.3,16,13.2,41.5,28.2,109.3c5.3,23.7,9.3,43.3,12.1,56.9c3-6.9,7.2-17.7,10.4-31.2c15.1-63.3-10-108.6-20.4-166.6-5.5-30.7-8.8-75.2,3.2-132.3c5.7,13.3,13.7,33.7,21.2,59.2c10.5,35.7,8.5,42.4,20.3,97.3c11.2,51.5,16.8,63.4,22,103c2.5,19,3.7,34.8,4.2,45.5c4.9-5.9,11.4-13.3,19.5-21.5c1.2-1.2,18.5-18.7,39.4-34.4c37.1-27.9,78.5-45.1,93.5-51-22,22.1-40.2,39.9-52.6,51.9-34.3,33.2-44.7,42-56.1,59.8-15.1,23.8-21.3,47.2-24.2,63.4v0Z" fill="#3a6d49" stroke="#005529" stroke-miterlimit="10"/></g><g><path d="M483.8,944.3c17.6,6.8,40.8,12.8,67.9,12c20.7-.6,38.8-4.9,53.6-10.2c2.6-17.8,7.6-44,18-72c9-24.5,15.8-33.4,26.1-59.1c6.5-16.3,15-40.8,22.2-74.3-12.2,13-26.6,31.2-41,55.9-21.3,36.6-34.4,73.7-42.4,101.1c2.7-14,6.8-33.4,12.6-55.9c7.7-30,16.1-62.6,31.4-98.4c13-30.5,20.3-38.2,29.2-69.3c4.8-16.7,7.5-31.3,9-41.1-23.5,12.1-37.9,31-46.9,46.6-3.8,6.7-11.9,30.7-28.1,78.5-14.6,43.4-19.7,59.3-25.3,82.7-4.3,18.4-7.2,34.1-9,44.8c4.6-41.6,9.4-75.8,13.2-100.7c6.8-44.7,10.2-59.2,13.8-71.6c8.8-30.4,19.7-52.1,27.5-65.6-12,5.9-27.8,17.1-41.8,39.7-17.3,28.1-23.5,60.4-32.5,108.5-4.6,24.1-8.9,52.7-11.8,85.4-.3-8.2-.5-20.5,0-35.6.8-23.6,2.5-29.5,3.1-49c.5-16.6-.3-28.3-2-51.7-2-28-2.9-42-5.3-53.6-2.2-10.4-8.6-40.2-26.7-61.4-18.9-22.3-39-21.6-50-21.2-15.1.5-29.9,7-29.7,10.6.1,2.9,9.5,1.4,22.2,7.4c5.1,2.4,22.4,10.6,35.1,35.1c10.4,20,12.9,41.7,15.4,64.2c2.1,18.6,2,31.5,2,55.9-.1,20.7-.1,53.4,0,96.1-4.1-10.7-11-25.9-21.9-39.7-7.7-9.9-32-40.8-57-29.1-18.9,8.8-32.5,39.3-29.7,47.1c1.9,5.3,10.3-3.3,25.3-2.3c22,1.5,38.3,22.6,45.7,32.3c15.5,20.4,23.7,43.8,27.8,57.9v0Z" fill="#3aaa35" stroke="#063" stroke-miterlimit="10"/><path d="M488.3,937.2c-13.5,1.6-26.9.7-46,1.5-14.6.6-26.9,0-36.4-2.5-3.2-4.3-8.8-11.9-15.8-21.5-12.5-17.2-15.1-21.3-20-24.2-4.3-2.5-12.3-5.3-24.3,1.6c2.8-5.5,8.9-16.1,17.9-18.3c7.1-1.7,12.6,2.5,22.7,10.5c6.1,4.8,14.3,12.3,23.3,23.8-3.3-7.8-9.5-20.5-19.6-30.4-5.9-5.8-15-14.7-27.1-13.4-15.4,1.7-25.4,18.6-28.3,23.8.6-5.9,3.3-25.6,13.9-39.8c12.7-17.1,27.3-13.7,31.4-12.7c16.7,3.9,27,23.1,31.4,31.3c4.1,7.6,6.8,15,8.5,20.2-.5-12.8-2.4-29.4-7.9-46.3-7-21.5-16.6-33.5-22.7-41.1-6-7.4-11.4-12.4-15.4-15.7c5.1-1.2,14.1-2,23.9,4.6c13.9,9.4,20.9,28.2,25.8,41.5c6.8,18.4,9.8,36.6,11.2,50.6.3-6,.6-15.1,0-26.1-1.5-29.2-7.2-35.5-7.7-59.7-.3-11.5-.7-31.3,7.3-44.7c5.9-9.8,13.6-11.7,17.5-12.1-2.1,4.2-5,11-6.9,20.2-2.7,13.5-1.9,25.1-1,37.2c1,12.1,2.6,20.5,5.4,34.6c1.9,9.5,4.6,21.7,8.3,35.6.2-3.4.6-13.3.8-16.7c1.8-39.1,2-42.4,3.3-47.7c3.9-16,11.6-24.7,16-29.7c8.4-9.5,16.2-12,23.7-14.4c10.6-3.4,18.6-2.3,20.8-2c7.8,1.2,13.6,2.1,19.4,8.8c7.2,8.2,10.3,20.3,11.5,26.4-2.6-2.4-6.2-5.5-10.8-8.5-.5-.3-7-4.5-12.3-6.2-9.2-2.9-26.4-2.1-36.4,17.3-3.8,7.3-5.2,14.8-6.7,22.8-3,15.3-2.8,29.5-2.7,42.4.1,7.1.3,12.9.6,17c.6-1.7,1.4-4.1,2.5-6.8c1.3-3.2,8.4-20.7,20.6-33c8-8,25.5-25.6,40.8-12.4c10.9,9.4,14.9,29.5,16.2,37.5-3.7-1.9-9.1-4.2-15.8-5.9-11.1-2.8-17.9-4.4-25-1-13.4,6.5-20.7,27.6-26.4,44.1-5.6,15.8-8.2,30.1-9.5,39.5v0Z" fill="#008d36" stroke="#063" stroke-width="2" stroke-miterlimit="10"/><path d="M608.4,942.5c10.2,2.8,24.8,5.4,42.2,4.7c13-.5,24-2.8,32.5-5.2c2.9-2.3,8-6.4,14.3-11.5c11.3-9.2,13.8-11.4,18.2-12.9c3.9-1.4,11.2-2.8,22,.9-2.5-3-8-8.6-16.2-9.8-6.5-.9-11.5,1.3-20.6,5.6-5.5,2.6-13,6.6-21.1,12.8c3-4.2,8.7-10.9,17.8-16.2c5.4-3.1,13.6-7.9,24.6-7.2c13.9.9,23,9.9,25.7,12.8-.6-3.1-3-13.7-12.6-21.3-11.5-9.1-24.8-7.3-28.5-6.8-15.2,2.1-24.5,12.3-28.5,16.8-3.7,4.1-6.1,8-7.7,10.8.5-6.8,2.2-15.8,7.2-24.8c6.3-11.5,15-17.9,20.6-22c5.4-4,10.4-6.7,14-8.4-4.6-.6-12.8-1.1-21.7,2.4-12.6,5-18.9,15.1-23.4,22.2-6.2,9.8-8.9,19.6-10.1,27.1-.3-3.2-.5-8.1,0-14c1.4-15.6,6.5-19,7-32c.2-6.2.6-16.8-6.6-23.9-5.3-5.3-12.4-6.3-15.9-6.5c1.9,2.3,4.6,5.9,6.3,10.8c2.5,7.2,1.7,13.4.9,19.9-.9,6.5-2.3,11-4.9,18.5-1.7,5.1-4.1,11.6-7.5,19-.1-1.8-.6-7.1-.7-8.9-1.7-20.9-1.8-22.7-3-25.5-3.5-8.5-10.5-13.2-14.5-15.9-7.6-5.1-14.7-6.4-21.5-7.7-9.6-1.8-16.8-1.2-18.9-1-7,.6-12.3,1.1-17.6,4.7-6.5,4.4-9.3,10.8-10.5,14.1c2.3-1.3,5.6-3,9.8-4.5.5-.2,6.4-2.4,11.2-3.3c8.3-1.6,24-1.1,33,9.3c3.4,3.9,4.7,7.9,6.1,12.2c2.7,8.2,2.5,15.8,2.4,22.7-.1,3.8-.3,6.9-.5,9.1-.5-.9-1.3-2.2-2.3-3.7-1.1-1.7-7.6-11.1-18.7-17.6-7.3-4.3-23.2-13.7-37-6.6-9.9,5-13.5,15.8-14.7,20.1c3.4-1,8.3-2.3,14.3-3.1c10.1-1.5,16.3-2.4,22.7-.5c12.1,3.5,18.8,14.8,23.9,23.6c5,8.1,7.3,15.7,8.5,20.7v0Z" fill="#063" stroke="#003c1a" stroke-width="2" stroke-miterlimit="10"/><path d="M585.9,953c-11.4,1.9-26.5,3.6-44.1,3.3-13.5-.2-25.2-1.4-34.8-2.8-1.7-5-5-12.3-11.7-20.1-5.9-6.8-10.3-9.3-17-16.5-4.2-4.5-9.8-11.4-14.4-20.8c7.9,3.6,17.3,8.7,26.6,15.6c13.9,10.2,22.4,20.6,27.5,28.2-1.8-3.9-4.4-9.3-8.2-15.6-5-8.4-10.5-17.5-20.4-27.5-8.5-8.5-13.2-10.7-19-19.3-3.1-4.7-4.8-8.8-5.8-11.5c15.2,3.4,24.6,8.7,30.4,13c2.5,1.9,7.8,8.6,18.2,21.9c9.5,12.1,12.8,16.5,16.4,23.1c2.8,5.1,4.7,9.5,5.8,12.5-3-11.6-6.1-21.2-8.6-28.1-4.4-12.5-6.6-16.5-8.9-20-5.7-8.5-12.8-14.5-17.9-18.3c7.8,1.7,18.1,4.8,27.2,11.1c11.3,7.8,15.2,16.8,21.1,30.3c3,6.7,5.8,14.7,7.7,23.8.2-2.3.3-5.7,0-9.9-.5-6.6-1.6-8.2-2-13.7-.3-4.6.2-7.9,1.3-14.4c1.3-7.8,1.9-11.7,3.5-15c1.4-2.9,5.6-11.2,17.3-17.1c12.3-6.2,25.3-6,32.4-5.9c9.8.2,19.4,2,19.3,3-.1.8-6.2.4-14.4,2.1-3.3.7-14.5,3-22.8,9.8-6.7,5.6-8.3,11.6-10,17.9-1.4,5.2-1.3,8.8-1.3,15.6c0,5.8.1,14.9,0,26.8c2.7-3,7.2-7.2,14.2-11.1c5-2.8,20.8-11.4,37-8.1c12.3,2.5,21.1,11,19.3,13.2-1.2,1.5-6.7-.9-16.4-.6-14.3.4-24.8,6.3-29.7,9-9.8,5.6-15.2,12.2-17.8,16.1v0Z" fill="#95c11f" stroke="#008d36" stroke-miterlimit="10"/></g></svg>
