<svg xmlns="http://www.w3.org/2000/svg" viewBox="0 0 188.6 347.1"><path d="M81.7 298.5C74.4 226.8 70.6 189 68.5 167.6c0 0-2.7-28-7.7-69.5-2.5-20.8-.6-3.8-1.8-14.4-4.5-37.9-3.5-48.4-11.9-54.6-3.7-2.7-9.7-4.8-14.7-3-7.1 2.6-11.6 13.1-14.8 20.7-2.4 5.6-3.2 8.8-5.4 9.3-2.8.7-5.8-3.7-7.2-8.3-1.8-6.3-.9-11.8 0-15.5 2.7-10.5 9.2-17.1 12-19.7 4-3.6 8.9-8.1 16.7-9C44.3 2.5 52 9 53.2 10c6.7 5.8 8.4 13.5 10.7 24.8 1.4 7 .9 7.8 2.2 21.7C67.2 68 67.7 68.8 70.5 91c1.1 8.8 1.5 14.3 2.3 19.7 2.9 20.3 5 40.7 7.8 61 2.7 20.1 7.2 55.2 15.1 120.7-4.7 2-9.4 4.1-14 6.1zm102.9.3c-3 26.2-25.2 46.3-51.2 46.7-26.6.4-49.7-19.9-52.7-46.7h103.9z" fill="#d3d6d7" stroke="#706f6f" stroke-miterlimit="10"/><ellipse cx="132.6" cy="298.8" rx="52" ry="12.6" fill="#e6e6e6" stroke="#706f6f" stroke-miterlimit="10"/></svg>