<svg id="er7VARG9mXo1" xmlns="http://www.w3.org/2000/svg" viewBox="0 0 1920 1280" shape-rendering="geometricPrecision" text-rendering="geometricPrecision" style="background-color:transparent"><style>@keyframes er7VARG9mXo6_c_o{0%{opacity:1}50%{opacity:0}}@keyframes er7VARG9mXo7_c_o{0%{opacity:.8}66.666667%{opacity:.1}}@keyframes er7VARG9mXo8_c_o{0%{opacity:.5}50%{opacity:.8}}@keyframes er7VARG9mXo9_c_o{0%{opacity:1}50%{opacity:.01}}@keyframes er7VARG9mXo10_c_o{.666667%,0%{opacity:.21}60%{opacity:.83}}@keyframes er7VARG9mXo11_c_o{0%{opacity:1}33.333333%{opacity:.5}66.666667%{opacity:.3}}@keyframes er7VARG9mXo13_c_o{0%{opacity:.9}50%{opacity:.15}}@keyframes er7VARG9mXo14_c_o{0%{opacity:1}33.333333%{opacity:.4}}@keyframes er7VARG9mXo15_c_o{0%{opacity:1}43.333333%{opacity:.2}}@keyframes er7VARG9mXo16_c_o{0%{opacity:1}23.333333%{opacity:.8}66.666667%{opacity:0}}@keyframes er7VARG9mXo17_c_o{0%{opacity:0}56.666667%{opacity:.4}}@keyframes er7VARG9mXo18_c_o{0%{opacity:.4}66.666667%{opacity:.5}}@keyframes er7VARG9mXo20_c_o{0%{opacity:1}33.333333%{opacity:.4}}@keyframes er7VARG9mXo21_c_o{0%{opacity:.6}43.333333%{opacity:.01}}@keyframes er7VARG9mXo22_c_o{0%{opacity:.75}50%{opacity:.15}}@keyframes er7VARG9mXo23_c_o{0%{opacity:0}56.666667%{opacity:.9}}@keyframes er7VARG9mXo24_c_o{0%{opacity:.25}66.666667%{opacity:.8}}@keyframes er7VARG9mXo25_c_o{0%{opacity:.1}70%{opacity:1}}@keyframes er7VARG9mXo27_c_o{0%{opacity:1}33.333333%{opacity:.5}}@keyframes er7VARG9mXo28_c_o{0%{opacity:.85}60%{opacity:.1}}@keyframes er7VARG9mXo29_c_o{0%{opacity:1}60%{opacity:.7}}@keyframes er7VARG9mXo30_c_o{0%{opacity:.3}83.333333%{opacity:.8}}@keyframes er7VARG9mXo31_c_o{0%{opacity:.25}66.666667%{opacity:.9}}@keyframes er7VARG9mXo32_c_o{0%{opacity:1}43.333333%{opacity:.7}}@keyframes er7VARG9mXo34_c_o{0%{opacity:.35}66.666667%{opacity:1}}@keyframes er7VARG9mXo35_c_o{0%{opacity:0}50%{opacity:1}}@keyframes er7VARG9mXo36_c_o{0%{opacity:1}60%{opacity:.3}}@keyframes er7VARG9mXo37_c_o{0%{opacity:.05}40%{opacity:.5}}@keyframes er7VARG9mXo38_c_o{0%{opacity:.4}50%{opacity:.6}}@keyframes er7VARG9mXo39_c_o{0%{opacity:.4}73.333333%{opacity:.8}}@keyframes er7VARG9mXo41_c_o{0%{opacity:1}53.333333%{opacity:.54}}@keyframes er7VARG9mXo42_c_o{0%{opacity:.1}63.333333%{opacity:1}}@keyframes er7VARG9mXo43_c_o{0%{opacity:.35}66.666667%{opacity:.88}}@keyframes er7VARG9mXo44_c_o{0%{opacity:.9}40%{opacity:.24}}@keyframes er7VARG9mXo45_c_o{0%{opacity:0}16.666667%{opacity:.6}60%{opacity:.4}}@keyframes er7VARG9mXo46_c_o{0%{opacity:.8}50%{opacity:.2}}@keyframes er7VARG9mXo48_c_o{0%{opacity:.05}73.333333%{opacity:.7}}@keyframes er7VARG9mXo49_c_o{0%{opacity:1}26.666667%{opacity:.7}}@keyframes er7VARG9mXo50_c_o{0%{opacity:.8}40%{opacity:0}}@keyframes er7VARG9mXo51_c_o{0%{opacity:1}56.666667%{opacity:0}}@keyframes er7VARG9mXo52_c_o{0%{opacity:.86}26.666667%{opacity:.3}}@keyframes er7VARG9mXo53_c_o{0%{opacity:.2}66.666667%{opacity:.73}}@keyframes er7VARG9mXo55_c_o{0%{opacity:.66}50%{opacity:.93}}@keyframes er7VARG9mXo56_c_o{0%{opacity:0}66.666667%{opacity:.45}}@keyframes er7VARG9mXo57_c_o{0%{opacity:0}43.333333%{opacity:.29}}@keyframes er7VARG9mXo58_c_o{0%{opacity:.87}63.333333%{opacity:.66}}@keyframes er7VARG9mXo59_c_o{0%{opacity:1}33.333333%{opacity:.9}}@keyframes er7VARG9mXo60_c_o{0%{opacity:.73}46.666667%{opacity:.4}}@keyframes er7VARG9mXo62_c_o{0%{opacity:.66}63.333333%{opacity:.31}}@keyframes er7VARG9mXo63_c_o{0%{opacity:.73}36.666667%{opacity:.2}}@keyframes er7VARG9mXo64_c_o{0%{opacity:1}36.666667%{opacity:.36}}@keyframes er7VARG9mXo65_c_o{0%{opacity:.88}70%{opacity:.25}}@keyframes er7VARG9mXo66_c_o{0%{opacity:.55}33.333333%{opacity:.98}}@keyframes er7VARG9mXo67_c_o{0%{opacity:.2}60%{opacity:.77}}@keyframes er7VARG9mXo69_c_o{0%{opacity:.65}30%{opacity:0}}@keyframes er7VARG9mXo70_c_o{0%{opacity:.85}53.333333%{opacity:.12}}@keyframes er7VARG9mXo71_c_o{0%{opacity:.22}30%{opacity:.7}}@keyframes er7VARG9mXo72_c_o{0%{opacity:.9}46.666667%{opacity:.44}}@keyframes er7VARG9mXo73_c_o{0%{opacity:1}73.333333%{opacity:.81}}@keyframes er7VARG9mXo74_c_o{0%{opacity:.36}66.666667%{opacity:.7}}@keyframes er7VARG9mXo76_c_o{0%{opacity:.9}53.333333%{opacity:.2}}@keyframes er7VARG9mXo77_c_o{0%{opacity:.68}40%{opacity:.17}}@keyframes er7VARG9mXo78_c_o{0%{opacity:1}66.666667%{opacity:0}}@keyframes er7VARG9mXo79_c_o{0%{opacity:.82}36.666667%{opacity:.24}}@keyframes er7VARG9mXo80_c_o{0%{opacity:1}60%{opacity:.6}}@keyframes er7VARG9mXo81_c_o{0%{opacity:.82}26.666667%{opacity:.3}}@keyframes er7VARG9mXo83_c_o{0%{opacity:.4}23.333333%{opacity:.8}}@keyframes er7VARG9mXo84_c_o{0%{opacity:.2}33.333333%{opacity:.77}}@keyframes er7VARG9mXo85_c_o{0%{opacity:.25}43.333333%{opacity:.77}}@keyframes er7VARG9mXo86_c_o{0%{opacity:.7}66.666667%{opacity:.26}}@keyframes er7VARG9mXo87_c_o{0%{opacity:1}50%{opacity:.57}}@keyframes er7VARG9mXo88_c_o{0%{opacity:0}66.666667%{opacity:.9}}@keyframes er7VARG9mXo90_c_o{0%{opacity:.68}46.666667%{opacity:.24}}@keyframes er7VARG9mXo91_c_o{0%{opacity:.7}66.666667%{opacity:.09}}@keyframes er7VARG9mXo92_c_o{0%{opacity:.7}76.666667%{opacity:.11}}@keyframes er7VARG9mXo93_c_o{0%{opacity:.27}50%{opacity:.89}}@keyframes er7VARG9mXo94_c_o{0%{opacity:1}16.666667%{opacity:.4}}@keyframes er7VARG9mXo95_c_o{0%{opacity:.3}66.666667%{opacity:.84}}@keyframes er7VARG9mXo97_c_o{0%{opacity:.77}56.666667%{opacity:.3}}@keyframes er7VARG9mXo98_c_o{0%{opacity:.83}53.333333%{opacity:.25}}@keyframes er7VARG9mXo99_c_o{0%{opacity:.7}66.666667%{opacity:0}}@keyframes er7VARG9mXo100_c_o{0%{opacity:.75}76.666667%{opacity:.3}}@keyframes er7VARG9mXo101_c_o{0%{opacity:.95}36.666667%{opacity:.17}}@keyframes er7VARG9mXo102_c_o{0%{opacity:1}43.333333%{opacity:.55}}</style><defs><linearGradient id="er7VARG9mXo3-fill" x1="959.3" y1="1279" x2="959.3" y2="0" spreadMethod="pad" gradientUnits="userSpaceOnUse"><stop id="er7VARG9mXo3-fill-0" offset="0%" stop-color="#407fae"/><stop id="er7VARG9mXo3-fill-1" offset="100%" stop-color="#090e1b"/></linearGradient><linearGradient id="er7VARG9mXo107-fill" x1="1402.663" y1="386.53" x2="1629" y2="386.53" spreadMethod="pad" gradientUnits="userSpaceOnUse"><stop id="er7VARG9mXo107-fill-0" offset="0%" stop-color="#c0c7d0"/><stop id="er7VARG9mXo107-fill-1" offset="100%" stop-color="#090e1b"/></linearGradient></defs><g fill="#e2f3fa"><path style="animation:er7VARG9mXo6_c_o 2000ms linear infinite normal forwards" d="M127.7 113.2l-4-2.6-3.6 3.3 1.2-4.7-4.2-2.3 4.8-.3.9-4.7 1.8 4.4 4.8-.6-3.7 3.1z"/><path opacity=".8" style="animation:er7VARG9mXo7_c_o 2000ms linear infinite normal forwards" d="M358.9 206.9l-1.6-5.1-5.3.1 4.4-3-1.8-5 4.3 3.2 4.2-3.2-1.8 5 4.4 3-5.3-.1z"/><path opacity=".5" style="animation:er7VARG9mXo8_c_o 2000ms linear infinite normal forwards" d="M189.4 203.3l-1.9-.6-2.1.6.2-2-1-1.6 2.1-.6 1.4-1.6 1 1.6 2 .6-1.5 1.6z"/><path style="animation:er7VARG9mXo9_c_o 2000ms linear infinite normal forwards" d="M273.2 145.6l-4.6-.5-.5 4.6-1-4.5-4.5.9 4-2.3-2.3-4.1 3.5 3.1 3.1-3.4-1.9 4.2z"/><path opacity=".21" style="animation:er7VARG9mXo10_c_o 2000ms linear infinite normal forwards" d="M233.9 101.9l-1-1.3-1.6-.5.9-1.3-.1-1.7 1.6.4 1.5-.6.1 1.7 1 1.3-1.5.6z"/><path style="animation:er7VARG9mXo11_c_o 2000ms linear infinite normal forwards" d="M105.2 263.2l-2.8-3-3 2.7 2-3.5-3.5-2 3.9.8.9-4 .5 4 4-.4-3.7 1.7z"/><path opacity=".9" style="animation:er7VARG9mXo13_c_o 2000ms linear infinite normal forwards" d="M502.4 613.6l3.2 3.5 4.3-2.1-2.4 4.1 3.4 3.4-4.7-1-2.2 4.3-.5-4.8-4.7-.7 4.4-2z"/><path style="animation:er7VARG9mXo14_c_o 2000ms linear infinite normal forwards" d="M306.2 459.7v5.3l5.2 1.3-5.1 1.7.3 5.3-3.1-4.2-5 1.9 3.1-4.3-3.4-4.2 5.1 1.6z"/><path style="animation:er7VARG9mXo15_c_o 2000ms linear infinite normal forwards" d="M468.1 509.9l1.6 1.1h2.2l-.8 1.9.6 1.8h-2.2l-1.8 1.2-.6-1.8-1.7-1.2 1.9-1.1z"/><path style="animation:er7VARG9mXo16_c_o 2000ms linear infinite normal forwards" d="M371.5 542.3l4.3 1.7 1.8-4.3-.3 4.6 4.6.4-4.5 1.1 1.1 4.5-2.5-3.9-3.9 2.4 2.9-3.5z"/><path opacity=".4" style="animation:er7VARG9mXo18_c_o 2000ms linear infinite normal forwards" d="M565.5 475.6l1.9 3.6 3.6-1.7-2.9 2.8 2.8 2.9-3.6-1.8-1.8 3.5.6-3.9-4-.7 4-.7z"/><path style="animation:er7VARG9mXo20_c_o 2000ms linear infinite normal forwards" d="M598.8 223.8l-3.6 3.1 2 4.4-4.1-2.5-3.4 3.3 1-4.7-4.2-2.3 4.8-.4.9-4.7 1.8 4.4z"/><path opacity=".6" style="animation:er7VARG9mXo21_c_o 2000ms linear infinite normal forwards" d="M757 31l-5.3-.1-1.5 5.1-1.5-5-5.3.2 4.3-3.1-1.8-5 4.2 3.2 4.2-3.3-1.7 5z"/><path opacity=".75" style="animation:er7VARG9mXo22_c_o 2000ms linear infinite normal forwards" d="M703.2 191.7l-1.2 1.7v2.2l-1.8-.9-1.9.5.1-2.1-1.2-1.9 1.9-.5 1.1-1.6 1.2 1.8z"/><path opacity=".25" style="animation:er7VARG9mXo24_c_o 2000ms linear infinite normal forwards" d="M619.6 119.1l-1.6.6-.8 1.4-1.1-1.3-1.6-.4.9-1.4-.1-1.6 1.6.4 1.5-.7.1 1.7z"/><path opacity=".1" style="animation:er7VARG9mXo25_c_o 2000ms linear infinite normal forwards" d="M735.3 290l-3.6 1.7 1.6 3.7-2.7-2.9-3 2.7 1.9-3.6-3.5-1.9 4 .7.8-4 .5 4z"/><path style="animation:er7VARG9mXo27_c_o 2000ms linear infinite normal forwards" d="M1125.1 489.1l-1-4.7-4.8-.2 4.1-2.4-1.3-4.7 3.6 3.2 4-2.6-1.9 4.4 3.8 3-4.8-.5z"/><path opacity=".85" style="animation:er7VARG9mXo28_c_o 2000ms linear infinite normal forwards" d="M1220.5 719.5l2.6-4.6-3.8-3.7 5.2 1 2.4-4.8.6 5.3 5.3.7-4.8 2.3.9 5.2-3.7-3.8z"/><path style="animation:er7VARG9mXo29_c_o 2000ms linear infinite normal forwards" d="M1104.2 596.3l-.9-1.8-1.9-1.1 1.6-1.2.4-1.9 1.9 1.1 2.2-.1-.5 1.8.9 1.8-2.1.2z"/><path opacity=".3" style="animation:er7VARG9mXo30_c_o 2000ms linear infinite normal forwards" d="M1204.2 615.5l-2.9-3.6-3.7 2.8 2.5-3.8-3.8-2.6 4.5 1.2 1.2-4.4.3 4.6 4.6-.2-4.3 1.7z"/><path opacity=".25" style="animation:er7VARG9mXo31_c_o 2000ms linear infinite normal forwards" d="M1207.7 556.8l.2-1.6-.8-1.5 1.6-.3 1.1-1.2.8 1.4 1.5.7-1.1 1.2-.2 1.7-1.5-.7z"/><path style="animation:er7VARG9mXo32_c_o 2000ms linear infinite normal forwards" d="M1002.4 578.3l.2-4-4-.3 3.9-1.1-1.1-3.9 2.3 3.4 3.4-2.2-2.5 3.2 3.1 2.5-3.8-1.4z"/><path opacity=".35" style="animation:er7VARG9mXo34_c_o 2000ms linear infinite normal forwards" d="M1083.8 150.5l-4-2.6-3.5 3.3 1.1-4.7-4.2-2.3 4.8-.4.9-4.7 1.8 4.5 4.8-.6-3.7 3.1z"/><path style="animation:er7VARG9mXo36_c_o 2000ms linear infinite normal forwards" d="M1145.5 240.6l-1.9-.6-2.1.6.2-2-1-1.6 2.1-.6 1.4-1.7 1.1 1.7 1.9.6-1.5 1.6z"/><path opacity=".05" style="animation:er7VARG9mXo37_c_o 2000ms linear infinite normal forwards" d="M1229.4 182.9l-4.6-.5-.6 4.6-1-4.5-4.5.9 4-2.4-2.3-4 3.5 3.1 3.1-3.4-1.8 4.2z"/><path opacity=".4" style="animation:er7VARG9mXo38_c_o 2000ms linear infinite normal forwards" d="M1190 139.1l-1-1.2-1.6-.5.9-1.4-.1-1.6 1.6.4 1.5-.6.1 1.7 1.1 1.3-1.6.6z"/><path opacity=".4" style="animation:er7VARG9mXo39_c_o 2000ms linear infinite normal forwards" d="M1061.3 300.5l-2.8-3-3 2.7 2-3.5-3.5-2 4 .7.8-3.9.5 4 4-.4-3.7 1.7z"/><path style="animation:er7VARG9mXo41_c_o 2000ms linear infinite normal forwards" d="M1533.3 398.6l-2.8-3.9-4.5 1.7 2.9-3.9-3-3.7 4.5 1.5 2.7-4v4.8l4.6 1.3-4.6 1.4z"/><path opacity=".1" style="animation:er7VARG9mXo42_c_o 2000ms linear infinite normal forwards" d="M1711 573.6l.6-5.3-5-1.9 5.2-1.1.3-5.3 2.7 4.6 5.1-1.4-3.5 4 2.8 4.4-4.8-2.1z"/><path opacity=".35" style="animation:er7VARG9mXo43_c_o 2000ms linear infinite normal forwards" d="M1555.8 505.5l-1.5-1.3-2.2-.2 1-1.8-.3-1.9 2.1.3 2-1 .3 1.9 1.6 1.3-2 .9z"/><path opacity=".9" style="animation:er7VARG9mXo44_c_o 2000ms linear infinite normal forwards" d="M1655.4 484.2l-4.1-2.2-2.3 4.1.9-4.6-4.6-.9 4.6-.6-.5-4.6 2 4.2 4.2-2-3.4 3.2z"/><path opacity=".8" style="animation:er7VARG9mXo46_c_o 2000ms linear infinite normal forwards" d="M1455.1 528.6l-1.4-3.8-3.8 1.4 3.1-2.5-2.4-3.2 3.3 2.2 2.3-3.3-1.1 3.9 3.9 1.1-4 .2z"/><path opacity=".05" style="animation:er7VARG9mXo48_c_o 2000ms linear infinite normal forwards" d="M36.3 775.2l-4.1-2.5-3.5 3.3 1.1-4.7-4.1-2.3 4.7-.4 1-4.7 1.8 4.5 4.7-.6-3.6 3.1z"/><path style="animation:er7VARG9mXo49_c_o 2000ms linear infinite normal forwards" d="M267.4 869l-1.5-5.1-5.3.1 4.4-3-1.8-5 4.2 3.2 4.2-3.2-1.7 5 4.3 3-5.3-.1z"/><path opacity=".8" style="animation:er7VARG9mXo50_c_o 2000ms linear infinite normal forwards" d="M97.9 865.4l-1.9-.6-2.1.6.3-2-1-1.6 2-.7 1.5-1.6 1 1.6 1.9.6-1.4 1.7z"/><path style="animation:er7VARG9mXo51_c_o 2000ms linear infinite normal forwards" d="M181.8 807.6l-4.6-.4-.6 4.6-.9-4.5-4.6.9 4-2.4-2.2-4 3.4 3.1 3.1-3.4-1.8 4.2z"/><path opacity=".86" style="animation:er7VARG9mXo52_c_o 2000ms linear infinite normal forwards" d="M142.4 763.9l-1-1.3-1.6-.4.9-1.4-.1-1.6 1.6.4 1.6-.6v1.7l1.1 1.2-1.6.6z"/><path opacity=".2" style="animation:er7VARG9mXo53_c_o 2000ms linear infinite normal forwards" d="M13.7 925.2l-2.7-2.9-3 2.7 1.9-3.5-3.5-2 4 .7.8-3.9.5 4 4-.4-3.6 1.7z"/><path opacity=".66" style="animation:er7VARG9mXo55_c_o 2000ms linear infinite normal forwards" d="M777.6 923.5l2.5 4.1 4.6-1.4-3 3.7 2.7 3.9-4.4-1.8-2.9 3.9.3-4.8-4.6-1.6 4.7-1.2z"/><path opacity=".87" style="animation:er7VARG9mXo58_c_o 2000ms linear infinite normal forwards" d="M660.5 831.2l4 2.4 2.4-3.9-1 4.5 4.4 1.2-4.6.3.3 4.7-1.7-4.3-4.3 1.7 3.5-3z"/><path style="animation:er7VARG9mXo59_c_o 2000ms linear infinite normal forwards" d="M677 887.7l.4 1.6 1.2 1.1-1.4.8-.6 1.6-1.3-1.1-1.6-.2.6-1.5-.4-1.6 1.7.1z"/><path opacity=".73" style="animation:er7VARG9mXo60_c_o 2000ms linear infinite normal forwards" d="M863 798.2l1.2 3.8 3.8-1.1-3.2 2.3 2.2 3.4-3.2-2.5-2.5 3.2 1.3-3.8-3.8-1.3h4.1z"/><path opacity=".66" style="animation:er7VARG9mXo62_c_o 2000ms linear infinite normal forwards" d="M1319.4 860.9l-.5-4.8-4.7-.7 4.4-2-.7-4.7 3.2 3.6 4.3-2.2-2.4 4.2 3.3 3.4-4.7-1z"/><path opacity=".73" style="animation:er7VARG9mXo63_c_o 2000ms linear infinite normal forwards" d="M1386.2 1101.2l3.1-4.3-3.3-4.1 5.1 1.6 2.9-4.5v5.4l5.1 1.3-5 1.7.2 5.3-3.1-4.3z"/><path style="animation:er7VARG9mXo64_c_o 2000ms linear infinite normal forwards" d="M1285.6 964.8l-.7-1.9-1.7-1.3 1.7-1 .7-1.8 1.7 1.2 2.2.2-.7 1.8.7 1.9-2.1-.2z"/><path opacity=".88" style="animation:er7VARG9mXo65_c_o 2000ms linear infinite normal forwards" d="M1382.5 996l-2.4-4-4 2.4 3-3.5-3.5-3.1 4.3 1.8 1.8-4.3-.3 4.6 4.6.4-4.5 1.2z"/><path opacity=".55" style="animation:er7VARG9mXo66_c_o 2000ms linear infinite normal forwards" d="M1393.2 938.1l.3-1.6-.6-1.5 1.7-.2 1.2-1 .7 1.5 1.4.8-1.3 1.1-.4 1.6-1.4-.8z"/><path opacity=".2" style="animation:er7VARG9mXo67_c_o 2000ms linear infinite normal forwards" d="M1186.8 934.6l.7-4-4-.7 4-.6-.5-4 1.8 3.6 3.6-1.8-2.9 2.9 2.8 2.9-3.6-1.9z"/><path opacity=".65" style="animation:er7VARG9mXo69_c_o 2000ms linear infinite normal forwards" d="M829.2 1088.4l-4.1-2.5-3.5 3.3 1.1-4.7-4.2-2.3 4.8-.4 1-4.7 1.8 4.5 4.7-.6-3.7 3.1z"/><path opacity=".85" style="animation:er7VARG9mXo70_c_o 2000ms linear infinite normal forwards" d="M1060.3 1182.1l-1.5-5.1-5.3.2 4.3-3-1.7-5.1 4.2 3.3 4.2-3.2-1.7 5 4.3 3-5.3-.1z"/><path opacity=".22" style="animation:er7VARG9mXo71_c_o 2000ms linear infinite normal forwards" d="M890.8 1178.6l-1.9-.7-2.1.7.3-2-1.1-1.6 2.1-.7 1.5-1.6 1 1.6 1.9.6-1.4 1.7z"/><path opacity=".9" style="animation:er7VARG9mXo72_c_o 2000ms linear infinite normal forwards" d="M974.7 1120.8l-4.6-.4-.6 4.5-1-4.5-4.5.9 4-2.3-2.3-4 3.5 3.1 3.1-3.4-1.8 4.2z"/><path style="animation:er7VARG9mXo73_c_o 2000ms linear infinite normal forwards" d="M935.3 1077.1l-1-1.3-1.6-.4.9-1.4-.1-1.6 1.6.4 1.5-.6.1 1.6 1.1 1.3-1.6.6z"/><path opacity=".36" style="animation:er7VARG9mXo74_c_o 2000ms linear infinite normal forwards" d="M806.6 1238.4l-2.8-2.9-2.9 2.7 1.9-3.6-3.5-2 4 .8.8-3.9.5 4 4-.5-3.6 1.7z"/><path opacity=".9" style="animation:er7VARG9mXo76_c_o 2000ms linear infinite normal forwards" d="M1677.6 816.6l-4.7 1-.3 4.8-2.4-4.2-4.6 1.2 3.2-3.5-2.6-4.1 4.4 2 3.1-3.7-.6 4.8z"/><path opacity=".68" style="animation:er7VARG9mXo77_c_o 2000ms linear infinite normal forwards" d="M1909.8 725.5l-4.6-2.6-3.8 3.7 1.1-5.2-4.7-2.4 5.2-.5.9-5.3 2.2 4.9 5.2-.9-3.9 3.6z"/><path style="animation:er7VARG9mXo78_c_o 2000ms linear infinite normal forwards" d="M1784.3 839.6l-1.8.9-1 1.9-1.2-1.7-1.9-.4 1.1-1.9-.1-2.2 1.9.5 1.8-.9.1 2.2z"/><path opacity=".82" style="animation:er7VARG9mXo79_c_o 2000ms linear infinite normal forwards" d="M1805.4 740l-3.6 2.8 2.8 3.7-3.9-2.6-2.6 3.8 1.3-4.4-4.4-1.4 4.6-.1-.1-4.7 1.6 4.4z"/><path style="animation:er7VARG9mXo80_c_o 2000ms linear infinite normal forwards" d="M1746.8 735.4l-1.6-.3-1.5.8-.3-1.6-1.2-1.1 1.5-.8.7-1.5 1.2 1.1 1.6.2-.7 1.5z"/><path opacity=".82" style="animation:er7VARG9mXo81_c_o 2000ms linear infinite normal forwards" d="M1764.5 941l-4.1-.3-.3 4.1-1-3.9-3.9.9 3.4-2.2-2.1-3.4 3.1 2.6 2.6-3.1-1.5 3.7z"/><path opacity=".4" style="animation:er7VARG9mXo83_c_o 2000ms linear infinite normal forwards" d="M1810.8 36l-.5-4.8-4.7-.8 4.4-1.9-.7-4.8 3.2 3.6 4.3-2.1-2.5 4.1 3.4 3.4-4.7-1z"/><path opacity=".2" style="animation:er7VARG9mXo84_c_o 2000ms linear infinite normal forwards" d="M1877.6 276.3l3.1-4.4-3.3-4.1 5 1.6 2.9-4.4.1 5.3 5.1 1.4-5.1 1.6.3 5.3-3.1-4.2z"/><path opacity=".25" style="animation:er7VARG9mXo85_c_o 2000ms linear infinite normal forwards" d="M1777 139.8l-.7-1.9-1.7-1.2 1.7-1.1.7-1.8 1.7 1.3 2.2.1-.7 1.8.7 1.9-2.1-.1z"/><path opacity=".7" style="animation:er7VARG9mXo86_c_o 2000ms linear infinite normal forwards" d="M1873.9 171l-2.4-3.9-4 2.4 3-3.6-3.5-3 4.3 1.7 1.8-4.2-.3 4.6 4.6.4-4.5 1.1z"/><path style="animation:er7VARG9mXo87_c_o 2000ms linear infinite normal forwards" d="M1884.6 113.2l.3-1.6-.6-1.6 1.6-.1 1.3-1.1.6 1.5 1.5.9-1.3 1.1-.4 1.6-1.4-.9z"/><path opacity=".68" style="animation:er7VARG9mXo90_c_o 2000ms linear infinite normal forwards" d="M1740.7 1247.6l4.1 2.4 3.4-3.3-1 4.7 4.2 2.3-4.8.4-.9 4.7-1.8-4.4-4.8.6 3.6-3.1z"/><path opacity=".7" style="animation:er7VARG9mXo91_c_o 2000ms linear infinite normal forwards" d="M1508.3 1157.1l1.5 5 5.4-.2-4.4 3.1 1.9 5-4.3-3.2-4.2 3.3 1.7-5-4.4-3 5.3.1z"/><path opacity=".7" style="animation:er7VARG9mXo92_c_o 2000ms linear infinite normal forwards" d="M1677.8 1158.3l1.9.6 2.1-.7-.2 2 1 1.6-2.1.7-1.4 1.6-1-1.6-2-.6 1.5-1.6z"/><path opacity=".27" style="animation:er7VARG9mXo93_c_o 2000ms linear infinite normal forwards" d="M1594.7 1217.2l4.6.4.5-4.6 1.1 4.5 4.5-1-4 2.4 2.3 4-3.5-3-3 3.4 1.8-4.2z"/><path style="animation:er7VARG9mXo94_c_o 2000ms linear infinite normal forwards" d="M1634.7 1260.4l1 1.2 1.6.4-.8 1.4.1 1.7-1.6-.4-1.6.6-.1-1.7-1.1-1.2 1.6-.6z"/><path opacity=".3" style="animation:er7VARG9mXo95_c_o 2000ms linear infinite normal forwards" d="M1761.2 1097.3l2.7 2.9 3-2.8-1.9 3.6 3.5 2-3.9-.8-.8 4-.6-4-4 .5 3.6-1.8z"/><path opacity=".77" style="animation:er7VARG9mXo97_c_o 2000ms linear infinite normal forwards" d="M402.3 1223.4l4.1 2.4 3.5-3.3-1.1 4.7 4.2 2.3-4.7.4-.9 4.7-1.9-4.4-4.7.6 3.6-3.1z"/><path opacity=".83" style="animation:er7VARG9mXo98_c_o 2000ms linear infinite normal forwards" d="M169.9 1132.8l1.6 5.1 5.3-.2-4.3 3.1 1.8 5-4.3-3.2-4.1 3.3 1.7-5-4.4-3 5.3.1z"/><path opacity=".7" style="animation:er7VARG9mXo99_c_o 2000ms linear infinite normal forwards" d="M339.4 1134.1l2 .6 2-.7-.2 2 1.1 1.6-2.1.7-1.4 1.6-1.1-1.6-1.9-.6 1.4-1.6z"/><path opacity=".75" style="animation:er7VARG9mXo100_c_o 2000ms linear infinite normal forwards" d="M256.4 1193l4.6.4.5-4.6 1 4.5 4.5-1-3.9 2.4 2.3 4-3.5-3-3.1 3.4 1.8-4.3z"/><path opacity=".95" style="animation:er7VARG9mXo101_c_o 2000ms linear infinite normal forwards" d="M296.3 1236.1l1.1 1.3 1.6.4-.9 1.4.1 1.7-1.6-.4-1.5.6-.1-1.7-1.1-1.2 1.5-.7z"/><path transform="translate(0 1)" style="animation:er7VARG9mXo102_c_o 2000ms linear infinite normal forwards" d="M422.8 1073.1l2.8 2.9 3-2.8-1.9 3.6 3.5 1.9-4-.7-.8 4-.5-4-4 .5 3.6-1.8z"/></g></svg>