<svg id="evECfnWDc0a1" xmlns="http://www.w3.org/2000/svg" xmlns:xlink="http://www.w3.org/1999/xlink" viewBox="0 0 1853.5 501.18" shape-rendering="geometricPrecision" text-rendering="geometricPrecision" project-id="edede8c52c2a48b3a15593d19c48cd57" export-id="c6c6a7e5f8104004bd37f3e1a823d2fb" cached="false" style="background-color:transparent">
<style><![CDATA[
#evECfnWDc0a29_tr {animation: evECfnWDc0a29_tr__tr 50000ms linear infinite normal forwards}@keyframes evECfnWDc0a29_tr__tr { 0% {transform: translate(259.164986px,207.644574px) rotate(0deg)} 100% {transform: translate(259.164986px,207.644574px) rotate(-360deg)}} #evECfnWDc0a30_tr {animation: evECfnWDc0a30_tr__tr 80000ms linear infinite normal forwards}@keyframes evECfnWDc0a30_tr__tr { 0% {transform: translate(263.134995px,219.759995px) rotate(0deg)} 100% {transform: translate(263.134995px,219.759995px) rotate(360deg)}} #evECfnWDc0a31_tr {animation: evECfnWDc0a31_tr__tr 35000ms linear infinite normal forwards}@keyframes evECfnWDc0a31_tr__tr { 0% {transform: translate(274.764999px,231.780006px) rotate(0deg)} 100% {transform: translate(274.764999px,231.780006px) rotate(360deg)}} #evECfnWDc0a32_tr {animation: evECfnWDc0a32_tr__tr 130000ms linear infinite normal forwards}@keyframes evECfnWDc0a32_tr__tr { 0% {transform: translate(253.985001px,231.780006px) rotate(0deg)} 100% {transform: translate(253.985001px,231.780006px) rotate(360deg)}}
]]></style>
<defs><radialGradient id="evECfnWDc0a29-fill" cx="0" cy="0" r="214.4" spreadMethod="pad" gradientUnits="userSpaceOnUse" gradientTransform="matrix(0.777475 0.628913 -0.628913 0.777475 268.030407 169.173416)"><stop id="evECfnWDc0a29-fill-0" offset="54%" stop-color="#fff"/><stop id="evECfnWDc0a29-fill-1" offset="100%" stop-color="rgba(255,255,255,0)"/></radialGradient><radialGradient id="evECfnWDc0a30-fill" cx="0" cy="0" r="174.73" spreadMethod="pad" gradientUnits="userSpaceOnUse" gradientTransform="matrix(0.959609 -0.281337 0.281337 0.959609 263.112977 219.770641)"><stop id="evECfnWDc0a30-fill-0" offset="54%" stop-color="#fff"/><stop id="evECfnWDc0a30-fill-1" offset="100%" stop-color="rgba(255,255,255,0)"/></radialGradient><radialGradient id="evECfnWDc0a31-fill" cx="0" cy="0" r="96.17" spreadMethod="pad" gradientUnits="userSpaceOnUse" gradientTransform="translate(274.77 231.78)"><stop id="evECfnWDc0a31-fill-0" offset="54%" stop-color="#fff"/><stop id="evECfnWDc0a31-fill-1" offset="100%" stop-color="rgba(255,255,255,0)"/></radialGradient><radialGradient id="evECfnWDc0a32-fill" cx="0" cy="0" r="118.37" spreadMethod="pad" gradientUnits="userSpaceOnUse" gradientTransform="translate(253.98 231.78)"><stop id="evECfnWDc0a32-fill-0" offset="54%" stop-color="#fff"/><stop id="evECfnWDc0a32-fill-1" offset="100%" stop-color="rgba(255,255,255,0)"/></radialGradient></defs><g><path d="M1839.45,257.76c-182.77-28.1-393.86-48.8-628.21-50.98-285.29-2.66-538.33,22.74-750.37,57.34-8.61-19.96-17.22-39.92-25.84-59.88c69.63-17.3,146.86-33.01,230.95-44.93c103.72-14.7,199.39-21,284.72-22.38-9.13-7.82-18.25-15.64-27.38-23.46c2.44-2.94,10.7-12.12,24.97-15.16c16.5-3.51,29.3,3.69,32.2,5.42c6.49,6.36,12.97,12.71,19.46,19.07c86.67,1.16,156.17,5.31,200.31,8.5c127.56,9.22,205.93,22.17,447.71,53.46c73.26,9.48,132.12,16.84,166.32,21.08c1.79,1.67,4.3,3.46,7.59,4.55c4,1.32,7.39,1,10.78.68c3.35-.31,6.32-1.03,8.86-1.88-6.15,5.07-12.29,10.14-18.44,15.21c20.25,1,30.4,2.23,30.43,3.67.03,1.22-7.15,2.6-21.53,4.14c5.26,5.18,10.52,10.36,15.78,15.53-2.77,3.34-5.54,6.67-8.31,10.01v.01Z" fill="#b2b2b2" stroke-width="0"/><ellipse rx="20.93" ry="10.13" transform="matrix(.99149-.13018 0.13018 0.99149 953.262709 109.938844)" fill="#ededed" stroke-width="0"/><ellipse rx="3.89" ry="1.88" transform="matrix(.99149-.13018 0.13018 0.99149 952.015391 110.108821)" fill="#575756" stroke-width="0"/><ellipse rx="1.52" ry="7.21" transform="matrix(.958621-.284685 0.284685 0.958621 558.7566 234.25639)" fill="#575756" stroke-width="0"/><ellipse rx="4.2" ry="19.97" transform="matrix(.983854-.178974 0.178974 0.983854 1804.26275 227.325854)" fill="#575756" stroke-width="0"/><ellipse rx="2.15" ry="10.19" transform="matrix(.983854-.178974 0.178974 0.983854 1724.423997 208.676262)" fill="#575756" stroke-width="0"/><ellipse rx="2.15" ry="10.19" transform="matrix(.983854-.178974 0.178974 0.983854 1606.35228 208.953036)" fill="#575756" stroke-width="0"/><ellipse rx="2.15" ry="10.19" transform="matrix(.983854-.178974 0.178974 0.983854 1174.828516 147.064476)" fill="#575756" stroke-width="0"/><ellipse rx="2.62" ry="12.45" transform="matrix(.983854-.178974 0.178974 0.983854 1193.791939 164.104208)" fill="#575756" stroke-width="0"/><ellipse rx="2.51" ry="24.5" transform="matrix(.953507-.301372 0.301372 0.953507 1020.010849 153.704896)" fill="#575756" stroke-width="0"/><ellipse rx="4.2" ry="19.97" transform="matrix(.975149-.221549 0.221549 0.975149 858.79934 193.01722)" fill="#575756" stroke-width="0"/><ellipse rx="2.11" ry="10.04" transform="matrix(.931881-.362763 0.362763 0.931881 694.78197 169.296252)" fill="#575756" stroke-width="0"/><path d="M988.09,127.82c-3.46,8.59-15.93,18.2-24.44,10.58c2.51.35,4.71.18,6.76-.39c6.63-1.9,11.65-6.8,17.68-10.18v0-.01Z" fill="#3c3c3b" stroke-width="0"/></g><path d="M24.55,258.77c-3.06,72.16,33.69,234.11,222.41,242.12c188.71,8.01,239.06-150.25,242.12-222.41c1.85-43.55-84.87-76.32-229.18-82.44s-233.49,19.18-235.34,62.73v0h-.01Z" fill="#3aaa35" stroke-width="0"/><path d="M0.07,200.19c-3.18,74.84,101.91,102.57,254.96,109.06s260.1-12.23,263.28-87.07c1.64-38.72-95.39-68.69-256.38-75.52s-260.22,14.81-261.86,53.53Z" fill="#008d36" stroke-width="0"/><ellipse rx="67.8" ry="243.15" transform="matrix(.042399-.999101 0.999101 0.042399 258.888635 219.760399)" fill="#36a9e1" stroke-width="0"/><path d="M146.79,451.53c-29.54-10.84-50.54-26.35-63.05-37.16c4.42,7.25,11.72,17.39,23.09,27.03c10.75,9.12,21.27,14.5,28.84,17.67c10.76,4.78,23.73,9.64,38.7,13.56c16.23,4.25,30.98,6.39,43.43,7.41-.07-5.36-.14-10.73-.21-16.09-16.35.07-41.84-1.79-70.8-12.42Zm180,4.49c3.26-1.19,9.24-3.73,13.65-8.28c3.73-3.85,4.74-7.48,5.04-9.63-19.25,4.28-56.16,10.75-103.94,8.43-44.28-2.15-78.02-10.89-96.53-16.62.59,2.41,1.9,5.8,4.99,9.56c3.8,4.63,8.69,7.86,12.1,9.8c22.92,3.02,49.92,5.68,80.26,6.99c31.96,1.37,60.43.93,84.43-.25ZM264.7,471.13c-.52,5.34-1.05,10.68-1.57,16.01c12.49.04,27.36-.84,43.9-3.7c15.26-2.64,28.58-6.38,39.71-10.23c7.82-2.51,18.75-6.99,30.23-15.16c12.14-8.64,20.28-18.12,25.3-24.97-13.38,9.72-35.62,23.38-65.97,31.69-29.76,8.14-55.31,7.83-71.6,6.37v-.01ZM108.01,388.59c-29.54-10.84-50.54-26.35-63.05-37.16c4.42,7.25,11.72,17.39,23.09,27.03c10.75,9.12,21.27,14.5,28.84,17.67c10.76,4.78,23.73,9.64,38.7,13.56c16.23,4.25,30.98,6.39,43.43,7.41-.07-5.36-.14-10.73-.21-16.09-16.35.07-41.84-1.79-70.8-12.42Zm214.27,21.29c-.52,5.34-1.05,10.68-1.57,16.01c12.49.04,27.36-.84,43.9-3.7c15.26-2.64,28.58-6.38,39.71-10.23c7.82-2.51,18.75-6.99,30.23-15.16c12.14-8.64,20.28-18.12,25.3-24.97-13.38,9.72-35.62,23.38-65.97,31.69-29.76,8.14-55.31,7.83-71.6,6.37v-.01Zm-27.92,14.51c1.76-.85,4.98-2.67,7.38-5.87c2.03-2.71,2.59-5.25,2.77-6.76-13.06,2.29-32.34,4.57-55.77,3.46-21.67-1.03-39.39-4.6-51.72-7.8.3,1.68.98,4.04,2.61,6.64c2.01,3.21,4.61,5.43,6.42,6.76c12.27,1.95,26.74,3.63,43.01,4.33c17.14.74,32.41.24,45.29-.76h.01ZM80.96,339.72c-22.3-8.86-38.04-21.79-47.41-30.83c3.26,6.11,8.69,14.64,17.2,22.7c8.05,7.62,15.97,12.07,21.68,14.67c8.11,3.93,17.89,7.91,29.22,11.06c12.27,3.42,23.44,5.05,32.88,5.77.01-4.56.02-9.12.04-13.68-12.41.26-31.74-1.01-53.6-9.69h-.01Zm303.19,22.04c-.33,4.08-.66,8.16-.99,12.24c8.39.08,18.37-.53,29.45-2.64c10.23-1.95,19.16-4.76,26.62-7.66c5.24-1.89,12.56-5.26,20.23-11.47c8.11-6.56,13.54-13.78,16.87-18.99-8.94,7.37-23.81,17.73-44.15,23.95-19.94,6.1-37.1,5.75-48.04,4.57h.01ZM343.39,377.2c1.37-.99,3.84-3.04,5.41-6.18c1.33-2.66,1.44-4.96,1.38-6.3-8.33,4.19-24.45,11.18-46.35,13.68-20.29,2.32-36.42-.25-45.36-2.23.5,1.43,1.41,3.39,3.17,5.43c2.16,2.52,4.69,4.09,6.41,4.99c10.68-.03,23.18-.62,37.07-2.32c14.63-1.78,27.5-4.39,38.27-7.08v.01Zm-110.87,8.13c1.48-.56,4.24-1.81,6.6-4.44c2-2.22,2.85-4.48,3.23-5.83-8.42,1.55-24.36,3.41-43.69-1-17.92-4.09-30.72-11.73-37.62-16.51-.05,1.58.08,3.82.89,6.4c1,3.18,2.62,5.54,3.78,6.99c9.04,3.33,19.81,6.68,32.11,9.37c12.96,2.84,24.7,4.3,34.69,5.01l.01.01ZM63.23,298.41c-16.35-6.5-27.89-15.97-34.76-22.6c2.39,4.48,6.37,10.74,12.61,16.64c5.9,5.59,11.71,8.85,15.89,10.76c5.95,2.88,13.12,5.8,21.42,8.11c9,2.5,17.18,3.7,24.1,4.23c0-3.34.02-6.69.03-10.03-9.1.19-23.27-.74-39.29-7.11Zm352.52,17.82c-.23,2.83-.46,5.67-.69,8.5c5.82.06,12.75-.37,20.45-1.84c7.1-1.36,13.31-3.31,18.48-5.32c3.64-1.31,8.72-3.66,14.05-7.96c5.64-4.55,9.4-9.57,11.72-13.19-6.21,5.12-16.53,12.32-30.66,16.63-13.85,4.23-25.76,3.99-33.36,3.17l.01.01Zm-23.16,12.28c1.39-.81,3.91-2.47,5.56-4.96c1.4-2.11,1.57-3.9,1.54-4.94-12.85,3.87-28.45,7.54-46.38,9.7-17.07,2.06-32.4,2.28-45.32,1.7.46,1.1,1.32,2.6,3.01,4.15c2.09,1.9,4.56,3.06,6.26,3.72c10.65-.32,23.12-1.11,37.01-2.81c14.63-1.79,27.52-4.16,38.33-6.55l-.01-.01Zm-197,4.48c1.58-.3,4.51-1.03,6.89-2.83c2.02-1.52,2.78-3.16,3.1-4.15-13.4-.63-29.34-2.36-46.97-6.28-16.79-3.74-31.31-8.63-43.31-13.47.07,1.19.37,2.89,1.46,4.91c1.34,2.49,3.28,4.4,4.66,5.59c10.14,3.24,22.18,6.64,35.83,9.66c14.39,3.18,27.34,5.23,38.33,6.57h.01Zm85.69,8.55c1.06-.46,3-1.43,4.39-3.06c1.18-1.38,1.46-2.65,1.53-3.4-9.5,1.65-20.96,2.92-33.95,2.91-12.37,0-23.32-1.17-32.5-2.71.23.82.71,1.97,1.79,3.22c1.32,1.54,2.99,2.58,4.15,3.19c7.63.7,16.6,1.21,26.66,1.2c10.6,0,20.01-.59,27.93-1.36v.01Z" fill="#dedc00" stroke-width="0"/><path d="M144.31,245.72c-27.88,1.43-51.03,5.59-68.24,9.69c7.47-4.04,17.25-8.6,29.4-12.67c11.87-3.97,22.85-6.4,31.88-7.93c11.14-1.52,24.51-2.75,39.7-2.96c16.77-.23,31.54.85,43.68,2.3-.21,4.99-.42,9.97-.63,14.96-19.09-2.7-45.18-4.96-75.79-3.39Zm158.79,20c10.63.72,20.34,1.47,31.56,6.9c7.2,3.49,12.49,7.68,15.92,10.8-30.7-3.16-64.83-5.49-102.05-7.07-35.65-1.51-68.55-2.11-98.39-1.68c1.78-2.03,4.55-4.71,8.51-6.97c6.2-3.55,12.09-4.24,15.31-4.37c7.74-.77,19.37-1.71,33.56-1.91c13.05-.19,16,.41,42.84,1.48c5.37.21,26.16,1.03,52.75,2.82h-.01Zm-189.76-5.01c-9.29.1-18.41.08-27.34-.04c7.3,3.33,16.6,6.79,27.68,9.15c7.6,1.62,14.56,2.41,20.64,2.74c1.24-1.8,2.57-3.64,4-5.51c1.94-2.54,3.87-4.89,5.76-7.07-10.01.37-20.26.61-30.74.72v.01Zm178.83-8.69c.19-4.53.38-9.06.58-13.59c12.21-.33,27.03-.11,43.72,1.45c15.12,1.41,28.35,3.61,39.33,5.88c8.87,2.11,19.61,5.2,31.13,9.75c11.79,4.66,21.17,9.58,28.28,13.84-16.82-5.1-39.55-10.74-67.22-14.29-30.39-3.89-56.56-3.96-75.81-3.05l-.01.01Zm58.89,20.16c1.7,2.33,3.43,4.84,5.14,7.53c1.26,1.99,2.43,3.93,3.51,5.83c6.08.19,13.09-.01,20.8-.98c11.24-1.42,20.8-4.07,28.36-6.77-8.91-.64-18-1.4-27.25-2.28-10.43-.99-20.62-2.11-30.56-3.32v-.01Zm-61.44-60.87c6.74.55,12.9,1.15,19.94,6.41c4.52,3.38,7.82,7.48,9.95,10.55-19.45-2.69-41.11-4.48-64.73-5.48-22.63-.96-43.52-1.05-62.49-.16c1.16-2.06,2.96-4.78,5.51-7.1c4-3.64,7.75-4.42,9.79-4.6c4.93-.89,12.33-2,21.35-2.43c8.3-.39,10.16.16,27.2.82c3.41.13,16.61.62,33.47,2l.01-.01ZM87.04,218.09c-18.5,5.17-33.37,12.4-44.26,18.77c4.35-4.99,10.17-10.81,17.67-16.46c7.33-5.52,14.3-9.39,20.12-12.12c7.23-3.01,16.02-6.02,26.19-8.27c11.23-2.49,21.34-3.42,29.73-3.63.68,4.94,1.36,9.89,2.04,14.83-13.27-.09-31.17,1.21-51.49,6.88Zm131.65-42.37c4.51-.35,8.64-.58,14.11,3.67c3.51,2.73,6.35,6.34,8.25,9.08-13.18-.06-27.65,1.05-43.28,3.2-14.97,2.06-28.67,4.75-40.94,8.15.42-2.18,1.16-5.1,2.44-7.73c2.02-4.12,4.35-5.39,5.66-5.84c3.08-1.54,7.75-3.62,13.58-5.24c5.37-1.49,6.68-1.19,17.94-2.81c2.25-.32,10.98-1.59,22.24-2.47v-.01Zm130.24,12.61c4.38,1.13,8.35,2.26,12.15,8.06c2.44,3.72,3.94,8.06,4.85,11.26-12.44-4.34-26.49-8-41.97-11.04-14.83-2.92-28.66-4.82-41.37-5.6c1.11-1.93,2.75-4.45,4.82-6.52c3.25-3.24,5.86-3.68,7.25-3.69c3.41-.45,8.5-.9,14.55-.54c5.56.33,6.7,1.04,17.88,3.18c2.24.43,10.9,2.06,21.84,4.89Zm38.29,27.14c1.09-4.87,2.19-9.74,3.28-14.61c8.35.92,18.34,2.71,29.32,6.14c9.95,3.11,18.45,6.86,25.4,10.46c5.56,3.21,12.18,7.66,19.02,13.78c6.99,6.26,12.3,12.56,16.22,17.89-10.31-7.26-24.52-15.73-42.51-22.45-19.76-7.38-37.49-10.18-50.72-11.22l-.01.01Z" fill="#0bbbef" stroke-width="0"/><g><g><g><path d="M226.72,200.28l-36.76,96.4c-1.17,3.19.43,6.1,3.65,6.46.35.04.7.08,1.08.03l103.02-5.28-70.99-97.62v.01Z" fill="#3cbff0" stroke="#0e4580" stroke-width="0.5" stroke-miterlimit="10"/><path d="M322.41,246.25l-38.93-53.52c-2.25-3.14-6.54-4.4-11.15-3.33l-45.61,10.88l71.07,97.65l24.37-40.04c2.44-4.04,2.55-8.54.25-11.65v.01Z" fill="#3cbff0" stroke="#0e4580" stroke-width="0.5" stroke-miterlimit="10"/><path d="M191.49,294.39l56.83-64.32l27.82,38.24-78.84,34.33c-3.38,1.43-6.74.2-7.46-2.65-.45-1.84.17-3.92,1.65-5.6Z" fill="#86d0f2" stroke="#0e4580" stroke-width="0.5" stroke-miterlimit="10"/><polygon points="276.11,268.25 248.32,230.07 287.51,198.29 318.41,240.74 276.11,268.25" fill="#8bd2f0" stroke="#0e4580" stroke-width="0.5" stroke-miterlimit="10"/></g><path d="M177.91,280.91c22.12,3.56,41.49,5.53,57.24,6.66c8.16.59,22.44,1.46,40.35,1.65c13.7.15,26.01-.14,36.63-.6-1.21,7.32-2.41,14.65-3.62,21.97-36.2-.31-74.13-2.36-113.57-6.67-7.11-.78-14.16-1.62-21.13-2.51c1.36-6.83,2.72-13.66,4.08-20.49l.02-.01Z" fill="#008d39" stroke-width="0"/><g id="evECfnWDc0a29_tr" transform="translate(259.164986,207.644574) rotate(0)"><path d="M259.01,415.29c-.61,0-1.11-68.3-1.49-204.86C113,241.88,41.05,257.18,40.9,256.51s71.5-17.32,215.74-50.13C168.12,69.06,124.09,0.28,124.51,0c.43-.28,45.36,68.02,134.78,204.86C348.97,68.05,393.88,-0.02,394.3,0.26s-43.65,68.89-132.48,206.25c143.86,33.04,215.74,49.85,215.61,50.41s-72.2-15.1-216.24-47c-.84,136.92-1.56,205.37-2.17,205.37h-.01Z" transform="translate(-259.164986,-207.644574)" fill="url(#evECfnWDc0a29-fill)" stroke-width="0"/></g><g id="evECfnWDc0a30_tr" transform="translate(263.134995,219.759995) rotate(0)"><path d="M472.83,313.93c-68.03-27.87-136.06-55.74-204.09-83.6-33.26,66.38-66.51,132.75-99.77,199.13C196.49,360.67,224,291.89,251.52,223.1c-66.03-32.5-132.05-65.01-198.08-97.51c68.66,27.12,137.32,54.24,205.98,81.36c32.63-65.63,65.25-131.26,97.88-196.89-26.73,67.98-53.46,135.95-80.19,203.93c65.24,33.31,130.48,66.62,195.72,99.93v.01Z" transform="translate(-263.134995,-219.759995)" fill="url(#evECfnWDc0a30-fill)" stroke-width="0"/></g><g id="evECfnWDc0a31_tr" transform="translate(274.764999,231.780006) rotate(0)"><polygon points="349.13,298.2 279.51,246.2 254.42,329.39 264.65,243.1 180.06,262.97 259.91,228.68 200.4,165.36 270.02,217.36 295.11,134.17 284.88,220.46 369.47,200.59 289.63,234.88 349.13,298.2" transform="translate(-274.764999,-231.780006)" fill="url(#evECfnWDc0a31-fill)" stroke-width="0"/></g><g id="evECfnWDc0a32_tr" transform="translate(253.985001,231.780006) rotate(0)"><polygon points="335.57,318.66 263.15,247.44 289.79,345.45 255.45,249.87 236.92,349.73 247.46,248.71 187.44,330.65 240.76,244.2 151.13,291.98 236.68,237.23 135.19,241.4 236.03,229.18 142.79,188.9 238.93,221.65 172.4,144.9 244.82,216.12 218.18,118.11 252.52,213.7 271.05,113.83 260.51,214.85 320.53,132.91 267.21,219.36 356.84,171.58 271.29,226.33 372.78,222.17 271.94,234.38 365.18,274.66 269.04,241.91 335.57,318.66" transform="translate(-253.985001,-231.780006)" fill="url(#evECfnWDc0a32-fill)" stroke-width="0"/></g></g></g></svg>
