<svg xmlns="http://www.w3.org/2000/svg" viewBox="0 0 578.8 654"><style>.st0{fill:#ce4d36}.st1{fill:#e25e40}.st3{fill:#eee7e5}.st4{fill:#676666}.st8{fill:#c6c5c6}.st12{stroke-width:2}.st12,.st13,.st8{stroke:#575756;stroke-miterlimit:10}.st8{stroke-width:2}.st12{fill:#c5c5c6}.st13,.st14{fill:#f7c3d2;stroke-width:.25}.st14{stroke-width:2}.st14,.st15,.st16,.st17{stroke:#575756;stroke-miterlimit:10}.st15{stroke-width:3;stroke-linecap:round}.st16{fill:#fff}.st17{fill:none;stroke-width:2;stroke-linecap:round}</style><g id="stork"><path class="st0" d="M465 472.1l31.6-8.8s13.9-5.1 4.2-14.9l-26.9-41.8 18.1-1.9 47.4 55.7s7.9 10.2-10.7 14.4c0 0-158.8 23.7-190.8 91 0 0-4.6 2.3-5.1-9.7-.2 0-6.7-68.7 132.2-84z"/><path class="st0" d="M415.3 502.5s-9.5 23.9-6.5 35.3c0 0-4.9 1.9-6.5-2.8-1.6-4.6-4.9-20.2-4.9-25.5s17.9-7 17.9-7zm-28.2 13.8s-11.2 28.3-7.7 41.7c0 0-5.8 2.2-7.7-3.3-1.9-5.5-5.8-23.9-5.8-30.2.1-6.3 21.2-8.2 21.2-8.2z"/><path class="st1" d="M454.1 408.7s5.6 10.2-2.8 24.5c0 0-.9 60.3.9 119.2v63.1l-13.6.6-14.9-196.5 30.4-10.9z"/><path d="M499.3 361.3s-18.6 6.2-5.6 42.1c0 0-10.5 10.5-21.7 9.3 0 0-21-25.4-27.9-36.5.1 0 6.9-40.3 55.2-14.9z" fill="#d9d4d3"/><path class="st3" d="M398.4 317.4l102.8 40.2s-47-5-48.9 18.6l6.2 35.9s-14.2.6-21.4 5.3c-7.1 4.6-13.9 6.5-16.4 5.9 0 0 6.8-43.9 0-57.6 0-.1-8.7-34.7-22.3-48.3z"/><path class="st4" d="M391.6 224.5l112.7 57.6s32.2 10.5 45.2 24.8c0 0 52.6 54.5 10.5 105.2 0 0-.6-14.2-5-16.1l-8.7 20.4s-6.2-25.4-11.1-28.5c0 0-12.4 17.9-15.5 19.2 0 0-9.9-29.1-19.8-37.8 0 0-22.9-21.7-59.4-28.5 0 0-45.2-16.7-66.2-33.4l-11.1-74.3 28.4-8.6z"/><path class="st0" d="M419.5 45s79.9 9.9 32.8 39L222 123.6 419.5 45z"/><path class="st1" d="M419.5 45s44.9 5.6 47.5 20.6c.9 5-245 58-245 58L419.5 45z"/><path class="st3" d="M310.5 211.5s18-78 104-109.6c0 0 45.2-20.4 50.1-35.9 0 0-16.1-18.6-45.2-21 0 0-6.8-50.1 52-40.9C487.6 6.7 515 24 516.6 50c.6 9.9 5 41.5-37.8 54.5 0 0-91 37.1-78 78 0 0 1.9 37.1 46.4 50.1 0 0 50.6 20.9 59.9 50.6 0 0-67.3-13.5-108.2-46.9l14.9 46.4s-31.6-13-42.7-22.3c0 0 9.3 48.3 5.6 57.6 0 0-20.4-11.1-27.9-27.9 0 0-5.6 13-3.7 26 0 0-27.9-26-24.1-53.9 0 0-5 9.3-6.2 14.2 0 .1-16.7-11.7-4.3-64.9z"/><circle cx="462.2" cy="46.9" r="9.3" fill="#d1d1d1"/><circle cx="462.2" cy="46.9" r="8.3" fill="#fff"/><circle class="st4" cx="462.2" cy="46.9" r="5.1"/><circle class="st3" cx="460.3" cy="44.9" r="1.9"/><path class="st1" d="M361.9 633.4c-2.8-1.5-11.3 6.8-11.3 1.9 0-5 8.9-9.3 13.2-11.1 25.6-11.1 56.9-10.8 56.9-10.8 57.9-5.9 82.3 32.2 82.3 32.2 3.4 13.9-16.6-3.4-24.8-6.2-43-14.5-127 10.7-130.3 6.5-3.2-4.3 16.8-11 14-12.5z"/><path d="M444.3 46.4c3.8-2.3 9.3-4.7 15.2-3.7 10.6 1.8 17.9 13.5 19.6 12.2 1-.8-1.3-4.7-.5-5.1.7-.4 3.7 2.2 5.1 5.8 1.2 3 .9 5.4 1.2 5.4.5 0 2.8-6.1.9-11.7-3-8.7-14.4-10.9-16.1-11.2-13.3-2.6-23.9 6.9-25.4 8.3z" fill="#dad4d2"/></g><g id="Слой_2"><path class="st8" d="M81.8 634.9c-.7 1.9-2.8 6.8-7.9 9.7-5 2.9-12.2 3.6-16.1.4-.5-.4-2-1.6-2.4-3.6-.5-2.1.4-3.9 1.1-5.4.9-1.9 2.2-3.3 3.4-4.3 7.2 1.1 14.5 2.2 21.9 3.2z"/><path class="st8" d="M61.3 639.8c-.4.3-1.2 1.1-1.6 2.2-.7 1.8-.2 3.5-.1 4m8.4-5.4c-.4.3-1.2 1.1-1.6 2.2-.7 1.8-.2 3.5-.1 4m50.4-10.8c.7 1.9 2.8 6.8 7.9 9.7 5 2.9 12.2 3.6 16.1.4.5-.4 2-1.6 2.4-3.6.5-2.1-.4-3.9-1.1-5.4-.9-1.9-2.2-3.3-3.4-4.3-7.3 1.1-14.6 2.2-21.9 3.2z"/><path d="M137.1 640.9c.4.3 1.2 1.1 1.6 2.2.7 1.8.2 3.5.1 4m-8.4-5.4c.4.3 1.2 1.1 1.6 2.2.7 1.8.2 3.5.1 4" fill="#c6c5c6" stroke-linecap="round" stroke="#575756" stroke-width="2" stroke-miterlimit="10"/><path d="M186.2 637.2c4-7.3 5.7-15-4.3-17.1-2.5-.5-5.2.2-7.7.8-2.6.7-4 1.6-6.7 2.7-7.2 2.8-16.2 1.7-22.7-2.7l-3.3-2.1c-12.8-9.1-.5-27.9 13-19.8 1.9 1.2 3.3 3 4.2 4.9.4.9.8 1.7 1.7 2.3 2.2 1.7 4.6 1.2 7.6 1.1 3.1-.2 6 .2 9 .7 4.7.7 9.3 2.9 12.7 6.3 7.8 7.6 4 17-3.5 22.9z" fill="#c7c5c6"/><path class="st8" d="M68.6 542.7c-8.9 13.5-14.3 25.6-17.6 34.5-4.1 10.9-6.3 20.1-6.4 30.2-.1 9.5 1.7 14.3 3.6 17.6 1.1 1.9 4.7 8 11.8 10.9 5 2.1 9.4 1.6 15.7.7 13-1.7 13.6-5.4 22.1-5.4 8.1 0 8.2 3.5 19.9 5.2 7.3 1.1 14 2.1 20.8-1.1 10.6-5 14-16.5 14.8-19.1 2.4-7.9 1.2-14.5-.2-21.7-.7-3.6-2.1-10-6.7-20-3.6-7.8-9.4-18.7-18.9-30.5-19.7-.5-39.3-.9-58.9-1.3z"/><path d="M80.2 544.8c-5.2 9.4-12.3 25.5-11.2 43.5.6 9.2 2.9 13.4 5.2 15.9 4.8 5.3 11.6 6.4 18.2 7.5 8.7 1.5 15.3.2 16.9-.2 5.1-1.1 10.1-2.2 14.2-6.4 4.4-4.4 5.3-9.9 6-14.1.5-3 1.2-8.9-1.5-20.2-1.5-6.4-4.3-15.5-9.7-25.9-12.7 0-25.4 0-38.1-.1z" fill="#ededed" stroke="#575756" stroke-width="2" stroke-miterlimit="10"/><path class="st12" d="M65.5 544.4c-2.1 2.1-5.1 5.4-7.7 10.1-1.9 3.4-4.4 8-4.8 14.4-.2 3.5-.6 10.9 4.6 16.4 6.9 7.4 18.2 5.2 19 5 .2-3 .4-6 .7-9.1-1.4-.3-4-1-6.4-2.9-4.2-3.4-5.1-8.1-5.4-9.8-.7-4.1.2-7.2 1.5-11.2.9-3 2.7-7.5 6.1-12.5-2.7 0-5.1-.2-7.6-.4z"/><path class="st13" d="M76.8 580.6c-1.3 1.2-1.5 2.7-1.8 4-.2 1.2-.9 4.8 1.4 7.3 1.7 1.8 3.9 2 5.3 2.1 1.1.1 3.6.3 4.3-1 .4-.7.3-1.6-.2-2.2-.3-.5-.8-.6-1.8-.9-.9-.3-1.7-.4-2.3-.4h2.1c1.9 0 2.3.1 2.8-.3.7-.5.8-1.5.8-1.7.1-.9-.3-1.8-1-2.4-.3-.2-.6-.4-2.3-.6-.7-.1-1.7-.2-2.7-.2h2.5c1.6-.1 2.4-.2 3-.8.8-.8 1-2.2.4-3.1-.3-.4-.9-.8-3.4-.9-3.6-.3-5.5-.3-7.1 1.1z"/><path class="st12" d="M136.6 546.4c1.5 2.6 3.5 6.6 4.8 11.8.9 3.7 2.1 8.9.8 15.2-.8 3.4-2.3 10.7-8.7 14.6-8.7 5.3-18.9.2-19.6-.2.6-3 1.2-5.9 1.8-8.9 1.5.1 4.1.1 7-1.1 4.9-2.1 7-6.4 7.8-8 1.8-3.7 1.7-7 1.6-11.2-.1-3.2-.6-8-2.5-13.6 2.1.5 4.5 1 7 1.4z"/><path class="st13" d="M116.1 578.4c.9 1.5.8 3 .7 4.3-.1 1.2-.4 4.8-3.3 6.6-2.1 1.3-4.3.9-5.7.6-1.1-.2-3.5-.7-3.9-2.2-.2-.7.1-1.6.8-2.1.5-.4 1-.4 2-.4s1.7.1 2.3.2c-.4-.1-1.1-.3-2.1-.5-1.8-.4-2.3-.5-2.7-1-.5-.7-.4-1.6-.3-1.9.2-.9.8-1.7 1.6-2 .3-.1.7-.2 2.4 0 .7.1 1.6.3 2.7.5-.6-.1-1.4-.3-2.4-.7-1.5-.6-2.3-.8-2.6-1.5-.5-.9-.4-2.4.4-3.1.4-.3 1.1-.6 3.5 0 3.6.9 5.4 1.4 6.6 3.2z"/><path class="st8" d="M136.6 458.9c1.1-2.3 3.4-6.4 7.9-9.7 7.7-5.8 16.4-5.3 19.8-4.9 9.1 1.2 14.8 6.5 17.1 8.7 1.2 1.1 6.6 6.6 9 15.7 2.3 8.5.7 15.6-.2 19-3 10.4-10 16.3-13.4 19.1-5.6 4.7-11 6.6-16.4 8.7-7.6 2.8-11.7 2.9-13 2.8-4.7-.1-8.4-1.4-10.8-2.4.1-19.1.1-38 0-57z"/><path class="st14" d="M141.1 467.6c.9-1.3 4-5.3 9.7-6.9 6.6-1.9 12 .6 13.5 1.4 6 3.1 8.3 8.5 8.9 10 2.8 7 .7 13.4-.2 15.9-2.2 6.5-6.5 10.3-8.2 11.7-4 3.5-8 4.9-10.3 5.7-2.9 1-6.2 2.1-10.5 1.7-2.3-.3-4.1-.9-5.3-1.4l2.4-38.1z"/><path class="st8" d="M62.7 460.7c-1.1-2.4-3.3-6.5-7.7-9.9-7.6-6-16.3-5.7-19.7-5.3-9.2 1-15 6.2-17.2 8.3-1.2 1.1-6.7 6.4-9.4 15.5-2.4 8.4-1.1 15.6-.1 19 2.8 10.5 9.6 16.5 13 19.4 5.5 4.8 10.8 6.9 16.2 9 7.6 3 11.6 3.1 12.9 3.1 4.7 0 8.5-1.2 10.8-2.2.4-18.9.8-37.9 1.2-56.9z"/><path class="st14" d="M58.1 469.3c-.9-1.3-3.9-5.3-9.5-7.1-6.5-2-12 .4-13.5 1.1-6.1 3-8.5 8.3-9.1 9.8-3 7-.9 13.4-.1 15.9 2.1 6.6 6.3 10.4 7.9 11.9 3.9 3.5 7.8 5 10.2 5.9 2.9 1.1 6.2 2.3 10.5 1.9 2.3-.2 4.1-.8 5.3-1.2-.7-12.7-1.2-25.5-1.7-38.2z"/><path class="st8" d="M130 547.5c-4.1.6-9.4 1.3-15.6 1.9-9.9.8-17.7.8-21.5.7-7.6-.2-12.8-.3-19.9-1.5-6.8-1.2-12.5-2.3-18.7-6.2-2.5-1.6-6.1-3.9-9-8.2-.8-1.1-3.4-5.2-4.5-15-.2-1.8-1-9.5.7-21.4.9-6.2 2.1-13.7 6-22.9 2.3-5.4 5.3-12.3 12-19.1 2.2-2.2 8.9-8.7 19.9-12.7 2.8-1 12.6-4.4 25.5-3 3.9.4 11.1 1.3 19.1 5.6 1.6.8 8.8 4.8 15.4 13.1 5.7 7.1 7.9 13.6 11.2 23.6 3.3 9.7 4.4 16.9 5.2 22.1 2.1 13.1.9 17.8.4 19.9-.8 2.9-2.5 7.3-6 11.6-7 8.7-16.9 10.9-20.2 11.5z"/><ellipse class="st15" cx="121.8" cy="507.9" rx="8" ry="9.6"/><circle class="st16" cx="119.4" cy="509.3" r="3.2"/><path class="st17" d="M180.8 540.9L124 526.8m47.1 24.6L129.5 534m27.8 24.7l-34.9-22.8"/><path d="M97.9 517.6c-1.3 0-1.4-.5-2.6-.4-.2 0-2.4.1-3.2 1.5-.7 1.2.2 2.5.4 2.8 1 1.5 2.9 2 3.6 2.1 2.1.5 3.9-.1 4.4-.3 1.2-.4 2-1 2.3-1.3.7-.5 1.1-.9 1.3-1.6.3-1.1-.4-2-.6-2.2-.9-1.1-2.5-1.2-2.7-1.2-1.2 0-1.4.6-2.9.6z" stroke="#575756" stroke-miterlimit="10"/><path d="M98.5 523.9c-2.6 7.2-5.7 8.8-9.2 6.2m9.2-6.4c2.2 7.7 5.4 9.3 9.2 6.2" stroke-width="3" fill="none" stroke-linecap="round" stroke="#575756" stroke-miterlimit="10"/><path class="st17" d="M17.4 543.4l56.2-16.1m-46.1 26.2l40.9-18.8m-26.9 25.6l34.1-24"/><g><ellipse class="st15" cx="76.4" cy="507.9" rx="8" ry="9.6"/><circle class="st16" cx="78.8" cy="509.3" r="3.2"/></g></g></svg>