<svg version="1.1" id="stork" xmlns="http://www.w3.org/2000/svg" x="0" y="0" viewBox="0 0 362.7 654" xml:space="preserve"><style>.st0{fill:#ce4d36}.st1{fill:#e25e40}.st3{fill:#eee7e5}.st4{fill:#676666}</style><path class="st0" d="M113.3 470.8L81.8 462s-13.9-5.1-4.2-14.9l26.9-41.8-18.1-1.9L39 459.1s-7.9 10.2 10.7 14.4c0 0 158.8 23.7 190.8 91 0 0 4.6 2.3 5.1-9.7 0 0 6.5-68.7-132.3-84z"/><path class="st0" d="M163 501.2s9.5 23.9 6.5 35.3c0 0 4.9 1.9 6.5-2.8 1.6-4.6 4.9-20.2 4.9-25.5 0-5.3-17.9-7-17.9-7zm28.2 13.8s11.2 28.3 7.7 41.7c0 0 5.8 2.2 7.7-3.3 1.9-5.5 5.8-23.9 5.8-30.2-.1-6.3-21.2-8.2-21.2-8.2z"/><path class="st1" d="M124.2 407.4s-5.6 10.2 2.8 24.5c0 0 .9 60.4-.9 119.2v63.1l13.6.6 14.9-196.5-30.4-10.9z"/><path d="M79 360s18.6 6.2 5.6 42.1c0 0 10.5 10.5 21.7 9.3 0 0 21-25.4 27.9-36.5-.1 0-6.9-40.3-55.2-14.9z" fill="#d9d4d3"/><path class="st3" d="M179.9 316.1L77.1 356.3s47-5 48.9 18.6l-6.2 35.9s14.2.6 21.4 5.3c7.1 4.6 13.9 6.5 16.4 5.9 0 0-6.8-43.9 0-57.6 0 0 8.7-34.7 22.3-48.3z"/><path class="st4" d="M186.7 223.2L74 280.8s-32.2 10.5-45.2 24.8c0 0-52.6 54.5-10.5 105.2 0 0 .6-14.2 5-16.1l8.7 20.4s6.2-25.4 11.1-28.5c0 0 12.4 17.9 15.5 19.2 0 0 9.9-29.1 19.8-37.8 0 0 22.9-21.7 59.4-28.5 0 0 45.2-16.7 66.2-33.4l11.1-74.3-28.4-8.6z"/><path class="st0" d="M158.8 43.7s-79.9 9.9-32.8 39l230.3 39.6-197.5-78.6z"/><path class="st1" d="M158.8 43.7s-44.9 5.6-47.5 20.6c-.9 5 245 58 245 58L158.8 43.7z"/><path class="st3" d="M267.8 210.2s-18-78-104-109.6c0 0-45.2-20.4-50.1-35.9 0 0 16.1-18.6 45.2-21 0 0 6.8-50.1-52-40.9-16.2 2.6-43.6 19.9-45.2 45.9-.6 9.9-5 41.5 37.8 54.5 0 0 91 37.1 78 78 0 0-1.9 37.1-46.4 50.1 0 0-50.6 20.9-59.9 50.6 0 0 67.3-13.5 108.2-46.9l-14.9 46.4s31.6-13 42.7-22.3c0 0-9.3 48.3-5.6 57.6 0 0 20.4-11.1 27.9-27.9 0 0 5.6 13 3.7 26 0 0 27.9-26 24.1-53.9 0 0 5 9.3 6.2 14.2-.1.1 16.7-11.6 4.3-64.9z"/><circle cx="116.1" cy="45.6" r="9.3" fill="#d1d1d1"/><circle cx="116.1" cy="45.6" r="8.3" fill="#fff"/><circle class="st4" cx="116.1" cy="45.6" r="5.1"/><circle class="st3" cx="118" cy="43.7" r="1.9"/><path class="st1" d="M216.4 632.1c2.8-1.5 11.3 6.8 11.3 1.9 0-5-8.9-9.3-13.2-11.1-25.6-11.1-56.9-10.8-56.9-10.8-57.9-5.9-82.3 32.2-82.3 32.2-3.4 13.9 16.6-3.4 24.8-6.2 43-14.5 127 10.7 130.3 6.5 3.2-4.3-16.8-11-14-12.5z"/><path d="M134 45.1c-3.8-2.3-9.3-4.7-15.2-3.7-10.6 1.8-17.9 13.5-19.6 12.2-1-.8 1.3-4.7.5-5.1-.7-.4-3.7 2.2-5.1 5.8-1.2 3-.9 5.4-1.2 5.4-.5 0-2.8-6.1-.9-11.7 3-8.7 14.4-10.9 16.1-11.2 13.2-2.6 23.9 6.9 25.4 8.3z" fill="#dad4d2"/></svg>