<?xml version="1.0" encoding="utf-8"?>
<!-- Generator: Adobe Illustrator 27.9.0, SVG Export Plug-In . SVG Version: 6.00 Build 0)  -->
<svg version="1.1" xmlns="http://www.w3.org/2000/svg" xmlns:xlink="http://www.w3.org/1999/xlink" x="0px" y="0px"
	 viewBox="0 0 1309 549" style="enable-background:new 0 0 1309 549;" xml:space="preserve">
<style type="text/css">
	.st0{fill:#B3B3B3;stroke:#666666;stroke-miterlimit:10;}
	.st1{fill:#00953A;}
	.st2{fill:#77BC1F;}
	.st3{opacity:0.5;fill:#218649;enable-background:new    ;}
	.st4{fill:#91CC04;stroke:#006837;stroke-width:3;stroke-miterlimit:10;}
	.st5{fill:#A78966;}
	.st6{fill:#603813;}
	.st7{fill:#D6EEF0;}
	.st8{fill:#DAD7D7;stroke:#8C6239;stroke-width:2;stroke-miterlimit:10;}
	.st9{fill:#55180A;stroke:#8C6239;stroke-width:2;stroke-miterlimit:10;}
	.st10{fill:#998675;}
	.st11{fill:#604559;stroke:#42210B;stroke-width:2;stroke-miterlimit:10;}
	.st12{fill:#F4B679;stroke:#8C6239;stroke-width:2;stroke-miterlimit:10;}
	.st13{fill:#653E46;}
	.st14{fill:#F9F3D9;}
	.st15{fill:#DBB471;}
	.st16{fill:#653E5F;}
	.st17{fill:#D0D0D0;}
	.st18{fill:#94989B;}
	.st19{fill:#89664C;}
	.st20{fill:#594640;}
	.st21{fill:#B39A7C;}
	.st22{fill:#317F46;}
	.st23{fill:#3FA45A;}
	.st24{fill:#736357;}
	.st25{fill:#ECC971;stroke:#A67C52;stroke-miterlimit:10;}
	.st26{fill:#203538;}
	.st27{fill:#FDD7C8;stroke:#8C6239;stroke-width:2;stroke-miterlimit:10;}
	.st28{fill:#75180A;stroke:#8C6239;stroke-width:2;stroke-miterlimit:10;}
	.st29{fill:#153442;}
	.st30{fill:#9999C4;}
	.st31{fill:#85A9BB;}
	.st32{fill:#151D42;}
	.st33{fill:#D6EEF0;stroke:#95EEF0;stroke-width:0.25;stroke-miterlimit:10;}
	.st34{fill:#563442;}
	.st35{fill:#896A5B;}
	.st36{fill:#42210B;stroke:#998634;stroke-miterlimit:10;}
	.st37{fill:#FBCEB3;stroke:#998634;stroke-miterlimit:10;}
	.st38{fill:#A4A9AD;}
	.st39{fill:#333E48;}
	.st40{fill:#FFB819;}
	.st41{fill:#D68231;}
</style>
<g id="road">
	<path class="st0" d="M290.5,548.5c-10.4-28.2-17.1-71.7,15-114.7c37.4-50,110.2-76.2,152-91.2c99.8-35.9,147.8-24.3,176-54.9
		c36.6-39.6-10.3-95.7-22-109.7c-29.6-35.4-73.6-55.8-101-68.4C471.9,91.7,435,81.2,408.5,75c25.7,0,51.3,0,77,0
		c14.2,3.4,33.4,8.5,55,16c28.7,10,83.5,29.4,127,67.2c20.2,17.5,59.9,52,59,100.5c-0.2,10.5-1,53.7-47,88.8
		c-22.3,17-39.1,19.8-42,32.7c-6.8,30.5,77.7,60.8,89,64.7c89.7,31.5,143.3,12.5,237,32.7c41.5,8.9,99.9,27.5,160,70.9
		C845.8,548.5,568.2,548.5,290.5,548.5z"/>
</g>
<g id="bush2">
	<g>
		<g>
			<path class="st1" d="M177.6,436.1c0,5.3,4.3,9.6,9.6,9.6h39.7h0c5.3,0,9.6-4.3,9.6-9.6c0-4.4-2.9-8-6.9-9.2c0-0.3,0-0.5,0-0.8
				c0-4.3-3.2-7.9-7.4-8.5c-0.6-4.2-4.1-7.4-8.5-7.4c-2.9,0-5.5,1.5-7.1,3.8c-1.4-0.9-3-1.4-4.7-1.4c-1.1,0-2.2,0.2-3.2,0.6
				c-1-0.4-2.1-0.6-3.2-0.6c-3.7,0-6.8,2.3-8,5.5c-3.8,1.3-6.5,5-6.5,9.2c0,0.4,0,0.8,0.1,1.2C179,430.4,177.6,433.1,177.6,436.1z"
				/>
		</g>
		<g>
			<path class="st2" d="M189.4,434.9c0,6,4.9,10.9,10.9,10.9h31.3c6,0,10.9-4.9,10.9-10.9c0-5.3-3.8-9.7-8.9-10.7
				c-1.3-4.5-5.5-7.9-10.5-7.9c-3.1,0-5.9,1.3-7.9,3.4c-1.3-0.5-2.7-0.8-4.2-0.8c-3.9,0-7.4,2.1-9.3,5.2c-0.5-0.1-1-0.1-1.6-0.1
				C194.2,424,189.4,428.8,189.4,434.9z"/>
			<path class="st3" d="M216.7,418.5v27.3h14.9c6,0,10.9-4.9,10.9-10.9c0-5.3-3.8-9.7-8.9-10.7c-1.3-4.5-5.5-7.9-10.5-7.9
				C220.7,416.3,218.5,417.1,216.7,418.5z"/>
		</g>
	</g>
	<g>
		<g>
			<path class="st1" d="M207,448c0,5.3,4.3,9.6,9.6,9.6h39.7h0c5.3,0,9.6-4.3,9.6-9.6c0-4.4-2.9-8-6.9-9.2c0-0.3,0-0.5,0-0.8
				c0-4.3-3.2-7.9-7.4-8.5c-0.6-4.2-4.1-7.4-8.5-7.4c-2.9,0-5.5,1.5-7.1,3.8c-1.4-0.9-3-1.4-4.7-1.4c-1.1,0-2.2,0.2-3.2,0.6
				c-1-0.4-2.1-0.6-3.2-0.6c-3.7,0-6.8,2.3-8,5.5c-3.8,1.3-6.5,5-6.5,9.2c0,0.4,0,0.8,0.1,1.2C208.4,442.2,207,444.9,207,448z"/>
		</g>
		<g>
			<path class="st2" d="M218.8,446.7c0,6,4.9,10.9,10.9,10.9h31.3c6,0,10.9-4.9,10.9-10.9c0-5.3-3.8-9.7-8.9-10.7
				c-1.3-4.5-5.5-7.9-10.5-7.9c-3.1,0-5.9,1.3-7.9,3.4c-1.3-0.5-2.7-0.8-4.2-0.8c-3.9,0-7.4,2.1-9.3,5.2c-0.5-0.1-1-0.1-1.6-0.1
				C223.7,435.8,218.8,440.7,218.8,446.7z"/>
			<path class="st3" d="M246.1,430.3v27.3h14.9c6,0,10.9-4.9,10.9-10.9c0-5.3-3.8-9.7-8.9-10.7c-1.3-4.5-5.5-7.9-10.5-7.9
				C250.2,428.1,247.9,428.9,246.1,430.3z"/>
		</g>
	</g>
	<g>
		<g>
			<path class="st1" d="M223.7,446.5c0.1-0.4,0.1-0.8,0.1-1.2c0-4.2-2.7-7.9-6.5-9.2c-1.2-3.2-4.3-5.5-8-5.5c-1.1,0-2.2,0.2-3.2,0.6
				c-1-0.4-2.1-0.6-3.2-0.6c-1.7,0-3.4,0.5-4.7,1.4c-1.5-2.3-4.1-3.8-7.1-3.8c-4.3,0-7.9,3.2-8.5,7.4c-4.2,0.5-7.4,4.1-7.4,8.5
				c0,0.3,0,0.5,0,0.8c-4,1.2-6.9,4.9-6.9,9.2c0,5.3,4.3,9.6,9.6,9.6h0h39.7c5.3,0,9.6-4.3,9.6-9.6
				C227.4,450.9,226,448.2,223.7,446.5z"/>
		</g>
		<g>
			<path class="st2" d="M204.7,441.8c-0.5,0-1.1,0-1.6,0.1c-1.9-3.1-5.4-5.2-9.3-5.2c-1.5,0-2.9,0.3-4.2,0.8c-2-2.1-4.8-3.4-7.9-3.4
				c-5,0-9.1,3.3-10.5,7.9c-5,1-8.9,5.4-8.9,10.7c0,6,4.9,10.9,10.9,10.9h31.3c6,0,10.9-4.9,10.9-10.9
				C215.6,446.7,210.7,441.8,204.7,441.8z"/>
			<path class="st3" d="M181.8,434.1c-5,0-9.1,3.3-10.5,7.9c-5,1-8.9,5.4-8.9,10.7c0,6,4.9,10.9,10.9,10.9h14.9v-27.3
				C186.5,435,184.2,434.1,181.8,434.1z"/>
		</g>
	</g>
</g>
<g id="tree3">
	<g>
		<path class="st4" d="M399.7,167c0,10.1,8.2,18.4,18.4,18.4c3.2,0,6.3-0.8,9.1-2.4c0,0,0,0,0,0c1.2,1.1,2.6,2.1,4.1,2.8
			c1.3,0.6,2.7,1.1,4.1,1.4c1.2,0.2,2.4,0.4,3.6,0.4c9.2,0,16.8-7.3,17.3-16.4c4.2-4.2,6.6-9.8,6.6-15.9c0-11.6-8.9-21.2-20.1-22
			c-2.9-3.8-6.9-6.5-11.4-7.9c-2.1-0.6-4.3-1-6.6-1c-12.6,0-22.8,10.2-22.8,22.8c0,2.9,0.6,5.8,1.6,8.5
			C401,158.9,399.7,162.9,399.7,167z"/>
		<path class="st5" d="M427.1,182.9C427.1,182.9,427.1,182.9,427.1,182.9l0,27.9c0,2.3,1.8,4.1,4.1,4.1c2.3,0,4.1-1.8,4.1-4.1v-23.7
			c-1.4-0.3-2.8-0.8-4.1-1.4C429.7,185,428.4,184.1,427.1,182.9z"/>
	</g>
</g>
<g id="bush3">
	<g>
		<g>
			<path class="st1" d="M545.6,185c0.1-0.3,0.1-0.6,0.1-0.9c0-3.2-3.1-6-7.4-7c-1.4-2.5-4.9-4.2-9.1-4.2c-1.3,0-2.5,0.2-3.6,0.5
				c-1.1-0.3-2.3-0.5-3.6-0.5c-2,0-3.8,0.4-5.4,1.1c-1.7-1.7-4.7-2.9-8.1-2.9c-4.9,0-9,2.5-9.6,5.6c-4.8,0.4-8.5,3.1-8.5,6.5
				c0,0.2,0,0.4,0,0.6c-4.5,0.9-7.8,3.7-7.8,7c0,4,4.9,7.3,10.9,7.3h0h45.2c6,0,10.9-3.3,10.9-7.3
				C549.8,188.4,548.2,186.3,545.6,185z"/>
		</g>
		<g>
			<path class="st2" d="M523.9,181.4c-0.6,0-1.2,0-1.8,0.1c-2.2-2.4-6.1-4-10.6-4c-1.7,0-3.3,0.2-4.7,0.6c-2.3-1.6-5.4-2.6-9-2.6
				c-5.7,0-10.4,2.5-11.9,6c-5.7,0.7-10.1,4.1-10.1,8.2c0,4.6,5.6,8.3,12.4,8.3h35.7c6.9,0,12.4-3.7,12.4-8.3
				C536.3,185.1,530.8,181.4,523.9,181.4z"/>
			<path class="st3" d="M497.8,175.6c-5.7,0-10.4,2.5-11.9,6c-5.7,0.7-10.1,4.1-10.1,8.2c0,4.6,5.6,8.3,12.4,8.3h17v-20.8
				C503.2,176.2,500.6,175.6,497.8,175.6z"/>
		</g>
	</g>
	<g>
		<g>
			<path class="st1" d="M512.1,194c0.1-0.3,0.1-0.6,0.1-0.9c0-3.2-3.1-6-7.4-7c-1.4-2.5-4.9-4.2-9.1-4.2c-1.3,0-2.5,0.2-3.6,0.5
				c-1.1-0.3-2.3-0.5-3.6-0.5c-2,0-3.8,0.4-5.4,1.1c-1.7-1.7-4.7-2.9-8.1-2.9c-4.9,0-9,2.5-9.6,5.6c-4.8,0.4-8.5,3.1-8.5,6.5
				c0,0.2,0,0.4,0,0.6c-4.5,0.9-7.8,3.7-7.8,7c0,4,4.9,7.3,10.9,7.3h0h45.2c6,0,10.9-3.3,10.9-7.3
				C516.2,197.4,514.6,195.3,512.1,194z"/>
		</g>
		<g>
			<path class="st2" d="M490.4,190.4c-0.6,0-1.2,0-1.8,0.1c-2.2-2.4-6.1-4-10.6-4c-1.7,0-3.3,0.2-4.7,0.6c-2.3-1.6-5.4-2.6-9-2.6
				c-5.7,0-10.4,2.5-11.9,6c-5.7,0.7-10.1,4.1-10.1,8.2c0,4.6,5.6,8.3,12.4,8.3h35.7c6.9,0,12.4-3.7,12.4-8.3
				C502.8,194.2,497.3,190.4,490.4,190.4z"/>
			<path class="st3" d="M464.3,184.6c-5.7,0-10.4,2.5-11.9,6c-5.7,0.7-10.1,4.1-10.1,8.2c0,4.6,5.6,8.3,12.4,8.3h17v-20.8
				C469.7,185.2,467.1,184.6,464.3,184.6z"/>
		</g>
	</g>
	<g>
		<g>
			<path class="st1" d="M493.1,204.3c0,4,4.9,7.3,10.9,7.3h45.2h0c6,0,10.9-3.3,10.9-7.3c0-3.3-3.3-6.1-7.8-7c0-0.2,0-0.4,0-0.6
				c0-3.3-3.7-6-8.5-6.5c-0.6-3.2-4.7-5.6-9.6-5.6c-3.4,0-6.3,1.1-8.1,2.9c-1.5-0.7-3.4-1.1-5.4-1.1c-1.3,0-2.5,0.2-3.6,0.5
				c-1.1-0.3-2.3-0.5-3.6-0.5c-4.2,0-7.7,1.8-9.1,4.2c-4.3,1-7.4,3.8-7.4,7c0,0.3,0,0.6,0.1,0.9C494.7,199.9,493.1,202,493.1,204.3z
				"/>
		</g>
		<g>
			<path class="st2" d="M506.5,203.3c0,4.6,5.6,8.3,12.4,8.3h35.7c6.9,0,12.4-3.7,12.4-8.3c0-4.1-4.3-7.4-10.1-8.2
				c-1.5-3.5-6.3-6-11.9-6c-3.5,0-6.7,1-9,2.6c-1.5-0.4-3.1-0.6-4.7-0.6c-4.5,0-8.4,1.6-10.6,4c-0.6-0.1-1.2-0.1-1.8-0.1
				C512,195,506.5,198.7,506.5,203.3z"/>
			<path class="st3" d="M537.6,190.8v20.8h17c6.9,0,12.4-3.7,12.4-8.3c0-4.1-4.3-7.4-10.1-8.2c-1.5-3.5-6.3-6-11.9-6
				C542.2,189.2,539.6,189.8,537.6,190.8z"/>
		</g>
	</g>
	<g>
		<g>
			<path class="st1" d="M417.3,228.7c0,4.9,4,8.9,8.9,8.9h36.9h0c4.9,0,8.9-4,8.9-8.9c0-4-2.7-7.5-6.4-8.6c0-0.2,0-0.5,0-0.7
				c0-4-3-7.4-6.9-7.9c-0.5-3.9-3.8-6.9-7.9-6.9c-2.7,0-5.2,1.4-6.6,3.5c-1.3-0.8-2.8-1.3-4.4-1.3c-1,0-2,0.2-3,0.6
				c-0.9-0.4-1.9-0.6-3-0.6c-3.4,0-6.3,2.1-7.4,5.1c-3.5,1.3-6,4.6-6,8.5c0,0.4,0,0.8,0.1,1.1C418.7,223.3,417.3,225.9,417.3,228.7z
				"/>
		</g>
		<g>
			<path class="st2" d="M428.3,227.5c0,5.6,4.5,10.1,10.1,10.1h29.1c5.6,0,10.1-4.5,10.1-10.1c0-4.9-3.5-9-8.2-9.9
				c-1.2-4.2-5.1-7.3-9.7-7.3c-2.9,0-5.5,1.2-7.3,3.1c-1.2-0.5-2.5-0.8-3.9-0.8c-3.7,0-6.9,1.9-8.6,4.9c-0.5-0.1-1-0.1-1.5-0.1
				C432.8,217.4,428.3,221.9,428.3,227.5z"/>
			<path class="st3" d="M453.6,212.3v25.3h13.9c5.6,0,10.1-4.5,10.1-10.1c0-4.9-3.5-9-8.2-9.9c-1.2-4.2-5.1-7.3-9.7-7.3
				C457.4,210.3,455.3,211,453.6,212.3z"/>
		</g>
	</g>
	<g>
		<g>
			<path class="st1" d="M444.7,239.7c0,4.9,4,8.9,8.9,8.9h36.9h0c4.9,0,8.9-4,8.9-8.9c0-4-2.7-7.5-6.4-8.6c0-0.2,0-0.5,0-0.7
				c0-4-3-7.4-6.9-7.9c-0.5-3.9-3.8-6.9-7.9-6.9c-2.7,0-5.2,1.4-6.6,3.5c-1.3-0.8-2.8-1.3-4.4-1.3c-1,0-2,0.2-3,0.6
				c-0.9-0.4-1.9-0.6-3-0.6c-3.4,0-6.3,2.1-7.4,5.1c-3.5,1.3-6,4.6-6,8.5c0,0.4,0,0.8,0.1,1.1C446,234.3,444.7,236.9,444.7,239.7z"
				/>
		</g>
		<g>
			<path class="st2" d="M455.7,238.5c0,5.6,4.5,10.1,10.1,10.1h29.1c5.6,0,10.1-4.5,10.1-10.1c0-4.9-3.5-9-8.2-9.9
				c-1.2-4.2-5.1-7.3-9.7-7.3c-2.9,0-5.5,1.2-7.3,3.1c-1.2-0.5-2.5-0.8-3.9-0.8c-3.7,0-6.9,1.9-8.6,4.9c-0.5-0.1-1-0.1-1.5-0.1
				C460.2,228.4,455.7,232.9,455.7,238.5z"/>
			<path class="st3" d="M481,223.3v25.3h13.9c5.6,0,10.1-4.5,10.1-10.1c0-4.9-3.5-9-8.2-9.9c-1.2-4.2-5.1-7.3-9.7-7.3
				C484.8,221.3,482.7,222,481,223.3z"/>
		</g>
	</g>
	<g>
		<g>
			<path class="st1" d="M460.2,238.3c0-0.4,0.1-0.8,0.1-1.1c0-3.9-2.5-7.3-6-8.5c-1.1-3-4-5.1-7.4-5.1c-1,0-2,0.2-3,0.6
				c-0.9-0.4-1.9-0.6-3-0.6c-1.6,0-3.1,0.5-4.4,1.3c-1.4-2.1-3.8-3.5-6.6-3.5c-4,0-7.3,3-7.9,6.9c-3.9,0.5-6.9,3.8-6.9,7.9
				c0,0.2,0,0.5,0,0.7c-3.7,1.1-6.4,4.5-6.4,8.6c0,4.9,4,8.9,8.9,8.9h0h36.9c4.9,0,8.9-4,8.9-8.9
				C463.6,242.5,462.3,239.9,460.2,238.3z"/>
		</g>
		<g>
			<path class="st2" d="M442.5,234c-0.5,0-1,0-1.5,0.1c-1.8-2.9-5-4.9-8.6-4.9c-1.4,0-2.7,0.3-3.9,0.8c-1.8-1.9-4.4-3.1-7.3-3.1
				c-4.6,0-8.5,3.1-9.7,7.3c-4.7,0.9-8.2,5-8.2,9.9c0,5.6,4.5,10.1,10.1,10.1h29.1c5.6,0,10.1-4.5,10.1-10.1
				C452.6,238.5,448.1,234,442.5,234z"/>
			<path class="st3" d="M421.2,226.8c-4.6,0-8.5,3.1-9.7,7.3c-4.7,0.9-8.2,5-8.2,9.9c0,5.6,4.5,10.1,10.1,10.1h13.9v-25.3
				C425.6,227.6,423.5,226.8,421.2,226.8z"/>
		</g>
	</g>
	<g>
		<g>
			<path class="st1" d="M579,214.6c0-0.3,0.1-0.7,0.1-1c0-3.4-2.2-6.4-5.3-7.5c-1-2.6-3.5-4.5-6.5-4.5c-0.9,0-1.8,0.2-2.6,0.5
				c-0.8-0.3-1.7-0.5-2.6-0.5c-1.4,0-2.7,0.4-3.8,1.2c-1.2-1.8-3.4-3.1-5.8-3.1c-3.5,0-6.4,2.6-6.9,6c-3.4,0.4-6,3.4-6,6.9
				c0,0.2,0,0.4,0,0.6c-3.2,1-5.6,3.9-5.6,7.5c0,4.3,3.5,7.8,7.8,7.8h0h32.3c4.3,0,7.8-3.5,7.8-7.8C582,218.2,580.8,216,579,214.6z"
				/>
		</g>
		<g>
			<path class="st2" d="M563.5,210.8c-0.4,0-0.9,0-1.3,0.1c-1.6-2.6-4.4-4.3-7.6-4.3c-1.2,0-2.3,0.2-3.4,0.7
				c-1.6-1.7-3.9-2.7-6.4-2.7c-4,0-7.4,2.7-8.5,6.4c-4.1,0.8-7.2,4.4-7.2,8.7c0,4.9,4,8.8,8.8,8.8h25.5c4.9,0,8.8-4,8.8-8.8
				C572.4,214.8,568.4,210.8,563.5,210.8z"/>
			<path class="st3" d="M544.9,204.6c-4,0-7.4,2.7-8.5,6.4c-4.1,0.8-7.2,4.4-7.2,8.7c0,4.9,4,8.8,8.8,8.8h12.1v-22.2
				C548.7,205.2,546.9,204.6,544.9,204.6z"/>
		</g>
	</g>
	<g>
		<g>
			<path class="st1" d="M555.1,224.2c0-0.3,0.1-0.7,0.1-1c0-3.4-2.2-6.4-5.3-7.5c-1-2.6-3.5-4.5-6.5-4.5c-0.9,0-1.8,0.2-2.6,0.5
				c-0.8-0.3-1.7-0.5-2.6-0.5c-1.4,0-2.7,0.4-3.8,1.2c-1.2-1.8-3.4-3.1-5.8-3.1c-3.5,0-6.4,2.6-6.9,6c-3.4,0.4-6,3.4-6,6.9
				c0,0.2,0,0.4,0,0.6c-3.2,1-5.6,3.9-5.6,7.5c0,4.3,3.5,7.8,7.8,7.8h0h32.3c4.3,0,7.8-3.5,7.8-7.8
				C558,227.8,556.9,225.6,555.1,224.2z"/>
		</g>
		<g>
			<path class="st2" d="M539.6,220.4c-0.4,0-0.9,0-1.3,0.1c-1.6-2.6-4.4-4.3-7.6-4.3c-1.2,0-2.3,0.2-3.4,0.7
				c-1.6-1.7-3.9-2.7-6.4-2.7c-4,0-7.4,2.7-8.5,6.4c-4.1,0.8-7.2,4.4-7.2,8.7c0,4.9,4,8.8,8.8,8.8h25.5c4.9,0,8.8-4,8.8-8.8
				C548.5,224.4,544.5,220.4,539.6,220.4z"/>
			<path class="st3" d="M521,214.2c-4,0-7.4,2.7-8.5,6.4c-4.1,0.8-7.2,4.4-7.2,8.7c0,4.9,4,8.8,8.8,8.8h12.1v-22.2
				C524.8,214.8,523,214.2,521,214.2z"/>
		</g>
	</g>
	<g>
		<g>
			<path class="st1" d="M541.5,235.2c0,4.3,3.5,7.8,7.8,7.8h32.3h0c4.3,0,7.8-3.5,7.8-7.8c0-3.5-2.4-6.5-5.6-7.5c0-0.2,0-0.4,0-0.6
				c0-3.5-2.6-6.4-6-6.9c-0.5-3.4-3.4-6-6.9-6c-2.4,0-4.5,1.2-5.8,3.1c-1.1-0.7-2.4-1.2-3.8-1.2c-0.9,0-1.8,0.2-2.6,0.5
				c-0.8-0.3-1.7-0.5-2.6-0.5c-3,0-5.5,1.9-6.5,4.5c-3.1,1.1-5.3,4-5.3,7.5c0,0.3,0,0.7,0.1,1C542.7,230.5,541.5,232.7,541.5,235.2z
				"/>
		</g>
		<g>
			<path class="st2" d="M551.1,234.2c0,4.9,4,8.8,8.8,8.8h25.5c4.9,0,8.8-4,8.8-8.8c0-4.3-3.1-7.9-7.2-8.7c-1.1-3.7-4.5-6.4-8.5-6.4
				c-2.5,0-4.8,1.1-6.4,2.7c-1-0.4-2.2-0.7-3.4-0.7c-3.2,0-6,1.7-7.6,4.3c-0.4-0.1-0.8-0.1-1.3-0.1
				C555,225.3,551.1,229.3,551.1,234.2z"/>
			<path class="st3" d="M573.3,220.8V243h12.1c4.9,0,8.8-4,8.8-8.8c0-4.3-3.1-7.9-7.2-8.7c-1.1-3.7-4.5-6.4-8.5-6.4
				C576.6,219.1,574.7,219.7,573.3,220.8z"/>
		</g>
	</g>
	<g>
		<g>
			<path class="st1" d="M612.3,96.6c0,5.8,4.7,10.4,10.4,10.4h43.1h0c5.8,0,10.4-4.7,10.4-10.4c0-4.7-3.1-8.7-7.4-10
				c0-0.3,0-0.6,0-0.8c0-4.7-3.5-8.6-8.1-9.2c-0.6-4.5-4.5-8-9.2-8c-3.2,0-6,1.6-7.7,4.1c-1.5-1-3.2-1.5-5.1-1.5
				c-1.2,0-2.4,0.2-3.5,0.7c-1.1-0.4-2.2-0.7-3.5-0.7c-4,0-7.4,2.5-8.7,6c-4.1,1.5-7,5.4-7,10c0,0.5,0,0.9,0.1,1.3
				C613.8,90.3,612.3,93.3,612.3,96.6z"/>
		</g>
	</g>
</g>
<g id="house6">
	<g>
		<polygon class="st6" points="690,150.7 717.1,153.6 717.1,115.6 690,112.7 		"/>
		<path class="st7" d="M718.6,46.9h5c5.1,0,9.3-4.1,9.3-9.3v-1.8c0-5.1-4.1-9.3-9.3-9.3l0,0c-5.1,0-9.3,4.1-9.3,9.3v6.8
			C714.2,45,716.2,46.9,718.6,46.9z"/>
		<path class="st7" d="M730.7,138.5h46.7c11.9,0,21.5-9.6,21.5-21.5V78.6c0-11.9-9.6-21.5-21.5-21.5h-35.2
			c-11.9,0-21.5,9.6-21.5,21.5v50C720.7,134.1,725.2,138.5,730.7,138.5z"/>
		<path class="st7" d="M701.8,110.5h8.4c8.6,0,15.7-7,15.7-15.7V72.8c0-8.6-7-15.7-15.7-15.7h0c-8.6,0-15.7,7-15.7,15.7v30.4
			C694.5,107.3,697.8,110.5,701.8,110.5z"/>
		<g>
			<path class="st8" d="M670.3,113.1h13.2v36.8l10.8,1.1v-35.8l21.6,0.4v37.6l36.6,3.7l59.9-6.5l0-38.1l13.7-0.2l-23-19.2V53.3
				L751.5,47l-30-32.2l-29.1,37V93L670.3,113.1z M796.8,78.8L782,77.8V61l14.8,1.5V78.8z M781.5,117l14.8-0.3V133l-14.8,0.9V117z
				 M781.5,89.7l14.8,0.5v16.3l-14.8,0V89.7z M775,77.2l-16.3-1V58.5l16.3,1.6V77.2z M758.2,135v-17.7l16.3-0.3v17.1L758.2,135
				L758.2,135z M758.2,106.3V88.6l16.3,0.6v17.1L758.2,106.3L758.2,106.3z M744.9,76.2l-17.6,1.1V60.1l17.6-1.8V76.2z M744.3,87.9
				v17.9l-17.6,0V88.6L744.3,87.9L744.3,87.9z M725.9,116.6l17.5,0.4v17.8l-17.5-1V116.6z M716.7,37.7c0-4.9,2.6-9.4,5.9-9.9
				c3.3-0.6,6.1,3.1,6.1,8.1s-2.7,9.5-6.1,9.9C719.3,46.2,716.7,42.6,716.7,37.7z M717.1,78.1l-15.7,1V62.8l15.7-1.6V78.1z
				 M701,89.7l15.7-0.6V106l-15.7,0V89.7z"/>
			<polygon class="st9" points="805.7,55.3 772.6,20.3 719.1,7.1 681.6,57.1 688.2,56.5 721.4,14.8 753,48.8 			"/>
		</g>
	</g>
</g>
<g id="house5">
	<g>
		<polygon class="st10" points="820.5,302.7 762.5,295.3 762.5,249.5 820.5,256.9 		"/>
		<path class="st7" d="M798.1,100.5h-4.4c-4.6,0-8.3-3.7-8.3-8.3v-4.6c0-4.6,3.7-8.3,8.3-8.3l0,0c4.6,0,8.3,3.7,8.3,8.3v9.1
			C801.9,98.8,800.2,100.5,798.1,100.5z"/>
		<path class="st7" d="M864.1,249.2h-84.6c-11.9,0-21.5-9.6-21.5-21.5V122c0-11.9,9.6-21.5,21.5-21.5h73.1
			c11.9,0,21.5,9.6,21.5,21.5v117.2C874.1,244.7,869.7,249.2,864.1,249.2z"/>
		<path class="st7" d="M900.1,254.7h-9.3c-9.6,0-17.4-7.8-17.4-17.4v-114c0-9.6,7.8-17.4,17.4-17.4h0c9.6,0,17.4,7.8,17.4,17.4
			v123.3C908.2,251,904.6,254.7,900.1,254.7z"/>
		<g>
			<g>
				<polygon class="st11" points="917,107.1 917,101.5 887.9,87.7 793.7,63.7 745,109.7 751.5,109.7 793.4,69.1 837.2,91.8 				"/>
				<path class="st12" d="M753.6,107.6v186.6l9.6,1.1V257l19.6,1.1v39.5l14.9,1.8v-40.3l21.9,1.3v41.7l13.9,1.7l78.6-9.3V105.6
					l-75.2-14.2l-43.1-22.1L753.6,107.6z M852.1,153.7l-13.5-1.4V141l13.5,1.6V153.7z M906.3,159.3l-11.4-1.1v-10.4l11.4,1.3V159.3z
					 M894.9,236.2l11.4-0.3v10.2l-11.4,0.5V236.2z M894.9,218.3l11.4,0v10.2l-11.4,0.2V218.3z M894.8,200.7l11.4,0.4v10.2l-11.4-0.2
					V200.7z M894.8,183.4l11.4,0.7v10.2l-11.4-0.5V183.4z M894.8,165.2l11.4,1v10.2l-11.4-0.8V165.2z M894.7,140.8v-10.4l11.4,1.7
					v10.2L894.7,140.8L894.7,140.8z M894.7,124v-10.4l11.4,2v10.2L894.7,124L894.7,124z M888.8,157.2l-12.1-1.2v-10.6l12.1,1.4
					V157.2z M876.7,236.3l12.1-0.3v10.4l-12.1,0.5V236.3z M876.7,217.9l12.1,0.1v10.4l-12.1,0.2V217.9z M876.6,210.5v-10.7l12.1,0.4
					v10.5L876.6,210.5L876.6,210.5z M876.6,182l12.1,0.7v10.5l-12.1-0.5V182z M876.6,163.3l12.1,1.1v10.4l-12.1-0.9V163.3z
					 M876.5,127.5l12.1,1.8v10.5l-12.1-1.6V127.5z M876.5,110.3l12.1,2.1v10.4l-12.1-1.9V110.3z M871.1,155.5l-12.7-1.3v-11
					l12.7,1.5V155.5z M858.4,247.9l0-11l12.7-0.3v10.7L858.4,247.9L858.4,247.9z M858.4,228.9l0-11l12.7,0.1v10.7L858.4,228.9
					L858.4,228.9z M858.3,199.3l12.7,0.4v10.7l-12.7-0.2V199.3z M858.3,181l12.7,0.8v10.7l-12.7-0.6V181z M858.3,161.7l12.7,1.1
					v10.7l-12.7-0.9V161.7z M858.2,125l12.8,1.9v10.7l-12.8-1.6V125z M858.2,107.2l12.8,2.2v10.7l-12.8-2V107.2z M838.6,248.7v-11.3
					l13.5-0.3v11L838.6,248.7L838.6,248.7z M838.6,229.2v-11.3l13.5,0.1V229L838.6,229.2L838.6,229.2z M838.5,198.7l13.5,0.5v11.1
					l-13.5-0.2V198.7z M838.5,179.9l13.5,0.8v11.1l-13.5-0.6V179.9z M838.5,160l13.5,1.2v11.1l-13.5-1V160z M838.4,122.1l13.5,2
					v11.1l-13.5-1.7V122.1z M838.4,103.8l13.5,2.3v11.1l-13.5-2.1V103.8z M770.8,140.6l-11.3,1.5v-10.7l11.3-1.6V140.6z M770.8,176
					l-11.3,0.8v-10.7l11.3-1V176z M788.1,138.1l-11.9,1.5v-10.9l11.9-1.7V138.1z M788.1,174.5l-11.9,0.9v-10.9l11.9-1.1V174.5z
					 M806,135.8l-12.6,1.6v-11.2l12.6-1.8V135.8z M806,173.2l-12.6,0.9v-11.2l12.6-1.1V173.2z M826.3,133l-13.4,1.7v-11.6l13.4-2
					V133z M826.1,140.7v11.8l-13.4,1.3v-11.6L826.1,140.7z M826.3,171.5l-13.4,1v-11.6l13.4-1.2V171.5z M813,236.9l13.4,0.3V249
					l-13.4-0.5V236.9z M812.8,217.9l13.4-0.1v11.8l-13.4-0.2V217.9z M812.8,198.5l13.4-0.4v11.8l-13.4,0.2V198.5z M812.6,180.1
					l13.4-0.8v11.8l-13.4,0.6V180.1z M812.5,104.9l13.4-2.3v11.8l-13.4,2.1V104.9z M795.8,236.4l12.7,0.3v11.5l-12.7-0.5V236.4z
					 M793.5,218.1l12.6-0.1v11.5l-12.6-0.2V218.1z M793.5,199.3l12.6-0.4v11.4l-12.6,0.2V199.3z M793.3,181.2l12.6-0.8v11.5
					l-12.6,0.6V181.2z M793.2,144.8l12.6-1.5v11.5l-12.6,1.3V144.8z M793.2,108.1l12.6-2.2v11.4l-12.6,2V108.1z M788.5,91.3
					c0-4.3,2.3-8.3,5.2-8.9c2.9-0.6,5.3,2.4,5.3,6.8c0,4.4-2.4,8.3-5.3,8.9C790.8,98.6,788.5,95.6,788.5,91.3z M778.5,236.1l12,0.3
					v11.2l-12-0.5V236.1z M776.3,218.2l11.9,0v11.2l-11.9-0.2V218.2z M776.3,199.9l11.9-0.4v11.2l-11.9,0.2V199.9z M776.1,182.3
					l11.9-0.7v11.1l-11.9,0.5V182.3z M775.9,146.8l11.9-1.4v11.1l-11.9,1.2V146.8z M775.9,111.2l11.9-2.1v11.1l-11.9,1.9V111.2z
					 M761.7,235.9l11.4,0.3v10.9l-11.4-0.5V235.9z M759.6,218.6l11.3,0v10.9l-11.3-0.2V218.6z M759.6,200.7l11.3-0.4v10.8l-11.3,0.2
					V200.7z M759.4,183.6l11.3-0.7v10.8l-11.3,0.5V183.6z M759.3,159.7V149l11.3-1.3v10.8L759.3,159.7L759.3,159.7z M759.3,125
					v-10.6l11.3-2v10.8L759.3,125L759.3,125z"/>
			</g>
		</g>
	</g>
</g>
<g id="house1">
	<g>
		<path class="st13" d="M778.9,323.3l43.1,11.9h-32.9L744,323.3H778.9z"/>
		<path class="st14" d="M680,276.7h64v110.5h-64V276.7z"/>
		<path class="st15" d="M744,276.7h34.9v46.5H744V276.7z"/>
		<path class="st16" d="M726.6,236l-57.9,40.7H744L726.6,236z"/>
		<path class="st17" d="M749.9,241.8h8.7v23.3h-8.7V241.8z"/>
		<path class="st18" d="M758.6,241.8h5.8V268h-5.8V241.8z"/>
		<path class="st13" d="M726.6,236l64,40.7H744L726.6,236z"/>
		<path class="st17" d="M746.9,236h14.5v5.8h-14.5V236z"/>
		<path class="st18" d="M761.5,236h5.8v5.8h-5.8V236z"/>
		<path class="st7" d="M702.7,293.6h18.6v18.6h-18.6V293.6z"/>
		<path class="st19" d="M700.4,291.3v23.3h23.3v-23.3H700.4 M721.4,293.6v8.1h-8.1v-8.1H721.4 M710.9,293.6v8.1h-8.1v-8.1H710.9
			 M702.7,312.2v-8.1h8.1v8.1H702.7 M713.2,312.2v-8.1h8.1v8.1H713.2"/>
		<path class="st7" d="M754.5,292.4h14v20.9h-14V292.4z"/>
		<g>
			<path class="st19" d="M753.3,291.3v23.3h16.3v-23.3H753.3 M755.7,293.6h4.7v8.1h-4.7V293.6 M755.7,312.2v-8.1h4.7v8.1H755.7
				 M767.3,312.2h-4.7v-8.1h4.7V312.2 M767.3,301.7h-4.7v-8.1h4.7V301.7"/>
			<path class="st19" d="M705.4,355.6h18v31.7h-18V355.6z"/>
		</g>
		<path class="st20" d="M700.7,355.6h4.7v31.7h-4.7V355.6z"/>
		<circle class="st14" cx="719.6" cy="369.2" r="1.7"/>
		<path class="st15" d="M781.6,335.2h27.1v52.1h-27.1V335.2z"/>
		<path class="st14" d="M744,335.2h37.5v52.1H744V335.2z"/>
		<path class="st16" d="M744,323.3h-64l-14.5,11.9h123.6L744,323.3z"/>
		<path class="st7" d="M747.8,351.8h18.6v18.6h-18.6V351.8z"/>
		<path class="st19" d="M745.5,349.4v23.3h23.3v-23.3H745.5 M766.4,351.8v8.1h-8.1v-8.1H766.4 M756,351.8v8.1h-8.1v-8.1H756
			 M747.8,370.4v-8.1h8.1v8.1H747.8 M758.3,370.4v-8.1h8.1v8.1H758.3"/>
		<path class="st7" d="M788,350.6h14v20.9h-14V350.6z"/>
		<path class="st19" d="M786.8,349.4v23.3h16.3v-23.3H786.8 M789.1,351.8h4.7v8.1h-4.7V351.8 M789.1,370.4v-8.1h4.7v8.1H789.1
			 M800.8,370.4h-4.7v-8.1h4.7V370.4 M800.8,359.9h-4.7v-8.1h4.7V359.9"/>
	</g>
	<g>
		<path class="st13" d="M320.2,238.8L263,253.9h-41.7l54.7-15.1H320.2z"/>
		<path class="st14" d="M401.5,320.1h-81.3V179.7h81.3V320.1z"/>
		<path class="st15" d="M320.2,238.8h-44.3v-59.1h44.3V238.8z"/>
		<path class="st16" d="M320.2,179.7h95.7L342.4,128L320.2,179.7z"/>
		<path class="st17" d="M312.8,164.9h-11.1v-29.5h11.1V164.9z"/>
		<path class="st18" d="M301.8,168.6h-7.4v-33.2h7.4V168.6z"/>
		<path class="st13" d="M320.2,179.7h-59.1l81.3-51.7L320.2,179.7z"/>
		<path class="st17" d="M316.5,135.4h-18.5V128h18.5V135.4z"/>
		<path class="st18" d="M298.1,135.4h-7.4V128h7.4V135.4z"/>
		<path class="st7" d="M372.7,224.8H349v-23.6h23.6V224.8z"/>
		<path class="st19" d="M375.6,198.2h-29.5v29.5h29.5V198.2 M349,201.1h10.3v10.3H349V201.1 M362.3,201.1h10.3v10.3h-10.3V201.1
			 M372.7,224.8h-10.3v-10.3h10.3V224.8 M359.4,224.8H349v-10.3h10.3V224.8"/>
		<path class="st7" d="M306.9,226.2h-17.7v-26.6h17.7V226.2z"/>
		<g>
			<path class="st19" d="M308.4,198.2h-20.7v29.5h20.7L308.4,198.2 M305.5,201.1v10.3h-5.9v-10.3H305.5 M305.5,224.8h-5.9v-10.3h5.9
				V224.8 M290.7,224.8v-10.3h5.9v10.3H290.7 M290.7,211.5v-10.3h5.9v10.3H290.7"/>
			<path class="st19" d="M369.4,320.1h-22.9v-40.3h22.9V320.1z"/>
		</g>
		<path class="st20" d="M375.3,320.1h-5.9v-40.3h5.9V320.1z"/>
		<circle class="st14" cx="351.3" cy="297.2" r="2.2"/>
		<path class="st15" d="M272.6,320.1h-34.3v-66.1h34.3V320.1z"/>
		<path class="st14" d="M320.2,320.1h-47.6v-66.1h47.6V320.1z"/>
		<path class="st16" d="M263,253.9h157l-18.5-15.1h-81.3L263,253.9z"/>
		<path class="st7" d="M315.4,298.6h-23.6V275h23.6V298.6z"/>
		<path class="st19" d="M318.4,272h-29.5v29.5h29.5V272 M291.8,275h10.3v10.3h-10.3V275 M305.1,275h10.3v10.3h-10.3V275
			 M315.4,298.6h-10.3v-10.3h10.3V298.6 M302.1,298.6h-10.3v-10.3h10.3V298.6"/>
		<path class="st7" d="M264.5,300.1h-17.7v-26.6h17.7V300.1z"/>
		<path class="st19" d="M265.9,272h-20.7v29.5h20.7V272 M263,275v10.3h-5.9V275H263 M263,298.6h-5.9v-10.3h5.9V298.6 M248.2,298.6
			v-10.3h5.9v10.3H248.2 M248.2,285.3V275h5.9v10.3H248.2"/>
	</g>
</g>
<g id="tree1">
	<g id="XMLID_1211_">
		<path id="XMLID_1212_" class="st21" d="M802.9,404.9v26.3h6.4v-26.3c-0.9,0.8-2,1.3-3.2,1.3C804.9,406.2,803.8,405.8,802.9,404.9z
			"/>
		<path id="XMLID_1220_" class="st22" d="M835,361.3c0-2.6-0.6-4.9-1.7-6.7c0.6-2.2,0.8-4.7,0.3-7.2c-0.5-2.5-1.6-4.4-2.9-5.6
			c0.2-2.4-0.2-4.9-1.2-6.9c-1-2.1-2.4-3.4-3.9-3.9c-0.3-2.3-1.2-4.5-2.5-6c-1.3-1.5-2.9-2.1-4.5-1.8c-0.8-2.1-2-3.7-3.6-4.5
			c-1.6-0.8-3.2-0.6-4.6,0.4c-1.1-1.6-2.7-2.6-4.3-2.6v89.8c1.2,0,2.3-0.5,3.2-1.3c0.4-0.4,0.8-0.8,1.1-1.2c1.4,1,3,1.2,4.6,0.4
			c1.6-0.8,2.8-2.5,3.6-4.5c1.5,0.3,3.1-0.3,4.5-1.8s2.2-3.7,2.5-6c1.5-0.5,2.9-1.8,3.9-3.9c1-2.1,1.4-4.6,1.2-6.9
			c1.3-1.2,2.4-3.1,2.9-5.6c0.5-2.5,0.4-5-0.3-7.2C834.4,366.3,835,363.9,835,361.3z"/>
		<path id="XMLID_1232_" class="st23" d="M806.1,316.4c-1.7,0-3.2,1-4.3,2.6c-1.4-1-3-1.2-4.6-0.4c-1.6,0.8-2.8,2.5-3.6,4.5
			c-1.5-0.3-3.1,0.3-4.5,1.8c-1.3,1.5-2.2,3.7-2.5,6c-1.5,0.5-2.9,1.8-3.9,3.9s-1.4,4.6-1.2,6.9c-1.3,1.2-2.4,3.1-2.9,5.6
			c-0.5,2.5-0.4,5,0.3,7.2c-1,1.8-1.7,4.1-1.7,6.7c0,2.6,0.6,4.9,1.7,6.7c-0.6,2.2-0.8,4.7-0.3,7.2c0.5,2.5,1.6,4.4,2.9,5.6
			c-0.2,2.4,0.2,4.9,1.2,6.9s2.4,3.4,3.9,3.9c0.3,2.3,1.2,4.5,2.5,6c1.3,1.5,2.9,2.1,4.5,1.8c0.8,2.1,2,3.7,3.6,4.5
			c1.6,0.8,3.2,0.6,4.6-0.4c0.3,0.5,0.7,0.9,1.1,1.2c0.9,0.8,2,1.3,3.2,1.3V316.4z"/>
	</g>
	<g id="XMLID_00000089567744924919835810000003918739277423240883_">
		<path id="XMLID_00000043458183423252995940000014502977850208104084_" class="st21" d="M217.8,236v26.3h7.6V236
			c-1.1,0.8-2.4,1.3-3.8,1.3S218.9,236.9,217.8,236z"/>
		<path id="XMLID_00000159464993470681709820000011479383410232616095_" class="st22" d="M256,192.5c0-2.6-0.7-4.9-2-6.7
			c0.8-2.2,0.9-4.7,0.3-7.2s-1.9-4.4-3.5-5.6c0.2-2.4-0.3-4.9-1.4-6.9c-1.2-2.1-2.8-3.4-4.6-3.9c-0.4-2.3-1.4-4.5-3-6
			c-1.6-1.5-3.5-2.1-5.3-1.8c-0.9-2.1-2.4-3.7-4.3-4.5c-1.9-0.8-3.8-0.6-5.5,0.4c-1.4-1.6-3.2-2.6-5.1-2.6v89.8
			c1.4,0,2.7-0.5,3.8-1.3c0.5-0.4,0.9-0.8,1.3-1.2c1.7,1,3.6,1.2,5.5,0.4s3.4-2.5,4.3-4.5c1.8,0.3,3.7-0.3,5.3-1.8
			c1.6-1.5,2.6-3.7,3-6c1.8-0.5,3.5-1.8,4.6-3.9c1.2-2.1,1.6-4.6,1.4-6.9c1.6-1.2,2.9-3.1,3.5-5.6c0.6-2.5,0.5-5-0.3-7.2
			C255.3,197.4,256,195.1,256,192.5z"/>
		<path id="XMLID_00000173878377309328513590000001390965963204567703_" class="st23" d="M221.6,147.6c-2,0-3.8,1-5.1,2.6
			c-1.7-1-3.6-1.2-5.5-0.4c-1.9,0.8-3.4,2.5-4.3,4.5c-1.8-0.3-3.7,0.3-5.3,1.8c-1.6,1.5-2.6,3.7-3,6c-1.8,0.5-3.5,1.8-4.6,3.9
			s-1.6,4.6-1.4,6.9c-1.6,1.2-2.9,3.1-3.5,5.6s-0.5,5,0.3,7.2c-1.2,1.8-2,4.1-2,6.7c0,2.6,0.7,4.9,2,6.7c-0.8,2.2-0.9,4.7-0.3,7.2
			c0.6,2.5,1.9,4.4,3.5,5.6c-0.2,2.4,0.3,4.9,1.4,6.9c1.2,2.1,2.8,3.4,4.6,3.9c0.4,2.3,1.4,4.5,3,6c1.6,1.5,3.5,2.1,5.3,1.8
			c0.9,2.1,2.4,3.7,4.3,4.5c1.9,0.8,3.8,0.6,5.5-0.4c0.4,0.5,0.8,0.9,1.3,1.2c1.1,0.8,2.4,1.3,3.8,1.3V147.6z"/>
	</g>
	<g id="XMLID_00000122714563486239737240000014704552135086455713_">
		<path id="XMLID_00000125582464567431507430000001692536341354657954_" class="st21" d="M933.9,230.4c-0.7,0-1.3-0.5-1.9-1.3v26.3
			h3.8V229C935.3,229.9,934.6,230.4,933.9,230.4z"/>
		<path id="XMLID_00000048464807617257155440000000728241095994859946_" class="st22" d="M917.8,192.2c-0.4,2.2-0.5,4.7-0.1,7.2
			c0.3,2.5,0.9,4.4,1.7,5.6c-0.1,2.4,0.1,4.9,0.7,6.9c0.6,2.1,1.4,3.4,2.3,3.9c0.2,2.3,0.7,4.5,1.5,6s1.7,2.1,2.6,1.8
			c0.5,2.1,1.2,3.7,2.1,4.5s1.9,0.6,2.7-0.4c0.2,0.5,0.4,0.9,0.7,1.2c0.6,0.8,1.2,1.3,1.9,1.3v-89.8c-1,0-1.9,1-2.5,2.6
			c-0.8-1-1.8-1.2-2.7-0.4c-0.9,0.8-1.7,2.5-2.1,4.5c-0.9-0.3-1.8,0.3-2.6,1.8c-0.8,1.5-1.3,3.7-1.5,6c-0.9,0.5-1.7,1.8-2.3,3.9
			c-0.6,2.1-0.8,4.6-0.7,6.9c-0.8,1.2-1.4,3.1-1.7,5.6s-0.2,5,0.1,7.2c-0.6,1.8-1,4.1-1,6.7C916.8,188.1,917.2,190.4,917.8,192.2z"
			/>
		<path id="XMLID_00000003826855757288405900000010570151970143462062_" class="st23" d="M933.9,230.4c0.7,0,1.3-0.5,1.9-1.3
			c0.2-0.4,0.5-0.8,0.7-1.2c0.8,1,1.8,1.2,2.7,0.4s1.7-2.5,2.1-4.5c0.9,0.3,1.8-0.3,2.6-1.8c0.8-1.5,1.3-3.7,1.5-6
			c0.9-0.5,1.7-1.8,2.3-3.9c0.6-2.1,0.8-4.6,0.7-6.9c0.8-1.2,1.4-3.1,1.7-5.6c0.3-2.5,0.2-5-0.1-7.2c0.6-1.8,1-4.1,1-6.7
			c0-2.6-0.4-4.9-1-6.7c0.4-2.2,0.5-4.7,0.1-7.2s-0.9-4.4-1.7-5.6c0.1-2.4-0.1-4.9-0.7-6.9s-1.4-3.4-2.3-3.9c-0.2-2.3-0.7-4.5-1.5-6
			c-0.8-1.5-1.7-2.1-2.6-1.8c-0.5-2.1-1.2-3.7-2.1-4.5c-0.9-0.8-1.9-0.6-2.7,0.4c-0.7-1.6-1.6-2.6-2.5-2.6V230.4z"/>
	</g>
</g>
<g id="house2">
	<g>
		<g>
			<path class="st7" d="M292.6,379H106.8c-11.9,0-21.5-9.6-21.5-21.5v-54.2c0-11.9,9.6-21.5,21.5-21.5h174.3
				c11.9,0,21.5,9.6,21.5,21.5V369C302.6,374.5,298.2,379,292.6,379z"/>
			<path class="st7" d="M85.3,376.8H44.5c-6.4,0-11.5-5.1-11.5-11.5v-38.6c0-6.4,5.1-11.5,11.5-11.5h29.3c6.4,0,11.5,5.1,11.5,11.5
				V376.8z"/>
			<polygon class="st24" points="272.8,394.5 238.7,398.1 238.6,350.2 272.8,346.6 			"/>
			<path class="st25" d="M78.8,304.5l0.2,2.6l-48.8,2.7V386L193.7,402l50.7-4.9v-44.1l22.1-0.5v42.5l46.2-4.5V285.1l-124.3-11.7
				l-52.1-58.2l-57.5,66.2V296L26,299.5v7.9L78.8,304.5z M283.5,321.7l18.8,0.6v18.6l-18.8,0V321.7z M302.5,310.6l-18.7-1.1v-19.2
				l18.7,1.7C302.5,292,302.5,310.6,302.5,310.6z M302.7,371.6l-18.7,1.1v-19.2l18.7-0.4C302.7,353,302.7,371.6,302.7,371.6z
				 M266.4,308.1l-21.5-1.2v-20.6l21.5,2V308.1z M244.7,320l21.5,0.8v19.8h-21.5V320z M89.6,321.5l17-0.6v19.7l-17,0V321.5z
				 M106.3,352.7v19.7l-16.9-1v-19.1L106.3,352.7z M89.3,290.5l16.9-1.7v19.7l-16.9,1.1V290.5z M142.4,374.6l-19.2-1.1v-20.3
				l19.2,0.4V374.6z M142.6,340.7h-19.2v-20.3l19.2-0.7V340.7L142.6,340.7z M123.1,307.4v-20.3l19.2-1.9v21L123.1,307.4z
				 M180.3,354.4v22.4l-21.7-1.3v-21.6L180.3,354.4L180.3,354.4z M159,319.1l21.8-0.8v22.4H159V319.1z M180.4,281.3v22.4l-21.7,1.4
				v-21.6L180.4,281.3L180.4,281.3z M75.9,370.7l-15.1-0.9v-18.1l15.1,0.3V370.7z M76.1,340.7l-15.2,0v-18.1l15.2-0.6V340.7
				L76.1,340.7z M204.1,318.5l24.5,0.9v21.2l-24.5,0V318.5z M229.1,354.3v21.1l-24.5,1.4v-22L229.1,354.3z M228.9,305.9l-24.5-1.4
				v-22l24.5,2.3V305.9z M35.7,351.2l13.6,0.3v17.7l-13.6-0.8V351.2z M35.8,323.5l13.7-0.5v17.7l-13.7,0V323.5z"/>
			<polygon class="st26" points="189.7,274.8 321,287.2 321,278.4 282.7,241.5 133.3,208.7 66.9,284.4 76.5,284.3 136.3,215.1 			
				"/>
		</g>
	</g>
</g>
<g id="house3">
	<g>
		<polygon class="st6" points="203.7,536.7 164.7,540.8 164.6,486.1 203.6,482 		"/>
		<path class="st7" d="M162.5,387.3h-7.1c-7.4,0-13.3-6-13.3-13.3v-2.6c0-7.4,6-13.3,13.3-13.3h0c7.4,0,13.3,6,13.3,13.3v9.7
			C168.7,384.5,165.9,387.3,162.5,387.3z"/>
		<path class="st7" d="M149.4,519.2h-81c-11.9,0-21.5-9.6-21.5-21.5v-74.3c0-11.9,9.6-21.5,21.5-21.5h69.5
			c11.9,0,21.5,9.6,21.5,21.5v85.8C159.4,514.7,154.9,519.2,149.4,519.2z"/>
		<path class="st7" d="M187.1,478.9h-13.6c-11.9,0-21.5-9.6-21.5-21.5v-33.8c0-11.9,9.6-21.5,21.5-21.5h2.1
			c11.9,0,21.5,9.6,21.5,21.5v45.3C197.1,474.4,192.7,478.9,187.1,478.9z"/>
		<g>
			<path class="st27" d="M200.1,453.6v-59.3l-41.9-53.2l-43.1,46.4l-74,9.1v57L7.9,481.2l19.7,0.3l0,54.9l86.2,9.4l52.7-5.4v-54.1
				l31.1-0.6v51.6l15.5-1.6v-52.9h19L200.1,453.6z M49.9,409.7l21.2-2.1v24.2l-21.2,1.3V409.7z M71.9,512.5l-21.3-1.2v-23.5
				l21.3,0.5V512.5z M71.9,473.1l-21.3,0v-23.5l21.3-0.8V473.1z M81.3,406.3l23.4-2.3v25.5l-23.4,1.5V406.3z M105.4,514.2L82,512.8
				v-24.6l23.4,0.5L105.4,514.2L105.4,514.2z M105.4,472.8l-23.4,0v-24.6l23.4-0.9L105.4,472.8L105.4,472.8z M124.6,403.7l25.4,2.5
				v24.8l-25.4-1.6V403.7z M125.5,446.3l25.3,1v24.8l-25.3-0.1L125.5,446.3L125.5,446.3z M152,512.3l-25.2,1.4v-25.7l25.2-0.5V512.3
				z M156.8,385.7c-4.8-0.6-8.7-7-8.7-14.3s3.9-12.5,8.7-11.7c4.7,0.8,8.5,7.2,8.5,14.3C165.3,381.1,161.5,386.3,156.8,385.7z
				 M164.6,407.9l22.6,2.3v23.5l-22.6-1.4V407.9z M187.9,472.4l-22.5-0.1v-24.3l22.5,0.9V472.4z"/>
			<polygon class="st28" points="113,390.1 158.5,341.1 206.2,401.1 215.8,402 161.7,330 84.7,349 37.1,399.3 			"/>
		</g>
	</g>
</g>
<g id="fountain">
	<g>
		<path class="st29" d="M511.8,194.3v13.4h8.5v-13.4c-1.4,0.2-2.8,0.4-4.2,0.4C514.6,194.7,513.2,194.6,511.8,194.3z"/>
		<path class="st30" d="M536.4,174.2h-40.8c-1.6,0-3,1-3.6,2.4H540C539.4,175.2,538,174.2,536.4,174.2z"/>
		<path class="st31" d="M535.4,179.5h-38.7c3.5,7.4,11.1,12.2,19.4,12.2C524.4,191.8,531.9,186.9,535.4,179.5z"/>
		<path class="st32" d="M498.7,273h34.7c-0.3-0.6-0.6-1.2-1-1.8h-32.6C499.4,271.8,499,272.4,498.7,273z"/>
		<path class="st30" d="M552.3,210.7h-72.6c-2.7,0-5,1.8-5.6,4.3H558C557.3,212.6,555,210.7,552.3,210.7z"/>
		<path class="st32" d="M507,264.5c-1.9,1-3.6,2.3-5,3.8h28.1c-1.4-1.5-3.1-2.8-5-3.8H507z"/>
		<path class="st29" d="M516,242.9c-2.7,0-5.3-0.3-7.9-0.8v19.4h15.8v-19.4C521.4,242.6,518.7,242.9,516,242.9z"/>
		<path class="st31" d="M516,240c14.5,0,27.6-8.7,33.2-22h-66.4C488.5,231.2,501.5,240,516,240z"/>
		<path class="st33" d="M484.6,162.8c0.1,0,0.3,0.1,0.4,0.1c0.6,0,1.2-0.4,1.4-1c0.4-1.2,0.9-2.3,1.6-3.4c0.4-0.7,0.2-1.6-0.4-2
			c-0.7-0.4-1.6-0.2-2,0.4c-0.8,1.3-1.5,2.6-1.9,4.1C483.4,161.7,483.8,162.5,484.6,162.8z"/>
		<path class="st33" d="M489.5,156c0.4,0,0.7-0.1,1-0.4c0.9-0.8,1.9-1.6,3.1-2.1c0.7-0.4,1-1.3,0.6-2c-0.4-0.7-1.3-1-2-0.6
			c-1.3,0.7-2.6,1.6-3.7,2.6c-0.6,0.5-0.6,1.5-0.1,2.1C488.7,155.8,489.1,156,489.5,156z"/>
		<path class="st33" d="M496.7,152.2c0.1,0,0.2,0,0.3,0c1-0.2,2.1-0.3,3.1-0.3c0,0,0,0,0,0c0.2,0,0.4,0,0.6,0c0.8,0,1.5-0.6,1.5-1.4
			c0-0.8-0.6-1.5-1.4-1.5c-0.2,0-0.5,0-0.7,0c-1.3,0-2.5,0.1-3.7,0.4c-0.8,0.2-1.3,1-1.1,1.8C495.4,151.8,496,152.2,496.7,152.2z"/>
		<path class="st33" d="M504.4,152.5c1.2,0.4,2.3,0.9,3.4,1.6c0.2,0.2,0.5,0.2,0.8,0.2c0.5,0,1-0.2,1.2-0.7c0.4-0.7,0.2-1.6-0.5-2
			c-1.3-0.8-2.6-1.4-4.1-1.9c-0.8-0.2-1.6,0.2-1.8,1C503.2,151.5,503.6,152.3,504.4,152.5z"/>
		<path class="st33" d="M512.8,159.5c0.3,0.5,0.8,0.8,1.3,0.8c0.2,0,0.5-0.1,0.7-0.2c0.7-0.4,1-1.3,0.6-2c-0.7-1.3-1.6-2.6-2.6-3.7
			c-0.6-0.6-1.5-0.6-2.1-0.1c-0.6,0.6-0.6,1.5-0.1,2.1C511.5,157.4,512.2,158.4,512.8,159.5z"/>
		<path class="st33" d="M484.3,203.9c0.8,0,1.5-0.7,1.5-1.5v-4.1c0-0.8-0.7-1.5-1.5-1.5s-1.5,0.7-1.5,1.5v4.1
			C482.8,203.3,483.5,203.9,484.3,203.9z"/>
		<path class="st33" d="M484.3,171c0.8,0,1.5-0.7,1.5-1.5v-3.3c0-0.2,0-0.5,0-0.7c0-0.8-0.6-1.5-1.4-1.5c-0.8,0-1.5,0.6-1.5,1.4
			c0,0.3,0,0.6,0,0.9v3.3C482.8,170.3,483.5,171,484.3,171z"/>
		<path class="st33" d="M484.3,195.7c0.8,0,1.5-0.7,1.5-1.5v-4.1c0-0.8-0.7-1.5-1.5-1.5s-1.5,0.7-1.5,1.5v4.1
			C482.8,195.1,483.5,195.7,484.3,195.7z"/>
		<path class="st33" d="M484.3,187.5c0.8,0,1.5-0.7,1.5-1.5v-4.1c0-0.8-0.7-1.5-1.5-1.5c-0.8,0-1.5,0.7-1.5,1.5v4.1
			C482.8,186.9,483.5,187.5,484.3,187.5z"/>
		<path class="st33" d="M484.3,179.2c0.8,0,1.5-0.7,1.5-1.5v-4.1c0-0.8-0.7-1.5-1.5-1.5s-1.5,0.7-1.5,1.5v4.1
			C482.8,178.6,483.5,179.2,484.3,179.2z"/>
		<path class="st33" d="M517,160.1c0.2,0.1,0.5,0.2,0.7,0.2c0.5,0,1-0.3,1.3-0.8c0.6-1.1,1.3-2.1,2.2-3c0.6-0.6,0.5-1.5-0.1-2.1
			c-0.6-0.6-1.5-0.5-2.1,0.1c-1,1.1-1.9,2.3-2.6,3.7C516.1,158.8,516.3,159.7,517,160.1z"/>
		<path class="st33" d="M549,190.1c0-0.8-0.7-1.5-1.5-1.5s-1.5,0.7-1.5,1.5v4.1c0,0.8,0.7,1.5,1.5,1.5s1.5-0.7,1.5-1.5V190.1z"/>
		<path class="st33" d="M547.5,196.9c-0.8,0-1.5,0.7-1.5,1.5v4.1c0,0.8,0.7,1.5,1.5,1.5s1.5-0.7,1.5-1.5v-4.1
			C549,197.5,548.3,196.9,547.5,196.9z"/>
		<path class="st33" d="M549,181.9c0-0.8-0.7-1.5-1.5-1.5s-1.5,0.7-1.5,1.5v4.1c0,0.8,0.7,1.5,1.5,1.5s1.5-0.7,1.5-1.5V181.9z"/>
		<path class="st33" d="M546.3,165.4c0,0.2,0,0.5,0,0.7v3.3c0,0.8,0.7,1.5,1.5,1.5s1.5-0.7,1.5-1.5v-3.3c0-0.3,0-0.6,0-0.9
			c0-0.8-0.7-1.4-1.5-1.4C546.9,163.9,546.2,164.6,546.3,165.4z"/>
		<path class="st33" d="M549.2,173.6c0-0.8-0.7-1.5-1.5-1.5c-0.8,0-1.5,0.7-1.5,1.5v4.1c0,0.8,0.7,1.5,1.5,1.5
			c0.8,0,1.5-0.7,1.5-1.5V173.6z"/>
		<path class="st33" d="M523.3,154.3c0.3,0,0.5-0.1,0.8-0.2c1.1-0.7,2.2-1.2,3.4-1.6c0.8-0.2,1.2-1.1,1-1.8c-0.2-0.8-1.1-1.2-1.8-1
			c-1.4,0.4-2.8,1.1-4.1,1.9c-0.7,0.4-0.9,1.3-0.5,2C522.3,154.1,522.8,154.3,523.3,154.3z"/>
		<path class="st33" d="M544,158.4c0.7,1.1,1.2,2.2,1.6,3.4c0.2,0.6,0.8,1,1.4,1c0.1,0,0.3,0,0.5-0.1c0.8-0.2,1.2-1.1,1-1.9
			c-0.5-1.4-1.1-2.8-1.9-4.1c-0.4-0.7-1.4-0.9-2-0.4C543.8,156.8,543.6,157.7,544,158.4z"/>
		<path class="st33" d="M514.1,163c0.2,1,0.4,2.1,0.4,3.2v0.5c0,0.8,0.7,1.5,1.5,1.5c0.8,0,1.5-0.7,1.5-1.5v-0.5c0,0,0,0,0,0
			c0-1.1,0.1-2.2,0.4-3.2c0.2-0.8-0.3-1.6-1.1-1.8c-0.2-0.1-0.5,0-0.7,0c-0.2-0.1-0.5-0.1-0.7,0C514.4,161.4,513.9,162.2,514.1,163z
			"/>
		<path class="st33" d="M531.1,151.9c0.2,0,0.4,0,0.6,0c0,0,0,0,0,0c1,0,2.1,0.1,3.1,0.3c0.1,0,0.2,0,0.3,0c0.7,0,1.3-0.5,1.4-1.2
			c0.2-0.8-0.3-1.6-1.1-1.8c-1.2-0.3-2.5-0.4-3.7-0.4c0,0,0,0,0,0c-0.2,0-0.5,0-0.7,0c-0.8,0-1.4,0.7-1.4,1.5
			C529.6,151.3,530.3,151.9,531.1,151.9z"/>
		<path class="st33" d="M538.5,153.4c1.1,0.6,2.1,1.3,3.1,2.1c0.3,0.3,0.6,0.4,1,0.4c0.4,0,0.8-0.2,1.1-0.5c0.5-0.6,0.5-1.5-0.1-2.1
			c-1.1-1-2.4-1.9-3.7-2.6c-0.7-0.4-1.6-0.1-2,0.6C537.5,152.1,537.8,153,538.5,153.4z"/>
		<path class="st34" d="M552.3,207.8h-29.1v-14.1c6.9-2.1,12.6-7.3,15.4-14.1h3.1c0.8,0,1.5-0.7,1.5-1.5c0-3.8-3.1-6.8-6.8-6.8
			h-18.9v-0.4c0-0.8-0.7-1.5-1.5-1.5c-0.8,0-1.5,0.7-1.5,1.5v0.4h-18.9c-3.8,0-6.8,3.1-6.8,6.8c0,0.8,0.7,1.5,1.5,1.5h3.1
			c2.8,6.8,8.5,12,15.4,14.1v14.1h-29.1c-4.8,0-8.8,3.9-8.8,8.8c0,0.8,0.7,1.5,1.5,1.5h7.2c4.5,11.5,14,20,25.5,23.4v20.7
			c-4.7,2.6-8.3,6.8-10.1,11.9c-0.2,0.5-0.1,1,0.2,1.3c0.3,0.4,0.7,0.6,1.2,0.6h39.1c0.5,0,0.9-0.2,1.2-0.6c0.3-0.4,0.3-0.9,0.2-1.3
			c-1.8-5.1-5.4-9.3-10.1-11.9v-20.7c11.5-3.3,21.1-11.9,25.5-23.4h7.2c0.8,0,1.5-0.7,1.5-1.5C561.1,211.7,557.2,207.8,552.3,207.8z
			 M492.1,176.6c0.6-1.4,2-2.4,3.6-2.4h40.8c1.6,0,3,1,3.6,2.4H492.1z M496.7,179.5h38.7c-3.5,7.4-11.1,12.2-19.4,12.2
			C507.7,191.8,500.2,186.9,496.7,179.5z M520.3,194.3v13.4h-8.5v-13.4c1.4,0.2,2.8,0.4,4.2,0.4
			C517.5,194.7,518.9,194.6,520.3,194.3z M532.4,271.2c0.4,0.6,0.7,1.2,1,1.8h-34.7c0.3-0.6,0.6-1.2,1-1.8H532.4z M530.1,268.3H502
			c1.4-1.5,3.1-2.8,5-3.8h18C526.9,265.5,528.6,266.8,530.1,268.3z M508.1,261.5v-19.4c2.6,0.5,5.2,0.8,7.9,0.8
			c2.7,0,5.3-0.3,7.9-0.8v19.4H508.1z M516,240c-14.5,0-27.6-8.7-33.2-22h66.4C543.6,231.2,530.5,240,516,240z M474.1,215.1
			c0.7-2.5,2.9-4.3,5.6-4.3h72.6c2.7,0,5,1.8,5.6,4.3H474.1z"/>
	</g>
</g>
<g id="house4">
	<g>
		<polygon class="st35" points="943.3,461.1 894.2,457.5 894.3,360.4 943.4,364 		"/>
		<path class="st7" d="M1213.1,436.9H1149c-11.9,0-21.5-9.6-21.5-21.5V311.1c0-11.9,9.6-21.5,21.5-21.5h52.6
			c11.9,0,21.5,9.6,21.5,21.5v115.8C1223.1,432.4,1218.7,436.9,1213.1,436.9z"/>
		<path class="st7" d="M1115.4,442.3h-19.5c-11.9,0-21.5-9.6-21.5-21.5V298.9c0-11.9,9.6-21.5,21.5-21.5h8
			c11.9,0,21.5,9.6,21.5,21.5v133.4C1125.4,437.9,1120.9,442.3,1115.4,442.3z"/>
		<path class="st7" d="M1041.1,439.6h-70.3c-11.9,0-21.5-9.6-21.5-21.5V296.2c0-11.9,9.6-21.5,21.5-21.5h58.8
			c11.9,0,21.5,9.6,21.5,21.5v133.4C1051.1,435.1,1046.6,439.6,1041.1,439.6z"/>
		<path class="st7" d="M877.7,425.4h-25.3c-11.9,0-21.5-9.6-21.5-21.5v-83.7c0-11.9,9.6-21.5,21.5-21.5h13.8
			c11.9,0,21.5,9.6,21.5,21.5v95.2C887.7,420.9,883.3,425.4,877.7,425.4z"/>
		<path class="st7" d="M1019.1,262.1H1008c-11.5,0-20.8-9.3-20.8-20.8v0c0-11.5,9.3-20.8,20.8-20.8h0c11.5,0,20.8,9.3,20.8,20.8
			v11.1C1028.8,257.8,1024.5,262.1,1019.1,262.1z"/>
		<path class="st7" d="M872.7,291h-9.2c-9.5,0-17.2-7.7-17.2-17.1v-0.1c0-9.5,7.7-17.1,17.2-17.1l0,0c9.5,0,17.2,7.7,17.2,17.1v9.3
			C880.6,287.5,877.1,291,872.7,291z"/>
		<g>
			<g>
				<polygon class="st36" points="1244,295.8 1244,285.9 1202.3,238.3 1009.9,183.4 965.9,235.7 859,218 807,305.7 818.8,305.7 
					863.6,230.3 901,285.8 942.3,281 1012.1,195.9 1066.8,260.6 				"/>
				<path class="st37" d="M822.6,299.1v151.1l48.9,5.5l0,0l25,1.8v-89.4l43.6-1.3v93.8l18.1,1.3v0l107.4,11l162.6-18.9V288.3
					l-163.7-32.5l-52.3-61.9l-67.6,82.4l-45.7,5.4l-35-52.1L822.6,299.1z M1120.6,307.6l-31.3-4v-23.2l31.3,5.1V307.6z
					 M1120.6,347.3l-31.3-2.1V322l31.3,3.2V347.3z M1168.3,313.9l-26.7-3.4V289l26.7,4.4V313.9z M1168.3,350.6l-26.7-1.8v-21.4
					l26.7,2.7V350.6z M1209.2,319.2l-23.1-3v-19.9l23.1,3.8C1209.2,300.2,1209.2,319.2,1209.2,319.2z M1209.2,353.4l-23.1-1.5V332
					l23.1,2.3C1209.2,334.4,1209.2,353.4,1209.2,353.4z M1209.4,387.2l-23-0.1v-19.9l23,0.9V387.2z M1186,403.1l23.1-0.5v19.1
					L1186,423V403.1z M1168.5,386.9l-26.7-0.1v-21.4l26.7,1.1V386.9z M1141.3,404l26.7-0.6v20.5l-26.7,1.5V404z M1120.9,364.4v22.1
					l-31.3-0.2v-23.2L1120.9,364.4L1120.9,364.4z M1089,405.1l31.3-0.7v22.2l-31.3,1.8V405.1z M984.5,311l-27.9,3.6v-21.7l27.9-4.6
					V311z M1036.3,280.1v24.6l-32.7,4.2v-23.4L1036.3,280.1L1036.3,280.1z M1036.7,345.8l-32.8,2.2v-23.4l32.8-3.4V345.8z
					 M1003.6,403.5l32.7,0.7v24.6l-32.7-1.9V403.5z M1003.3,364.3l32.7-1.3v24.6l-32.7,0.1V364.3z M996.2,229.1l23.7-6.1v29.9
					l-23.7,5.1V229.1z M984.8,326.3V349l-28,1.9v-21.7L984.8,326.3L984.8,326.3z M956.7,402.2l27.9,0.6v22.7l-27.9-1.6V402.2z
					 M956.4,366l27.9-1.1v22.7l-27.9,0.1V366z M853.3,327.7l-17.4,2.3v-17.2l17.4-2.9V327.7z M884.7,323.9l-19.7,2.5v-18.3l19.7-3.3
					V323.9z M884.9,355.7l-19.7,1.3v-18.3l19.7-2V355.7z M865,400.3l19.7,0.4v19l-19.7-1.1V400.3z M864.8,388.1v-18.3l19.7-0.8v19
					L864.8,388.1L864.8,388.1z M857,261.6l13.9-3.7v22.8l-13.9,3.1V261.6z M853.5,357.6l-17.4,1.2v-17.2l17.4-1.8V357.6z
					 M835.9,416.7v-17.2l17.4,0.4v17.8L835.9,416.7L835.9,416.7z M835.7,370.7l17.4-0.7v17.8l-17.4,0.1V370.7z"/>
			</g>
		</g>
	</g>
</g>
<g id="tree2">
	<g>
		<path class="st4" d="M1294,416c1.4-3.5,2.2-7.3,2.2-11.1c0-16.4-13.4-29.8-29.8-29.8c-3,0-5.9,0.4-8.6,1.3
			c-5.9,1.8-11.1,5.3-15,10.3c-14.7,1.1-26.3,13.6-26.3,28.8c0,7.9,3.1,15.3,8.6,20.8c0.6,11.9,10.5,21.4,22.6,21.4
			c1.6,0,3.2-0.2,4.7-0.5c1.9-0.4,3.7-1,5.4-1.9c1.9-1,3.7-2.2,5.3-3.7c0,0,0,0,0.1,0c3.6,2,7.6,3.1,11.8,3.1
			c13.3,0,24.1-10.8,24.1-24.1C1299,425.4,1297.2,420.2,1294,416z"/>
		<path class="st5" d="M1257.7,455.3c-1.7,0.8-3.5,1.5-5.4,1.9v31c0,3,2.4,5.4,5.4,5.4s5.4-2.4,5.4-5.4v-36.5c0,0,0,0-0.1,0
			C1261.4,453.1,1259.6,454.3,1257.7,455.3z"/>
	</g>
</g>
<g id="bush1">
	<g>
		<g>
			<path class="st1" d="M1235,459.3c0.1-0.7,0.1-1.4,0.1-2c0-7-4.5-13-10.8-15.3c-2-5.4-7.2-9.2-13.3-9.2c-1.9,0-3.7,0.4-5.3,1
				c-1.6-0.7-3.4-1-5.3-1c-2.9,0-5.6,0.9-7.8,2.4c-2.5-3.8-6.9-6.3-11.8-6.3c-7.2,0-13.1,5.3-14.1,12.3c-7,0.9-12.3,6.9-12.3,14.1
				c0,0.4,0,0.9,0.1,1.3c-6.6,2-11.4,8.1-11.4,15.3c0,8.8,7.1,16,16,16h0h65.9c8.8,0,16-7.1,16-16
				C1241,466.7,1238.6,462.2,1235,459.3z"/>
		</g>
		<g>
			<path class="st2" d="M1203.3,451.6c-0.9,0-1.8,0.1-2.6,0.2c-3.2-5.2-8.9-8.7-15.5-8.7c-2.4,0-4.8,0.5-6.9,1.4
				c-3.3-3.4-7.9-5.6-13.1-5.6c-8.2,0-15.2,5.5-17.4,13.1c-8.4,1.6-14.7,8.9-14.7,17.8c0,10,8.1,18.1,18.1,18.1h52
				c10,0,18.1-8.1,18.1-18.1C1221.4,459.7,1213.3,451.6,1203.3,451.6z"/>
			<path class="st3" d="M1165.3,438.8c-8.2,0-15.2,5.5-17.4,13.1c-8.4,1.6-14.7,8.9-14.7,17.8c0,10,8.1,18.1,18.1,18.1h24.8v-45.3
				C1173.1,440.2,1169.3,438.8,1165.3,438.8z"/>
		</g>
	</g>
	<g>
		<g>
			<path class="st1" d="M1186.1,478.9c0.1-0.7,0.1-1.4,0.1-2c0-7-4.5-13-10.8-15.3c-2-5.4-7.2-9.2-13.3-9.2c-1.9,0-3.7,0.4-5.3,1
				c-1.6-0.7-3.4-1-5.3-1c-2.9,0-5.6,0.9-7.8,2.4c-2.5-3.8-6.9-6.3-11.8-6.3c-7.2,0-13.1,5.3-14.1,12.3c-7,0.9-12.3,6.9-12.3,14.1
				c0,0.4,0,0.9,0.1,1.3c-6.6,2-11.4,8.1-11.4,15.3c0,8.8,7.1,16,16,16h0h65.9c8.8,0,16-7.1,16-16
				C1192.1,486.4,1189.7,481.9,1186.1,478.9z"/>
		</g>
		<g>
			<path class="st2" d="M1154.4,471.2c-0.9,0-1.8,0.1-2.6,0.2c-3.2-5.2-8.9-8.7-15.5-8.7c-2.4,0-4.8,0.5-6.9,1.4
				c-3.3-3.4-7.9-5.6-13.1-5.6c-8.2,0-15.2,5.5-17.4,13.1c-8.4,1.6-14.7,8.9-14.7,17.8c0,10,8.1,18.1,18.1,18.1h52
				c10,0,18.1-8.1,18.1-18.1C1172.5,479.3,1164.4,471.2,1154.4,471.2z"/>
			<path class="st3" d="M1116.4,458.5c-8.2,0-15.2,5.5-17.4,13.1c-8.4,1.6-14.7,8.9-14.7,17.8c0,10,8.1,18.1,18.1,18.1h24.8v-45.3
				C1124.2,459.8,1120.4,458.5,1116.4,458.5z"/>
		</g>
		<g>
			<path class="st2" d="M789.4,412.4c-0.4,0-0.8,0-1.2,0.1c-1.5-2.4-4.1-4-7.1-4c-1.1,0-2.2,0.2-3.2,0.6c-1.5-1.6-3.6-2.6-6-2.6
				c-3.8,0-7,2.5-8,6c-3.8,0.7-6.8,4.1-6.8,8.2c0,4.6,3.7,8.3,8.3,8.3h23.9c4.6,0,8.3-3.7,8.3-8.3
				C797.7,416.1,794,412.4,789.4,412.4z"/>
			<path class="st3" d="M771.8,406.5c-3.8,0-7,2.5-8,6c-3.8,0.7-6.8,4.1-6.8,8.2c0,4.6,3.7,8.3,8.3,8.3h11.4v-20.8
				C775.4,407.1,773.7,406.5,771.8,406.5z"/>
		</g>
	</g>
	<g>
		<g>
			<path class="st1" d="M1158.3,501.4c0,8.8,7.1,16,16,16h65.9h0c8.8,0,16-7.1,16-16c0-7.2-4.8-13.3-11.4-15.3
				c0-0.4,0.1-0.9,0.1-1.3c0-7.2-5.4-13.2-12.3-14.1c-0.9-6.9-6.9-12.3-14.1-12.3c-4.9,0-9.2,2.5-11.8,6.3c-2.2-1.5-4.9-2.4-7.8-2.4
				c-1.9,0-3.7,0.4-5.3,1c-1.6-0.7-3.4-1-5.3-1c-6.1,0-11.3,3.8-13.3,9.2c-6.3,2.2-10.8,8.2-10.8,15.3c0,0.7,0,1.4,0.1,2
				C1160.7,491.9,1158.3,496.4,1158.3,501.4z"/>
		</g>
		<g>
			<path class="st2" d="M1177.9,499.3c0,10,8.1,18.1,18.1,18.1h52c10,0,18.1-8.1,18.1-18.1c0-8.8-6.3-16.2-14.7-17.8
				c-2.2-7.5-9.1-13.1-17.4-13.1c-5.1,0-9.8,2.2-13.1,5.6c-2.1-0.9-4.5-1.4-6.9-1.4c-6.6,0-12.3,3.5-15.5,8.7
				c-0.9-0.1-1.7-0.2-2.6-0.2C1186,481.2,1177.9,489.3,1177.9,499.3z"/>
			<path class="st3" d="M1223.2,472.1v45.3h24.8c10,0,18.1-8.1,18.1-18.1c0-8.8-6.3-16.2-14.7-17.8c-2.2-7.5-9.1-13.1-17.4-13.1
				C1230,468.5,1226.2,469.8,1223.2,472.1z"/>
		</g>
	</g>
	<g>
		<path class="st2" d="M345.2,315.6c-0.4,0-0.8,0-1.2,0.1c-1.5-2.4-4.1-4-7.1-4c-1.1,0-2.2,0.2-3.2,0.6c-1.5-1.6-3.6-2.6-6-2.6
			c-3.8,0-7,2.5-8,6c-3.8,0.7-6.8,4.1-6.8,8.2c0,4.6,3.7,8.3,8.3,8.3h23.9c4.6,0,8.3-3.7,8.3-8.3
			C353.5,319.3,349.8,315.6,345.2,315.6z"/>
		<path class="st3" d="M327.7,309.7c-3.8,0-7,2.5-8,6c-3.8,0.7-6.8,4.1-6.8,8.2c0,4.6,3.7,8.3,8.3,8.3h11.4v-20.8
			C331.3,310.3,329.5,309.7,327.7,309.7z"/>
	</g>
	<g>
		<path class="st2" d="M712.9,162.9c0,4.6,3.7,8.3,8.3,8.3h23.9c4.6,0,8.3-3.7,8.3-8.3c0-4.1-2.9-7.4-6.8-8.2c-1-3.5-4.2-6-8-6
			c-2.4,0-4.5,1-6,2.6c-1-0.4-2-0.6-3.2-0.6c-3,0-5.7,1.6-7.1,4c-0.4-0.1-0.8-0.1-1.2-0.1C716.6,154.6,712.9,158.3,712.9,162.9z"/>
		<path class="st3" d="M733.8,150.4v20.8h11.4c4.6,0,8.3-3.7,8.3-8.3c0-4.1-2.9-7.4-6.8-8.2c-1-3.5-4.2-6-8-6
			C736.9,148.7,735.1,149.3,733.8,150.4z"/>
	</g>
	<g>
		<path class="st2" d="M416.4,304.6c-0.3,0-0.5,0-0.8,0.1c-1-2.4-2.7-4-4.7-4c-0.8,0-1.5,0.2-2.1,0.6c-1-1.6-2.4-2.6-4-2.6
			c-2.5,0-4.7,2.5-5.3,6c-2.6,0.7-4.5,4.1-4.5,8.2c0,4.6,2.5,8.3,5.6,8.3h16c3.1,0,5.6-3.7,5.6-8.3
			C422,308.3,419.5,304.6,416.4,304.6z"/>
		<path class="st3" d="M404.8,298.7c-2.5,0-4.7,2.5-5.3,6c-2.6,0.7-4.5,4.1-4.5,8.2c0,4.6,2.5,8.3,5.6,8.3h7.6v-20.8
			C407.2,299.3,406,298.7,404.8,298.7z"/>
	</g>
	<g>
		<path class="st2" d="M685.4,383.2c-0.2,0-0.3,0-0.5,0.1c-0.6-1.4-1.6-2.4-2.8-2.4c-0.4,0-0.9,0.1-1.3,0.4
			c-0.6-0.9-1.4-1.5-2.4-1.5c-1.5,0-2.8,1.5-3.2,3.6c-1.5,0.4-2.7,2.4-2.7,4.8c0,2.7,1.5,4.9,3.3,4.9h9.4c1.8,0,3.3-2.2,3.3-4.9
			C688.7,385.4,687.2,383.2,685.4,383.2z"/>
		<path class="st3" d="M678.5,379.7c-1.5,0-2.8,1.5-3.2,3.6c-1.5,0.4-2.7,2.4-2.7,4.8c0,2.7,1.5,4.9,3.3,4.9h4.5v-12.3
			C679.9,380.1,679.2,379.7,678.5,379.7z"/>
	</g>
</g>
<g id="bench">
	<path class="st38" d="M420.5,299.1c0,0.5-0.4,1-0.9,1l-4.3,0.5c-0.5,0.1-0.9-0.3-0.9-0.8l0-1c0-0.5,0.4-1,0.9-1l4.3-0.5
		c0.5-0.1,0.9,0.3,0.9,0.8L420.5,299.1z"/>
	<path class="st39" d="M454.4,280.2l0,7.9l-35.5,3.7l0-7.9l-3,0.3l0,13.3l3-0.3l0-3.7l35.5-3.7l0,3.7l3-0.3l0-13.3L454.4,280.2z"/>
	<path class="st38" d="M452.8,295.7c0,0.5,0.4,0.9,0.9,0.8l4.3-0.5c0.5-0.1,0.9-0.5,0.9-1l0-1c0-0.5-0.4-0.9-0.9-0.8l-4.3,0.5
		c-0.5,0.1-0.9,0.5-0.9,1L452.8,295.7z"/>
	<path class="st39" d="M416,267.8l3-0.3l0,15.5l-3,0.3L416,267.8z M454.4,263.8l3-0.3l0,15.5l-3,0.3L454.4,263.8z"/>
	<path class="st40" d="M461.8,279.9c0-0.8-0.6-1.3-1.4-1.2l-47.5,5c-0.8,0.1-1.4,0.8-1.4,1.5l0,2.7c0,0.8,0.6,1.3,1.4,1.2l47.5-5
		c0.8-0.1,1.4-0.8,1.4-1.5L461.8,279.9z"/>
	<path class="st41" d="M459.1,270.2c0-0.8-0.6-1.3-1.4-1.2l-42.2,4.4c-0.8,0.1-1.4,0.8-1.4,1.5l0,2.7c0,0.8,0.6,1.3,1.4,1.2
		l42.2-4.4c0.8-0.1,1.4-0.8,1.4-1.5L459.1,270.2L459.1,270.2z"/>
	<path class="st39" d="M455.1,271.9c0,0.4,0.3,0.8,0.8,0.7c0.4,0,0.8-0.4,0.8-0.9c0,0,0,0,0,0c0-0.4-0.3-0.8-0.8-0.7
		C455.4,271.1,455.1,271.5,455.1,271.9C455.1,271.9,455.1,271.9,455.1,271.9z"/>
	<path class="st39" d="M416.7,276c0,0.4,0.3,0.8,0.8,0.7c0.4,0,0.8-0.4,0.8-0.9c0-0.4-0.3-0.8-0.8-0.7S416.7,275.6,416.7,276z"/>
	<path class="st41" d="M459.1,262c0-0.8-0.6-1.3-1.4-1.2l-42.2,4.4c-0.8,0.1-1.4,0.8-1.4,1.5l0,2.7c0,0.8,0.6,1.3,1.4,1.2l42.2-4.4
		c0.8-0.1,1.4-0.8,1.4-1.5L459.1,262L459.1,262z"/>
	<path class="st39" d="M455.1,263.7c0,0.4,0.3,0.8,0.8,0.7c0.4,0,0.8-0.4,0.8-0.9c0,0,0,0,0,0c0-0.4-0.3-0.8-0.8-0.7
		C455.4,262.9,455.1,263.3,455.1,263.7C455.1,263.7,455.1,263.7,455.1,263.7z"/>
	<path class="st39" d="M416.7,267.8c0,0.4,0.3,0.8,0.8,0.7c0.4,0,0.8-0.4,0.8-0.9c0-0.4-0.3-0.8-0.8-0.7S416.7,267.3,416.7,267.8z"
		/>
</g>
</svg>
