<svg xmlns="http://www.w3.org/2000/svg" viewBox="0 0 595.3 862.9"><style>.st0{fill:#ce4d36}.st1{fill:#e25e40}.st3{fill:#eee7e5}.st4{fill:#676666}.st12{stroke:#683621;stroke-miterlimit:10;fill:none;stroke-width:2}.st13,.st14{fill:#525760;stroke-linecap:round}.st13{stroke:#1b1e21;stroke-width:3}.st13,.st14,.st15{stroke-miterlimit:10}.st14{stroke:#32363b;stroke-width:2}.st15{fill:#535754;stroke:#373636;stroke-linecap:round}</style><g id="stork"><path class="st0" d="M270.5 211.8l-13.8-3.9s-6.1-2.2-1.8-6.5l11.8-18.3-7.9-.8-20.8 24.4s-3.5 4.5 4.7 6.3c0 0 69.6 10.4 83.6 39.9 0 0 2 1 2.2-4.3 0 0 2.9-30.1-58-36.8z"/><path class="st0" d="M292.3 225.1s4.2 10.5 2.8 15.5c0 0 2.1.8 2.8-1.2.7-2 2.1-8.9 2.1-11.2s-7.7-3.1-7.7-3.1zm12.3 6.1s4.9 12.4 3.4 18.3c0 0 2.5 1 3.4-1.4.8-2.4 2.5-10.5 2.5-13.2 0-2.9-9.3-3.7-9.3-3.7z"/><path class="st1" d="M275.3 184s-2.4 4.5 1.2 10.7c0 0 .4 26.5-.4 52.2v27.7l6 .3 6.5-86.1-13.3-4.8z"/><path d="M255.5 163.2s8.1 2.7 2.4 18.5c0 0 4.6 4.6 9.5 4.1 0 0 9.2-11.1 12.2-16 0 0-3-17.7-24.1-6.6z" fill="#d9d4d3"/><path class="st3" d="M299.7 144l-45 17.6s20.6-2.2 21.4 8.1l-2.7 15.7s6.2.3 9.4 2.3c3.1 2 6.1 2.8 7.2 2.6 0 0-3-19.3 0-25.2-.1 0 3.7-15.2 9.7-21.1z"/><path class="st4" d="M302.7 103.3l-49.4 25.2s-14.1 4.6-19.8 10.9c0 0-23.1 23.9-4.6 46.1 0 0 .3-6.2 2.2-7.1l3.8 9s2.7-11.1 4.9-12.5c0 0 5.4 7.9 6.8 8.4 0 0 4.3-12.8 8.7-16.6 0 0 10-9.5 26-12.5 0 0 19.8-7.3 29-14.7l4.9-32.6-12.5-3.6z"/><path class="st0" d="M290.5 24.6s-35 4.3-14.4 17.1L377 59l-86.5-34.4z"/><path class="st1" d="M290.5 24.6s-19.7 2.4-20.8 9C269.2 35.8 377 59 377 59l-86.5-34.4z"/><path class="st3" d="M338.2 97.6s-7.9-34.2-45.6-48c0 0-19.8-9-22-15.7 0 0 7.1-8.1 19.8-9.2 0 0 3-22-22.8-17.9-7.1 1.1-19.1 8.7-19.8 20.1-.3 4.3-2.2 18.2 16.6 23.9 0 0 39.9 16.3 34.2 34.2 0 0-.8 16.3-20.3 22 0 0-22.2 9.2-26.3 22.2 0 0 29.5-5.9 47.4-20.6l-6.5 20.3s13.8-5.7 18.7-9.8c0 0-4.1 21.2-2.4 25.2 0 0 9-4.9 12.2-12.2 0 0 2.4 5.7 1.6 11.4 0 0 12.2-11.4 10.6-23.6 0 0 2.2 4.1 2.7 6.2 0 0 7.3-5.2 1.9-28.5z"/><circle cx="271.7" cy="25.4" r="4.1" fill="#d1d1d1"/><circle cx="271.7" cy="25.4" r="3.6" fill="#fff"/><circle class="st4" cx="271.7" cy="25.4" r="2.2"/><circle class="st3" cx="272.6" cy="24.6" r=".8"/><path class="st1" d="M315.7 282.5c1.2-.7 5 3 5 .8s-3.9-4.1-5.8-4.9c-11.2-4.9-25-4.7-25-4.7-25.4-2.6-36.1 14.1-36.1 14.1-1.5 6.1 7.3-1.5 10.9-2.7 18.9-6.4 55.7 4.7 57.1 2.8 1.4-1.8-7.3-4.7-6.1-5.4z"/><path d="M279.6 25.2c-1.7-1-4.1-2.1-6.7-1.6-4.7.8-7.9 5.9-8.6 5.3-.4-.3.6-2.1.2-2.3-.3-.2-1.6 1-2.3 2.6-.5 1.3-.4 2.4-.5 2.4-.2 0-1.2-2.7-.4-5.1 1.3-3.8 6.3-4.8 7.1-4.9 5.8-1.2 10.5 3 11.2 3.6z" fill="#dad4d2"/></g><g id="tree"><path d="M45.3 836.2c18.4 0 55.2 0 73.6-18.4 18.4-18.4 27.6-36.8 27.6-73.6 0-55.2-36.8-92-36.8-165.7 0-92 36.8-128.8 36.8-165.7 0-73.6-36.8-92-36.8-92s82.8 9.2 174.9 9.2 174.9-9.2 174.9-9.2-36.8 18.4-36.8 92c0 36.8 36.8 73.6 36.8 165.7 0 73.6-36.8 110.4-36.8 165.7 0 36.8 9.2 55.2 27.6 73.6 18.4 18.4 55.2 18.4 73.6 18.4s27.6 18.4 27.6 18.4H441s-119.6 0-156.4-18.4c-36.8 18.4-156.4 18.4-156.4 18.4H17.7s9.2-18.4 27.6-18.4" fill="#835746" transform="translate(1 1)"/><path d="M544.9 860.2c-7.6 0-193.7 0-259.3-17.5C220 860.2 34 860.2 26.3 860.2c-4.6 0-7.6-1.8-7.6-4.6s3.1-4.6 7.6-4.6c1.5 0 196.7 0 256.2-17.5 1.5-.9 4.6-.9 6.1 0 58 17.5 253.2 17.5 256.2 17.5 4.6 0 7.6 1.8 7.6 4.6.1 2.8-3 4.6-7.5 4.6zm7.4 0c-1.9 0-3.8-.9-3.8-2.8 0 0-8.6-15.6-25-15.6-19.2 0-59.5 0-80.6-19.3-18.2-17.5-29.8-36.8-29.8-77.3 0-26.7 8.6-48.8 17.3-71.8 10.6-26.7 21.1-55.2 21.1-93.9 0-55.2-14.4-90.2-25-117.8-6.7-17.5-13.4-32.2-13.4-47.9 0-75.5 39.4-95.7 41.3-95.7 1.9-.9 4.8 0 6.7 1.8 1 1.8 0 4.6-1.9 6.4 0 0-35.5 18.4-35.5 88.3 0 13.8 5.8 26.7 12.5 44.2 10.6 26.7 25.9 64.4 25.9 121.5 0 40.5-11.5 69.9-21.1 96.6-8.6 23-17.3 44.2-17.3 69 0 36.8 9.6 53.4 27.8 69.9 18.2 17.5 55.7 17.5 73 17.5 22.1 0 32.6 20.2 32.6 21.2 1 1.8 0 4.6-1.9 6.4-1-.7-2-.7-2.9-.7zm-533.6 0c-.9 0-1.8 0-1.8-.9-1.8-.9-2.8-3.7-1.8-6.4 0-.9 11-21.2 31.3-21.2 17.5 0 53.4 0 69.9-17.5 16.6-16.6 26.7-33.1 26.7-69.9 0-24.8-8.3-46-16.6-69-10.1-26.7-20.2-56.1-20.2-96.6 0-57.1 14.7-93.9 24.8-121.5 6.4-17.5 12-31.3 12-44.2 0-69-34.1-87.4-34.1-88.3-1.8-.9-2.8-3.7-1.8-6.4.9-2.8 3.7-2.8 6.4-1.8 1.8.9 39.6 20.2 39.6 95.7 0 14.7-5.5 30.4-12.9 47.9-11 27.6-23.9 62.6-23.9 117.8 0 38.7 10.1 66.3 20.2 93.9 8.3 23.9 16.6 46 16.6 71.8 0 39.6-11 58.9-28.5 77.3-19.3 19.3-58 19.3-77.3 19.3-15.6 0-23 15.6-23.9 15.6-1 3.5-2.8 4.4-4.7 4.4zm302.5-48.6c-1 2.6-3.4 3.6-6 2.6s-3.6-3.4-2.6-6c6.7-17.1 9.6-34.8 8.2-51.2.1-2.9 1.7-4.3 4.1-5.3 2.9.1 4.3 1.7 5.3 4.1 1.6 18.4-1.7 36.9-9 55.8zM205 813.2c-1.9-.7-3.1-3.4-1.7-5.9 23.1-38.8 12.2-76.4 12.2-76.4.1-2.6 1.5-5.1 3.5-5.7 2.6.1 5.1 1.5 5.7 3.5.6 2 11.3 42.1-13.8 84.1l-.7.6c-1.4 1.3-3.4 1.9-5.2-.2zM388.1 772c-.4.8-.9 1.6-2.1 2-2.5.7-5.4.2-6.1-2.2l-12-26.3c-.7-2.5-.2-5.4 2.2-6.1 2.5-.7 5.4-.2 6.1 2.2l12 26.3c.4 1.2.4 3.3-.1 4.1zM262.5 668.6h-.9c-2.8-1-3.7-3.1-3.7-6.2 4.6-19.6 16.6-36.1 30.4-44.3 1.8-1 4.6 0 6.4 2.1 1.8 2.1 0 5.2-1.8 7.2-9.2 5.2-20.2 17.5-25.8 38.1-.9 1.1-2.8 3.1-4.6 3.1zm116.2-35.1c-1.4-1.2-2.3-3-1.8-5.1 3.5-11.5 2.9-23.8-.7-33.9-.8-1.9.2-4.6 2.7-6.1 1.9-.8 4.6.2 6.1 2.7 5 11.3 5.8 26.2 1.3 40.4-1 2.7-2.9 3.6-6.2 3.2l-1.4-1.2zm-221.9-67.8c-2.8 0-4.6-2.8-4.6-4.6l2.8-36.8c0-2.8 2.8-4.6 4.6-4.6 2.8 0 4.6 2.8 4.6 4.6l-2.8 36.8c0 2.8-1.9 4.6-4.6 4.6zm257.6 0c-2.8 0-4.6-1.8-4.6-4.6l-2.8-35c0-2.8 1.8-4.6 3.7-4.6 2.8 0 4.6.9 5.5 3.7 0 .9 2.8 17.5 2.8 35.9 0 2.8-1.8 4.6-4.6 4.6zM211.3 364.3c2.4-1 5 .1 5.9 2.5-.4.8 5 14.1-3 32.8-8 18.6-21.6 24.8-21.6 24.8-2.4 1-5-.1-5.9-2.5-1-2.4.1-5 2.5-5.9.8.4 10.9-4.4 17-18.7S208 372 208 372c-.5-1.2.2-2.9.6-3.7.4-1 1.2-2.7 2.7-4zM460 322.5c0 2.8-2 4.6-5 4.6-2 0-130.4-.2-168.6 17.2-1 .9-3 .9-4 0-39.1-17.6-167.5-17.8-168.5-17.8-3 0-5-1.8-5-4.6s2-4.6 5-4.6c5 0 127.4.2 170.5 17.8 43.2-17.4 165.5-17.2 170.6-17.2 3 0 5 1.8 5 4.6zM241.6 535.6c-2.8 0-4.6-4.2-4.6-10.5l-2.8-79.7c0-6.3 1.8-10.5 3.7-10.5 2.8 0 4.6 2.1 5.5 8.4 0 2.1 2.8 39.8 2.8 81.8 0 6.3-1.8 10.5-4.6 10.5zm120.2-142c-2.6-.9-3.8-3.2-2.9-5.8l8.8-34c.9-2.6 3.2-3.8 5-3.2 2.6.9 4.1 2.4 4 5.3-.3.9-3.1 17.4-9.1 34.8-.9 2.6-3.2 3.8-5.8 2.9z" fill="#683621"/><ellipse cx="358.6" cy="480.7" rx="26.3" ry="15.4" fill="none" stroke="#683621" stroke-width="8" stroke-miterlimit="10"/><path d="M321 542.7c-1.5-.6-2.4-2.6-1.3-4.5 17.4-29.3 9.2-57.6 9.2-57.6.1-2 1.1-3.9 2.6-4.3 2 .1 3.9 1.1 4.3 2.6.4 1.5 8.5 31.8-10.4 63.4l-.5.5c-1 1-2.5 1.4-3.9-.1zm56.2-13l-.3-.4c-7.1-27 5.1-47.4 5.8-48.3.6-1 2.2-1.4 3.7-1 1 .6 1.4 2.2 1 3.7 0 0-11.9 18.9-5.4 43.8.4 1.6-.7 2.9-1.9 3-1.4.8-2.4.1-2.9-.8z" fill="#683621" stroke="#683621" stroke-miterlimit="10"/><ellipse class="st12" cx="364.2" cy="480.7" rx="13.2" ry="7.7"/><ellipse class="st12" cx="371.8" cy="480.7" rx="2.9" ry="1.7"/><path class="st13" d="M589.4 269.1H372.6c-.9 0-1.6-.7-1.6-1.6v-1.1c0-.9.7-1.6 1.6-1.6h216.8c.9 0 1.6.7 1.6 1.6v1.1c0 .8-.7 1.6-1.6 1.6z"/><path class="st14" d="M581.7 305l-211.6-47c-.9-.2-1.4-1-1.2-1.9l.2-1.1c.2-.9 1-1.4 1.9-1.2l211.6 47c.9.2 1.4 1 1.2 1.9l-.2 1.1c-.2.9-1.1 1.4-1.9 1.2z"/><path class="st14" d="M589 252.9l-124.3 34.3c-.8.2-1.3 1.1-1.1 1.9.2.8 1.1 1.3 1.9 1.1l124.3-34.3c.8-.2 1.3-1.1 1.1-1.9-.2-.8-1-1.3-1.9-1.1z"/><path class="st13" d="M339.6 334.6l196.6-91.2c.8-.4 1.8 0 2.1.8l.5 1c.4.8 0 1.8-.8 2.1l-196.6 91.2c-.8.4-1.8 0-2.1-.8l-.5-1c-.4-.8 0-1.7.8-2.1z"/><path class="st14" d="M331.4 298.7l211.7-46.4c.9-.2 1.7.4 1.9 1.2l.2 1.1c.2.9-.4 1.7-1.2 1.9l-211.7 46.4c-.9.2-1.7-.4-1.9-1.2l-.2-1.1c-.2-.8.4-1.7 1.2-1.9z"/><path class="st14" d="M346.7 349.1l98.3-83.5c.7-.6.7-1.5.2-2.2-.6-.7-1.5-.7-2.2-.2l-98.3 83.5c-.7.6-.7 1.5-.2 2.2.6.6 1.5.7 2.2.2z"/><path class="st13" d="M318.7 257.6l200 83.7c.8.3 1.2 1.3.9 2.1l-.4 1c-.3.8-1.3 1.2-2.1.9l-200-83.7c-.8-.3-1.2-1.3-.9-2.1l.4-1c.4-.9 1.3-1.3 2.1-.9z"/><path class="st14" d="M339.7 227.4l177.1 125.1c.7.5.9 1.5.4 2.2l-.7.9c-.5.7-1.5.9-2.2.4L337.2 230.9c-.7-.5-.9-1.5-.4-2.2l.7-.9c.5-.8 1.5-.9 2.2-.4z"/><path class="st14" d="M312.8 272.6l127.9 16.3c.8.1 1.6-.5 1.7-1.3.1-.8-.5-1.6-1.3-1.7l-127.9-16.3c-.8-.1-1.6.5-1.7 1.3-.1.8.5 1.6 1.3 1.7z"/><path class="st13" d="M426.9 298.1l-216.6 8.2c-.9 0-1.6-.7-1.7-1.5v-1.1c0-.9.7-1.6 1.5-1.7l216.6-8.2c.9 0 1.6.7 1.7 1.5v1.1c.1 1-.6 1.7-1.5 1.7z"/><path class="st14" d="M420.5 334.4l-213.2-38.9c-.9-.2-1.4-1-1.3-1.9l.2-1.1c.2-.9 1-1.4 1.9-1.3l213.2 38.9c.9.2 1.4 1 1.3 1.9l-.2 1.1c-.2.8-1 1.4-1.9 1.3zm-169.4-92.3l-122.9 39c-.8.3-1.3 1.1-1 1.9.3.8 1.1 1.3 1.9 1L252 245c.8-.3 1.3-1.1 1-1.9-.3-.8-1.1-1.3-1.9-1z"/><path class="st13" d="M226.9 343.9l206.6-65.6c.8-.3 1.7.2 2 1l.3 1.1c.3.8-.2 1.7-1 2L228.2 348c-.8.3-1.7-.2-2-1l-.3-1.1c-.3-.8.2-1.7 1-2z"/><path class="st14" d="M75.8 311.9l215.9-19.2c.9-.1 1.7.6 1.7 1.5l.1 1.1c.1.9-.6 1.7-1.5 1.7L76.2 316.2c-.9.1-1.7-.6-1.7-1.5l-.1-1.1c-.2-.8.5-1.6 1.4-1.7zm-20.1-13.3l108.1-70.3c.7-.5.9-1.4.5-2.1-.5-.7-1.4-.9-2.1-.5L54 296c-.7.5-.9 1.4-.5 2.1.5.8 1.5 1 2.2.5z"/><path class="st13" d="M445.2 205.9L285.4 352.4c-.7.6-1.7.6-2.3-.1l-.8-.8c-.6-.7-.6-1.7.1-2.3l159.8-146.4c.7-.6 1.7-.6 2.3.1l.8.8c.6.6.5 1.6-.1 2.2z"/><path class="st14" d="M463.8 237.6L276 345.9c-.8.4-1.7.2-2.2-.6l-.6-1c-.4-.8-.2-1.7.6-2.2l187.8-108.3c.8-.4 1.7-.2 2.2.6l.6 1c.4.8.2 1.8-.6 2.2z"/><path class="st14" d="M434 194.3l-68.5 109.3c-.5.7-.2 1.7.5 2.1.7.5 1.7.2 2.1-.5l68.5-109.3c.5-.7.2-1.7-.5-2.1-.7-.5-1.6-.3-2.1.5z"/><path class="st13" d="M488.4 273l-215.9-19.3c-.9-.1-1.5-.9-1.5-1.7l.1-1.1c.1-.9.9-1.5 1.7-1.5l215.9 19.3c.9.1 1.5.9 1.5 1.7l-.1 1.1c-.1.9-.9 1.6-1.7 1.5z"/><path class="st14" d="M477.5 308.1l-206.6-65.6c-.8-.3-1.3-1.2-1-2l.3-1.1c.3-.8 1.2-1.3 2-1L478.8 304c.8.3 1.3 1.2 1 2l-.3 1.1c-.3.8-1.2 1.3-2 1z"/><path class="st14" d="M489.4 256.9L362.5 280c-.8.2-1.4 1-1.2 1.8.2.8 1 1.4 1.8 1.2L490 260c.8-.2 1.4-1 1.2-1.8-.1-.9-.9-1.4-1.8-1.3z"/><path class="st13" d="M233.7 316.1l204-73.4c.8-.3 1.8.1 2.1 1l.4 1.1c.3.8-.1 1.8-1 2.1l-204 73.4c-.8.3-1.8-.1-2.1-1l-.4-1.1c-.3-.9.2-1.8 1-2.1z"/><path class="st14" d="M228.8 279.6l215-27.4c.9-.1 1.7.5 1.8 1.4l.1 1.1c.1.9-.5 1.7-1.4 1.8l-215 27.4c-.9.1-1.7-.5-1.8-1.4l-.1-1.1c-.1-.9.5-1.7 1.4-1.8z"/><path class="st14" d="M206.5 345.9l105.4-74.4c.7-.5.9-1.5.4-2.2-.5-.7-1.5-.9-2.2-.4l-105.4 74.4c-.7.5-.9 1.5-.4 2.2.5.7 1.5.9 2.2.4z"/><path class="st15" d="M45.7 223.7l213.3 39c.9.2 1.4 1 1.3 1.9l-.2 1.1c-.2.9-1 1.4-1.9 1.3L44.9 228c-.9-.2-1.4-1-1.3-1.9l.2-1.1c.2-.8 1.1-1.4 1.9-1.3z"/><path class="st15" d="M59.8 189.8L259.5 274c.8.3 1.2 1.3.9 2.1l-.4 1c-.3.8-1.3 1.2-2.1.9L58.1 193.8c-.8-.3-1.2-1.3-.9-2.1l.4-1c.4-.9 1.4-1.3 2.2-.9zM70 280.5l128.5-11.4c.9-.1 1.5-.8 1.4-1.7-.1-.9-.8-1.5-1.7-1.4L69.8 277.4c-.9.1-1.5.8-1.4 1.7 0 .9.8 1.5 1.6 1.4zm436.8-8.7L297 326.2c-.9.2-1.7-.3-2-1.1l-.3-1.1c-.2-.9.3-1.7 1.1-2l209.8-54.4c.9-.2 1.7.3 2 1.1l.3 1.1c.2.9-.3 1.8-1.1 2z"/><path class="st15" d="M304.8 240.9l-216.6 7.6c-.9 0-1.6-.7-1.7-1.5v-1.1c0-.9.7-1.6 1.5-1.7l216.6-7.6c.9 0 1.6.7 1.7 1.5v1.1c.1.9-.6 1.7-1.5 1.7zm197.6 15.4l-111.7 64.4c-.7.4-1 1.4-.6 2.1.4.7 1.4 1 2.1.6L503.9 259c.7-.4 1-1.4.6-2.1-.4-.8-1.4-1-2.1-.6z"/><path class="st15" d="M513.4 351.3L331.7 233.1c-.7-.5-1-1.5-.5-2.2l.6-.9c.5-.7 1.5-1 2.2-.5l181.7 118.2c.7.5 1 1.5.5 2.2l-.6.9c-.4.8-1.4 1-2.2.5z"/><path class="st15" d="M487.3 377.3L335.6 222.4c-.6-.6-.6-1.6 0-2.3l.8-.8c.6-.6 1.6-.6 2.3 0l151.7 154.8c.6.6.6 1.6 0 2.3l-.8.8c-.6.7-1.6.7-2.3.1zM318.4 270l-122.9-39c-.8-.3-1.7.2-1.9 1-.3.8.2 1.7 1 1.9l122.9 39c.8.3 1.7-.2 1.9-1 .3-.8-.2-1.7-1-1.9zm-197.7 4.6l214.6 30.8c.9.1 1.5.9 1.4 1.8l-.2 1.1c-.1.9-.9 1.5-1.8 1.4l-214.6-30.8c-.9-.1-1.5-.9-1.4-1.8l.2-1.1c.1-1 .9-1.6 1.8-1.4z"/><path class="st15" d="M281.1 235.5l202.8 76.6c.8.3 1.2 1.2.9 2.1l-.4 1.1c-.3.8-1.2 1.2-2.1.9l-202.8-76.6c-.8-.3-1.2-1.2-.9-2.1l.4-1.1c.3-.8 1.2-1.2 2.1-.9z"/><path class="st15" d="M266.4 286l128-16.3c.8-.1 1.4-.9 1.3-1.7-.1-.8-.9-1.4-1.7-1.3L266 283c-.8.1-1.4.9-1.3 1.7 0 .8.8 1.4 1.7 1.3zm30.4-38.6l-215 27.4c-.9.1-1.7-.5-1.8-1.4l-.1-1.1c-.1-.9.5-1.7 1.4-1.8l215-27.4c.9-.1 1.7.5 1.8 1.4l.1 1.1c.1.9-.5 1.7-1.4 1.8zm171.8 76.7l-215.9-19.9c-.9-.1-1.5-.9-1.4-1.7l.1-1.1c.1-.9.9-1.5 1.7-1.4L469 319.7c.9.1 1.5.9 1.4 1.7l-.1 1.1c-.1 1-.8 1.6-1.7 1.6zm-55.2-124.9l-119 49.8c-.8.3-1.2 1.2-.8 2 .3.8 1.2 1.2 2 .8l119-49.8c.8-.3 1.2-1.2.8-2-.3-.7-1.2-1.1-2-.8z"/><path class="st15" d="M57.3 344l183.5-115.4c.7-.5 1.7-.2 2.2.5l.6 1c.5.7.2 1.7-.5 2.2L59.6 347.7c-.7.5-1.7.2-2.2-.5l-.6-1c-.5-.7-.2-1.7.5-2.2z"/><path class="st15" d="M44.7 309.5l204.2-72.8c.8-.3 1.8.1 2 1l.4 1.1c.3.8-.1 1.8-1 2L46.2 313.6c-.8.3-1.8-.1-2-1l-.4-1.1c-.4-.8.1-1.7.9-2zm140.4 15.7l87-95.2c.6-.6.5-1.6-.1-2.2-.6-.6-1.6-.5-2.2.1l-87 95.2c-.6.6-.5 1.6.1 2.2.7.6 1.7.6 2.2-.1z"/><path class="st15" d="M145.8 238l208.9 57.7c.9.2 1.4 1.1 1.1 2l-.3 1.1c-.2.9-1.1 1.4-2 1.1l-208.9-57.7c-.9-.2-1.4-1.1-1.1-2l.3-1.1c.3-.8 1.2-1.3 2-1.1zm220.6 35.1l191.5 101.7c.8.4 1.1 1.4.7 2.2l-.5 1c-.4.8-1.4 1.1-2.2.7L364.3 276.9c-.8-.4-1.1-1.4-.7-2.2l.5-1c.5-.8 1.5-1.1 2.3-.6z"/><path class="st15" d="M141.9 253.6h129c.9 0 1.5-.7 1.5-1.5 0-.9-.7-1.5-1.5-1.5h-129c-.9 0-1.5.7-1.5 1.5-.1.8.6 1.5 1.5 1.5zm262.2-12.2L190.3 277c-.9.1-1.7-.4-1.8-1.3l-.2-1.1c-.1-.9.4-1.7 1.3-1.8l213.8-35.6c.9-.1 1.7.4 1.8 1.3l.2 1.1c.1.8-.4 1.6-1.3 1.8z"/><path class="st15" d="M402.4 278.1l-216.5-11.6c-.9 0-1.6-.8-1.5-1.7l.1-1.1c0-.9.8-1.6 1.7-1.5l216.5 11.6c.9 0 1.6.8 1.5 1.7l-.1 1.1c-.1.9-.8 1.6-1.7 1.5z"/><path class="st15" d="M401.1 225.5l-117 54.3c-.8.4-1.1 1.3-.8 2.1.4.8 1.3 1.1 2.1.8l117-54.3c.8-.4 1.1-1.3.8-2.1-.4-.8-1.3-1.1-2.1-.8z"/><path class="st13" d="M196.1 415l206.5-65.9c.8-.3 1.7.2 2 1l.3 1.1c.3.8-.2 1.7-1 2l-206.5 65.9c-.8.3-1.7-.2-2-1l-.4-1.1c-.3-.9.2-1.8 1.1-2z"/><path class="st14" d="M192.5 378.4l215.9-19.6c.9-.1 1.7.6 1.7 1.5l.1 1.1c.1.9-.6 1.7-1.5 1.7l-215.9 19.6c-.9.1-1.7-.6-1.7-1.5l-.1-1.1c-.1-.9.6-1.7 1.5-1.7z"/><path class="st13" d="M414.1 276.6L254.5 423.3c-.7.6-1.7.6-2.3-.1l-.8-.8c-.6-.7-.6-1.7.1-2.3l159.6-146.7c.7-.6 1.7-.6 2.3.1l.8.8c.6.7.6 1.7-.1 2.3z"/><path class="st14" d="M432.8 308.3L245.2 416.9c-.8.4-1.7.2-2.2-.6l-.6-1c-.4-.8-.2-1.7.6-2.2l187.6-108.6c.8-.4 1.7-.2 2.2.6l.6 1c.4.8.1 1.7-.6 2.2z"/><path class="st14" d="M403 265l-68.3 109.4c-.5.7-.2 1.7.5 2.1.7.5 1.7.2 2.1-.5l68.3-109.4c.5-.7.2-1.7-.5-2.1-.7-.5-1.7-.3-2.1.5z"/><path class="st13" d="M457.4 343.6l-215.9-18.9c-.9-.1-1.5-.9-1.5-1.7l.1-1.1c.1-.9.9-1.5 1.7-1.5l215.9 18.9c.9.1 1.5.9 1.5 1.7l-.1 1.1c0 1-.8 1.6-1.7 1.5z"/><path class="st14" d="M446.6 378.8l-206.7-65.3c-.8-.3-1.3-1.2-1-2l.3-1.1c.3-.8 1.2-1.3 2-1l206.7 65.3c.8.3 1.3 1.2 1 2l-.3 1.1c-.3.8-1.2 1.2-2 1z"/><path class="st14" d="M458.4 327.5l-126.9 23.3c-.8.2-1.4 1-1.2 1.8.2.8 1 1.4 1.8 1.2L459 330.6c.8-.2 1.4-1 1.2-1.8-.1-.9-.9-1.4-1.8-1.3z"/><path class="st13" d="M202.8 387.1l203.9-73.7c.8-.3 1.8.1 2.1 1l.4 1.1c.3.8-.1 1.8-1 2.1l-203.9 73.7c-.8.3-1.8-.1-2.1-1l-.4-1.1c-.3-.9.2-1.8 1-2.1z"/><path class="st14" d="M197.8 350.6l215-27.8c.9-.1 1.7.5 1.8 1.4l.1 1.1c.1.9-.5 1.7-1.4 1.8l-215 27.8c-.9.1-1.7-.5-1.8-1.4l-.1-1.1c-.1-.8.6-1.6 1.4-1.8z"/><path class="st14" d="M208.6 402.1l105.3-74.6c.7-.5.9-1.5.4-2.2-.5-.7-1.5-.9-2.2-.4l-105.3 74.6c-.7.5-.9 1.5-.4 2.2.6.8 1.5.9 2.2.4z"/><path class="st13" d="M518.6 233.4L341.7 358.7c-.7.5-1.7.3-2.2-.4l-.7-.9c-.5-.7-.3-1.7.4-2.2l176.9-125.3c.7-.5 1.7-.3 2.2.4l.7.9c.5.7.3 1.7-.4 2.2z"/><path class="st14" d="M533.1 267.2l-199.8 84c-.8.3-1.8 0-2.1-.9l-.4-1c-.3-.8 0-1.8.9-2.1l199.8-84c.8-.3 1.8 0 2.1.9l.4 1c.3.8-.1 1.8-.9 2.1z"/><path class="st14" d="M509 220.5l-81.6 99.9c-.5.7-.4 1.6.2 2.2.7.5 1.6.4 2.2-.2l81.6-99.9c.5-.7.4-1.6-.2-2.2-.7-.6-1.6-.5-2.2.2z"/><path class="st13" d="M352.6 431.3l107.7-188.1c.4-.8 1.4-1 2.2-.6l1 .6c.8.4 1 1.4.6 2.2l-107.7 188c-.4.8-1.4 1-2.2.6l-1-.6c-.7-.4-1-1.3-.6-2.1z"/><path class="st14" d="M325.3 406.7l146-160.3c.6-.7 1.6-.7 2.3-.1l.8.8c.7.6.7 1.6.1 2.3l-146 160.3c-.6.7-1.6.7-2.3.1l-.8-.8c-.7-.6-.7-1.6-.1-2.3z"/><path class="st14" d="M366.8 439l32-125c.2-.8-.3-1.7-1.1-1.9-.8-.2-1.7.3-1.9 1.1l-32 125c-.2.8.3 1.7 1.1 1.9.8.2 1.7-.3 1.9-1.1z"/><path class="st13" d="M291.1 380.5l211.5-47.3c.9-.2 1.7.4 1.9 1.2l.2 1.1c.2.9-.4 1.7-1.2 1.9L292 384.7c-.9.2-1.7-.4-1.9-1.2l-.2-1.1c-.2-.9.3-1.7 1.2-1.9z"/><path class="st14" d="M290.8 343.7l216.8-.3c.9 0 1.6.7 1.6 1.6v1.1c0 .9-.7 1.6-1.6 1.6l-216.8.3c-.9 0-1.6-.7-1.6-1.6v-1.1c0-.9.7-1.6 1.6-1.6z"/><path class="st14" d="M295 396.1l113.9-60.6c.8-.4 1-1.3.6-2.1s-1.3-1-2.1-.6l-113.9 60.6c-.8.4-1 1.3-.6 2.1.4.7 1.3 1 2.1.6z"/><path class="st13" d="M520.6 262l-172 132c-.7.5-1.7.4-2.2-.3l-.7-.9c-.5-.7-.4-1.7.3-2.2l172-131.9c.7-.5 1.7-.4 2.2.3l.7.9c.5.6.4 1.6-.3 2.1z"/><path class="st14" d="M536.4 295.3l-196.5 91.5c-.8.4-1.8 0-2.1-.8l-.5-1c-.4-.8 0-1.8.8-2.1l196.5-91.5c.8-.4 1.8 0 2.1.8l.5 1c.3.7 0 1.7-.8 2.1z"/><path class="st14" d="M510.5 249.5l-77.8 102.9c-.5.7-.4 1.6.3 2.2.7.5 1.6.4 2.2-.3l77.8-103c.5-.7.4-1.6-.3-2.2-.7-.5-1.7-.3-2.2.4z"/><path class="st15" d="M513.3 290.3l-215 27.8c-.9.1-1.7-.5-1.8-1.4l-.1-1.1c-.1-.9.5-1.7 1.4-1.8l215-27.8c.9-.1 1.7.5 1.8 1.4l.1 1.1c.1.8-.5 1.6-1.4 1.8z"/><path class="st15" d="M510.3 326.9l-215.9-19.5c-.9-.1-1.5-.9-1.5-1.7l.1-1.1c.1-.9.9-1.5 1.7-1.5l215.9 19.5c.9.1 1.5.9 1.5 1.7l-.1 1.1c-.1.9-.9 1.6-1.7 1.5z"/><path class="st15" d="M510.9 274.3l-118.9 50c-.8.3-1.2 1.2-.8 2 .3.8 1.2 1.2 2 .8l118.9-50c.8-.3 1.2-1.2.8-2-.3-.8-1.2-1.1-2-.8zm-237 112.9l183.3-115.7c.7-.5 1.7-.2 2.2.5l.6 1c.5.7.2 1.7-.5 2.2L276.3 390.9c-.7.5-1.7.2-2.2-.5l-.6-1c-.5-.7-.3-1.7.4-2.2z"/><path class="st15" d="M261.3 352.7l204.1-73.2c.8-.3 1.8.1 2.1 1l.4 1.1c.3.8-.1 1.8-1 2.1l-204.1 73.2c-.8.3-1.8-.1-2.1-1l-.4-1.1c-.3-.9.1-1.8 1-2.1z"/><path class="st15" d="M282.8 400.7l86.8-95.4c.6-.6.5-1.6-.1-2.2-.6-.6-1.6-.5-2.2.1l-86.8 95.4c-.6.6-.5 1.6.1 2.2.7.5 1.7.5 2.2-.1z"/><path class="st15" d="M243.4 313.5l209 57.4c.9.2 1.4 1.1 1.1 2l-.3 1.1c-.2.9-1.1 1.4-2 1.1l-209-57.4c-.9-.2-1.4-1.1-1.1-2l.3-1.1c.3-.8 1.2-1.3 2-1.1z"/><path class="st15" d="M260.4 280.9L452 382.2c.8.4 1.1 1.4.7 2.2l-.5 1c-.4.8-1.4 1.1-2.2.7L258.3 284.7c-.8-.4-1.1-1.4-.7-2.2l.5-1c.5-.8 1.5-1.1 2.3-.6z"/><path class="st15" d="M239.5 329.1l129-.2c.9 0 1.5-.7 1.5-1.5 0-.9-.7-1.5-1.5-1.5l-129 .2c-.9 0-1.5.7-1.5 1.5-.1.8.6 1.5 1.5 1.5zm262.2-12.6l-213.8 35.9c-.9.1-1.7-.4-1.8-1.3l-.2-1.1c-.1-.9.4-1.7 1.3-1.8L501 312.3c.9-.1 1.7.4 1.8 1.3l.2 1.1c.1.8-.5 1.6-1.3 1.8z"/><path class="st15" d="M500 353.2l-216.5-11.3c-.9 0-1.6-.8-1.5-1.7l.1-1.1c0-.9.8-1.6 1.7-1.5l216.5 11.3c.9 0 1.6.8 1.5 1.7l-.1 1.1c-.1.9-.8 1.5-1.7 1.5z"/><path class="st15" d="M498.6 300.6L381.7 355c-.8.4-1.1 1.3-.7 2.1.4.8 1.3 1.1 2.1.7L500 303.4c.8-.4 1.1-1.3.7-2.1-.4-.7-1.3-1-2.1-.7zM163.4 410.9l196.5-91.5c.8-.4 1.8 0 2.1.8l.5 1c.4.8 0 1.8-.8 2.1l-196.5 91.5c-.8.4-1.8 0-2.1-.8l-.5-1c-.4-.7 0-1.7.8-2.1z"/><path class="st15" d="M155.2 375.1l211.7-46.7c.9-.2 1.7.4 1.9 1.2l.2 1.1c.2.9-.4 1.7-1.2 1.9l-211.7 46.7c-.9.2-1.7-.4-1.9-1.2l-.2-1.1c-.2-.9.3-1.7 1.2-1.9z"/><path class="st15" d="M362.2 246.1L222.4 411.8c-.6.7-1.6.8-2.3.2l-.9-.7c-.7-.6-.8-1.6-.2-2.3l139.8-165.7c.6-.7 1.6-.8 2.3-.2l.9.7c.7.6.8 1.6.2 2.3z"/><path class="st15" d="M384.7 275.2L212.4 406.6c-.7.5-1.7.4-2.2-.3l-.7-.9c-.5-.7-.4-1.7.3-2.2l172.4-131.5c.7-.5 1.7-.4 2.2.3l.7.9c.5.7.3 1.7-.4 2.3z"/><path class="st15" d="M349.7 236l-53.9 117.2c-.4.8 0 1.7.8 2 .8.4 1.7 0 2-.8l53.9-117.2c.4-.8 0-1.7-.8-2-.8-.4-1.7 0-2 .8z"/><path class="st15" d="M413.6 307.1L197 315.6c-.9 0-1.6-.7-1.7-1.5V313c0-.9.7-1.6 1.5-1.7l216.6-8.5c.9 0 1.6.7 1.7 1.5v1.1c.1.9-.6 1.7-1.5 1.7z"/><path class="st15" d="M407.3 343.3L194 304.7c-.9-.2-1.4-1-1.3-1.9l.2-1.1c.2-.9 1-1.4 1.9-1.3L408.1 339c.9.2 1.4 1 1.3 1.9l-.2 1.1c-.2.9-1 1.5-1.9 1.3z"/><path class="st15" d="M412.6 291l-122.9 39.2c-.8.3-1.3 1.1-1 1.9.3.8 1.1 1.3 1.9 1l123-39.1c.8-.3 1.3-1.1 1-1.9-.3-.9-1.2-1.3-2-1.1zm-246 91.4l192.9-98.9c.8-.4 1.8-.1 2.2.7l.5 1c.4.8.1 1.8-.7 2.2l-192.9 98.9c-.8.4-1.8.1-2.2-.7l-.5-1c-.4-.8-.1-1.8.7-2.2z"/><path class="st15" d="M157 346.9l209.7-54.7c.9-.2 1.7.3 2 1.1l.3 1.1c.2.9-.3 1.7-1.1 2l-209.7 54.7c-.9.2-1.7-.3-2-1.1l-.3-1.1c-.2-.9.3-1.8 1.1-2z"/><path class="st13" d="M129.1 377.7l196.6-91.2c.8-.4 1.8 0 2.1.8l.5 1c.4.8 0 1.8-.8 2.1L131 381.6c-.8.4-1.8 0-2.1-.8l-.5-1c-.4-.8-.1-1.7.7-2.1z"/><path class="st14" d="M121 341.8l211.7-46.4c.9-.2 1.7.4 1.9 1.2l.2 1.1c.2.9-.4 1.7-1.2 1.9L121.9 346c-.9.2-1.7-.4-1.9-1.2l-.2-1.1c-.2-.8.3-1.7 1.2-1.9z"/><path class="st14" d="M136.2 392.2l98.3-83.5c.7-.6.7-1.5.2-2.2-.6-.7-1.5-.7-2.2-.2l-98.3 83.5c-.7.6-.7 1.5-.2 2.2.6.6 1.6.7 2.2.2z"/><path class="st13" d="M108.3 300.7l200 83.7c.8.3 1.2 1.3.9 2.1l-.4 1c-.3.8-1.3 1.2-2.1.9l-200-83.7c-.8-.3-1.2-1.3-.9-2.1l.4-1c.3-.9 1.3-1.3 2.1-.9z"/><path class="st14" d="M129.3 270.5l177.1 125.1c.7.5.9 1.5.4 2.2l-.7.9c-.5.7-1.5.9-2.2.4L126.8 274c-.7-.5-.9-1.5-.4-2.2l.7-.9c.5-.8 1.5-.9 2.2-.4z"/><path class="st14" d="M102.4 315.7L230.3 332c.8.1 1.6-.5 1.7-1.3.1-.8-.5-1.6-1.3-1.7l-127.9-16.3c-.8-.1-1.6.5-1.7 1.3-.1.8.5 1.6 1.3 1.7z"/><path class="st13" d="M364 336.7l-216.6 8.2c-.9 0-1.6-.7-1.7-1.5v-1.1c0-.9.7-1.6 1.5-1.7l216.6-8.2c.9 0 1.6.7 1.7 1.5v1.1c.1.9-.6 1.6-1.5 1.7z"/><path class="st14" d="M357.7 372.9L144.4 334c-.9-.2-1.4-1-1.3-1.9l.2-1.1c.2-.9 1-1.4 1.9-1.3l213.2 38.9c.9.2 1.4 1 1.3 1.9l-.2 1.1c-.1.9-.9 1.5-1.8 1.3z"/><path d="M328.8 323.1c14.4 24.3 22 37.1 26.3 44.3 0 0 5.6 9.5 14.2 23.4 4.3 7 .8 1.2 3 4.8 7.9 12.7 9.2 16.6 13.2 17.4 1.8.4 4.2.1 5.7-1.3 2.1-2.1 1.9-6.6 1.8-9.8-.1-2.4-.3-3.6.4-4.2.9-.7 2.7.4 3.9 1.8 1.7 1.9 2.3 4.1 2.6 5.5.8 4.2-.4 7.6-1 9-.8 1.9-1.8 4.4-4.5 5.9-3.6 2.1-7.4 1.1-7.9 1-3.3-.9-5.2-3.4-7.9-7-1.7-2.2-1.6-2.6-4.4-7.4-2.3-3.9-2.6-4.1-7.2-11.5-1.8-3-2.9-4.8-4.1-6.6-4.4-6.7-8.5-13.6-12.8-20.4-4.3-6.7-11.7-18.4-25.3-40.4 1.3-1.5 2.6-3 4-4.5zm-36.6 16.8c-3.3-9.8 1.3-20.6 10.5-25 9.4-4.5 20.9-1.1 26.4 7.9-6.2 2.9-12.3 5.7-18.5 8.6-6.1 2.8-12.3 5.7-18.4 8.5z" fill="#d3d6d7" stroke="#706f6f" stroke-miterlimit="10"/><ellipse transform="rotate(-24.892 310.576 331.35)" cx="310.6" cy="331.4" rx="20.4" ry="4.9" fill="#e6e6e6" stroke="#706f6f" stroke-miterlimit="10"/><path class="st13" d="M16.5 387l206.6-65.6c.8-.3 1.7.2 2 1l.3 1.1c.3.8-.2 1.7-1 2L17.8 391.2c-.8.3-1.7-.2-2-1l-.3-1.1c-.4-.9.1-1.8 1-2.1z"/><path class="st14" d="M12.9 350.4l215.9-19.2c.9-.1 1.7.6 1.7 1.5l.1 1.1c.1.9-.6 1.7-1.5 1.7L13.3 354.7c-.9.1-1.7-.6-1.7-1.5l-.1-1.1c-.1-.8.5-1.6 1.4-1.7z"/><path class="st14" d="M21.7 402.3L129.8 332c.7-.5.9-1.4.5-2.1-.5-.7-1.4-.9-2.1-.5L20 399.7c-.7.5-.9 1.4-.5 2.1.5.8 1.5 1 2.2.5z"/><path class="st13" d="M234.7 249L74.9 395.5c-.7.6-1.7.6-2.3-.1l-.8-.8c-.6-.7-.6-1.7.1-2.3l159.8-146.4c.7-.6 1.7-.6 2.3.1l.8.8c.6.6.6 1.6-.1 2.2z"/><path class="st14" d="M253.3 280.7L65.6 389c-.8.4-1.7.2-2.2-.6l-.6-1c-.4-.8-.2-1.7.6-2.2L251.2 277c.8-.4 1.7-.2 2.2.6l.6 1c.4.7.1 1.7-.7 2.1z"/><path class="st14" d="M223.6 237.4l-68.5 109.3c-.5.7-.2 1.7.5 2.1.7.5 1.7.2 2.1-.5L226.2 239c.5-.7.2-1.7-.5-2.1-.7-.5-1.7-.3-2.1.5z"/><path class="st13" d="M277.9 316.1L62 296.9c-.9-.1-1.5-.9-1.5-1.7l.1-1.1c.1-.9.9-1.5 1.7-1.5l215.9 19.3c.9.1 1.5.9 1.5 1.7l-.1 1.1c0 .8-.8 1.5-1.7 1.4z"/><path class="st14" d="M267 351.3L60.4 285.6c-.8-.3-1.3-1.2-1-2l.3-1.1c.3-.8 1.2-1.3 2-1l206.6 65.6c.8.3 1.3 1.2 1 2l-.3 1.1c-.2.9-1.1 1.3-2 1.1z"/><path class="st14" d="M279 300l-126.9 23.1c-.8.2-1.4 1-1.2 1.8.2.8 1 1.4 1.8 1.2L279.6 303c.8-.2 1.4-1 1.2-1.8-.2-.8-1-1.3-1.8-1.2z"/><path class="st13" d="M23.3 359.2l204-73.4c.8-.3 1.8.1 2.1 1l.4 1.1c.3.8-.1 1.8-1 2.1l-204 73.4c-.8.3-1.8-.1-2.1-1l-.4-1.1c-.3-.9.1-1.8 1-2.1z"/><path class="st14" d="M18.3 322.7l215-27.4c.9-.1 1.7.5 1.8 1.4l.1 1.1c.1.9-.5 1.7-1.4 1.8L18.9 327c-.9.1-1.7-.5-1.8-1.4l-.1-1.1c-.2-.9.5-1.7 1.3-1.8z"/><path class="st14" d="M29 374.2l105.4-74.4c.7-.5.9-1.5.4-2.2-.5-.7-1.5-.9-2.2-.4L27.3 371.7c-.7.5-.9 1.5-.4 2.2.5.7 1.5.8 2.1.3z"/><path class="st15" d="M38.8 334.5L252 373.4c.9.2 1.4 1 1.3 1.9l-.2 1.1c-.2.9-1 1.4-1.9 1.3L38 338.8c-.9-.2-1.4-1-1.3-1.9l.2-1.1c.2-.9 1-1.4 1.9-1.3z"/><path class="st15" d="M52.8 300.5l199.7 84.2c.8.3 1.2 1.3.9 2.1l-.4 1c-.3.8-1.3 1.2-2.1.9L51.2 304.5c-.8-.3-1.2-1.3-.9-2.1l.4-1c.4-.8 1.3-1.2 2.1-.9z"/><path class="st15" d="M36.2 350.4L164.7 339c.9-.1 1.5-.8 1.4-1.7-.1-.9-.8-1.5-1.7-1.4L36 347.4c-.9.1-1.5.8-1.4 1.7 0 .8.8 1.4 1.6 1.3zm260.1-35.5L86.5 369.3c-.9.2-1.7-.3-2-1.1l-.3-1.1c-.2-.9.3-1.7 1.1-2l209.8-54.4c.9-.2 1.7.3 2 1.1l.3 1.1c.3.9-.2 1.8-1.1 2z"/><path class="st15" d="M297.9 351.7l-216.6 7.6c-.9 0-1.6-.7-1.7-1.5v-1.1c0-.9.7-1.6 1.5-1.7l216.6-7.6c.9 0 1.6.7 1.7 1.5v1.1c.1.9-.6 1.6-1.5 1.7z"/><path class="st15" d="M303 394.4L121.3 276.2c-.7-.5-1-1.5-.5-2.2l.6-.9c.5-.7 1.5-1 2.2-.5l181.7 118.2c.7.5 1 1.5.5 2.2l-.6.9c-.5.8-1.5 1-2.2.5z"/><path class="st15" d="M276.9 420.4L125.2 265.5c-.6-.6-.6-1.6 0-2.3l.8-.8c.6-.6 1.6-.6 2.3 0L280 417.3c.6.6.6 1.6 0 2.3l-.8.8c-.7.6-1.7.6-2.3 0z"/><path class="st15" d="M57.9 313.1l214.6 30.8c.9.1 1.5.9 1.4 1.8l-.2 1.1c-.1.9-.9 1.5-1.8 1.4L57.2 317.4c-.9-.1-1.5-.9-1.4-1.8l.2-1.1c.2-.9 1-1.5 1.9-1.4z"/><path class="st15" d="M70.6 278.6l202.8 76.6c.8.3 1.2 1.2.9 2.1l-.4 1.1c-.3.8-1.2 1.2-2.1.9L69.1 282.6c-.8-.3-1.2-1.2-.9-2.1l.4-1.1c.3-.7 1.2-1.1 2-.8z"/><path class="st15" d="M55.9 329.1l128-16.3c.8-.1 1.4-.9 1.3-1.7-.1-.8-.9-1.4-1.7-1.3L55.5 326c-.8.1-1.4.9-1.3 1.7.1.9.9 1.5 1.7 1.4zm83 19.7l208.9 57.7c.9.2 1.4 1.1 1.1 2l-.3 1.1c-.2.9-1.1 1.4-2 1.1L137.7 353c-.9-.2-1.4-1.1-1.1-2l.3-1.1c.3-.9 1.1-1.4 2-1.1z"/><path class="st15" d="M155.9 316.2l191.5 101.7c.8.4 1.1 1.4.7 2.2l-.5 1c-.4.8-1.4 1.1-2.2.7L153.9 320c-.8-.4-1.1-1.4-.7-2.2l.5-1c.5-.8 1.4-1.1 2.2-.6z"/><path class="st15" d="M135 364.4h129c.9 0 1.5-.7 1.5-1.5 0-.9-.7-1.5-1.5-1.5H135c-.9 0-1.5.7-1.5 1.5-.1.8.6 1.5 1.5 1.5z"/><path class="st13" d="M6.1 312.2l216.2 15.1c.9.1 1.5.8 1.5 1.7l-.1 1.1c-.1.9-.8 1.5-1.7 1.5L5.8 316.5c-.9-.1-1.5-.8-1.5-1.7l.1-1.1c.1-.9.8-1.6 1.7-1.5z"/><path class="st14" d="M16.3 276.9l207.8 61.6c.8.3 1.3 1.1 1.1 2l-.3 1.1c-.3.8-1.1 1.3-2 1.1L15.1 281c-.8-.3-1.3-1.1-1.1-2l.3-1.1c.3-.8 1.2-1.3 2-1z"/><path class="st14" d="M5.3 328.3l126.4-25.6c.8-.2 1.4-1 1.2-1.8-.2-.8-1-1.4-1.8-1.2L4.7 325.3c-.8.2-1.4 1-1.2 1.8.2.8 1 1.4 1.8 1.2z"/><path class="st13" d="M259.9 264.2L57.4 341.6c-.8.3-1.8-.1-2.1-.9l-.4-1.1c-.3-.8.1-1.8.9-2.1l202.5-77.3c.8-.3 1.8.1 2.1.9l.4 1.1c.3.8-.1 1.7-.9 2z"/><path class="st14" d="M265.5 300.6L51 332.2c-.9.1-1.7-.5-1.8-1.4l-.2-1.1c-.1-.9.5-1.7 1.4-1.8l214.5-31.6c.9-.1 1.7.5 1.8 1.4l.2 1.1c.1.8-.5 1.6-1.4 1.8z"/><path class="st14" d="M253.8 249.3l-103.9 76.4c-.7.5-.8 1.5-.3 2.2.5.7 1.5.8 2.2.3l103.9-76.4c.7-.5.8-1.5.3-2.2-.6-.7-1.5-.8-2.2-.3z"/><path class="st13" d="M275.3 342.5L81.6 245.1c-.8-.4-1.1-1.4-.7-2.2l.5-1c.4-.8 1.4-1.1 2.2-.7l193.7 97.4c.8.4 1.1 1.4.7 2.2l-.5 1c-.4.8-1.4 1.1-2.2.7z"/><path class="st14" d="M252.3 371.2l-168-137.1c-.7-.6-.8-1.6-.2-2.3l.7-.9c.6-.7 1.6-.8 2.3-.2L255 367.8c.7.6.8 1.6.2 2.3l-.7.9c-.5.6-1.6.7-2.2.2z"/><path class="st14" d="M282.2 327.9l-126.5-25.2c-.8-.2-1.7.4-1.8 1.2-.2.8.4 1.7 1.2 1.8L281.6 331c.8.2 1.7-.4 1.8-1.2.2-.9-.3-1.7-1.2-1.9zM31.5 253.1l210 53.7c.9.2 1.4 1.1 1.2 2l-.3 1.1c-.2.9-1.1 1.4-2 1.2l-210-53.7c-.9-.2-1.4-1.1-1.2-2l.3-1.1c.3-.9 1.2-1.4 2-1.2z"/><path class="st13" d="M372.9 262.7l-210.7 51.1c-.9.2-1.7-.3-1.9-1.2l-.3-1.1c-.2-.9.3-1.7 1.2-1.9l210.7-51.1c.9-.2 1.7.3 1.9 1.2l.3 1.1c.2.8-.3 1.7-1.2 1.9z"/><path class="st14" d="M373.9 299.5l-216.7 4.2c-.9 0-1.6-.7-1.6-1.6V301c0-.9.7-1.6 1.6-1.6l216.7-4.2c.9 0 1.6.7 1.6 1.6v1.1c0 .8-.7 1.6-1.6 1.6z"/><path class="st14" d="M368.8 247.1L256 309.8c-.7.4-1 1.4-.6 2.1.4.7 1.4 1 2.1.6l112.8-62.6c.7-.4 1-1.4.6-2.1-.4-.8-1.4-1.1-2.1-.7z"/><path class="st13" d="M145.6 385.2l169.6-135c.7-.6 1.7-.4 2.3.3l.7.9c.6.7.4 1.7-.3 2.3l-169.6 135c-.7.6-1.7.4-2.3-.3l-.7-.9c-.5-.7-.4-1.7.3-2.3z"/><path class="st14" d="M129.2 352.3l194.8-95c.8-.4 1.8-.1 2.1.7l.5 1c.4.8.1 1.8-.7 2.1l-194.8 95c-.8.4-1.8.1-2.1-.7l-.5-1c-.4-.8-.1-1.7.7-2.1z"/><path class="st14" d="M155.9 397.6l75.9-104.3c.5-.7.4-1.7-.3-2.2-.7-.5-1.7-.4-2.2.3l-75.9 104.3c-.5.7-.4 1.7.3 2.2.7.6 1.7.4 2.2-.3z"/><path class="st13" d="M107.2 315.3l214.1 34.2c.9.1 1.5 1 1.3 1.8l-.2 1.1c-.1.9-1 1.5-1.8 1.3l-214.1-34.2c-.9-.1-1.5-1-1.3-1.8l.2-1.1c.1-.8.9-1.4 1.8-1.3z"/><path class="st14" d="M120.5 281L322 360.8c.8.3 1.2 1.3.9 2.1l-.4 1.1c-.3.8-1.3 1.2-2.1.9L118.9 285c-.8-.3-1.2-1.3-.9-2.1l.4-1.1c.3-.7 1.3-1.1 2.1-.8z"/><path class="st14" d="M105 331.3L233.2 317c.8-.1 1.5-.9 1.4-1.7-.1-.8-.9-1.5-1.7-1.4l-128.2 14.3c-.8.1-1.5.9-1.4 1.7.1.8.8 1.5 1.7 1.4z"/><path class="st13" d="M364.2 290l-208.6 59c-.9.2-1.7-.3-2-1.1l-.3-1.1c-.2-.9.3-1.7 1.1-2l208.6-59c.9-.2 1.7.3 2 1.1l.3 1.1c.3.9-.2 1.8-1.1 2z"/><path class="st14" d="M366.6 326.7l-216.4 12.4c-.9.1-1.6-.6-1.7-1.5l-.1-1.1c-.1-.9.6-1.6 1.5-1.7l216.4-12.4c.9-.1 1.6.6 1.7 1.5l.1 1.1c0 .9-.6 1.7-1.5 1.7z"/><path class="st14" d="M359.5 274.6l-110.3 66.9c-.7.4-1 1.4-.5 2.1.4.7 1.4 1 2.1.5l110.3-66.9c.7-.4 1-1.4.5-2.1-.4-.7-1.4-.9-2.1-.5z"/><path class="st15" d="M347 313.6l-210-53.7c-.9-.2-1.4-1.1-1.2-2l.3-1.1c.2-.9 1.1-1.4 2-1.2l210 53.7c.9.2 1.4 1.1 1.2 2l-.3 1.1c-.3.9-1.1 1.4-2 1.2z"/><path class="st15" d="M330.6 346.5l-193.4-97.9c-.8-.4-1.1-1.4-.7-2.2l.5-1c.4-.8 1.4-1.1 2.2-.7l193.4 97.9c.8.4 1.1 1.4.7 2.2l-.5 1c-.4.8-1.4 1.1-2.2.7z"/><path class="st15" d="M350.6 297.9l-129 2.5c-.9 0-1.5.7-1.5 1.6 0 .9.7 1.5 1.6 1.5l129-2.5c.9 0 1.5-.7 1.5-1.6 0-.9-.7-1.6-1.6-1.5zM88.7 315.2l213.1-39.7c.9-.2 1.7.4 1.9 1.3l.2 1.1c.2.9-.4 1.7-1.3 1.9L89.5 319.5c-.9.2-1.7-.4-1.9-1.3l-.2-1.1c-.1-.9.5-1.7 1.3-1.9z"/><path class="st15" d="M92 331l116-56.5c.8-.4 1.1-1.3.7-2.1-.4-.8-1.3-1.1-2.1-.7L90.7 328.2c-.8.4-1.1 1.3-.7 2.1.3.8 1.3 1.1 2 .7z"/><path class="st15" d="M87.6 235.4l173 130.6c.7.5.8 1.5.3 2.2l-.7.9c-.5.7-1.5.8-2.2.3L85 238.9c-.7-.5-.8-1.5-.3-2.2l.7-.9c.5-.8 1.5-.9 2.2-.4z"/><path class="st15" d="M115.4 211.4l140.6 165c.6.7.5 1.7-.2 2.3l-.9.7c-.7.6-1.7.5-2.3-.2L112 214.2c-.6-.7-.5-1.7.2-2.3l.9-.7c.7-.6 1.8-.5 2.3.2z"/><path class="st15" d="M326.5 333.6L114.6 288c-.9-.2-1.4-1-1.2-1.9l.2-1.1c.2-.9 1-1.4 1.9-1.2l211.9 45.6c.9.2 1.4 1 1.2 1.9l-.2 1.1c-.2.9-1.1 1.4-1.9 1.2z"/><path class="st15" d="M311.4 367.1l-197-90.5c-.8-.4-1.2-1.3-.8-2.1l.5-1c.4-.8 1.3-1.2 2.1-.8l197 90.5c.8.4 1.2 1.3.8 2.1l-.5 1c-.4.9-1.3 1.2-2.1.8z"/><path class="st15" d="M329.5 317.8l-128.8 7.4c-.9 0-1.5.8-1.5 1.6 0 .9.8 1.5 1.6 1.5l128.8-7.4c.9 0 1.5-.8 1.5-1.6 0-.9-.7-1.6-1.6-1.5z"/><path class="st15" d="M228.9 323.7L45 209c-.8-.5-1-1.5-.5-2.2l.6-1c.5-.8 1.5-1 2.2-.5L231.2 320c.8.5 1 1.5.5 2.2l-.6 1c-.5.8-1.5 1-2.2.5z"/><path class="st14" d="M252.4 316.8l116.9-54.4c.8-.4 1.1-1.3.7-2.1-.4-.8-1.3-1.1-2.1-.7L251.1 314c-.8.4-1.1 1.3-.7 2.1.4.7 1.3 1.1 2 .7z"/><path class="st15" d="M206.4 317.3l209.7-54.7c.9-.2 1.7.3 2 1.1l.3 1.1c.2.9-.3 1.7-1.1 2l-209.7 54.7c-.9.2-1.7-.3-2-1.1l-.3-1.1c-.3-.9.2-1.7 1.1-2z"/><path class="st15" d="M431.5 190.9L264.3 328.8c-.7.6-1.7.5-2.3-.2l-.7-.9c-.6-.7-.5-1.7.2-2.3l167.2-137.9c.7-.6 1.7-.5 2.3.2l.7.9c.6.7.5 1.7-.2 2.3z"/><path class="st15" d="M448.5 223.5l-193.2 98.4c-.8.4-1.8.1-2.2-.7l-.5-1c-.4-.8-.1-1.8.7-2.2l193.2-98.4c.8-.4 1.8-.1 2.2.7l.5 1c.4.9.1 1.8-.7 2.2z"/></g></svg>