<svg id="ew7rPQFdZHC1" xmlns="http://www.w3.org/2000/svg" xmlns:xlink="http://www.w3.org/1999/xlink" viewBox="0 0 1366 768" shape-rendering="geometricPrecision" text-rendering="geometricPrecision" style="background-color:transparent">
<style><![CDATA[
#ew7rPQFdZHC2_to {animation: ew7rPQFdZHC2_to__to 5000ms linear infinite normal forwards}@keyframes ew7rPQFdZHC2_to__to { 0% {transform: translate(701.243652px,220.225052px)} 73.333333% {transform: translate(701.243652px,220.225052px)} 100% {transform: translate(701.243652px,-151.774948px)}} #ew7rPQFdZHC2 {animation: ew7rPQFdZHC2_c_o 5000ms linear infinite normal forwards}@keyframes ew7rPQFdZHC2_c_o { 0% {opacity: 0} 60% {opacity: 0} 73.333333% {opacity: 1} 100% {opacity: 1}} #ew7rPQFdZHC166_to {animation: ew7rPQFdZHC166_to__to 5000ms linear infinite normal forwards}@keyframes ew7rPQFdZHC166_to__to { 0% {transform: translate(681.256274px,693.527405px)} 73.333333% {transform: translate(681.256274px,693.527405px)} 100% {transform: translate(681.256274px,321.527405px)}} #ew7rPQFdZHC167_to {animation: ew7rPQFdZHC167_to__to 5000ms linear infinite normal forwards}@keyframes ew7rPQFdZHC167_to__to { 0% {transform: translate(776.849976px,679.827789px)} 10% {transform: translate(776.849976px,679.827789px)} 66.666667% {transform: translate(557.698121px,238.075958px)} 100% {transform: translate(557.698121px,238.075958px)}} #ew7rPQFdZHC167 {animation: ew7rPQFdZHC167_c_o 5000ms linear infinite normal forwards}@keyframes ew7rPQFdZHC167_c_o { 0% {opacity: 0} 6.666667% {opacity: 0} 16.666667% {opacity: 0.99} 100% {opacity: 0.99}} #ew7rPQFdZHC168_to {animation: ew7rPQFdZHC168_to__to 5000ms linear infinite normal forwards}@keyframes ew7rPQFdZHC168_to__to { 0% {transform: translate(348.950012px,697.937897px)} 3.333333% {transform: translate(348.950012px,697.937897px)} 66.666667% {transform: translate(787.097931px,234.310334px)} 100% {transform: translate(787.097931px,234.310334px)}} #ew7rPQFdZHC168 {animation: ew7rPQFdZHC168_c_o 5000ms linear infinite normal forwards}@keyframes ew7rPQFdZHC168_c_o { 0% {opacity: 0} 6.666667% {opacity: 1} 100% {opacity: 1}} #ew7rPQFdZHC169_to {animation: ew7rPQFdZHC169_to__to 5000ms linear infinite normal forwards}@keyframes ew7rPQFdZHC169_to__to { 0% {transform: translate(817.600006px,703.47229px)} 6.666667% {transform: translate(817.600006px,703.47229px)} 56.666667% {transform: translate(817.600006px,245.927307px)} 100% {transform: translate(817.600006px,245.927307px)}} #ew7rPQFdZHC169 {animation: ew7rPQFdZHC169_c_o 5000ms linear infinite normal forwards}@keyframes ew7rPQFdZHC169_c_o { 0% {opacity: 0} 3.333333% {opacity: 0} 13.333333% {opacity: 1} 100% {opacity: 1}} #ew7rPQFdZHC170_to {animation: ew7rPQFdZHC170_to__to 5000ms linear infinite normal forwards}@keyframes ew7rPQFdZHC170_to__to { 0% {transform: translate(127.554769px,698.5px)} 3.333333% {transform: translate(127.554769px,698.5px)} 66.666667% {transform: translate(614.054769px,206.2px)} 100% {transform: translate(614.054769px,206.2px)}} #ew7rPQFdZHC170 {animation: ew7rPQFdZHC170_c_o 5000ms linear infinite normal forwards}@keyframes ew7rPQFdZHC170_c_o { 0% {opacity: 0} 6.666667% {opacity: 1} 100% {opacity: 1}} #ew7rPQFdZHC171_to {animation: ew7rPQFdZHC171_to__to 5000ms linear infinite normal forwards}@keyframes ew7rPQFdZHC171_to__to { 0% {transform: translate(1223.876343px,673.150024px)} 13.333333% {transform: translate(1223.876343px,673.150024px)} 66.666667% {transform: translate(565.364258px,221.837951px)} 100% {transform: translate(565.364258px,221.837951px)}} #ew7rPQFdZHC171 {animation: ew7rPQFdZHC171_c_o 5000ms linear infinite normal forwards}@keyframes ew7rPQFdZHC171_c_o { 0% {opacity: 0} 10% {opacity: 0} 16.666667% {opacity: 1} 100% {opacity: 1}} #ew7rPQFdZHC172_to {animation: ew7rPQFdZHC172_to__to 5000ms linear infinite normal forwards}@keyframes ew7rPQFdZHC172_to__to { 0% {transform: translate(551.550034px,730.799988px)} 3.333333% {transform: translate(551.550034px,730.799988px)} 63.333333% {transform: translate(763.349595px,227.399475px)} 100% {transform: translate(763.349595px,227.399475px)}} #ew7rPQFdZHC172 {animation: ew7rPQFdZHC172_c_o 5000ms linear infinite normal forwards}@keyframes ew7rPQFdZHC172_c_o { 0% {opacity: 0} 6.666667% {opacity: 1} 100% {opacity: 1}} #ew7rPQFdZHC173_to {animation: ew7rPQFdZHC173_to__to 5000ms linear infinite normal forwards}@keyframes ew7rPQFdZHC173_to__to { 0% {transform: translate(639.850037px,712.78244px)} 6.666667% {transform: translate(639.850037px,712.78244px)} 66.666667% {transform: translate(639.850037px,251.020599px)} 100% {transform: translate(639.850037px,251.020599px)}} #ew7rPQFdZHC173 {animation: ew7rPQFdZHC173_c_o 5000ms linear infinite normal forwards}@keyframes ew7rPQFdZHC173_c_o { 0% {opacity: 0} 3.333333% {opacity: 0} 13.333333% {opacity: 1} 100% {opacity: 1}} #ew7rPQFdZHC174_to {animation: ew7rPQFdZHC174_to__to 5000ms linear infinite normal forwards}@keyframes ew7rPQFdZHC174_to__to { 0% {transform: translate(309.899994px,712.400024px)} 3.333333% {transform: translate(309.899994px,712.400024px)} 60% {transform: translate(668.499994px,201.600024px)} 100% {transform: translate(668.499994px,201.600024px)}} #ew7rPQFdZHC174 {animation: ew7rPQFdZHC174_c_o 5000ms linear infinite normal forwards}@keyframes ew7rPQFdZHC174_c_o { 0% {opacity: 0} 6.666667% {opacity: 1} 100% {opacity: 1}} #ew7rPQFdZHC175_to {animation: ew7rPQFdZHC175_to__to 5000ms linear infinite normal forwards}@keyframes ew7rPQFdZHC175_to__to { 0% {transform: translate(349.099983px,740.095276px)} 13.333333% {transform: translate(349.099983px,740.095276px)} 66.666667% {transform: translate(559.009437px,208.30481px)} 100% {transform: translate(559.009437px,208.30481px)}} #ew7rPQFdZHC175 {animation: ew7rPQFdZHC175_c_o 5000ms linear infinite normal forwards}@keyframes ew7rPQFdZHC175_c_o { 0% {opacity: 0} 10% {opacity: 0} 16.666667% {opacity: 1} 100% {opacity: 1}} #ew7rPQFdZHC176_to {animation: ew7rPQFdZHC176_to__to 5000ms linear infinite normal forwards}@keyframes ew7rPQFdZHC176_to__to { 0% {transform: translate(901.699951px,720.500031px)} 6.666667% {transform: translate(901.699951px,720.500031px)} 53.333333% {transform: translate(716.699951px,231.409516px)} 100% {transform: translate(716.699951px,231.409516px)}} #ew7rPQFdZHC176 {animation: ew7rPQFdZHC176_c_o 5000ms linear infinite normal forwards}@keyframes ew7rPQFdZHC176_c_o { 0% {opacity: 0} 3.333333% {opacity: 0} 10% {opacity: 1} 100% {opacity: 1}} #ew7rPQFdZHC177_to {animation: ew7rPQFdZHC177_to__to 5000ms linear infinite normal forwards}@keyframes ew7rPQFdZHC177_to__to { 0% {transform: translate(1307.400024px,700.959259px)} 6.666667% {transform: translate(1307.400024px,700.959259px)} 53.333333% {transform: translate(820.912353px,254.952911px)} 100% {transform: translate(820.912353px,254.952911px)}} #ew7rPQFdZHC177 {animation: ew7rPQFdZHC177_c_o 5000ms linear infinite normal forwards}@keyframes ew7rPQFdZHC177_c_o { 0% {opacity: 0} 3.333333% {opacity: 0} 13.333333% {opacity: 1} 100% {opacity: 1}} #ew7rPQFdZHC178_to {animation: ew7rPQFdZHC178_to__to 5000ms linear infinite normal forwards}@keyframes ew7rPQFdZHC178_to__to { 0% {transform: translate(1047.473755px,719.999969px)} 3.333333% {transform: translate(1047.473755px,719.999969px)} 66.666667% {transform: translate(857.473755px,215.198333px)} 100% {transform: translate(857.473755px,215.198333px)}} #ew7rPQFdZHC178 {animation: ew7rPQFdZHC178_c_o 5000ms linear infinite normal forwards}@keyframes ew7rPQFdZHC178_c_o { 0% {opacity: 0} 10% {opacity: 1} 100% {opacity: 1}} #ew7rPQFdZHC179_to {animation: ew7rPQFdZHC179_to__to 5000ms linear infinite normal forwards}@keyframes ew7rPQFdZHC179_to__to { 0% {transform: translate(1215.19989px,730.399994px)} 10% {transform: translate(1215.19989px,730.399994px)} 56.666667% {transform: translate(562.256775px,229.856964px)} 100% {transform: translate(562.256775px,229.856964px)}} #ew7rPQFdZHC179 {animation: ew7rPQFdZHC179_c_o 5000ms linear infinite normal forwards}@keyframes ew7rPQFdZHC179_c_o { 0% {opacity: 0} 6.666667% {opacity: 0} 16.666667% {opacity: 1} 100% {opacity: 1}} #ew7rPQFdZHC180_to {animation: ew7rPQFdZHC180_to__to 5000ms linear infinite normal forwards}@keyframes ew7rPQFdZHC180_to__to { 0% {transform: translate(1030.550018px,661.362152px)} 6.666667% {transform: translate(1030.550018px,661.362152px)} 66.666667% {transform: translate(600.698211px,238.110321px)} 100% {transform: translate(600.698211px,238.110321px)}} #ew7rPQFdZHC180 {animation: ew7rPQFdZHC180_c_o 5000ms linear infinite normal forwards}@keyframes ew7rPQFdZHC180_c_o { 0% {opacity: 0} 3.333333% {opacity: 0} 13.333333% {opacity: 1} 100% {opacity: 1}} #ew7rPQFdZHC181_to {animation: ew7rPQFdZHC181_to__to 5000ms linear infinite normal forwards}@keyframes ew7rPQFdZHC181_to__to { 0% {transform: translate(1104.950073px,740.854767px)} 3.333333% {transform: translate(1104.950073px,740.854767px)} 63.333333% {transform: translate(768.250122px,207.554767px)} 100% {transform: translate(768.250122px,207.554767px)}} #ew7rPQFdZHC181 {animation: ew7rPQFdZHC181_c_o 5000ms linear infinite normal forwards}@keyframes ew7rPQFdZHC181_c_o { 0% {opacity: 0} 6.666667% {opacity: 1} 100% {opacity: 1}} #ew7rPQFdZHC182_to {animation: ew7rPQFdZHC182_to__to 5000ms linear infinite normal forwards}@keyframes ew7rPQFdZHC182_to__to { 0% {transform: translate(81.700007px,746.300049px)} 13.333333% {transform: translate(81.700007px,746.300049px)} 66.666667% {transform: translate(851.500007px,224.600049px)} 100% {transform: translate(851.500007px,224.600049px)}} #ew7rPQFdZHC182 {animation: ew7rPQFdZHC182_c_o 5000ms linear infinite normal forwards}@keyframes ew7rPQFdZHC182_c_o { 0% {opacity: 0} 10% {opacity: 0} 20% {opacity: 1} 100% {opacity: 1}} #ew7rPQFdZHC183_to {animation: ew7rPQFdZHC183_to__to 5000ms linear infinite normal forwards}@keyframes ew7rPQFdZHC183_to__to { 0% {transform: translate(365.100006px,680.097473px)} 6.666667% {transform: translate(365.100006px,680.097473px)} 63.333333% {transform: translate(611.100006px,225.941101px)} 100% {transform: translate(611.100006px,225.941101px)}} #ew7rPQFdZHC183 {animation: ew7rPQFdZHC183_c_o 5000ms linear infinite normal forwards}@keyframes ew7rPQFdZHC183_c_o { 0% {opacity: 0} 3.333333% {opacity: 0} 13.333333% {opacity: 1} 100% {opacity: 1}} #ew7rPQFdZHC184_to {animation: ew7rPQFdZHC184_to__to 5000ms linear infinite normal forwards}@keyframes ew7rPQFdZHC184_to__to { 0% {transform: translate(697px,745.954773px)} 20% {transform: translate(697px,745.954773px)} 60% {transform: translate(792.999485px,226.454773px)} 100% {transform: translate(792.999485px,226.454773px)}} #ew7rPQFdZHC184 {animation: ew7rPQFdZHC184_c_o 5000ms linear infinite normal forwards}@keyframes ew7rPQFdZHC184_c_o { 0% {opacity: 0} 16.666667% {opacity: 0} 23.333333% {opacity: 1} 100% {opacity: 1}} #ew7rPQFdZHC185_to {animation: ew7rPQFdZHC185_to__to 5000ms linear infinite normal forwards}@keyframes ew7rPQFdZHC185_to__to { 0% {transform: translate(138.050007px,698.302612px)} 13.333333% {transform: translate(138.050007px,698.302612px)} 66.666667% {transform: translate(742.422466px,235.675049px)} 100% {transform: translate(742.422466px,235.675049px)}} #ew7rPQFdZHC185 {animation: ew7rPQFdZHC185_c_o 5000ms linear infinite normal forwards}@keyframes ew7rPQFdZHC185_c_o { 0% {opacity: 0} 6.666667% {opacity: 0} 16.666667% {opacity: 1} 100% {opacity: 1}} #ew7rPQFdZHC186_to {animation: ew7rPQFdZHC186_to__to 5000ms linear infinite normal forwards}@keyframes ew7rPQFdZHC186_to__to { 0% {transform: translate(545.32843px,703.899963px)} 6.666667% {transform: translate(545.32843px,703.899963px)} 66.666667% {transform: translate(610.615448px,230.643982px)} 100% {transform: translate(610.615448px,230.643982px)}} #ew7rPQFdZHC186 {animation: ew7rPQFdZHC186_c_o 5000ms linear infinite normal forwards}@keyframes ew7rPQFdZHC186_c_o { 0% {opacity: 0} 10% {opacity: 1} 100% {opacity: 1}}
]]></style>
<g id="ew7rPQFdZHC2_to" transform="translate(701.243652,220.225052)"><g id="ew7rPQFdZHC2" transform="translate(-701.243652,-220.225052)" opacity="0"><path d="M1004.4,174h-225c-.9,0-1.6-.7-1.6-1.6v-1.3c0-.9.7-1.6,1.6-1.6h225c.9,0,1.6.7,1.6,1.6v1.3c0,.9-.7,1.6-1.6,1.6Z" fill="#51565f" stroke="#1a1d20" stroke-width="3" stroke-linecap="round" stroke-miterlimit="10"/><path d="M996.4,211.3L776.7,162.5c-.9-.2-1.4-1-1.2-1.9l.3-1.3c.2-.9,1-1.4,1.9-1.2l219.7,48.8c.9.2,1.4,1,1.2,1.9l-.3,1.3c-.2.9-1.1,1.4-1.9,1.2Z" fill="#51565f" stroke="#32363b" stroke-width="2" stroke-linecap="round" stroke-miterlimit="10"/><path d="M1003.9,157.3l-129,35.6c-.9.2-1.4,1.1-1.1,2v0c.2.9,1.1,1.4,2,1.1l129-35.6c.9-.2,1.4-1.1,1.1-2v0c-.2-.9-1.1-1.4-2-1.1Z" fill="#51565f" stroke="#32363b" stroke-width="2" stroke-linecap="round" stroke-miterlimit="10"/><path d="M745.1,242l204.1-94.7c.8-.4,1.8,0,2.1.8l.5,1.2c.4.8,0,1.8-.8,2.1L746.9,246.1c-.8.4-1.8,0-2.1-.8l-.5-1.2c-.4-.8,0-1.7.8-2.1Z" fill="#51565f" stroke="#1a1d20" stroke-width="3" stroke-linecap="round" stroke-miterlimit="10"/><path d="M736.6,204.8l219.8-48.2c.9-.2,1.7.4,1.9,1.2l.3,1.3c.2.9-.4,1.7-1.2,1.9L737.6,209.1c-.9.2-1.7-.4-1.9-1.2l-.3-1.3c-.2-.8.4-1.7,1.2-1.8Z" fill="#51565f" stroke="#32363b" stroke-width="2" stroke-linecap="round" stroke-miterlimit="10"/><path d="M752.5,257l102-86.6c.7-.6.8-1.6.2-2.3v0c-.6-.7-1.6-.8-2.3-.2l-102,86.6c-.7.6-.8,1.6-.2,2.3v0c.6.7,1.6.7,2.3.2Z" fill="#51565f" stroke="#32363b" stroke-width="2" stroke-linecap="round" stroke-miterlimit="10"/><path d="M723.5,162l207.6,86.9c.8.3,1.2,1.3.9,2.1l-.5,1.2c-.3.8-1.3,1.2-2.1.9L721.8,166.2c-.8-.3-1.2-1.3-.9-2.1l.5-1.2c.3-.8,1.2-1.2,2.1-.9Z" fill="#51565f" stroke="#1a1d20" stroke-width="3" stroke-linecap="round" stroke-miterlimit="10"/><path d="M745.3,130.7L929.1,260.5c.7.5.9,1.5.4,2.2l-.7,1.1c-.5.7-1.5.9-2.2.4L742.7,134.4c-.7-.5-.9-1.5-.4-2.2l.7-1.1c.5-.8,1.5-.9,2.3-.4Z" fill="#51565f" stroke="#32363b" stroke-width="2" stroke-linecap="round" stroke-miterlimit="10"/><path d="M717.4,177.6l132.7,17c.9.1,1.7-.5,1.8-1.4v0c.1-.9-.5-1.7-1.4-1.8l-132.7-17c-.9-.1-1.7.5-1.8,1.4v0c-.1.9.5,1.7,1.4,1.8Z" fill="#51565f" stroke="#32363b" stroke-width="2" stroke-linecap="round" stroke-miterlimit="10"/><path d="M835.8,204.1L611,212.7c-.9,0-1.6-.7-1.7-1.5v-1.3c0-.9.7-1.6,1.5-1.7l224.8-8.6c.9,0,1.6.7,1.7,1.5v1.3c0,1-.7,1.7-1.5,1.7Z" fill="#51565f" stroke="#1a1d20" stroke-width="3" stroke-linecap="round" stroke-miterlimit="10"/><path d="M829.2,241.7L607.8,201.3c-.9-.2-1.4-1-1.3-1.9l.2-1.3c.2-.9,1-1.4,1.9-1.3L830,237.2c.9.2,1.4,1,1.3,1.9l-.2,1.3c-.2.9-1,1.5-1.9,1.3Z" fill="#51565f" stroke="#32363b" stroke-width="2" stroke-linecap="round" stroke-miterlimit="10"/><path d="M653.3,146L525.8,186.5c-.8.3-1.3,1.2-1,2v0c.3.8,1.2,1.3,2,1L654.3,149c.8-.3,1.3-1.2,1-2v0c-.3-.8-1.2-1.3-2-1Z" fill="#51565f" stroke="#32363b" stroke-width="2" stroke-linecap="round" stroke-miterlimit="10"/><path d="M628.2,251.7l214.4-68.1c.8-.3,1.7.2,2,1l.4,1.2c.3.8-.2,1.7-1,2L629.5,255.9c-.8.3-1.7-.2-2-1l-.4-1.2c-.2-.9.2-1.8,1.1-2Z" fill="#51565f" stroke="#1a1d20" stroke-width="3" stroke-linecap="round" stroke-miterlimit="10"/><path d="M471.4,218.4l224.1-20c.9-.1,1.7.6,1.7,1.5l.1,1.3c.1.9-.6,1.7-1.5,1.7l-224.1,20c-.9.1-1.7-.6-1.7-1.5l-.1-1.3c-.1-.8.6-1.6,1.5-1.7Z" fill="#51565f" stroke="#32363b" stroke-width="2" stroke-linecap="round" stroke-miterlimit="10"/><path d="M450.6,204.7l112.2-73c.7-.5,1-1.5.5-2.2v0c-.5-.7-1.5-1-2.2-.5L448.9,202c-.7.5-1,1.5-.5,2.2v0c.5.7,1.5.9,2.2.5Z" fill="#51565f" stroke="#32363b" stroke-width="2" stroke-linecap="round" stroke-miterlimit="10"/><path d="M854.7,108.4l-165.9,152c-.7.6-1.7.6-2.3-.1l-.9-1c-.6-.7-.6-1.7.1-2.3L851.6,105c.7-.6,1.7-.6,2.3.1l.9,1c.6.7.6,1.7-.1,2.3Z" fill="#51565f" stroke="#1a1d20" stroke-width="3" stroke-linecap="round" stroke-miterlimit="10"/><path d="M874.1,141.3l-195,112.5c-.8.4-1.7.2-2.2-.6l-.6-1.1c-.4-.8-.2-1.7.6-2.2L871.8,137.5c.8-.4,1.7-.2,2.2.6l.6,1.1c.5.7.2,1.7-.5,2.1Z" fill="#51565f" stroke="#32363b" stroke-width="2" stroke-linecap="round" stroke-miterlimit="10"/><path d="M843.1,96.4l-71,113.4c-.5.8-.2,1.7.5,2.2v0c.8.5,1.7.2,2.2-.5l71-113.4c.5-.8.2-1.7-.5-2.2v0c-.7-.5-1.7-.3-2.2.5Z" fill="#51565f" stroke="#32363b" stroke-width="2" stroke-linecap="round" stroke-miterlimit="10"/><path d="M899.5,178.1l-224.1-20c-.9-.1-1.5-.9-1.5-1.7l.1-1.3c.1-.9.9-1.5,1.7-1.5l224.1,20c.9.1,1.5.9,1.5,1.7l-.1,1.3c0,.9-.8,1.6-1.7,1.5Z" fill="#51565f" stroke="#1a1d20" stroke-width="3" stroke-linecap="round" stroke-miterlimit="10"/><path d="M888.2,214.5L673.7,146.4c-.8-.3-1.3-1.2-1-2l.4-1.2c.3-.8,1.2-1.3,2-1l214.5,68.1c.8.3,1.3,1.2,1,2l-.4,1.2c-.2.8-1.1,1.3-2,1Z" fill="#51565f" stroke="#32363b" stroke-width="2" stroke-linecap="round" stroke-miterlimit="10"/><path d="M900.6,161.4L769,185.4c-.9.2-1.4,1-1.3,1.9v0c.2.9,1,1.4,1.9,1.3l131.6-24c.9-.2,1.4-1,1.3-1.9v0c-.2-.9-1-1.5-1.9-1.3Z" fill="#51565f" stroke="#32363b" stroke-width="2" stroke-linecap="round" stroke-miterlimit="10"/><path d="M635.2,222.8L847,146.6c.8-.3,1.8.1,2.1,1l.4,1.2c.3.8-.1,1.8-1,2.1L636.8,227.1c-.8.3-1.8-.1-2.1-1l-.4-1.2c-.3-.9.1-1.8.9-2.1Z" fill="#51565f" stroke="#1a1d20" stroke-width="3" stroke-linecap="round" stroke-miterlimit="10"/><path d="M630.1,184.9l223.2-28.5c.9-.1,1.7.5,1.8,1.4l.2,1.3c.1.9-.5,1.7-1.4,1.8L630.7,189.4c-.9.1-1.7-.5-1.8-1.4l-.2-1.3c-.1-.8.6-1.6,1.4-1.8Z" fill="#51565f" stroke="#32363b" stroke-width="2" stroke-linecap="round" stroke-miterlimit="10"/><path d="M607,253.7l109.3-77.2c.7-.5.9-1.5.4-2.2v0c-.5-.7-1.5-.9-2.2-.4L605.2,251.1c-.7.5-.9,1.5-.4,2.2v0c.5.7,1.5.9,2.2.4Z" fill="#51565f" stroke="#32363b" stroke-width="2" stroke-linecap="round" stroke-miterlimit="10"/><path d="M440.2,127l221.4,40.4c.9.2,1.4,1,1.3,1.9l-.2,1.3c-.2.9-1,1.4-1.9,1.3L439.4,131.5c-.9-.2-1.4-1-1.3-1.9l.2-1.3c.2-.9,1-1.5,1.9-1.3Z" fill="#525653" stroke="#373636" stroke-linecap="round" stroke-miterlimit="10"/><path d="M454.8,91.7l207.3,87.4c.8.3,1.2,1.3.9,2.1l-.5,1.2c-.3.8-1.3,1.2-2.1.9L453.1,95.9c-.8-.3-1.2-1.3-.9-2.1l.5-1.2c.3-.9,1.3-1.3,2.1-.9Z" fill="#525653" stroke="#373636" stroke-linecap="round" stroke-miterlimit="10"/><path d="M465.5,185.9L598.8,174c.9-.1,1.5-.9,1.5-1.7v0c-.1-.9-.9-1.5-1.7-1.5L465.3,182.7c-.9.1-1.5.9-1.5,1.7v0c0,.9.8,1.6,1.7,1.5Z" fill="#525653" stroke="#373636" stroke-linecap="round" stroke-miterlimit="10"/><path d="M918.6,176.8L700.8,233.3c-.9.2-1.7-.3-2-1.1l-.3-1.3c-.2-.9.3-1.7,1.1-2l217.8-56.5c.9-.2,1.7.3,2,1.1l.3,1.3c.3.9-.2,1.8-1.1,2Z" fill="#525653" stroke="#373636" stroke-linecap="round" stroke-miterlimit="10"/><path d="M709.1,144.8l-224.9,7.9c-.9,0-1.6-.7-1.7-1.5v-1.3c0-.9.7-1.6,1.5-1.7l224.9-7.9c.9,0,1.6.7,1.7,1.5v1.3c.1.9-.6,1.6-1.5,1.7Z" fill="#525653" stroke="#373636" stroke-linecap="round" stroke-miterlimit="10"/><path d="M914,160.7L798.1,227.6c-.8.4-1,1.4-.6,2.2v0c.4.8,1.4,1,2.2.6l115.9-66.9c.8-.4,1-1.4.6-2.2v0c-.4-.7-1.4-1-2.2-.6Z" fill="#525653" stroke="#373636" stroke-linecap="round" stroke-miterlimit="10"/><path d="M925.5,259.4L737,136.6c-.7-.5-1-1.5-.5-2.2l.7-1.1c.5-.7,1.5-1,2.2-.5L928,255.6c.7.5,1,1.5.5,2.2l-.7,1.1c-.5.7-1.5.9-2.3.5Z" fill="#525653" stroke="#373636" stroke-linecap="round" stroke-miterlimit="10"/><path d="M898.5,286.3L741,125.6c-.6-.6-.6-1.6,0-2.3l.9-.9c.6-.6,1.6-.6,2.3,0L901.7,283.1c.6.6.6,1.6,0,2.3l-.9.9c-.7.6-1.7.6-2.3,0Z" fill="#525653" stroke="#373636" stroke-linecap="round" stroke-miterlimit="10"/><path d="M723.2,174.9L595.6,134.4c-.8-.3-1.7.2-2,1v0c-.3.8.2,1.7,1,2l127.5,40.5c.8.3,1.7-.2,2-1v0c.4-.8-.1-1.7-.9-2Z" fill="#525653" stroke="#373636" stroke-linecap="round" stroke-miterlimit="10"/><path d="M518,179.7l222.7,32c.9.1,1.5.9,1.4,1.8l-.2,1.3c-.1.9-.9,1.5-1.8,1.4l-222.7-32c-.9-.1-1.5-.9-1.4-1.8l.2-1.3c.1-1,.9-1.6,1.8-1.4Z" fill="#525653" stroke="#373636" stroke-linecap="round" stroke-miterlimit="10"/><path d="M684.4,139.1l210.5,79.5c.8.3,1.2,1.2.9,2.1l-.5,1.2c-.3.8-1.2,1.2-2.1.9L682.7,143.3c-.8-.3-1.2-1.2-.9-2.1l.5-1.2c.3-.8,1.2-1.2,2.1-.9Z" fill="#525653" stroke="#373636" stroke-linecap="round" stroke-miterlimit="10"/><path d="M669.2,191.5l132.7-16.9c.9-.1,1.5-.9,1.4-1.8v0c-.1-.9-.9-1.5-1.8-1.4L668.8,188.3c-.9.1-1.5.9-1.4,1.8v0c.1.9.9,1.5,1.8,1.4Z" fill="#525653" stroke="#373636" stroke-linecap="round" stroke-miterlimit="10"/><path d="M700.8,151.5L477.6,180c-.9.1-1.7-.5-1.8-1.4l-.2-1.3c-.1-.9.5-1.7,1.4-1.8L700.2,147c.9-.1,1.7.5,1.8,1.4l.2,1.3c.1.9-.5,1.7-1.4,1.8Z" fill="#525653" stroke="#373636" stroke-linecap="round" stroke-miterlimit="10"/><path d="M879,231L654.9,210.4c-.9-.1-1.5-.9-1.4-1.7l.1-1.3c.1-.9.9-1.5,1.7-1.4l224.1,20.6c.9.1,1.5.9,1.4,1.7l-.1,1.3c0,.9-.8,1.5-1.7,1.4Z" fill="#525653" stroke="#373636" stroke-linecap="round" stroke-miterlimit="10"/><path d="M821.7,101.5L698.2,153.1c-.8.3-1.2,1.3-.9,2.1v0c.3.8,1.3,1.2,2.1.9l123.5-51.6c.8-.3,1.2-1.3.9-2.1v0c-.3-.8-1.3-1.2-2.1-.9Z" fill="#525653" stroke="#373636" stroke-linecap="round" stroke-miterlimit="10"/><path d="M452.2,251.8L642.7,132c.7-.5,1.7-.2,2.2.5l.7,1.1c.5.7.2,1.7-.5,2.2L454.6,255.6c-.7.5-1.7.2-2.2-.5l-.7-1.1c-.4-.7-.2-1.7.5-2.2Z" fill="#525653" stroke="#373636" stroke-linecap="round" stroke-miterlimit="10"/><path d="M439.1,215.9L651,140.3c.8-.3,1.8.1,2,1l.4,1.2c.3.8-.1,1.8-1,2L440.5,220.1c-.8.3-1.8-.1-2-1l-.4-1.2c-.2-.8.2-1.7,1-2Z" fill="#525653" stroke="#373636" stroke-linecap="round" stroke-miterlimit="10"/><path d="M584.9,232.3l90.3-98.8c.6-.7.6-1.7-.1-2.3v0c-.7-.6-1.7-.6-2.3.1l-90.3,98.8c-.6.7-.6,1.7.1,2.3v0c.7.6,1.7.5,2.3-.1Z" fill="#525653" stroke="#373636" stroke-linecap="round" stroke-miterlimit="10"/><path d="M544.1,141.7L761,201.6c.9.2,1.4,1.1,1.1,2l-.3,1.2c-.2.9-1.1,1.4-2,1.1L542.9,146c-.9-.2-1.4-1.1-1.1-2l.3-1.2c.2-.8,1.1-1.3,2-1.1Z" fill="#525653" stroke="#373636" stroke-linecap="round" stroke-miterlimit="10"/><path d="M772.9,178.1L971.6,283.6c.8.4,1.1,1.4.7,2.2l-.6,1.1c-.4.8-1.4,1.1-2.2.7L770.8,182.1c-.8-.4-1.1-1.4-.7-2.2l.6-1.1c.4-.8,1.4-1.1,2.2-.7Z" fill="#525653" stroke="#373636" stroke-linecap="round" stroke-miterlimit="10"/><path d="M540,158h133.8c.9,0,1.6-.7,1.6-1.6v0c0-.9-.7-1.6-1.6-1.6h-133.8c-.9,0-1.6.7-1.6,1.6v0c0,.9.7,1.6,1.6,1.6Z" fill="#525653" stroke="#373636" stroke-linecap="round" stroke-miterlimit="10"/><path d="M812.1,145.2l-222,36.9c-.9.1-1.7-.4-1.8-1.3l-.2-1.3c-.1-.9.4-1.7,1.3-1.8l222-36.9c.9-.1,1.7.4,1.8,1.3l.2,1.3c.2.9-.4,1.7-1.3,1.8Z" fill="#525653" stroke="#373636" stroke-linecap="round" stroke-miterlimit="10"/><path d="M810.3,183.4L585.6,171.3c-.9,0-1.6-.8-1.5-1.7l.1-1.3c0-.9.8-1.6,1.7-1.5l224.7,12.1c.9,0,1.6.8,1.5,1.7l-.1,1.3c0,.8-.8,1.5-1.7,1.5Z" fill="#525653" stroke="#373636" stroke-linecap="round" stroke-miterlimit="10"/><path d="M808.9,128.8L687.5,185.1c-.8.4-1.2,1.3-.8,2.1v0c.4.8,1.3,1.2,2.1.8l121.4-56.3c.8-.4,1.2-1.3.8-2.1v0c-.3-.8-1.3-1.2-2.1-.8Z" fill="#525653" stroke="#373636" stroke-linecap="round" stroke-miterlimit="10"/><path d="M596.2,325.4L810.6,257c.8-.3,1.7.2,2,1l.4,1.2c.3.8-.2,1.7-1,2L597.6,329.6c-.8.3-1.7-.2-2-1l-.4-1.2c-.3-.9.1-1.8,1-2Z" fill="#51565f" stroke="#1a1d20" stroke-width="3" stroke-linecap="round" stroke-miterlimit="10"/><path d="M592.5,287.4l224.1-20.3c.9-.1,1.7.6,1.7,1.5l.1,1.3c.1.9-.6,1.7-1.5,1.7L592.8,291.9c-.9.1-1.7-.6-1.7-1.5l-.1-1.3c-.1-.9.6-1.6,1.5-1.7Z" fill="#51565f" stroke="#32363b" stroke-width="2" stroke-linecap="round" stroke-miterlimit="10"/><path d="M822.5,181.7L656.9,334c-.7.6-1.7.6-2.3-.1l-.9-1c-.6-.7-.6-1.7.1-2.3L819.5,178.3c.7-.6,1.7-.6,2.3.1l.9,1c.5.7.5,1.7-.2,2.3Z" fill="#51565f" stroke="#1a1d20" stroke-width="3" stroke-linecap="round" stroke-miterlimit="10"/><path d="M841.9,214.6L647.1,327.4c-.8.4-1.7.2-2.2-.6l-.6-1.1c-.4-.8-.2-1.7.6-2.2L839.6,210.7c.8-.4,1.7-.2,2.2.6l.6,1.1c.5.8.2,1.8-.5,2.2Z" fill="#51565f" stroke="#32363b" stroke-width="2" stroke-linecap="round" stroke-miterlimit="10"/><path d="M810.9,169.7L740,283.2c-.5.8-.2,1.7.5,2.2v0c.8.5,1.7.2,2.2-.5l70.9-113.5c.5-.8.2-1.7-.5-2.2v0c-.8-.5-1.8-.2-2.2.5Z" fill="#51565f" stroke="#32363b" stroke-width="2" stroke-linecap="round" stroke-miterlimit="10"/><path d="M867.4,251.3L643.2,231.7c-.9-.1-1.5-.9-1.5-1.7l.1-1.3c.1-.9.9-1.5,1.7-1.5l224.2,19.6c.9.1,1.5.9,1.5,1.7l-.1,1.3c0,1-.8,1.6-1.7,1.5Z" fill="#51565f" stroke="#1a1d20" stroke-width="3" stroke-linecap="round" stroke-miterlimit="10"/><path d="M856.2,287.8L641.6,220c-.8-.3-1.3-1.2-1-2l.4-1.2c.3-.8,1.2-1.3,2-1l214.6,67.8c.8.3,1.3,1.2,1,2l-.4,1.2c-.3.8-1.2,1.3-2,1Z" fill="#51565f" stroke="#32363b" stroke-width="2" stroke-linecap="round" stroke-miterlimit="10"/><path d="M868.5,234.6L736.9,258.8c-.9.2-1.4,1-1.3,1.9v0c.2.9,1,1.4,1.9,1.3l131.6-24.2c.9-.2,1.4-1,1.3-1.9v0c-.2-.8-1.1-1.4-1.9-1.3Z" fill="#51565f" stroke="#32363b" stroke-width="2" stroke-linecap="round" stroke-miterlimit="10"/><path d="M603.2,296.4l211.6-76.5c.8-.3,1.8.1,2.1,1l.4,1.2c.3.8-.1,1.8-1,2.1L604.7,300.7c-.8.3-1.8-.1-2.1-1l-.4-1.2c-.3-.8.2-1.8,1-2.1Z" fill="#51565f" stroke="#1a1d20" stroke-width="3" stroke-linecap="round" stroke-miterlimit="10"/><path d="M598,258.6l223.2-28.8c.9-.1,1.7.5,1.8,1.4l.2,1.3c.1.9-.5,1.7-1.4,1.8L598.6,263.1c-.9.1-1.7-.5-1.8-1.4l-.2-1.3c-.1-.9.5-1.7,1.4-1.8Z" fill="#51565f" stroke="#32363b" stroke-width="2" stroke-linecap="round" stroke-miterlimit="10"/><path d="M609.3,312l109.2-77.4c.7-.5.9-1.5.4-2.2v0c-.5-.7-1.5-.9-2.2-.4L607.5,309.4c-.7.5-.9,1.5-.4,2.2v0c.4.8,1.4.9,2.2.4Z" fill="#51565f" stroke="#32363b" stroke-width="2" stroke-linecap="round" stroke-miterlimit="10"/><path d="M930.9,137L747.3,267c-.7.5-1.7.3-2.2-.4l-.7-1.1c-.5-.7-.3-1.7.4-2.2L928.4,133.2c.7-.5,1.7-.3,2.2.4l.7,1.1c.5.7.4,1.7-.4,2.3Z" fill="#51565f" stroke="#1a1d20" stroke-width="3" stroke-linecap="round" stroke-miterlimit="10"/><path d="M946,172L738.6,259.2c-.8.3-1.8,0-2.1-.9l-.5-1.2c-.3-.8,0-1.8.9-2.1l207.4-87.2c.8-.3,1.8,0,2.1.9l.5,1.2c.3.9-.1,1.8-.9,2.1Z" fill="#51565f" stroke="#32363b" stroke-width="2" stroke-linecap="round" stroke-miterlimit="10"/><path d="M920.9,123.6L836.2,227.2c-.6.7-.5,1.7.2,2.3v0c.7.6,1.7.5,2.3-.2l84.7-103.7c.6-.7.5-1.7-.2-2.3v0c-.7-.5-1.7-.4-2.3.3Z" fill="#51565f" stroke="#32363b" stroke-width="2" stroke-linecap="round" stroke-miterlimit="10"/><path d="M758.7,342.3L870.5,147c.4-.8,1.4-1,2.2-.6l1.1.6c.8.4,1,1.4.6,2.2L762.6,344.6c-.4.8-1.4,1-2.2.6l-1.1-.6c-.8-.5-1.1-1.5-.6-2.3Z" fill="#51565f" stroke="#1a1d20" stroke-width="3" stroke-linecap="round" stroke-miterlimit="10"/><path d="M730.2,316.8L881.7,150.4c.6-.7,1.6-.7,2.3-.1l1,.9c.7.6.7,1.6.1,2.3L733.6,319.9c-.6.7-1.6.7-2.3.1l-1-.9c-.6-.6-.7-1.6-.1-2.3Z" fill="#51565f" stroke="#32363b" stroke-width="2" stroke-linecap="round" stroke-miterlimit="10"/><path d="M773.4,350.3l33.2-129.7c.2-.9-.3-1.7-1.2-2v0c-.9-.2-1.7.3-2,1.2L770.2,349.4c-.2.9.3,1.7,1.2,2v0c.9.2,1.8-.3,2-1.1Z" fill="#51565f" stroke="#32363b" stroke-width="2" stroke-linecap="round" stroke-miterlimit="10"/><path d="M694.8,289.6l219.6-49.1c.9-.2,1.7.4,1.9,1.2l.3,1.3c.2.9-.4,1.7-1.2,1.9L695.8,294c-.9.2-1.7-.4-1.9-1.2l-.3-1.3c-.2-.9.3-1.7,1.2-1.9Z" fill="#51565f" stroke="#1a1d20" stroke-width="3" stroke-linecap="round" stroke-miterlimit="10"/><path d="M694.5,251.4l225-.3c.9,0,1.6.7,1.6,1.6v1.3c0,.9-.7,1.6-1.6,1.6l-225,.3c-.9,0-1.6-.7-1.6-1.6v-1.3c0-.9.7-1.6,1.6-1.6Z" fill="#51565f" stroke="#32363b" stroke-width="2" stroke-linecap="round" stroke-miterlimit="10"/><path d="M698.9,305.8L817,242.9c.8-.4,1.1-1.4.7-2.2v0c-.4-.8-1.4-1.1-2.2-.7L697.4,302.9c-.8.4-1.1,1.4-.7,2.2v0c.4.8,1.4,1.1,2.2.7Z" fill="#51565f" stroke="#32363b" stroke-width="2" stroke-linecap="round" stroke-miterlimit="10"/><path d="M933,166.6l-178.5,137c-.7.5-1.7.4-2.2-.3l-.8-1c-.5-.7-.4-1.7.3-2.2l178.5-137c.7-.5,1.7-.4,2.2.3l.8,1c.5.7.4,1.7-.3,2.2Z" fill="#51565f" stroke="#1a1d20" stroke-width="3" stroke-linecap="round" stroke-miterlimit="10"/><path d="M949.4,201.1l-204,95c-.8.4-1.8,0-2.1-.8l-.5-1.2c-.4-.8,0-1.8.8-2.1l204-95c.8-.4,1.8,0,2.1.8l.5,1.2c.3.8,0,1.8-.8,2.1Z" fill="#51565f" stroke="#32363b" stroke-width="2" stroke-linecap="round" stroke-miterlimit="10"/><path d="M922.5,153.6L841.8,260.4c-.5.7-.4,1.7.3,2.2v0c.7.5,1.7.4,2.2-.3L925,155.6c.5-.7.4-1.7-.3-2.2v0c-.7-.6-1.7-.5-2.2.2Z" fill="#51565f" stroke="#32363b" stroke-width="2" stroke-linecap="round" stroke-miterlimit="10"/><path d="M925.4,196L702.2,224.8c-.9.1-1.7-.5-1.8-1.4l-.2-1.3c-.1-.9.5-1.7,1.4-1.8l223.2-28.8c.9-.1,1.7.5,1.8,1.4l.2,1.3c.1.8-.5,1.6-1.4,1.8Z" fill="#525653" stroke="#373636" stroke-linecap="round" stroke-miterlimit="10"/><path d="M922.3,234L698.2,213.7c-.9-.1-1.5-.9-1.5-1.7l.1-1.3c.1-.9.9-1.5,1.7-1.5l224.1,20.3c.9.1,1.5.9,1.5,1.7l-.1,1.3c-.1.9-.8,1.6-1.7,1.5Z" fill="#525653" stroke="#373636" stroke-linecap="round" stroke-miterlimit="10"/><path d="M922.9,179.4L799.5,231.2c-.8.3-1.2,1.3-.9,2.1v0c.3.8,1.3,1.2,2.1.9l123.4-51.8c.8-.3,1.2-1.3.9-2.1v0c-.4-.8-1.3-1.2-2.1-.9Z" fill="#525653" stroke="#373636" stroke-linecap="round" stroke-miterlimit="10"/><path d="M677,296.6L867.3,176.5c.7-.5,1.7-.2,2.2.5l.7,1.1c.5.7.2,1.7-.5,2.2L679.4,300.4c-.7.5-1.7.2-2.2-.5l-.7-1.1c-.5-.7-.3-1.7.5-2.2Z" fill="#525653" stroke="#373636" stroke-linecap="round" stroke-miterlimit="10"/><path d="M663.8,260.8l211.8-75.9c.8-.3,1.8.1,2.1,1l.4,1.2c.3.8-.1,1.8-1,2.1L665.3,265.1c-.8.3-1.8-.1-2.1-1l-.4-1.2c-.2-.9.2-1.8,1-2.1Z" fill="#525653" stroke="#373636" stroke-linecap="round" stroke-miterlimit="10"/><path d="M686.3,310.5l90.1-98.9c.6-.7.5-1.7-.1-2.3v0c-.7-.6-1.7-.5-2.3.1l-90.1,98.9c-.6.7-.5,1.7.1,2.3v0c.7.6,1.7.6,2.3-.1Z" fill="#525653" stroke="#373636" stroke-linecap="round" stroke-miterlimit="10"/><path d="M645.3,220.1l217,59.6c.9.2,1.4,1.1,1.1,2l-.3,1.2c-.2.9-1.1,1.4-2,1.1l-217-59.6c-.9-.2-1.4-1.1-1.1-2l.3-1.2c.3-.9,1.1-1.4,2-1.1Z" fill="#525653" stroke="#373636" stroke-linecap="round" stroke-miterlimit="10"/><path d="M662.9,186.2L861.8,291.4c.8.4,1.1,1.4.7,2.2l-.6,1.1c-.4.8-1.4,1.1-2.2.7L660.8,190.2c-.8-.4-1.1-1.4-.7-2.2l.6-1.1c.5-.8,1.4-1.1,2.2-.7Z" fill="#525653" stroke="#373636" stroke-linecap="round" stroke-miterlimit="10"/><path d="M641.3,236.3l133.8-.2c.9,0,1.6-.7,1.6-1.6v0c0-.9-.7-1.6-1.6-1.6l-133.8.2c-.9,0-1.6.7-1.6,1.6v0c0,.9.7,1.6,1.6,1.6Z" fill="#525653" stroke="#373636" stroke-linecap="round" stroke-miterlimit="10"/><path d="M913.3,223.1L691.4,260.4c-.9.1-1.7-.4-1.8-1.3l-.2-1.3c-.1-.9.4-1.7,1.3-1.8l221.9-37.3c.9-.1,1.7.4,1.8,1.3l.2,1.3c.2.9-.4,1.7-1.3,1.8Z" fill="#525653" stroke="#373636" stroke-linecap="round" stroke-miterlimit="10"/><path d="M911.6,261.3L686.9,249.6c-.9,0-1.6-.8-1.5-1.7l.1-1.3c0-.9.8-1.6,1.7-1.5l224.7,11.7c.9,0,1.6.8,1.5,1.7l-.1,1.3c0,.8-.8,1.5-1.7,1.5Z" fill="#525653" stroke="#373636" stroke-linecap="round" stroke-miterlimit="10"/><path d="M910.2,206.7L788.9,263.2c-.8.4-1.2,1.3-.8,2.1v0c.4.8,1.3,1.2,2.1.8l121.3-56.5c.8-.4,1.2-1.3.8-2.1v0c-.4-.8-1.3-1.2-2.1-.8Z" fill="#525653" stroke="#373636" stroke-linecap="round" stroke-miterlimit="10"/><path d="M562.3,321.2l204-95c.8-.4,1.8,0,2.1.8l.5,1.2c.4.8,0,1.8-.8,2.1l-204,95c-.8.4-1.8,0-2.1-.8l-.5-1.2c-.4-.8,0-1.7.8-2.1Z" fill="#525653" stroke="#373636" stroke-linecap="round" stroke-miterlimit="10"/><path d="M553.8,284l219.7-48.5c.9-.2,1.7.4,1.9,1.2l.3,1.3c.2.9-.4,1.7-1.2,1.9L554.8,288.4c-.9.2-1.7-.4-1.9-1.2l-.3-1.3c-.2-.9.3-1.7,1.2-1.9Z" fill="#525653" stroke="#373636" stroke-linecap="round" stroke-miterlimit="10"/><path d="M768.6,150.1l-145,172c-.6.7-1.6.8-2.3.2l-1-.8c-.7-.6-.8-1.6-.2-2.3l145.1-172c.6-.7,1.6-.8,2.3-.2l1,.8c.6.6.7,1.6.1,2.3Z" fill="#525653" stroke="#373636" stroke-linecap="round" stroke-miterlimit="10"/><path d="M792,180.3L613.1,316.7c-.7.5-1.7.4-2.2-.3l-.8-1c-.5-.7-.4-1.7.3-2.2L789.3,176.7c.7-.5,1.7-.4,2.2.3l.8,1c.6.7.4,1.7-.3,2.3Z" fill="#525653" stroke="#373636" stroke-linecap="round" stroke-miterlimit="10"/><path d="M755.6,139.6l-56,121.6c-.4.8,0,1.8.8,2.1v0c.8.4,1.8,0,2.1-.8l55.9-121.6c.4-.8,0-1.8-.8-2.1v0c-.7-.3-1.6,0-2,.8Z" fill="#525653" stroke="#373636" stroke-linecap="round" stroke-miterlimit="10"/><path d="M822,213.4l-224.8,8.9c-.9,0-1.6-.7-1.7-1.5l-.1-1.3c0-.9.7-1.6,1.5-1.7l224.8-8.9c.9,0,1.6.7,1.7,1.5l.1,1.3c.1,1-.6,1.7-1.5,1.7Z" fill="#525653" stroke="#373636" stroke-linecap="round" stroke-miterlimit="10"/><path d="M815.5,251.1L594.1,211c-.9-.2-1.4-1-1.3-1.9l.2-1.3c.2-.9,1-1.4,1.9-1.3l221.4,40.1c.9.2,1.4,1,1.3,1.9l-.2,1.3c-.2.8-1.1,1.4-1.9,1.3Z" fill="#525653" stroke="#373636" stroke-linecap="round" stroke-miterlimit="10"/><path d="M820.9,196.8L693.4,237.5c-.8.3-1.3,1.2-1,2v0c.3.8,1.2,1.3,2,1l127.5-40.7c.8-.3,1.3-1.2,1-2v0c-.2-.8-1.1-1.3-2-1Z" fill="#525653" stroke="#373636" stroke-linecap="round" stroke-miterlimit="10"/><path d="M565.6,291.6L765.8,188.9c.8-.4,1.8-.1,2.2.7l.6,1.2c.4.8.1,1.8-.7,2.2L567.6,295.6c-.8.4-1.8.1-2.2-.7l-.6-1.2c-.3-.7,0-1.7.8-2.1Z" fill="#525653" stroke="#373636" stroke-linecap="round" stroke-miterlimit="10"/><path d="M555.7,254.7l217.7-56.8c.9-.2,1.7.3,2,1.1l.3,1.3c.2.9-.3,1.7-1.1,2L556.9,259.1c-.9.2-1.7-.3-2-1.1l-.3-1.3c-.3-.9.2-1.7,1.1-2Z" fill="#525653" stroke="#373636" stroke-linecap="round" stroke-miterlimit="10"/><path d="M526.8,286.7L730.9,192c.8-.4,1.8,0,2.1.8l.5,1.2c.4.8,0,1.8-.8,2.1L528.6,290.8c-.8.4-1.8,0-2.1-.8l-.5-1.2c-.4-.8-.1-1.7.8-2.1Z" fill="#51565f" stroke="#1a1d20" stroke-width="3" stroke-linecap="round" stroke-miterlimit="10"/><path d="M518.3,249.5l219.8-48.2c.9-.2,1.7.4,1.9,1.2l.3,1.3c.2.9-.4,1.7-1.2,1.9L519.3,253.9c-.9.2-1.7-.4-1.9-1.2l-.3-1.3c-.2-.9.3-1.7,1.2-1.9Z" fill="#51565f" stroke="#32363b" stroke-width="2" stroke-linecap="round" stroke-miterlimit="10"/><path d="M534.2,301.7l102-86.6c.7-.6.8-1.6.2-2.3v0c-.6-.7-1.6-.8-2.3-.2l-102,86.6c-.7.6-.8,1.6-.2,2.3v0c.6.7,1.6.8,2.3.2Z" fill="#51565f" stroke="#32363b" stroke-width="2" stroke-linecap="round" stroke-miterlimit="10"/><path d="M505.1,206.7l207.6,86.9c.8.3,1.2,1.3.9,2.1l-.5,1.2c-.3.8-1.3,1.2-2.1.9L503.4,210.9c-.8-.3-1.2-1.3-.9-2.1l.5-1.2c.4-.8,1.3-1.2,2.1-.9Z" fill="#51565f" stroke="#1a1d20" stroke-width="3" stroke-linecap="round" stroke-miterlimit="10"/><path d="M526.9,175.4L710.7,305.2c.7.5.9,1.5.4,2.2l-.7,1.1c-.5.7-1.5.9-2.2.4L524.3,179.1c-.7-.5-.9-1.5-.4-2.2l.7-1.1c.6-.7,1.6-.9,2.3-.4Z" fill="#51565f" stroke="#32363b" stroke-width="2" stroke-linecap="round" stroke-miterlimit="10"/><path d="M499.1,222.3l132.7,17c.9.1,1.7-.5,1.8-1.4v0c.1-.9-.5-1.7-1.4-1.8l-132.7-17c-.9-.1-1.7.5-1.8,1.4v0c-.1.9.5,1.7,1.4,1.8Z" fill="#51565f" stroke="#32363b" stroke-width="2" stroke-linecap="round" stroke-miterlimit="10"/><path d="M770.6,244.1l-224.8,8.6c-.9,0-1.6-.7-1.7-1.5v-1.3c0-.9.7-1.6,1.5-1.7l224.8-8.6c.9,0,1.6.7,1.7,1.5v1.3c0,.9-.6,1.7-1.5,1.7Z" fill="#51565f" stroke="#1a1d20" stroke-width="3" stroke-linecap="round" stroke-miterlimit="10"/><path d="M764,281.7L542.6,241.3c-.9-.2-1.4-1-1.3-1.9l.2-1.3c.2-.9,1-1.4,1.9-1.3l221.4,40.4c.9.2,1.4,1,1.3,1.9l-.2,1.3c-.2.9-1,1.5-1.9,1.3Z" fill="#51565f" stroke="#32363b" stroke-width="2" stroke-linecap="round" stroke-miterlimit="10"/><path d="M409.8,296.4l214.5-68.1c.8-.3,1.7.2,2,1l.4,1.2c.3.8-.2,1.7-1,2L411.2,300.6c-.8.3-1.7-.2-2-1l-.4-1.2c-.3-.8.2-1.7,1-2Z" fill="#51565f" stroke="#1a1d20" stroke-width="3" stroke-linecap="round" stroke-miterlimit="10"/><path d="M406.2,258.4l224.1-20c.9-.1,1.7.6,1.7,1.5l.1,1.3c.1.9-.6,1.7-1.5,1.7l-224.1,20c-.9.1-1.7-.6-1.7-1.5l-.1-1.3c0-.8.6-1.6,1.5-1.7Z" fill="#51565f" stroke="#32363b" stroke-width="2" stroke-linecap="round" stroke-miterlimit="10"/><path d="M415.3,312.2l112.2-73c.7-.5,1-1.5.5-2.2v0c-.5-.7-1.5-1-2.2-.5l-112.2,73c-.7.5-1,1.5-.5,2.2v0c.5.8,1.5,1,2.2.5Z" fill="#51565f" stroke="#32363b" stroke-width="2" stroke-linecap="round" stroke-miterlimit="10"/><path d="M636.4,153.1l-165.9,152c-.7.6-1.7.6-2.3-.1l-.9-1c-.6-.7-.6-1.7.1-2.3l165.9-152c.7-.6,1.7-.6,2.3.1l.9,1c.6.7.6,1.7-.1,2.3Z" fill="#51565f" stroke="#1a1d20" stroke-width="3" stroke-linecap="round" stroke-miterlimit="10"/><path d="M655.7,186.1L460.8,298.5c-.8.4-1.7.2-2.2-.6l-.6-1.1c-.4-.8-.2-1.7.6-2.2L653.5,182.2c.8-.4,1.7-.2,2.2.6l.6,1.1c.5.7.2,1.7-.6,2.2Z" fill="#51565f" stroke="#32363b" stroke-width="2" stroke-linecap="round" stroke-miterlimit="10"/><path d="M624.8,141.1l-71,113.4c-.5.8-.2,1.7.5,2.2v0c.8.5,1.7.2,2.2-.5l71-113.4c.5-.8.2-1.7-.5-2.2v0c-.7-.5-1.7-.3-2.2.5Z" fill="#51565f" stroke="#32363b" stroke-width="2" stroke-linecap="round" stroke-miterlimit="10"/><path d="M681.2,222.8l-224.1-20c-.9-.1-1.5-.9-1.5-1.7l.1-1.3c.1-.9.9-1.5,1.7-1.5l224.1,20c.9.1,1.5.9,1.5,1.7l-.1,1.3c0,.9-.8,1.6-1.7,1.5Z" fill="#51565f" stroke="#1a1d20" stroke-width="3" stroke-linecap="round" stroke-miterlimit="10"/><path d="M669.9,259.3L455.4,191.2c-.8-.3-1.3-1.2-1-2l.4-1.2c.3-.8,1.2-1.3,2-1l214.5,68.1c.8.3,1.3,1.2,1,2l-.4,1.2c-.2.8-1.1,1.2-2,1Z" fill="#51565f" stroke="#32363b" stroke-width="2" stroke-linecap="round" stroke-miterlimit="10"/><path d="M682.3,206.1l-131.6,24c-.9.2-1.4,1-1.3,1.9v0c.2.9,1,1.4,1.9,1.3l131.6-24c.9-.2,1.4-1,1.3-1.9v0c-.2-.9-1.1-1.4-1.9-1.3Z" fill="#51565f" stroke="#32363b" stroke-width="2" stroke-linecap="round" stroke-miterlimit="10"/><path d="M416.9,267.5l211.7-76.2c.8-.3,1.8.1,2.1,1l.4,1.2c.3.8-.1,1.8-1,2.1L418.4,271.8c-.8.3-1.8-.1-2.1-1l-.4-1.2c-.3-.9.2-1.8,1-2.1Z" fill="#51565f" stroke="#1a1d20" stroke-width="3" stroke-linecap="round" stroke-miterlimit="10"/><path d="M411.8,229.7L635,201.2c.9-.1,1.7.5,1.8,1.4l.2,1.3c.1.9-.5,1.7-1.4,1.8L412.4,234.2c-.9.1-1.7-.5-1.8-1.4l-.2-1.3c-.1-.9.5-1.7,1.4-1.8Z" fill="#51565f" stroke="#32363b" stroke-width="2" stroke-linecap="round" stroke-miterlimit="10"/><path d="M423,283.1l109.3-77.2c.7-.5.9-1.5.4-2.2v0c-.5-.7-1.5-.9-2.2-.4L421.2,280.5c-.7.5-.9,1.5-.4,2.2v0c.4.7,1.4.9,2.2.4Z" fill="#51565f" stroke="#32363b" stroke-width="2" stroke-linecap="round" stroke-miterlimit="10"/><path d="M433,241.9l221.4,40.4c.9.2,1.4,1,1.3,1.9l-.2,1.3c-.2.9-1,1.4-1.9,1.3L432.2,246.4c-.9-.2-1.4-1-1.3-1.9l.2-1.3c.2-.9,1-1.5,1.9-1.3Z" fill="#525653" stroke="#373636" stroke-linecap="round" stroke-miterlimit="10"/><path d="M447.6,206.6L654.9,294c.8.3,1.2,1.3.9,2.1l-.5,1.2c-.3.8-1.3,1.2-2.1.9L445.9,210.8c-.8-.3-1.2-1.3-.9-2.1l.5-1.2c.3-.9,1.3-1.3,2.1-.9Z" fill="#525653" stroke="#373636" stroke-linecap="round" stroke-miterlimit="10"/><path d="M430.4,258.4l133.3-11.9c.9-.1,1.5-.9,1.5-1.7v0c-.1-.9-.9-1.5-1.7-1.5L430.2,255.2c-.9.1-1.5.9-1.5,1.7v0c.1.9.9,1.6,1.7,1.5Z" fill="#525653" stroke="#373636" stroke-linecap="round" stroke-miterlimit="10"/><path d="M700.3,221.5L482.5,278c-.9.2-1.7-.3-2-1.1l-.3-1.3c-.2-.9.3-1.7,1.1-2l217.8-56.5c.9-.2,1.7.3,2,1.1l.3,1.3c.3.9-.2,1.8-1.1,2Z" fill="#525653" stroke="#373636" stroke-linecap="round" stroke-miterlimit="10"/><path d="M701.9,259.7l-224.8,7.9c-.9,0-1.6-.7-1.7-1.5v-1.3c0-.9.7-1.6,1.5-1.7l224.9-7.9c.9,0,1.6.7,1.7,1.5v1.3c0,.9-.7,1.6-1.6,1.7Z" fill="#525653" stroke="#373636" stroke-linecap="round" stroke-miterlimit="10"/><path d="M707.2,304.1L518.6,181.3c-.7-.5-1-1.5-.5-2.2l.7-1.1c.5-.7,1.5-1,2.2-.5L709.6,300.2c.7.5,1,1.5.5,2.2l-.7,1.1c-.4.8-1.4,1.1-2.2.6Z" fill="#525653" stroke="#373636" stroke-linecap="round" stroke-miterlimit="10"/><path d="M680.1,331L522.7,170.3c-.6-.6-.6-1.6,0-2.3l.9-.9c.6-.6,1.6-.6,2.3,0L683.4,327.8c.6.6.6,1.6,0,2.3l-.9.9c-.7.6-1.7.6-2.4,0Z" fill="#525653" stroke="#373636" stroke-linecap="round" stroke-miterlimit="10"/><path d="M452.8,219.6l222.7,32c.9.1,1.5.9,1.4,1.8l-.2,1.3c-.1.9-.9,1.5-1.8,1.4l-222.7-32c-.9-.1-1.5-.9-1.4-1.8l.2-1.3c.1-.9.9-1.5,1.8-1.4Z" fill="#525653" stroke="#373636" stroke-linecap="round" stroke-miterlimit="10"/><path d="M466,183.8l210.5,79.5c.8.3,1.2,1.2.9,2.1l-.5,1.2c-.3.8-1.2,1.2-2.1.9L464.3,188c-.8-.3-1.2-1.2-.9-2.1l.5-1.2c.4-.8,1.3-1.2,2.1-.9Z" fill="#525653" stroke="#373636" stroke-linecap="round" stroke-miterlimit="10"/><path d="M450.9,236.3l132.7-17c.9-.1,1.5-.9,1.4-1.8v0c-.1-.9-.9-1.5-1.8-1.4L450.5,233c-.9.1-1.5.9-1.4,1.8v0c.1.9.9,1.6,1.8,1.5Z" fill="#525653" stroke="#373636" stroke-linecap="round" stroke-miterlimit="10"/><path d="M536.9,256.7l216.9,59.9c.9.2,1.4,1.1,1.1,2l-.3,1.2c-.2.9-1.1,1.4-2,1.1L535.7,261c-.9-.2-1.4-1.1-1.1-2l.3-1.2c.2-.9,1.1-1.4,2-1.1Z" fill="#525653" stroke="#373636" stroke-linecap="round" stroke-miterlimit="10"/><path d="M554.5,222.8L753.2,328.3c.8.4,1.1,1.4.7,2.2l-.6,1.1c-.4.8-1.4,1.1-2.2.7L552.4,226.8c-.8-.4-1.1-1.4-.7-2.2l.6-1.1c.5-.8,1.5-1.1,2.2-.7Z" fill="#525653" stroke="#373636" stroke-linecap="round" stroke-miterlimit="10"/><path d="M532.8,272.9h133.8c.9,0,1.6-.7,1.6-1.6v0c0-.9-.7-1.6-1.6-1.6h-133.8c-.9,0-1.6.7-1.6,1.6v0c0,.9.8,1.6,1.6,1.6Z" fill="#525653" stroke="#373636" stroke-linecap="round" stroke-miterlimit="10"/><path d="M399.1,218.7l224.5,15.7c.9.1,1.5.8,1.5,1.7l-.1,1.3c-.1.9-.8,1.5-1.7,1.5L398.8,223.3c-.9-.1-1.5-.8-1.5-1.7l.1-1.3c.1-1,.8-1.6,1.7-1.6Z" fill="#51565f" stroke="#1a1d20" stroke-width="3" stroke-linecap="round" stroke-miterlimit="10"/><path d="M409.7,182.1L625.4,246c.8.3,1.3,1.1,1.1,2l-.4,1.2c-.3.8-1.1,1.3-2,1.1L408.4,186.4c-.8-.3-1.3-1.1-1.1-2l.4-1.2c.2-.9,1.1-1.4,2-1.1Z" fill="#51565f" stroke="#32363b" stroke-width="2" stroke-linecap="round" stroke-miterlimit="10"/><path d="M398.4,235.5l131.2-26.6c.9-.2,1.4-1,1.3-1.9v0c-.2-.9-1-1.4-1.9-1.3L397.8,232.3c-.9.2-1.4,1-1.3,1.9v0c.2.9,1,1.4,1.9,1.3Z" fill="#51565f" stroke="#32363b" stroke-width="2" stroke-linecap="round" stroke-miterlimit="10"/><path d="M662.5,168.9L452.3,249.2c-.8.3-1.8-.1-2.1-.9l-.5-1.2c-.3-.8.1-1.8.9-2.1l210.2-80.3c.8-.3,1.8.1,2.1.9l.5,1.2c.3.9-.1,1.8-.9,2.1Z" fill="#51565f" stroke="#1a1d20" stroke-width="3" stroke-linecap="round" stroke-miterlimit="10"/><path d="M668.3,206.7L445.7,239.5c-.9.1-1.7-.5-1.8-1.4l-.2-1.3c-.1-.9.5-1.7,1.4-1.8l222.6-32.8c.9-.1,1.7.5,1.8,1.4l.2,1.3c.1.8-.5,1.6-1.4,1.8Z" fill="#51565f" stroke="#32363b" stroke-width="2" stroke-linecap="round" stroke-miterlimit="10"/><path d="M656.1,153.5L548.3,232.8c-.7.5-.9,1.5-.3,2.2v0c.5.7,1.5.9,2.2.3L658,156c.7-.5.9-1.5.3-2.2v0c-.5-.7-1.5-.9-2.2-.3Z" fill="#51565f" stroke="#32363b" stroke-width="2" stroke-linecap="round" stroke-miterlimit="10"/><path d="M678.5,250.2l-201-101.1c-.8-.4-1.1-1.4-.7-2.2l.6-1.2c.4-.8,1.4-1.1,2.2-.7l201,101.1c.8.4,1.1,1.4.7,2.2l-.6,1.2c-.4.8-1.4,1.1-2.2.7Z" fill="#51565f" stroke="#1a1d20" stroke-width="3" stroke-linecap="round" stroke-miterlimit="10"/><path d="M654.6,279.9L480.3,137.7c-.7-.6-.8-1.6-.2-2.3l.8-1c.6-.7,1.6-.8,2.3-.2L657.5,276.5c.7.6.8,1.6.2,2.3l-.8,1c-.6.6-1.6.7-2.3.1Z" fill="#51565f" stroke="#32363b" stroke-width="2" stroke-linecap="round" stroke-miterlimit="10"/><path d="M685.6,235.1L554.4,209c-.9-.2-1.7.4-1.9,1.3v0c-.2.9.4,1.7,1.3,1.9L685,238.3c.9.2,1.7-.4,1.9-1.3v0c.2-.9-.4-1.8-1.3-1.9Z" fill="#51565f" stroke="#32363b" stroke-width="2" stroke-linecap="round" stroke-miterlimit="10"/><path d="M425.5,157.4l218,55.7c.9.2,1.4,1.1,1.2,2l-.3,1.3c-.2.9-1.1,1.4-2,1.2l-218-55.7c-.9-.2-1.4-1.1-1.2-2l.3-1.3c.3-.9,1.1-1.4,2-1.2Z" fill="#51565f" stroke="#32363b" stroke-width="2" stroke-linecap="round" stroke-miterlimit="10"/><path d="M779.8,167.4l-218.7,53c-.9.2-1.7-.3-1.9-1.2l-.3-1.3c-.2-.9.3-1.7,1.2-1.9l218.7-53c.9-.2,1.7.3,1.9,1.2l.3,1.3c.2.8-.3,1.7-1.2,1.9Z" fill="#51565f" stroke="#1a1d20" stroke-width="3" stroke-linecap="round" stroke-miterlimit="10"/><path d="M780.8,205.5l-225,4.3c-.9,0-1.6-.7-1.6-1.6v-1.3c0-.9.7-1.6,1.6-1.6l225-4.3c.9,0,1.6.7,1.6,1.6v1.3c0,.9-.7,1.6-1.6,1.6Z" fill="#51565f" stroke="#32363b" stroke-width="2" stroke-linecap="round" stroke-miterlimit="10"/><path d="M775.4,151.2l-117,65c-.8.4-1.1,1.4-.6,2.2v0c.4.8,1.4,1.1,2.2.6l117-65c.8-.4,1.1-1.4.6-2.2v0c-.4-.7-1.4-1-2.2-.6Z" fill="#51565f" stroke="#32363b" stroke-width="2" stroke-linecap="round" stroke-miterlimit="10"/><path d="M543.8,294.5L719.9,154.4c.7-.6,1.7-.4,2.3.3l.8,1c.6.7.4,1.7-.3,2.3L546.6,298.1c-.7.6-1.7.4-2.3-.3l-.8-1c-.5-.7-.4-1.7.3-2.3Z" fill="#51565f" stroke="#1a1d20" stroke-width="3" stroke-linecap="round" stroke-miterlimit="10"/><path d="M526.8,260.4l202.3-98.6c.8-.4,1.8-.1,2.1.7l.6,1.2c.4.8.1,1.8-.7,2.1L528.8,264.4c-.8.4-1.8.1-2.1-.7l-.6-1.2c-.4-.8-.1-1.8.7-2.1Z" fill="#51565f" stroke="#32363b" stroke-width="2" stroke-linecap="round" stroke-miterlimit="10"/><path d="M554.6,307.4l78.8-108.2c.5-.7.4-1.7-.4-2.2v0c-.7-.5-1.7-.4-2.2.4L552,305.6c-.5.7-.4,1.7.4,2.2v0c.6.4,1.6.3,2.2-.4Z" fill="#51565f" stroke="#32363b" stroke-width="2" stroke-linecap="round" stroke-miterlimit="10"/><path d="M504,221.9l222.2,35.5c.9.1,1.5,1,1.3,1.8l-.2,1.3c-.1.9-1,1.5-1.8,1.3L503.3,226.3c-.9-.1-1.5-1-1.3-1.8l.2-1.3c.1-.8.9-1.4,1.8-1.3Z" fill="#51565f" stroke="#1a1d20" stroke-width="3" stroke-linecap="round" stroke-miterlimit="10"/><path d="M517.8,186.3L727,269.2c.8.3,1.2,1.3.9,2.1l-.5,1.2c-.3.8-1.3,1.2-2.1.9L516.1,190.5c-.8-.3-1.2-1.3-.9-2.1l.5-1.2c.3-.8,1.2-1.2,2.1-.9Z" fill="#51565f" stroke="#32363b" stroke-width="2" stroke-linecap="round" stroke-miterlimit="10"/><path d="M501.8,238.5l133-14.8c.9-.1,1.5-.9,1.4-1.8v0c-.1-.9-.9-1.5-1.8-1.4l-133,14.8c-.9.1-1.5.9-1.4,1.8v0c.1.9.9,1.5,1.8,1.4Z" fill="#51565f" stroke="#32363b" stroke-width="2" stroke-linecap="round" stroke-miterlimit="10"/><path d="M770.7,195.7L554.2,257c-.9.2-1.7-.3-2-1.1l-.4-1.2c-.2-.9.3-1.7,1.1-2l216.5-61.3c.9-.2,1.7.3,2,1.1l.4,1.2c.3.9-.2,1.8-1.1,2Z" fill="#51565f" stroke="#1a1d20" stroke-width="3" stroke-linecap="round" stroke-miterlimit="10"/><path d="M773.2,233.8L548.6,246.7c-.9.1-1.6-.6-1.7-1.5l-.1-1.3c-.1-.9.6-1.6,1.5-1.7l224.6-12.9c.9-.1,1.6.6,1.7,1.5l.1,1.3c.1.9-.6,1.7-1.5,1.7Z" fill="#51565f" stroke="#32363b" stroke-width="2" stroke-linecap="round" stroke-miterlimit="10"/><path d="M765.8,179.8L651.4,249.2c-.8.5-1,1.4-.5,2.2v0c.5.8,1.4,1,2.2.5l114.4-69.4c.8-.5,1-1.4.5-2.2v0c-.5-.8-1.5-1-2.2-.5Z" fill="#51565f" stroke="#32363b" stroke-width="2" stroke-linecap="round" stroke-miterlimit="10"/><path d="M752.9,220.2l-218-55.7c-.9-.2-1.4-1.1-1.2-2l.3-1.3c.2-.9,1.1-1.4,2-1.2l218,55.7c.9.2,1.4,1.1,1.2,2l-.3,1.3c-.3.9-1.2,1.4-2,1.2Z" fill="#525653" stroke="#373636" stroke-linecap="round" stroke-miterlimit="10"/><path d="M735.9,254.4L535.1,152.7c-.8-.4-1.1-1.4-.7-2.2l.6-1.2c.4-.8,1.4-1.1,2.2-.7L737.9,250.2c.8.4,1.1,1.4.7,2.2l-.6,1.2c-.4.8-1.3,1.2-2.1.8Z" fill="#525653" stroke="#373636" stroke-linecap="round" stroke-miterlimit="10"/><path d="M756.6,203.9l-133.8,2.6c-.9,0-1.6.7-1.6,1.6v0c0,.9.7,1.6,1.6,1.6l133.8-2.6c.9,0,1.6-.7,1.6-1.6v0c0-1-.7-1.7-1.6-1.6Z" fill="#525653" stroke="#373636" stroke-linecap="round" stroke-miterlimit="10"/><path d="M484.8,221.9L706,180.6c.9-.2,1.7.4,1.9,1.3l.2,1.3c.2.9-.4,1.7-1.3,1.9L485.6,226.3c-.9.2-1.7-.4-1.9-1.3l-.2-1.3c-.1-.8.5-1.7,1.3-1.8Z" fill="#525653" stroke="#373636" stroke-linecap="round" stroke-miterlimit="10"/><path d="M488.3,238.2l120.3-58.6c.8-.4,1.1-1.3.7-2.1v0c-.4-.8-1.3-1.1-2.1-.7L486.9,235.4c-.8.4-1.1,1.3-.7,2.1v0c.4.8,1.3,1.1,2.1.7Z" fill="#525653" stroke="#373636" stroke-linecap="round" stroke-miterlimit="10"/><path d="M483.7,139.1L663.3,274.6c.7.5.8,1.5.3,2.2l-.8,1c-.5.7-1.5.8-2.2.3L481,142.6c-.7-.5-.8-1.5-.3-2.2l.8-1c.5-.7,1.5-.9,2.2-.3Z" fill="#525653" stroke="#373636" stroke-linecap="round" stroke-miterlimit="10"/><path d="M512.5,114.1L658.4,285.4c.6.7.5,1.7-.2,2.3l-1,.8c-.7.6-1.7.5-2.3-.2L509.1,117c-.6-.7-.5-1.7.2-2.3l1-.8c.7-.6,1.7-.5,2.2.2Z" fill="#525653" stroke="#373636" stroke-linecap="round" stroke-miterlimit="10"/><path d="M731.6,241l-220-47.4c-.9-.2-1.4-1-1.2-1.9l.3-1.3c.2-.9,1-1.4,1.9-1.2l220,47.4c.9.2,1.4,1,1.2,1.9l-.3,1.3c-.2.8-1,1.4-1.9,1.2Z" fill="#525653" stroke="#373636" stroke-linecap="round" stroke-miterlimit="10"/><path d="M715.9,275.8L511.4,181.9c-.8-.4-1.2-1.3-.8-2.1l.5-1.2c.4-.8,1.3-1.2,2.1-.8l204.5,93.9c.8.4,1.2,1.3.8,2.1L718,275c-.3.8-1.3,1.1-2.1.8Z" fill="#525653" stroke="#373636" stroke-linecap="round" stroke-miterlimit="10"/><path d="M734.7,224.5l-133.6,7.7c-.9.1-1.6.8-1.5,1.7v0c.1.9.8,1.6,1.7,1.5l133.6-7.7c.9-.1,1.6-.8,1.5-1.7v0c-.1-.8-.8-1.5-1.7-1.5Z" fill="#525653" stroke="#373636" stroke-linecap="round" stroke-miterlimit="10"/><path d="M630.3,230.7l-190.9-119c-.8-.5-1-1.5-.5-2.2l.7-1.1c.5-.8,1.5-1,2.2-.5L632.7,227c.8.5,1,1.5.5,2.2l-.7,1.1c-.4.7-1.4.9-2.2.4Z" fill="#525653" stroke="#373636" stroke-linecap="round" stroke-miterlimit="10"/><path d="M654.7,223.5L776,167c.8-.4,1.2-1.3.8-2.1v0c-.4-.8-1.3-1.2-2.1-.8L653.4,220.6c-.8.4-1.2,1.3-.8,2.1v0c.4.8,1.3,1.2,2.1.8Z" fill="#51565f" stroke="#32363b" stroke-width="2" stroke-linecap="round" stroke-miterlimit="10"/><path d="M606.9,224.1l217.7-56.8c.9-.2,1.7.3,2,1.1l.3,1.3c.2.9-.3,1.7-1.1,2L608.1,228.5c-.9.2-1.7-.3-2-1.1l-.3-1.3c-.3-.9.2-1.8,1.1-2Z" fill="#525653" stroke="#373636" stroke-linecap="round" stroke-miterlimit="10"/><path d="M840.6,92.8L667,236c-.7.6-1.7.5-2.3-.2l-.8-1c-.6-.7-.5-1.7.2-2.3L837.7,89.4c.7-.6,1.7-.5,2.3.2l.8,1c.6.6.5,1.7-.2,2.2Z" fill="#525653" stroke="#373636" stroke-linecap="round" stroke-miterlimit="10"/><path d="M858.2,126.7L657.7,228.8c-.8.4-1.8.1-2.2-.7l-.6-1.2c-.4-.8-.1-1.8.7-2.2L856.1,122.6c.8-.4,1.8-.1,2.2.7l.6,1.2c.4.8.1,1.8-.7,2.2Z" fill="#525653" stroke="#373636" stroke-linecap="round" stroke-miterlimit="10"/></g></g><g id="ew7rPQFdZHC166_to" transform="translate(681.256274,693.527405)"><g transform="translate(-681.256274,-693.527405)"><g id="ew7rPQFdZHC167_to" transform="translate(776.849976,679.827789)"><path id="ew7rPQFdZHC167" d="M721.6,717.7l112.2-73c.7-.5,1-1.5.5-2.2v0c-.5-.7-1.5-1-2.2-.5L719.9,715c-.7.5-1,1.5-.5,2.2v0c.5.7,1.5.9,2.2.5Z" transform="translate(-776.849976,-679.827789)" opacity="0" fill="#51565f" stroke="#32363b" stroke-width="2" stroke-linecap="round" stroke-miterlimit="10"/></g><g id="ew7rPQFdZHC168_to" transform="translate(348.950012,697.937897)"><path id="ew7rPQFdZHC168" d="M383.1,640.4l-71,113.4c-.5.8-.2,1.7.5,2.2v0c.8.5,1.7.2,2.2-.5l71-113.4c.5-.8.2-1.7-.5-2.2v0c-.7-.5-1.7-.3-2.2.5Z" transform="translate(-348.950012,-697.937897)" opacity="0" fill="#51565f" stroke="#32363b" stroke-width="2" stroke-linecap="round" stroke-miterlimit="10"/></g><g id="ew7rPQFdZHC169_to" transform="translate(817.600006,703.47229)"><path id="ew7rPQFdZHC169" d="M714.8,657.7l207.3,87.4c.8.3,1.2,1.3.9,2.1l-.5,1.2c-.3.8-1.3,1.2-2.1.9L713.1,661.9c-.8-.3-1.2-1.3-.9-2.1l.5-1.2c.3-.9,1.3-1.3,2.1-.9Z" transform="translate(-817.600006,-703.47229)" opacity="0" fill="#525653" stroke="#373636" stroke-linecap="round" stroke-miterlimit="10"/></g><g id="ew7rPQFdZHC170_to" transform="translate(127.554769,698.5)"><path id="ew7rPQFdZHC170" d="M240.1,696.8L15.2,704.7c-.9,0-1.6-.7-1.7-1.5v-1.3c0-.9.7-1.6,1.5-1.7l224.9-7.9c.9,0,1.6.7,1.7,1.5v1.3c.1.9-.6,1.6-1.5,1.7Z" transform="translate(-127.554769,-698.5)" opacity="0" fill="#525653" stroke="#373636" stroke-linecap="round" stroke-miterlimit="10"/></g><g id="ew7rPQFdZHC171_to" transform="translate(1223.876343,673.150024)"><path id="ew7rPQFdZHC171" d="M1288.2,691.9l-127.6-40.5c-.8-.3-1.7.2-2,1v0c-.3.8.2,1.7,1,2l127.5,40.5c.8.3,1.7-.2,2-1v0c.4-.8-.1-1.7-.9-2Z" transform="translate(-1223.876343,-673.150024)" opacity="0" fill="#525653" stroke="#373636" stroke-linecap="round" stroke-miterlimit="10"/></g><g id="ew7rPQFdZHC172_to" transform="translate(551.550034,730.799988)"><path id="ew7rPQFdZHC172" d="M612.7,703.5L489.2,755.1c-.8.3-1.2,1.3-.9,2.1v0c.3.8,1.3,1.2,2.1.9l123.5-51.6c.8-.3,1.2-1.3.9-2.1v0c-.3-.8-1.3-1.2-2.1-.9Z" transform="translate(-551.550034,-730.799988)" opacity="0" fill="#525653" stroke="#373636" stroke-linecap="round" stroke-miterlimit="10"/></g><g id="ew7rPQFdZHC173_to" transform="translate(639.850037,712.78244)"><path id="ew7rPQFdZHC173" d="M595.9,763.3l90.3-98.8c.6-.7.6-1.7-.1-2.3v0c-.7-.6-1.7-.6-2.3.1l-90.3,98.8c-.6.7-.6,1.7.1,2.3v0c.7.6,1.7.5,2.3-.1Z" transform="translate(-639.850037,-712.78244)" opacity="0" fill="#525653" stroke="#373636" stroke-linecap="round" stroke-miterlimit="10"/></g><g id="ew7rPQFdZHC174_to" transform="translate(309.899994,712.400024)"><path id="ew7rPQFdZHC174" d="M243,714h133.8c.9,0,1.6-.7,1.6-1.6v0c0-.9-.7-1.6-1.6-1.6h-133.8c-.9,0-1.6.7-1.6,1.6v0c0,.9.7,1.6,1.6,1.6Z" transform="translate(-309.899994,-712.400024)" opacity="0" fill="#525653" stroke="#373636" stroke-linecap="round" stroke-miterlimit="10"/></g><g id="ew7rPQFdZHC175_to" transform="translate(349.099983,740.095276)"><path id="ew7rPQFdZHC175" d="M461.3,748.4L236.6,736.3c-.9,0-1.6-.8-1.5-1.7l.1-1.3c0-.9.8-1.6,1.7-1.5l224.7,12.1c.9,0,1.6.8,1.5,1.7l-.1,1.3c0,.8-.8,1.5-1.7,1.5Z" transform="translate(-349.099983,-740.095276)" opacity="0" fill="#525653" stroke="#373636" stroke-linecap="round" stroke-miterlimit="10"/></g><g id="ew7rPQFdZHC176_to" transform="translate(901.699951,720.500031)"><path id="ew7rPQFdZHC176" d="M789.5,728.4l224.1-20.3c.9-.1,1.7.6,1.7,1.5l.1,1.3c.1.9-.6,1.7-1.5,1.7L789.8,732.9c-.9.1-1.7-.6-1.7-1.5l-.1-1.3c-.1-.9.6-1.6,1.5-1.7Z" transform="translate(-901.699951,-720.500031)" opacity="0" fill="#51565f" stroke="#32363b" stroke-width="2" stroke-linecap="round" stroke-miterlimit="10"/></g><g id="ew7rPQFdZHC177_to" transform="translate(1307.400024,700.959259)"><path id="ew7rPQFdZHC177" d="M1346.5,646.6l-80.7,106.8c-.5.7-.4,1.7.3,2.2v0c.7.5,1.7.4,2.2-.3L1349,648.6c.5-.7.4-1.7-.3-2.2v0c-.7-.6-1.7-.5-2.2.2Z" transform="translate(-1307.400024,-700.959259)" opacity="0" fill="#51565f" stroke="#32363b" stroke-width="2" stroke-linecap="round" stroke-miterlimit="10"/></g><g id="ew7rPQFdZHC178_to" transform="translate(1047.473755,719.999969)"><path id="ew7rPQFdZHC178" d="M940.8,755.8l211.8-75.9c.8-.3,1.8.1,2.1,1l.4,1.2c.3.8-.1,1.8-1,2.1L942.3,760.1c-.8.3-1.8-.1-2.1-1l-.4-1.2c-.2-.9.2-1.8,1-2.1Z" transform="translate(-1047.473755,-719.999969)" opacity="0" fill="#525653" stroke="#373636" stroke-linecap="round" stroke-miterlimit="10"/></g><g id="ew7rPQFdZHC179_to" transform="translate(1215.19989,730.399994)"><path id="ew7rPQFdZHC179" d="M1275.2,700.7l-121.3,56.5c-.8.4-1.2,1.3-.8,2.1v0c.4.8,1.3,1.2,2.1.8l121.3-56.5c.8-.4,1.2-1.3.8-2.1v0c-.4-.8-1.3-1.2-2.1-.8Z" transform="translate(-1215.19989,-730.399994)" opacity="0" fill="#525653" stroke="#373636" stroke-linecap="round" stroke-miterlimit="10"/></g><g id="ew7rPQFdZHC180_to" transform="translate(1030.550018,661.362152)"><path id="ew7rPQFdZHC180" d="M975.3,699.2l112.2-73c.7-.5,1-1.5.5-2.2v0c-.5-.7-1.5-1-2.2-.5l-112.2,73c-.7.5-1,1.5-.5,2.2v0c.5.8,1.5,1,2.2.5Z" transform="translate(-1030.550018,-661.362152)" opacity="0" fill="#51565f" stroke="#32363b" stroke-width="2" stroke-linecap="round" stroke-miterlimit="10"/></g><g id="ew7rPQFdZHC181_to" transform="translate(1104.950073,740.854767)"><path id="ew7rPQFdZHC181" d="M1038.4,748.4l133.3-11.9c.9-.1,1.5-.9,1.5-1.7v0c-.1-.9-.9-1.5-1.7-1.5l-133.3,11.9c-.9.1-1.5.9-1.5,1.7v0c.1.9.9,1.6,1.7,1.5Z" transform="translate(-1104.950073,-740.854767)" opacity="0" fill="#525653" stroke="#373636" stroke-linecap="round" stroke-miterlimit="10"/></g><g id="ew7rPQFdZHC182_to" transform="translate(81.700007,746.300049)"><path id="ew7rPQFdZHC182" d="M14.8,747.9h133.8c.9,0,1.6-.7,1.6-1.6v0c0-.9-.7-1.6-1.6-1.6h-133.8c-.9,0-1.6.7-1.6,1.6v0c0,.9.8,1.6,1.6,1.6Z" transform="translate(-81.700007,-746.300049)" opacity="0" fill="#525653" stroke="#373636" stroke-linecap="round" stroke-miterlimit="10"/></g><g id="ew7rPQFdZHC183_to" transform="translate(365.100006,680.097473)"><path id="ew7rPQFdZHC183" d="M474.6,706l-220-47.4c-.9-.2-1.4-1-1.2-1.9l.3-1.3c.2-.9,1-1.4,1.9-1.2l220,47.4c.9.2,1.4,1,1.2,1.9l-.3,1.3c-.2.8-1,1.4-1.9,1.2Z" transform="translate(-365.100006,-680.097473)" opacity="0" fill="#525653" stroke="#373636" stroke-linecap="round" stroke-miterlimit="10"/></g><g id="ew7rPQFdZHC184_to" transform="translate(697,745.954773)"><path id="ew7rPQFdZHC184" d="M763.7,740.5l-133.6,7.7c-.9.1-1.6.8-1.5,1.7v0c.1.9.8,1.6,1.7,1.5l133.6-7.7c.9-.1,1.6-.8,1.5-1.7v0c-.1-.8-.8-1.5-1.7-1.5Z" transform="translate(-697,-745.954773)" opacity="0" fill="#525653" stroke="#373636" stroke-linecap="round" stroke-miterlimit="10"/></g><g id="ew7rPQFdZHC185_to" transform="translate(138.050007,698.302612)"><path id="ew7rPQFdZHC185" d="M232.3,759.7L41.4,640.7c-.8-.5-1-1.5-.5-2.2l.7-1.1c.5-.8,1.5-1,2.2-.5L234.7,756c.8.5,1,1.5.5,2.2l-.7,1.1c-.4.7-1.4.9-2.2.4Z" transform="translate(-138.050007,-698.302612)" opacity="0" fill="#525653" stroke="#373636" stroke-linecap="round" stroke-miterlimit="10"/></g><g id="ew7rPQFdZHC186_to" transform="translate(545.32843,703.899963)"><path id="ew7rPQFdZHC186" d="M435.9,730.1l217.7-56.8c.9-.2,1.7.3,2,1.1l.3,1.3c.2.9-.3,1.7-1.1,2L437.1,734.5c-.9.2-1.7-.3-2-1.1l-.3-1.3c-.3-.9.2-1.8,1.1-2Z" transform="translate(-545.32843,-703.899963)" opacity="0" fill="#525653" stroke="#373636" stroke-linecap="round" stroke-miterlimit="10"/></g></g></g></svg>
